<svg xmlns="http://www.w3.org/2000/svg" xmlns:xlink="http://www.w3.org/1999/xlink" viewBox="0 0 370.62 62.3"><defs><style>.cls-1{fill:none;}.cls-2{clip-path:url(#clip-path);}.cls-3{fill:#fff;}</style><clipPath id="clip-path" transform="translate(0 0)"><rect class="cls-1" width="370.62" height="62.3"/></clipPath></defs><g id="Layer_2" data-name="Layer 2"><g id="Group_4_Copy" data-name="Group 4 Copy"><g class="cls-2"><path class="cls-3" d="M20.25,20.77a1,1,0,0,1-1-1v-18A1.83,1.83,0,0,1,21.1,0H42a1.83,1.83,0,0,1,1.83,1.83V17.31a1,1,0,0,1-2,0V1.83L21.1,1.94l.12,17.86a1,1,0,0,1-1,1Z" transform="translate(0 0)"/><path class="cls-3" d="M13.12,48.26a1.85,1.85,0,0,1-1.82-1.49L8.53,32.9.79,27.54a1.85,1.85,0,0,1,.86-3.35l60-6.6A1.86,1.86,0,0,1,63,18a1.82,1.82,0,0,1,.64,1.31l.47,9.72a1,1,0,0,1-.93,1,.92.92,0,0,1-1-.92l-.47-9.72L1.86,26.12l7.82,5.25a1.86,1.86,0,0,1,.75,1.15l2.78,13.87,9.24-2.34a1,1,0,1,1,.46,1.89l-9.36,2.27a2.1,2.1,0,0,1-.43,0Z" transform="translate(0 0)"/><path class="cls-3" d="M68.82,30.65l-.19,0L25.46,39.83a.87.87,0,0,0-.69,1l2.84,20.74a.87.87,0,0,0,.87.76.85.85,0,0,0,.31-.06L66.4,47.69a.88.88,0,0,0,.56-.8l.26-11.24a.8.8,0,0,1,.15-.47L69.53,32a.88.88,0,0,0-.71-1.37Zm-2.4,2.48-.65.95a2.87,2.87,0,0,0-.5,1.53L65,46.14,29.35,59.94,26.83,41.52l39.59-8.39" transform="translate(0 0)"/></g><polygon class="cls-3" points="34.35 31.6 38.87 28.32 33.29 28.32 31.56 23.01 29.84 28.32 24.25 28.32 28.77 31.6 27.05 36.91 31.56 33.63 36.08 36.91 34.35 31.6 34.35 31.6"/><path class="cls-3" d="M87.81,15.63h3l0-4.23,4.89-2.14v5.09l-.23,1.28H100v4.2H95.54l.23,1.32v7.51c0,2.06.47,2.41,2.3,2.41a11.88,11.88,0,0,0,2.6-.35v3.81a13.42,13.42,0,0,1-4.7.89c-3.73,0-5.33-1.55-5.33-5.91V19.83H87.81v-4.2Z" transform="translate(0 0)"/><path class="cls-3" d="M100.63,25.35c0-5.91,3.5-10.26,9.64-10.26,4.12,0,6.92,1.56,8,5.52l-4.7,1.83c-.32-1.75-1-3.42-3.31-3.42-2.52,0-4.12,1.94-4.12,6.18,0,4,1.17,6.37,4.16,6.37a3.41,3.41,0,0,0,3.58-2.87l4.31,1.82c-.93,2.61-3.34,5.06-8.08,5.06-6,0-9.49-4-9.49-10.23Z" transform="translate(0 0)"/><path class="cls-3" d="M124.19,18.2c0,.62-.2,2.53-.2,2.53h.27c1-3.54,3.46-5.6,6.69-5.6s5.09,2.29,5.4,5.4h.27c1.13-3.46,3.5-5.4,6.61-5.4,3.78,0,5.48,2.68,5.48,7v13h-5.44V23.6c0-2.6-.46-3.92-2.37-3.92S137,21,136.59,25V35.11h-5.41V23.6c0-3.15-1-3.92-2.64-3.92-2.1,0-4.12,1.82-4.2,5.52v9.91h-5.4V15.63h5.25V18.2Z" transform="translate(0 0)"/><path class="cls-3" d="M156,17.34c0,.47-.28,3.39-.28,3.39H156c1.08-3.54,3.49-5.6,6.76-5.6,3.73,0,5.91,2.25,5.91,7v13h-5.48V23.6c0-3.15-1.29-3.92-3-3.92-2.14,0-4.05,2-4.16,5.87v9.56h-5.25V6.58H156V17.34Z" transform="translate(0 0)"/><path class="cls-3" d="M170.28,25.35c0-5.91,3.5-10.26,9.64-10.26,4.12,0,6.92,1.56,8,5.52l-4.71,1.83c-.31-1.75-1.05-3.42-3.3-3.42-2.53,0-4.12,1.94-4.12,6.18,0,4,1.16,6.37,4.16,6.37a3.39,3.39,0,0,0,3.57-2.87l4.32,1.82c-.94,2.61-3.35,5.06-8.09,5.06-6,0-9.48-4-9.48-10.23Z" transform="translate(0 0)"/><path class="cls-3" d="M187.26,25.35c0-5.91,3.5-10.26,9.64-10.26,4.12,0,6.92,1.56,8,5.52l-4.7,1.83c-.32-1.75-1.06-3.42-3.31-3.42-2.52,0-4.12,1.94-4.12,6.18,0,4,1.17,6.37,4.16,6.37a3.41,3.41,0,0,0,3.58-2.87l4.31,1.82c-.93,2.61-3.34,5.06-8.09,5.06-6,0-9.48-4-9.48-10.23Z" transform="translate(0 0)"/><polygon class="cls-3" points="87.47 45.67 95.2 45.67 95.2 46.59 91.87 46.59 91.87 56.5 90.83 56.5 90.83 46.59 87.47 46.59 87.47 45.67 87.47 45.67"/><path class="cls-3" d="M96.81,51.89h5v-.13c0-1.73-.69-2.76-2.36-2.76-1.34,0-2.46.83-2.59,2.89Zm-1.06.53c0-2.71,1.52-4.23,3.7-4.23,2.36,0,3.38,1.62,3.35,3.8v.63h-6c0,2.13,1.11,3.2,2.75,3.2a2.59,2.59,0,0,0,2.29-1.12l.71.49a3.49,3.49,0,0,1-3,1.46c-2.39,0-3.75-1.59-3.73-4.23Z" transform="translate(0 0)"/><polygon class="cls-3" points="107.36 53.64 106.95 52.9 106.9 52.9 106.34 53.83 104.44 56.5 103.23 56.5 105.76 53.07 106.39 52.32 106.39 52.26 105.87 51.68 103.54 48.36 104.72 48.36 106.53 50.98 106.93 51.68 106.98 51.68 107.47 50.84 109.18 48.36 110.37 48.36 108.09 51.5 107.47 52.26 107.47 52.32 107.97 52.9 110.53 56.5 109.36 56.5 107.36 53.64 107.36 53.64"/><path class="cls-3" d="M116.2,53.31V51.78a3.75,3.75,0,0,1-1.79.71c-1.56.31-2.5.8-2.5,1.9a1.41,1.41,0,0,0,1.58,1.45,2.68,2.68,0,0,0,2.71-2.53Zm0,1.27a3,3,0,0,1-3,2.07c-1.66,0-2.45-1-2.43-2.18,0-1.49,1.17-2.13,2.94-2.48s2.39-.48,2.41-1v-.15c0-1.21-.61-1.84-2-1.84a2.78,2.78,0,0,0-2.43,1.33l-.83-.43a3.83,3.83,0,0,1,3.34-1.72c1.92,0,2.88.89,2.88,2.82v2.76c0,1.72.18,2.43.39,2.71h-1a3.88,3.88,0,0,1-.33-1.92Z" transform="translate(0 0)"/><path class="cls-3" d="M118.46,55l.73-.53a2.69,2.69,0,0,0,2.48,1.32c1.07,0,1.78-.51,1.78-1.4s-1-1.31-2.22-1.7-2.47-.89-2.47-2.3,1.25-2.21,2.82-2.21a3.2,3.2,0,0,1,2.83,1.37l-.73.54A2.35,2.35,0,0,0,121.55,49c-1,0-1.77.53-1.77,1.32,0,1,.91,1.24,2.13,1.69s2.55.91,2.55,2.39-1.16,2.25-2.84,2.25A3.51,3.51,0,0,1,118.46,55Z" transform="translate(0 0)"/><path class="cls-3" d="M127.91,51.1c0-3.45,2.05-5.65,5-5.65A4,4,0,0,1,137,48.67l-1,.22c-.55-1.8-1.52-2.55-3.14-2.55-2.31,0-3.87,1.8-3.87,4.73v0c0,2.8,1.33,4.7,3.75,4.7a3.18,3.18,0,0,0,3.34-2.72l1,.19a4.11,4.11,0,0,1-4.36,3.41c-3.07,0-4.82-2.28-4.82-5.6Z" transform="translate(0 0)"/><path class="cls-3" d="M139.6,49.48c0,.08-.08,1.25-.08,1.25h.08a3.22,3.22,0,0,1,3.06-2.52c1.72,0,2.46,1.12,2.46,3V56.5h-1v-5c0-1.62-.54-2.43-1.78-2.43-1.42,0-2.61,1.34-2.7,3.49V56.5h-1v-12h1v5Z" transform="translate(0 0)"/><path class="cls-3" d="M147.37,48.36h1V56.5h-1V48.36Zm-.05-1.74v-1.5s0-.06.08-.06h1s.08,0,.08.06v1.5a.1.1,0,0,1-.08.09h-1c-.06,0-.08,0-.08-.09Z" transform="translate(0 0)"/><polygon class="cls-3" points="150.77 44.49 151.79 44.49 151.79 56.5 150.77 56.5 150.77 44.49 150.77 44.49"/><path class="cls-3" d="M159.74,52.62v-.43c0-1.7-.94-3.19-2.68-3.19s-2.57,1.27-2.57,3.32.94,3.49,2.5,3.49a2.92,2.92,0,0,0,2.75-3.19Zm-6.33-.25c0-2.59,1.27-4.18,3.44-4.18a2.93,2.93,0,0,1,2.85,2h.07L159.7,49V44.49h1v12h-1V54.91l0-.69a3.11,3.11,0,0,1-3,2.41c-2,0-3.35-1.65-3.35-4.26Z" transform="translate(0 0)"/><polygon class="cls-3" points="165.65 45.67 167.32 45.67 170.6 53.96 171.07 55.59 171.13 55.59 171.56 53.96 174.85 45.67 176.53 45.67 176.53 56.5 175.53 56.5 175.53 50.23 175.63 46.33 175.54 46.33 174.49 49.18 171.53 56.5 170.64 56.5 167.73 49.4 166.59 46.33 166.51 46.33 166.64 50.23 166.64 56.5 165.65 56.5 165.65 45.67 165.65 45.67"/><path class="cls-3" d="M179.46,51.89h5v-.13c0-1.73-.7-2.76-2.37-2.76-1.33,0-2.46.83-2.59,2.89Zm-1.06.53c0-2.71,1.52-4.23,3.7-4.23,2.37,0,3.39,1.62,3.36,3.8v.63h-6c0,2.13,1.1,3.2,2.74,3.2a2.62,2.62,0,0,0,2.3-1.12l.71.49a3.52,3.52,0,0,1-3,1.46c-2.4,0-3.75-1.59-3.74-4.23Z" transform="translate(0 0)"/><path class="cls-3" d="M188.18,49.51c0,.1-.08,1.33-.08,1.33h.08a3.29,3.29,0,0,1,3.07-2.63c1.71,0,2.45,1.22,2.45,3.15V56.5h-1v-5c0-1.62-.55-2.43-1.77-2.43-1.44,0-2.61,1.31-2.69,3.42v4h-1V48.36h1v1.15Z" transform="translate(0 0)"/><path class="cls-3" d="M194.81,48.36h1.48l0-2.31.92-.43V47.7l0,.66h2.48v.87h-2.48l0,.75v4.13c0,1.28.25,1.63,1.23,1.63a4.47,4.47,0,0,0,1.45-.25v.81a5.25,5.25,0,0,1-1.7.32c-1.4,0-2-.65-2-2.28V49.23h-1.45v-.87Z" transform="translate(0 0)"/><path class="cls-3" d="M205.67,53.31V51.78a3.7,3.7,0,0,1-1.78.71c-1.57.31-2.51.8-2.51,1.9A1.41,1.41,0,0,0,203,55.84a2.67,2.67,0,0,0,2.7-2.53Zm0,1.27a3,3,0,0,1-3,2.07c-1.65,0-2.45-1-2.43-2.18,0-1.49,1.18-2.13,2.94-2.48s2.4-.48,2.41-1v-.15c0-1.21-.61-1.84-1.94-1.84a2.77,2.77,0,0,0-2.43,1.33l-.83-.43a3.81,3.81,0,0,1,3.34-1.72c1.91,0,2.87.89,2.87,2.82v2.76c0,1.72.18,2.43.4,2.71h-1a3.65,3.65,0,0,1-.33-1.92Z" transform="translate(0 0)"/><polygon class="cls-3" points="208.81 44.49 209.83 44.49 209.83 56.5 208.81 56.5 208.81 44.49 208.81 44.49"/><polygon class="cls-3" points="214.82 45.67 215.87 45.67 215.87 50.49 221.78 50.49 221.78 45.67 222.82 45.67 222.82 56.5 221.78 56.5 221.78 51.41 215.87 51.41 215.87 56.5 214.82 56.5 214.82 45.67 214.82 45.67"/><path class="cls-3" d="M225.74,51.89h5v-.13c0-1.73-.7-2.76-2.37-2.76-1.33,0-2.46.83-2.59,2.89Zm-1.05.53c0-2.71,1.51-4.23,3.69-4.23,2.37,0,3.39,1.62,3.36,3.8v.63h-6c0,2.13,1.1,3.2,2.74,3.2a2.62,2.62,0,0,0,2.3-1.12l.71.49a3.52,3.52,0,0,1-3,1.46c-2.4,0-3.75-1.59-3.73-4.23Z" transform="translate(0 0)"/><path class="cls-3" d="M238.08,53.31V51.78a3.7,3.7,0,0,1-1.78.71c-1.57.31-2.51.8-2.51,1.9a1.41,1.41,0,0,0,1.58,1.45,2.68,2.68,0,0,0,2.71-2.53Zm0,1.27a3,3,0,0,1-3,2.07c-1.65,0-2.45-1-2.43-2.18,0-1.49,1.17-2.13,2.94-2.48s2.39-.48,2.41-1v-.15c0-1.21-.61-1.84-2-1.84a2.78,2.78,0,0,0-2.43,1.33l-.82-.43a3.8,3.8,0,0,1,3.33-1.72c1.92,0,2.88.89,2.88,2.82v2.76c0,1.72.18,2.43.39,2.71h-1a3.71,3.71,0,0,1-.34-1.92Z" transform="translate(0 0)"/><polygon class="cls-3" points="241.22 44.49 242.24 44.49 242.24 56.5 241.22 56.5 241.22 44.49 241.22 44.49"/><path class="cls-3" d="M243.47,48.36H245l0-2.31.93-.43V47.7l-.05.66h2.47v.87h-2.47l.05.75v4.13c0,1.28.24,1.63,1.22,1.63a4.43,4.43,0,0,0,1.45-.25v.81a5.25,5.25,0,0,1-1.7.32c-1.4,0-2-.65-2-2.28V49.23h-1.45v-.87Z" transform="translate(0 0)"/><path class="cls-3" d="M250.69,49.48c0,.08-.09,1.25-.09,1.25h.09a3.2,3.2,0,0,1,3.05-2.52c1.72,0,2.46,1.12,2.46,3V56.5h-1v-5c0-1.62-.54-2.43-1.78-2.43-1.42,0-2.61,1.34-2.69,3.49V56.5h-1v-12h1v5Z" transform="translate(0 0)"/><path class="cls-3" d="M260.3,51.1c0-3.45,2.05-5.65,4.95-5.65a4,4,0,0,1,4.16,3.22l-1,.22c-.55-1.8-1.53-2.55-3.14-2.55-2.32,0-3.87,1.8-3.87,4.73v0c0,2.8,1.32,4.7,3.75,4.7a3.16,3.16,0,0,0,3.33-2.72l1,.19a4.12,4.12,0,0,1-4.36,3.41c-3.07,0-4.82-2.28-4.82-5.6Z" transform="translate(0 0)"/><path class="cls-3" d="M275.64,53.31V51.78a3.7,3.7,0,0,1-1.78.71c-1.57.31-2.51.8-2.51,1.9a1.41,1.41,0,0,0,1.58,1.45,2.67,2.67,0,0,0,2.71-2.53Zm0,1.27a3,3,0,0,1-2.95,2.07c-1.65,0-2.45-1-2.43-2.18,0-1.49,1.17-2.13,2.94-2.48s2.4-.48,2.41-1v-.15c0-1.21-.61-1.84-1.95-1.84a2.79,2.79,0,0,0-2.43,1.33l-.82-.43a3.81,3.81,0,0,1,3.34-1.72c1.91,0,2.87.89,2.87,2.82v2.76c0,1.72.18,2.43.39,2.71h-1a3.88,3.88,0,0,1-.33-1.92Z" transform="translate(0 0)"/><path class="cls-3" d="M278.68,48.36h1v1.17l-.16,2.61h.1c.28-2,1.29-3.88,3-3.88h.28v1.17a3.7,3.7,0,0,0-.5,0c-1.52,0-2.44,1.67-2.74,3.59v3.5h-1V48.36Z" transform="translate(0 0)"/><path class="cls-3" d="M284.36,51.89h5v-.13c0-1.73-.7-2.76-2.37-2.76-1.33,0-2.46.83-2.59,2.89Zm-1.05.53c0-2.71,1.51-4.23,3.69-4.23,2.37,0,3.39,1.62,3.36,3.8v.63h-6c.05,2.13,1.11,3.2,2.74,3.2a2.62,2.62,0,0,0,2.3-1.12l.71.49a3.52,3.52,0,0,1-3,1.46c-2.4,0-3.75-1.59-3.73-4.23Z" transform="translate(0 0)"/><path class="cls-3" d="M294,51.1c0-3.45,2.05-5.65,5-5.65a4,4,0,0,1,4.17,3.22l-1,.22c-.55-1.8-1.53-2.55-3.14-2.55-2.31,0-3.87,1.8-3.87,4.73v0c0,2.8,1.32,4.7,3.75,4.7a3.18,3.18,0,0,0,3.34-2.72l1,.19a4.11,4.11,0,0,1-4.36,3.41c-3.07,0-4.82-2.28-4.82-5.6Z" transform="translate(0 0)"/><path class="cls-3" d="M310.53,52.42c0-2.06-.93-3.42-2.68-3.42S305,50.4,305,52.42s1,3.4,2.77,3.4,2.75-1.34,2.75-3.4Zm-6.6,0c0-2.39,1.46-4.23,3.94-4.23s3.73,1.67,3.73,4.21-1.52,4.25-3.82,4.25c-2.46,0-3.85-1.6-3.85-4.23Z" transform="translate(0 0)"/><path class="cls-3" d="M314.19,49.51c0,.1-.08,1.33-.08,1.33h.08a3.29,3.29,0,0,1,3.07-2.63c1.7,0,2.45,1.22,2.45,3.15V56.5h-1v-5c0-1.62-.55-2.43-1.77-2.43-1.44,0-2.61,1.31-2.69,3.42v4h-1V48.36h1v1.15Z" transform="translate(0 0)"/><path class="cls-3" d="M321.06,55l.73-.53a2.69,2.69,0,0,0,2.48,1.32c1.07,0,1.78-.51,1.78-1.4s-1-1.31-2.21-1.7-2.48-.89-2.48-2.3,1.26-2.21,2.83-2.21A3.18,3.18,0,0,1,327,49.58l-.73.54A2.35,2.35,0,0,0,324.15,49c-1,0-1.77.53-1.77,1.32,0,1,.92,1.24,2.14,1.69s2.54.91,2.54,2.39-1.16,2.25-2.84,2.25A3.52,3.52,0,0,1,321.06,55Z" transform="translate(0 0)"/><path class="cls-3" d="M334.48,52.42c0-2.06-.93-3.42-2.68-3.42S329,50.4,329,52.42s1,3.4,2.78,3.4,2.74-1.34,2.74-3.4Zm-6.59,0c0-2.39,1.45-4.23,3.93-4.23s3.73,1.67,3.73,4.21-1.52,4.25-3.81,4.25c-2.47,0-3.85-1.6-3.85-4.23Z" transform="translate(0 0)"/><path class="cls-3" d="M337.05,48.36h1v1.17l-.16,2.61h.1c.28-2,1.29-3.88,3-3.88h.28v1.17a3.7,3.7,0,0,0-.5,0c-1.52,0-2.44,1.67-2.74,3.59v3.5h-1V48.36Z" transform="translate(0 0)"/><path class="cls-3" d="M341.23,48.36h1.49l0-2.31.92-.43V47.7l-.05.66h2.48v.87h-2.48l.05.75v4.13c0,1.28.25,1.63,1.22,1.63a4.48,4.48,0,0,0,1.46-.25v.81a5.3,5.3,0,0,1-1.7.32c-1.41,0-1.95-.65-1.95-2.28V49.23h-1.46v-.87Z" transform="translate(0 0)"/><path class="cls-3" d="M347.51,48.36h1V56.5h-1V48.36Zm-.05-1.74v-1.5s0-.06.08-.06h1s.08,0,.08.06v1.5a.1.1,0,0,1-.08.09h-1c-.06,0-.08,0-.08-.09Z" transform="translate(0 0)"/><path class="cls-3" d="M350.69,53.48V48.36h1.05v5c0,1.61.51,2.36,1.75,2.36s2.32-1.31,2.48-3.26V48.36h1V56.5h-1v-.86l.06-1.5H356a3,3,0,0,1-2.78,2.51c-1.76,0-2.53-1.21-2.53-3.17Z" transform="translate(0 0)"/><path class="cls-3" d="M360.26,49.51c0,.14-.09,1.33-.09,1.33h.09a3.16,3.16,0,0,1,3-2.63c1.53,0,2.16,1.11,2.24,2.64h.09a3.1,3.1,0,0,1,2.83-2.64c1.61,0,2.24,1.2,2.24,3.17V56.5h-1.05v-5c0-1.6-.38-2.39-1.53-2.39s-2.4,1.17-2.53,3.37v4h-1v-5c0-1.62-.43-2.43-1.62-2.43-1.43,0-2.49,1.31-2.58,3.42v4h-1V48.36h1v1.15Z" transform="translate(0 0)"/></g></g></svg>