<?xml version="1.0" encoding="UTF-8"?><svg id="a" xmlns="http://www.w3.org/2000/svg" width="3in" height="1.65in" viewBox="0 0 216.1 118.56"><g id="b"><g id="c"><path d="M.05,20.52h50.32v-7.67h-6.3v-2.48h-1.48s-3.26.13-5.71-1.32c-2.42-1.43-2.87-2.8-2.88-2.8v-1.99h-3.23c-.55-2.43-2.73-4.25-5.33-4.25s-4.78,1.82-5.33,4.25h-3.29v1.99s-.46,1.37-2.88,2.8c-2.45,1.45-5.71,1.32-5.71,1.32h-1.93v2.48H0v7.64" fill="#bc4b27"/><path d="M.04,37.05c.07,3.69.61,7.33,1.54,10.9,1.75,6.72,4.97,12.58,10.11,17.32,3.97,3.65,8.53,6.43,13.21,9.05.14.08.4.05.55-.03,3.25-1.8,6.41-3.74,9.42-5.93,6.41-4.66,10.87-10.73,13.25-18.31,1.67-5.3,2.22-10.76,2.26-16.28.02-2.89.02-7.93.02-10.82H.02c0,3.98-.06,10.12.02,14.1M21.54,40.46l3.66-11.27,3.66,11.27h11.85l-9.58,6.96,3.66,11.27-9.58-6.96-9.58,6.96,3.66-11.26-9.58-6.96h11.85Z" fill="#bc4b27"/><path d="M25.34,20.53L25.49.03c-2.6,0-4.78,1.82-5.33,4.25h-3.29v1.99s-.46,1.37-2.88,2.8c-2.45,1.45-5.71,1.32-5.71,1.32h-1.93v2.48H.05v7.64h25.29Z" fill="#d66027"/><path d="M25.23,51.74l-9.58,6.96,3.66-11.26-9.58-6.96h11.85l3.66-11.27-.04-6.24H.05c0,3.98-.06,10.12.02,14.1.07,3.69.61,7.33,1.54,10.9,1.75,6.72,4.97,12.58,10.11,17.32,3.97,3.65,8.54,6.43,13.21,9.05.14.08.26.03.26.03l.04-22.63Z" fill="#d66027"/><polygon points="40.74 40.46 28.89 40.46 25.23 29.19 21.57 40.46 9.73 40.46 19.31 47.42 15.65 58.69 25.23 51.72 34.82 58.69 31.16 47.42 40.74 40.46" fill="#fff"/><polygon points="25.23 29.19 28.89 40.46 40.74 40.46 31.16 47.42 34.82 58.69 25.23 51.72 25.23 29.19" fill="#fdceb0"/></g><path d="M31.58,71.77c.21,0,.42.05.62.16.2.11.36.26.47.47.11.2.17.41.17.63s-.06.43-.17.63c-.11.2-.27.36-.47.47-.2.11-.41.17-.63.17s-.43-.06-.63-.17c-.2-.11-.35-.27-.47-.47-.11-.2-.17-.41-.17-.63s.06-.43.17-.63c.11-.2.27-.36.47-.47.2-.11.41-.16.62-.16ZM31.58,71.97c-.18,0-.35.05-.52.14-.17.09-.3.22-.39.39-.09.17-.14.34-.14.53s.05.36.14.52c.09.17.22.3.39.39.17.09.34.14.52.14s.36-.05.52-.14c.17-.09.3-.22.39-.39.09-.17.14-.34.14-.52s-.05-.36-.14-.53c-.09-.17-.22-.3-.39-.39-.17-.09-.34-.14-.52-.14ZM31.03,73.72v-1.35h.47c.16,0,.27.01.35.04.07.03.13.07.17.13.04.06.06.13.06.2,0,.1-.04.19-.11.26-.07.07-.16.11-.28.12.05.02.09.04.11.07.05.05.12.14.2.27l.17.27h-.27l-.12-.21c-.09-.17-.17-.27-.23-.32-.04-.03-.1-.05-.17-.05h-.13v.58h-.22ZM31.25,72.96h.27c.13,0,.21-.02.26-.06.05-.04.07-.09.07-.15,0-.04-.01-.08-.03-.11-.02-.03-.05-.06-.09-.07-.04-.02-.11-.02-.22-.02h-.25v.41Z" fill="#231f20"/><path d="M80.36,44.73c1.4-1.89,2.11-4.61,2.11-8.1v-9.46c0-1.57.11-2.65.34-3.2.21-.54.7-.97,1.44-1.27.32-.13.48-.32.48-.56,0-.29-.18-.46-.48-.46-.12,0-.4.02-.85.06-.33.04-1.21.06-2.62.06-.66,0-1.24-.04-1.71-.11-.55-.09-.95-.14-1.23-.15-.16,0-.28.03-.37.11-.09.09-.14.22-.14.4,0,.21.12.48.67.53,1.05.1,1.8.49,2.24,1.18.44.7.67,1.84.67,3.4v9.89c0,3.3-.75,5.8-2.23,7.43-1.47,1.63-3.73,2.45-6.72,2.45-3.34,0-5.74-.99-7.15-2.93-1-1.37-1.51-3.71-1.51-6.96v-9.63l-.04-1.26c0-1.21.12-2.05.36-2.51.23-.44.7-.75,1.39-.9.47-.09.71-.28.71-.59,0-.16-.07-.42-.56-.42-.18,0-.51.02-.99.06-.57.05-.91.08-1.06.08h-1.45l-1.47.02c-.27,0-.69-.02-1.27-.06-.56-.02-1.01-.04-1.32-.04-.7,0-.85.31-.85.57,0,.19.11.44.62.51,1.09.16,1.83.49,2.18.97.36.49.54,1.42.54,2.75l.04,1.09v9.71c0,2.67.46,4.87,1.37,6.54.81,1.46,2.11,2.62,3.86,3.47,1.74.85,3.73,1.27,5.9,1.27,1.87,0,3.65-.36,5.29-1.07,1.65-.71,2.94-1.68,3.82-2.88" fill="#231f20"/><path d="M95.65,24.08c.59,0,.78.1.84.16.06.06.16.24.16.8l.02.49v18.97c0,1.04-.16,1.76-.49,2.15-.32.39-.96.65-1.91.77-.49.06-.74.22-.74.49,0,.2.09.53.7.53.13,0,.56-.04,1.3-.11.36-.04.82-.06,1.35-.06l1.49-.02,1.4.02c.9,0,1.47.02,1.7.06.48.08.8.12.96.12.57,0,.66-.33.66-.53,0-.28-.26-.46-.77-.55-1.56-.27-2.34-1.1-2.4-2.54l-.02-.74v-18.76c0-.74.12-.97.19-1.05.07-.07.29-.19.97-.19h5.37c1.04,0,1.74.13,2.09.39h0c.34.25.6.82.76,1.69.09.47.27.71.59.69.24-.02.53-.17.51-.74-.01-.2-.05-.51-.12-.95-.06-.33-.09-.88-.09-1.61,0-1.05-.14-1.32-.25-1.44-.18-.18-.61-.27-1.36-.27h-20.58c-.48,0-.79.11-.95.33-.15.21-.22.61-.22,1.22,0,.58-.1,1.34-.28,2.24-.16.72-.23,1.21-.23,1.49,0,.53.29.63.46.64.46.02.59-.61.64-.82.25-1.12.6-1.88,1.04-2.28.44-.39,1.17-.59,2.16-.59h5.06Z" fill="#231f20"/><path d="M139.62,48.35c.38-.04.68-.06.91-.06l1.43-.04,1.42.02c.96,0,1.59.03,1.89.07.82.13,1.33.16,1.55-.08.09-.1.13-.23.12-.4-.02-.26-.26-.43-.72-.49-1.04-.11-1.75-.42-2.11-.91-.37-.5-.55-1.43-.55-2.76v-18.48c0-.61.13-1.16.39-1.63.25-.45.55-.72.91-.79l.78-.17c.46-.1.56-.33.56-.51s-.08-.49-.58-.49c-.13,0-.37.03-.72.08-.54.07-1.49.11-2.85.11-.94,0-1.83-.04-2.66-.13-.6-.06-1.04-.1-1.31-.1-.5,0-.59.27-.6.43-.01.2.09.46.65.57.87.2,1.47.56,1.79,1.08.32.53.49,1.45.49,2.74v6.54c0,.31-.06.51-.17.59-.09.06-.34.13-1,.13h-11.27c-1.03,0-1.27-.12-1.32-.18h0c-.07-.07-.18-.31-.18-1.22v-6.85c0-.92.14-1.57.42-1.95.27-.38.83-.67,1.65-.88.4-.1.61-.29.61-.55,0-.19-.09-.51-.68-.51-.2,0-.46.03-.82.08-.78.1-1.63.15-2.53.15-1.33,0-2.5-.06-3.48-.17-.52-.06-.91-.1-1.16-.12-.22,0-.38.04-.49.14-.09.09-.13.2-.13.35,0,.2.11.46.66.53,1.05.16,1.78.48,2.18.95.4.47.6,1.26.6,2.33v16.43c0,1.77-.1,3.02-.3,3.72-.19.68-.54,1.06-1.06,1.18l-.95.23c-.49.11-.59.37-.59.57,0,.18.08.48.6.48.14,0,.54-.03,1.21-.09.48-.04.88-.06,1.2-.06l1.26-.04,1.61.02c1.17,0,1.94.03,2.28.09.47.06.78.09.95.09.26,0,.45-.06.56-.18.08-.09.12-.2.12-.34-.02-.34-.3-.54-.83-.6-1.11-.12-1.87-.44-2.27-.95-.4-.51-.6-1.42-.6-2.71v-7.01c0-.7.12-.94.22-1.02.11-.09.42-.19,1.28-.19h11.26c.86,0,1.03.09,1.07.12.03.03.13.18.13.96v7.02l-.02.75c0,1.9-.62,2.93-1.9,3.15-.48.07-.74.26-.75.54,0,.15.03.27.12.36.09.09.23.14.42.14.01,0,.03,0,.05,0,.09,0,.5-.03,1.33-.1" fill="#231f20"/><path d="M196.01,46.14l-.17.05-1,.48c-.51.27-1.16.41-1.91.41-.93,0-1.65-.26-2.15-.78-.33-.34-.5-1.13-.5-2.34v-9.49h4.41c.47,0,.8-.21.95-.63l.44-1.09c.16-.36.18-.47.18-.52,0-.13-.02-.23-.09-.29-.06-.06-.14-.07-.24-.06-.11.02-.26.1-.47.25-.28.19-.7.29-1.23.29h-3.95l.07-3.18c0-.51-.21-.62-.39-.62-.14,0-.35.11-.83.9-.78,1.25-1.92,2.52-3.4,3.77-.36.31-.54.56-.54.78,0,.19.11.41.62.41h1.58v9.52c0,3.12,1.52,4.7,4.52,4.7.88,0,1.84-.25,2.86-.74,1.06-.51,1.58-.99,1.58-1.46,0-.21-.13-.33-.35-.33" fill="#231f20"/><path d="M153.31,32.97c.97,0,1.88.42,2.71,1.24.83.83,1.25,1.73,1.25,2.69,0,.4-.76.49-1.39.49h-6.34c.17-1.35.59-2.43,1.25-3.21h0c.67-.8,1.51-1.21,2.51-1.21M160.34,44.57c-.11.02-.22.07-.34.16-1.61,1.23-3.11,1.85-4.46,1.85-1.71,0-3.18-.73-4.36-2.18-1.18-1.46-1.78-3.28-1.78-5.41v-.3h7.13l1.3.04,1.42.02c.91,0,1.37-.25,1.37-.75,0-.31-.16-.83-.49-1.6-.32-.74-.64-1.34-.95-1.78-1.29-1.8-3.04-2.71-5.2-2.71-1.98,0-3.72.85-5.19,2.53-1.46,1.68-2.21,3.66-2.21,5.89,0,2.35.72,4.35,2.14,5.94,1.43,1.6,3.21,2.41,5.32,2.41,1.87,0,3.66-.66,5.33-1.97.93-.73,1.38-1.29,1.38-1.71,0-.15-.04-.27-.12-.34-.07-.07-.16-.09-.29-.09" fill="#231f20"/><path d="M184.92,47.23c-1.25-.21-2.02-.62-2.28-1.21-.23-.54-.35-1.34-.35-2.36v-22.43l.02-.59h0c0-.48-.06-.76-.2-.89-.06-.05-.12-.08-.19-.08-.13,0-.28.05-.47.18-.33.25-.95.55-1.83.9l-1.17.48c-.35.14-.74.26-1.18.36-.39.11-.59.29-.59.53,0,.14.05.32.32.43.1.03.22.04.36.04h0l.95-.04c.74,0,1.1.54,1.1,1.64v21.19c0,.58-.09,1-.27,1.26-.18.25-.55.46-1.09.61-.43.12-.64.32-.62.59,0,.18.1.49.64.49.05,0,.19-.01.74-.1.28-.04,1.03-.06,2.22-.06l2.66-.02c.37,0,.66.02.83.05.23.05.4.08.53.08.17,0,.31-.05.4-.14.09-.1.13-.24.13-.42-.02-.26-.24-.43-.66-.5" fill="#231f20"/><path d="M166.76,41.86c1.03-.69,2.51-1.13,4.39-1.31v3.65c0,.92-.21,1.61-.63,2.02-.69.67-1.57,1.01-2.59,1.01-.84,0-1.51-.25-1.99-.73-.49-.49-.73-1.16-.73-1.99,0-1.07.52-1.96,1.56-2.65M176.7,46.96c-.09,0-.24.03-.48.08-.1.02-.25.03-.44.03-.63,0-1.07-.23-1.34-.69-.27-.48-.41-1.31-.41-2.47v-7.48c0-1.43-.5-2.56-1.48-3.35-.97-.78-2.36-1.18-4.11-1.18-1.92,0-3.49.63-4.66,1.88-.87.93-1.31,1.82-1.31,2.63,0,.35.27.67.8.95.5.26,1.07.4,1.68.4.18,0,.31-.05.4-.14.08-.08.11-.19.1-.33-.01-.19-.06-.4-.14-.63-.16-.53-.24-1-.24-1.4,0-1.35.79-2,2.4-2,1.21,0,2.18.37,2.89,1.1.52.53.79,1.52.79,2.94v2.25c-3.13.48-5.38,1.14-6.71,1.94-1.37.83-2.06,2.01-2.06,3.52,0,1.11.37,2.01,1.1,2.68.73.66,1.71,1,2.93,1,1.57,0,3.28-.69,5.1-2.05.85,1.26,1.81,1.9,2.87,1.9.57,0,1.17-.12,1.77-.36.65-.26.96-.52.98-.8,0-.13-.02-.22-.09-.3-.08-.08-.19-.11-.33-.1" fill="#231f20"/><path d="M215.48,47.44c-1-.16-1.66-.41-1.95-.74-.3-.33-.45-.97-.45-1.91v-6.06c0-2.02-.57-3.68-1.7-4.94-1.13-1.26-2.63-1.89-4.45-1.89s-3.64.95-5.24,2.82v-12.77c0-.42,0-.75.02-.96.03-.23.04-.39.04-.47,0-.47-.28-.54-.45-.54-.13,0-.29.04-.45.13l-1.5.71c-.97.47-1.87.8-2.66.99-.35.09-.53.27-.53.51,0,.2.11.31.2.36.09.05.2.07.33.07h0l.97-.06c.26-.02.48.05.65.22.33.31.5.96.5,1.93v19.9c0,1.33-.13,1.83-.24,2.02-.16.26-.6.51-1.31.73-.46.13-.54.39-.53.59.01.15.1.41.6.41.17,0,.46-.02.89-.05.94-.07,1.68-.1,2.19-.1,1.47,0,2.45.02,2.9.07.58.06.92.09,1.07.09.47,0,.54-.27.54-.44,0-.32-.25-.51-.76-.59-1.1-.15-1.79-.4-2.06-.76-.28-.36-.41-1.18-.41-2.45v-7.41c0-.79.42-1.51,1.25-2.15.84-.65,1.79-.98,2.82-.98,1.34,0,2.43.46,3.23,1.38.8.92,1.21,2.18,1.21,3.76v6.33l-.02.59c0,.67-.11.96-.2,1.08-.1.12-.37.33-1.15.62-.32.13-.48.3-.46.51,0,.17.11.47.66.47.09,0,.29-.02.61-.05.52-.07,1.36-.1,2.47-.1.67,0,1.49.03,2.42.09.47.04.79.06.95.06.55,0,.64-.29.64-.47,0-.2-.11-.46-.62-.54" fill="#231f20"/><path d="M64.59,63.29c-1.17-.39-1.91-.66-2.21-.81-.29-.15-.57-.38-.82-.7-.28-.37-.43-.81-.43-1.32,0-.57.22-1.06.66-1.44.44-.39.99-.58,1.65-.58.83,0,1.59.22,2.26.65.67.43,1.12.98,1.34,1.64.11.33.22.48.35.48.11,0,.25-.06.25-.34,0-.05-.02-.17-.05-.39l-.15-.96c-.08-.52-.12-.83-.12-.93,0-.22-.04-.37-.12-.45-.04-.04-.09-.06-.15-.06-.07,0-.12.02-.14.05l-.13.11c-.11.1-.23.1-.34.05l-.64-.27c-.46-.19-1.04-.29-1.71-.29-1.19,0-2.17.32-2.93.96-.76.64-1.14,1.48-1.14,2.5,0,.91.29,1.66.87,2.23.58.57,1.57,1.09,2.95,1.56,1.32.44,2.13.79,2.4,1.03.53.46.8,1.04.8,1.71s-.29,1.31-.87,1.8c-.58.49-1.3.74-2.14.74s-1.61-.26-2.31-.78c-.71-.51-1.17-1.16-1.39-1.92-.1-.32-.21-.49-.35-.49-.06,0-.12.01-.16.05-.06.05-.08.14-.08.27,0,.24.08.65.24,1.21.14.52.22.8.23.85.07.35.13.57.17.66.04.09.12.18.24.26.27.18.7.35,1.28.48.58.14,1.11.21,1.59.21,1.33,0,2.44-.38,3.29-1.12.85-.75,1.28-1.72,1.28-2.89,0-1.73-1.17-2.99-3.48-3.74" fill="#231f20"/><path d="M71.45,67.72c.5-.34,1.23-.55,2.16-.64v1.79c0,.45-.1.79-.31.99-.34.33-.77.5-1.27.5-.41,0-.74-.12-.98-.36-.24-.24-.36-.57-.36-.98,0-.52.26-.96.77-1.3M76.31,70.23s-.12.01-.23.04c-.05.01-.12.02-.21.02-.31,0-.53-.11-.66-.34-.14-.24-.2-.64-.2-1.21v-3.65c0-.69-.24-1.24-.72-1.63-.47-.38-1.14-.57-2-.57-.94,0-1.7.31-2.26.92-.42.45-.64.88-.64,1.28,0,.17.13.32.38.45.24.13.52.19.81.19.08,0,.15-.02.19-.06.04-.04.05-.09.05-.16,0-.09-.03-.19-.07-.31-.08-.26-.12-.49-.12-.69,0-.66.39-.99,1.18-.99.59,0,1.07.18,1.42.54.26.26.39.74.39,1.44v1.11c-1.53.24-2.63.55-3.28.95-.66.4-1,.98-1,1.71,0,.54.18.98.53,1.3.35.32.83.48,1.42.48.77,0,1.6-.34,2.49-1,.41.62.88.93,1.4.93.28,0,.57-.06.86-.18.31-.13.46-.25.47-.38,0-.06-.01-.1-.04-.14-.03-.03-.09-.05-.16-.05" fill="#231f20"/><path d="M86.47,70.4l-.39-.06c-.43-.07-.68-.29-.74-.67l-.03-.44v-.28s0-2.23,0-2.23c0-1.15-.2-2.02-.6-2.59-.59-.82-1.39-1.24-2.4-1.24-.88,0-1.73.47-2.54,1.4v-.92c0-.14,0-.25,0-.35,0-.13-.01-.21-.06-.27-.08-.08-.22-.07-.38.02-.05.03-.17.08-.36.18l-.49.24c-.38.18-.78.31-1.19.38-.19.04-.28.11-.28.23,0,.08.04.14.11.18.05.03.11.05.18.05h.4c.27,0,.46.06.56.21.1.15.15.44.15.87v4.21c0,.35-.05.6-.16.75-.1.15-.31.28-.62.39-.13.05-.2.13-.21.22,0,.06.01.11.04.15.04.04.09.06.17.06.06,0,.18-.01.38-.03.19-.03.78-.04,1.76-.04.47,0,.76,0,.87.02.21.04.37.05.48.05.23,0,.26-.14.26-.22,0-.14-.12-.23-.35-.25-.81-.05-1.22-.32-1.25-.81l-.02-.75v-3.56c0-.37.2-.71.58-1.01.39-.3.84-.45,1.35-.45.72,0,1.28.23,1.66.69.39.46.59,1.12.59,1.97v3.21c0,.36-.11.57-.34.62l-.28.07c-.17.04-.21.15-.21.23,0,.11.05.16.09.19l.15.04.27-.02h.36l.92-.03c.55,0,.93.01,1.13.04.18.02.3.03.37.03.14,0,.24-.03.3-.09.04-.04.06-.1.05-.16,0-.12-.11-.2-.3-.23" fill="#231f20"/><path d="M141.92,70.42l-.43-.05c-.29-.04-.49-.13-.58-.27-.09-.14-.14-.43-.14-.86v-6.28c0-.21-.09-.27-.17-.27h-.01s-.51.24-.51.24c-.53.28-.98.48-1.32.59-.34.11-.5.21-.51.32,0,.04.01.08.04.11.06.06.17.09.36.09.31,0,.51.07.6.21.09.15.14.48.14.98v4.06c0,.36-.04.63-.11.79-.07.16-.2.26-.39.33l-.18.06c-.17.06-.2.17-.2.25,0,.1.05.22.3.22.07,0,.18,0,.35-.03.07-.01.17-.02.28-.03l.68-.04h.6c.27.01.49.02.65.03.31.03.51.04.61.04.24,0,.3-.11.3-.2,0-.16-.12-.25-.37-.29" fill="#231f20"/><path d="M137.34,70.4l-.39-.06c-.43-.07-.68-.29-.74-.67l-.03-.44v-.28s0-2.23,0-2.23c0-1.15-.2-2.02-.6-2.59-.58-.82-1.39-1.24-2.4-1.24-.88,0-1.73.47-2.54,1.4v-.92c0-.14,0-.25,0-.35,0-.13-.01-.21-.06-.27-.08-.08-.22-.07-.38.02-.05.03-.17.08-.36.18l-.49.24c-.38.18-.78.31-1.19.38-.19.04-.28.11-.28.23,0,.08.04.14.11.18.05.03.11.05.18.05h.4c.27,0,.46.06.56.21.1.15.15.44.15.87v4.21c0,.35-.05.6-.16.75-.1.15-.31.28-.62.39-.13.05-.2.13-.21.22,0,.06.01.11.04.15.04.04.09.06.17.06.06,0,.18-.01.38-.03.19-.03.78-.04,1.76-.04.47,0,.76,0,.87.02.21.04.37.05.48.05.23,0,.26-.14.26-.22,0-.14-.12-.23-.35-.25-.81-.05-1.22-.32-1.25-.81l-.02-.75v-3.56c0-.37.2-.71.58-1.01.39-.3.84-.45,1.35-.45.72,0,1.28.23,1.66.69.39.46.59,1.12.59,1.97v3.21c0,.36-.11.57-.34.62l-.28.07c-.17.04-.21.15-.21.23,0,.11.05.16.09.19l.15.04.27-.02h.36l.92-.03c.55,0,.93.01,1.13.04.18.02.3.03.37.03.14,0,.24-.03.3-.09.04-.04.06-.1.05-.16,0-.12-.11-.2-.3-.23" fill="#231f20"/><path d="M125.66,67.45c0,.95-.22,1.72-.66,2.27-.43.55-1.03.83-1.78.83-.86,0-1.59-.4-2.17-1.18-.58-.79-.88-1.78-.88-2.95,0-.92.24-1.67.7-2.23.46-.56,1.08-.84,1.84-.84.86,0,1.57.38,2.12,1.14.55.76.83,1.76.83,2.96M122.95,62.88c-1.16,0-2.16.4-2.97,1.2-.81.8-1.23,1.78-1.23,2.92s.39,2.15,1.16,2.91c.77.75,1.76,1.14,2.95,1.14s2.23-.39,3.03-1.17c.8-.78,1.2-1.77,1.2-2.96,0-1.09-.41-2.05-1.22-2.84-.81-.79-1.79-1.19-2.91-1.19" fill="#231f20"/><path d="M140.15,59.03c-.14,0-.33.13-.57.4-.24.27-.35.47-.35.63s.11.36.32.62c.22.26.39.39.53.39s.33-.13.56-.4c.23-.27.34-.48.33-.63,0-.08-.03-.17-.1-.26l-.22-.36c-.17-.27-.33-.4-.5-.4" fill="#231f20"/><path d="M97.85,64.77c0,.12-.14.18-.42.18h-3.07c-.38,0-.38-.16-.38-.2,0-.03.02-.11.12-.33l1.82-4.04c.06-.14.1-.15.1-.15.04,0,.11.04.2.28l1.54,3.88.05.17h0c.04.12.04.17.04.2M102.91,70.39c-.58-.1-.96-.24-1.15-.42-.19-.18-.43-.64-.72-1.39l-.2-.5-4.01-10.27c-.08-.2-.17-.3-.3-.3s-.22.1-.31.31l-4.79,10.65-.27.61c-.13.28-.31.56-.52.82-.25.32-.4.41-.48.44l-.35.1c-.13.04-.19.12-.19.25,0,.08.04.22.3.22.01,0,.05,0,.52-.05.1,0,.24-.01.41-.01.38,0,.73,0,1.03.02l.89.05c.14,0,.25.01.32.01.13,0,.22-.03.27-.08.03-.03.05-.08.04-.13,0-.13-.12-.22-.33-.26-.42-.09-.7-.2-.84-.33-.13-.12-.2-.32-.2-.6,0-.3.14-.76.41-1.38l.61-1.37c.23-.51.36-.68.43-.73.07-.05.27-.1.83-.1h3.37c.44,0,.57.04.61.07.04.03.13.16.29.57l.47,1.23c.38.97.57,1.63.57,1.95s-.14.53-.43.59l-.29.07c-.22.04-.27.15-.27.24s.04.24.29.24c.07,0,.17-.01.3-.04.21-.04.76-.05,1.61-.05s1.4.02,1.72.05c.19.01.3.02.36.02.25,0,.3-.11.31-.2,0-.14-.1-.24-.32-.28" fill="#231f20"/><path d="M149.68,67.45c0,.95-.22,1.72-.66,2.27-.43.55-1.03.83-1.78.83-.86,0-1.59-.4-2.17-1.18-.58-.79-.88-1.78-.88-2.95,0-.92.24-1.67.7-2.23.46-.56,1.08-.84,1.84-.84.86,0,1.57.38,2.12,1.14.55.76.83,1.76.83,2.96M146.97,62.88c-1.16,0-2.16.4-2.97,1.2-.81.8-1.23,1.78-1.23,2.92s.39,2.15,1.16,2.91c.77.75,1.76,1.14,2.95,1.14s2.23-.39,3.03-1.17c.8-.78,1.2-1.77,1.2-2.96,0-1.09-.41-2.05-1.22-2.84-.81-.79-1.79-1.19-2.91-1.19" fill="#231f20"/><path d="M112.59,70.4l-.39-.06c-.43-.07-.68-.29-.74-.67l-.03-.44v-.28s0-2.23,0-2.23c0-1.15-.2-2.02-.61-2.59-.59-.82-1.39-1.24-2.4-1.24-.88,0-1.73.47-2.54,1.4v-.92c0-.14,0-.25,0-.35,0-.13-.01-.21-.06-.27-.08-.08-.22-.07-.38.02-.05.03-.17.08-.36.18l-.49.24c-.38.18-.78.31-1.19.38-.19.04-.28.11-.28.23,0,.08.04.14.11.18.05.03.11.05.17.05h.4c.27,0,.46.06.56.21.1.15.15.44.15.87v4.21c0,.35-.05.6-.15.75-.1.15-.31.28-.62.39-.13.05-.2.13-.21.22,0,.06.01.11.04.15.04.04.09.06.17.06.06,0,.18-.01.38-.03.19-.03.78-.04,1.76-.04.47,0,.76,0,.87.02.21.04.37.05.48.05.23,0,.26-.14.26-.22,0-.14-.12-.23-.35-.25-.81-.05-1.22-.32-1.25-.81l-.02-.75v-3.56c0-.37.2-.71.58-1.01.39-.3.84-.45,1.35-.45.72,0,1.28.23,1.66.69.39.46.59,1.12.59,1.97v3.21c0,.36-.11.57-.34.62l-.28.07c-.17.04-.2.15-.2.23,0,.09.03.15.09.19l.15.04.27-.02h.36l.92-.03c.55,0,.93.01,1.13.04.18.02.3.03.37.03.14,0,.24-.03.3-.09.04-.04.06-.1.05-.16,0-.12-.11-.2-.3-.23" fill="#231f20"/><path d="M118.45,69.83l-.08.02-.49.23c-.25.13-.57.2-.94.2-.46,0-.81-.13-1.06-.39-.16-.17-.25-.56-.25-1.15v-4.64h2.16c.23,0,.38-.1.46-.3l.21-.53c.08-.18.09-.23.09-.25,0-.06,0-.1-.04-.13-.03-.02-.07-.03-.11-.02-.05,0-.13.05-.23.12-.14.09-.35.14-.61.14h-1.94l.04-1.56c0-.24-.1-.29-.18-.29-.06,0-.16.05-.4.43-.38.61-.94,1.23-1.66,1.84-.18.15-.26.27-.26.37,0,.09.05.19.29.19h.78v4.65c0,1.51.74,2.28,2.19,2.28.43,0,.9-.12,1.39-.36.51-.25.76-.48.76-.7,0-.1-.06-.15-.16-.15" fill="#231f20"/><rect x="60.09" y="77.62" width="152.93" height="1" fill="#bc4b27"/><g id="d"><path d="M61.37,87.18c-.02-1.31-1.46-.95-1.46-1.35,0-.16.04-.2.18-.2.67,0,1.31.07,1.98.07.56,0,1.12-.07,1.67-.07.29,0,.34.04.34.18,0,.43-1.3.02-1.3,1.37v9.67c0,1.22,1.6.81,1.6,1.35,0,.13-.05.18-.36.18-.41,0-1.19-.07-1.96-.07-1.1,0-1.48.07-1.73.07-.32,0-.38-.09-.38-.27,0-.52,1.4.07,1.4-1.71v-9.22Z" fill="#6d5560"/><path d="M64.03,98.43c-.18,0-.42-.01-.69-.03-.39-.02-.82-.04-1.27-.04-.74,0-1.15.03-1.42.05-.13.01-.23.02-.31.02-.32,0-.43-.08-.43-.32,0-.22.2-.28.44-.34.41-.11.97-.26.97-1.37v-9.22c-.01-.81-.58-.95-1-1.06-.24-.06-.45-.11-.45-.29s.06-.25.23-.25c.33,0,.67.02.99.04.32.02.66.04.99.04.28,0,.56-.02.83-.04.27-.02.56-.04.84-.04s.39.03.39.23-.2.25-.42.31c-.39.11-.87.24-.87,1.06v9.67c0,.69.53.83,1,.94.32.08.6.15.6.41,0,.2-.14.23-.41.23ZM62.07,98.26c.45,0,.89.02,1.27.04.28.01.51.03.69.03.31,0,.31-.06.31-.13,0-.17-.2-.22-.52-.31-.46-.11-1.08-.27-1.08-1.04v-9.67c0-.9.57-1.06.95-1.16.22-.06.35-.1.35-.21,0-.09,0-.13-.29-.13s-.56.02-.83.04c-.27.02-.56.04-.84.04-.33,0-.67-.02-.99-.04-.32-.02-.66-.04-.99-.04-.11,0-.13,0-.13.15,0,.1.14.14.38.19.43.11,1.07.27,1.08,1.16v9.22c0,1.2-.63,1.36-1.04,1.47-.24.06-.36.1-.36.24s.02.22.33.22c.08,0,.17,0,.3-.02.27-.02.68-.05,1.43-.05Z" fill="#6d5560"/><path d="M67.81,96.92c0,1.24,1.58.72,1.58,1.21,0,.22-.13.25-.4.25-.31,0-.67-.07-1.71-.07-.95,0-1.31.07-1.53.07-.23,0-.32-.04-.32-.22,0-.36,1.06,0,1.06-1.17v-4.46c0-1.08-1.33-.61-1.33-.99,0-.11.07-.18.16-.2,1.49-.32,1.85-.9,2.27-.9.11,0,.22.11.22.29v1.19c-.04.22.86-1.33,2.61-1.33,2.41,0,2.93,2,2.93,3.37v2.97c0,1.24,1.4.72,1.4,1.21,0,.22-.13.25-.31.25-.23,0-.68-.07-1.57-.07-.68,0-1.06.07-1.3.07s-.32-.04-.32-.22c0-.36.77,0,.77-1.17v-3.37c0-.9-.65-2.25-2.11-2.25s-2.14,1.12-2.12,1.4v4.14Z" fill="#6d5560"/><path d="M74.46,98.43c-.08,0-.19,0-.33-.02-.26-.02-.66-.05-1.24-.05-.43,0-.74.03-.97.05-.14.01-.24.02-.33.02-.21,0-.38-.02-.38-.27,0-.16.13-.21.26-.26.22-.08.52-.19.52-.91v-3.37c0-.89-.65-2.2-2.06-2.2-.93,0-1.47.43-1.71.69-.26.28-.37.55-.36.66v4.14c0,.72.56.81,1.02.88.3.05.57.09.57.32,0,.28-.2.3-.45.3-.11,0-.23,0-.37-.02-.28-.02-.66-.05-1.34-.05s-1.01.03-1.26.05c-.12.01-.2.02-.27.02-.21,0-.38-.02-.38-.27,0-.17.17-.21.35-.26.32-.09.72-.19.72-.91v-4.46c0-.63-.48-.7-.87-.75-.25-.03-.46-.06-.46-.25,0-.12.08-.22.2-.25.89-.19,1.38-.48,1.71-.67.23-.13.39-.23.57-.23.13,0,.27.12.27.34v1.1s.03-.03.04-.04c.32-.34,1.16-1.25,2.52-1.25,1.09,0,1.9.4,2.42,1.19.5.77.57,1.72.57,2.22v2.97c0,.72.5.81.9.88.26.05.51.09.51.32,0,.27-.18.3-.36.3ZM72.89,98.26c.58,0,.98.03,1.25.05.13.01.24.02.32.02.2,0,.25-.05.25-.2,0-.14-.15-.17-.42-.22-.41-.08-.98-.18-.98-.99v-2.97c0-1-.28-3.32-2.88-3.32-1.31,0-2.14.89-2.45,1.22-.11.12-.14.15-.19.13-.02,0-.04-.03-.03-.07v-1.18c0-.15-.08-.24-.17-.24-.15,0-.3.09-.52.22-.33.19-.83.49-1.74.68-.06.01-.12.06-.12.15s.14.11.37.14c.38.05.96.12.96.85v4.46c0,.79-.48.92-.79,1.01-.18.05-.27.08-.27.16,0,.13.04.16.27.16.07,0,.15,0,.26-.02.25-.02.62-.05,1.27-.05s1.06.03,1.34.05c.15.01.26.02.37.02.28,0,.34-.04.34-.2,0-.14-.18-.17-.48-.22-.47-.07-1.1-.18-1.1-.99v-4.14c0-.15.12-.45.39-.74.25-.27.82-.72,1.79-.72,1.47,0,2.16,1.37,2.16,2.3v3.37c0,.79-.35.92-.58,1.01-.13.05-.19.08-.19.16,0,.13.04.16.27.16.08,0,.19,0,.32-.02.23-.02.54-.05.98-.05Z" fill="#6d5560"/><path d="M75.41,92.74c0-1.44,1.12-2.16,2.43-2.16.31,0,1.55.14,1.76.41.11.14.09.76.09.88,0,.49.07.7-.2.7-.18,0-.34-1.57-1.98-1.57-.7,0-1.26.41-1.26,1.15,0,.59.47.97,2.36,1.73,1.03.43,1.49.99,1.49,2.14,0,1.35-1.1,2.47-2.43,2.47-1.26,0-1.58-.52-2.02-.52-.4,0-.4-.02-.4-1.44,0-.31-.05-.88.22-.88.4,0,.2,2.38,2.14,2.38.88,0,1.6-.54,1.6-1.48s-.92-1.24-1.64-1.58c-.97-.49-2.18-.95-2.18-2.23Z" fill="#6d5560"/><path d="M77.68,98.56c-.81,0-1.24-.21-1.55-.37-.18-.09-.32-.16-.46-.16-.45,0-.45-.06-.45-1.49,0-.04,0-.09,0-.13,0-.27-.01-.6.12-.74.04-.04.09-.06.15-.06.16,0,.23.23.33.58.2.71.51,1.79,1.81,1.79,1.07,0,1.55-.72,1.55-1.42,0-.81-.69-1.12-1.35-1.42-.09-.04-.18-.08-.26-.12-.09-.04-.17-.08-.26-.13-.91-.45-1.95-.95-1.95-2.15,0-1.34.97-2.21,2.48-2.21.29,0,1.57.14,1.8.43.1.13.1.53.1.87v.05c0,.09,0,.18,0,.25,0,.22.01.36-.07.44-.04.04-.1.06-.19.06-.08,0-.12-.1-.2-.27-.2-.45-.58-1.29-1.78-1.29-.72,0-1.21.44-1.21,1.1,0,.58.52.96,2.33,1.68,1.1.46,1.53,1.08,1.53,2.19,0,1.39-1.11,2.52-2.48,2.52ZM75.48,95.71s-.06.01-.08.03c-.1.11-.1.43-.09.66,0,.05,0,.1,0,.14q0,1.39.34,1.39c.17,0,.32.07.51.17.31.15.72.36,1.51.36,1.31,0,2.38-1.08,2.38-2.42,0-1.08-.4-1.65-1.46-2.1-1.88-.75-2.39-1.13-2.39-1.78,0-.72.53-1.2,1.31-1.2,1.26,0,1.68.91,1.87,1.35.04.09.09.2.11.21.07,0,.09-.02.11-.03.05-.05.04-.18.04-.36,0-.08,0-.16,0-.26v-.05c0-.45-.02-.72-.08-.8-.19-.24-1.36-.39-1.72-.39-1.1,0-2.38.55-2.38,2.11,0,1.14.96,1.61,1.89,2.06.09.04.17.08.26.13.08.04.17.08.26.12.66.3,1.41.64,1.41,1.51s-.68,1.53-1.65,1.53c-1.38,0-1.71-1.17-1.91-1.87-.08-.26-.15-.51-.23-.51Z" fill="#6d5560"/><path d="M82,91.56c-.85,0-.97,0-.97-.13,0-.14.45-.45,1.37-1.46.36-.43.54-.83.68-.83.25,0,.23.38.23,1.67h1.98c.45,0,.65-.31.7-.31.09,0,.13.09.13.14,0,.07-.05.16-.11.25l-.36.65h-2.34v5.24c.04.74.54,1.08,1.26,1.08.95,0,1.22-.41,1.53-.41.07,0,.14.02.14.16,0,.27-.97.88-2.23.88-.83,0-2.02-.23-2.02-2.09v-4.86Z" fill="#6d5560"/><path d="M84.01,98.56c-1.37,0-2.07-.72-2.07-2.14v-4.81c-.86,0-.97,0-.97-.18,0-.1.11-.21.39-.48.22-.21.56-.54.99-1.02.14-.17.25-.33.35-.47.16-.24.26-.38.37-.38.19,0,.23.18.26.35.03.22.03.59.03,1.13v.19h1.93c.31,0,.5-.16.6-.24.05-.04.07-.06.11-.06.12,0,.18.11.18.19,0,.09-.06.18-.12.28l-.37.67h-2.32v5.19c.03.66.46,1.03,1.21,1.03.6,0,.92-.16,1.16-.29.14-.07.25-.13.38-.13.13,0,.2.07.2.21,0,.31-.99.93-2.28.93ZM83.08,89.19c-.06,0-.17.16-.29.33-.09.14-.21.3-.35.48-.44.48-.77.81-1,1.02-.21.2-.36.35-.36.4,0,.07.18.07.92.07h.05v4.91c0,1.37.64,2.04,1.97,2.04,1.21,0,2.18-.6,2.18-.83,0-.11-.05-.11-.09-.11-.1,0-.2.05-.33.12-.24.13-.58.3-1.2.3-.8,0-1.28-.41-1.31-1.13v-5.29h2.36l.35-.62c.05-.08.1-.17.1-.23,0-.02-.01-.09-.07-.09,0,0-.02.02-.04.04-.1.09-.31.27-.66.27h-2.03v-.29c0-.54,0-.9-.03-1.12-.03-.24-.09-.26-.15-.26Z" fill="#6d5560"/><path d="M88.12,92.53c0-1.08-.99-.61-.99-.99,0-.11.07-.18.16-.2,1.15-.32,1.51-.9,1.93-.9.11,0,.22.11.22.29v6.46c0,.92,1.42.52,1.42.99,0,.14-.11.2-.34.2-.38,0-.94-.07-1.67-.07-.58,0-1.04.07-1.24.07-.14,0-.25-.02-.27-.2,0-.45.79.23.79-1.4v-4.25ZM89.52,87.83c0,.22-.52.94-.76.94-.22,0-.76-.74-.76-.94s.54-.95.76-.95c.23,0,.76.74.76.95Z" fill="#6d5560"/><path d="M90.51,98.43c-.16,0-.35-.01-.57-.03-.3-.02-.68-.04-1.1-.04-.36,0-.68.03-.92.05-.14.01-.25.02-.33.02-.14,0-.3-.02-.32-.24,0-.2.14-.23.26-.26.23-.05.54-.12.54-1.15v-4.25c0-.64-.35-.7-.64-.75-.17-.03-.35-.06-.35-.25,0-.12.08-.22.2-.25.63-.18,1.03-.44,1.32-.63.24-.16.42-.27.62-.27.13,0,.27.13.27.34v6.46c0,.49.45.57.85.65.3.05.58.11.58.34,0,.22-.21.25-.39.25ZM88.84,98.26c.43,0,.81.02,1.11.04.22.01.41.03.56.03.27,0,.29-.08.29-.15,0-.14-.19-.19-.49-.24-.41-.08-.93-.17-.93-.75v-6.46c0-.15-.08-.24-.17-.24-.17,0-.33.11-.56.26-.3.19-.7.46-1.35.64-.06.01-.12.06-.12.15s.08.11.27.14c.29.05.72.13.72.85v4.25c0,1.12-.37,1.2-.62,1.25-.13.03-.18.04-.18.15.01.12.07.15.22.15.07,0,.18,0,.32-.02.24-.02.56-.05.92-.05ZM88.77,88.82c-.26,0-.81-.77-.81-.99s.55-1.01.81-1.01c.27,0,.81.77.81,1.01s-.53.99-.81.99ZM88.77,86.93c-.18,0-.7.73-.7.9s.53.89.7.89c.2,0,.71-.69.71-.89s-.51-.9-.71-.9Z" fill="#6d5560"/><path d="M92.53,91.56c-.85,0-.97,0-.97-.13,0-.14.45-.45,1.37-1.46.36-.43.54-.83.68-.83.25,0,.23.38.23,1.67h1.98c.45,0,.65-.31.7-.31.09,0,.13.09.13.14,0,.07-.05.16-.11.25l-.36.65h-2.34v5.24c.04.74.54,1.08,1.26,1.08.95,0,1.22-.41,1.53-.41.07,0,.14.02.14.16,0,.27-.97.88-2.23.88-.83,0-2.02-.23-2.02-2.09v-4.86Z" fill="#6d5560"/><path d="M94.54,98.56c-1.37,0-2.07-.72-2.07-2.14v-4.81c-.86,0-.97,0-.97-.18,0-.1.11-.21.39-.48.22-.21.56-.54.99-1.02.14-.17.25-.33.35-.47.16-.24.26-.38.38-.38.19,0,.23.18.26.35.03.22.03.59.03,1.13v.19h1.93c.32,0,.5-.16.6-.24.05-.04.07-.06.11-.06.12,0,.18.11.18.19,0,.09-.06.18-.12.28l-.37.67h-2.32v5.19c.03.66.46,1.03,1.21,1.03.6,0,.92-.16,1.16-.29.14-.07.25-.13.38-.13.13,0,.2.07.2.21,0,.31-.99.93-2.28.93ZM93.61,89.19c-.06,0-.17.16-.29.33-.09.14-.21.3-.35.48-.44.48-.77.81-1,1.02-.21.2-.36.35-.36.4,0,.07.18.07.92.07h.05v4.91c0,1.37.64,2.04,1.97,2.04,1.21,0,2.18-.6,2.18-.83,0-.11-.05-.11-.09-.11-.1,0-.2.05-.33.12-.24.13-.58.3-1.2.3-.8,0-1.28-.41-1.31-1.13v-5.29h2.36l.35-.62c.05-.08.1-.17.1-.23,0-.02-.01-.09-.08-.09,0,0-.02.02-.04.04-.1.09-.31.27-.66.27h-2.03v-.29c0-.54,0-.9-.03-1.12-.03-.24-.09-.26-.15-.26Z" fill="#6d5560"/><path d="M103.06,91.9c0-.68-.95-.25-.95-.68,0-.14.23-.16.32-.16.52,0,.77-.05.97-.11.2-.04.36-.09.65-.09.07,0,.32.09.32.43v6.23c0,.47,1.13.23,1.13.63,0,.14-.38.16-.67.16-.5,0-.76.05-.97.09-.2.05-.34.11-.61.11-.14,0-.16-.2-.16-.27v-.99h-.04c-.56.85-1.44,1.26-2.39,1.26-1.44,0-2.63-.88-2.63-2.41v-4.2c0-.68-.95-.25-.95-.68,0-.14.23-.16.32-.16.52,0,.77-.05.97-.11.2-.04.36-.09.65-.09.07,0,.32.09.32.43v4.56c-.02,1.91,1.51,2.03,1.75,2.03,1.03,0,1.93-.76,1.96-1.28v-4.7Z" fill="#6d5560"/><path d="M103.26,98.56c-.16,0-.21-.17-.21-.32v-.88c-.55.77-1.39,1.2-2.38,1.2-1.58,0-2.68-1.01-2.68-2.46v-4.2c0-.33-.25-.36-.51-.39-.21-.02-.44-.05-.44-.29,0-.13.14-.21.37-.21.52,0,.77-.06.96-.11.05,0,.1-.02.14-.03.15-.03.3-.06.52-.06.1,0,.38.11.38.48v4.56c0,.64.16,1.14.51,1.49.49.49,1.16.5,1.19.5,1.01,0,1.88-.74,1.91-1.23v-4.7c0-.33-.25-.36-.51-.39-.21-.02-.44-.05-.44-.29,0-.13.14-.21.38-.21.52,0,.77-.06.96-.11.05,0,.1-.02.14-.03.15-.03.3-.06.52-.06.1,0,.38.11.38.48v6.23c0,.19.23.24.56.3.28.05.57.1.57.33,0,.19-.34.21-.72.21-.45,0-.7.04-.89.08h-.07s-.08.04-.08.04c-.16.04-.3.09-.54.09ZM103.03,97.19h.12v1.04s0,.22.11.22c.22,0,.36-.04.51-.08l.09-.02h.07c.2-.05.46-.09.91-.09.57,0,.61-.08.61-.11,0-.14-.19-.18-.49-.23-.3-.05-.64-.11-.64-.4v-6.23c0-.31-.23-.38-.27-.38-.21,0-.36.03-.5.06-.05,0-.09.02-.14.03-.19.05-.45.11-.98.11-.1,0-.27.02-.27.11,0,.13.11.16.35.19.25.03.6.07.6.5v4.7c-.04.59-1,1.33-2.01,1.33-.08,0-.75-.01-1.26-.53-.36-.37-.54-.89-.54-1.56v-4.56c0-.31-.23-.38-.27-.38-.21,0-.36.03-.5.06-.05,0-.09.02-.14.03-.19.05-.45.11-.98.11-.1,0-.27.02-.27.11,0,.13.11.16.35.19.25.03.6.07.6.5v4.2c0,1.39,1.06,2.36,2.58,2.36.99,0,1.83-.44,2.35-1.24l.02-.02Z" fill="#6d5560"/><path d="M107.05,91.56c-.85,0-.97,0-.97-.13,0-.14.45-.45,1.37-1.46.36-.43.54-.83.68-.83.25,0,.23.38.23,1.67h1.98c.45,0,.65-.31.7-.31.09,0,.13.09.13.14,0,.07-.05.16-.11.25l-.36.65h-2.34v5.24c.04.74.54,1.08,1.26,1.08.95,0,1.22-.41,1.53-.41.07,0,.14.02.14.16,0,.27-.97.88-2.23.88-.83,0-2.02-.23-2.02-2.09v-4.86Z" fill="#6d5560"/><path d="M109.07,98.56c-1.37,0-2.07-.72-2.07-2.14v-4.81c-.86,0-.97,0-.97-.18,0-.1.11-.21.39-.48.22-.21.56-.54.99-1.02.14-.17.25-.33.35-.47.16-.24.26-.38.37-.38.19,0,.23.18.26.35.03.22.03.59.03,1.13v.19h1.93c.31,0,.5-.16.6-.24.05-.04.07-.06.11-.06.12,0,.18.11.18.19,0,.09-.06.18-.12.28l-.37.67h-2.32v5.19c.03.66.46,1.03,1.21,1.03.6,0,.92-.16,1.16-.29.14-.07.25-.13.38-.13.13,0,.2.07.2.21,0,.31-.99.93-2.28.93ZM108.13,89.19c-.06,0-.17.16-.29.33-.09.14-.21.3-.35.48-.44.48-.77.81-1,1.02-.21.2-.36.35-.36.4,0,.07.18.07.92.07h.05v4.91c0,1.37.64,2.04,1.97,2.04,1.21,0,2.18-.6,2.18-.83,0-.11-.05-.11-.09-.11-.1,0-.2.05-.33.12-.24.13-.58.3-1.2.3-.8,0-1.28-.41-1.31-1.13v-5.29h2.36l.35-.62c.05-.08.1-.17.1-.23,0-.02-.01-.09-.07-.09,0,0-.02.02-.04.04-.1.09-.31.27-.66.27h-2.03v-.29c0-.54,0-.9-.03-1.12-.03-.24-.09-.26-.15-.26Z" fill="#6d5560"/><path d="M113.17,93.75c0,2.97,1.8,3.85,2.9,3.85,1.55,0,2.14-.94,2.54-.94.07,0,.07.07.07.13,0,.41-1.57,1.71-3.19,1.71-2.7,0-3.64-2.5-3.64-3.69,0-2.3,1.28-4.23,3.53-4.23s3.19,2.14,3.19,2.86c0,.32-.2.31-.61.31h-4.79ZM116.72,93.27c.25,0,.36-.09.36-.36,0-1.01-1.01-1.91-2-1.91-1.12,0-1.91,1.28-1.91,2.27h3.55Z" fill="#6d5560"/><path d="M115.5,98.56c-2.76,0-3.69-2.57-3.69-3.74,0-2.52,1.47-4.28,3.58-4.28,2.26,0,3.24,2.21,3.24,2.91,0,.12-.03.2-.08.26-.1.1-.27.09-.52.1h-.06s-4.74,0-4.74,0c.02,1.33.62,3.75,2.85,3.75,1.01,0,1.62-.41,2.01-.68.22-.15.37-.25.52-.25.12,0,.12.13.12.18,0,.47-1.61,1.76-3.24,1.76ZM115.39,90.63c-2.05,0-3.48,1.72-3.48,4.18,0,1.14.9,3.64,3.59,3.64,1.62,0,3.14-1.29,3.14-1.66,0-.07,0-.07-.02-.07-.12,0-.27.1-.47.24-.41.28-1.03.7-2.07.7-.67,0-1.38-.31-1.9-.83-.69-.69-1.05-1.76-1.05-3.08v-.05h4.9c.23,0,.38,0,.44-.07.04-.04.05-.1.05-.19,0-.68-.94-2.81-3.14-2.81ZM116.72,93.32h-3.6v-.05c0-1.07.86-2.32,1.96-2.32s2.05.95,2.05,1.96c0,.29-.12.41-.41.41ZM113.23,93.21h3.49c.23,0,.31-.08.31-.31,0-.96-.95-1.86-1.95-1.86s-1.83,1.15-1.86,2.17Z" fill="#6d5560"/><path d="M124.75,90.82c0-1.33.34-2.65,1.06-3.8.41-.65,1.64-1.93,2.92-1.93.23,0,.74.07.74.38,0,.34-.07,1.28-.27,1.28-.25,0-.09-.76-1.22-.76-.95,0-1.6,1.03-1.76,1.85-.18.95-.14,2-.14,2.97h1.39c.45,0,.65-.31.7-.31.09,0,.13.09.13.14,0,.07-.05.16-.11.25l-.36.65h-1.75v5.47c0,1.15,1.28.72,1.28,1.12,0,.22-.23.16-.38.16h-2.79c-.09,0-.29.04-.29-.11,0-.38.86-.16.86-1.03v-5.62h-1.22l.11-.74h1.12Z" fill="#6d5560"/><path d="M127.12,98.37s-.06,0-.09,0c-.03,0-.05,0-.07,0h-2.79s-.07,0-.11,0c-.07,0-.14,0-.18-.05-.03-.03-.04-.07-.04-.11,0-.19.16-.25.33-.32.25-.1.53-.22.53-.7v-5.57h-1.23l.12-.84h1.11c0-1.36.38-2.67,1.07-3.77.32-.51,1.56-1.95,2.96-1.95.29,0,.79.09.79.43,0,.01-.01,1.33-.32,1.33-.11,0-.16-.1-.22-.21-.11-.22-.27-.54-1.01-.54-.88,0-1.54.93-1.71,1.81-.15.81-.15,1.69-.14,2.54,0,.12,0,.25,0,.37h1.33c.32,0,.5-.16.6-.24.05-.04.07-.06.11-.06.12,0,.18.11.18.19,0,.09-.06.18-.12.28l-.37.67h-1.73v5.42c0,.68.47.77.84.84.23.04.44.08.44.27,0,.07-.02.12-.06.16-.05.05-.13.06-.21.06ZM124.17,98.26h2.79s.05,0,.08,0c.08,0,.18,0,.22-.03.02-.02.03-.04.03-.08,0-.1-.13-.13-.35-.17-.37-.07-.92-.18-.92-.94v-5.52h1.77l.35-.62c.05-.08.1-.17.1-.23,0-.02-.01-.09-.07-.09,0,0-.02.02-.04.04-.1.09-.31.27-.66.27h-1.44v-.05c0-.14,0-.28,0-.42,0-.85,0-1.74.15-2.56.18-.92.88-1.9,1.82-1.9.8,0,.99.38,1.1.6.05.1.08.15.12.15.11,0,.22-.7.22-1.23,0-.27-.5-.33-.69-.33-1.25,0-2.48,1.28-2.87,1.9-.69,1.1-1.05,2.41-1.05,3.77v.05h-1.12l-.09.64h1.22v5.67c0,.55-.34.7-.59.8-.17.07-.27.12-.27.23,0,.02,0,.03.01.04.03.03.12.03.17.02.02,0,.04,0,.05,0Z" fill="#6d5560"/><path d="M128.6,94.69c0-2.21,1.75-4.11,4.02-4.11,1.37,0,3.91.67,3.91,4.02,0,2.21-1.67,3.91-3.89,3.91-2.34,0-4.03-1.39-4.03-3.82ZM135.26,94.87c0-1.85-.77-3.89-2.92-3.89-1.76,0-2.48,1.55-2.48,3.08,0,1.76.83,4.07,2.94,4.07,1.51,0,2.47-1.03,2.47-3.26Z" fill="#6d5560"/><path d="M132.63,98.56c-2.48,0-4.08-1.52-4.08-3.87s1.82-4.16,4.07-4.16c.66,0,3.96.2,3.96,4.07,0,2.26-1.69,3.96-3.94,3.96ZM132.61,90.63c-2.19,0-3.96,1.82-3.96,4.05s1.56,3.77,3.98,3.77c2.19,0,3.84-1.66,3.84-3.86,0-3.77-3.21-3.96-3.86-3.96ZM132.79,98.18c-2.05,0-2.99-2.14-2.99-4.12,0-1.44.66-3.13,2.54-3.13.99,0,1.79.44,2.31,1.27.43.69.66,1.63.66,2.67,0,2.14-.89,3.31-2.52,3.31ZM132.34,91.03c-1.8,0-2.43,1.63-2.43,3.03,0,.98.24,1.95.67,2.67.36.61,1.04,1.35,2.21,1.35,1.58,0,2.42-1.11,2.42-3.21,0-2.83-1.48-3.84-2.87-3.84Z" fill="#6d5560"/><path d="M139.74,96.8c0,1.67,1.6.81,1.6,1.39,0,.16-.09.2-.29.2-.25,0-.68-.07-1.69-.07-1.21,0-1.53.07-1.66.07-.14,0-.2-.05-.2-.16,0-.38.92-.31.92-1.05v-4.64c0-1.08-1.3-.61-1.3-.99,0-.11.14-.18.23-.2,1.39-.32,1.75-.9,2.16-.9.11,0,.22.11.22.29v1.35h.04c.38-.52,1.03-1.5,1.78-1.5.38,0,1.19.47,1.19.81,0,.27-.43.81-.65.81-.34,0-.54-.41-1.19-.41-.74,0-1.17.83-1.17,1.06v3.94Z" fill="#6d5560"/><path d="M141.06,98.43c-.09,0-.19,0-.33-.02-.28-.02-.69-.05-1.36-.05-.91,0-1.32.04-1.51.06-.07,0-.11.01-.14.01-.17,0-.25-.07-.25-.21,0-.19.18-.28.37-.38.25-.13.54-.27.54-.67v-4.64c0-.63-.47-.7-.85-.75-.24-.03-.45-.06-.45-.25,0-.14.17-.23.28-.25.81-.19,1.26-.46,1.59-.66.23-.14.4-.24.58-.24.13,0,.27.13.27.34v1.24l.02-.02c.4-.56,1.02-1.42,1.75-1.42.4,0,1.24.48,1.24.86,0,.3-.46.86-.7.86-.16,0-.29-.08-.43-.17-.19-.12-.4-.25-.76-.25-.7,0-1.12.8-1.12,1.01v3.94c0,1.01.59,1.05,1.06,1.09.28.02.54.04.54.3,0,.23-.18.25-.34.25ZM139.36,98.26c.67,0,1.09.03,1.37.05.48.04.56.02.56-.13s-.15-.18-.45-.2c-.46-.03-1.15-.09-1.15-1.19v-3.94c0-.24.44-1.11,1.22-1.11.39,0,.63.15.82.26.14.08.24.15.37.15.17,0,.6-.5.6-.76,0-.29-.77-.76-1.14-.76-.68,0-1.3.86-1.67,1.37l-.09.12h-.11v-1.4c0-.15-.08-.24-.17-.24-.16,0-.31.1-.53.23-.33.2-.79.48-1.62.67-.08.02-.19.08-.19.15,0,.09.14.11.36.14.37.05.94.12.94.85v4.64c0,.46-.33.63-.6.76-.2.1-.32.16-.32.28,0,.06.01.11.15.11.03,0,.07,0,.13-.01.2-.02.61-.06,1.52-.06Z" fill="#6d5560"/><path d="M148.88,87.18c-.02-1.31-1.57-.95-1.57-1.35,0-.16.14-.2.29-.2.67,0,1.31.07,1.98.07.56,0,1.12-.07,1.67-.07.31,0,.34.11.34.18,0,.36-1.3.02-1.3,1.37v3.89c0,.25,0,.32.27.32h6.59c.18,0,.14-.45.14-.52v-3.69c0-1.24-1.35-.94-1.35-1.35,0-.11.04-.2.31-.2.59,0,1.53.07,1.87.07.67,0,.94-.07,1.3-.07.47,0,.5.18.5.29,0,.32-1.21.02-1.21,1.26v9.54c0,1.31,1.64.99,1.64,1.44,0,.05-.07.22-.2.22-.49,0-1.04-.07-1.69-.07-1.15,0-1.66.07-2,.07-.16,0-.43.05-.43-.23,0-.43,1.26-.18,1.26-1.31v-4.32c0-.29.07-.45-.14-.45h-6.64c-.22,0-.22.11-.22.31v4.48c0,1.22,1.71.83,1.71,1.39,0,.09-.13.14-.29.14-.23,0-1.55-.07-2.5-.07-1.28,0-1.48.07-1.55.07-.14,0-.2-.09-.2-.27,0-.52,1.4.07,1.4-1.71v-9.22Z" fill="#6d5560"/><path d="M156.33,98.44c-.09,0-.19-.01-.26-.08-.05-.05-.08-.12-.08-.21,0-.2.21-.27.44-.36.36-.13.82-.29.82-.96v-4.32c0-.07,0-.12,0-.18,0-.1.01-.17-.02-.2-.01-.01-.04-.02-.08-.02h-6.64c-.16,0-.17.04-.17.26v4.48c0,.69.56.83,1.06.96.35.09.65.16.65.43,0,.12-.14.2-.34.2-.08,0-.27,0-.54-.02-.53-.02-1.33-.05-1.97-.05-1.03,0-1.36.05-1.48.06-.03,0-.05,0-.07,0-.25,0-.25-.24-.25-.32,0-.22.2-.28.44-.34.41-.11.97-.26.97-1.37v-9.22c-.01-.81-.63-.95-1.08-1.06-.27-.06-.49-.11-.49-.29,0-.11.06-.25.34-.25.33,0,.67.02.99.04.32.02.66.04.99.04.28,0,.56-.02.83-.04.27-.02.56-.04.84-.04.26,0,.39.08.39.23,0,.16-.18.21-.39.27-.38.11-.91.25-.91,1.1v3.89c0,.25,0,.27.22.27h6.59s.02,0,.03-.02c.07-.07.06-.33.06-.42v-.04s0-3.69,0-3.69c0-.75-.5-.9-.9-1.02-.24-.07-.45-.14-.45-.33,0-.18.11-.25.36-.25.34,0,.78.02,1.18.04.3.02.55.03.7.03.38,0,.63-.02.85-.04.16-.02.3-.03.45-.03.37,0,.56.11.56.34,0,.15-.17.19-.36.25-.36.1-.85.23-.85,1.01v9.54c0,.79.61.96,1.1,1.09.29.08.54.15.54.35,0,.08-.09.27-.25.27-.23,0-.47-.02-.73-.03-.3-.02-.62-.04-.96-.04-.74,0-1.21.03-1.55.05-.18.01-.32.02-.45.02-.04,0-.1,0-.15,0ZM150.52,92.01h6.64c.07,0,.12.02.16.05.06.06.05.15.04.28,0,.05,0,.11,0,.17v4.32c0,.74-.51.92-.88,1.05-.23.08-.38.14-.38.26,0,.06.01.11.04.14.06.05.17.05.27.05.02,0,.05,0,.07,0,.12,0,.26,0,.44-.02.34-.02.81-.05,1.56-.05.35,0,.67.02.97.04.26.02.5.03.72.03.09,0,.15-.13.15-.16,0-.12-.18-.18-.47-.25-.49-.13-1.17-.32-1.17-1.19v-9.54c0-.86.56-1.01.92-1.11.18-.05.28-.08.28-.15s0-.24-.45-.24c-.15,0-.29.01-.44.03-.22.02-.47.04-.85.04-.15,0-.41-.01-.7-.03-.39-.02-.83-.04-1.17-.04-.25,0-.25.08-.25.15,0,.11.14.16.37.23.39.12.98.3.98,1.12v3.72c0,.19,0,.4-.09.5-.03.03-.07.05-.11.05h-6.59c-.31,0-.32-.11-.32-.38v-3.89c0-.93.59-1.09.99-1.2.19-.05.31-.09.31-.17,0-.08-.1-.13-.29-.13-.28,0-.56.02-.83.04-.27.02-.56.04-.84.04-.33,0-.67-.02-.99-.04-.32-.02-.66-.04-.99-.04-.21,0-.24.08-.24.15,0,.09.15.14.41.19.46.11,1.15.27,1.16,1.16v9.22c0,1.2-.63,1.36-1.04,1.47-.24.06-.36.1-.36.24,0,.2.07.22.15.22.01,0,.03,0,.06,0,.12-.02.46-.07,1.49-.07.64,0,1.44.03,1.97.05.26.01.46.02.53.02.15,0,.24-.05.24-.09,0-.18-.22-.24-.57-.33-.48-.12-1.14-.29-1.14-1.06v-4.48c0-.19,0-.36.27-.36Z" fill="#6d5560"/><path d="M162.08,93.75c0,2.97,1.8,3.85,2.9,3.85,1.55,0,2.14-.94,2.54-.94.07,0,.07.07.07.13,0,.41-1.57,1.71-3.19,1.71-2.7,0-3.64-2.5-3.64-3.69,0-2.3,1.28-4.23,3.53-4.23s3.19,2.14,3.19,2.86c0,.32-.2.31-.61.31h-4.79ZM165.63,93.27c.25,0,.36-.09.36-.36,0-1.01-1.01-1.91-2-1.91-1.12,0-1.91,1.28-1.91,2.27h3.55Z" fill="#6d5560"/><path d="M164.4,98.56c-2.76,0-3.69-2.57-3.69-3.74,0-2.52,1.47-4.28,3.58-4.28,2.26,0,3.24,2.21,3.24,2.91,0,.12-.03.2-.08.26-.1.1-.27.09-.52.1h-.06s-4.74,0-4.74,0c.02,1.33.62,3.75,2.85,3.75,1.01,0,1.62-.41,2.01-.68.22-.15.38-.25.52-.25.12,0,.12.13.12.18,0,.47-1.61,1.76-3.24,1.76ZM164.29,90.63c-2.05,0-3.48,1.72-3.48,4.18,0,1.14.9,3.64,3.59,3.64,1.62,0,3.14-1.29,3.14-1.66,0-.07,0-.07-.02-.07-.12,0-.27.1-.47.24-.41.28-1.03.7-2.07.7-.67,0-1.38-.31-1.9-.83-.69-.69-1.05-1.76-1.05-3.08v-.05h4.9c.22,0,.38,0,.44-.07.04-.04.05-.1.05-.19,0-.68-.94-2.81-3.14-2.81ZM165.63,93.32h-3.6v-.05c0-1.07.86-2.32,1.96-2.32s2.05.95,2.05,1.96c0,.29-.12.41-.41.41ZM162.13,93.21h3.49c.23,0,.31-.08.31-.31,0-.96-.95-1.86-1.95-1.86s-1.83,1.15-1.86,2.17Z" fill="#6d5560"/><path d="M173.18,92.62c0-.94-.74-1.57-1.85-1.57-.86,0-1.57.09-1.57,1.08,0,.27.11.54.11.74s-.05.34-.4.34c-.31,0-.85-.27-.85-.59.02-.83,1.03-2.09,3.02-2.04,1.12,0,2.84.32,2.84,1.85v3.73c0,.61-.16,1.67.77,1.67.07,0,.23-.04.31-.04.09,0,.23,0,.23.13,0,.38-.79.45-1.04.45-.7,0-1.17-.32-1.4-.92-.76.65-1.75,1.04-2.75,1.04-1.17,0-1.94-.43-1.94-1.71,0-.95.31-2.09,4.52-2.79v-1.39ZM173.18,94.44c-1.15.25-3.35.54-3.35,2.12,0,1.03.52,1.42,1.48,1.42.65,0,1.87-.5,1.87-1.46v-2.09Z" fill="#6d5560"/><path d="M170.61,98.56c-1.34,0-2-.58-2-1.76,0-1,.35-2.13,4.52-2.83v-1.34c0-.91-.73-1.52-1.8-1.52-.83,0-1.52.08-1.52,1.03,0,.14.03.28.06.41.03.12.05.23.05.32,0,.2-.05.39-.45.39-.31,0-.9-.27-.9-.65,0-.41.25-.88.64-1.26.57-.54,1.38-.83,2.32-.83.04,0,.08,0,.12,0,.68,0,2.89.14,2.89,1.91v3.73c0,.08,0,.16,0,.24-.01.42-.03.94.23,1.2.12.12.28.18.5.18.03,0,.09,0,.14-.02.06,0,.12-.02.16-.02.09,0,.29,0,.29.18,0,.5-1.08.5-1.1.5-.68,0-1.17-.31-1.42-.89-.78.64-1.77,1.01-2.73,1.01ZM171.33,91c1.14,0,1.91.65,1.91,1.62v1.43h-.04c-4.13.7-4.48,1.78-4.48,2.75,0,1.13.6,1.66,1.89,1.66.96,0,1.96-.38,2.72-1.03l.06-.05.03.07c.23.59.69.89,1.36.89.32,0,.99-.1.99-.4,0-.06-.04-.07-.18-.07-.03,0-.09,0-.15.02-.06,0-.12.02-.16.02-.24,0-.44-.07-.57-.21-.29-.3-.27-.84-.26-1.28,0-.09,0-.17,0-.24v-3.73c0-1.67-2.14-1.8-2.79-1.8-.95-.02-1.8.26-2.37.8-.37.35-.6.8-.61,1.18,0,.28.5.54.79.54.32,0,.34-.13.34-.29,0-.09-.02-.19-.05-.3-.03-.13-.06-.28-.06-.44,0-1.04.77-1.13,1.62-1.13ZM171.31,98.03c-1.04,0-1.53-.47-1.53-1.47,0-1.48,1.83-1.86,3.05-2.1.12-.02.24-.05.34-.07h.06s0,2.14,0,2.14c0,.99-1.25,1.51-1.92,1.51ZM173.13,94.5c-.09.02-.18.04-.28.06-1.18.24-2.97.61-2.97,2,0,.95.44,1.37,1.42,1.37.64,0,1.82-.48,1.82-1.41v-2.02Z" fill="#6d5560"/><path d="M178.87,96.92c0,1.24,1.49.72,1.49,1.21,0,.22-.14.25-.41.25-.25,0-.81-.07-1.66-.07s-1.22.07-1.4.07c-.14,0-.22-.07-.22-.23,0-.27.88-.22.88-.99v-10.17c0-1.08-1.22-.61-1.22-.99,0-.11.07-.18.16-.2,1.39-.32,1.75-.9,2.16-.9.11,0,.22.11.22.29v11.74Z" fill="#6d5560"/><path d="M179.95,98.43c-.09,0-.22,0-.38-.02-.31-.02-.73-.05-1.27-.05-.61,0-.96.03-1.17.06-.1,0-.17.02-.23.02-.12,0-.27-.05-.27-.29,0-.13.14-.2.3-.27.26-.12.58-.26.58-.72v-10.17c0-.63-.44-.7-.8-.75-.22-.03-.43-.06-.43-.24,0-.12.08-.23.2-.25.81-.19,1.26-.46,1.59-.66.23-.14.4-.24.58-.24.13,0,.27.13.27.34v11.74c0,.72.53.81.96.88.28.05.54.09.54.32,0,.28-.22.3-.47.3ZM178.3,98.26c.55,0,.97.03,1.28.05.16.01.29.02.38.02.29,0,.36-.04.36-.2,0-.14-.17-.17-.45-.22-.44-.08-1.04-.18-1.04-.99v-11.74c0-.15-.08-.24-.16-.24-.16,0-.31.1-.53.23-.33.2-.79.48-1.62.67-.06.01-.12.06-.12.15s.12.11.34.14c.35.05.89.12.89.85v10.17c0,.52-.38.7-.64.81-.13.06-.25.11-.25.18,0,.15.07.18.16.18.05,0,.12,0,.22-.02.21-.02.57-.06,1.18-.06Z" fill="#6d5560"/><path d="M182,91.56c-.85,0-.97,0-.97-.13,0-.14.45-.45,1.37-1.46.36-.43.54-.83.68-.83.25,0,.23.38.23,1.67h1.98c.45,0,.65-.31.7-.31.09,0,.13.09.13.14,0,.07-.05.16-.11.25l-.36.65h-2.34v5.24c.04.74.54,1.08,1.26,1.08.95,0,1.22-.41,1.53-.41.07,0,.14.02.14.16,0,.27-.97.88-2.23.88-.83,0-2.02-.23-2.02-2.09v-4.86Z" fill="#6d5560"/><path d="M184.02,98.56c-1.37,0-2.07-.72-2.07-2.14v-4.81c-.86,0-.97,0-.97-.18,0-.1.11-.21.39-.48.22-.21.56-.54.99-1.02.14-.17.25-.33.35-.47.16-.24.26-.38.38-.38.19,0,.23.18.26.35.03.22.03.59.03,1.13v.19h1.93c.32,0,.5-.16.6-.24.05-.04.07-.06.11-.06.12,0,.18.11.18.19,0,.09-.06.18-.12.28l-.37.67h-2.32v5.19c.03.66.46,1.03,1.21,1.03.6,0,.92-.16,1.16-.29.14-.07.25-.13.38-.13.13,0,.2.07.2.21,0,.31-.99.93-2.28.93ZM183.08,89.19c-.06,0-.17.16-.29.33-.09.14-.21.3-.35.48-.44.48-.77.81-1,1.02-.21.2-.36.35-.36.4,0,.07.18.07.92.07h.05v4.91c0,1.37.64,2.04,1.97,2.04,1.21,0,2.18-.6,2.18-.83,0-.11-.05-.11-.09-.11-.1,0-.2.05-.33.12-.24.13-.58.3-1.2.3-.8,0-1.28-.41-1.31-1.13v-5.29h2.36l.35-.62c.05-.08.1-.17.1-.23,0-.02-.01-.09-.08-.09,0,0-.02.02-.04.04-.1.09-.31.27-.66.27h-2.03v-.29c0-.54,0-.9-.03-1.12-.03-.24-.09-.26-.15-.26Z" fill="#6d5560"/><path d="M189.02,91.86c.68-.65,1.57-1.28,2.59-1.28,2.3,0,3.01,2,3.01,3.55v3.01c0,.94,1.44.56,1.44,1.01,0,.2-.16.23-.36.23-.32,0-.83-.07-1.51-.07s-1.28.07-1.48.07c-.18,0-.29-.05-.29-.2,0-.27.88-.27.88-.92v-3.29c0-2.23-1.55-2.65-2.18-2.65-.81,0-2.11.7-2.11,1.62v3.8c0,1.55,1.58,1.04,1.58,1.39,0,.22-.09.25-.31.25-.38,0-1.28-.07-1.84-.07s-1.35.07-1.64.07c-.13,0-.18-.09-.18-.18,0-.36,1.06-.16,1.06-1.04v-10.17c0-1.08-1.39-.61-1.39-.99,0-.11.05-.18.14-.2,1.31-.25,1.93-.9,2.34-.9.11,0,.22.11.22.29v6.68Z" fill="#6d5560"/><path d="M195.7,98.43c-.13,0-.3-.01-.49-.03-.28-.02-.62-.05-1.02-.05-.46,0-.87.03-1.14.05-.15.01-.27.02-.34.02-.28,0-.34-.14-.34-.25,0-.14.15-.21.33-.3.26-.12.55-.26.55-.62v-3.29c0-2.57-2.04-2.6-2.13-2.6-.81,0-2.06.7-2.06,1.57v3.8c0,1.01.7,1.11,1.16,1.17.24.03.43.06.43.21,0,.25-.13.3-.36.3-.17,0-.45-.01-.75-.03-.36-.02-.78-.04-1.08-.04-.32,0-.73.02-1.06.04-.24.01-.45.03-.57.03-.16,0-.23-.12-.23-.23,0-.18.19-.24.39-.31.31-.11.67-.23.67-.73v-10.17c0-.63-.5-.7-.91-.75-.26-.03-.48-.06-.48-.25,0-.13.07-.23.19-.25.77-.15,1.29-.43,1.68-.64.28-.15.49-.26.67-.26.13,0,.27.13.27.34v6.56c.89-.81,1.72-1.21,2.54-1.21,1.06,0,1.87.41,2.41,1.22.56.84.65,1.85.65,2.38v3.01c0,.51.46.6.87.67.29.05.57.11.57.33,0,.29-.29.29-.41.29ZM194.19,98.26c.41,0,.75.03,1.03.05.19.01.35.03.48.03.26,0,.31-.07.31-.18,0-.13-.18-.18-.49-.23-.4-.08-.95-.18-.95-.77v-3.01c0-2.58-1.53-3.5-2.96-3.5-.82,0-1.66.41-2.56,1.26l-.09.08v-6.8c0-.15-.08-.24-.17-.24-.16,0-.36.11-.62.25-.39.21-.93.5-1.71.65-.09.02-.1.1-.1.15,0,.09.15.11.39.14.4.05,1,.12,1,.85v10.17c0,.58-.43.72-.74.83-.2.07-.32.12-.32.21,0,.03,0,.13.13.13s.33-.01.57-.03c.33-.02.74-.04,1.07-.04.31,0,.72.02,1.09.04.3.02.58.03.75.03.21,0,.25-.03.25-.2,0-.06-.16-.09-.34-.11-.47-.07-1.25-.18-1.25-1.27v-3.8c0-.95,1.31-1.67,2.16-1.67.09,0,2.23.03,2.23,2.7v3.29c0,.43-.35.59-.61.72-.15.07-.27.13-.27.2s.03.15.24.15c.07,0,.18,0,.33-.02.27-.02.69-.05,1.15-.05Z" fill="#6d5560"/><path d="M62.74,115.89c0,2.59,1.89,1.66,1.89,2.27,0,.13-.07.22-.52.22-.61,0-.88-.07-1.94-.07-.85,0-1.44.07-1.96.07-.11,0-.29-.05-.29-.22,0-.49,1.4.07,1.4-1.93v-8.62c0-2.16-1.48-1.06-1.48-1.71,0-.14.09-.27.23-.27.16,0,.79.07,1.84.07.9,0,1.19-.07,2.05-.07,2.29,0,4.83.79,4.83,3.47,0,.72-.54,3.46-4.37,3.46-.18,0-1.22-.09-1.22-.41,0-.13.09-.16.18-.16.14,0,.52.11,1.17.11,1.84,0,2.92-.88,2.92-2.5,0-2.18-1.67-3.33-3.75-3.33-.58,0-.97,0-.97.54v9.09Z" fill="#6d5560"/><path d="M64.11,118.43c-.27,0-.47-.01-.7-.03-.3-.02-.65-.04-1.25-.04-.47,0-.87.02-1.21.04-.28.02-.52.03-.75.03-.14,0-.34-.07-.34-.27s.18-.25.39-.32c.4-.12,1.01-.31,1.01-1.61v-8.62c0-1.35-.58-1.38-1-1.41-.24-.01-.47-.03-.47-.3,0-.18.12-.32.29-.32.05,0,.13,0,.25.01.29.02.84.06,1.58.06.45,0,.75-.02,1.05-.04.28-.02.58-.04,1.01-.04,1.47,0,4.88.34,4.88,3.53,0,.11-.02,1.1-.76,2.03-.78.98-2.01,1.48-3.67,1.48-.01,0-1.28-.05-1.28-.47,0-.13.09-.21.23-.21.05,0,.12.01.22.03.2.03.51.08.95.08,1.85,0,2.87-.87,2.87-2.45,0-1.99-1.45-3.28-3.69-3.28-.62,0-.92.02-.92.49v9.09c0,1.7.83,1.84,1.37,1.94.28.05.52.09.52.33,0,.19-.16.27-.57.27ZM62.16,118.26c.61,0,.95.02,1.26.04.23.02.43.03.69.03.47,0,.47-.1.47-.16,0-.15-.15-.18-.43-.23-.55-.09-1.46-.25-1.46-2.04v-9.09c0-.59.45-.59,1.02-.59,2.31,0,3.8,1.33,3.8,3.38,0,1.62-1.08,2.55-2.97,2.55-.44,0-.76-.05-.97-.08-.09-.01-.16-.03-.2-.03-.13,0-.13.08-.13.11,0,.24.87.36,1.17.36,4.27,0,4.32-3.37,4.32-3.41,0-3.09-3.34-3.42-4.77-3.42-.43,0-.71.02-1,.04-.29.02-.6.04-1.05.04-.75,0-1.3-.04-1.59-.06-.12,0-.2-.01-.24-.01-.12,0-.18.11-.18.22,0,.17.1.19.38.2.44.02,1.1.06,1.1,1.51v8.62c0,1.38-.65,1.57-1.08,1.71-.21.06-.32.1-.32.22,0,.13.18.16.24.16.23,0,.47-.01.74-.03.35-.02.74-.04,1.22-.04Z" fill="#6d5560"/><path d="M71.85,116.8c0,1.67,1.6.81,1.6,1.39,0,.16-.09.2-.29.2-.25,0-.68-.07-1.69-.07-1.21,0-1.53.07-1.66.07-.14,0-.2-.05-.2-.16,0-.38.92-.31.92-1.05v-4.64c0-1.08-1.3-.61-1.3-.99,0-.11.14-.18.23-.2,1.39-.32,1.75-.9,2.16-.9.11,0,.22.11.22.29v1.35h.04c.38-.52,1.03-1.5,1.78-1.5.38,0,1.19.47,1.19.81,0,.27-.43.81-.65.81-.34,0-.54-.41-1.19-.41-.74,0-1.17.83-1.17,1.06v3.94Z" fill="#6d5560"/><path d="M73.16,118.43c-.09,0-.19,0-.33-.02-.28-.02-.69-.05-1.36-.05-.91,0-1.32.04-1.51.06-.07,0-.11.01-.14.01-.17,0-.25-.07-.25-.21,0-.19.18-.28.37-.38.25-.13.54-.27.54-.67v-4.64c0-.63-.47-.7-.85-.75-.24-.03-.45-.06-.45-.25,0-.14.17-.23.28-.25.81-.19,1.26-.46,1.59-.66.23-.14.4-.24.58-.24.13,0,.27.12.27.34v1.24l.02-.02c.4-.56,1.01-1.41,1.75-1.41.4,0,1.24.48,1.24.86,0,.3-.46.86-.7.86-.16,0-.29-.08-.43-.17-.19-.12-.4-.25-.76-.25-.7,0-1.12.8-1.12,1.01v3.94c0,1.01.59,1.05,1.06,1.09.28.02.54.04.54.3,0,.23-.18.25-.34.25ZM71.47,118.26c.67,0,1.09.03,1.37.05.48.04.56.03.56-.13,0-.16-.15-.18-.45-.2-.46-.03-1.15-.09-1.15-1.19v-3.94c0-.24.44-1.11,1.22-1.11.39,0,.63.15.82.26.14.08.24.15.37.15.17,0,.6-.5.6-.76,0-.29-.77-.76-1.14-.76-.68,0-1.3.86-1.67,1.37l-.09.12h-.11v-1.4c0-.15-.08-.24-.16-.24-.16,0-.31.1-.53.23-.33.2-.79.48-1.62.67-.08.02-.19.08-.19.15,0,.09.14.11.36.14.37.05.94.12.94.85v4.64c0,.46-.33.63-.6.76-.2.1-.32.16-.32.28,0,.06.01.11.15.11.03,0,.07,0,.13-.01.2-.02.61-.06,1.52-.06Z" fill="#6d5560"/><path d="M75.23,114.69c0-2.21,1.75-4.11,4.02-4.11,1.37,0,3.91.67,3.91,4.02,0,2.21-1.67,3.91-3.89,3.91-2.34,0-4.03-1.39-4.03-3.82ZM81.89,114.87c0-1.85-.77-3.89-2.92-3.89-1.76,0-2.48,1.55-2.48,3.08,0,1.76.83,4.07,2.94,4.07,1.51,0,2.47-1.03,2.47-3.26Z" fill="#6d5560"/><path d="M79.26,118.56c-2.48,0-4.08-1.52-4.08-3.87s1.82-4.16,4.07-4.16c.66,0,3.96.2,3.96,4.07,0,2.26-1.69,3.96-3.94,3.96ZM79.24,110.63c-2.19,0-3.96,1.82-3.96,4.05s1.56,3.77,3.98,3.77c2.19,0,3.84-1.66,3.84-3.86,0-3.77-3.21-3.96-3.86-3.96ZM79.42,118.18c-2.05,0-2.99-2.14-2.99-4.12,0-1.44.66-3.13,2.54-3.13.99,0,1.79.44,2.31,1.27.43.69.66,1.63.66,2.67,0,2.14-.89,3.31-2.52,3.31ZM78.97,111.03c-1.8,0-2.43,1.63-2.43,3.03,0,.98.24,1.95.67,2.67.36.61,1.04,1.35,2.21,1.35,1.58,0,2.42-1.11,2.42-3.21,0-2.83-1.48-3.84-2.87-3.84Z" fill="#6d5560"/><path d="M86.35,116.92c0,1.24,1.39.72,1.39,1.21,0,.22-.13.25-.31.25-.23,0-.83-.07-1.58-.07s-1.12.07-1.33.07c-.14,0-.22-.09-.22-.23,0-.27.74-.22.74-.99v-4.63c0-1.08-1.13-.61-1.13-.99,0-.11.07-.18.16-.2,1.3-.32,1.66-.9,2.07-.9.11,0,.22.11.22.29v1.04c.54-.61,1.28-1.19,2.14-1.19,1.1,0,1.76.36,2.32,1.31.56-.83,1.28-1.31,2.5-1.31,2.66,0,2.57,2.66,2.57,3.29v3.04c0,1.24,1.39.72,1.39,1.21,0,.22-.13.25-.31.25-.23,0-.83-.07-1.58-.07s-1.12.07-1.33.07c-.14,0-.22-.09-.22-.23,0-.27.74-.22.74-.99v-3.49c0-1.1-.41-2.41-1.87-2.41-.85,0-1.58.74-1.58,1.01v4.66c0,1.24,1.39.72,1.39,1.21,0,.22-.13.25-.31.25-.23,0-.83-.07-1.58-.07s-1.12.07-1.33.07c-.14,0-.22-.09-.22-.23,0-.27.74-.22.74-.99v-3.8c0-1.42-.85-2.11-1.75-2.11-.5,0-1.71.32-1.71,1.58v4.09Z" fill="#6d5560"/><path d="M96.98,118.43c-.09,0-.22,0-.38-.02-.3-.02-.72-.05-1.2-.05s-.8.03-1.03.05c-.12.01-.22.02-.3.02-.17,0-.27-.11-.27-.29,0-.13.12-.2.26-.27.21-.12.48-.26.48-.72v-3.49c0-.55-.13-2.36-1.82-2.36-.83,0-1.53.73-1.53.96v4.66c0,.72.49.81.89.88.26.05.5.09.5.32,0,.27-.18.3-.36.3-.09,0-.22,0-.38-.02-.3-.02-.72-.05-1.2-.05s-.8.03-1.03.05c-.12.01-.22.02-.3.02-.17,0-.27-.11-.27-.29,0-.13.12-.2.26-.27.21-.12.48-.26.48-.72v-3.8c0-1.42-.85-2.06-1.7-2.06-.43,0-1.66.28-1.66,1.53v4.09c0,.72.49.81.89.88.26.05.5.09.5.32,0,.27-.18.3-.36.3-.09,0-.22,0-.38-.02-.3-.02-.72-.05-1.2-.05s-.8.03-1.03.05c-.12.01-.22.02-.3.02-.17,0-.27-.11-.27-.29,0-.13.12-.2.26-.27.21-.12.48-.26.48-.72v-4.63c0-.63-.41-.7-.74-.75-.2-.03-.4-.06-.4-.25,0-.12.08-.22.2-.25.74-.18,1.17-.45,1.48-.65.24-.15.41-.25.6-.25.13,0,.27.12.27.34v.91c.68-.73,1.38-1.11,2.09-1.11,1.1,0,1.78.37,2.33,1.27.62-.88,1.39-1.27,2.5-1.27.77,0,1.39.22,1.83.66.81.81.8,2.13.8,2.62v.06s0,3.04,0,3.04c0,.72.49.81.89.88.26.05.5.09.5.32,0,.27-.18.3-.36.3ZM95.39,118.26c.49,0,.9.03,1.21.05.16.01.29.02.38.02.2,0,.25-.05.25-.2,0-.14-.15-.17-.42-.22-.41-.08-.97-.18-.97-.99v-3.1c0-.48,0-1.77-.77-2.55-.42-.42-1.01-.63-1.75-.63-1.11,0-1.85.39-2.46,1.29l-.05.07-.04-.07c-.54-.93-1.18-1.29-2.28-1.29-.71,0-1.42.39-2.1,1.17l-.09.1v-1.18c0-.15-.08-.24-.16-.24-.16,0-.32.1-.54.24-.32.2-.76.47-1.51.66-.08.02-.12.07-.12.15,0,.09.09.11.31.14.33.05.82.12.82.85v4.63c0,.52-.32.69-.54.81-.13.07-.2.11-.2.18,0,.12.06.18.16.18.07,0,.17,0,.29-.02.24-.02.56-.05,1.04-.05s.9.03,1.21.05c.16.01.29.02.38.02.2,0,.25-.05.25-.2,0-.14-.15-.17-.42-.22-.41-.08-.97-.18-.97-.99v-4.09c0-1.34,1.3-1.64,1.76-1.64.89,0,1.8.67,1.8,2.16v3.8c0,.52-.32.69-.54.81-.13.07-.2.11-.2.18,0,.12.05.18.17.18.07,0,.17,0,.29-.02.24-.02.56-.05,1.04-.05s.9.03,1.21.05c.16.01.29.02.38.02.2,0,.25-.05.25-.2,0-.14-.15-.17-.42-.22-.41-.08-.97-.18-.97-.99v-4.66c0-.29.74-1.06,1.64-1.06,1.79,0,1.92,1.89,1.92,2.46v3.49c0,.52-.32.69-.54.81-.13.07-.2.11-.2.18,0,.12.05.18.16.18.07,0,.17,0,.29-.02.24-.02.56-.05,1.04-.05Z" fill="#6d5560"/><path d="M97.76,114.69c0-2.21,1.75-4.11,4.02-4.11,1.37,0,3.91.67,3.91,4.02,0,2.21-1.67,3.91-3.89,3.91-2.34,0-4.03-1.39-4.03-3.82ZM104.43,114.87c0-1.85-.77-3.89-2.92-3.89-1.76,0-2.48,1.55-2.48,3.08,0,1.76.83,4.07,2.94,4.07,1.51,0,2.47-1.03,2.47-3.26Z" fill="#6d5560"/><path d="M101.8,118.56c-2.48,0-4.08-1.52-4.08-3.87s1.82-4.16,4.07-4.16c.66,0,3.96.2,3.96,4.07,0,2.26-1.69,3.96-3.94,3.96ZM101.78,110.63c-2.19,0-3.96,1.82-3.96,4.05s1.56,3.77,3.98,3.77c2.19,0,3.84-1.66,3.84-3.86,0-3.77-3.21-3.96-3.86-3.96ZM101.96,118.18c-2.05,0-2.99-2.14-2.99-4.12,0-1.44.66-3.13,2.54-3.13.99,0,1.79.44,2.31,1.27.43.69.66,1.63.66,2.67,0,2.14-.89,3.31-2.52,3.31ZM101.51,111.03c-1.8,0-2.43,1.63-2.43,3.03,0,.98.24,1.95.67,2.67.36.61,1.04,1.35,2.21,1.35,1.58,0,2.42-1.11,2.42-3.21,0-2.83-1.48-3.84-2.87-3.84Z" fill="#6d5560"/><path d="M107.54,111.56c-.85,0-.97,0-.97-.13,0-.14.45-.45,1.37-1.46.36-.43.54-.83.68-.83.25,0,.23.38.23,1.67h1.98c.45,0,.65-.31.7-.31.09,0,.13.09.13.14,0,.07-.05.16-.11.25l-.36.65h-2.34v5.24c.04.74.54,1.08,1.26,1.08.95,0,1.22-.41,1.53-.41.07,0,.14.02.14.16,0,.27-.97.88-2.23.88-.83,0-2.02-.23-2.02-2.09v-4.86Z" fill="#6d5560"/><path d="M109.56,118.56c-1.37,0-2.07-.72-2.07-2.14v-4.81c-.86,0-.97,0-.97-.18,0-.1.11-.21.39-.48.22-.21.56-.54.99-1.02.14-.17.25-.33.35-.47.16-.24.26-.38.37-.38.19,0,.23.18.26.35.03.22.03.59.03,1.13v.19h1.93c.31,0,.5-.16.6-.24.05-.04.07-.06.11-.06.12,0,.18.11.18.19,0,.09-.06.18-.12.28l-.37.67h-2.32v5.19c.03.66.46,1.03,1.21,1.03.6,0,.92-.16,1.16-.29.14-.07.25-.13.38-.13.13,0,.2.07.2.21,0,.31-.99.93-2.28.93ZM108.62,109.19c-.06,0-.17.16-.29.33-.09.14-.21.3-.35.48-.44.48-.77.81-1,1.02-.21.2-.36.35-.36.4,0,.07.18.07.92.07h.05v4.91c0,1.37.64,2.04,1.97,2.04,1.21,0,2.18-.6,2.18-.83,0-.11-.05-.11-.09-.11-.1,0-.2.05-.33.12-.24.13-.58.3-1.2.3-.8,0-1.28-.41-1.31-1.13v-5.29h2.36l.35-.62c.05-.08.1-.17.1-.23,0-.02-.01-.09-.07-.09,0,0-.02.02-.04.04-.1.09-.31.27-.66.27h-2.03v-.29c0-.54,0-.9-.03-1.12-.03-.24-.09-.26-.15-.26Z" fill="#6d5560"/><path d="M113.66,112.53c0-1.08-.99-.61-.99-.99,0-.11.07-.18.16-.2,1.15-.32,1.51-.9,1.93-.9.11,0,.22.11.22.29v6.46c0,.92,1.42.52,1.42.99,0,.14-.11.2-.34.2-.38,0-.94-.07-1.67-.07-.58,0-1.04.07-1.24.07-.14,0-.25-.02-.27-.2,0-.45.79.23.79-1.4v-4.25ZM115.06,107.83c0,.22-.52.94-.76.94-.22,0-.76-.74-.76-.94s.54-.95.76-.95c.23,0,.76.74.76.95Z" fill="#6d5560"/><path d="M116.05,118.43c-.16,0-.35-.01-.57-.03-.3-.02-.68-.04-1.1-.04-.36,0-.68.03-.92.05-.14.01-.25.02-.33.02-.14,0-.3-.02-.32-.24,0-.2.14-.23.26-.26.23-.05.54-.12.54-1.15v-4.25c0-.64-.35-.7-.64-.75-.17-.03-.35-.06-.35-.25,0-.12.08-.22.2-.25.63-.18,1.03-.44,1.32-.63.24-.16.42-.27.62-.27.13,0,.27.13.27.34v6.46c0,.49.45.57.85.65.3.05.58.11.58.34,0,.22-.21.25-.39.25ZM114.38,118.26c.43,0,.81.02,1.11.04.22.01.41.03.56.03.27,0,.29-.08.29-.15,0-.14-.19-.19-.49-.24-.41-.08-.93-.17-.93-.75v-6.46c0-.15-.08-.24-.17-.24-.17,0-.33.11-.56.26-.3.19-.7.46-1.35.64-.06.01-.12.06-.12.15s.08.11.27.14c.29.05.72.13.72.85v4.25c0,1.12-.37,1.2-.62,1.25-.13.03-.18.04-.18.15.01.12.07.15.22.15.07,0,.18,0,.32-.02.24-.02.56-.05.92-.05ZM114.31,108.82c-.26,0-.81-.77-.81-.99s.55-1.01.81-1.01c.27,0,.81.77.81,1.01s-.53.99-.81.99ZM114.31,106.93c-.18,0-.7.73-.7.9s.53.89.7.89c.2,0,.71-.69.71-.89s-.51-.9-.71-.9Z" fill="#6d5560"/><path d="M117.06,114.69c0-2.21,1.75-4.11,4.02-4.11,1.37,0,3.91.67,3.91,4.02,0,2.21-1.67,3.91-3.89,3.91-2.34,0-4.03-1.39-4.03-3.82ZM123.72,114.87c0-1.85-.77-3.89-2.92-3.89-1.76,0-2.48,1.55-2.48,3.08,0,1.76.83,4.07,2.94,4.07,1.51,0,2.47-1.03,2.47-3.26Z" fill="#6d5560"/><path d="M121.09,118.56c-2.48,0-4.08-1.52-4.08-3.87s1.82-4.16,4.07-4.16c.66,0,3.96.2,3.96,4.07,0,2.26-1.69,3.96-3.94,3.96ZM121.08,110.63c-2.19,0-3.96,1.82-3.96,4.05s1.56,3.77,3.98,3.77c2.19,0,3.84-1.66,3.84-3.86,0-3.77-3.21-3.96-3.86-3.96ZM121.26,118.18c-2.05,0-2.99-2.14-2.99-4.12,0-1.44.66-3.13,2.54-3.13.99,0,1.79.44,2.31,1.27.43.69.66,1.63.66,2.67,0,2.14-.89,3.31-2.52,3.31ZM120.81,111.03c-1.8,0-2.43,1.63-2.43,3.03,0,.98.24,1.95.67,2.67.36.61,1.04,1.35,2.21,1.35,1.58,0,2.42-1.11,2.42-3.21,0-2.83-1.48-3.84-2.87-3.84Z" fill="#6d5560"/><path d="M128.19,116.92c0,1.24,1.58.72,1.58,1.21,0,.22-.13.25-.4.25-.31,0-.67-.07-1.71-.07-.95,0-1.31.07-1.53.07-.23,0-.32-.04-.32-.22,0-.36,1.06,0,1.06-1.17v-4.46c0-1.08-1.33-.61-1.33-.99,0-.11.07-.18.16-.2,1.49-.32,1.85-.9,2.27-.9.11,0,.22.11.22.29v1.19c-.04.22.86-1.33,2.61-1.33,2.41,0,2.93,2,2.93,3.37v2.97c0,1.24,1.4.72,1.4,1.21,0,.22-.13.25-.31.25-.23,0-.68-.07-1.57-.07-.68,0-1.06.07-1.3.07s-.32-.04-.32-.22c0-.36.77,0,.77-1.17v-3.37c0-.9-.65-2.25-2.11-2.25s-2.14,1.12-2.12,1.4v4.14Z" fill="#6d5560"/><path d="M134.83,118.43c-.08,0-.19,0-.33-.02-.26-.02-.66-.05-1.24-.05-.43,0-.74.03-.97.05-.14.01-.24.02-.33.02-.21,0-.38-.02-.38-.27,0-.16.13-.21.26-.26.22-.08.52-.19.52-.91v-3.37c0-.89-.65-2.2-2.06-2.2-.93,0-1.47.43-1.71.69-.26.28-.37.55-.36.66v4.14c0,.72.56.81,1.02.88.3.05.57.09.57.32,0,.28-.2.3-.45.3-.11,0-.23,0-.37-.02-.28-.02-.66-.05-1.34-.05s-1.01.03-1.26.05c-.12.01-.2.02-.27.02-.21,0-.38-.02-.38-.27,0-.17.17-.21.35-.26.32-.09.72-.19.72-.91v-4.46c0-.63-.48-.7-.87-.75-.25-.03-.46-.06-.46-.25,0-.12.08-.22.2-.25.89-.19,1.38-.48,1.71-.67.23-.13.39-.23.57-.23.13,0,.27.12.27.34v1.1s.03-.03.04-.04c.32-.34,1.16-1.25,2.52-1.25,1.09,0,1.9.4,2.42,1.19.5.77.57,1.72.57,2.22v2.97c0,.72.5.81.9.88.26.05.51.09.51.32,0,.27-.18.3-.36.3ZM133.26,118.26c.58,0,.98.03,1.25.05.13.01.24.02.32.02.2,0,.25-.05.25-.2,0-.14-.15-.17-.42-.22-.41-.08-.98-.18-.98-.99v-2.97c0-1-.28-3.32-2.88-3.32-1.31,0-2.14.89-2.45,1.22-.11.12-.14.15-.19.13-.02,0-.04-.03-.03-.07v-1.18c0-.15-.08-.24-.17-.24-.15,0-.3.09-.52.22-.33.19-.83.49-1.74.68-.06.01-.12.06-.12.15s.14.11.37.14c.38.05.96.12.96.85v4.46c0,.79-.48.92-.79,1.01-.18.05-.27.08-.27.16,0,.13.04.16.27.16.07,0,.15,0,.26-.02.25-.02.62-.05,1.27-.05s1.06.03,1.34.05c.15.01.26.02.37.02.28,0,.34-.04.34-.2,0-.14-.18-.17-.48-.22-.47-.07-1.1-.18-1.1-.99v-4.14c0-.15.12-.45.39-.74.25-.27.82-.72,1.79-.72,1.47,0,2.16,1.37,2.16,2.3v3.37c0,.79-.35.92-.58,1.01-.13.05-.19.08-.19.16,0,.13.04.16.27.16.08,0,.19,0,.32-.02.23-.02.54-.05.98-.05Z" fill="#6d5560"/><path d="M149.09,116.42c1.3,1.98,2.18,1.31,2.18,1.75,0,.22-1.01.22-1.17.22-1.31,0-2.02-.92-2.7-1.94l-2-3.15c-.65-1.01-.38-.95-2.4-.95-.58,0-.47.32-.47.5v3.8c0,1.55,1.87.99,1.87,1.6,0,.18-.16.14-.31.14-.16,0-.58-.07-2.07-.07-.68,0-1.37.07-2.05.07-.11,0-.18-.09-.18-.2,0-.45,1.31-.2,1.31-1.57v-9.16c0-1.73-1.55-.99-1.55-1.6,0-.11.14-.22.36-.22.32,0,.23.07,1.15.07,1.04,0,2.07-.07,3.01-.07.29,0,4.27-.36,4.27,3.12,0,1.4-1.01,2.61-2.27,3.11l3.01,4.56ZM142.53,111.47c0,.34,1.12.25,1.96.25.77,0,2.5-.32,2.5-2.56s-1.67-2.94-3.44-2.94c-.65,0-1.03-.04-1.03.67v4.57Z" fill="#6d5560"/><path d="M144.22,118.43s-.08,0-.12,0c-.04,0-.1,0-.18-.01-.25-.02-.77-.06-1.89-.06-.34,0-.69.02-1.02.04-.34.02-.69.04-1.03.04-.13,0-.23-.11-.23-.25,0-.2.2-.28.43-.37.39-.16.89-.36.89-1.19v-9.16c0-1.04-.57-1.15-1.02-1.23-.27-.05-.53-.1-.53-.37,0-.13.15-.27.41-.27.12,0,.19.01.27.02.13.02.31.05.88.05.54,0,1.07-.02,1.58-.04.5-.02.97-.03,1.42-.03.02,0,.04,0,.08,0,.12,0,.23,0,.34,0,1.68,0,2.59.52,3.06.98.55.53.84,1.27.84,2.2,0,1.32-.9,2.58-2.24,3.14l2.97,4.5c.85,1.3,1.51,1.44,1.87,1.52.18.04.32.07.32.26,0,.07,0,.27-1.22.27-1.32,0-2.03-.89-2.74-1.97l-2-3.15c-.07-.11-.13-.2-.18-.28-.4-.65-.4-.65-1.88-.65h-.29c-.18,0-.31.03-.37.1-.07.07-.06.18-.05.27,0,.03,0,.06,0,.08v3.8c0,.91.67,1.06,1.21,1.18.35.08.66.15.66.42,0,.06-.02.11-.05.15-.05.05-.11.05-.18.05ZM142.03,118.26c1.13,0,1.65.04,1.9.06.13,0,.18.01.24.01.07,0,.14,0,.17-.02.01-.01.02-.04.02-.07,0-.19-.22-.24-.58-.32-.54-.12-1.29-.29-1.29-1.28v-3.8s0-.05,0-.07c0-.11-.02-.25.08-.35.08-.09.23-.13.44-.13h.29c1.51,0,1.54,0,1.97.69.05.08.11.18.18.28l2,3.15c.7,1.05,1.38,1.92,2.66,1.92.92,0,1.12-.12,1.12-.16,0-.1-.04-.11-.24-.16-.37-.08-1.06-.23-1.93-1.56l-3.04-4.61.06-.02c1.34-.53,2.24-1.77,2.24-3.07,0-.9-.27-1.61-.8-2.12-.46-.44-1.35-.95-2.99-.95-.11,0-.22,0-.34,0-.04,0-.06,0-.08,0-.45,0-.92.02-1.42.03-.52.02-1.05.04-1.59.04-.58,0-.76-.03-.9-.05-.08-.01-.14-.02-.26-.02-.18,0-.31.09-.31.16,0,.18.15.21.44.27.47.09,1.1.21,1.1,1.33v9.16c0,.9-.57,1.14-.95,1.29-.23.09-.36.15-.36.28,0,.07.04.15.13.15.34,0,.69-.02,1.02-.04.34-.02.69-.04,1.03-.04ZM143.57,111.78c-.48,0-.89-.03-1.03-.17-.04-.04-.06-.09-.06-.14v-4.57c0-.26.05-.44.16-.55.17-.17.44-.17.83-.17h.09c1.05,0,3.49.29,3.49,2.99,0,.99-.33,1.71-.98,2.16-.6.41-1.3.45-1.57.45-.14,0-.3,0-.45,0-.16,0-.32,0-.47,0ZM143.39,106.28c-.31,0-.54,0-.67.14-.09.09-.13.24-.13.48v4.57s.01.05.03.07c.16.16.84.15,1.43.14.15,0,.31,0,.45,0,.58,0,2.45-.18,2.45-2.51,0-.87-.33-2.88-3.39-2.88h-.17Z" fill="#6d5560"/><path d="M152.56,113.75c0,2.97,1.8,3.85,2.9,3.85,1.55,0,2.14-.94,2.54-.94.07,0,.07.07.07.13,0,.41-1.57,1.71-3.19,1.71-2.7,0-3.64-2.5-3.64-3.69,0-2.3,1.28-4.23,3.53-4.23s3.19,2.14,3.19,2.86c0,.32-.2.31-.61.31h-4.79ZM156.1,113.27c.25,0,.36-.09.36-.36,0-1.01-1.01-1.91-2-1.91-1.12,0-1.91,1.28-1.91,2.27h3.55Z" fill="#6d5560"/><path d="M154.88,118.56c-2.76,0-3.69-2.57-3.69-3.74,0-2.52,1.47-4.28,3.58-4.28,2.26,0,3.24,2.21,3.24,2.91,0,.12-.03.2-.08.26-.1.1-.27.09-.52.1h-.06s-4.74,0-4.74,0c.02,1.33.62,3.75,2.85,3.75,1.01,0,1.62-.41,2.01-.68.22-.15.37-.25.52-.25.12,0,.12.13.12.18,0,.47-1.61,1.76-3.24,1.76ZM154.77,110.63c-2.05,0-3.48,1.72-3.48,4.18,0,1.14.9,3.64,3.59,3.64,1.62,0,3.14-1.29,3.14-1.66,0-.07,0-.07-.02-.07-.12,0-.27.1-.47.24-.41.28-1.03.7-2.07.7-.67,0-1.38-.31-1.9-.83-.69-.69-1.05-1.76-1.05-3.08v-.05h4.9c.23,0,.38,0,.44-.07.04-.04.05-.1.05-.19,0-.68-.94-2.81-3.14-2.81ZM156.1,113.32h-3.6v-.05c0-1.07.86-2.32,1.96-2.32s2.05.95,2.05,1.96c0,.29-.12.41-.41.41ZM152.61,113.21h3.49c.23,0,.31-.08.31-.31,0-.96-.95-1.86-1.95-1.86s-1.83,1.15-1.86,2.17Z" fill="#6d5560"/><path d="M159.13,112.74c0-1.44,1.12-2.16,2.43-2.16.31,0,1.55.14,1.76.41.11.14.09.76.09.88,0,.49.07.7-.2.7-.18,0-.34-1.57-1.98-1.57-.7,0-1.26.41-1.26,1.15,0,.59.47.97,2.36,1.73,1.03.43,1.49.99,1.49,2.14,0,1.35-1.1,2.47-2.43,2.47-1.26,0-1.58-.52-2.02-.52-.4,0-.4-.02-.4-1.44,0-.31-.05-.88.22-.88.4,0,.2,2.38,2.14,2.38.88,0,1.6-.54,1.6-1.48s-.92-1.24-1.64-1.58c-.97-.49-2.18-.95-2.18-2.23Z" fill="#6d5560"/><path d="M161.39,118.56c-.81,0-1.24-.21-1.55-.37-.18-.09-.32-.16-.46-.16-.45,0-.45-.06-.45-1.49,0-.04,0-.09,0-.13,0-.27-.01-.6.12-.74.04-.04.09-.06.15-.06.16,0,.23.23.33.58.2.71.51,1.79,1.81,1.79,1.07,0,1.55-.72,1.55-1.42,0-.81-.69-1.12-1.35-1.42-.09-.04-.18-.08-.26-.12-.09-.04-.17-.08-.26-.13-.91-.45-1.95-.95-1.95-2.15,0-1.34.97-2.21,2.48-2.21.29,0,1.57.14,1.8.43.1.13.1.53.1.87v.05c0,.09,0,.18,0,.25,0,.22.01.36-.07.44-.04.04-.1.06-.19.06-.08,0-.12-.1-.2-.27-.2-.45-.58-1.29-1.78-1.29-.72,0-1.21.44-1.21,1.1,0,.58.52.96,2.33,1.68,1.1.46,1.53,1.08,1.53,2.19,0,1.39-1.11,2.52-2.48,2.52ZM159.2,115.71s-.06.01-.08.03c-.1.11-.1.43-.09.66,0,.05,0,.1,0,.14q0,1.39.34,1.39c.17,0,.32.07.51.17.31.15.72.36,1.51.36,1.31,0,2.38-1.08,2.38-2.42,0-1.08-.4-1.65-1.46-2.1-1.88-.75-2.39-1.13-2.39-1.78,0-.72.53-1.2,1.31-1.2,1.26,0,1.68.91,1.87,1.35.04.09.09.2.11.21.07,0,.09-.02.11-.03.05-.05.04-.18.04-.36,0-.08,0-.16,0-.26v-.05c0-.45-.02-.72-.08-.8-.19-.24-1.36-.39-1.72-.39-1.1,0-2.38.55-2.38,2.11,0,1.14.96,1.61,1.89,2.06.09.04.17.08.26.13.08.04.17.08.26.12.66.3,1.41.64,1.41,1.51s-.68,1.53-1.65,1.53c-1.38,0-1.71-1.17-1.91-1.87-.08-.26-.15-.51-.23-.51Z" fill="#6d5560"/><path d="M166.07,113.75c0,2.97,1.8,3.85,2.9,3.85,1.55,0,2.14-.94,2.54-.94.07,0,.07.07.07.13,0,.41-1.57,1.71-3.19,1.71-2.7,0-3.64-2.5-3.64-3.69,0-2.3,1.28-4.23,3.53-4.23s3.19,2.14,3.19,2.86c0,.32-.2.31-.61.31h-4.79ZM169.62,113.27c.25,0,.36-.09.36-.36,0-1.01-1.01-1.91-2-1.91-1.12,0-1.91,1.28-1.91,2.27h3.55Z" fill="#6d5560"/><path d="M168.4,118.56c-2.76,0-3.69-2.57-3.69-3.74,0-2.52,1.47-4.28,3.58-4.28,2.26,0,3.24,2.21,3.24,2.91,0,.12-.03.2-.08.26-.1.1-.27.09-.52.1h-.06s-4.74,0-4.74,0c.02,1.33.62,3.75,2.85,3.75,1.01,0,1.62-.41,2.01-.68.22-.15.37-.25.52-.25.12,0,.12.13.12.18,0,.47-1.61,1.76-3.24,1.76ZM168.29,110.63c-2.05,0-3.48,1.72-3.48,4.18,0,1.14.9,3.64,3.59,3.64,1.62,0,3.14-1.29,3.14-1.66,0-.07,0-.07-.02-.07-.12,0-.27.1-.47.24-.41.28-1.03.7-2.07.7-.67,0-1.38-.31-1.9-.83-.69-.69-1.05-1.76-1.05-3.08v-.05h4.9c.22,0,.38,0,.44-.07.04-.04.05-.1.05-.19,0-.68-.94-2.81-3.14-2.81ZM169.62,113.32h-3.6v-.05c0-1.07.86-2.32,1.96-2.32s2.05.95,2.05,1.96c0,.29-.12.41-.41.41ZM166.13,113.21h3.49c.23,0,.31-.08.31-.31,0-.96-.95-1.86-1.95-1.86s-1.83,1.15-1.86,2.17Z" fill="#6d5560"/><path d="M177.18,112.62c0-.94-.74-1.57-1.85-1.57-.86,0-1.57.09-1.57,1.08,0,.27.11.54.11.74s-.05.34-.4.34c-.31,0-.85-.27-.85-.59.02-.83,1.03-2.09,3.02-2.04,1.12,0,2.84.32,2.84,1.85v3.73c0,.61-.16,1.67.77,1.67.07,0,.23-.04.31-.04.09,0,.23,0,.23.13,0,.38-.79.45-1.04.45-.7,0-1.17-.32-1.4-.92-.76.65-1.75,1.04-2.75,1.04-1.17,0-1.94-.43-1.94-1.71,0-.95.31-2.09,4.52-2.79v-1.39ZM177.18,114.44c-1.15.25-3.35.54-3.35,2.12,0,1.03.52,1.42,1.48,1.42.65,0,1.87-.5,1.87-1.46v-2.09Z" fill="#6d5560"/><path d="M174.61,118.56c-1.34,0-2-.58-2-1.76,0-1,.35-2.13,4.52-2.83v-1.34c0-.91-.72-1.52-1.8-1.52-.83,0-1.52.08-1.52,1.03,0,.14.03.28.06.41.03.12.05.23.05.32,0,.2-.05.39-.45.39-.31,0-.9-.27-.9-.65,0-.41.25-.88.64-1.26.57-.54,1.38-.83,2.32-.83.04,0,.08,0,.12,0,.68,0,2.89.14,2.89,1.91v3.73c0,.08,0,.16,0,.24-.01.42-.03.94.23,1.2.12.12.28.18.5.18.03,0,.09,0,.14-.02.06,0,.12-.02.16-.02.09,0,.29,0,.29.18,0,.5-1.08.5-1.1.5-.68,0-1.17-.31-1.43-.89-.78.64-1.77,1.01-2.73,1.01ZM175.33,111c1.14,0,1.91.65,1.91,1.62v1.43h-.04c-4.13.7-4.48,1.78-4.48,2.75,0,1.13.6,1.66,1.89,1.66.96,0,1.96-.38,2.72-1.03l.06-.05.03.07c.23.59.69.89,1.36.89.32,0,.99-.1.99-.4,0-.06-.04-.07-.18-.07-.03,0-.09,0-.15.02-.06,0-.12.02-.16.02-.24,0-.44-.07-.57-.21-.29-.3-.27-.84-.26-1.27,0-.08,0-.17,0-.24v-3.73c0-1.67-2.14-1.8-2.79-1.8-.95-.02-1.8.26-2.37.8-.37.35-.6.8-.61,1.18,0,.28.5.54.8.54.32,0,.35-.13.35-.29,0-.09-.02-.19-.05-.3-.03-.13-.06-.28-.06-.44,0-1.04.77-1.13,1.62-1.13ZM175.31,118.03c-1.04,0-1.53-.47-1.53-1.47,0-1.48,1.83-1.86,3.05-2.1.12-.02.24-.05.34-.07h.06s0,2.14,0,2.14c0,.99-1.25,1.51-1.92,1.51ZM177.13,114.5c-.09.02-.18.04-.28.06-1.18.24-2.96.61-2.96,2,0,.95.44,1.37,1.43,1.37.64,0,1.82-.48,1.82-1.41v-2.02Z" fill="#6d5560"/><path d="M182.6,116.8c0,1.67,1.6.81,1.6,1.39,0,.16-.09.2-.29.2-.25,0-.68-.07-1.69-.07-1.21,0-1.53.07-1.66.07-.14,0-.2-.05-.2-.16,0-.38.92-.31.92-1.05v-4.64c0-1.08-1.3-.61-1.3-.99,0-.11.14-.18.23-.2,1.39-.32,1.75-.9,2.16-.9.11,0,.22.11.22.29v1.35h.04c.38-.52,1.03-1.5,1.78-1.5.38,0,1.19.47,1.19.81,0,.27-.43.81-.65.81-.34,0-.54-.41-1.19-.41-.74,0-1.17.83-1.17,1.06v3.94Z" fill="#6d5560"/><path d="M183.91,118.43c-.09,0-.19,0-.33-.02-.28-.02-.69-.05-1.36-.05-.91,0-1.32.04-1.51.06-.07,0-.11.01-.14.01-.17,0-.25-.07-.25-.21,0-.19.18-.28.37-.38.25-.13.54-.27.54-.67v-4.64c0-.63-.47-.7-.85-.75-.24-.03-.45-.06-.45-.25,0-.14.17-.23.28-.25.81-.19,1.26-.46,1.59-.66.23-.14.4-.24.58-.24.13,0,.27.12.27.34v1.24l.02-.02c.4-.56,1.01-1.41,1.75-1.41.4,0,1.24.48,1.24.86,0,.3-.46.86-.7.86-.16,0-.29-.08-.43-.17-.19-.12-.4-.25-.76-.25-.7,0-1.12.8-1.12,1.01v3.94c0,1.01.59,1.05,1.06,1.09.28.02.54.04.54.3,0,.23-.18.25-.34.25ZM182.22,118.26c.67,0,1.09.03,1.37.05.48.04.56.03.56-.13,0-.16-.15-.18-.45-.2-.46-.03-1.15-.09-1.15-1.19v-3.94c0-.24.44-1.11,1.22-1.11.39,0,.63.15.82.26.14.08.24.15.37.15.17,0,.6-.5.6-.76,0-.29-.77-.76-1.14-.76-.68,0-1.3.86-1.67,1.37l-.09.12h-.11v-1.4c0-.15-.08-.24-.17-.24-.16,0-.31.1-.53.23-.33.2-.79.48-1.62.67-.08.02-.19.08-.19.15,0,.09.14.11.36.14.37.05.94.12.94.85v4.64c0,.46-.33.63-.6.76-.2.1-.32.16-.32.28,0,.06.01.11.15.11.03,0,.07,0,.13-.01.2-.02.61-.06,1.52-.06Z" fill="#6d5560"/><path d="M185.96,114.69c0-2.25,1.78-4.11,4.05-4.11.9,0,2.12.25,2.18.67.04.4.02.83.02,1.06,0,.25-.05.38-.14.38-.18,0-.38-.34-.43-.41-.61-.83-1.4-1.1-2.23-1.1-1.53,0-2.12,1.58-2.12,2.88,0,1.94,1.15,3.55,3.19,3.55,1.4,0,2.2-1.04,2.47-1.04.05,0,.14.05.14.11,0,.29-1.08,1.84-3.55,1.84-2.07,0-3.57-1.82-3.57-3.82Z" fill="#6d5560"/><path d="M189.53,118.56c-1.99,0-3.62-1.74-3.62-3.87,0-2.29,1.84-4.16,4.1-4.16.9,0,2.17.25,2.23.71.03.31.02.65.02.89,0,.07,0,.13,0,.18,0,.36-.11.43-.2.43-.18,0-.35-.25-.44-.39-.01-.02-.02-.04-.03-.05-.54-.72-1.25-1.08-2.19-1.08-1.42,0-2.07,1.47-2.07,2.83,0,1.74.97,3.5,3.14,3.5.96,0,1.64-.5,2.04-.8.2-.15.33-.24.43-.24.08,0,.2.07.2.16,0,.27-1.04,1.89-3.6,1.89ZM190.01,110.63c-2.21,0-4,1.82-4,4.05,0,2.08,1.58,3.77,3.51,3.77,2.44,0,3.5-1.54,3.5-1.79,0-.02-.06-.06-.09-.06-.07,0-.2.1-.36.22-.42.31-1.11.82-2.1.82-1.94,0-3.24-1.45-3.24-3.6,0-1.41.68-2.93,2.18-2.93.97,0,1.72.37,2.27,1.12,0,.01.02.03.03.05.07.1.23.34.36.34.05,0,.09-.1.09-.33,0-.05,0-.11,0-.18,0-.24,0-.57-.02-.88-.05-.35-1.18-.62-2.13-.62Z" fill="#6d5560"/><path d="M196.01,111.86c.68-.65,1.57-1.28,2.59-1.28,2.3,0,3.01,2,3.01,3.55v3.01c0,.94,1.44.56,1.44,1.01,0,.2-.16.23-.36.23-.32,0-.83-.07-1.51-.07s-1.28.07-1.48.07c-.18,0-.29-.05-.29-.2,0-.27.88-.27.88-.92v-3.29c0-2.23-1.55-2.65-2.18-2.65-.81,0-2.11.7-2.11,1.62v3.8c0,1.55,1.58,1.04,1.58,1.39,0,.22-.09.25-.31.25-.38,0-1.28-.07-1.84-.07s-1.35.07-1.64.07c-.13,0-.18-.09-.18-.18,0-.36,1.06-.16,1.06-1.04v-10.17c0-1.08-1.39-.61-1.39-.99,0-.11.05-.18.14-.2,1.31-.25,1.93-.9,2.34-.9.11,0,.22.11.22.29v6.68Z" fill="#6d5560"/><path d="M202.69,118.43c-.13,0-.3-.01-.49-.03-.28-.02-.62-.05-1.02-.05-.46,0-.87.03-1.14.05-.15.01-.27.02-.34.02-.28,0-.34-.14-.34-.25,0-.14.15-.21.33-.3.26-.12.55-.26.55-.62v-3.29c0-2.57-2.04-2.6-2.13-2.6-.81,0-2.06.7-2.06,1.57v3.8c0,1.01.7,1.11,1.16,1.17.24.03.43.06.43.21,0,.25-.13.3-.36.3-.17,0-.46-.01-.75-.03-.36-.02-.78-.04-1.08-.04-.32,0-.73.02-1.06.04-.24.01-.45.03-.57.03-.16,0-.23-.12-.23-.23,0-.18.19-.24.39-.31.31-.11.67-.23.67-.73v-10.17c0-.63-.5-.7-.91-.75-.26-.03-.48-.06-.48-.25,0-.13.07-.23.19-.25.77-.15,1.29-.43,1.68-.64.28-.15.49-.26.67-.26.13,0,.27.13.27.34v6.56c.89-.81,1.72-1.21,2.54-1.21,1.06,0,1.87.41,2.41,1.22.56.84.65,1.85.65,2.38v3.01c0,.51.46.6.87.67.29.05.57.11.57.33,0,.29-.29.29-.41.29ZM201.18,118.26c.41,0,.75.03,1.03.05.19.01.35.03.48.03.26,0,.31-.07.31-.18,0-.13-.18-.18-.49-.23-.4-.08-.96-.18-.96-.77v-3.01c0-2.58-1.53-3.5-2.96-3.5-.82,0-1.66.41-2.56,1.26l-.09.08v-6.8c0-.15-.08-.24-.16-.24-.16,0-.36.11-.62.25-.39.21-.93.5-1.71.65-.09.02-.1.1-.1.15,0,.09.15.11.39.14.4.05,1,.12,1,.85v10.17c0,.58-.43.72-.74.83-.2.07-.32.12-.32.21,0,.03,0,.13.13.13s.33-.01.57-.03c.33-.02.74-.04,1.07-.04.31,0,.72.02,1.09.04.3.02.58.03.75.03.21,0,.25-.03.25-.2,0-.06-.16-.09-.34-.11-.47-.07-1.25-.18-1.25-1.27v-3.8c0-.95,1.31-1.67,2.16-1.67.09,0,2.23.03,2.23,2.7v3.29c0,.43-.35.59-.61.72-.15.07-.27.13-.27.2s.03.15.24.15c.07,0,.18,0,.33-.02.27-.02.69-.05,1.15-.05Z" fill="#6d5560"/></g></g></svg>