<?xml version="1.0" encoding="UTF-8"?><svg id="artwork" xmlns="http://www.w3.org/2000/svg" viewBox="0 0 217.04 113.28"><defs><style>.cls-1{fill:#231f20;}.cls-2{fill:#d65f00;}.cls-3{fill:#7a6569;}.cls-4{fill:#fff;}.cls-5{fill:#fbceb0;}.cls-6{fill:#bc4700;}</style></defs><g id="_x3C_PMS_x3E_"><g id="_x3C_Shield_x3E_"><path class="cls-6" d="M.05,20.52h50.32v-7.67h-6.3v-2.48h-1.48s-3.26.13-5.71-1.32c-2.42-1.43-2.87-2.8-2.88-2.8v-1.99h-3.23c-.55-2.43-2.73-4.25-5.33-4.25s-4.78,1.82-5.33,4.25h-3.29v1.99s-.46,1.37-2.88,2.8c-2.45,1.45-5.71,1.32-5.71,1.32h-1.93v2.48H0v7.64"/><path class="cls-6" d="M.04,37.05c.07,3.69.61,7.33,1.54,10.9,1.75,6.72,4.97,12.58,10.11,17.32,3.97,3.65,8.53,6.43,13.21,9.05.14.08.4.05.55-.03,3.25-1.8,6.41-3.74,9.42-5.93,6.41-4.66,10.87-10.73,13.25-18.31,1.67-5.3,2.22-10.76,2.26-16.28.02-2.89.02-7.93.02-10.82H.02c0,3.98-.06,10.12.02,14.1M21.54,40.46l3.66-11.27,3.66,11.27h11.85l-9.58,6.96,3.66,11.27-9.58-6.96-9.58,6.96,3.66-11.26-9.58-6.96h11.85Z"/><path class="cls-2" d="M25.34,20.53L25.49.03c-2.6,0-4.78,1.82-5.33,4.25h-3.29v1.99s-.46,1.37-2.88,2.8c-2.45,1.45-5.71,1.32-5.71,1.32h-1.93v2.48H.05v7.64h25.29Z"/><path class="cls-2" d="M25.23,51.74l-9.58,6.96,3.66-11.26-9.58-6.96h11.85l3.66-11.27-.04-6.24H.05c0,3.98-.06,10.12.02,14.1.07,3.69.61,7.33,1.54,10.9,1.75,6.72,4.97,12.58,10.11,17.32,3.97,3.65,8.54,6.43,13.21,9.05.14.08.26.03.26.03l.04-22.63Z"/><polygon class="cls-4" points="40.74 40.46 28.89 40.46 25.23 29.19 21.57 40.46 9.73 40.46 19.31 47.42 15.65 58.69 25.23 51.72 34.82 58.69 31.16 47.42 40.74 40.46"/><polygon class="cls-5" points="25.23 29.19 28.89 40.46 40.74 40.46 31.16 47.42 34.82 58.69 25.23 51.72 25.23 29.19"/></g><path class="cls-1" d="M31.58,71.77c.21,0,.42.05.62.16.2.11.36.26.47.47.11.2.17.41.17.63s-.06.43-.17.63c-.11.2-.27.36-.47.47-.2.11-.41.17-.63.17s-.43-.06-.63-.17c-.2-.11-.36-.27-.47-.47-.11-.2-.17-.41-.17-.63s.06-.43.17-.63c.11-.2.27-.36.47-.47.2-.11.41-.16.62-.16ZM31.58,71.97c-.18,0-.35.05-.52.14-.17.09-.3.22-.39.39-.09.17-.14.34-.14.53s.05.36.14.52c.09.17.22.3.39.39.17.09.34.14.52.14s.36-.05.52-.14c.17-.09.3-.22.39-.39.09-.17.14-.34.14-.52s-.05-.36-.14-.53c-.09-.17-.23-.3-.39-.39-.17-.09-.34-.14-.52-.14ZM31.03,73.72v-1.35h.47c.16,0,.27.01.35.04.07.03.13.07.17.13.04.06.06.13.06.2,0,.1-.04.19-.11.26-.07.07-.16.11-.28.12.05.02.09.04.11.07.05.05.12.14.2.27l.17.27h-.27l-.12-.21c-.09-.17-.17-.27-.23-.32-.04-.03-.1-.05-.17-.05h-.13v.58h-.22ZM31.25,72.96h.27c.13,0,.21-.02.26-.06s.07-.09.07-.15c0-.04-.01-.08-.03-.11-.02-.03-.05-.06-.09-.07-.04-.02-.11-.02-.22-.02h-.25v.41Z"/><path class="cls-1" d="M80.36,44.73c1.4-1.89,2.11-4.61,2.11-8.1v-9.46c0-1.57.11-2.65.34-3.2.22-.54.7-.97,1.44-1.27.32-.13.48-.32.48-.56,0-.29-.18-.46-.48-.46-.12,0-.4.02-.85.06-.33.04-1.21.06-2.62.06-.66,0-1.24-.04-1.71-.11-.55-.09-.95-.14-1.23-.15-.16,0-.28.03-.37.11-.09.09-.14.22-.14.4,0,.21.12.48.67.53,1.05.1,1.8.49,2.24,1.18.44.7.67,1.84.67,3.4v9.89c0,3.3-.75,5.8-2.23,7.43-1.47,1.63-3.73,2.45-6.72,2.45-3.34,0-5.74-.99-7.15-2.93-1-1.37-1.51-3.71-1.51-6.96v-9.63l-.04-1.26c0-1.21.12-2.05.36-2.51.23-.44.7-.75,1.39-.9.47-.09.71-.28.71-.59,0-.16-.07-.42-.56-.42-.18,0-.51.02-.99.06-.57.05-.91.08-1.06.08h-1.45l-1.47.02c-.27,0-.69-.02-1.27-.06-.56-.02-1.01-.04-1.32-.04-.7,0-.85.31-.85.57,0,.19.11.44.62.51,1.09.16,1.83.49,2.18.97.36.49.54,1.42.54,2.75l.04,1.09v9.71c0,2.67.46,4.87,1.37,6.54.81,1.46,2.11,2.62,3.86,3.47,1.74.85,3.73,1.27,5.9,1.27,1.87,0,3.65-.36,5.29-1.07,1.65-.71,2.94-1.68,3.82-2.88"/><path class="cls-1" d="M95.65,24.08c.59,0,.78.1.84.16.06.06.16.24.16.8l.02.49v18.97c0,1.04-.16,1.76-.49,2.15-.32.39-.96.65-1.91.77-.49.06-.74.22-.74.49,0,.2.09.53.7.53.13,0,.56-.04,1.3-.11.36-.04.82-.06,1.35-.06l1.49-.02,1.4.02c.9,0,1.47.02,1.7.06.48.08.8.12.96.12.57,0,.66-.33.66-.53,0-.28-.26-.46-.77-.55-1.56-.27-2.34-1.1-2.4-2.54l-.02-.74v-18.76c0-.74.12-.97.19-1.05.07-.07.29-.19.97-.19h5.37c1.04,0,1.74.13,2.09.39h0c.34.25.6.82.76,1.69.09.47.27.71.59.69.24-.02.53-.17.51-.74-.01-.2-.05-.51-.12-.95-.06-.33-.09-.88-.09-1.61,0-1.05-.14-1.32-.25-1.44-.18-.18-.61-.27-1.36-.27h-20.58c-.48,0-.79.11-.95.33-.15.21-.22.61-.22,1.22,0,.58-.1,1.34-.28,2.24-.16.72-.23,1.21-.23,1.49,0,.53.29.63.46.64.46.02.59-.61.64-.82.25-1.12.6-1.88,1.04-2.28.44-.39,1.17-.59,2.16-.59h5.06Z"/><path class="cls-1" d="M139.62,48.35c.38-.04.68-.06.91-.06l1.43-.04,1.42.02c.96,0,1.59.03,1.89.07.82.13,1.33.16,1.55-.08.09-.1.13-.23.12-.4-.02-.26-.26-.43-.72-.49-1.04-.11-1.75-.42-2.11-.91-.37-.5-.55-1.43-.55-2.76v-18.48c0-.61.13-1.16.39-1.63.25-.45.55-.72.91-.79l.78-.17c.46-.1.56-.33.56-.51s-.08-.49-.58-.49c-.13,0-.37.03-.72.08-.54.07-1.49.11-2.85.11-.94,0-1.83-.04-2.66-.13-.6-.06-1.04-.1-1.31-.1-.5,0-.59.27-.6.43-.01.2.09.46.65.57.87.2,1.47.56,1.79,1.08.32.53.49,1.45.49,2.74v6.54c0,.31-.06.51-.17.59-.09.06-.34.13-1,.13h-11.27c-1.03,0-1.27-.12-1.32-.18h0c-.07-.07-.18-.31-.18-1.22v-6.85c0-.92.14-1.57.42-1.95.27-.38.83-.67,1.65-.88.4-.1.61-.29.61-.55,0-.19-.09-.51-.68-.51-.2,0-.46.03-.82.08-.78.1-1.63.15-2.53.15-1.33,0-2.5-.06-3.48-.17-.52-.06-.91-.1-1.16-.12-.22,0-.38.04-.49.14-.09.09-.13.2-.13.35,0,.2.11.46.66.53,1.05.16,1.78.48,2.18.95.4.47.6,1.26.6,2.33v16.43c0,1.77-.1,3.02-.3,3.72-.19.68-.54,1.06-1.06,1.18l-.95.23c-.49.11-.59.37-.59.57,0,.18.08.48.6.48.14,0,.54-.03,1.21-.09.48-.04.88-.06,1.2-.06l1.26-.04,1.61.02c1.17,0,1.94.03,2.28.09.47.06.78.09.95.09.26,0,.45-.06.56-.18.08-.09.12-.2.12-.34-.02-.34-.3-.54-.83-.6-1.11-.12-1.87-.44-2.27-.95-.4-.51-.6-1.42-.6-2.71v-7.01c0-.7.12-.94.22-1.02.11-.09.42-.19,1.28-.19h11.26c.86,0,1.03.09,1.07.12.03.03.13.18.13.96v7.02l-.02.75c0,1.9-.62,2.93-1.9,3.15-.48.07-.74.26-.75.54,0,.15.03.27.12.36.09.09.23.14.42.14.01,0,.03,0,.05,0,.09,0,.5-.03,1.33-.1"/><path class="cls-1" d="M196.01,46.14l-.17.05-1,.48c-.51.27-1.16.41-1.91.41-.93,0-1.65-.26-2.15-.78-.33-.34-.5-1.13-.5-2.34v-9.49h4.41c.47,0,.8-.21.95-.63l.44-1.09c.16-.36.18-.47.18-.52,0-.13-.02-.23-.09-.29-.06-.06-.14-.07-.24-.06-.11.02-.26.1-.47.25-.28.19-.7.29-1.23.29h-3.95l.07-3.18c0-.51-.21-.62-.39-.62-.14,0-.35.11-.83.9-.78,1.25-1.92,2.52-3.4,3.77-.36.31-.54.56-.54.78,0,.19.11.41.62.41h1.58v9.52c0,3.12,1.52,4.7,4.52,4.7.88,0,1.84-.25,2.86-.74,1.06-.51,1.58-.99,1.58-1.46,0-.21-.13-.33-.35-.33"/><path class="cls-1" d="M153.31,32.97c.97,0,1.88.42,2.71,1.24.83.83,1.25,1.73,1.25,2.69,0,.4-.76.49-1.39.49h-6.34c.17-1.35.59-2.43,1.25-3.21h0c.67-.8,1.51-1.21,2.52-1.21M160.34,44.57c-.11.02-.22.07-.34.16-1.61,1.23-3.11,1.85-4.46,1.85-1.71,0-3.18-.73-4.36-2.18-1.18-1.46-1.78-3.28-1.78-5.41v-.3h7.13l1.3.04,1.42.02c.91,0,1.37-.25,1.37-.75,0-.31-.16-.83-.49-1.6-.32-.74-.64-1.34-.95-1.78-1.29-1.8-3.04-2.71-5.2-2.71-1.98,0-3.72.85-5.19,2.53-1.46,1.68-2.21,3.66-2.21,5.89,0,2.35.72,4.35,2.14,5.94,1.43,1.6,3.21,2.41,5.32,2.41,1.87,0,3.66-.66,5.33-1.97.93-.73,1.38-1.29,1.38-1.71,0-.15-.04-.27-.12-.34-.07-.07-.16-.09-.29-.09"/><path class="cls-1" d="M184.92,47.23c-1.25-.21-2.02-.62-2.28-1.21-.23-.54-.35-1.34-.35-2.36v-22.43l.02-.59h0c0-.48-.06-.76-.2-.89-.06-.05-.12-.08-.19-.08-.13,0-.28.05-.47.18-.33.25-.95.55-1.83.9l-1.17.48c-.35.14-.74.26-1.18.36-.39.11-.59.29-.59.53,0,.14.05.32.32.43.1.03.22.04.36.04h0l.95-.04c.74,0,1.1.54,1.1,1.64v21.19c0,.58-.09,1-.27,1.26-.18.25-.55.46-1.09.61-.43.12-.64.32-.62.59,0,.18.1.49.64.49.05,0,.19-.01.74-.1.28-.04,1.03-.06,2.22-.06l2.66-.02c.37,0,.66.02.83.05.23.05.4.08.53.08.17,0,.31-.05.4-.14.09-.1.13-.24.13-.42-.02-.26-.24-.43-.66-.5"/><path class="cls-1" d="M166.76,41.86c1.03-.69,2.51-1.13,4.39-1.31v3.65c0,.92-.21,1.61-.63,2.02-.69.67-1.57,1.01-2.59,1.01-.84,0-1.51-.25-1.99-.73-.49-.49-.73-1.16-.73-1.99,0-1.07.52-1.96,1.56-2.65M176.7,46.96c-.09,0-.24.03-.48.08-.1.02-.25.03-.44.03-.63,0-1.07-.23-1.34-.69-.27-.48-.41-1.31-.41-2.47v-7.48c0-1.43-.5-2.56-1.48-3.35-.97-.78-2.36-1.18-4.11-1.18-1.92,0-3.49.63-4.66,1.88-.87.93-1.31,1.82-1.31,2.63,0,.35.27.67.8.95.5.26,1.07.4,1.68.4.18,0,.31-.05.4-.14.08-.08.11-.19.1-.33-.01-.19-.06-.4-.14-.63-.16-.53-.24-1-.24-1.4,0-1.35.79-2,2.4-2,1.21,0,2.18.37,2.89,1.1.52.53.79,1.52.79,2.94v2.25c-3.13.48-5.38,1.14-6.71,1.94-1.37.83-2.06,2.01-2.06,3.52,0,1.11.37,2.01,1.1,2.68.73.66,1.71,1,2.93,1,1.57,0,3.28-.69,5.1-2.05.85,1.26,1.81,1.9,2.87,1.9.57,0,1.17-.12,1.77-.36.65-.26.96-.52.98-.8,0-.13-.02-.22-.09-.3-.08-.08-.19-.11-.33-.1"/><path class="cls-1" d="M215.48,47.44c-1-.16-1.66-.41-1.95-.74-.3-.33-.45-.97-.45-1.91v-6.06c0-2.02-.57-3.68-1.7-4.94-1.13-1.26-2.63-1.89-4.45-1.89s-3.64.95-5.24,2.82v-12.77c0-.42,0-.75.02-.96.03-.23.04-.39.04-.47,0-.47-.28-.54-.45-.54-.13,0-.29.04-.45.13l-1.5.71c-.97.47-1.87.8-2.66.99-.35.09-.53.27-.53.51,0,.2.11.31.2.36.09.05.2.07.33.07h0l.97-.06c.26-.02.48.05.65.22.33.31.5.96.5,1.93v19.9c0,1.33-.13,1.83-.24,2.02-.16.26-.6.51-1.31.73-.46.13-.54.39-.53.59.01.15.1.41.6.41.17,0,.46-.02.89-.05.94-.07,1.68-.1,2.19-.1,1.47,0,2.45.02,2.9.07.58.06.92.09,1.07.09.47,0,.54-.27.54-.44,0-.32-.25-.51-.76-.59-1.1-.15-1.79-.4-2.06-.76-.28-.36-.41-1.18-.41-2.45v-7.41c0-.79.42-1.51,1.25-2.15.84-.65,1.79-.98,2.82-.98,1.34,0,2.43.46,3.23,1.38.8.92,1.21,2.18,1.21,3.76v6.33l-.02.59c0,.67-.11.96-.2,1.08-.1.12-.37.33-1.15.62-.32.13-.48.3-.46.51,0,.17.11.47.66.47.09,0,.29-.02.61-.05.52-.07,1.36-.1,2.47-.1.67,0,1.49.03,2.42.09.47.04.79.06.95.06.55,0,.64-.29.64-.47,0-.2-.11-.46-.62-.54"/><path class="cls-1" d="M64.59,63.29c-1.17-.39-1.91-.66-2.21-.81-.29-.15-.57-.38-.82-.7-.28-.37-.43-.81-.43-1.32,0-.57.22-1.06.66-1.44.44-.39.99-.58,1.65-.58.83,0,1.59.22,2.26.65.67.43,1.12.98,1.34,1.64.11.33.22.48.35.48.11,0,.25-.06.25-.34,0-.05-.02-.17-.05-.39l-.15-.96c-.08-.52-.12-.83-.12-.93,0-.22-.04-.37-.12-.45-.04-.04-.09-.06-.15-.06-.07,0-.12.02-.14.05l-.13.11c-.11.1-.23.1-.34.05l-.64-.27c-.46-.19-1.04-.29-1.71-.29-1.19,0-2.17.32-2.93.96-.76.64-1.14,1.48-1.14,2.5,0,.91.29,1.66.87,2.23.58.57,1.57,1.09,2.95,1.56,1.32.44,2.13.79,2.4,1.03.53.46.8,1.04.8,1.71s-.29,1.31-.87,1.8c-.58.49-1.3.74-2.14.74s-1.61-.26-2.31-.78c-.71-.51-1.18-1.16-1.39-1.92-.1-.32-.21-.49-.35-.49-.06,0-.12.01-.16.05-.06.05-.08.14-.08.27,0,.24.08.65.24,1.21.14.52.22.8.23.85.07.35.13.57.17.66.04.09.12.18.24.26.27.18.7.35,1.28.48.58.14,1.11.21,1.59.21,1.33,0,2.44-.38,3.29-1.12.85-.75,1.28-1.72,1.28-2.89,0-1.73-1.17-2.99-3.48-3.74"/><path class="cls-1" d="M71.45,67.72c.5-.34,1.23-.55,2.16-.64v1.79c0,.45-.1.79-.31.99-.34.33-.77.5-1.27.5-.41,0-.74-.12-.98-.36-.24-.24-.36-.57-.36-.98,0-.52.26-.96.77-1.3M76.31,70.23s-.12.01-.23.04c-.05.01-.12.02-.21.02-.31,0-.53-.11-.66-.34-.14-.24-.2-.64-.2-1.21v-3.65c0-.69-.24-1.24-.72-1.63-.47-.38-1.14-.57-2-.57-.94,0-1.7.31-2.26.92-.42.45-.64.88-.64,1.28,0,.17.13.32.38.45.24.13.52.19.81.19.08,0,.15-.02.19-.06.04-.04.05-.09.05-.16,0-.09-.03-.19-.07-.31-.08-.26-.12-.49-.12-.69,0-.66.39-.99,1.18-.99.59,0,1.07.18,1.42.54.26.26.39.74.39,1.44v1.11c-1.53.24-2.63.55-3.28.95-.66.4-1,.98-1,1.71,0,.54.18.98.53,1.3.35.32.83.48,1.42.48.77,0,1.6-.34,2.49-1,.41.62.88.93,1.4.93.28,0,.57-.06.86-.18.31-.13.46-.25.47-.38,0-.06-.01-.1-.04-.14-.03-.03-.09-.05-.16-.05"/><path class="cls-1" d="M86.47,70.4l-.39-.06c-.43-.07-.68-.29-.74-.67l-.03-.44v-.28s0-2.23,0-2.23c0-1.15-.2-2.02-.6-2.59-.59-.82-1.39-1.24-2.4-1.24-.88,0-1.73.47-2.54,1.4v-.92c0-.14,0-.25,0-.35,0-.13-.01-.21-.06-.27-.08-.08-.22-.07-.38.02-.05.03-.17.08-.36.18l-.49.24c-.38.18-.78.31-1.19.38-.19.04-.28.11-.28.23,0,.08.04.14.11.18.05.03.11.05.18.05h.4c.27,0,.46.06.56.21.1.15.15.44.15.87v4.21c0,.35-.05.6-.16.75-.1.15-.31.28-.62.39-.13.05-.2.13-.21.22,0,.06.01.11.04.15.04.04.09.06.17.06.06,0,.18-.01.38-.03.19-.03.78-.04,1.76-.04.47,0,.76,0,.87.02.21.04.37.05.48.05.23,0,.26-.14.26-.22,0-.14-.12-.23-.35-.25-.81-.05-1.22-.32-1.25-.81l-.02-.75v-3.56c0-.37.2-.71.58-1.01.39-.3.84-.45,1.35-.45.72,0,1.28.23,1.66.69.39.46.59,1.12.59,1.97v3.21c0,.36-.11.57-.34.62l-.28.07c-.17.04-.21.15-.21.23,0,.11.05.16.09.19l.15.04.27-.02h.36l.92-.03c.55,0,.93.01,1.13.04.18.02.3.03.37.03.14,0,.24-.03.3-.09.04-.04.06-.1.06-.16,0-.12-.11-.2-.3-.23"/><path class="cls-1" d="M141.92,70.42l-.43-.05c-.29-.04-.49-.13-.58-.27-.09-.14-.14-.43-.14-.86v-6.28c0-.21-.09-.27-.17-.27h-.01s-.51.24-.51.24c-.53.28-.98.48-1.32.59-.34.11-.5.21-.51.32,0,.04.01.08.04.11.06.06.17.09.36.09.31,0,.51.07.6.21.09.15.14.48.14.98v4.06c0,.36-.04.63-.11.79-.07.16-.2.26-.39.33l-.18.06c-.17.06-.2.17-.2.25,0,.1.05.22.3.22.07,0,.18,0,.35-.03.07-.01.17-.02.28-.03l.68-.04h.6c.27.01.49.02.65.03.31.03.51.04.61.04.24,0,.3-.11.3-.2,0-.16-.12-.25-.37-.29"/><path class="cls-1" d="M137.34,70.4l-.39-.06c-.43-.07-.68-.29-.74-.67l-.03-.44v-.28s0-2.23,0-2.23c0-1.15-.2-2.02-.6-2.59-.58-.82-1.39-1.24-2.4-1.24-.88,0-1.73.47-2.54,1.4v-.92c0-.14,0-.25,0-.35,0-.13-.01-.21-.06-.27-.08-.08-.22-.07-.38.02-.05.03-.17.08-.36.18l-.49.24c-.38.18-.78.31-1.19.38-.19.04-.28.11-.28.23,0,.08.04.14.11.18.05.03.11.05.18.05h.4c.27,0,.46.06.56.21.1.15.15.44.15.87v4.21c0,.35-.05.6-.16.75-.1.15-.31.28-.62.39-.13.05-.2.13-.21.22,0,.06.01.11.04.15.04.04.09.06.17.06.06,0,.18-.01.38-.03.19-.03.78-.04,1.76-.04.47,0,.76,0,.87.02.21.04.37.05.48.05.23,0,.26-.14.26-.22,0-.14-.12-.23-.35-.25-.81-.05-1.22-.32-1.25-.81l-.02-.75v-3.56c0-.37.2-.71.58-1.01.39-.3.84-.45,1.35-.45.72,0,1.28.23,1.66.69.39.46.59,1.12.59,1.97v3.21c0,.36-.11.57-.34.62l-.28.07c-.17.04-.21.15-.21.23,0,.11.05.16.09.19l.15.04.27-.02h.36l.92-.03c.55,0,.93.01,1.13.04.18.02.3.03.37.03.14,0,.24-.03.3-.09.04-.04.06-.1.05-.16,0-.12-.11-.2-.3-.23"/><path class="cls-1" d="M125.66,67.45c0,.95-.22,1.72-.66,2.27-.43.55-1.03.83-1.78.83-.86,0-1.59-.4-2.17-1.18-.58-.79-.88-1.78-.88-2.95,0-.92.24-1.67.7-2.23.46-.56,1.08-.84,1.84-.84.86,0,1.57.38,2.12,1.14.55.76.83,1.76.83,2.96M122.95,62.88c-1.16,0-2.16.4-2.97,1.2-.81.8-1.23,1.78-1.23,2.92s.39,2.15,1.16,2.91c.77.75,1.76,1.14,2.95,1.14s2.23-.39,3.03-1.17c.8-.78,1.2-1.77,1.2-2.96,0-1.09-.41-2.05-1.22-2.84-.81-.79-1.79-1.19-2.91-1.19"/><path class="cls-1" d="M140.15,59.03c-.14,0-.33.13-.57.4-.24.27-.35.47-.35.63s.11.36.32.62c.22.26.39.39.53.39s.33-.13.56-.4c.23-.27.34-.48.33-.63,0-.08-.03-.17-.1-.26l-.22-.36c-.17-.27-.33-.4-.5-.4"/><path class="cls-1" d="M97.85,64.77c0,.12-.14.18-.42.18h-3.07c-.38,0-.38-.16-.38-.2,0-.03.02-.11.12-.33l1.82-4.04c.06-.14.1-.15.1-.15.04,0,.11.04.2.28l1.54,3.88.05.17h0c.04.12.04.17.04.2M102.91,70.39c-.58-.1-.96-.24-1.15-.42-.19-.18-.43-.64-.72-1.39l-.2-.5-4.01-10.27c-.08-.2-.17-.3-.3-.3s-.22.1-.31.31l-4.79,10.65-.27.61c-.13.28-.31.56-.52.82-.25.32-.4.41-.48.44l-.35.1c-.13.04-.19.12-.19.25,0,.08.04.22.3.22.01,0,.05,0,.52-.05.1,0,.24-.01.41-.01.38,0,.73,0,1.03.02l.89.05c.14,0,.25.01.32.01.13,0,.22-.03.27-.08.03-.03.05-.08.04-.13,0-.13-.12-.22-.33-.26-.42-.09-.7-.2-.84-.33-.13-.12-.2-.32-.2-.6,0-.3.14-.76.41-1.38l.61-1.37c.23-.51.36-.68.43-.73.07-.05.27-.1.83-.1h3.37c.44,0,.57.04.61.07.04.03.13.16.29.57l.47,1.23c.38.97.57,1.63.57,1.95s-.14.53-.43.59l-.29.07c-.22.04-.27.15-.27.24s.04.24.29.24c.07,0,.17-.01.3-.04.21-.04.76-.05,1.61-.05s1.4.02,1.72.05c.19.01.3.02.36.02.25,0,.3-.11.31-.2,0-.14-.1-.24-.32-.28"/><path class="cls-1" d="M149.68,67.45c0,.95-.22,1.72-.66,2.27-.43.55-1.03.83-1.78.83-.86,0-1.59-.4-2.17-1.18-.58-.79-.88-1.78-.88-2.95,0-.92.24-1.67.7-2.23.46-.56,1.08-.84,1.84-.84.86,0,1.57.38,2.12,1.14.55.76.83,1.76.83,2.96M146.97,62.88c-1.16,0-2.16.4-2.97,1.2-.81.8-1.23,1.78-1.23,2.92s.39,2.15,1.16,2.91c.77.75,1.76,1.14,2.95,1.14s2.23-.39,3.03-1.17c.8-.78,1.2-1.77,1.2-2.96,0-1.09-.41-2.05-1.22-2.84-.81-.79-1.79-1.19-2.91-1.19"/><path class="cls-1" d="M112.59,70.4l-.39-.06c-.43-.07-.68-.29-.74-.67l-.03-.44v-.28s0-2.23,0-2.23c0-1.15-.2-2.02-.61-2.59-.59-.82-1.39-1.24-2.4-1.24-.88,0-1.73.47-2.54,1.4v-.92c0-.14,0-.25,0-.35,0-.13-.01-.21-.06-.27-.08-.08-.22-.07-.38.02-.05.03-.17.08-.36.18l-.49.24c-.38.18-.78.31-1.19.38-.19.04-.28.11-.28.23,0,.08.04.14.11.18.05.03.11.05.17.05h.4c.27,0,.46.06.56.21.1.15.15.44.15.87v4.21c0,.35-.05.6-.15.75-.1.15-.31.28-.62.39-.13.05-.2.13-.21.22,0,.06.01.11.04.15.04.04.09.06.17.06.06,0,.18-.01.38-.03.19-.03.78-.04,1.76-.04.47,0,.76,0,.87.02.21.04.37.05.48.05.23,0,.26-.14.26-.22,0-.14-.12-.23-.35-.25-.81-.05-1.22-.32-1.25-.81l-.02-.75v-3.56c0-.37.2-.71.58-1.01.39-.3.84-.45,1.35-.45.72,0,1.28.23,1.66.69.39.46.59,1.12.59,1.97v3.21c0,.36-.11.57-.34.62l-.28.07c-.17.04-.2.15-.2.23,0,.09.03.15.09.19l.15.04.27-.02h.36l.92-.03c.55,0,.93.01,1.13.04.18.02.3.03.37.03.14,0,.24-.03.3-.09.04-.04.06-.1.05-.16,0-.12-.11-.2-.3-.23"/><path class="cls-1" d="M118.45,69.83l-.08.02-.49.23c-.25.13-.57.2-.94.2-.46,0-.81-.13-1.06-.39-.16-.17-.25-.56-.25-1.15v-4.64h2.16c.23,0,.38-.1.46-.3l.21-.53c.08-.18.09-.23.09-.25,0-.06,0-.1-.04-.13-.03-.02-.07-.03-.11-.02-.05,0-.13.05-.23.12-.14.09-.35.14-.61.14h-1.94l.04-1.56c0-.24-.1-.29-.18-.29-.06,0-.16.05-.4.43-.38.61-.94,1.23-1.66,1.84-.18.15-.26.27-.26.37,0,.09.05.19.29.19h.78v4.65c0,1.51.74,2.28,2.19,2.28.43,0,.9-.12,1.39-.36.51-.25.76-.48.76-.7,0-.1-.06-.15-.16-.15"/><rect class="cls-6" x="60.09" y="77.62" width="152.93" height="1"/><g id="_x3C_CCMHE_x3E_"><path class="cls-3" d="M65.24,85.37c2.82,0,3.6,1.15,4.03,1.15.12,0,.21-.15.36-.15.17,0,.17.24.21,1.21.03.79.17,1.29-.09,1.29-.18,0-.29-.39-.34-.5-.93-1.6-2-2.58-3.93-2.58-2.92,0-4.33,1.95-4.33,4.74,0,2.61,1.5,5.22,4.38,5.22,2.35,0,3.83-1.5,4.05-2.19.03-.1.12-.2.21-.2.08,0,.15.09.14.17l-.35,1.5c-.01.06-1.08,1.19-4.45,1.19-3.07,0-5.28-2.11-5.28-5.22s2.23-5.64,5.4-5.64Z"/><path class="cls-3" d="M65.12,96.28c-3.14,0-5.33-2.17-5.33-5.27s2.34-5.69,5.45-5.69c2.04,0,3.04.61,3.57.94.21.13.35.22.46.22.04,0,.08-.03.13-.06.06-.04.13-.09.23-.09.2,0,.21.21.25,1.09v.17c.02.21.03.4.05.57.03.38.05.61-.05.72-.03.04-.08.05-.13.05-.17,0-.27-.24-.34-.42-.02-.04-.03-.08-.05-.11-1.05-1.81-2.18-2.55-3.89-2.55-2.72,0-4.28,1.71-4.28,4.69,0,2.57,1.49,5.17,4.33,5.17,2.35,0,3.79-1.52,4-2.15.04-.13.15-.23.26-.23.05,0,.1.03.14.07.04.05.05.1.04.15l-.35,1.5s-.94,1.22-4.5,1.22ZM65.24,85.42c-3.05,0-5.35,2.4-5.35,5.59s2.15,5.17,5.23,5.17c3.41,0,4.4-1.14,4.41-1.15l.34-1.49s0-.04-.02-.07c-.02-.02-.04-.04-.06-.04-.06,0-.14.07-.16.16-.25.75-1.74,2.23-4.1,2.23-2.91,0-4.43-2.65-4.43-5.27,0-3.04,1.6-4.79,4.39-4.79,1.75,0,2.9.75,3.97,2.61.01.03.03.07.05.12.05.13.14.35.25.35.03,0,.05-.01.06-.02.07-.07.05-.32.02-.64-.01-.17-.03-.36-.04-.58v-.17c-.04-.72-.05-.99-.16-.99-.06,0-.12.04-.17.07-.06.04-.12.08-.19.08-.14,0-.29-.09-.51-.23-.53-.32-1.51-.92-3.52-.92Z"/><path class="cls-3" d="M72.32,90.7c.57-.54,1.31-1.06,2.16-1.06,1.92,0,2.5,1.66,2.5,2.95v2.5c0,.78,1.2.47,1.2.84,0,.16-.13.19-.3.19-.27,0-.69-.06-1.26-.06s-1.06.06-1.23.06c-.15,0-.24-.04-.24-.17,0-.23.73-.23.73-.77v-2.74c0-1.86-1.29-2.21-1.81-2.21-.67,0-1.75.58-1.75,1.35v3.16c0,1.29,1.32.87,1.32,1.16,0,.18-.07.21-.25.21-.31,0-1.06-.06-1.53-.06s-1.12.06-1.37.06c-.1,0-.15-.08-.15-.15,0-.3.89-.14.89-.87v-8.47c0-.9-1.16-.51-1.16-.83,0-.09.04-.15.12-.17,1.1-.21,1.6-.75,1.95-.75.09,0,.18.09.18.24v5.56Z"/><path class="cls-3" d="M77.88,96.18c-.11,0-.25-.01-.41-.02-.23-.02-.52-.04-.85-.04-.38,0-.72.03-.95.04-.12,0-.22.02-.28.02-.24,0-.29-.12-.29-.22,0-.12.13-.18.28-.25.21-.1.46-.22.46-.51v-2.74c0-2.13-1.69-2.15-1.76-2.15-.67,0-1.7.58-1.7,1.3v3.16c0,.83.58.92.96.97.2.03.36.05.36.19,0,.24-.14.26-.31.26-.14,0-.38-.01-.63-.03-.3-.02-.65-.03-.9-.03-.27,0-.61.02-.89.04-.2.01-.38.02-.48.02-.14,0-.2-.1-.2-.2,0-.15.16-.21.33-.27.26-.09.55-.19.55-.6v-8.47c0-.52-.42-.57-.75-.61-.22-.03-.4-.05-.4-.21,0-.11.06-.19.16-.21.64-.12,1.08-.36,1.4-.53.24-.13.41-.22.56-.22.11,0,.23.11.23.29v5.45c.73-.67,1.42-1,2.11-1,1.89,0,2.56,1.62,2.56,3.01v2.5c0,.42.38.49.72.55.25.05.48.09.48.29,0,.25-.25.25-.35.25ZM76.62,96.02c.34,0,.63.02.86.04.16.01.29.02.4.02.21,0,.25-.06.25-.14,0-.1-.15-.14-.4-.19-.34-.06-.8-.15-.8-.65v-2.5c0-2.14-1.27-2.9-2.45-2.9-.68,0-1.38.34-2.13,1.05l-.09.08v-5.68c0-.12-.07-.19-.13-.19-.13,0-.3.09-.51.21-.33.18-.77.42-1.43.54-.07.01-.08.07-.08.12,0,.07.12.09.32.11.33.04.84.1.84.71v8.47c0,.48-.36.61-.62.7-.16.06-.26.09-.26.17,0,.02,0,.1.1.1.1,0,.27-.01.47-.02.28-.02.62-.04.89-.04.26,0,.6.02.91.03.25.01.48.03.62.03.17,0,.2-.03.2-.16,0-.05-.14-.07-.27-.09-.39-.06-1.04-.15-1.04-1.07v-3.16c0-.8,1.1-1.4,1.81-1.4.08,0,1.87.03,1.87,2.26v2.74c0,.36-.3.5-.51.6-.11.05-.22.1-.22.16,0,.04,0,.11.19.11.06,0,.15,0,.27-.02.23-.02.57-.04.96-.04Z"/><path class="cls-3" d="M79.35,92.27c0,2.48,1.5,3.21,2.42,3.21,1.29,0,1.78-.78,2.11-.78.06,0,.06.06.06.1,0,.34-1.3,1.42-2.65,1.42-2.25,0-3.03-2.08-3.03-3.07,0-1.92,1.06-3.52,2.94-3.52s2.65,1.78,2.65,2.38c0,.27-.17.25-.51.25h-3.99ZM82.31,91.87c.21,0,.3-.08.3-.3,0-.84-.84-1.59-1.67-1.59-.93,0-1.59,1.06-1.59,1.89h2.96Z"/><path class="cls-3" d="M81.29,96.28c-2.3,0-3.08-2.15-3.08-3.13,0-2.11,1.23-3.58,2.99-3.58,1.89,0,2.71,1.85,2.71,2.44,0,.1-.02.17-.07.22-.08.08-.2.08-.39.08h-4.04c.01,1.1.52,3.11,2.36,3.11.84,0,1.34-.34,1.67-.57.18-.12.31-.21.44-.21.11,0,.11.11.11.16,0,.39-1.35,1.48-2.71,1.48ZM81.2,89.68c-1.7,0-2.89,1.43-2.89,3.47,0,.95.75,3.02,2.98,3.02,1.34,0,2.6-1.07,2.6-1.37,0-.02,0-.05,0-.06-.1,0-.23.09-.39.2-.34.23-.86.58-1.73.58s-2.47-.68-2.47-3.26v-.05h4.09c.18,0,.31,0,.37-.05.03-.03.04-.08.04-.15,0-.56-.78-2.33-2.6-2.33ZM82.31,91.92h-3.01v-.05c0-.9.72-1.94,1.64-1.94s1.72.8,1.72,1.64c0,.25-.1.35-.35.35ZM79.4,91.82h2.9c.19,0,.25-.06.25-.25,0-.79-.78-1.54-1.61-1.54s-1.51.95-1.54,1.79Z"/><path class="cls-3" d="M85.65,92.27c0,2.48,1.5,3.21,2.42,3.21,1.29,0,1.78-.78,2.11-.78.06,0,.06.06.06.1,0,.34-1.3,1.42-2.65,1.42-2.25,0-3.03-2.08-3.03-3.07,0-1.92,1.06-3.52,2.94-3.52s2.65,1.78,2.65,2.38c0,.27-.17.25-.51.25h-3.99ZM88.61,91.87c.21,0,.3-.08.3-.3,0-.84-.84-1.59-1.67-1.59-.93,0-1.59,1.06-1.59,1.89h2.96Z"/><path class="cls-3" d="M87.59,96.28c-2.3,0-3.08-2.15-3.08-3.13,0-2.11,1.23-3.58,2.99-3.58,1.89,0,2.71,1.85,2.71,2.44,0,.1-.02.17-.07.22-.08.08-.2.08-.39.08h-4.04c.01,1.1.52,3.11,2.36,3.11.84,0,1.34-.34,1.67-.57.18-.12.31-.21.44-.21.11,0,.11.11.11.16,0,.39-1.35,1.48-2.71,1.48ZM87.5,89.68c-1.7,0-2.89,1.43-2.89,3.47,0,.95.75,3.02,2.98,3.02,1.34,0,2.6-1.07,2.6-1.37,0-.02,0-.05,0-.06-.1,0-.23.09-.39.2-.34.23-.86.58-1.73.58s-2.47-.68-2.47-3.26v-.05h4.09c.18,0,.31,0,.37-.05.03-.03.04-.08.04-.15,0-.56-.78-2.33-2.6-2.33ZM88.61,91.92h-3.01v-.05c0-.9.72-1.94,1.64-1.94s1.72.8,1.72,1.64c0,.25-.1.35-.35.35ZM85.71,91.82h2.9c.19,0,.25-.06.25-.25,0-.79-.78-1.54-1.61-1.54s-1.51.95-1.54,1.79Z"/><path class="cls-3" d="M94.06,94.85l1-2.16c.29-.6.66-1.23.66-1.9,0-.84-.93-.42-.93-.79,0-.18.17-.19.36-.19.31,0,.6.06.93.06.25,0,.52-.06.78-.06.15,0,.41.01.41.22,0,.2-.54.1-.75.56l-2.29,4.86c-.29.61-.29.79-.51.79-.19,0-.25-.25-.3-.36l-2.27-5.17c-.28-.68-.82-.45-.82-.72,0-.1.02-.18.31-.18s.29.06,1.27.06c.56,0,.75-.06.93-.06.21,0,.34,0,.34.16,0,.3-.85.11-.85.56,0,.04.08.29.25.73l1.47,3.6Z"/><path class="cls-3" d="M93.72,96.28c-.2,0-.28-.21-.33-.34,0-.02-.01-.04-.02-.05l-2.26-5.17c-.16-.38-.4-.46-.58-.52-.13-.04-.25-.08-.25-.23s.06-.23.37-.23c.1,0,.17,0,.25.02.16.02.38.04,1.02.04.35,0,.56-.02.71-.04.09,0,.16-.02.22-.02.21,0,.4,0,.4.22,0,.18-.21.22-.4.26-.27.05-.45.11-.45.3,0,.02.05.21.25.72l1.43,3.49.96-2.05c.05-.1.09-.19.14-.29.25-.51.51-1.04.51-1.6,0-.46-.28-.5-.56-.54-.18-.03-.37-.06-.37-.25,0-.25.26-.25.41-.25s.31.02.46.03c.15.01.31.03.47.03.12,0,.26-.02.38-.03.13-.02.27-.03.4-.03.11,0,.46,0,.46.28,0,.12-.12.16-.25.2-.17.06-.39.13-.5.37l-2.29,4.86c-.07.15-.12.28-.17.38-.13.31-.19.44-.39.44ZM90.64,89.85c-.26,0-.26.05-.26.13,0,.07.04.09.18.13.19.06.46.15.64.57l2.26,5.17s.01.04.02.06c.05.14.11.27.23.27.13,0,.16-.07.29-.38.04-.1.1-.23.17-.39l2.29-4.86c.13-.28.38-.37.56-.43.11-.04.18-.06.18-.11,0-.12-.11-.17-.35-.17-.12,0-.26.02-.38.03-.13.02-.27.03-.4.03-.17,0-.33-.02-.48-.03-.15-.01-.3-.03-.45-.03-.24,0-.31.03-.31.14,0,.1.08.12.29.15.27.04.65.1.65.65,0,.58-.27,1.12-.53,1.64-.05.1-.09.19-.14.29l-1.05,2.27-1.51-3.71c-.16-.4-.26-.69-.26-.75,0-.29.3-.35.53-.4.2-.04.32-.07.32-.16,0-.1-.06-.11-.29-.11-.06,0-.13,0-.21.02-.15.02-.36.04-.72.04-.65,0-.87-.02-1.03-.04-.08,0-.15-.02-.24-.02Z"/><path class="cls-3" d="M98.43,92.27c0,2.48,1.5,3.21,2.42,3.21,1.29,0,1.78-.78,2.11-.78.06,0,.06.06.06.1,0,.34-1.3,1.42-2.65,1.42-2.25,0-3.03-2.08-3.03-3.07,0-1.92,1.06-3.52,2.94-3.52s2.65,1.78,2.65,2.38c0,.27-.17.25-.51.25h-3.99ZM101.39,91.87c.21,0,.3-.08.3-.3,0-.84-.84-1.59-1.67-1.59-.93,0-1.59,1.06-1.59,1.89h2.96Z"/><path class="cls-3" d="M100.37,96.28c-2.3,0-3.08-2.15-3.08-3.13,0-2.11,1.23-3.58,2.99-3.58,1.89,0,2.71,1.85,2.71,2.44,0,.1-.02.17-.07.22-.08.08-.23.09-.44.08h-3.99c.01,1.1.52,3.11,2.36,3.11.84,0,1.34-.34,1.67-.57.18-.12.31-.21.44-.21.11,0,.11.11.11.16,0,.39-1.35,1.48-2.71,1.48ZM100.28,89.68c-1.7,0-2.89,1.43-2.89,3.47,0,.95.75,3.02,2.98,3.02,1.34,0,2.6-1.07,2.6-1.37,0-.02,0-.05,0-.06-.1,0-.23.09-.39.2-.34.23-.86.58-1.73.58s-2.47-.68-2.47-3.26v-.05h4.09c.18,0,.31,0,.37-.05.03-.03.04-.08.04-.15,0-.56-.78-2.33-2.6-2.33ZM101.39,91.92h-3.01v-.05c0-.9.72-1.94,1.64-1.94s1.72.8,1.72,1.64c0,.25-.1.35-.35.35ZM98.49,91.82h2.9c.19,0,.25-.06.25-.25,0-.79-.78-1.54-1.61-1.54s-1.51.95-1.54,1.79Z"/><path class="cls-3" d="M105.45,94.81c0,1.39,1.33.67,1.33,1.15,0,.13-.07.17-.24.17-.21,0-.57-.06-1.41-.06-1,0-1.27.06-1.38.06-.12,0-.17-.04-.17-.14,0-.31.77-.25.77-.87v-3.87c0-.9-1.08-.51-1.08-.82,0-.09.12-.15.2-.17,1.15-.27,1.45-.75,1.8-.75.09,0,.18.09.18.24v1.12h.03c.31-.44.85-1.24,1.48-1.24.31,0,.99.39.99.67,0,.23-.36.67-.54.67-.29,0-.45-.34-.99-.34-.61,0-.98.69-.98.88v3.29Z"/><path class="cls-3" d="M106.54,96.18c-.07,0-.16,0-.28-.02-.23-.02-.58-.04-1.13-.04-.76,0-1.1.03-1.26.05-.06,0-.09,0-.12,0-.14,0-.22-.06-.22-.19,0-.16.15-.24.32-.32.21-.1.45-.22.45-.55v-3.87c0-.52-.39-.57-.7-.61-.2-.03-.38-.05-.38-.21,0-.12.14-.2.24-.21.67-.16,1.04-.38,1.32-.55.19-.12.34-.2.49-.2.11,0,.23.11.23.29v1.01c.34-.47.85-1.18,1.46-1.18.33,0,1.04.41,1.04.73,0,.26-.38.73-.59.73-.13,0-.24-.07-.36-.14-.16-.1-.33-.21-.63-.21-.58,0-.92.66-.92.83v3.29c0,.83.49.87.88.9.24.02.46.03.46.26,0,.2-.15.22-.29.22ZM105.13,96.02c.56,0,.91.03,1.14.04.12,0,.2.02.27.02.17,0,.19-.03.19-.11,0-.12-.11-.14-.37-.16-.39-.03-.97-.07-.97-1v-3.29c0-.24.4-.94,1.03-.94.33,0,.52.12.68.22.11.07.2.12.31.12.14,0,.49-.42.49-.62,0-.24-.63-.62-.94-.62-.57,0-1.08.71-1.38,1.14l-.08.1h-.11v-1.18c0-.12-.07-.19-.13-.19-.13,0-.26.08-.44.19-.28.17-.66.4-1.35.56-.06.01-.16.06-.16.12,0,.07.11.09.29.11.31.04.79.1.79.71v3.87c0,.39-.28.53-.5.64-.16.08-.26.13-.26.23,0,.05,0,.08.11.08.02,0,.06,0,.11,0,.16-.02.51-.05,1.27-.05Z"/><path class="cls-3" d="M116.71,85.37c2.82,0,3.6,1.15,4.03,1.15.12,0,.21-.15.36-.15.17,0,.17.24.21,1.21.03.79.17,1.29-.09,1.29-.18,0-.29-.39-.34-.5-.93-1.6-2-2.58-3.93-2.58-2.92,0-4.33,1.95-4.33,4.74,0,2.61,1.5,5.22,4.38,5.22,2.35,0,3.83-1.5,4.05-2.19.03-.1.12-.2.21-.2.08,0,.15.09.14.17l-.35,1.5c-.01.06-1.08,1.19-4.45,1.19-3.07,0-5.28-2.11-5.28-5.22s2.23-5.64,5.4-5.64Z"/><path class="cls-3" d="M116.59,96.28c-3.14,0-5.33-2.17-5.33-5.27s2.34-5.69,5.45-5.69c2.04,0,3.04.61,3.57.94.21.13.35.22.46.22.04,0,.08-.03.13-.06.06-.04.13-.09.23-.09.2,0,.21.21.25,1.09v.17c.02.21.03.4.05.57.03.38.05.61-.05.72-.03.04-.08.05-.13.05-.17,0-.27-.24-.34-.42-.02-.04-.03-.08-.05-.11-1.05-1.81-2.18-2.55-3.89-2.55-2.72,0-4.28,1.71-4.28,4.69,0,2.57,1.49,5.17,4.33,5.17,2.35,0,3.79-1.52,4-2.15.04-.13.15-.23.26-.23.05,0,.1.03.14.07.04.05.05.1.04.15l-.35,1.5s-.94,1.22-4.5,1.22ZM116.71,85.42c-3.05,0-5.35,2.4-5.35,5.59s2.15,5.17,5.23,5.17c3.41,0,4.4-1.14,4.41-1.15l.34-1.49s0-.04-.02-.07c-.02-.02-.04-.04-.06-.04-.06,0-.14.07-.16.16-.25.75-1.74,2.23-4.1,2.23-2.91,0-4.43-2.65-4.43-5.27,0-3.04,1.6-4.79,4.39-4.79,1.75,0,2.9.75,3.97,2.61.01.03.03.07.05.12.05.13.14.35.25.35.03,0,.05-.01.06-.02.07-.07.05-.32.02-.64-.01-.17-.03-.36-.04-.58v-.17c-.04-.72-.05-.99-.16-.99-.06,0-.12.04-.17.07-.06.04-.12.08-.19.08-.14,0-.29-.09-.51-.23-.53-.32-1.51-.92-3.52-.92Z"/><path class="cls-3" d="M123.1,92.27c0,2.48,1.5,3.21,2.42,3.21,1.29,0,1.78-.78,2.11-.78.06,0,.06.06.06.1,0,.34-1.3,1.42-2.65,1.42-2.25,0-3.03-2.08-3.03-3.07,0-1.92,1.06-3.52,2.94-3.52s2.65,1.78,2.65,2.38c0,.27-.17.25-.51.25h-3.99ZM126.06,91.87c.21,0,.3-.08.3-.3,0-.84-.84-1.59-1.67-1.59-.93,0-1.59,1.06-1.59,1.89h2.96Z"/><path class="cls-3" d="M125.04,96.28c-2.3,0-3.08-2.15-3.08-3.13,0-2.11,1.23-3.58,2.99-3.58,1.89,0,2.71,1.85,2.71,2.44,0,.1-.02.17-.07.22-.08.08-.2.08-.39.08h-4.04c.01,1.1.52,3.11,2.36,3.11.84,0,1.34-.34,1.67-.57.18-.12.31-.21.44-.21.11,0,.11.11.11.16,0,.39-1.35,1.48-2.71,1.48ZM124.95,89.68c-1.7,0-2.89,1.43-2.89,3.47,0,.95.75,3.02,2.98,3.02,1.34,0,2.6-1.07,2.6-1.37,0-.02,0-.05,0-.06-.1,0-.23.09-.39.2-.34.23-.86.58-1.73.58s-2.47-.68-2.47-3.26v-.05h4.09c.18,0,.31,0,.37-.05.03-.03.04-.08.04-.15,0-.56-.78-2.33-2.6-2.33ZM126.06,91.92h-3.01v-.05c0-.9.72-1.94,1.64-1.94s1.72.8,1.72,1.64c0,.25-.1.35-.35.35ZM123.16,91.82h2.9c.19,0,.25-.06.25-.25,0-.79-.78-1.54-1.61-1.54s-1.51.95-1.54,1.79Z"/><path class="cls-3" d="M130.13,94.91c0,1.03,1.32.6,1.32,1,0,.18-.1.21-.33.21-.25,0-.55-.06-1.42-.06-.79,0-1.1.06-1.27.06-.2,0-.27-.03-.27-.18,0-.3.88,0,.88-.97v-3.72c0-.9-1.11-.51-1.11-.82,0-.09.06-.15.14-.17,1.24-.27,1.54-.75,1.89-.75.09,0,.18.09.18.24v.99c-.03.18.72-1.11,2.17-1.11,2.01,0,2.44,1.66,2.44,2.8v2.48c0,1.03,1.17.6,1.17,1,0,.18-.1.21-.25.21-.19,0-.57-.06-1.31-.06-.57,0-.88.06-1.08.06s-.27-.03-.27-.18c0-.3.65,0,.65-.97v-2.81c0-.75-.54-1.88-1.75-1.88s-1.79.93-1.77,1.17v3.45Z"/><path class="cls-3" d="M135.66,96.18c-.07,0-.16,0-.27-.02-.22-.02-.55-.04-1.03-.04-.36,0-.62.02-.8.04-.11.01-.2.02-.28.02-.17,0-.32-.02-.32-.23,0-.14.11-.18.22-.22.19-.07.42-.16.42-.75v-2.81c0-.74-.54-1.82-1.7-1.82-.77,0-1.22.36-1.42.57-.22.23-.31.46-.3.54v3.45c0,.59.45.67.84.73.25.04.48.08.48.28,0,.24-.18.26-.38.26-.09,0-.19,0-.31-.02-.23-.02-.55-.04-1.11-.04s-.84.03-1.05.04c-.1,0-.17.02-.23.02-.17,0-.32-.02-.32-.23,0-.15.14-.18.29-.23.26-.07.59-.16.59-.75v-3.72c0-.52-.4-.57-.72-.61-.2-.03-.39-.05-.39-.21,0-.11.07-.19.18-.21.74-.16,1.15-.4,1.42-.56.19-.11.33-.19.48-.19.11,0,.23.11.23.29v.9s.01-.01.02-.02c.27-.29.97-1.05,2.11-1.05,2.32,0,2.5,2.19,2.5,2.86v2.48c0,.59.39.67.74.73.22.04.43.08.43.28,0,.23-.15.26-.31.26ZM134.35,96.02c.49,0,.82.03,1.04.04.39.03.47.03.47-.14,0-.11-.12-.14-.34-.18-.35-.06-.83-.15-.83-.83v-2.48c0-2.49-1.67-2.75-2.39-2.75-1.09,0-1.77.74-2.03,1.01-.09.1-.12.13-.16.11-.01,0-.04-.02-.03-.07v-.98c0-.12-.07-.19-.13-.19-.12,0-.25.07-.43.18-.28.16-.69.41-1.45.57-.05,0-.1.04-.1.12s.11.09.3.11c.32.04.81.1.81.71v3.72c0,.67-.4.77-.66.85-.16.04-.22.07-.22.13,0,.1.02.13.22.13.06,0,.12,0,.22-.01.21-.02.51-.05,1.06-.05s.89.02,1.12.04c.12,0,.22.02.3.02.24,0,.28-.04.28-.16,0-.11-.15-.14-.39-.18-.39-.06-.93-.15-.93-.83v-3.45c0-.12.1-.38.33-.62.21-.23.69-.6,1.49-.6,1.23,0,1.81,1.15,1.81,1.93v2.81c0,.66-.29.77-.49.85-.11.04-.15.06-.15.13,0,.1.02.13.22.13.07,0,.16,0,.27-.02.19-.02.45-.04.81-.04Z"/><path class="cls-3" d="M136.7,90.44c-.71,0-.81,0-.81-.1,0-.12.38-.38,1.14-1.21.3-.36.45-.69.57-.69.21,0,.19.31.19,1.4h1.65c.38,0,.54-.25.58-.25.08,0,.1.07.1.12,0,.06-.04.13-.09.21l-.3.54h-1.95v4.37c.03.61.45.9,1.05.9.79,0,1.02-.35,1.27-.35.06,0,.12.02.12.14,0,.22-.81.73-1.86.73-.69,0-1.68-.19-1.68-1.74v-4.05Z"/><path class="cls-3" d="M138.38,96.28c-1.15,0-1.73-.6-1.73-1.79v-4c-.72,0-.81,0-.81-.16,0-.08.1-.18.33-.4.18-.18.46-.45.83-.85.12-.14.21-.28.29-.39.14-.2.22-.32.32-.32.16,0,.2.15.22.3.02.19.02.49.02.95v.15h1.6c.26,0,.41-.13.49-.2.04-.03.06-.05.09-.05.11,0,.16.1.16.17s-.05.15-.1.24l-.31.56h-1.93v4.31c.03.55.38.85,1,.85.5,0,.76-.14.96-.24.12-.06.21-.11.32-.11.11,0,.17.06.17.19,0,.26-.83.79-1.91.79ZM137.6,88.48s-.14.14-.24.27c-.08.11-.18.25-.29.4-.37.4-.65.67-.83.85-.17.16-.3.29-.3.33,0,.05.21.05.76.05h.05v4.1c0,1.14.53,1.69,1.63,1.69s1.81-.52,1.81-.68c0-.08-.03-.08-.07-.08-.08,0-.16.04-.27.1-.2.1-.48.25-1,.25-.67,0-1.07-.35-1.1-.95v-4.42h1.97l.29-.51c.04-.07.08-.14.08-.19,0-.01,0-.06-.05-.07,0,0-.02.02-.03.03-.08.07-.26.23-.56.23h-1.7v-.25c0-.45,0-.75-.02-.93-.03-.21-.08-.21-.12-.21Z"/><path class="cls-3" d="M141.49,92.27c0,2.48,1.5,3.21,2.42,3.21,1.29,0,1.78-.78,2.11-.78.06,0,.06.06.06.1,0,.34-1.3,1.42-2.65,1.42-2.25,0-3.03-2.08-3.03-3.07,0-1.92,1.06-3.52,2.94-3.52s2.65,1.78,2.65,2.38c0,.27-.17.25-.51.25h-3.99ZM144.45,91.87c.21,0,.3-.08.3-.3,0-.84-.84-1.59-1.67-1.59-.93,0-1.59,1.06-1.59,1.89h2.96Z"/><path class="cls-3" d="M143.43,96.28c-2.3,0-3.08-2.15-3.08-3.13,0-2.11,1.23-3.58,2.99-3.58,1.89,0,2.71,1.85,2.71,2.44,0,.1-.02.17-.07.22-.08.08-.2.08-.39.08h-4.04c.01,1.1.52,3.11,2.36,3.11.84,0,1.34-.34,1.67-.57.18-.12.31-.21.44-.21.11,0,.11.11.11.16,0,.39-1.35,1.48-2.71,1.48ZM143.34,89.68c-1.7,0-2.89,1.43-2.89,3.47,0,.95.75,3.02,2.98,3.02,1.34,0,2.6-1.07,2.6-1.37,0-.02,0-.05,0-.06-.1,0-.23.09-.39.2-.34.23-.86.58-1.73.58s-2.47-.68-2.47-3.26v-.05h4.09c.18,0,.31,0,.37-.05.03-.03.04-.08.04-.15,0-.56-.78-2.33-2.6-2.33ZM144.45,91.92h-3.01v-.05c0-.9.72-1.94,1.64-1.94s1.72.8,1.72,1.64c0,.25-.1.35-.35.35ZM141.54,91.82h2.9c.19,0,.25-.06.25-.25,0-.79-.78-1.54-1.61-1.54s-1.51.95-1.54,1.79Z"/><path class="cls-3" d="M148.51,94.81c0,1.39,1.33.67,1.33,1.15,0,.13-.07.17-.24.17-.21,0-.57-.06-1.41-.06-1,0-1.27.06-1.38.06-.12,0-.17-.04-.17-.14,0-.31.77-.25.77-.87v-3.87c0-.9-1.08-.51-1.08-.82,0-.09.12-.15.2-.17,1.15-.27,1.45-.75,1.8-.75.09,0,.18.09.18.24v1.12h.03c.31-.44.85-1.24,1.48-1.24.31,0,.99.39.99.67,0,.23-.36.67-.54.67-.29,0-.45-.34-.99-.34-.61,0-.98.69-.98.88v3.29Z"/><path class="cls-3" d="M149.6,96.18c-.07,0-.16,0-.28-.02-.23-.02-.58-.04-1.13-.04-.76,0-1.1.03-1.26.05-.06,0-.09,0-.12,0-.14,0-.22-.06-.22-.19,0-.16.15-.24.32-.32.21-.1.45-.22.45-.55v-3.87c0-.52-.39-.57-.7-.61-.2-.03-.38-.05-.38-.21,0-.12.14-.2.24-.21.67-.16,1.04-.38,1.32-.55.19-.12.34-.2.49-.2.11,0,.23.11.23.29v1.01c.34-.47.85-1.18,1.46-1.18.33,0,1.04.41,1.04.73,0,.26-.38.73-.59.73-.13,0-.24-.07-.36-.14-.16-.1-.33-.21-.63-.21-.58,0-.92.66-.92.83v3.29c0,.83.49.87.88.9.24.02.46.03.46.26,0,.2-.15.22-.29.22ZM148.19,96.02c.56,0,.91.03,1.14.04.12,0,.2.02.27.02.17,0,.19-.03.19-.11,0-.12-.11-.14-.37-.16-.39-.03-.97-.07-.97-1v-3.29c0-.24.4-.94,1.03-.94.33,0,.52.12.68.22.11.07.2.12.31.12.14,0,.49-.42.49-.62,0-.24-.63-.62-.94-.62-.57,0-1.08.71-1.38,1.14l-.08.1h-.11v-1.18c0-.12-.07-.19-.13-.19-.13,0-.26.08-.44.19-.28.17-.66.4-1.35.56-.06.01-.16.06-.16.12,0,.07.11.09.29.11.31.04.79.1.79.71v3.87c0,.39-.28.53-.5.64-.16.08-.26.13-.26.23,0,.05,0,.08.11.08.02,0,.06,0,.11,0,.16-.02.51-.05,1.27-.05Z"/><path class="cls-3" d="M155.21,89.83c0-1.11.29-2.21.89-3.17.34-.54,1.36-1.6,2.43-1.6.19,0,.62.06.62.32,0,.28-.06,1.06-.23,1.06-.21,0-.08-.63-1.02-.63-.79,0-1.33.85-1.47,1.54-.15.8-.12,1.67-.12,2.48h1.15c.38,0,.54-.25.58-.25.08,0,.1.07.1.12,0,.06-.04.13-.09.21l-.3.54h-1.45v4.56c0,.96,1.06.6,1.06.93,0,.18-.2.13-.31.13h-2.33c-.07,0-.24.03-.24-.09,0-.31.72-.14.72-.85v-4.68h-1.02l.09-.61h.93Z"/><path class="cls-3" d="M157.19,96.12s-.05,0-.08,0c-.02,0-.04,0-.06,0h-2.33s-.06,0-.09,0c-.06,0-.12,0-.16-.05-.02-.02-.04-.05-.04-.1,0-.16.14-.22.28-.28.21-.08.44-.18.44-.58v-4.63h-1.03l.1-.72h.92c0-1.14.32-2.22.89-3.14.4-.63,1.43-1.63,2.47-1.63.25,0,.67.08.67.37,0,.01,0,1.12-.28,1.12-.1,0-.14-.09-.19-.18-.09-.18-.22-.45-.83-.45-.73,0-1.28.77-1.42,1.5-.13.68-.12,1.41-.12,2.11,0,.1,0,.2,0,.3h1.1c.26,0,.41-.13.49-.2.04-.03.06-.05.09-.05.11,0,.16.1.16.17s-.05.15-.1.24l-.31.56h-1.43v4.51c0,.56.39.64.69.7.19.04.37.07.37.23,0,.06-.02.1-.05.14-.05.04-.11.05-.18.05ZM154.73,96.02h2.33s.04,0,.06,0c.07,0,.15,0,.18-.02,0,0,.02-.02.02-.06,0-.08-.11-.1-.29-.13-.31-.06-.78-.15-.78-.8v-4.61h1.48l.29-.51c.04-.07.08-.14.08-.19,0-.01,0-.06-.05-.07,0,0-.02.02-.03.03-.08.07-.26.23-.56.23h-1.21v-.05c0-.12,0-.23,0-.35,0-.71,0-1.45.12-2.13.15-.77.73-1.59,1.52-1.59.67,0,.83.32.92.51.04.09.06.12.1.12.08,0,.17-.56.17-1.01,0-.22-.41-.26-.56-.26-1.04,0-2.06,1.07-2.39,1.58-.57.92-.88,2-.88,3.14v.05h-.94l-.08.51h1.01v4.73c0,.47-.29.59-.5.67-.14.06-.22.09-.22.18,0,.02,0,.02,0,.02.02.02.09.02.14.02.02,0,.03,0,.04,0Z"/><path class="cls-3" d="M157.94,93.05c0-1.85,1.45-3.42,3.34-3.42,1.14,0,3.25.55,3.25,3.34,0,1.84-1.4,3.25-3.24,3.25-1.95,0-3.36-1.15-3.36-3.18ZM163.49,93.2c0-1.54-.65-3.24-2.43-3.24-1.47,0-2.07,1.29-2.07,2.56,0,1.47.69,3.39,2.44,3.39,1.26,0,2.06-.85,2.06-2.71Z"/><path class="cls-3" d="M161.3,96.28c-2.07,0-3.41-1.27-3.41-3.23s1.52-3.47,3.4-3.47c.55,0,3.31.16,3.31,3.4,0,1.88-1.41,3.31-3.29,3.31ZM161.29,89.68c-1.82,0-3.29,1.51-3.29,3.37s1.3,3.13,3.31,3.13c1.82,0,3.19-1.38,3.19-3.2,0-3.14-2.67-3.29-3.2-3.29ZM161.44,95.97c-.81,0-1.47-.4-1.92-1.17-.36-.61-.57-1.44-.57-2.27,0-1.21.56-2.62,2.12-2.62,1.83,0,2.48,1.77,2.48,3.29,0,1.78-.75,2.77-2.11,2.77ZM161.06,90.01c-1.49,0-2.02,1.35-2.02,2.51,0,2.29,1.24,3.34,2.39,3.34,1.31,0,2-.92,2-2.66,0-2.35-1.23-3.19-2.38-3.19Z"/><path class="cls-3" d="M166.97,94.81c0,1.39,1.33.67,1.33,1.15,0,.13-.07.17-.24.17-.21,0-.57-.06-1.41-.06-1,0-1.27.06-1.38.06-.12,0-.17-.04-.17-.14,0-.31.77-.25.77-.87v-3.87c0-.9-1.08-.51-1.08-.82,0-.09.12-.15.2-.17,1.15-.27,1.45-.75,1.8-.75.09,0,.18.09.18.24v1.12h.03c.31-.44.85-1.24,1.48-1.24.31,0,.99.39.99.67,0,.23-.36.67-.54.67-.29,0-.45-.34-.99-.34-.61,0-.98.69-.98.88v3.29Z"/><path class="cls-3" d="M168.06,96.18c-.07,0-.16,0-.28-.02-.23-.02-.58-.04-1.13-.04-.76,0-1.1.03-1.26.05-.06,0-.09,0-.12,0-.14,0-.22-.06-.22-.19,0-.16.15-.24.32-.32.21-.1.45-.22.45-.55v-3.87c0-.52-.39-.57-.7-.61-.2-.03-.38-.05-.38-.21,0-.12.14-.2.24-.21.67-.16,1.04-.38,1.32-.55.19-.12.34-.2.49-.2.11,0,.23.11.23.29v1.01c.34-.47.85-1.18,1.46-1.18.33,0,1.04.41,1.04.73,0,.26-.38.73-.59.73-.13,0-.24-.07-.36-.14-.16-.1-.33-.21-.63-.21-.58,0-.92.66-.92.83v3.29c0,.83.49.87.88.9.24.02.46.03.46.26,0,.2-.15.22-.29.22ZM166.65,96.02c.56,0,.91.03,1.14.04.12,0,.2.02.27.02.17,0,.19-.03.19-.11,0-.12-.11-.14-.37-.16-.39-.03-.97-.07-.97-1v-3.29c0-.24.4-.94,1.03-.94.33,0,.52.12.68.22.11.07.2.12.31.12.14,0,.49-.42.49-.62,0-.24-.63-.62-.94-.62-.57,0-1.08.71-1.38,1.14l-.08.1h-.11v-1.18c0-.12-.07-.19-.13-.19-.13,0-.26.08-.44.19-.28.17-.66.4-1.35.56-.06.01-.16.06-.16.12,0,.07.11.09.29.11.31.04.79.1.79.71v3.87c0,.39-.28.53-.5.64-.16.08-.26.13-.26.23,0,.05,0,.08.11.08.02,0,.06,0,.11,0,.16-.02.51-.05,1.27-.05Z"/><path class="cls-3" d="M183.32,94.75c.08,1.26,1.19.71,1.19,1.23,0,.15-.19.15-.36.15-.29,0-.81-.06-1.41-.06-.46,0-.94.06-1.32.06-.13,0-.17-.08-.17-.14,0-.45.94-.12.93-1.23l-.15-5.82c0-.38-.07-.58-.16-.58-.1,0-.24.13-.39.45l-3.1,6.33c-.07.14-.31.75-.46.75s-.25-.33-.3-.43l-3.19-6.69c-.04-.12-.12-.17-.18-.17-.04,0-.09.08-.1.23l-.18,5.26c-.07,2,1.35,1.33,1.35,1.88,0,.15-.17.17-.38.17-.2,0-.87-.06-1.32-.06-.78,0-1.04.06-1.31.06-.1,0-.15-.08-.15-.18,0-.51.96.1,1.06-1.45.18-2.45.36-4.04.36-5.62,0-3.52-1.42-2.69-1.42-3.19,0-.14.12-.17.25-.17.27,0,.54.06.83.06.27,0,.54-.06.81-.06.21,0,.24.25.31.42l3.57,7.62c.16.31.22.45.33.45.08,0,.23-.31.47-.81l3.57-7.17c.09-.16.21-.52.39-.51.15,0,.63.06.71.06.35,0,.48-.06.72-.06.09,0,.15.09.15.18,0,.48-1.2-.17-1.14,1.62l.21,7.44Z"/><path class="cls-3" d="M184.14,96.18c-.12,0-.28-.01-.46-.02-.27-.02-.6-.04-.95-.04-.24,0-.49.02-.73.03-.21.01-.41.03-.59.03-.2,0-.22-.14-.22-.19,0-.21.17-.28.35-.35.28-.11.59-.24.58-.88l-.15-5.82c0-.4-.08-.54-.11-.54-.03,0-.16.03-.34.42l-3.11,6.33s-.04.08-.07.15c-.16.34-.3.63-.44.63-.16,0-.26-.26-.32-.41,0-.02-.02-.04-.02-.06l-3.19-6.69c-.04-.1-.09-.14-.13-.14,0,0-.04.05-.05.18l-.18,5.26c-.05,1.27.52,1.43.93,1.54.22.06.42.11.42.34s-.26.22-.43.22c-.08,0-.23,0-.42-.02-.28-.02-.63-.04-.9-.04-.49,0-.77.02-.98.04-.12.01-.22.02-.33.02-.13,0-.2-.09-.2-.23,0-.23.16-.27.33-.32.28-.08.67-.19.73-1.14.05-.69.1-1.31.15-1.88.12-1.46.21-2.6.21-3.75,0-2.52-.73-2.78-1.13-2.91-.16-.06-.3-.1-.3-.28,0-.14.1-.22.31-.22.14,0,.27.02.41.03.14.02.28.03.42.03.13,0,.27-.02.4-.03.13-.01.27-.03.41-.03.2,0,.27.19.32.34.01.04.03.08.04.11l3.61,7.7c.12.23.18.34.24.34.05-.02.22-.37.39-.73l.03-.05,3.57-7.17s.04-.08.06-.12c.09-.19.2-.42.36-.42,0,0,0,0,.02,0,.09,0,.28.02.46.04.11.01.21.02.24.02.18,0,.31-.02.42-.03.1-.01.19-.03.3-.03.12,0,.2.12.2.23,0,.2-.17.25-.36.29-.35.08-.82.19-.78,1.33l.21,7.44c.04.73.44.82.76.89.22.05.43.1.43.34,0,.2-.24.2-.41.2ZM182.73,96.02c.36,0,.69.02.96.04.18.01.34.02.45.02.18,0,.31,0,.31-.1,0-.16-.12-.19-.35-.25-.33-.08-.79-.18-.84-.98h0s-.21-7.44-.21-7.44c-.04-1.22.5-1.35.86-1.43.19-.04.28-.07.28-.19,0-.06-.04-.13-.1-.13-.11,0-.19.01-.29.03-.11.02-.24.03-.44.03-.03,0-.12,0-.25-.02-.16-.02-.37-.04-.45-.04,0,0,0,0,0,0-.11,0-.21.22-.28.36-.02.05-.04.09-.06.12l-3.59,7.22c-.29.6-.39.79-.48.79-.13,0-.19-.12-.33-.4l-.04-.08-3.57-7.62s-.03-.08-.05-.12c-.06-.17-.1-.27-.22-.27-.13,0-.27.02-.4.03-.13.01-.27.03-.41.03-.15,0-.29-.02-.43-.03-.14-.02-.27-.03-.4-.03-.18,0-.2.05-.2.11,0,.1.07.13.23.19.42.15,1.19.42,1.19,3.01,0,1.15-.09,2.3-.21,3.75-.05.57-.1,1.19-.15,1.87-.07,1.02-.51,1.15-.81,1.23-.18.05-.26.08-.26.22,0,.13.07.13.1.13.1,0,.19,0,.32-.02.21-.02.5-.04.99-.04.27,0,.62.02.91.04.18.01.34.02.41.02.25,0,.32-.03.32-.11,0-.14-.12-.18-.34-.24-.42-.11-1.06-.28-1.01-1.64l.18-5.26c.02-.18.07-.27.16-.27.1,0,.18.07.23.2l3.19,6.69s.02.04.02.06c.04.1.14.35.23.35.08,0,.28-.43.35-.57.03-.07.06-.12.07-.15l3.1-6.33c.15-.32.3-.48.44-.48s.22.24.22.64l.15,5.82c0,.71-.37.87-.65.98-.19.07-.28.12-.28.25,0,.04.01.08.11.08.18,0,.38-.01.59-.03.24-.02.49-.03.73-.03Z"/><path class="cls-3" d="M185.28,92.27c0,2.48,1.5,3.21,2.42,3.21,1.29,0,1.78-.78,2.11-.78.06,0,.06.06.06.1,0,.34-1.3,1.42-2.65,1.42-2.25,0-3.03-2.08-3.03-3.07,0-1.92,1.06-3.52,2.94-3.52s2.65,1.78,2.65,2.38c0,.27-.17.25-.51.25h-3.99ZM188.24,91.87c.21,0,.3-.08.3-.3,0-.84-.84-1.59-1.67-1.59-.93,0-1.59,1.06-1.59,1.89h2.96Z"/><path class="cls-3" d="M187.22,96.28c-2.3,0-3.08-2.15-3.08-3.13,0-2.11,1.23-3.58,2.99-3.58,1.89,0,2.71,1.85,2.71,2.44,0,.1-.02.17-.07.22-.08.08-.2.08-.39.08h-4.04c.01,1.1.52,3.11,2.36,3.11.84,0,1.34-.34,1.67-.57.18-.12.31-.21.44-.21.11,0,.11.11.11.16,0,.39-1.35,1.48-2.71,1.48ZM187.13,89.68c-1.7,0-2.89,1.43-2.89,3.47,0,.95.75,3.02,2.98,3.02,1.34,0,2.6-1.07,2.6-1.37,0-.02,0-.05,0-.06-.1,0-.23.09-.39.2-.34.23-.86.58-1.73.58s-2.47-.68-2.47-3.26v-.05h4.09c.18,0,.31,0,.37-.05.03-.03.04-.08.04-.15,0-.56-.78-2.33-2.6-2.33ZM188.24,91.92h-3.01v-.05c0-.9.72-1.94,1.64-1.94s1.72.8,1.72,1.64c0,.25-.1.35-.35.35ZM185.33,91.82h2.9c.19,0,.25-.06.25-.25,0-.79-.78-1.54-1.61-1.54s-1.51.95-1.54,1.79Z"/><path class="cls-3" d="M195.3,86.63c0-.9-1.19-.51-1.19-.83,0-.09.06-.15.13-.17,1.16-.27,1.62-.75,1.96-.75.09,0,.18.09.18.24v10.26c0,.18.3.3.79.38.1.01.17.01.17.13,0,.1-.39.21-.94.21-.39,0-.81.12-.95.12-.12,0-.16-.12-.16-.23v-.82h-.03c-.51.65-1.33,1.05-2.21,1.05-1.65,0-2.65-1.52-2.65-3.06,0-1.77,1.25-3.54,3.13-3.54.63,0,1.25.18,1.76.52v-3.52ZM195.3,91.72c0-1.11-.9-1.74-1.98-1.74-1.41,0-2.04,1.32-2.04,2.56s.9,3.04,2.32,3.04c1.25,0,1.7-.77,1.7-1.31v-2.56Z"/><path class="cls-3" d="M195.46,96.28c-.15,0-.22-.14-.22-.28v-.72c-.53.62-1.34,1-2.18,1-1.69,0-2.71-1.58-2.71-3.11,0-.9.32-1.8.87-2.47.6-.73,1.42-1.12,2.31-1.12.62,0,1.21.17,1.7.48v-3.43c0-.52-.43-.57-.77-.61-.22-.03-.41-.05-.41-.21,0-.11.07-.19.18-.21.66-.15,1.09-.38,1.4-.54.24-.12.41-.21.57-.21.11,0,.23.11.23.29v10.26c0,.08.1.23.75.32h.02c.09.02.19.03.19.19,0,.18-.52.26-1,.26-.24,0-.5.05-.68.08-.12.02-.21.04-.26.04ZM195.24,95.13h.11v.88s0,.17.11.17c.05,0,.14-.02.24-.04.19-.04.45-.08.7-.08.59,0,.88-.12.89-.16,0-.07-.01-.07-.1-.08h-.02c-.56-.09-.84-.23-.84-.43v-10.26c0-.12-.07-.19-.13-.19-.13,0-.3.08-.52.2-.32.17-.76.39-1.43.55-.05,0-.1.04-.1.12s.12.09.32.11c.34.04.86.1.86.71v3.62l-.08-.05c-.5-.34-1.1-.52-1.73-.52-1.48,0-3.08,1.33-3.08,3.49,0,1.48.97,3.01,2.6,3.01.85,0,1.66-.39,2.17-1.03l.02-.02ZM193.6,95.64c-1.45,0-2.38-1.83-2.38-3.1s.65-2.62,2.09-2.62c1.2,0,2.03.74,2.03,1.79v2.56c0,.47-.36,1.36-1.75,1.36ZM193.32,90.03c-1.37,0-1.99,1.3-1.99,2.51s.89,2.99,2.27,2.99c1.3,0,1.64-.82,1.64-1.25v-2.56c0-.84-.6-1.69-1.93-1.69Z"/><path class="cls-3" d="M198.79,91.25c0-.9-.82-.51-.82-.82,0-.09.06-.15.13-.17.96-.27,1.26-.75,1.6-.75.09,0,.18.09.18.24v5.38c0,.77,1.18.44,1.18.83,0,.12-.09.17-.28.17-.31,0-.78-.06-1.4-.06-.48,0-.87.06-1.04.06-.12,0-.21-.02-.22-.17,0-.38.66.19.66-1.17v-3.54ZM199.96,87.34c0,.18-.44.78-.63.78-.18,0-.63-.61-.63-.78s.45-.79.63-.79c.19,0,.63.61.63.79Z"/><path class="cls-3" d="M200.78,96.18c-.13,0-.29-.01-.48-.02-.25-.02-.56-.04-.92-.04-.3,0-.57.02-.76.04-.12.01-.21.02-.27.02-.1,0-.25,0-.27-.21,0-.17.12-.2.22-.22.19-.04.44-.1.44-.95v-3.54c0-.52-.28-.57-.53-.61-.15-.03-.3-.05-.3-.21,0-.11.07-.19.18-.21.52-.15.85-.36,1.09-.52.21-.13.35-.23.52-.23.11,0,.23.11.23.29v5.38c0,.4.37.47.7.53.25.05.49.09.49.29,0,.22-.24.22-.34.22ZM199.39,96.02c.36,0,.67.02.93.04.18.01.34.02.47.02.23,0,.23-.07.23-.11,0-.11-.15-.15-.4-.19-.33-.06-.78-.14-.78-.63v-5.38c0-.12-.07-.19-.13-.19-.14,0-.27.09-.46.21-.25.16-.58.38-1.13.53-.05.01-.1.05-.1.12s.06.08.21.11c.24.04.61.11.61.71v3.54c0,.94-.31,1-.52,1.05-.11.02-.14.03-.14.12,0,.1.05.11.17.11.06,0,.15,0,.26-.02.2-.02.47-.04.77-.04ZM199.33,88.17c-.22,0-.68-.65-.68-.83s.46-.85.68-.85c.23,0,.68.65.68.85s-.45.83-.68.83ZM199.33,86.59c-.15,0-.58.6-.58.74s.43.73.58.73c.16,0,.58-.56.58-.73s-.42-.74-.58-.74Z"/><path class="cls-3" d="M201.05,93.05c0-1.88,1.48-3.42,3.38-3.42.75,0,1.77.21,1.81.55.03.33.01.69.01.89,0,.21-.04.31-.12.31-.15,0-.32-.29-.36-.35-.51-.69-1.17-.92-1.86-.92-1.27,0-1.77,1.32-1.77,2.4,0,1.62.96,2.96,2.66,2.96,1.17,0,1.83-.87,2.05-.87.04,0,.12.04.12.09,0,.24-.9,1.53-2.96,1.53-1.72,0-2.97-1.52-2.97-3.18Z"/><path class="cls-3" d="M204.02,96.28c-1.67,0-3.02-1.45-3.02-3.23,0-1.91,1.54-3.47,3.43-3.47.75,0,1.81.21,1.87.6.02.26.02.54.02.74,0,.06,0,.11,0,.15,0,.3-.09.37-.17.37-.15,0-.3-.21-.38-.33-.01-.02-.02-.03-.03-.04-.44-.6-1.04-.89-1.82-.89-1.18,0-1.72,1.22-1.72,2.35,0,2.01,1.31,2.9,2.6,2.9.8,0,1.36-.42,1.7-.67.17-.12.27-.2.36-.2.07,0,.17.06.17.14,0,.23-.87,1.58-3.01,1.58ZM204.43,89.68c-1.83,0-3.32,1.51-3.32,3.37,0,1.73,1.31,3.13,2.92,3.13,2.03,0,2.9-1.28,2.9-1.48,0-.01-.05-.04-.07-.04-.05,0-.17.08-.3.18-.35.26-.93.69-1.76.69-1.62,0-2.71-1.21-2.71-3.01,0-1.18.57-2.45,1.82-2.45.81,0,1.44.31,1.9.94,0,0,.02.02.03.04.05.08.19.28.29.28.02,0,.07-.06.07-.26,0-.04,0-.1,0-.15,0-.2,0-.47-.02-.73-.04-.29-.98-.51-1.76-.51Z"/><path class="cls-3" d="M211.41,91.33c0-.78-.62-1.31-1.54-1.31-.72,0-1.31.08-1.31.9,0,.23.09.45.09.62s-.05.29-.33.29c-.25,0-.71-.23-.71-.5.02-.69.85-1.74,2.52-1.69.93,0,2.37.27,2.37,1.54v3.1c0,.51-.13,1.4.65,1.4.06,0,.2-.03.25-.03.08,0,.2,0,.2.1,0,.31-.66.38-.87.38-.58,0-.98-.27-1.17-.77-.63.54-1.46.87-2.29.87-.98,0-1.62-.36-1.62-1.42,0-.79.26-1.74,3.77-2.33v-1.15ZM211.41,92.84c-.96.21-2.79.45-2.79,1.77,0,.85.44,1.19,1.23,1.19.54,0,1.56-.42,1.56-1.21v-1.74Z"/><path class="cls-3" d="M209.27,96.28c-1.12,0-1.67-.48-1.67-1.48,0-.84.29-1.78,3.77-2.37v-1.11c0-.75-.6-1.25-1.49-1.25-.71,0-1.25.06-1.25.85,0,.12.02.23.05.34.02.1.04.19.04.27,0,.17-.05.34-.38.34-.26,0-.76-.23-.76-.55,0-.35.21-.74.54-1.05.47-.45,1.16-.69,1.93-.69.03,0,.07,0,.1,0,.57,0,2.42.12,2.42,1.6v3.1c0,.06,0,.13,0,.2-.01.35-.02.78.19.99.1.1.23.15.41.15.03,0,.07,0,.12-.01.05,0,.1-.02.13-.02.07,0,.25,0,.25.16,0,.42-.91.43-.92.43-.57,0-.98-.25-1.19-.73-.65.53-1.47.84-2.27.84ZM209.87,89.97c.95,0,1.6.54,1.6,1.36v1.2h-.04c-3.44.58-3.72,1.48-3.72,2.28,0,.94.5,1.37,1.57,1.37.8,0,1.63-.31,2.26-.86l.05-.05.03.07c.19.49.57.73,1.12.73.27,0,.82-.08.82-.32,0-.04-.04-.05-.14-.05-.03,0-.07,0-.12.01-.05,0-.1.02-.14.02-.21,0-.37-.06-.48-.18-.24-.25-.23-.7-.22-1.07,0-.07,0-.14,0-.2v-3.1c0-1.39-1.77-1.49-2.32-1.49-.03,0-.07,0-.1,0-.75,0-1.41.23-1.87.67-.31.29-.5.66-.5.98,0,.23.41.44.65.44.26,0,.28-.1.28-.23,0-.07-.02-.16-.04-.25-.02-.11-.05-.24-.05-.37,0-.88.64-.95,1.36-.95ZM209.85,95.85c-.87,0-1.28-.39-1.28-1.24,0-1.24,1.53-1.55,2.54-1.76.1-.02.2-.04.29-.06h.06s0,1.79,0,1.79c0,.83-1.05,1.27-1.61,1.27ZM211.36,92.91c-.07.02-.15.03-.23.05-.98.2-2.46.5-2.46,1.66,0,.78.36,1.13,1.18,1.13.51,0,1.51-.41,1.51-1.16v-1.68Z"/><path class="cls-3" d="M215.75,94.91c0,1.03,1.25.6,1.25,1,0,.18-.12.21-.35.21-.21,0-.67-.06-1.38-.06s-1.02.06-1.17.06c-.12,0-.18-.06-.18-.19,0-.23.73-.18.73-.83v-8.47c0-.9-1.02-.51-1.02-.83,0-.09.06-.15.13-.17,1.16-.27,1.46-.75,1.8-.75.09,0,.18.09.18.24v9.78Z"/><path class="cls-3" d="M216.65,96.18c-.08,0-.18,0-.32-.02-.25-.02-.6-.04-1.06-.04-.5,0-.8.03-.98.05-.08,0-.14.01-.19.01-.1,0-.23-.04-.23-.25,0-.12.12-.17.26-.23.21-.1.48-.22.48-.59v-8.47c0-.52-.36-.57-.66-.61-.19-.03-.36-.05-.36-.21,0-.11.07-.19.18-.21.67-.16,1.05-.38,1.32-.55.19-.12.33-.2.49-.2.11,0,.23.11.23.29v9.78c0,.59.42.67.79.73.23.04.45.08.45.28,0,.24-.2.26-.4.26ZM215.27,96.02c.46,0,.81.02,1.07.04.13,0,.24.02.31.02.25,0,.29-.04.29-.16,0-.11-.14-.14-.37-.18-.37-.06-.88-.15-.88-.83v-9.78c0-.12-.07-.19-.13-.19-.13,0-.26.08-.44.19-.28.17-.66.4-1.35.56-.05,0-.1.04-.1.12,0,.07.09.09.27.11.3.04.75.1.75.71v8.47c0,.44-.32.59-.54.68-.11.05-.2.09-.2.14,0,.12.05.14.13.14.04,0,.1,0,.18-.01.18-.02.48-.05.99-.05Z"/><path class="cls-3" d="M61.16,103.8c-.02-1.1-1.3-.79-1.3-1.12,0-.14.12-.17.24-.17.56,0,1.1.06,1.65.06.47,0,.93-.06,1.4-.06.25,0,.29.09.29.15,0,.3-1.08.02-1.08,1.14v3.24c0,.21,0,.27.23.27h5.49c.15,0,.12-.38.12-.44v-3.07c0-1.04-1.12-.78-1.12-1.12,0-.09.03-.17.25-.17.5,0,1.27.06,1.56.06.55,0,.78-.06,1.08-.06.39,0,.42.15.42.24,0,.27-1.01.02-1.01,1.05v7.95c0,1.09,1.37.82,1.37,1.2,0,.04-.06.18-.17.18-.41,0-.87-.06-1.41-.06-.96,0-1.38.06-1.66.06-.14,0-.36.04-.36-.19,0-.36,1.05-.15,1.05-1.1v-3.6c0-.24.06-.38-.12-.38h-5.53c-.18,0-.18.09-.18.25v3.73c0,1.02,1.42.69,1.42,1.15,0,.08-.1.12-.24.12-.2,0-1.29-.06-2.08-.06-1.06,0-1.23.06-1.29.06-.12,0-.17-.08-.17-.23,0-.44,1.17.06,1.17-1.42v-7.68Z"/><path class="cls-3" d="M67.36,113.18c-.08,0-.16-.01-.22-.07-.04-.04-.07-.1-.07-.18,0-.17.17-.24.38-.31.3-.11.67-.24.67-.79v-3.6c0-.05,0-.1,0-.15,0-.08,0-.14-.01-.16-.01-.01-.04-.02-.06-.02h-5.53c-.13,0-.13.03-.13.2v3.73c0,.57.47.69.88.79.29.07.55.14.55.36,0,.1-.11.17-.29.17-.07,0-.23,0-.45-.02-.44-.02-1.11-.04-1.64-.04-.86,0-1.13.04-1.23.05-.03,0-.05,0-.06,0-.22,0-.22-.21-.22-.28,0-.19.18-.24.37-.29.34-.09.8-.21.8-1.14v-7.68c0-.67-.52-.79-.89-.87-.22-.05-.41-.1-.41-.25,0-.1.05-.22.29-.22.28,0,.56.02.83.03.27.01.55.03.82.03.23,0,.47-.02.69-.03.23-.02.47-.03.7-.03s.34.07.34.2c0,.14-.15.18-.33.23-.32.09-.75.21-.75.91v3.24c0,.21,0,.22.17.22h5.49s.02,0,.02,0c.04-.04.05-.16.05-.34v-.03s0-3.07,0-3.07c0-.62-.41-.75-.75-.85-.2-.06-.38-.12-.38-.28,0-.15.09-.22.31-.22.28,0,.65.02.98.04.25.01.46.02.58.02.32,0,.52-.02.7-.04.13-.01.25-.02.38-.02.32,0,.47.1.47.29,0,.13-.14.17-.3.21-.3.08-.7.19-.7.84v7.95c0,.65.5.79.91.9.25.07.46.12.46.3,0,.07-.08.23-.22.23-.19,0-.39-.01-.61-.03-.25-.02-.51-.03-.8-.03-.62,0-1.01.02-1.29.04-.15,0-.27.02-.37.02-.04,0-.08,0-.12,0ZM62.52,107.81h5.53c.06,0,.11.02.14.05.05.05.04.13.04.24,0,.04,0,.09,0,.14v3.6c0,.62-.43.77-.74.88-.19.07-.31.11-.31.21,0,.05.01.09.03.11.04.04.14.04.22.04.02,0,.04,0,.06,0,.1,0,.22,0,.37-.02.28-.02.68-.04,1.3-.04.29,0,.55.02.81.03.21.01.41.03.6.03.07,0,.11-.1.11-.13,0-.1-.18-.15-.38-.2-.39-.11-.98-.27-.98-1v-7.95c0-.72.49-.86.78-.94.14-.04.23-.07.23-.12,0-.05,0-.19-.37-.19-.12,0-.24.01-.37.02-.18.02-.39.04-.71.04-.12,0-.34-.01-.59-.02-.33-.02-.69-.04-.97-.04-.2,0-.2.06-.2.11,0,.08.12.12.31.18.33.1.82.25.82.94v3.1c0,.16,0,.34-.08.42-.03.03-.06.04-.1.04h-5.49c-.26,0-.28-.1-.28-.32v-3.24c0-.78.5-.92.83-1.01.16-.04.25-.07.25-.13,0-.07-.08-.1-.23-.1-.23,0-.47.02-.69.03-.23.02-.47.03-.7.03-.28,0-.56-.02-.83-.03-.27-.01-.55-.03-.82-.03-.19,0-.19.08-.19.11,0,.08.15.11.33.15.38.09.96.22.97.97v7.68c0,1-.53,1.14-.88,1.23-.19.05-.29.08-.29.19,0,.16.05.17.11.17,0,0,.02,0,.04,0,.1-.01.38-.05,1.25-.05.53,0,1.2.03,1.64.04.21,0,.38.02.44.02.12,0,.19-.04.19-.07,0-.14-.18-.19-.47-.27-.4-.1-.96-.24-.96-.89v-3.73c0-.16,0-.31.23-.31Z"/><path class="cls-3" d="M75.74,107.73c0-.57-.79-.21-.79-.57,0-.12.2-.14.27-.14.44,0,.65-.04.81-.09.17-.03.3-.08.54-.08.06,0,.27.08.27.36v5.19c0,.39.94.2.94.53,0,.12-.31.13-.56.13-.42,0-.63.04-.81.08-.17.04-.29.09-.51.09-.12,0-.13-.17-.13-.23v-.82h-.03c-.46.7-1.2,1.05-1.99,1.05-1.2,0-2.19-.73-2.19-2.01v-3.5c0-.57-.79-.21-.79-.57,0-.12.19-.14.27-.14.43,0,.65-.04.81-.09.17-.03.3-.08.54-.08.06,0,.27.08.27.36v3.79c-.01,1.59,1.26,1.69,1.46,1.69.85,0,1.6-.63,1.63-1.06v-3.92Z"/><path class="cls-3" d="M75.91,113.28c-.14,0-.19-.14-.19-.28v-.71c-.46.63-1.16.98-1.97.98-1.32,0-2.24-.85-2.24-2.06v-3.5c0-.25-.17-.29-.42-.32-.18-.02-.37-.04-.37-.25,0-.12.12-.19.32-.19.44,0,.64-.05.8-.09.04,0,.08-.02.12-.02.12-.03.25-.05.43-.05.09,0,.32.1.32.41v3.79c0,.53.14.95.42,1.23.4.41.96.41.98.41.84,0,1.56-.62,1.58-1.02v-3.91c0-.25-.17-.29-.42-.32-.18-.02-.37-.04-.37-.25,0-.12.12-.19.32-.19.44,0,.64-.05.8-.09.04,0,.08-.02.12-.02.12-.03.25-.05.43-.05.09,0,.32.1.32.41v5.19c0,.15.19.19.46.24.24.04.48.08.48.29,0,.16-.29.19-.61.19-.37,0-.58.04-.74.06h-.06s-.06.03-.06.03c-.14.04-.26.07-.45.07ZM75.72,112.13h.11v.88s0,.17.08.17c.19,0,.3-.03.43-.07l.13-.03c.17-.03.38-.07.76-.07.49,0,.5-.08.5-.08,0-.11-.16-.14-.4-.19-.25-.04-.54-.09-.54-.34v-5.19c0-.26-.18-.31-.22-.31-.18,0-.3.03-.41.05-.04,0-.08.02-.12.02-.16.04-.37.09-.82.09-.08,0-.22.02-.22.08,0,.1.09.12.28.15.22.03.51.06.51.42v3.92c-.03.49-.83,1.12-1.69,1.12-.06,0-.63-.01-1.06-.44-.3-.31-.45-.74-.45-1.3v-3.79c0-.26-.18-.31-.22-.31-.18,0-.3.03-.41.05-.04,0-.08.02-.12.02-.16.04-.37.09-.82.09-.08,0-.22.02-.22.08,0,.1.09.12.28.15.22.03.51.06.51.42v3.5c0,1.15.88,1.96,2.14,1.96.82,0,1.52-.36,1.95-1.03l.02-.02Z"/><path class="cls-3" d="M80.14,111.91c0,1.03,1.15.6,1.15,1,0,.18-.1.21-.25.21-.2,0-.69-.06-1.32-.06s-.93.06-1.11.06c-.12,0-.18-.08-.18-.19,0-.23.61-.18.61-.83v-3.85c0-.9-.94-.51-.94-.82,0-.09.06-.15.13-.17,1.08-.27,1.38-.75,1.73-.75.09,0,.18.09.18.24v.87c.45-.51,1.06-.99,1.78-.99.92,0,1.47.3,1.94,1.09.46-.69,1.06-1.09,2.08-1.09,2.22,0,2.15,2.22,2.15,2.74v2.54c0,1.03,1.15.6,1.15,1,0,.18-.1.21-.25.21-.2,0-.69-.06-1.32-.06s-.93.06-1.11.06c-.12,0-.18-.08-.18-.19,0-.23.61-.18.61-.83v-2.91c0-.92-.34-2.01-1.56-2.01-.7,0-1.32.62-1.32.84v3.88c0,1.03,1.16.6,1.16,1,0,.18-.1.21-.26.21-.19,0-.69-.06-1.32-.06s-.93.06-1.11.06c-.12,0-.18-.08-.18-.19,0-.23.62-.18.62-.83v-3.17c0-1.18-.71-1.75-1.46-1.75-.42,0-1.42.27-1.42,1.32v3.41Z"/><path class="cls-3" d="M88.99,113.18c-.07,0-.18,0-.32-.02-.25-.02-.6-.04-1-.04s-.66.02-.86.04c-.1,0-.19.02-.25.02-.14,0-.23-.09-.23-.25,0-.11.11-.17.22-.23.18-.1.4-.22.4-.59v-2.91c0-.46-.11-1.96-1.51-1.96-.68,0-1.27.6-1.27.79v3.88c0,.59.39.67.73.73.22.04.42.08.42.28,0,.23-.15.26-.31.26-.07,0-.18,0-.32-.02-.25-.02-.6-.04-1-.04s-.66.02-.86.04c-.1,0-.19.02-.25.02-.14,0-.23-.09-.23-.25,0-.11.11-.17.22-.23.18-.1.4-.22.4-.59v-3.17c0-1.18-.71-1.7-1.4-1.7-.36,0-1.37.23-1.37,1.27v3.41c0,.59.39.67.73.73.22.04.42.08.42.28,0,.23-.15.26-.31.26-.07,0-.18,0-.32-.02-.25-.02-.6-.04-1-.04s-.66.02-.86.04c-.1,0-.19.02-.25.02-.14,0-.23-.09-.23-.25,0-.11.11-.17.22-.23.18-.1.4-.22.4-.59v-3.85c0-.52-.32-.57-.61-.61-.17-.03-.34-.05-.34-.21,0-.11.07-.19.18-.21.61-.15.97-.38,1.23-.54.2-.12.34-.21.5-.21.11,0,.23.11.23.29v.74c.56-.6,1.15-.91,1.73-.91.91,0,1.48.31,1.94,1.05.51-.73,1.16-1.05,2.08-1.05.65,0,1.16.19,1.53.56.68.68.67,1.78.67,2.19v2.58c0,.59.39.67.73.73.22.04.42.08.42.28,0,.23-.15.26-.31.26ZM87.67,113.02c.41,0,.75.02,1.01.04.14,0,.25.02.31.02.16,0,.2-.04.2-.16,0-.11-.12-.14-.34-.18-.34-.06-.81-.15-.81-.83v-2.59c0-.4,0-1.47-.64-2.12-.35-.35-.84-.53-1.45-.53-.93,0-1.54.32-2.04,1.07l-.04.07-.04-.07c-.45-.77-.98-1.07-1.89-1.07-.59,0-1.18.33-1.75.97l-.09.1v-1c0-.12-.07-.19-.13-.19-.13,0-.26.08-.45.2-.27.17-.63.39-1.26.55-.05,0-.1.04-.1.12,0,.07.08.08.25.11.28.04.69.1.69.71v3.85c0,.44-.27.58-.45.68-.1.06-.17.09-.17.14,0,.14.1.14.13.14.06,0,.14,0,.24-.02.2-.02.47-.04.87-.04s.75.02,1.01.04c.14,0,.25.02.31.02.16,0,.2-.04.2-.16,0-.11-.12-.14-.34-.18-.34-.06-.81-.15-.81-.83v-3.41c0-1.12,1.09-1.37,1.48-1.37.75,0,1.51.56,1.51,1.81v3.17c0,.44-.27.58-.45.68-.1.06-.17.09-.17.14,0,.14.1.14.13.14.06,0,.14,0,.24-.02.2-.02.47-.04.87-.04s.75.02,1.01.04c.14,0,.25.02.31.02.16,0,.2-.04.2-.16,0-.11-.12-.14-.34-.18-.34-.06-.81-.15-.81-.83v-3.88c0-.28.66-.89,1.37-.89,1.49,0,1.61,1.58,1.61,2.06v2.91c0,.44-.27.58-.45.68-.1.06-.17.09-.17.14,0,.14.1.14.13.14.06,0,.14,0,.24-.02.2-.02.47-.04.87-.04Z"/><path class="cls-3" d="M93.51,108.33c0-.78-.62-1.31-1.54-1.31-.72,0-1.31.08-1.31.9,0,.23.09.45.09.62s-.05.29-.33.29c-.25,0-.71-.23-.71-.5.02-.69.85-1.74,2.52-1.69.93,0,2.37.27,2.37,1.54v3.1c0,.51-.13,1.4.65,1.4.06,0,.2-.03.25-.03.08,0,.2,0,.2.1,0,.31-.66.38-.87.38-.58,0-.98-.27-1.17-.77-.63.54-1.46.87-2.29.87-.98,0-1.62-.36-1.62-1.42,0-.79.26-1.74,3.77-2.33v-1.15ZM93.51,109.84c-.96.21-2.79.45-2.79,1.77,0,.85.44,1.19,1.23,1.19.54,0,1.56-.42,1.56-1.21v-1.74Z"/><path class="cls-3" d="M91.37,113.28c-1.12,0-1.67-.48-1.67-1.48,0-.84.29-1.78,3.77-2.37v-1.11c0-.75-.6-1.25-1.49-1.25-.71,0-1.25.06-1.25.85,0,.12.02.23.05.34.02.1.04.19.04.27,0,.17-.05.34-.38.34-.26,0-.76-.23-.76-.55,0-.35.21-.74.54-1.05.49-.47,1.21-.72,2.04-.69.57,0,2.42.12,2.42,1.6v3.1c0,.06,0,.13,0,.2-.01.35-.02.78.19.99.1.1.23.15.41.15.03,0,.07,0,.12-.01.05,0,.1-.02.13-.02.07,0,.25,0,.25.16,0,.42-.91.43-.92.43-.57,0-.98-.25-1.19-.73-.65.53-1.47.84-2.27.84ZM91.97,106.97c.95,0,1.6.54,1.6,1.36v1.2h-.04c-3.44.58-3.72,1.48-3.72,2.28,0,.94.5,1.37,1.57,1.37.8,0,1.63-.31,2.26-.86l.05-.05.03.07c.19.49.57.73,1.12.73.27,0,.82-.08.82-.32,0-.04-.04-.05-.14-.05-.03,0-.07,0-.12.01-.05,0-.1.02-.14.02-.21,0-.37-.06-.48-.18-.24-.25-.23-.7-.22-1.07,0-.07,0-.14,0-.2v-3.1c0-1.39-1.77-1.49-2.32-1.49-.03,0-.07,0-.1,0-.75,0-1.41.23-1.87.67-.31.29-.5.66-.5.98,0,.23.41.44.65.44.26,0,.28-.1.28-.23,0-.07-.02-.16-.04-.25-.02-.11-.05-.24-.05-.37,0-.88.64-.95,1.36-.95ZM91.95,112.85c-.87,0-1.28-.39-1.28-1.24,0-1.24,1.53-1.55,2.54-1.76.1-.02.2-.04.29-.06h.06s0,1.79,0,1.79c0,.83-1.05,1.27-1.61,1.27ZM93.46,109.91c-.07.02-.15.03-.23.05-.98.2-2.46.5-2.46,1.66,0,.78.36,1.13,1.18,1.13.51,0,1.51-.41,1.51-1.16v-1.68Z"/><path class="cls-3" d="M98.15,111.91c0,1.03,1.32.6,1.32,1,0,.18-.1.21-.33.21-.25,0-.55-.06-1.42-.06-.79,0-1.1.06-1.27.06-.2,0-.27-.03-.27-.18,0-.3.88,0,.88-.97v-3.72c0-.9-1.11-.51-1.11-.82,0-.09.06-.15.14-.17,1.24-.27,1.54-.75,1.89-.75.09,0,.18.09.18.24v.99c-.03.18.72-1.11,2.17-1.11,2.01,0,2.44,1.66,2.44,2.8v2.48c0,1.03,1.17.6,1.17,1,0,.18-.1.21-.25.21-.19,0-.57-.06-1.31-.06-.57,0-.88.06-1.08.06s-.27-.03-.27-.18c0-.3.65,0,.65-.97v-2.81c0-.75-.54-1.88-1.75-1.88s-1.79.93-1.77,1.17v3.45Z"/><path class="cls-3" d="M103.68,113.18c-.07,0-.16,0-.27-.02-.22-.02-.55-.04-1.03-.04-.36,0-.62.02-.8.04-.11.01-.2.02-.28.02-.17,0-.32-.02-.32-.23,0-.14.11-.18.22-.22.19-.07.42-.16.42-.75v-2.81c0-.74-.54-1.82-1.7-1.82-.77,0-1.22.36-1.42.57-.22.23-.31.46-.3.54v3.45c0,.59.45.67.84.73.25.04.48.08.48.28,0,.24-.18.26-.38.26-.09,0-.19,0-.31-.02-.23-.02-.55-.04-1.11-.04s-.84.03-1.05.04c-.1,0-.17.02-.23.02-.17,0-.32-.02-.32-.23,0-.15.14-.18.29-.23.26-.07.59-.16.59-.75v-3.72c0-.52-.4-.57-.72-.61-.2-.03-.39-.05-.39-.21,0-.11.07-.19.18-.21.74-.16,1.15-.4,1.42-.56.19-.11.33-.19.48-.19.11,0,.23.11.23.29v.9s.01-.01.02-.02c.27-.29.97-1.05,2.11-1.05,2.32,0,2.5,2.19,2.5,2.86v2.48c0,.59.39.67.74.73.22.04.43.08.43.28,0,.23-.15.26-.31.26ZM102.38,113.02c.49,0,.82.03,1.04.04.39.03.47.03.47-.14,0-.11-.12-.14-.34-.18-.35-.06-.83-.15-.83-.83v-2.48c0-2.49-1.67-2.75-2.39-2.75-1.09,0-1.77.74-2.03,1.01-.09.1-.12.13-.16.11-.01,0-.04-.02-.03-.07v-.98c0-.12-.07-.19-.13-.19-.12,0-.25.07-.43.18-.28.16-.69.41-1.45.57-.05,0-.1.04-.1.12s.11.09.3.11c.32.04.81.1.81.71v3.72c0,.67-.4.77-.66.85-.16.04-.22.07-.22.13,0,.1.02.13.22.13.06,0,.12,0,.22-.01.21-.02.51-.05,1.06-.05s.89.02,1.12.04c.12,0,.22.02.3.02.24,0,.28-.04.28-.16,0-.11-.15-.14-.39-.18-.39-.06-.93-.15-.93-.83v-3.45c0-.12.1-.38.33-.62.21-.23.69-.6,1.49-.6,1.23,0,1.81,1.15,1.81,1.93v2.81c0,.66-.29.77-.49.85-.11.04-.15.06-.15.13,0,.1.02.13.22.13.07,0,.16,0,.27-.02.19-.02.45-.04.81-.04Z"/><path class="cls-3" d="M105.33,108.25c0-.9-.82-.51-.82-.82,0-.09.06-.15.13-.17.96-.27,1.26-.75,1.6-.75.09,0,.18.09.18.24v5.38c0,.77,1.18.44,1.18.83,0,.12-.09.17-.28.17-.31,0-.78-.06-1.4-.06-.48,0-.87.06-1.04.06-.12,0-.21-.02-.22-.17,0-.38.66.19.66-1.17v-3.54ZM106.5,104.34c0,.18-.44.78-.63.78-.18,0-.63-.61-.63-.78s.45-.79.63-.79c.19,0,.63.61.63.79Z"/><path class="cls-3" d="M107.32,113.18c-.13,0-.29-.01-.48-.02-.25-.02-.56-.04-.92-.04-.3,0-.57.02-.76.04-.12.01-.21.02-.27.02-.1,0-.25,0-.27-.21,0-.17.12-.2.22-.22.19-.04.44-.1.44-.95v-3.54c0-.52-.28-.57-.53-.61-.15-.03-.3-.05-.3-.21,0-.11.07-.19.18-.21.52-.15.85-.36,1.09-.52.21-.13.35-.23.52-.23.11,0,.23.11.23.29v5.38c0,.4.37.47.7.53.25.05.49.09.49.29,0,.22-.24.22-.34.22ZM105.93,113.02c.36,0,.67.02.93.04.18.01.34.02.47.02.23,0,.23-.07.23-.11,0-.11-.15-.15-.4-.19-.33-.06-.78-.14-.78-.63v-5.38c0-.12-.07-.19-.13-.19-.14,0-.27.09-.47.21-.25.16-.58.38-1.13.53-.05.01-.1.05-.1.12s.06.08.21.11c.24.04.61.11.61.71v3.54c0,.94-.31,1-.52,1.05-.11.02-.14.03-.14.12,0,.1.05.11.17.11.06,0,.15,0,.26-.02.2-.02.47-.04.77-.04ZM105.87,105.17c-.22,0-.68-.65-.68-.83s.46-.85.68-.85c.23,0,.68.65.68.85s-.45.83-.68.83ZM105.87,103.59c-.15,0-.58.6-.58.74s.43.73.58.73c.16,0,.58-.56.58-.73s-.42-.74-.58-.74Z"/><path class="cls-3" d="M108.48,107.44c-.71,0-.81,0-.81-.1,0-.12.38-.38,1.14-1.21.3-.36.45-.69.57-.69.21,0,.19.31.19,1.4h1.65c.38,0,.54-.25.58-.25.08,0,.1.07.1.12,0,.06-.04.13-.09.21l-.3.54h-1.95v4.37c.03.61.45.9,1.05.9.79,0,1.02-.35,1.27-.35.06,0,.12.02.12.14,0,.22-.81.73-1.86.73-.69,0-1.68-.19-1.68-1.74v-4.05Z"/><path class="cls-3" d="M110.16,113.28c-1.15,0-1.73-.6-1.73-1.79v-4c-.72,0-.81,0-.81-.16,0-.08.1-.18.33-.4.18-.18.46-.45.83-.85.12-.14.21-.28.29-.39.14-.2.22-.32.32-.32.16,0,.2.15.22.3.02.19.02.49.02.95v.15h1.6c.26,0,.41-.13.49-.2.04-.03.06-.05.09-.05.11,0,.16.1.16.17s-.05.15-.1.24l-.31.56h-1.93v4.31c.03.55.38.85,1,.85.5,0,.76-.14.96-.24.12-.06.21-.11.32-.11.11,0,.17.06.17.19,0,.26-.83.79-1.91.79ZM109.38,105.48s-.14.14-.24.27c-.08.11-.18.25-.29.4-.37.4-.65.67-.83.85-.17.16-.3.29-.3.33,0,.05.21.05.76.05h.05v4.1c0,1.14.53,1.69,1.63,1.69s1.81-.52,1.81-.68c0-.08-.03-.08-.07-.08-.08,0-.16.04-.27.1-.2.1-.48.25-1,.25-.67,0-1.07-.35-1.1-.95v-4.42h1.97l.29-.51c.04-.07.08-.14.08-.19,0-.01,0-.06-.05-.07,0,0-.02.02-.03.03-.08.07-.26.23-.56.23h-1.7v-.25c0-.45,0-.75-.02-.93-.03-.21-.08-.21-.12-.21Z"/><path class="cls-3" d="M113.39,108.25c0-.9-.82-.51-.82-.82,0-.09.06-.15.13-.17.96-.27,1.26-.75,1.6-.75.09,0,.18.09.18.24v5.38c0,.77,1.18.44,1.18.83,0,.12-.09.17-.28.17-.31,0-.78-.06-1.4-.06-.48,0-.87.06-1.04.06-.12,0-.21-.02-.22-.17,0-.38.66.19.66-1.17v-3.54ZM114.56,104.34c0,.18-.44.78-.63.78-.18,0-.63-.61-.63-.78s.45-.79.63-.79c.19,0,.63.61.63.79Z"/><path class="cls-3" d="M115.39,113.18c-.13,0-.29-.01-.48-.02-.25-.02-.56-.04-.92-.04-.3,0-.57.02-.76.04-.12.01-.21.02-.27.02-.1,0-.25,0-.27-.21,0-.17.12-.2.22-.22.19-.04.44-.1.44-.95v-3.54c0-.52-.28-.57-.53-.61-.15-.03-.3-.05-.3-.21,0-.11.07-.19.18-.21.52-.15.85-.36,1.09-.52.21-.13.35-.23.52-.23.11,0,.23.11.23.29v5.38c0,.4.37.47.7.53.25.05.49.09.49.29,0,.22-.24.22-.34.22ZM113.99,113.02c.36,0,.67.02.93.04.18.01.34.02.47.02.23,0,.23-.07.23-.11,0-.11-.15-.15-.4-.19-.33-.06-.78-.14-.78-.63v-5.38c0-.12-.07-.19-.13-.19-.14,0-.27.09-.46.21-.25.16-.58.38-1.13.53-.05.01-.1.05-.1.12s.06.08.21.11c.24.04.61.11.61.71v3.54c0,.94-.31,1-.52,1.05-.11.02-.14.03-.14.12,0,.1.05.11.17.11.06,0,.15,0,.26-.02.2-.02.47-.04.77-.04ZM113.93,105.17c-.22,0-.68-.65-.68-.83s.46-.85.68-.85c.23,0,.68.65.68.85s-.45.83-.68.83ZM113.93,103.59c-.15,0-.58.6-.58.74s.43.73.58.73c.16,0,.58-.56.58-.73s-.42-.74-.58-.74Z"/><path class="cls-3" d="M116.94,109.27c0,2.48,1.5,3.21,2.42,3.21,1.29,0,1.78-.78,2.11-.78.06,0,.06.06.06.1,0,.34-1.3,1.42-2.65,1.42-2.25,0-3.03-2.08-3.03-3.07,0-1.92,1.06-3.52,2.94-3.52s2.65,1.78,2.65,2.38c0,.27-.17.25-.51.25h-3.99ZM119.89,108.87c.21,0,.3-.08.3-.3,0-.84-.84-1.59-1.67-1.59-.93,0-1.59,1.06-1.59,1.89h2.96Z"/><path class="cls-3" d="M118.87,113.28c-2.3,0-3.08-2.15-3.08-3.13,0-2.11,1.23-3.58,2.99-3.58,1.89,0,2.71,1.85,2.71,2.44,0,.1-.02.17-.07.22-.08.08-.23.08-.44.08h-3.99c.01,1.1.52,3.11,2.36,3.11.84,0,1.34-.34,1.67-.57.18-.12.31-.21.44-.21.11,0,.11.11.11.16,0,.39-1.35,1.48-2.71,1.48ZM118.78,106.68c-1.7,0-2.89,1.43-2.89,3.47,0,.95.75,3.02,2.98,3.02,1.34,0,2.6-1.07,2.6-1.37,0-.02,0-.05,0-.06-.1,0-.23.09-.39.2-.34.23-.86.58-1.73.58s-2.47-.68-2.47-3.26v-.05h4.09c.18,0,.31,0,.37-.05.03-.03.04-.08.04-.15,0-.56-.78-2.33-2.6-2.33ZM119.89,108.92h-3.01v-.05c0-.9.72-1.94,1.64-1.94s1.72.8,1.72,1.64c0,.25-.1.35-.35.35ZM116.99,108.82h2.9c.19,0,.25-.06.25-.25,0-.79-.78-1.54-1.61-1.54s-1.51.95-1.54,1.79Z"/><path class="cls-3" d="M122.32,108.43c0-1.2.93-1.8,2.02-1.8.25,0,1.29.12,1.47.34.09.12.08.63.08.73,0,.41.06.58-.17.58-.15,0-.29-1.3-1.65-1.3-.58,0-1.05.34-1.05.96,0,.5.39.81,1.96,1.44.85.36,1.24.82,1.24,1.78,0,1.12-.91,2.06-2.02,2.06-1.05,0-1.32-.44-1.68-.44-.33,0-.33-.02-.33-1.2,0-.26-.04-.74.18-.74.33,0,.17,1.98,1.78,1.98.73,0,1.33-.45,1.33-1.23s-.77-1.03-1.36-1.32c-.81-.4-1.81-.79-1.81-1.86Z"/><path class="cls-3" d="M124.21,113.28c-.67,0-1.03-.18-1.3-.31-.15-.07-.26-.13-.38-.13-.38,0-.38-.07-.38-1.25,0-.03,0-.07,0-.11,0-.22-.01-.5.1-.62.04-.04.08-.05.13-.05.14,0,.2.2.28.49.17.59.43,1.49,1.5,1.49.64,0,1.28-.36,1.28-1.18,0-.67-.57-.93-1.12-1.17-.07-.03-.15-.07-.22-.1-.07-.04-.14-.07-.21-.1-.76-.37-1.63-.8-1.63-1.8,0-1.12.81-1.85,2.08-1.85.18,0,1.3.1,1.51.36.08.11.09.43.09.73v.04c0,.08,0,.15,0,.21,0,.19,0,.3-.06.37-.04.04-.09.06-.16.06-.07,0-.11-.08-.17-.23-.17-.37-.48-1.07-1.48-1.07-.6,0-1,.37-1,.91,0,.48.43.79,1.93,1.39.92.39,1.28.9,1.28,1.83,0,1.16-.93,2.11-2.08,2.11ZM122.38,110.91s-.04,0-.06.02c-.08.08-.08.36-.07.55,0,.04,0,.08,0,.11q0,1.15.28,1.15c.14,0,.27.06.43.14.25.12.6.3,1.25.3,1.09,0,1.97-.9,1.97-2,0-.89-.33-1.37-1.21-1.74-1.57-.63-2-.95-2-1.49,0-.6.44-1.01,1.1-1.01,1.06,0,1.4.76,1.57,1.13.03.08.07.16.09.17.03,0,.06-.01.08-.03.04-.04.03-.15.03-.3,0-.06,0-.13,0-.21v-.04c0-.38-.02-.6-.06-.66-.15-.19-1.14-.32-1.43-.32-.91,0-1.97.46-1.97,1.75,0,.94.8,1.33,1.57,1.71.07.04.14.07.21.1.07.03.14.07.22.1.55.25,1.18.53,1.18,1.27s-.57,1.28-1.39,1.28c-1.15,0-1.43-.98-1.6-1.56-.06-.21-.12-.42-.18-.42Z"/><path class="cls-3" d="M136.84,104.62c0,.08-.09.12-.15.12-.13,0-.18-.18-.23-.27-.36-.78-1.14-1.57-2.05-1.57-.69,0-1.25.49-1.25,1.21,0,1,2.22,3.38,5.46,6.37.38-.42.44-.96.44-1.59,0-1.75-1.41-1.15-1.41-1.63,0-.17.23-.14.35-.14.55,0,1.08.06,1.3.06.2,0,.45-.06.96-.06.14,0,.21.03.21.18,0,.24-.57.08-.64.73-.11.95-.23,1.91-.71,2.76.57.45,1.98,1.91,2.65,1.91.3,0,.45-.08.56-.08s.12.09.12.12c0,.25-.75.48-1.24.48-1.12,0-1.95-.85-2.77-1.52-1.08,1-2.22,1.52-3.69,1.52-2.21,0-4.14-1.46-4.14-3.79,0-1.6.8-2.83,2.4-3.18-.39-.48-.69-1.08-.69-1.71,0-1.37,1.22-2.04,2.43-2.04.96,0,1.53.4,1.6.4s.13-.13.27-.13c.21,0,.18.29.18.42l.04,1.42ZM137.93,111.39c-3.21-2.74-4.35-4.75-4.89-4.75-.95,0-1.64,1.17-1.64,2.04,0,2,1.91,3.67,3.84,3.67.96,0,1.95-.33,2.69-.96Z"/><path class="cls-3" d="M141.2,113.28c-.98,0-1.72-.62-2.44-1.22-.11-.09-.22-.19-.34-.28-1.13,1.04-2.27,1.5-3.69,1.5-2.08,0-4.19-1.32-4.19-3.85,0-1.69.86-2.86,2.36-3.21-.31-.4-.65-.99-.65-1.68,0-1.44,1.29-2.09,2.48-2.09.76,0,1.28.25,1.51.36.04.02.09.04.1.04,0,0,.04-.02.06-.04.05-.04.11-.09.21-.09.06,0,.11.02.15.06.09.09.08.25.08.37v.05s.04,1.42.04,1.42c0,.11-.12.17-.2.17-.14,0-.2-.15-.25-.24,0-.02-.02-.04-.02-.06-.36-.77-1.11-1.55-2.01-1.55-.68,0-1.19.5-1.19,1.16,0,.87,1.77,2.93,5.41,6.3.32-.39.39-.87.39-1.52,0-1.11-.57-1.24-.99-1.33-.23-.05-.42-.1-.42-.3,0-.05.02-.09.05-.12.07-.07.2-.07.3-.06.02,0,.03,0,.05,0,.34,0,.67.02.93.04.16.01.29.02.38.02.07,0,.15,0,.26-.02.16-.02.39-.04.7-.04.13,0,.26.03.26.23,0,.13-.11.17-.22.21-.17.07-.38.15-.42.53-.1.87-.21,1.86-.69,2.74.13.11.31.26.5.44.63.57,1.59,1.43,2.09,1.43.18,0,.31-.03.4-.05.06-.01.11-.02.15-.02.12,0,.17.09.17.17,0,.32-.85.53-1.3.53ZM138.43,111.65l.03.03c.12.1.25.2.37.31.7.59,1.43,1.2,2.37,1.2.52,0,1.19-.24,1.19-.43,0-.03,0-.07-.07-.07-.03,0-.08,0-.13.02-.1.02-.23.05-.42.05-.53,0-1.47-.84-2.15-1.45-.21-.19-.4-.36-.53-.46l-.03-.03.02-.04c.49-.87.6-1.87.7-2.74.05-.44.31-.54.49-.61.11-.04.16-.07.16-.12,0-.1-.03-.13-.16-.13-.31,0-.52.02-.69.04-.11.01-.19.02-.27.02-.09,0-.22,0-.39-.02-.26-.02-.58-.04-.92-.04-.03,0-.07,0-.11,0-.07,0-.13,0-.17.04,0,0-.02.02-.02.05,0,.12.12.15.35.2.42.1,1.06.24,1.06,1.43,0,.67-.08,1.21-.45,1.62l-.03.04-.04-.04c-3.74-3.46-5.48-5.5-5.48-6.41,0-.72.56-1.27,1.3-1.27.94,0,1.73.81,2.1,1.6,0,.02.02.04.03.06.04.1.08.18.15.18.04,0,.1-.03.1-.07l-.04-1.42v-.05c0-.09,0-.24-.05-.29-.02-.02-.04-.03-.08-.03-.06,0-.1.04-.14.07-.04.03-.08.06-.13.06-.03,0-.06-.02-.14-.05-.22-.1-.73-.35-1.46-.35-1.15,0-2.38.62-2.38,1.99,0,.7.37,1.3.68,1.68l.05.06-.08.02c-1.5.32-2.36,1.46-2.36,3.13,0,2.46,2.06,3.74,4.09,3.74,1.41,0,2.54-.46,3.66-1.5l.03-.03ZM135.25,112.4c-2.04,0-3.89-1.78-3.89-3.73,0-.95.75-2.09,1.69-2.09.27,0,.63.41,1.29,1.15.75.85,1.89,2.13,3.64,3.62l.04.04-.04.04c-.72.62-1.71.97-2.72.97ZM133.04,106.68c-.95,0-1.58,1.2-1.58,1.99,0,1.9,1.81,3.62,3.79,3.62.96,0,1.91-.33,2.61-.91-1.73-1.48-2.85-2.75-3.6-3.59-.6-.67-.99-1.11-1.21-1.11Z"/><path class="cls-3" d="M148.49,106.87c0,.51-.03.51.57.51h1.62c1.56,0,1.16-1.2,1.52-1.2.12,0,.17.17.17.29,0,.52-.03,1.03-.03,1.51,0,.39.03.78.03,1.19,0,.14-.06.19-.17.19-.46,0,.04-1.32-1.21-1.32h-2.22c-.31,0-.27.25-.27.48v2.76c0,.89-.12,1.25,1.14,1.25,3.46,0,3.98-1.54,4.17-1.54.1,0,.12.15.12.18,0,.54-.39,1.06-.75,1.45-.48.54-.81.51-1.47.51-1.14,0-2.28-.09-3.42-.06-.6.02-1.23.06-1.83.06-.14,0-.23-.03-.23-.15.03-.18.18-.15.66-.39.39-.18.42-.6.42-1.31v-6.84c0-.68,0-1.4-.81-1.52-.12-.03-.45-.06-.45-.24,0-.12.09-.18.53-.18,2.83,0,3.61.06,4.24.06.3,0,1.68-.06,2.15-.06.12,0,.15.15.15.33,0,1.67-.21,1.78-.3,1.78-.36,0-.12-.72-.36-1.06-.39-.51-1.95-.42-2.55-.42-1.44,0-1.41-.06-1.41.94v2.79Z"/><path class="cls-3" d="M151.89,113.18s-.06,0-.09,0h-.1c-.49,0-.99-.02-1.47-.03-.64-.02-1.3-.04-1.95-.03-.24,0-.48.02-.72.03-.37.02-.75.03-1.11.03-.07,0-.28,0-.28-.2.02-.15.12-.19.3-.26.09-.04.22-.09.39-.17.35-.16.39-.53.39-1.26v-6.84c0-.66,0-1.35-.77-1.46-.02,0-.05-.01-.07-.02-.16-.03-.42-.08-.42-.27s.2-.23.58-.23c1.93,0,2.89.03,3.53.05.3,0,.51.01.71.01.13,0,.49-.01.87-.02.48-.02,1.02-.04,1.28-.04.2,0,.2.29.2.38,0,1.65-.2,1.84-.35,1.84-.25,0-.27-.27-.28-.53-.01-.19-.02-.41-.12-.55-.33-.43-1.59-.41-2.27-.4-.09,0-.17,0-.24,0h-.23c-.6,0-.9,0-1.03.12-.1.1-.1.32-.1.71v2.92c0,.18,0,.29.04.34.05.05.2.05.48.05h1.62c1.02,0,1.17-.52,1.26-.87.05-.18.1-.33.25-.33s.22.17.22.34c0,.27,0,.54-.02.79,0,.25-.01.49-.01.72,0,.19,0,.39.01.58,0,.2.02.4.02.61s-.14.25-.22.25c-.22,0-.26-.23-.31-.46-.07-.38-.17-.86-.91-.86h-2.22c-.08,0-.13.02-.17.05-.06.06-.06.18-.05.3,0,.03,0,.05,0,.08v2.76c0,.07,0,.15,0,.21,0,.38,0,.63.14.78.14.14.43.2.95.2,2.78,0,3.64-1,3.97-1.38.09-.11.14-.17.2-.17.14,0,.17.17.17.23,0,.45-.25.93-.76,1.49-.45.5-.77.53-1.32.53ZM148.77,113.01c.49,0,.99.02,1.47.03.48.02.98.03,1.46.03h.1s.06,0,.09,0c.54,0,.83-.02,1.24-.49.5-.54.74-1,.74-1.42,0,0,0-.13-.07-.13-.02,0-.08.07-.13.13-.33.39-1.22,1.41-4.04,1.41-.55,0-.86-.07-1.02-.23-.18-.18-.18-.46-.17-.85,0-.07,0-.14,0-.21v-2.76s0-.05,0-.08c0-.14,0-.28.08-.37.05-.05.13-.08.24-.08h2.22c.83,0,.93.54,1.01.94.05.24.08.38.21.38.06,0,.11-.02.11-.14,0-.2,0-.41-.02-.6,0-.19-.01-.39-.01-.58,0-.24,0-.47.01-.73,0-.26.02-.52.02-.79,0-.1-.04-.23-.11-.23s-.1.09-.15.26c-.1.35-.27.94-1.36.94h-1.62c-.32,0-.47,0-.55-.08-.07-.07-.07-.19-.07-.41v-2.92c0-.42,0-.65.13-.79.15-.15.45-.15,1.1-.15h.23c.07,0,.15,0,.24,0,.74-.01,1.99-.03,2.35.44.11.17.13.4.14.61.02.27.03.44.18.44.04,0,.25-.08.25-1.73,0-.19-.03-.28-.1-.28-.26,0-.8.02-1.28.03-.39.01-.73.03-.87.03-.2,0-.42,0-.72-.01-.64-.02-1.6-.05-3.53-.05-.47,0-.47.07-.47.13,0,.11.21.15.34.18.03,0,.05.01.07.02.85.13.85.89.85,1.56v6.84c0,.71-.03,1.16-.45,1.35-.17.08-.3.14-.39.17-.18.07-.22.09-.24.18,0,.04.01.09.17.09.36,0,.74-.02,1.11-.03.24-.01.48-.02.72-.03.16,0,.32,0,.49,0Z"/><path class="cls-3" d="M154.89,107.44c-.71,0-.81,0-.81-.1,0-.12.38-.38,1.14-1.21.3-.36.45-.69.57-.69.21,0,.19.31.19,1.4h1.65c.38,0,.54-.25.58-.25.08,0,.1.07.1.12,0,.06-.04.13-.09.21l-.3.54h-1.95v4.37c.03.61.45.9,1.05.9.79,0,1.02-.35,1.27-.35.06,0,.12.02.12.14,0,.22-.81.73-1.86.73-.69,0-1.68-.19-1.68-1.74v-4.05Z"/><path class="cls-3" d="M156.57,113.28c-1.15,0-1.73-.6-1.73-1.79v-4c-.72,0-.81,0-.81-.16,0-.08.1-.18.33-.4.18-.18.46-.45.83-.85.12-.14.21-.28.29-.39.14-.2.22-.32.32-.32.16,0,.2.15.22.3.02.19.02.49.02.95v.15h1.6c.26,0,.41-.13.49-.2.04-.03.06-.05.09-.05.11,0,.16.1.16.17s-.05.15-.1.24l-.31.56h-1.93v4.31c.03.55.38.85,1,.85.5,0,.76-.14.96-.24.12-.06.21-.11.32-.11.11,0,.17.06.17.19,0,.26-.83.79-1.91.79ZM155.79,105.48s-.14.14-.24.27c-.08.11-.18.25-.29.4-.37.4-.65.67-.83.85-.17.16-.3.29-.3.33,0,.05.21.05.76.05h.05v4.1c0,1.14.53,1.69,1.63,1.69s1.81-.52,1.81-.68c0-.08-.03-.08-.07-.08-.08,0-.16.04-.27.1-.2.1-.48.25-1,.25-.67,0-1.07-.35-1.1-.95v-4.42h1.97l.29-.51c.04-.07.08-.14.08-.19,0-.01,0-.06-.05-.07,0,0-.02.02-.03.03-.08.07-.26.23-.56.23h-1.7v-.25c0-.45,0-.75-.02-.93-.03-.21-.08-.21-.12-.21Z"/><path class="cls-3" d="M160.82,107.7c.57-.54,1.31-1.06,2.16-1.06,1.92,0,2.5,1.66,2.5,2.95v2.5c0,.78,1.2.47,1.2.84,0,.16-.13.19-.3.19-.27,0-.69-.06-1.26-.06s-1.06.06-1.23.06c-.15,0-.24-.04-.24-.17,0-.23.73-.23.73-.77v-2.74c0-1.86-1.29-2.21-1.81-2.21-.67,0-1.75.58-1.75,1.35v3.16c0,1.29,1.32.87,1.32,1.16,0,.18-.07.21-.25.21-.31,0-1.06-.06-1.53-.06s-1.12.06-1.37.06c-.1,0-.15-.08-.15-.15,0-.3.89-.14.89-.87v-8.47c0-.9-1.16-.51-1.16-.83,0-.09.04-.15.12-.17,1.1-.21,1.6-.75,1.95-.75.09,0,.18.09.18.24v5.56Z"/><path class="cls-3" d="M166.39,113.18c-.11,0-.25-.01-.41-.02-.23-.02-.52-.04-.85-.04-.38,0-.72.03-.95.04-.12,0-.22.02-.28.02-.24,0-.29-.12-.29-.22,0-.12.13-.18.28-.25.21-.1.46-.22.46-.51v-2.74c0-2.13-1.69-2.15-1.76-2.15-.67,0-1.7.58-1.7,1.3v3.16c0,.83.58.92.96.97.2.03.36.05.36.19,0,.24-.14.26-.31.26-.14,0-.38-.01-.63-.03-.3-.02-.65-.03-.9-.03-.27,0-.61.02-.89.04-.2.01-.38.02-.48.02-.14,0-.2-.1-.2-.2,0-.15.16-.21.33-.27.26-.09.55-.19.55-.6v-8.47c0-.52-.42-.57-.75-.61-.22-.03-.4-.05-.4-.21,0-.11.06-.19.16-.21.64-.12,1.08-.36,1.4-.53.24-.13.41-.22.56-.22.11,0,.23.11.23.29v5.45c.73-.67,1.42-1,2.11-1,1.89,0,2.56,1.62,2.56,3.01v2.5c0,.42.38.49.72.55.25.05.48.09.48.29,0,.25-.25.25-.35.25ZM165.13,113.02c.34,0,.63.02.86.04.16.01.29.02.4.02.21,0,.25-.06.25-.14,0-.1-.15-.14-.4-.19-.34-.06-.8-.15-.8-.65v-2.5c0-2.14-1.27-2.9-2.45-2.9-.68,0-1.38.34-2.13,1.05l-.09.08v-5.68c0-.12-.07-.19-.13-.19-.13,0-.3.09-.52.21-.33.18-.77.42-1.42.54-.07.01-.08.07-.08.12,0,.07.12.09.32.11.33.04.84.1.84.71v8.47c0,.48-.36.61-.62.7-.16.06-.26.09-.26.17,0,.02,0,.1.1.1.1,0,.27-.01.47-.02.28-.02.62-.04.89-.04.26,0,.6.02.91.03.25.01.48.03.62.03.17,0,.2-.03.2-.16,0-.05-.14-.07-.27-.09-.39-.06-1.04-.15-1.04-1.07v-3.16c0-.8,1.1-1.4,1.81-1.4.08,0,1.87.03,1.87,2.26v2.74c0,.36-.3.5-.51.6-.11.05-.22.1-.22.16,0,.04,0,.11.19.11.06,0,.15,0,.27-.02.23-.02.57-.04.96-.04Z"/><path class="cls-3" d="M168.08,108.25c0-.9-.82-.51-.82-.82,0-.09.06-.15.13-.17.96-.27,1.26-.75,1.6-.75.09,0,.18.09.18.24v5.38c0,.77,1.18.44,1.18.83,0,.12-.09.17-.28.17-.31,0-.78-.06-1.4-.06-.48,0-.87.06-1.04.06-.12,0-.21-.02-.22-.17,0-.38.66.19.66-1.17v-3.54ZM169.25,104.34c0,.18-.44.78-.63.78-.18,0-.63-.61-.63-.78s.45-.79.63-.79c.19,0,.63.61.63.79Z"/><path class="cls-3" d="M170.07,113.18c-.13,0-.29-.01-.48-.02-.25-.02-.56-.04-.92-.04-.3,0-.57.02-.76.04-.12.01-.21.02-.27.02-.1,0-.25,0-.27-.21,0-.17.12-.2.22-.22.19-.04.44-.1.44-.95v-3.54c0-.52-.28-.57-.53-.61-.15-.03-.3-.05-.3-.21,0-.11.07-.19.18-.21.52-.15.85-.36,1.09-.52.21-.13.35-.23.52-.23.11,0,.23.11.23.29v5.38c0,.4.37.47.7.53.25.05.49.09.49.29,0,.22-.24.22-.34.22ZM168.68,113.02c.36,0,.67.02.93.04.18.01.34.02.47.02.23,0,.23-.07.23-.11,0-.11-.15-.15-.4-.19-.33-.06-.78-.14-.78-.63v-5.38c0-.12-.07-.19-.13-.19-.14,0-.27.09-.47.21-.25.16-.58.38-1.13.53-.05.01-.1.05-.1.12s.06.08.21.11c.24.04.61.11.61.71v3.54c0,.94-.31,1-.52,1.05-.11.02-.14.03-.14.12,0,.1.05.11.17.11.06,0,.15,0,.26-.02.2-.02.47-.04.77-.04ZM168.62,105.17c-.22,0-.68-.65-.68-.83s.46-.85.68-.85c.23,0,.68.65.68.85s-.45.83-.68.83ZM168.62,103.59c-.15,0-.58.6-.58.74s.43.73.58.73c.16,0,.58-.56.58-.73s-.42-.74-.58-.74Z"/><path class="cls-3" d="M170.5,110.05c0-1.88,1.48-3.42,3.38-3.42.75,0,1.77.21,1.81.55.03.33.01.69.01.89,0,.21-.04.31-.12.31-.15,0-.31-.29-.36-.35-.51-.69-1.17-.92-1.86-.92-1.27,0-1.77,1.32-1.77,2.4,0,1.62.96,2.96,2.66,2.96,1.17,0,1.83-.87,2.05-.87.04,0,.12.04.12.09,0,.24-.9,1.53-2.96,1.53-1.73,0-2.97-1.52-2.97-3.18Z"/><path class="cls-3" d="M173.47,113.28c-1.67,0-3.02-1.45-3.02-3.23,0-1.91,1.54-3.47,3.43-3.47.75,0,1.81.21,1.87.6.02.26.02.54.02.74,0,.06,0,.11,0,.15,0,.3-.09.37-.17.37-.15,0-.3-.21-.37-.33-.01-.02-.02-.03-.03-.04-.44-.6-1.04-.89-1.82-.89-1.18,0-1.72,1.22-1.72,2.35,0,2.01,1.31,2.9,2.6,2.9.8,0,1.36-.42,1.7-.67.17-.12.27-.2.36-.2.07,0,.17.06.17.14,0,.23-.87,1.58-3.01,1.58ZM173.88,106.68c-1.83,0-3.32,1.51-3.32,3.37,0,1.73,1.31,3.13,2.92,3.13,2.03,0,2.9-1.28,2.9-1.48,0-.01-.05-.04-.07-.04-.05,0-.17.08-.3.18-.35.26-.93.69-1.76.69-1.62,0-2.71-1.21-2.71-3.01,0-1.18.57-2.45,1.82-2.45.81,0,1.44.31,1.9.94,0,0,.02.02.03.04.05.08.19.28.29.28.02,0,.07-.06.07-.26,0-.04,0-.1,0-.15,0-.2,0-.47-.02-.73-.04-.29-.98-.51-1.76-.51Z"/><path class="cls-3" d="M177.13,108.43c0-1.2.93-1.8,2.02-1.8.25,0,1.29.12,1.47.34.09.12.08.63.08.73,0,.41.06.58-.17.58-.15,0-.29-1.3-1.65-1.3-.58,0-1.05.34-1.05.96,0,.5.39.81,1.96,1.44.85.36,1.24.82,1.24,1.78,0,1.12-.92,2.06-2.02,2.06-1.05,0-1.32-.44-1.68-.44-.33,0-.33-.02-.33-1.2,0-.26-.04-.74.18-.74.33,0,.17,1.98,1.78,1.98.73,0,1.33-.45,1.33-1.23s-.77-1.03-1.36-1.32c-.81-.4-1.81-.79-1.81-1.86Z"/><path class="cls-3" d="M179.02,113.28c-.67,0-1.03-.18-1.3-.31-.15-.07-.26-.13-.38-.13-.38,0-.38-.07-.38-1.25,0-.03,0-.07,0-.11,0-.22-.01-.5.1-.62.04-.04.08-.05.13-.05.14,0,.2.2.28.49.17.59.43,1.49,1.5,1.49.64,0,1.28-.36,1.28-1.18,0-.67-.57-.93-1.12-1.17-.07-.03-.15-.07-.22-.1-.07-.04-.14-.07-.21-.1-.76-.37-1.63-.8-1.63-1.8,0-1.12.81-1.85,2.08-1.85.18,0,1.3.1,1.51.36.08.11.09.43.09.73v.04c0,.08,0,.15,0,.21,0,.19,0,.3-.06.37-.04.04-.09.06-.16.06-.07,0-.11-.08-.17-.23-.17-.37-.48-1.07-1.48-1.07-.6,0-1,.37-1,.91,0,.48.43.79,1.93,1.39.92.39,1.28.9,1.28,1.83,0,1.16-.93,2.11-2.08,2.11ZM177.19,110.91s-.04,0-.06.02c-.08.08-.08.36-.07.55,0,.04,0,.08,0,.11q0,1.15.28,1.15c.14,0,.27.06.43.14.25.12.6.3,1.25.3,1.09,0,1.97-.9,1.97-2,0-.89-.33-1.37-1.21-1.74-1.57-.63-2-.95-2-1.49,0-.6.44-1.01,1.1-1.01,1.06,0,1.4.76,1.57,1.13.03.08.07.16.09.17.03,0,.06-.01.08-.03.04-.04.03-.15.03-.3,0-.06,0-.13,0-.21v-.04c0-.38-.02-.6-.06-.66-.15-.19-1.14-.32-1.43-.32-.91,0-1.97.46-1.97,1.75,0,.94.8,1.33,1.57,1.71.07.04.14.07.21.1.07.03.14.07.22.1.55.25,1.18.53,1.18,1.27s-.57,1.28-1.39,1.28c-1.15,0-1.43-.98-1.6-1.56-.06-.21-.12-.42-.18-.42Z"/></g></g></svg>