<?xml version="1.0" encoding="UTF-8"?>
<svg width="124px" height="183px" viewBox="0 0 124 183" version="1.1" xmlns="http://www.w3.org/2000/svg" xmlns:xlink="http://www.w3.org/1999/xlink">
    <title>orange-shield</title>
    <g id="Page-1" stroke="none" stroke-width="1" fill="none" fill-rule="evenodd">
        <g id="orange-shield" transform="translate(-0.000155, -0.000120)" fill-rule="nonzero">
            <path d="M62.0003204,0.000155513036 C58.9491748,-0.0145085841 55.9817284,1.00827666 53.5738266,2.90457169 C51.1659248,4.80089286 49.4573246,7.46076714 48.7221151,10.4574393 L40.9721897,10.4574393 L40.9721897,15.084717 C40.9721897,15.084717 39.8872002,18.5878539 33.9197577,22.0909907 C29.5524164,24.2987512 24.7213713,25.4019779 19.8407267,25.3065566 L15.965764,25.3065566 L15.965764,31.5024031 L0.259119548,31.5024031 L0.259119548,50.3775136 L62.0003204,50.3775136 L62.0003204,0.000155513036 Z M62.0003204,183 C53.810716,178.68722 45.9373086,173.785966 38.4405475,168.333882 C22.9329469,157.398083 11.4200195,141.593968 5.68406727,123.368245 C1.88293557,110.331086 -0.0313993188,96.8055795 0.00038947076,83.2128857 L0.00038947076,56.5733601 L62.0003204,56.5733601 L62.0003204,183 Z" id="Shape" fill="#D66027"></path>
            <path d="M123.740876,50.3775136 L61.9998038,50.3775136 L61.9998038,0.000155513036 C65.0509494,-0.0145085841 68.0183958,1.00827666 70.4262976,2.90457169 C72.8341994,4.80089286 74.5427996,7.46076714 75.2780092,10.4574393 L83.0279345,10.4574393 L83.0279345,15.084717 C83.0279345,15.084717 84.112924,18.5878539 90.0803665,22.0909907 C94.4474495,24.2987512 99.2784946,25.4019779 104.159398,25.3065566 L107.956861,25.3065566 L107.956861,31.5024031 L123.740876,31.5024031 L123.740876,50.3775136 Z M61.9998038,183 C70.1891499,178.68722 78.0625573,173.785966 85.5595768,168.333882 C101.067177,157.398083 112.57995,141.593968 118.315928,123.368245 C122.117008,110.331086 124.031498,96.8055795 123.999608,83.2128857 L123.999608,56.5733601 L61.9998038,56.5733601 L61.9998038,183 Z" id="Shape" fill="#C0511B"></path>
            <polygon id="Path" fill="#FFFFFF" points="23.5604325 99.4214293 47.3268702 116.597257 38.2336245 144.360924 62.0000621 127.185096 62.0000621 71.6577627 52.9326495 99.4214293"></polygon>
            <polygon id="Path" fill="#F3CFBE" points="85.7662414 144.360924 76.6729957 116.597257 100.439433 99.4214293 71.0672164 99.4214293 61.9998038 71.6577627 61.9998038 127.185096"></polygon>
        </g>
    </g>
</svg>