<?xml version="1.0" encoding="UTF-8" standalone="no"?>
<!DOCTYPE svg PUBLIC "-//W3C//DTD SVG 1.1//EN" "http://www.w3.org/Graphics/SVG/1.1/DTD/svg11.dtd">
<svg version="1.1" xmlns:xl="http://www.w3.org/1999/xlink" xmlns:dc="http://purl.org/dc/elements/1.1/" xmlns="http://www.w3.org/2000/svg" viewBox="0 0 124 183" width="124" height="183">
  <defs/>
  <metadata> Produced by OmniGraffle 7.18.5\n2021-07-29 16:47:59 +0000</metadata>
  <g id="Canvas_1" stroke-opacity="1" stroke="none" stroke-dasharray="none" fill="none" fill-opacity="1">
    <title>Canvas 1</title>
    <g id="Canvas_1_Layer_1">
      <title>Layer 1</title>
      <g id="Group_2">
        <title>Layer_2</title>
        <g id="Group_3">
          <title>Layer_1-2</title>
          <g id="Group_4">
            <title>_Full-White_</title>
            <g id="Group_25">
              <title>_Shield_</title>
              <g id="Graphic_27">
                <path d="M .12299339 50.509725 L 123.94683 50.509725 L 123.94683 31.631723 L 108.43133 31.631723 L 108.43133 25.51919 L 104.82865 25.51919 C 104.82865 25.51919 96.7947 25.83142 90.76622 22.264776 C 84.73775 18.69813 83.70499 15.383672 83.68097 15.371663 L 83.68097 10.46002 L 75.65902 10.46002 C 74.26429 4.3401745 68.82206 -.0013055632 62.54529 -.0013055632 C 56.26853 -.0013055632 50.82629 4.3401745 49.431565 10.46002 L 41.397607 10.46002 L 41.397607 15.371663 C 41.397607 15.371663 40.25676 18.746166 34.31235 22.264776 C 28.367943 25.783386 20.26193 25.51919 20.26193 25.51919 L 15.458368 25.51919 L 15.458368 31.631723 L .002904323 31.631723 L .002904323 50.43767" fill="white"/>
              </g>
              <g id="Graphic_26">
                <path d="M .11962583 91.18389 C .3148847 100.24073 1.5844945 109.24235 3.901801 117.99978 C 8.188266 134.50002 16.136837 148.9107 28.840143 160.6194 C 38.58975 169.61406 49.84022 176.44713 61.342834 182.89592 C 61.78276 183.05968 62.27149 183.02912 62.68761 182.81185 C 70.710425 178.42826 78.45373 173.5513 85.87294 168.20902 C 101.38338 157.18789 112.82164 141.35318 118.41165 123.16361 C 122.50601 110.12194 123.8748 96.74402 123.97085 83.1019 C 123.97085 75.992625 123.97085 63.59943 123.97085 56.47815 L .02357059 56.47815 C .02357059 66.28943 -.10850537 81.37262 .11962583 91.18389 Z M 52.91399 99.59013 L 61.93117 71.87357 L 70.93635 99.59013 L 100.17317 99.59013 L 76.5916 116.69081 L 85.59678 144.40737 L 62.02723 127.29468 L 38.445667 144.40737 L 47.450845 116.69081 L 23.869284 99.5541 Z" fill="white"/>
              </g>
            </g>
            <g id="Graphic_5">
              <path d="M 64.71 147.05 C 65.15403 147.0539 65.59024 147.16724 65.98 147.38 C 66.40849 147.60222 66.75778 147.9515 66.98 148.38 C 67.20666 148.77233 67.32728 149.21691 67.33 149.67 C 67.32511 150.11833 67.208236 150.55834 66.99 150.95 C 66.76173 151.37403 66.41403 151.72173 65.99 151.95 C 65.19684 152.40321 64.22316 152.40321 63.43 151.95 C 63.00597 151.72173 62.65827 151.37403 62.43 150.95 C 62.20722 150.56019 62.09003 150.11898 62.09 149.67 C 62.08742 149.2162 62.208414 148.77026 62.44 148.38 C 62.66222 147.9515 63.01151 147.60222 63.44 147.38 C 63.82929 147.16607 64.26581 147.05264 64.71 147.05 Z M 64.71 147.48 C 64.338466 147.48062 63.97337 147.57706 63.65 147.76 C 63.31328 147.94142 63.03564 148.21559 62.85 148.55 C 62.65932 148.87793 62.55924 149.25066 62.56 149.63 C 62.559346 150.00486 62.65581 150.3735 62.84 150.7 C 63.02564 151.03441 63.30328 151.30858 63.64 151.49 C 64.30099 151.87645 65.11901 151.87645 65.78 151.49 C 66.11672 151.30858 66.39436 151.03441 66.58 150.7 C 66.75974 150.37172 66.8559 150.00424 66.86 149.63 C 66.85619 149.25127 66.75642 148.8797 66.57 148.55 C 66.38436 148.21559 66.10672 147.94142 65.77 147.76 C 65.44629 147.5779 65.08142 147.48151 64.71 147.48 Z M 63.58 151.06 L 63.58 148.28 L 64.58 148.28 C 64.81935 148.27063 65.058736 148.2976 65.29 148.36 C 65.432425 148.41046 65.555036 148.50505 65.64 148.63 C 65.84253 148.92002 65.80438 149.3142 65.55 149.56 C 65.3978 149.71743 65.18896 149.80745 64.97 149.81 C 65.05741 149.84703 65.13841 149.89766 65.21 149.96 C 65.36666 150.12755 65.50417 150.31202 65.62 150.51 L 65.96 151.06 L 65.41 151.06 L 65.17 150.62 C 65.05209 150.3778 64.89306 150.15787 64.7 149.97 C 64.592525 149.90271 64.466495 149.8712 64.34 149.88 L 64 149.88 L 64 151.06 Z M 64.03 149.49 L 64.57 149.49 C 64.753666 149.5067 64.93815 149.4684 65.1 149.38 C 65.194214 149.30551 65.24641 149.18993 65.24 149.07 C 65.24304 148.99075 65.21828 148.91292 65.17 148.85 C 65.12528 148.78011 65.05836 148.72728 64.98 148.7 C 64.83413 148.67837 64.68587 148.67837 64.54 148.7 L 64 148.7 Z" fill="white"/>
            </g>
          </g>
        </g>
      </g>
    </g>
  </g>
</svg>
