<svg xmlns="http://www.w3.org/2000/svg" viewBox="0 0 103.28 152.39"><defs><style>.cls-1{opacity:0.5;}.cls-2{fill:#fff;}</style></defs><g id="Layer_2" data-name="Layer 2"><g id="Layer_1-2" data-name="Layer 1"><g id="Layer_2-2" data-name="Layer 2" class="cls-1"><g id="Layer_1-2-2" data-name="Layer 1-2"><g id="_Full-White_" data-name=" Full-White "><g id="_Shield_" data-name=" Shield "><path class="cls-2" d="M.15,42.06H103.26V26.34H90.34V21.25h-3s-6.69.26-11.71-2.71-5.88-5.73-5.9-5.74V8.71H63.05a11.2,11.2,0,0,0-21.84,0H34.52V12.8s-1,2.81-5.9,5.74-11.7,2.71-11.7,2.71h-4v5.09H.05V42"/><path class="cls-2" d="M.13,75.93A95.09,95.09,0,0,0,3.28,98.26C6.85,112,13.47,124,24.05,133.75c8.12,7.49,17.49,13.18,27.07,18.55a1.37,1.37,0,0,0,1.12-.07,184.17,184.17,0,0,0,19.31-12.16,71.91,71.91,0,0,0,27.1-37.51c3.41-10.86,4.55-22,4.63-33.36V47H.05c0,8.17-.11,20.73,0,28.9m44.05,7,7.51-23.08,7.5,23.08H83.46L63.82,97.17l7.5,23.08L51.69,106,32.05,120.25l7.5-23.08L19.91,82.9Z"/></g><path class="cls-2" d="M64.76,147.05a2.82,2.82,0,0,1,1.27.33,2.41,2.41,0,0,1,1,1,2.58,2.58,0,0,1,.35,1.29A2.72,2.72,0,0,1,67,151a2.41,2.41,0,0,1-1,1,2.55,2.55,0,0,1-2.56,0,2.35,2.35,0,0,1-1-1,2.61,2.61,0,0,1-.34-1.28,2.55,2.55,0,0,1,.35-1.29,2.41,2.41,0,0,1,1-1A2.79,2.79,0,0,1,64.76,147.05Zm0,.43a2.18,2.18,0,0,0-1.06.28,2,2,0,0,0-.8.79,2.16,2.16,0,0,0-.29,1.08,2.09,2.09,0,0,0,.28,1.07,1.9,1.9,0,0,0,.8.79,2.1,2.1,0,0,0,2.14,0,2,2,0,0,0,.8-.79,2.3,2.3,0,0,0,.28-1.07,2.19,2.19,0,0,0-.29-1.08,2.09,2.09,0,0,0-.8-.79A2.3,2.3,0,0,0,64.76,147.48Zm-1.13,3.58v-2.78h1a2.42,2.42,0,0,1,.71.08.77.77,0,0,1,.35.27.73.73,0,0,1-.09.93.79.79,0,0,1-.58.25,1,1,0,0,1,.24.15,3.57,3.57,0,0,1,.41.55l.34.55h-.55l-.24-.44a2.51,2.51,0,0,0-.47-.65.64.64,0,0,0-.36-.09h-.34v1.18Zm.45-1.57h.54a.89.89,0,0,0,.53-.11.37.37,0,0,0,.14-.31.36.36,0,0,0-.07-.22.4.4,0,0,0-.19-.15,1.62,1.62,0,0,0-.44,0h-.54Z"/></g></g></g></g></g></svg>