<?xml version="1.0" encoding="utf-8"?>
<!-- Generator: Adobe Illustrator 28.0.0, SVG Export Plug-In . SVG Version: 6.00 Build 0)  -->
<svg version="1.1" id="artwork" xmlns="http://www.w3.org/2000/svg" xmlns:xlink="http://www.w3.org/1999/xlink" x="0px" y="0px"
	 width="278px" height="105.7px" viewBox="0 0 278 105.7" style="enable-background:new 0 0 278 105.7;" xml:space="preserve">
<style type="text/css">
	.st0{fill:#5E4E77;}
	.st1{fill:#BB3D23;}
	.st2{fill:#BB3E23;}
</style>
<g>
	<path class="st0" d="M160.8,0.4c1.3,4.8,2.5,9.4,3.8,14.1c4.9,18.9,9.9,37.7,14.8,56.6c0.2,1,0.6,2,0.8,3.1
		c0.1,0.5,0.3,0.7,0.8,0.6c0.1,0,0.3,0,0.5,0c31.2,0,62.3,0,93.4,0c0.1,0,0.2,0,0.3,0c0,0.3-0.2,0.3-0.3,0.5c-3,1.9-6,3.9-9,5.9
		c-0.5,0.3-0.9,0.5-1.4,0.5c-29.4,0-58.8,0-88.2,0c-0.8,0-1-0.3-1.3-1c-4.7-17.1-9.4-34.1-14.1-51.2c-0.3,0-0.2,0.3-0.2,0.5
		c-4.1,17-8.2,33.8-12.3,50.8c-0.1,0.7-0.3,0.9-1.1,0.9c-48.7,0-97.4,0-146.1,0c-0.1,0-0.1,0-0.2,0c0-0.3,0.3-0.3,0.5-0.5
		c3.2-1.9,6.4-4,9.4-5.9c0.5-0.3,0.9-0.3,1.4-0.3c43.2,0,86.5,0,129.6,0c0.9,0,1.3-0.2,1.5-1.1c3-12.5,5.9-25,9-37.6
		c2.8-11.7,5.6-23.4,8.4-35.2C160.7,0.8,160.7,0.8,160.8,0.4z"/>
	<path class="st1" d="M106.2,44.3c0,5.3,0,10.7,0,16c0,1.6,0,3.2,0.3,4.8c0.5,2.2,1.5,3.6,3.9,4c0.8,0.1,1.7,0.3,2.5,0.3
		c0.5,0,1,0.1,1,0.7c0,0.7-0.5,0.8-1,0.9c-0.3,0-0.6,0-0.9,0c-5.3-0.2-10.6-0.6-15.9,0c-0.3,0-0.7,0-1,0c-0.3,0-0.7-0.2-0.7-0.7
		c0-0.3,0.2-0.6,0.5-0.8c0.2-0.1,0.5-0.2,0.8-0.2c2.3-0.3,3.5-1.8,4.1-4c0.6-2.3,0.8-4.7,0.8-7.1c0-9.2,0-18.4,0-27.7
		c0-1.7-0.1-3.4-0.5-5.1c-0.5-2.8-1.6-3.9-4.4-4.3c-0.3,0-0.7-0.1-1-0.1c-0.3-0.1-0.6-0.2-0.7-0.6c0-0.5,0.2-0.7,0.6-0.8
		c0.5-0.1,0.9-0.2,1.4-0.1c4.4,0.8,8.9,0.3,13.3,0c4.6-0.3,9.1,0,13.2,2.3c3.6,2,6.3,4.9,6.7,9.2c0.6,5.2-1,9.6-5.3,12.9
		c-4.2,3.2-9,4.2-14.1,3c-0.6-0.1-1-0.3-1.6-0.6c-0.2-0.1-0.5-0.3-0.3-0.7c0.1-0.3,0.3-0.3,0.7-0.3c0.2,0,0.6,0.1,0.8,0.1
		c2.6,0.5,5.2,0.3,7.7-0.6c4.4-1.6,6.9-5.8,6.7-10.6c-0.3-6.8-5.8-10.9-11.3-12c-1.3-0.2-2.5-0.3-3.9-0.3c-1.8,0-2.4,0.6-2.5,2.4
		c0,4.2,0,8.3-0.1,12.5C106.2,39.7,106.2,42,106.2,44.3L106.2,44.3z"/>
	<path class="st1" d="M202.4,45.9c0-5.8,0-11.7,0-17.5c0-0.5,0-1,0-1.5c-0.3-3-1.5-4.2-4.4-4.9c-0.5-0.1-0.9-0.2-1.4-0.3
		c-0.3-0.1-0.7-0.3-0.7-0.8c0-0.5,0.3-0.7,0.8-0.7c0.5,0,0.9-0.1,1.3,0c4.7,0.5,9.4,0.3,14.1,0.1c0.2,0,0.5,0,0.6,0
		c0.5,0,0.9-0.1,1,0.5c0.1,0.6-0.3,0.9-0.8,1c-0.3,0.1-0.7,0.2-1.1,0.2c-1.8,0.3-2.8,1.4-3.3,3.1c-0.3,1.1-0.5,2.4-0.5,3.5
		c0,10.8,0,21.5,0,32.3c0,1.7,0,3.4,0.3,5.1c0.2,1.4,0.6,1.7,1.9,1.9c3.4,0.6,6.8,0.3,10.2-0.1c2.7-0.3,5.3-0.9,8-2
		c1.9-0.8,3.6-1.9,4.7-3.9c0.2-0.5,0.6-0.9,1.1-0.7c0.6,0.2,0.3,0.8,0.2,1.1c-0.6,4-4,7.4-8.3,8.4c-2.8,0.7-5.6,0.5-8.4,0.2
		c-6.5-0.6-13-0.8-19.3,0.1c-0.2,0-0.3,0-0.6,0c-0.3,0-0.8-0.1-0.9-0.6c-0.1-0.5,0.2-0.7,0.6-0.9c0.2-0.1,0.5-0.2,0.7-0.2
		c2.5-0.7,3.6-2.4,3.9-4.9c0.1-1.5,0.1-3.1,0.1-4.6C202.5,55.4,202.4,50.6,202.4,45.9z"/>
	<path class="st0" d="M166.5,94.7c0.7-0.2,2.4-0.2,3.3,0c-1.5,0.3-0.9,1.1-0.6,1.9c0.5,1.1,0.9,2.2,1.5,3.5c0.6-1.5,1.1-2.7,1.4-4.1
		c0.2-0.9-0.5-1-1-1.5c0.7,0,1.5-0.1,2.2,0c0.8,0.2,1.1-0.2,1.6-0.7c0.2-0.2,0.3-0.7,0.8-0.9c0.1,0,0.1,0.1,0.1,0.1
		c0.3,0.5-0.6,1.4,0.6,1.5c0.7,0,1.3,0.1,1.9-0.1c0,0.8-0.3,1-1.1,1c-0.2,0-0.5,0-0.7,0c-0.6-0.1-0.8,0.1-0.8,0.7c0,1.1,0,2.3,0,3.4
		c0,1.3,0.7,1.8,1.9,1.4c0.2-0.1,0.3-0.2,0.7-0.2c-0.5,0.8-1.6,1.1-2.5,0.9c-0.9-0.2-1.3-0.9-1.3-1.7c0-1.3,0-2.5,0-3.6
		c0-0.5,0-0.7-0.6-0.8c-1-0.1-0.9-0.2-1.4,0.8c-0.9,2.6-1.8,5.1-2.7,7.7c-0.2,0.8-0.7,0.9-1.6,0.7c2.3-1.8,1.5-3.8,0.5-5.7
		c-0.3-0.8-0.7-1.6-1-2.4C167.6,95.7,167.4,94.9,166.5,94.7z"/>
	<path class="st0" d="M72.6,101.3c-1.5,0-2.8,0-4.6,0c1.9-0.7,1.6-2,1.6-3.3c0.1-1.9,0-3.8,0-5.7c0-1,0.1-2.2-1.5-2.2
		c0.1-0.1,0.1-0.2,0.1-0.2c1.6,0,3.2-0.1,4.8,0c2,0.1,3.3,1.7,3.1,3.5c-0.3,1.8-2.3,3.1-4.2,2.7c-0.2,0-0.5-0.1-0.6-0.3
		c0.5,0,0.9,0,1.4,0c0.9-0.1,1.7-0.6,2-1.5c0.3-1,0.2-1.9-0.6-2.7c-0.7-0.7-1.6-1-2.5-1c-0.6,0-0.7,0.2-0.7,0.7c0,2.8,0,5.7,0,8.5
		c0,0.8,0.3,1.4,1.3,1.4C72.3,101.1,72.5,100.9,72.6,101.3z"/>
	<path class="st0" d="M96.9,95.5c0.3-0.2,0.6-0.5,0.8-0.6c1.6-1.1,3.6-0.5,4.1,1.5c0.2,0.9,0.1,1.7,0.1,2.6c0,1.6,0,1.6,1.3,2.4
		c-1,0.1-2-0.1-3.1,0.1c1.1-1.7,0.7-3.5,0.5-5.3c-0.1-0.9-1.1-1.4-2.2-1.1c-0.9,0.2-1.5,0.8-1.5,1.8c0,0.7,0,1.5,0,2.2
		c0,1-0.2,2.2,1.5,2.3c-1.3,0.1-2.3,0-3.5,0.1c1.1-0.6,0.9-1.5,0.9-2.4c0-2.5,0-5,0-7.5c0-0.7,0.1-1.6-1.1-1.5
		c0.7-0.3,1.3-0.6,1.9-0.8c0.5-0.1,0.3,0.2,0.3,0.5C96.9,91.5,96.9,93.4,96.9,95.5z"/>
	<path class="st0" d="M213.1,99.1c0.1,0.9-0.5,1.7-1.3,2c-0.6,0.2-1.1,0.3-1.8,0.2c-1.6-0.1-3.3-0.2-4.9,0c-0.1,0-0.2,0-0.3-0.2
		c1.4-0.3,1.1-1.5,1.1-2.5c0-2,0-4,0-6c0-1.8,0-1.8-1.4-2.7c1.4,0,2.6,0,4.1,0c-1.6,0.5-1.3,1.7-1.3,2.7c0,2.3,0,4.6,0,6.9
		c0,0.8,0.2,1.1,1,1.1c0.7,0,1.4,0,2-0.1C211.4,100.4,212.4,100.1,213.1,99.1z"/>
	<path class="st0" d="M83.2,104.5c2.2-1.7,1.7-3.5,0.7-5.5c-0.5-0.9-0.9-1.9-1.3-3c-0.2-0.6-0.5-1-1-1.4c1,0,2,0,3.3,0
		c-1.7,0.5-0.9,1.4-0.7,2.2c0.5,1,0.9,2.2,1.5,3.4c0.5-1.5,1-2.7,1.4-4.1c0.2-0.8-0.3-1.1-1-1.5c0.8,0,1.7,0,2.7,0
		c-0.9,0.5-1.1,1.3-1.4,1.9c-0.9,2.4-1.7,4.8-2.6,7.3C84.6,104.7,84.1,104.7,83.2,104.5z"/>
	<path class="st0" d="M127,104.5c0.5-0.7,0.9-1.3,1.3-1.9c0.2-0.6,0.3-1.1,0-1.7c-0.8-1.7-1.5-3.5-2.3-5.2c-0.2-0.5-0.6-0.7-1-1
		c1.1,0,2.2,0,3.2,0c0,0.1,0,0.1,0,0.2c-0.9,0.2-0.9,0.8-0.6,1.5c0.6,1.3,1,2.5,1.6,3.9c0.6-1.5,1.1-2.7,1.5-4.1
		c0.2-0.8-0.5-1-1-1.4c0.8,0,1.7,0,2.7,0c-0.9,0.6-1.1,1.3-1.4,2c-0.8,2.4-1.7,4.8-2.5,7.3C128.2,104.7,127.7,104.7,127,104.5z"/>
	<path class="st0" d="M269.9,104.5c0.5-0.7,1-1.3,1.4-1.9c0.2-0.5,0.2-1,0-1.5c-0.8-1.8-1.6-3.5-2.3-5.3c-0.2-0.5-0.5-0.7-0.9-1
		c1,0,2,0,3,0c-1.4,0.5-0.7,1.3-0.3,2c0.5,1.1,0.9,2.2,1.5,3.5c0.5-1.5,1-2.7,1.4-4.1c0.2-0.8-0.3-1.1-1-1.5c0.8,0,1.7,0,2.5,0
		c-1.4,1.7-1.6,3.9-2.5,5.8c-0.5,1.1-0.9,2.3-1.1,3.4C271.1,104.7,270.6,104.7,269.9,104.5z"/>
	<path class="st0" d="M167,101.3c-1.1,0-2.2,0-3.5,0c1.5-0.7,1-1.7,1-2.7c0-2.4,0-4.8,0-7.2c0-0.8,0-1.5-1.1-1.6
		c0.7-0.3,1.5-0.6,2.2-0.9c0.2,0.3,0.1,0.6,0.1,0.9c0,2.8,0,5.8,0,8.6c0,1.1-0.3,2.4,1.6,2.5C167.1,101.2,167,101.3,167,101.3z"/>
	<path class="st0" d="M23.1,89.9c0.7-0.3,1.3-0.6,1.9-0.9c0.3-0.1,0.3,0,0.3,0.2c0,0.5,0,0.9,0,1.4c0,2.6,0,5.1,0,7.7
		c0,1.9,0,1.9,1.5,3c-1.3,0-2.3,0-3.6,0c1.5-0.6,1-1.7,1-2.6c0-2.4,0-4.7,0-7.1C24.3,90.8,24.4,89.9,23.1,89.9z"/>
	<path class="st0" d="M60,89.9c0.7-0.3,1.5-0.6,2.2-0.9c0.2,0.2,0.1,0.6,0.1,0.8c0,3,0,5.8,0,8.8c0,1.1-0.3,2.4,1.6,2.5
		c-0.1,0.1-0.1,0.1-0.2,0.2c-1.1,0-2.2,0-3.5,0c1.5-0.6,1-1.7,1-2.6c0-2.4,0-4.7,0-7.1C61.1,90.7,61.1,89.9,60,89.9z"/>
	<path class="st0" d="M196.1,89.9c0.7-0.3,1.5-0.6,2.2-0.9c0.2,0.2,0.1,0.6,0.1,0.8c0,2.8,0,5.7,0,8.4c0,1.1-0.5,2.6,1.4,3.1
		c-1.1,0-2.2,0-3.4,0c1.4-0.7,0.9-1.8,0.9-2.7c0-2.3,0-4.7,0-6.9C197.3,90.8,197.5,89.9,196.1,89.9z"/>
	<path class="st0" d="M80.8,96.2c-0.3-0.1-0.3-0.5-0.6-0.7c-0.5-0.6-1-0.8-1.7-0.7c-0.5,0.1-0.8,0.3-0.9,0.8c-0.1,0.5,0.1,0.8,0.5,1
		c0.6,0.3,1.1,0.6,1.7,0.8c1.3,0.6,1.7,1.5,1.4,2.6c-0.3,1.1-1.5,1.8-2.6,1.6c-0.5-0.1-1-0.3-1.5-0.5c-0.1,0-0.3-0.1-0.3-0.2
		c0-0.6-0.2-1.3,0.1-1.8c0.3,0.2,0.3,0.7,0.5,0.9c0.3,0.8,1,1.3,1.8,1.3c0.6,0,1-0.3,1.1-0.9c0.1-0.6,0-1.1-0.6-1.5
		c-0.5-0.3-1-0.5-1.6-0.8c-0.8-0.3-1.4-0.9-1.4-1.8c0-0.8,0.5-1.3,1.1-1.6c0.9-0.5,1.8-0.3,2.6,0.1C81.2,94.9,81.1,95.6,80.8,96.2z"
		/>
	<path class="st0" d="M254,100.5c-0.6,0.9-1.7,1.3-2.6,0.9c-1-0.3-1.1-1.1-1.1-2c0-1.1,0-2.3,0-3.4c0-0.3,0-0.7-0.6-0.7
		c-0.5,0-0.5-0.2-0.2-0.5c0.7-0.6,1.3-1.3,1.7-1.9c0.1,0.1,0.2,0.1,0.2,0.1c0.1,1.5,0.1,1.5,1.7,1.5c0.2,0,0.6-0.1,0.9-0.1
		c0,0.7-0.3,0.9-1,0.9c-1.5,0-1.5,0-1.5,1.5c0,0.9,0,1.7,0,2.6c0,1.4,0.7,1.8,1.9,1.4C253.6,100.7,253.8,100.6,254,100.5z"/>
	<path class="st0" d="M119.3,100.6c-0.7,0.9-1.7,1.3-2.6,0.9c-1-0.3-1.1-1.1-1.1-2c0-1.1,0-2.3,0-3.4c0-0.3,0-0.7-0.6-0.7
		c-0.5,0-0.5-0.2-0.2-0.5c0.7-0.6,1.3-1.3,1.7-1.9c0.1,0.1,0.2,0.1,0.2,0.1c0.3,0.5-0.6,1.4,0.6,1.5c0.7,0,1.3,0.1,1.9-0.1
		c0,0.8-0.3,1-1.1,1c-0.3,0-0.6,0-0.9,0c-0.5,0-0.6,0.2-0.6,0.6c0,1.1,0,2.3,0,3.4c0,1.5,0.7,1.9,2,1.4
		C119.1,100.7,119.2,100.6,119.3,100.6z"/>
	<path class="st0" d="M94.6,100c-0.9,1.1-1.9,1.6-3.3,1.5c-1.3-0.1-2-0.8-2.5-1.9c-0.6-1.4-0.3-2.7,0.5-3.9c0.9-1.1,2-1.6,3.5-1.5
		c1.3,0.2,1.5,0.6,1,1.9c-0.5-0.5-0.8-0.9-1.5-1.3c-1.1-0.5-2-0.1-2.5,1c-0.5,1.1-0.3,2.4,0.3,3.4c0.9,1.4,2.3,1.7,3.6,0.8
		C94,100.1,94.1,99.9,94.6,100z"/>
	<path class="st0" d="M240.7,101.3c-0.5,0.1-2.8,0.2-3.6,0.1c0.9-0.3,0.9-1,0.9-1.8c0-0.9,0-1.7,0-2.6c0-1.5,0-1.5-1.6-1.8
		c1-0.2,1.7-0.6,2.4-0.9c0.2-0.1,0.3,0.1,0.3,0.3c0,0.3,0,0.7,0,1c0.3-0.3,0.7-0.7,1-0.9c0.6-0.5,1-0.5,1.6,0
		c0.2,0.2,0.5,0.5,0.1,0.8c-0.2,0.3-0.3,0.5-0.8,0.2c-1.1-0.6-1.8-0.1-1.8,1.1c0,0.9,0,1.8,0,2.7c0,0.9,0.1,1.5,1.3,1.5
		C240.5,101.1,240.6,101.2,240.7,101.3z"/>
	<path class="st0" d="M188.9,100c-0.7,0.9-1.6,1.4-2.6,1.5c-1.3,0.1-2.3-0.3-3-1.4c-0.8-1.3-0.8-3.1,0.1-4.3c0.9-1.3,2.5-1.8,4-1.5
		c0.8,0.2,1,0.6,0.7,1.8c-0.5-0.5-0.8-0.9-1.4-1.1c-1.1-0.6-2.2-0.2-2.6,1c-0.5,1.1-0.3,2.3,0.2,3.4c0.8,1.5,2.3,1.7,3.8,0.9
		C188.5,100.1,188.6,99.9,188.9,100z"/>
	<path class="st0" d="M52.1,96.4c-0.5-0.6-0.9-1-1.5-1.4c-1.1-0.5-2-0.1-2.5,1c-0.5,1-0.3,2.2,0.1,3.2c0.8,1.6,2.4,2,4,1.1
		c0.1-0.1,0.2-0.3,0.6-0.2c-0.6,1.4-3,2-4.4,1.1c-1.5-0.9-2-3.1-1.1-4.8c0.9-1.7,3-2.5,4.6-1.8C52.3,94.8,52.4,95,52.1,96.4z"/>
	<path class="st0" d="M266.3,101.3c-1.1,0.1-2.3,0.1-3.5,0.1c1-0.6,0.8-1.5,0.8-2.4c0-0.7,0-1.5,0-2.2c0-1.4,0-1.4-1.4-1.7
		c0.8-0.2,1.5-0.6,2.2-0.9c0.2-0.1,0.3,0.1,0.3,0.3c0,0.3,0,0.6,0,0.9c0.3-0.2,0.7-0.6,1-0.8c0.6-0.5,1-0.5,1.6,0
		c0.2,0.2,0.6,0.5,0.2,0.8c-0.2,0.3-0.5,0.6-0.9,0.3c-1-0.6-1.8,0-1.8,1.1c0,0.9,0,1.8,0,2.7c0,0.8,0.1,1.5,1.3,1.5
		C266.1,101.1,266.2,101.2,266.3,101.3z"/>
	<path class="st0" d="M150.1,95.3c0.8-0.9,1.7-1.1,2.8-0.8s1.6,1.3,1.7,2.4c0.1,0.8,0,1.5,0,2.3c0,1.5,0,1.5,1.5,2.2
		c-1.3,0-2.2,0-3.4,0c0.9-0.3,0.8-1,0.8-1.6c0-0.7,0-1.5,0-2.2c-0.1-2.2-1.5-3-3.4-1.9C150.1,95.5,150.1,95.4,150.1,95.3z"/>
	<path class="st0" d="M150.1,95.3c0,0.1,0,0.2,0,0.2c-0.3,0.3-0.5,0.8-0.5,1.3c0,0.8,0,1.6,0,2.4c0,1.5,0,1.5,1.4,2.2
		c-1.1,0-2.2,0-3.5,0c0.9-0.5,1-1.1,0.9-1.9c0-0.9,0-1.8,0-2.7c0-0.8,0.1-1.7-1.3-1.6c0.7-0.3,1.4-0.6,2-0.8
		c0.6-0.2,0.3,0.3,0.3,0.6C149.8,94.9,149.3,95.6,150.1,95.3z"/>
	<path class="st0" d="M14.5,101.4c-1.1,0-2.2,0-3.4,0c1-0.5,0.9-1.3,0.9-1.9c0-1,0-1.9,0-3s0-1-1-1.4c0.7-0.3,1.3-0.7,1.8-0.8
		c0.6-0.2,0.3,0.3,0.3,0.6c0,1.6,0,3.2,0,4.7c0,0.9,0,1.6,1.1,1.6C14.2,101.1,14.4,101.2,14.5,101.4z"/>
	<path class="st0" d="M46.1,101.3c-1.1,0.1-2.2,0-3.3,0.1c0.9-0.6,0.7-1.4,0.7-2c0-0.9,0-1.9,0-2.8c0-0.7,0-1.3-0.9-1.4
		c0.6-0.2,1.1-0.6,1.7-0.8c0.6-0.2,0.5,0.2,0.5,0.5c0,1.4,0,2.8,0,4.2C44.9,99.9,44.4,101.2,46.1,101.3z"/>
	<path class="st0" d="M182.2,101.4c-1,0-2,0-3.4,0c0.9-0.5,1-1,1-1.7c0-1,0-2,0-3.2c0-0.7,0-1.4-0.9-1.4c0.6-0.2,1.1-0.6,1.7-0.8
		c0.6-0.2,0.5,0.2,0.5,0.5c0,1.5,0,2.8,0,4.3c0,0.9-0.3,2.2,1.5,2.2C182.3,101.2,182.3,101.3,182.2,101.4z"/>
	<path class="st0" d="M107.2,101.3c-1,0.1-2,0-3.2,0c0.9-0.5,0.8-1.3,0.8-1.9c0-1,0-2,0-3.1c0-0.6-0.1-1.3-0.9-1.3
		c0.6-0.2,1.1-0.6,1.7-0.8c0.5-0.2,0.3,0.2,0.3,0.5c0,1.5,0,2.8,0,4.3C106,100.6,106,100.6,107.2,101.3z"/>
	<path class="st0" d="M45,91.7c-0.1,0.3-0.3,0.8-0.8,0.8c-0.3,0-0.7-0.5-0.7-0.8c0-0.5,0.3-0.8,0.7-0.9C44.6,90.8,44.7,91.4,45,91.7
		z"/>
	<path class="st0" d="M13.2,91.7c-0.2,0.3-0.3,0.8-0.8,0.8c-0.3,0-0.7-0.5-0.7-0.8c0-0.5,0.3-0.8,0.7-0.8
		C13,90.9,13.1,91.4,13.2,91.7z"/>
	<path class="st0" d="M180.4,92.6c-0.5-0.1-0.7-0.5-0.7-0.8c-0.1-0.5,0.3-0.9,0.7-0.9c0.5,0,0.6,0.5,0.7,0.8
		C181.2,92.1,180.9,92.4,180.4,92.6z"/>
	<path class="st0" d="M106.2,91.7c-0.1,0.3-0.3,0.8-0.7,0.8c-0.5,0-0.7-0.5-0.7-0.8c0-0.5,0.3-0.8,0.8-0.8
		C105.9,90.9,106.1,91.4,106.2,91.7z"/>
	<path class="st2" d="M79.6,54.1c-0.6-4.7-4-9.6-9.3-10.6c-0.5-0.1-0.9-0.2-1.3-0.3c-0.7-0.2-0.7-0.5-0.1-0.9
		c0.7-0.5,1.3-0.9,1.9-1.4c4.2-3,5.8-8.2,3.9-13c-1.4-3.5-4.2-5.5-7.6-6.7c-4.2-1.6-8.6-1.6-13.1-1.4c-4.3,0.3-8.6,0.3-13,0.2
		c-0.5,0-0.9,0-1.3,0.1c-0.3,0.1-0.6,0.3-0.6,0.7c0,0.3,0.2,0.6,0.6,0.7c0.3,0.1,0.8,0.1,1.3,0.1c2.4,0.1,4,1.3,4.8,3.4
		c0.5,1.3,0.8,2.6,0.8,4c0.2,5.7,0,11.3,0.1,15.8c0,5.6,0,10.1,0,14.6c0,1.8-0.1,3.6-0.3,5.5c-0.5,3.3-1.1,4.1-4.3,5c0,0,0,0-0.1,0
		c-0.5,0.1-0.8,0.3-0.7,0.8c0.1,0.5,0.5,0.7,0.9,0.7c0.2,0,0.6,0,0.8,0c2.4-0.2,4.7-0.5,7.1-0.2c3.8,0.2,7.6,0.3,11.4,0.6
		c2,0.1,4.1-0.1,6-0.7C75.6,68.8,80.5,62,79.6,54.1z M52.4,25.7c0-0.3,0-0.7,0-1c0.2-1.9,0.7-2.6,2.7-2.7c5.1-0.5,9.6,1,12.9,5.1
		c2.4,3,2.8,6.4,1.9,9.9c-0.8,3.1-3.3,5-6.9,5.2c-3,0.2-6,0.2-9,0c-1.3,0-1.6-0.3-1.6-1.7c0-2.6,0-5.2,0-7.9l0,0
		C52.4,30.4,52.4,28,52.4,25.7z M73.3,62.9c-1.5,3.6-4.3,5.7-8.1,6.3c-3.2,0.6-6.5,0.5-9.7-0.2c-2.3-0.5-3.2-1.8-3.2-4.1
		c0-6,0-12.1,0-18.1c0-1.6,0.1-1.8,1.7-1.8c1.5,0,2.8,0,4.7,0c1.6,0.1,3.8-0.2,5.8,0.2c5.1,1.1,9,5.6,9.4,10.9
		C74.3,58.5,74.2,60.8,73.3,62.9z"/>
	<path class="st0" d="M9.7,97.6c-0.1-1.4-0.9-2.3-2.3-2.5c-0.1,0-0.2,0-0.1-0.2c0.1-0.1,0.2-0.2,0.5-0.3c1.5-1.3,1.4-3.3-0.5-4.2
		c-0.5-0.2-1-0.3-1.5-0.5c-1.7-0.1-3.4,0.1-5,0c0,0-0.1,0.1-0.1,0.2c1.4,0.5,1.6,0.8,1.6,2.3c0,2.2,0,4.4,0,6.6c0,0.9,0,1.9-1.3,2.4
		c2-0.2,4,0.5,5.9,0c0.5-0.1,0.8-0.2,1.1-0.6C9.3,100,9.8,99,9.7,97.6z M3.5,91.3c0-0.9,0.2-1.1,1.1-1c1.8,0.1,3,1.4,2.8,3
		c0,0.9-0.5,1.4-1.4,1.6c-0.8,0.1-1.5,0.1-2.3,0.1c-0.5,0-0.5-0.3-0.5-0.6c0-0.6,0-1.1,0-1.7l0,0C3.5,92.2,3.5,91.7,3.5,91.3z
		 M7.5,100.5c-1.1,0.7-2.3,0.6-3.4,0.2c-0.5-0.1-0.5-0.6-0.5-0.9c0-0.6,0-1.3,0-1.8l0,0c0-0.1,0-0.2,0-0.3C4,97,3,95.7,4.2,95.5
		c2.4-0.5,4,0.6,4.3,2.3C8.6,98.8,8.6,99.9,7.5,100.5z"/>
	<path class="st0" d="M143.2,101.3c1.6,0,3,0,4.2,0c-1.6-0.3-1.8-1.7-2.3-2.8c-1.1-2.7-2.2-5.6-3.3-8.3c-0.1-0.2-0.1-0.6-0.3-0.6
		c-0.3,0-0.3,0.3-0.5,0.6c-1.3,2.7-2.5,5.6-3.8,8.3c-0.5,1-0.8,2.3-1.9,3c1,0,2,0,3.2,0c-0.1-0.2-0.2-0.3-0.5-0.3
		c-0.7-0.1-0.8-0.7-0.7-1.3c0.1-0.2,0.2-0.5,0.2-0.7c0.8-2,0.8-2,3.1-2c2.4,0,2.4,0,3.1,2.2C144.2,99.9,144.7,100.8,143.2,101.3z
		 M142.2,96.2c-0.8,0-1.7,0-2.5,0c-0.5,0-0.6-0.2-0.3-0.6c0.6-1.3,1.1-2.4,1.7-3.9c0.6,1.5,1,2.7,1.6,3.9
		C142.7,95.9,142.6,96.2,142.2,96.2z"/>
	<path class="st0" d="M227.5,96.5c-0.6-1.9-2.5-2.7-4.2-1.8c-0.3,0.1-0.7,0.3-1,0.6c0-0.3,0-0.6,0-0.8c0-1.6,0-3.2,0-4.8
		c0-0.2,0.2-0.8-0.3-0.6c-0.7,0.2-1.4,0.6-2.2,0.9c1.1,0.2,1.3,0.3,1.3,1.5c0,3,0,5.9,0,8.9c0,0.5-0.2,0.8,0.1,1.4
		c0.3-1.3,1-0.9,1.7-0.5c0.3,0.2,0.7,0.2,1.1,0.3C226.4,101.9,228.3,99.1,227.5,96.5z M226.1,100.5c-0.6,0.7-1.6,0.9-2.5,0.6
		c-0.9-0.3-1.4-0.9-1.5-1.9c0-0.5,0-0.9,0-1.3c0-0.3,0-0.7,0-0.9c0-1.4,1.1-2.2,2.5-1.8C226.6,95.7,227.5,98.9,226.1,100.5z"/>
	<path class="st0" d="M194.5,99.7c0-1,0-2,0-3.1c0-1.4-0.6-2-1.7-2.3c-1.5-0.2-2.7,0.3-3.2,1.5c-0.1,0.2-0.1,0.5,0.1,0.7
		c0.2,0.2,0.6,0.3,0.8,0.2c0.3-0.1,0.1-0.5,0.1-0.7c-0.1-0.9,0.2-1.4,1.1-1.3c1.1,0,1.6,0.7,1.6,2.2c0,0.5-0.1,0.7-0.7,0.8
		c-0.9,0.1-1.7,0.3-2.5,0.8c-0.7,0.5-0.9,1.1-0.7,1.9c0.2,0.7,0.8,1,1.6,1c0.7,0,1.4-0.2,1.9-0.6c0.3-0.2,0.6-0.2,0.8,0.1
		c0.7,0.7,1.3,0.6,2-0.1C194.8,100.9,194.5,100.7,194.5,99.7z M192.1,101.1c-0.6,0.1-1,0-1.3-0.6s-0.2-1,0.1-1.6
		c0.3-0.3,0.7-0.6,1.1-0.7c1.3-0.5,1.3-0.3,1.3,0.9C193.3,100.4,193,100.9,192.1,101.1z"/>
	<path class="st0" d="M247.7,99.6c0-1.1,0-2.2,0-3.3c0-0.6-0.2-1.1-0.7-1.5c-1.1-0.8-3.1-0.5-3.9,0.7c-0.1,0.2-0.2,0.5-0.3,0.6
		c-0.1,0.2,0,0.5,0.2,0.6c0.2,0.1,0.5,0.2,0.8,0.1c0.3-0.1,0.1-0.5,0.1-0.6c-0.1-1,0.2-1.4,1.3-1.4c0.9,0.1,1.4,0.6,1.4,1.6
		c0.1,0.8,0,1.5-1,1.5c-0.7,0-1.5,0.3-2,0.8c-0.6,0.5-0.9,1-0.7,1.8c0.2,0.8,0.8,1,1.6,1.1c0.7,0,1.3-0.2,1.8-0.6
		c0.3-0.2,0.6-0.3,0.9,0c0.7,0.7,1.4,0.6,2.2-0.1C247.8,100.8,247.7,100.7,247.7,99.6z M245.6,100.9c-0.1,0-0.2,0-0.3,0.1
		c-0.6,0.1-1,0-1.4-0.6c-0.3-0.6-0.2-1.1,0.2-1.6c0.5-0.6,1.3-0.7,1.9-0.8c0.3,0,0.5,0.1,0.5,0.3c0,0.2,0,0.6,0,0.8
		C246.4,100.3,246.2,100.7,245.6,100.9z"/>
	<path class="st0" d="M161.6,99.6c0-1,0-2.2,0-3.2c0-1.3-0.7-1.9-1.9-2c-1.4-0.1-2.7,0.6-3,1.6c-0.1,0.2,0,0.5,0.2,0.6
		c0.2,0.1,0.6,0.3,0.8,0.2c0.2-0.1,0.1-0.5,0.1-0.7c-0.1-1,0.2-1.4,1.3-1.3c0.9,0.1,1.3,0.6,1.4,1.7c0.1,0.8-0.1,1.3-1,1.4
		c-0.7,0-1.5,0.3-2,0.7c-0.7,0.5-0.9,1.1-0.7,1.9c0.2,0.8,0.8,1,1.6,1.1c0.7,0,1.3-0.2,1.8-0.6c0.3-0.2,0.6-0.2,0.8,0
		c0.7,0.7,1.1,0.6,2-0.1C161.7,100.9,161.6,100.7,161.6,99.6z M160.4,99c0,1.4-0.3,1.8-1.3,1.9c-0.6,0-1,0-1.3-0.6
		c-0.2-0.5-0.2-1,0.1-1.5c0.6-0.7,1.3-0.9,2-0.9C160.8,98.1,160.3,98.8,160.4,99z"/>
	<path class="st0" d="M58.3,99.7c0-1,0-2.2,0-3.2c0-1.3-0.6-1.9-1.8-2.2c-1.5-0.2-2.7,0.5-3.1,1.6c-0.1,0.3-0.1,0.6,0.2,0.7
		c0.2,0.1,0.5,0.3,0.7,0.2c0.3-0.1,0.1-0.5,0.1-0.7c-0.1-0.9,0.2-1.3,1.1-1.3c1.1,0,1.6,0.7,1.6,2.3c0,0.5-0.1,0.6-0.6,0.7
		c-0.9,0.1-1.8,0.3-2.5,0.8c-0.6,0.5-0.8,0.9-0.8,1.7c0.1,0.7,0.5,1.1,1.1,1.3c0.9,0.2,1.7,0.1,2.4-0.7l0,0
		c-0.3-0.1-0.6,0.1-0.8,0.2c-0.6,0-1.1,0-1.4-0.7c-0.2-0.6-0.1-1.1,0.3-1.6c0.6-0.5,1.1-0.6,1.8-0.7c0.5-0.1,0.5,0.2,0.5,0.5
		c0,0.8,0.1,1.6-0.3,2.3l0,0l0,0c0.3-0.1,0.6-0.1,0.9,0.2c0.7,0.7,1.5,0.6,1.9-0.1C58.5,100.9,58.3,100.7,58.3,99.7z"/>
	<path class="st0" d="M232.3,94.3c-2,0-3.8,1.6-3.8,3.6c0,2.2,1.5,3.5,3.6,3.5c2.2,0,3.8-1.5,3.8-3.6
		C236,95.9,234.4,94.3,232.3,94.3z M234.5,100c-0.1,0.2-0.2,0.3-0.3,0.5c-0.8,0.8-2.2,0.9-3.1,0c-1.1-1-1.6-3.3-0.9-4.7
		c0.7-1.4,2.5-1.7,3.6-0.6c0.2,0.2,0.3,0.5,0.5,0.7c0.5,0.7,0.6,1.5,0.6,2.3C234.8,98.9,234.7,99.5,234.5,100z"/>
	<path class="st0" d="M31.1,94.3c-2,0-3.8,1.6-3.8,3.6c0,2.2,1.5,3.5,3.6,3.6c2.2,0,3.8-1.5,3.8-3.6C34.7,95.9,33,94.3,31.1,94.3z
		 M32.8,100.6c-0.7,0.8-2,0.8-3,0c-1.3-1-1.7-3.4-0.9-4.8c0.8-1.4,2.6-1.6,3.6-0.3c0.7,0.8,0.9,1.8,0.9,2.8
		C33.5,99.1,33.4,99.9,32.8,100.6z"/>
	<path class="st0" d="M257.9,94.2c-2,0-3.8,1.7-3.6,3.8c0,2,1.6,3.5,3.8,3.5c2.2,0,3.8-1.6,3.8-3.6C261.6,95.8,260,94.2,257.9,94.2z
		 M260.3,99.5c-0.6,1.7-2.4,2.2-3.6,1c-1.1-1-1.5-3.3-0.9-4.7c0.7-1.4,2.5-1.7,3.6-0.6c0.7,0.7,1.1,1.7,1.1,3.1
		C260.4,98.7,260.4,99.1,260.3,99.5z"/>
	<path class="st0" d="M18.7,94.3c-2,0-3.8,1.6-3.8,3.6c0,2,1.5,3.6,3.6,3.6c2.2,0,3.8-1.5,3.8-3.6C22.4,95.9,20.7,94.3,18.7,94.3z
		 M21,99.6c-0.5,1.7-2.4,2.2-3.6,0.9c-1.1-1-1.5-3.2-0.9-4.6c0.7-1.5,2.6-1.8,3.8-0.6c0.8,0.8,0.9,1.8,1,3.1
		C21.2,98.8,21.1,99.1,21,99.6z"/>
	<path class="st0" d="M113,99.6c0-1.1,0-2.2,0-3.3c0-0.6-0.2-1.1-0.7-1.5c-1.1-0.9-3.3-0.5-4,0.8c-0.1,0.1-0.2,0.3-0.2,0.6
		c0,0.6,0.5,0.7,0.8,0.7c0.6,0,0.2-0.3,0.2-0.6c-0.1-1,0.2-1.4,1.3-1.4c1.1,0.1,1.6,0.8,1.5,2.4c0,0.3-0.1,0.5-0.5,0.6
		c-0.7,0.1-1.5,0.2-2,0.6c-0.8,0.3-1.4,0.9-1.3,1.8c0,0.7,0.3,1.1,1,1.4c0.8,0.2,1.8,0,2.4-0.6l0,0c-0.2,0.1-0.6,0.1-0.8,0.2
		c-0.6,0.1-1-0.1-1.4-0.7c-0.2-0.6-0.2-1,0.2-1.5c0.6-0.6,1.3-0.8,2-0.9c0.2,0,0.3,0.1,0.3,0.3c0,0.8,0.1,1.7-0.5,2.5l0,0l0,0
		c0.3,0,0.7,0,1,0.3c0.6,0.6,1.3,0.5,1.8-0.1C113.1,100.8,113,100.7,113,99.6z"/>
	<path class="st0" d="M218.4,99.6c0-1.1,0-2.2,0-3.3c0-0.7-0.2-1.1-0.8-1.5c-0.9-0.6-2.4-0.5-3.2,0.1c-0.3,0.2-0.7,0.6-0.8,1
		c-0.1,0.2-0.1,0.6,0.1,0.7c0.2,0.1,0.6,0.3,0.8,0.2c0.3-0.1,0.1-0.5,0.1-0.7c-0.1-0.9,0.2-1.4,1.1-1.3c1.1,0,1.6,0.7,1.6,2.3
		c0,0.5-0.1,0.6-0.6,0.7c-0.7,0.1-1.5,0.2-2,0.6c-0.8,0.3-1.3,0.9-1.1,1.8c0.1,0.7,0.5,1.1,1.1,1.3c0.8,0.2,1.8,0,2.3-0.7l0,0
		c-0.2,0-0.5,0.1-0.7,0.1c-0.6,0.1-1.1,0-1.5-0.6s-0.1-1.3,0.3-1.6c0.6-0.5,1.3-0.8,2-0.7c0.2,0,0.2,1.8-0.1,2.3
		c-0.1,0.1-0.2,0.2-0.2,0.5l0,0l0,0c0.3,0,0.7-0.1,1,0.2c0.6,0.6,1.3,0.5,1.8-0.1C218.7,100.9,218.4,100.7,218.4,99.6z"/>
	<path class="st0" d="M124.6,94.8c-0.5-0.6-1.1-0.7-1.7-0.2c-0.3,0.2-0.6,0.6-0.8,0.9l-0.1,0.1c-0.1-0.1-0.1-0.1,0-0.2
		c0-0.3,0-0.6,0-0.9c0-0.2-0.1-0.5-0.3-0.2c-0.7,0.3-1.4,0.7-2.2,0.9c1.4,0.5,1.4,0.5,1.4,1.8c0,0.8,0,1.7,0,2.5
		c0,0.7,0.1,1.5-0.8,1.9c1.1,0,2.3,0,3.5,0c0-0.1,0-0.2-0.1-0.2s-0.1-0.1-0.2-0.1c-1,0-1.3-0.6-1.3-1.5c0-0.8,0-1.6,0-2.4
		c0-1.6,0.6-2,2-1.5c0.5,0.1,0.5-0.1,0.7-0.3C124.9,95.3,124.9,95.1,124.6,94.8z"/>
	<path class="st0" d="M42,93.9c-0.2,0.3-0.3,0.6-0.6,0.7c-0.5,0.5-1,0.5-1.6,0.1c-1.4-0.7-2.7-0.5-3.5,0.6s-0.8,2.2,0.2,3.4
		c0.2,0.3,0,0.3-0.1,0.6c0.1,0.1,0.1,0.1,0.2,0.2c0.3-0.5,0.8-0.3,1.3-0.2c1.7,0.2,3.2-0.9,3.2-2.4c0-0.6,0-0.9,0.5-1.4
		C42,95.3,42.1,94.6,42,93.9z M39.2,98.8c-0.6,0.2-1.1,0.1-1.6-0.3c-0.7-0.7-0.8-2.2-0.3-3c0.3-0.6,0.7-0.9,1.4-0.9
		c0.9,0.1,1.5,1,1.5,2.3C40.1,97.8,40,98.4,39.2,98.8z"/>
	<path class="st0" d="M40.4,100.9c-0.8-0.1-1.6-0.1-2.4-0.2c-0.8,0-1.6-0.2-1.5-1.4c-0.8,0.9-0.3,1.6,0.1,2.2
		c-0.7,0.1-1.1,0.5-1.1,1.3c0,0.7,0.5,1.1,1.1,1.4c1.1,0.3,2.3,0.5,3.4,0c0.5-0.2,1-0.6,1.3-1C42,102.2,41.6,101.1,40.4,100.9z
		 M40.5,103.6c-0.8,0.8-2.6,0.9-3.6,0.5c-0.9-0.6-1-1.4-0.2-2.4l0,0l0,0l0,0c1.1,0.1,2.3,0.1,3.4,0.2c0.3,0,0.8,0.3,0.9,0.7
		C41,102.8,40.8,103.2,40.5,103.6z"/>
</g>
</svg>
