<?xml version="1.0" encoding="UTF-8"?><svg id="a" xmlns="http://www.w3.org/2000/svg" viewBox="0 0 216.1 117.55"><defs><style>.e{fill:#fdceb0;}.f{fill:#fff;}.g{fill:#bc4b27;}.h{fill:#d66027;}.i{fill:#231f20;}.j{fill:#6d5560;}.k{fill:none;stroke:#bc4b27;}</style></defs><g id="b"><g id="c"><path class="g" d="M.05,20.52H50.37v-7.67h-6.3v-2.48h-1.48s-3.26,.13-5.71-1.32c-2.42-1.43-2.87-2.8-2.88-2.8v-1.99h-3.23c-.55-2.43-2.73-4.25-5.33-4.25s-4.78,1.82-5.33,4.25h-3.29v1.99s-.46,1.37-2.88,2.8c-2.45,1.45-5.71,1.32-5.71,1.32h-1.93v2.48H0v7.64"/><path class="g" d="M.04,37.05c.07,3.69,.61,7.33,1.54,10.9,1.75,6.72,4.97,12.58,10.11,17.32,3.97,3.65,8.53,6.43,13.21,9.05,.14,.08,.4,.05,.55-.03,3.25-1.8,6.41-3.74,9.42-5.93,6.41-4.66,10.87-10.73,13.25-18.31,1.67-5.3,2.22-10.76,2.26-16.28,.02-2.89,.02-7.93,.02-10.82H.02c0,3.98-.06,10.12,.02,14.1m21.5,3.4l3.66-11.27,3.66,11.27h11.85l-9.58,6.96,3.66,11.27-9.58-6.96-9.58,6.96,3.66-11.26-9.58-6.96h11.85Z"/><path class="h" d="M25.34,20.53L25.49,.03c-2.6,0-4.78,1.82-5.33,4.25h-3.29v1.99s-.46,1.37-2.88,2.8c-2.45,1.45-5.71,1.32-5.71,1.32h-1.93v2.48H.05v7.64H25.34Z"/><path class="h" d="M25.23,51.74l-9.58,6.96,3.66-11.26-9.58-6.96h11.85l3.66-11.27-.04-6.24H.05c0,3.98-.06,10.12,.02,14.1,.07,3.69,.61,7.33,1.54,10.9,1.75,6.72,4.97,12.58,10.11,17.32,3.97,3.65,8.54,6.43,13.21,9.05,.14,.08,.26,.03,.26,.03l.04-22.63Z"/><polygon class="f" points="40.74 40.46 28.89 40.46 25.23 29.19 21.57 40.46 9.73 40.46 19.31 47.42 15.65 58.69 25.23 51.72 34.82 58.69 31.16 47.42 40.74 40.46"/><polygon class="e" points="25.23 29.19 28.89 40.46 40.74 40.46 31.16 47.42 34.82 58.69 25.23 51.72 25.23 29.19"/></g><path class="i" d="M31.58,71.77c.21,0,.42,.05,.62,.16,.2,.11,.36,.26,.47,.47,.11,.2,.17,.41,.17,.63s-.06,.43-.17,.63c-.11,.2-.27,.36-.47,.47-.2,.11-.41,.17-.63,.17s-.43-.06-.63-.17c-.2-.11-.35-.27-.47-.47-.11-.2-.17-.41-.17-.63s.06-.43,.17-.63c.11-.2,.27-.36,.47-.47,.2-.11,.41-.16,.62-.16Zm0,.21c-.18,0-.35,.05-.52,.14-.17,.09-.3,.22-.39,.39-.09,.17-.14,.34-.14,.53s.05,.36,.14,.52c.09,.17,.22,.3,.39,.39,.17,.09,.34,.14,.52,.14s.36-.05,.52-.14c.17-.09,.3-.22,.39-.39,.09-.17,.14-.34,.14-.52s-.05-.36-.14-.53c-.09-.17-.22-.3-.39-.39-.17-.09-.34-.14-.52-.14Zm-.55,1.75v-1.35h.47c.16,0,.27,.01,.35,.04,.07,.03,.13,.07,.17,.13,.04,.06,.06,.13,.06,.2,0,.1-.04,.19-.11,.26-.07,.07-.16,.11-.28,.12,.05,.02,.09,.04,.11,.07,.05,.05,.12,.14,.2,.27l.17,.27h-.27l-.12-.21c-.09-.17-.17-.27-.23-.32-.04-.03-.1-.05-.17-.05h-.13v.58h-.22Zm.22-.76h.27c.13,0,.21-.02,.26-.06,.05-.04,.07-.09,.07-.15,0-.04-.01-.08-.03-.11-.02-.03-.05-.06-.09-.07-.04-.02-.11-.02-.22-.02h-.25v.41Z"/><g><path class="i" d="M80.36,44.73c1.4-1.89,2.11-4.61,2.11-8.1v-9.46c0-1.57,.11-2.65,.34-3.2,.21-.54,.7-.97,1.44-1.27,.32-.13,.48-.32,.48-.56,0-.29-.18-.46-.48-.46-.12,0-.4,.02-.85,.06-.33,.04-1.21,.06-2.62,.06-.66,0-1.24-.04-1.71-.11-.55-.09-.95-.14-1.23-.15-.16,0-.28,.03-.37,.11-.09,.09-.14,.22-.14,.4,0,.21,.12,.48,.67,.53,1.05,.1,1.8,.49,2.24,1.18,.44,.7,.67,1.84,.67,3.4v9.89c0,3.3-.75,5.8-2.23,7.43-1.47,1.63-3.73,2.45-6.72,2.45-3.34,0-5.74-.99-7.15-2.93-1-1.37-1.51-3.71-1.51-6.96v-9.63l-.04-1.26c0-1.21,.12-2.05,.36-2.51,.23-.44,.7-.75,1.39-.9,.47-.09,.71-.28,.71-.59,0-.16-.07-.42-.56-.42-.18,0-.51,.02-.99,.06-.57,.05-.91,.08-1.06,.08h-1.45l-1.47,.02c-.27,0-.69-.02-1.27-.06-.56-.02-1.01-.04-1.32-.04-.7,0-.85,.31-.85,.57,0,.19,.11,.44,.62,.51,1.09,.16,1.83,.49,2.18,.97,.36,.49,.54,1.42,.54,2.75l.04,1.09v9.71c0,2.67,.46,4.87,1.37,6.54,.81,1.46,2.11,2.62,3.86,3.47,1.74,.85,3.73,1.27,5.9,1.27,1.87,0,3.65-.36,5.29-1.07,1.65-.71,2.94-1.68,3.82-2.88"/><path class="i" d="M95.65,24.08c.59,0,.78,.1,.84,.16,.06,.06,.16,.24,.16,.8l.02,.49v18.97c0,1.04-.16,1.76-.49,2.15-.32,.39-.96,.65-1.91,.77-.49,.06-.74,.22-.74,.49,0,.2,.09,.53,.7,.53,.13,0,.56-.04,1.3-.11,.36-.04,.82-.06,1.35-.06l1.49-.02,1.4,.02c.9,0,1.47,.02,1.7,.06,.48,.08,.8,.12,.96,.12,.57,0,.66-.33,.66-.53,0-.28-.26-.46-.77-.55-1.56-.27-2.34-1.1-2.4-2.54l-.02-.74V25.32c0-.74,.12-.97,.19-1.05,.07-.07,.29-.19,.97-.19h5.37c1.04,0,1.74,.13,2.09,.39h0c.34,.25,.6,.82,.76,1.69,.09,.47,.27,.71,.59,.69,.24-.02,.53-.17,.51-.74-.01-.2-.05-.51-.12-.95-.06-.33-.09-.88-.09-1.61,0-1.05-.14-1.32-.25-1.44-.18-.18-.61-.27-1.36-.27h-20.58c-.48,0-.79,.11-.95,.33-.15,.21-.22,.61-.22,1.22,0,.58-.1,1.34-.28,2.24-.16,.72-.23,1.21-.23,1.49,0,.53,.29,.63,.46,.64,.46,.02,.59-.61,.64-.82,.25-1.12,.6-1.88,1.04-2.28,.44-.39,1.17-.59,2.16-.59h5.06Z"/><path class="i" d="M139.62,48.35c.38-.04,.68-.06,.91-.06l1.43-.04,1.42,.02c.96,0,1.59,.03,1.89,.07,.82,.13,1.33,.16,1.55-.08,.09-.1,.13-.23,.12-.4-.02-.26-.26-.43-.72-.49-1.04-.11-1.75-.42-2.11-.91-.37-.5-.55-1.43-.55-2.76V25.24c0-.61,.13-1.16,.39-1.63,.25-.45,.55-.72,.91-.79l.78-.17c.46-.1,.56-.33,.56-.51s-.08-.49-.58-.49c-.13,0-.37,.03-.72,.08-.54,.07-1.49,.11-2.85,.11-.94,0-1.83-.04-2.66-.13-.6-.06-1.04-.1-1.31-.1-.5,0-.59,.27-.6,.43-.01,.2,.09,.46,.65,.57,.87,.2,1.47,.56,1.79,1.08,.32,.53,.49,1.45,.49,2.74v6.54c0,.31-.06,.51-.17,.59-.09,.06-.34,.13-1,.13h-11.27c-1.03,0-1.27-.12-1.32-.18h0c-.07-.07-.18-.31-.18-1.22v-6.85c0-.92,.14-1.57,.42-1.95,.27-.38,.83-.67,1.65-.88,.4-.1,.61-.29,.61-.55,0-.19-.09-.51-.68-.51-.2,0-.46,.03-.82,.08-.78,.1-1.63,.15-2.53,.15-1.33,0-2.5-.06-3.48-.17-.52-.06-.91-.1-1.16-.12-.22,0-.38,.04-.49,.14-.09,.09-.13,.2-.13,.35,0,.2,.11,.46,.66,.53,1.05,.16,1.78,.48,2.18,.95,.4,.47,.6,1.26,.6,2.33v16.43c0,1.77-.1,3.02-.3,3.72-.19,.68-.54,1.06-1.06,1.18l-.95,.23c-.49,.11-.59,.37-.59,.57,0,.18,.08,.48,.6,.48,.14,0,.54-.03,1.21-.09,.48-.04,.88-.06,1.2-.06l1.26-.04,1.61,.02c1.17,0,1.94,.03,2.28,.09,.47,.06,.78,.09,.95,.09,.26,0,.45-.06,.56-.18,.08-.09,.12-.2,.12-.34-.02-.34-.3-.54-.83-.6-1.11-.12-1.87-.44-2.27-.95-.4-.51-.6-1.42-.6-2.71v-7.01c0-.7,.12-.94,.22-1.02,.11-.09,.42-.19,1.28-.19h11.26c.86,0,1.03,.09,1.07,.12,.03,.03,.13,.18,.13,.96v7.02l-.02,.75c0,1.9-.62,2.93-1.9,3.15-.48,.07-.74,.26-.75,.54,0,.15,.03,.27,.12,.36,.09,.09,.23,.14,.42,.14,.01,0,.03,0,.05,0,.09,0,.5-.03,1.33-.1"/><path class="i" d="M196.01,46.14l-.17,.05-1,.48c-.51,.27-1.16,.41-1.91,.41-.93,0-1.65-.26-2.15-.78-.33-.34-.5-1.13-.5-2.34v-9.49h4.41c.47,0,.8-.21,.95-.63l.44-1.09c.16-.36,.18-.47,.18-.52,0-.13-.02-.23-.09-.29-.06-.06-.14-.07-.24-.06-.11,.02-.26,.1-.47,.25-.28,.19-.7,.29-1.23,.29h-3.95l.07-3.18c0-.51-.21-.62-.39-.62-.14,0-.35,.11-.83,.9-.78,1.25-1.92,2.52-3.4,3.77-.36,.31-.54,.56-.54,.78,0,.19,.11,.41,.62,.41h1.58v9.52c0,3.12,1.52,4.7,4.52,4.7,.88,0,1.84-.25,2.86-.74,1.06-.51,1.58-.99,1.58-1.46,0-.21-.13-.33-.35-.33"/><path class="i" d="M153.31,32.97c.97,0,1.88,.42,2.71,1.24,.83,.83,1.25,1.73,1.25,2.69,0,.4-.76,.49-1.39,.49h-6.34c.17-1.35,.59-2.43,1.25-3.21h0c.67-.8,1.51-1.21,2.51-1.21m7.03,11.61c-.11,.02-.22,.07-.34,.16-1.61,1.23-3.11,1.85-4.46,1.85-1.71,0-3.18-.73-4.36-2.18-1.18-1.46-1.78-3.28-1.78-5.41v-.3h7.13l1.3,.04,1.42,.02c.91,0,1.37-.25,1.37-.75,0-.31-.16-.83-.49-1.6-.32-.74-.64-1.34-.95-1.78-1.29-1.8-3.04-2.71-5.2-2.71-1.98,0-3.72,.85-5.19,2.53-1.46,1.68-2.21,3.66-2.21,5.89,0,2.35,.72,4.35,2.14,5.94,1.43,1.6,3.21,2.41,5.32,2.41,1.87,0,3.66-.66,5.33-1.97,.93-.73,1.38-1.29,1.38-1.71,0-.15-.04-.27-.12-.34-.07-.07-.16-.09-.29-.09"/><path class="i" d="M184.92,47.23c-1.25-.21-2.02-.62-2.28-1.21-.23-.54-.35-1.34-.35-2.36V21.23l.02-.59h0c0-.48-.06-.76-.2-.89-.06-.05-.12-.08-.19-.08-.13,0-.28,.05-.47,.18-.33,.25-.95,.55-1.83,.9l-1.17,.48c-.35,.14-.74,.26-1.18,.36-.39,.11-.59,.29-.59,.53,0,.14,.05,.32,.32,.43,.1,.03,.22,.04,.36,.04h0l.95-.04c.74,0,1.1,.54,1.1,1.64v21.19c0,.58-.09,1-.27,1.26-.18,.25-.55,.46-1.09,.61-.43,.12-.64,.32-.62,.59,0,.18,.1,.49,.64,.49,.05,0,.19-.01,.74-.1,.28-.04,1.03-.06,2.22-.06l2.66-.02c.37,0,.66,.02,.83,.05,.23,.05,.4,.08,.53,.08,.17,0,.31-.05,.4-.14,.09-.1,.13-.24,.13-.42-.02-.26-.24-.43-.66-.5"/><path class="i" d="M166.76,41.86c1.03-.69,2.51-1.13,4.39-1.31v3.65c0,.92-.21,1.61-.63,2.02-.69,.67-1.57,1.01-2.59,1.01-.84,0-1.51-.25-1.99-.73-.49-.49-.73-1.16-.73-1.99,0-1.07,.52-1.96,1.56-2.65m9.94,5.11c-.09,0-.24,.03-.48,.08-.1,.02-.25,.03-.44,.03-.63,0-1.07-.23-1.34-.69-.27-.48-.41-1.31-.41-2.47v-7.48c0-1.43-.5-2.56-1.48-3.35-.97-.78-2.36-1.18-4.11-1.18-1.92,0-3.49,.63-4.66,1.88-.87,.93-1.31,1.82-1.31,2.63,0,.35,.27,.67,.8,.95,.5,.26,1.07,.4,1.68,.4,.18,0,.31-.05,.4-.14,.08-.08,.11-.19,.1-.33-.01-.19-.06-.4-.14-.63-.16-.53-.24-1-.24-1.4,0-1.35,.79-2,2.4-2,1.21,0,2.18,.37,2.89,1.1,.52,.53,.79,1.52,.79,2.94v2.25c-3.13,.48-5.38,1.14-6.71,1.94-1.37,.83-2.06,2.01-2.06,3.52,0,1.11,.37,2.01,1.1,2.68,.73,.66,1.71,1,2.93,1,1.57,0,3.28-.69,5.1-2.05,.85,1.26,1.81,1.9,2.87,1.9,.57,0,1.17-.12,1.77-.36,.65-.26,.96-.52,.98-.8,0-.13-.02-.22-.09-.3-.08-.08-.19-.11-.33-.1"/><path class="i" d="M215.48,47.44c-1-.16-1.66-.41-1.95-.74-.3-.33-.45-.97-.45-1.91v-6.06c0-2.02-.57-3.68-1.7-4.94-1.13-1.26-2.63-1.89-4.45-1.89s-3.64,.95-5.24,2.82v-12.77c0-.42,0-.75,.02-.96,.03-.23,.04-.39,.04-.47,0-.47-.28-.54-.45-.54-.13,0-.29,.04-.45,.13l-1.5,.71c-.97,.47-1.87,.8-2.66,.99-.35,.09-.53,.27-.53,.51,0,.2,.11,.31,.2,.36,.09,.05,.2,.07,.33,.07h0l.97-.06c.26-.02,.48,.05,.65,.22,.33,.31,.5,.96,.5,1.93v19.9c0,1.33-.13,1.83-.24,2.02-.16,.26-.6,.51-1.31,.73-.46,.13-.54,.39-.53,.59,.01,.15,.1,.41,.6,.41,.17,0,.46-.02,.89-.05,.94-.07,1.68-.1,2.19-.1,1.47,0,2.45,.02,2.9,.07,.58,.06,.92,.09,1.07,.09,.47,0,.54-.27,.54-.44,0-.32-.25-.51-.76-.59-1.1-.15-1.79-.4-2.06-.76-.28-.36-.41-1.18-.41-2.45v-7.41c0-.79,.42-1.51,1.25-2.15,.84-.65,1.79-.98,2.82-.98,1.34,0,2.43,.46,3.23,1.38,.8,.92,1.21,2.18,1.21,3.76v6.33l-.02,.59c0,.67-.11,.96-.2,1.08-.1,.12-.37,.33-1.15,.62-.32,.13-.48,.3-.46,.51,0,.17,.11,.47,.66,.47,.09,0,.29-.02,.61-.05,.52-.07,1.36-.1,2.47-.1,.67,0,1.49,.03,2.42,.09,.47,.04,.79,.06,.95,.06,.55,0,.64-.29,.64-.47,0-.2-.11-.46-.62-.54"/><path class="i" d="M64.59,63.29c-1.17-.39-1.91-.66-2.21-.81-.29-.15-.57-.38-.82-.7-.28-.37-.43-.81-.43-1.32,0-.57,.22-1.06,.66-1.44,.44-.39,.99-.58,1.65-.58,.83,0,1.59,.22,2.26,.65,.67,.43,1.12,.98,1.34,1.64,.11,.33,.22,.48,.35,.48,.11,0,.25-.06,.25-.34,0-.05-.02-.17-.05-.39l-.15-.96c-.08-.52-.12-.83-.12-.93,0-.22-.04-.37-.12-.45-.04-.04-.09-.06-.15-.06-.07,0-.12,.02-.14,.05l-.13,.11c-.11,.1-.23,.1-.34,.05l-.64-.27c-.46-.19-1.04-.29-1.71-.29-1.19,0-2.17,.32-2.93,.96-.76,.64-1.14,1.48-1.14,2.5,0,.91,.29,1.66,.87,2.23,.58,.57,1.57,1.09,2.95,1.56,1.32,.44,2.13,.79,2.4,1.03,.53,.46,.8,1.04,.8,1.71s-.29,1.31-.87,1.8c-.58,.49-1.3,.74-2.14,.74s-1.61-.26-2.31-.78c-.71-.51-1.17-1.16-1.39-1.92-.1-.32-.21-.49-.35-.49-.06,0-.12,.01-.16,.05-.06,.05-.08,.14-.08,.27,0,.24,.08,.65,.24,1.21,.14,.52,.22,.8,.23,.85,.07,.35,.13,.57,.17,.66,.04,.09,.12,.18,.24,.26,.27,.18,.7,.35,1.28,.48,.58,.14,1.11,.21,1.59,.21,1.33,0,2.44-.38,3.29-1.12,.85-.75,1.28-1.72,1.28-2.89,0-1.73-1.17-2.99-3.48-3.74"/><path class="i" d="M71.45,67.72c.5-.34,1.23-.55,2.16-.64v1.79c0,.45-.1,.79-.31,.99-.34,.33-.77,.5-1.27,.5-.41,0-.74-.12-.98-.36-.24-.24-.36-.57-.36-.98,0-.52,.26-.96,.77-1.3m4.85,2.51s-.12,.01-.23,.04c-.05,.01-.12,.02-.21,.02-.31,0-.53-.11-.66-.34-.14-.24-.2-.64-.2-1.21v-3.65c0-.69-.24-1.24-.72-1.63-.47-.38-1.14-.57-2-.57-.94,0-1.7,.31-2.26,.92-.42,.45-.64,.88-.64,1.28,0,.17,.13,.32,.38,.45,.24,.13,.52,.19,.81,.19,.08,0,.15-.02,.19-.06,.04-.04,.05-.09,.05-.16,0-.09-.03-.19-.07-.31-.08-.26-.12-.49-.12-.69,0-.66,.39-.99,1.18-.99,.59,0,1.07,.18,1.42,.54,.26,.26,.39,.74,.39,1.44v1.11c-1.53,.24-2.63,.55-3.28,.95-.66,.4-1,.98-1,1.71,0,.54,.18,.98,.53,1.3,.35,.32,.83,.48,1.42,.48,.77,0,1.6-.34,2.49-1,.41,.62,.88,.93,1.4,.93,.28,0,.57-.06,.86-.18,.31-.13,.46-.25,.47-.38,0-.06-.01-.1-.04-.14-.03-.03-.09-.05-.16-.05"/><path class="i" d="M86.47,70.4l-.39-.06c-.43-.07-.68-.29-.74-.67l-.03-.44v-2.51c0-1.15-.19-2.02-.6-2.59-.59-.82-1.39-1.24-2.4-1.24-.88,0-1.73,.47-2.54,1.4v-.92c0-.14,0-.25,0-.35,0-.13-.01-.21-.06-.27-.08-.08-.22-.07-.38,.02-.05,.03-.17,.08-.36,.18l-.49,.24c-.38,.18-.78,.31-1.19,.38-.19,.04-.28,.11-.28,.23,0,.08,.04,.14,.11,.18,.05,.03,.11,.05,.18,.05h.4c.27,0,.46,.06,.56,.21,.1,.15,.15,.44,.15,.87v4.21c0,.35-.05,.6-.16,.75-.1,.15-.31,.28-.62,.39-.13,.05-.2,.13-.21,.22,0,.06,.01,.11,.04,.15,.04,.04,.09,.06,.17,.06,.06,0,.18-.01,.38-.03,.19-.03,.78-.04,1.76-.04,.47,0,.76,0,.87,.02,.21,.04,.37,.05,.48,.05,.23,0,.26-.14,.26-.22,0-.14-.12-.23-.35-.25-.81-.05-1.22-.32-1.25-.81l-.02-.75v-3.56c0-.37,.2-.71,.58-1.01,.39-.3,.84-.45,1.35-.45,.72,0,1.28,.23,1.66,.69,.39,.46,.59,1.12,.59,1.97v3.21c0,.36-.11,.57-.34,.62l-.28,.07c-.17,.04-.21,.15-.21,.23,0,.11,.05,.16,.09,.19l.15,.04,.27-.02h.36l.92-.03c.55,0,.93,.01,1.13,.04,.18,.02,.3,.03,.37,.03,.14,0,.24-.03,.3-.09,.04-.04,.06-.1,.05-.16,0-.12-.11-.2-.3-.23"/><path class="i" d="M141.92,70.42l-.43-.05c-.29-.04-.49-.13-.58-.27-.09-.14-.14-.43-.14-.86v-6.28c0-.21-.09-.27-.17-.27h-.01l-.51,.24c-.53,.28-.98,.48-1.32,.59-.34,.11-.5,.21-.51,.32,0,.04,.01,.08,.04,.11,.06,.06,.17,.09,.36,.09,.31,0,.51,.07,.6,.21,.09,.15,.14,.48,.14,.98v4.06c0,.36-.04,.63-.11,.79-.07,.16-.2,.26-.39,.33l-.18,.06c-.17,.06-.2,.17-.2,.25,0,.1,.05,.22,.3,.22,.07,0,.18,0,.35-.03,.07-.01,.17-.02,.28-.03l.68-.04h.6c.27,.01,.49,.02,.65,.03,.31,.03,.51,.04,.61,.04,.24,0,.3-.11,.3-.2,0-.16-.12-.25-.37-.29"/><path class="i" d="M137.34,70.4l-.39-.06c-.43-.07-.68-.29-.74-.67l-.03-.44v-2.51c0-1.15-.19-2.02-.6-2.59-.58-.82-1.39-1.24-2.4-1.24-.88,0-1.73,.47-2.54,1.4v-.92c0-.14,0-.25,0-.35,0-.13-.01-.21-.06-.27-.08-.08-.22-.07-.38,.02-.05,.03-.17,.08-.36,.18l-.49,.24c-.38,.18-.78,.31-1.19,.38-.19,.04-.28,.11-.28,.23,0,.08,.04,.14,.11,.18,.05,.03,.11,.05,.18,.05h.4c.27,0,.46,.06,.56,.21,.1,.15,.15,.44,.15,.87v4.21c0,.35-.05,.6-.16,.75-.1,.15-.31,.28-.62,.39-.13,.05-.2,.13-.21,.22,0,.06,.01,.11,.04,.15,.04,.04,.09,.06,.17,.06,.06,0,.18-.01,.38-.03,.19-.03,.78-.04,1.76-.04,.47,0,.76,0,.87,.02,.21,.04,.37,.05,.48,.05,.23,0,.26-.14,.26-.22,0-.14-.12-.23-.35-.25-.81-.05-1.22-.32-1.25-.81l-.02-.75v-3.56c0-.37,.2-.71,.58-1.01,.39-.3,.84-.45,1.35-.45,.72,0,1.28,.23,1.66,.69,.39,.46,.59,1.12,.59,1.97v3.21c0,.36-.11,.57-.34,.62l-.28,.07c-.17,.04-.21,.15-.21,.23,0,.11,.05,.16,.09,.19l.15,.04,.27-.02h.36l.92-.03c.55,0,.93,.01,1.13,.04,.18,.02,.3,.03,.37,.03,.14,0,.24-.03,.3-.09,.04-.04,.06-.1,.05-.16,0-.12-.11-.2-.3-.23"/><path class="i" d="M125.66,67.45c0,.95-.22,1.72-.66,2.27-.43,.55-1.03,.83-1.78,.83-.86,0-1.59-.4-2.17-1.18-.58-.79-.88-1.78-.88-2.95,0-.92,.24-1.67,.7-2.23,.46-.56,1.08-.84,1.84-.84,.86,0,1.57,.38,2.12,1.14,.55,.76,.83,1.76,.83,2.96m-2.71-4.57c-1.16,0-2.16,.4-2.97,1.2-.81,.8-1.23,1.78-1.23,2.92s.39,2.15,1.16,2.91c.77,.75,1.76,1.14,2.95,1.14s2.23-.39,3.03-1.17c.8-.78,1.2-1.77,1.2-2.96,0-1.09-.41-2.05-1.22-2.84-.81-.79-1.79-1.19-2.91-1.19"/><path class="i" d="M140.15,59.03c-.14,0-.33,.13-.57,.4-.24,.27-.35,.47-.35,.63s.11,.36,.32,.62c.22,.26,.39,.39,.53,.39s.33-.13,.56-.4c.23-.27,.34-.48,.33-.63,0-.08-.03-.17-.1-.26l-.22-.36c-.17-.27-.33-.4-.5-.4"/><path class="i" d="M97.85,64.77c0,.12-.14,.18-.42,.18h-3.07c-.38,0-.38-.16-.38-.2,0-.03,.02-.11,.12-.33l1.82-4.04c.06-.14,.1-.15,.1-.15,.04,0,.11,.04,.2,.28l1.54,3.88,.05,.17h0c.04,.12,.04,.17,.04,.2m5.05,5.62c-.58-.1-.96-.24-1.15-.42-.19-.18-.43-.64-.72-1.39l-.2-.5-4.01-10.27c-.08-.2-.17-.3-.3-.3s-.22,.1-.31,.31l-4.79,10.65-.27,.61c-.13,.28-.31,.56-.52,.82-.25,.32-.4,.41-.48,.44l-.35,.1c-.13,.04-.19,.12-.19,.25,0,.08,.04,.22,.3,.22,.01,0,.05,0,.52-.05,.1,0,.24-.01,.41-.01,.38,0,.73,0,1.03,.02l.89,.05c.14,0,.25,.01,.32,.01,.13,0,.22-.03,.27-.08,.03-.03,.05-.08,.04-.13,0-.13-.12-.22-.33-.26-.42-.09-.7-.2-.84-.33-.13-.12-.2-.32-.2-.6,0-.3,.14-.76,.41-1.38l.61-1.37c.23-.51,.36-.68,.43-.73,.07-.05,.27-.1,.83-.1h3.37c.44,0,.57,.04,.61,.07,.04,.03,.13,.16,.29,.57l.47,1.23c.38,.97,.57,1.63,.57,1.95s-.14,.53-.43,.59l-.29,.07c-.22,.04-.27,.15-.27,.24s.04,.24,.29,.24c.07,0,.17-.01,.3-.04,.21-.04,.76-.05,1.61-.05s1.4,.02,1.72,.05c.19,.01,.3,.02,.36,.02,.25,0,.3-.11,.31-.2,0-.14-.1-.24-.32-.28"/><path class="i" d="M149.68,67.45c0,.95-.22,1.72-.66,2.27-.43,.55-1.03,.83-1.78,.83-.86,0-1.59-.4-2.17-1.18-.58-.79-.88-1.78-.88-2.95,0-.92,.24-1.67,.7-2.23,.46-.56,1.08-.84,1.84-.84,.86,0,1.57,.38,2.12,1.14,.55,.76,.83,1.76,.83,2.96m-2.71-4.57c-1.16,0-2.16,.4-2.97,1.2-.81,.8-1.23,1.78-1.23,2.92s.39,2.15,1.16,2.91c.77,.75,1.76,1.14,2.95,1.14s2.23-.39,3.03-1.17c.8-.78,1.2-1.77,1.2-2.96,0-1.09-.41-2.05-1.22-2.84-.81-.79-1.79-1.19-2.91-1.19"/><path class="i" d="M112.59,70.4l-.39-.06c-.43-.07-.68-.29-.74-.67l-.03-.44v-2.51c0-1.15-.19-2.02-.6-2.59-.59-.82-1.39-1.24-2.4-1.24-.88,0-1.73,.47-2.54,1.4v-.92c0-.14,0-.25,0-.35,0-.13-.01-.21-.06-.27-.08-.08-.22-.07-.38,.02-.05,.03-.17,.08-.36,.18l-.49,.24c-.38,.18-.78,.31-1.19,.38-.19,.04-.28,.11-.28,.23,0,.08,.04,.14,.11,.18,.05,.03,.11,.05,.17,.05h.4c.27,0,.46,.06,.56,.21,.1,.15,.15,.44,.15,.87v4.21c0,.35-.05,.6-.15,.75-.1,.15-.31,.28-.62,.39-.13,.05-.2,.13-.21,.22,0,.06,.01,.11,.04,.15,.04,.04,.09,.06,.17,.06,.06,0,.18-.01,.38-.03,.19-.03,.78-.04,1.76-.04,.47,0,.76,0,.87,.02,.21,.04,.37,.05,.48,.05,.23,0,.26-.14,.26-.22,0-.14-.12-.23-.35-.25-.81-.05-1.22-.32-1.25-.81l-.02-.75v-3.56c0-.37,.2-.71,.58-1.01,.39-.3,.84-.45,1.35-.45,.72,0,1.28,.23,1.66,.69,.39,.46,.59,1.12,.59,1.97v3.21c0,.36-.11,.57-.34,.62l-.28,.07c-.17,.04-.2,.15-.2,.23,0,.09,.03,.15,.09,.19l.15,.04,.27-.02h.36l.92-.03c.55,0,.93,.01,1.13,.04,.18,.02,.3,.03,.37,.03,.14,0,.24-.03,.3-.09,.04-.04,.06-.1,.05-.16,0-.12-.11-.2-.3-.23"/><path class="i" d="M118.45,69.83l-.08,.02-.49,.23c-.25,.13-.57,.2-.94,.2-.46,0-.81-.13-1.06-.39-.16-.17-.25-.56-.25-1.15v-4.64h2.16c.23,0,.38-.1,.46-.3l.21-.53c.08-.18,.09-.23,.09-.25,0-.06,0-.1-.04-.13-.03-.02-.07-.03-.11-.02-.05,0-.13,.05-.23,.12-.14,.09-.35,.14-.61,.14h-1.94l.04-1.56c0-.24-.1-.29-.18-.29-.06,0-.16,.05-.4,.43-.38,.61-.94,1.23-1.66,1.84-.18,.15-.26,.27-.26,.37,0,.09,.05,.19,.29,.19h.78v4.65c0,1.51,.74,2.28,2.19,2.28,.43,0,.9-.12,1.39-.36,.51-.25,.76-.48,.76-.7,0-.1-.06-.15-.16-.15"/></g><line class="k" x1="60.09" y1="78.12" x2="213.02" y2="78.12"/><g id="d"><g><g><path class="j" d="M72.26,91.68c.14,0,.49-.07,.49,.16,0,.38-.92-.04-.92,1.17v3.67c-1.85,.59-2.34,1.82-5.55,1.82-3.98,0-6.45-2.47-6.45-6.46s2.92-6.57,6.73-6.57c3.11,0,4.02,1.22,4.52,1.22,.2,0,.27-.32,.47-.32,.25,0,.18,.27,.2,.41l.18,2.36c0,.14-.02,.32-.2,.32-.47,0-1.28-3.48-5.53-3.48-3.24,0-4.86,2.74-4.86,5.71,0,3.19,1.84,6.23,5.31,6.23,1.64,0,3.75-.81,3.75-2.34v-2.79c0-.85-1.57-.47-1.57-.92,0-.23,.25-.2,.41-.2h3.01Z"/><path class="j" d="M66.28,98.55c-4.01,0-6.5-2.5-6.5-6.51s2.85-6.62,6.78-6.62c2.23,0,3.32,.62,3.97,.99,.24,.14,.42,.24,.55,.24,.08,0,.13-.07,.2-.14,.07-.08,.15-.18,.27-.18,.07,0,.13,.02,.17,.06,.07,.07,.07,.19,.07,.3,0,.04,0,.07,0,.1l.18,2.36c0,.11,0,.38-.25,.38-.14,0-.28-.21-.5-.56-.6-.95-1.86-2.91-5.02-2.91-2.39,0-4.81,1.75-4.81,5.66,0,4.25,2.73,6.18,5.26,6.18,1.49,0,3.7-.73,3.7-2.29v-2.79c0-.45-.49-.52-.92-.59-.35-.05-.64-.1-.64-.33,0-.07,.02-.13,.06-.17,.08-.08,.23-.08,.34-.08h3.06s.05,0,.09,0c.12,0,.3-.02,.39,.06,.04,.04,.06,.09,.06,.15,0,.17-.15,.22-.31,.26-.27,.08-.61,.17-.61,.91v3.71h-.03c-.62,.21-1.1,.48-1.56,.75-.92,.53-1.87,1.08-4.01,1.08Zm.29-13.04c-3.87,0-6.68,2.74-6.68,6.52s2.45,6.41,6.4,6.41c2.11,0,3.05-.54,3.96-1.07,.46-.26,.93-.54,1.54-.74v-3.64c0-.81,.41-.93,.68-1.01,.17-.05,.23-.07,.23-.16,0-.03,0-.06-.03-.08-.06-.06-.21-.05-.32-.04-.03,0-.07,0-.09,0h-3.01s-.08,0-.12,0c-.08,0-.16,0-.21,.05-.02,.02-.03,.06-.03,.1,0,.15,.26,.19,.56,.23,.45,.07,1.01,.15,1.01,.69v2.79c0,1.63-2.26,2.39-3.79,2.39-1.64,0-3.02-.67-4-1.94-.88-1.14-1.36-2.68-1.36-4.34,0-1.55,.44-2.97,1.23-4,.88-1.15,2.16-1.76,3.69-1.76,3.22,0,4.49,2,5.11,2.96,.18,.28,.33,.52,.42,.52,.11,0,.15-.08,.15-.27l-.18-2.35s0-.07,0-.11c0-.08,0-.18-.04-.22-.02-.02-.06-.03-.1-.03-.08,0-.13,.07-.2,.14-.07,.08-.15,.18-.27,.18-.16,0-.34-.11-.6-.25-.64-.36-1.71-.97-3.92-.97Z"/></g><g><path class="j" d="M76.13,96.79c0,1.67,1.6,.81,1.6,1.39,0,.16-.09,.2-.29,.2-.25,0-.68-.07-1.69-.07-1.21,0-1.53,.07-1.66,.07-.14,0-.2-.05-.2-.16,0-.38,.92-.31,.92-1.04v-4.65c0-1.08-1.3-.61-1.3-.99,0-.11,.14-.18,.23-.2,1.39-.32,1.75-.9,2.16-.9,.11,0,.22,.11,.22,.29v1.35h.04c.38-.52,1.03-1.49,1.78-1.49,.38,0,1.19,.47,1.19,.81,0,.27-.43,.81-.65,.81-.34,0-.54-.41-1.19-.41-.74,0-1.17,.83-1.17,1.06v3.94Z"/><path class="j" d="M77.44,98.43c-.09,0-.19,0-.33-.02-.28-.02-.69-.05-1.36-.05-.91,0-1.32,.04-1.51,.06-.07,0-.11,.01-.14,.01-.16,0-.25-.07-.25-.21,0-.19,.18-.28,.37-.37,.25-.13,.54-.27,.54-.67v-4.65c0-.63-.47-.7-.85-.75-.24-.03-.45-.06-.45-.24,0-.14,.17-.23,.27-.25,.81-.19,1.26-.46,1.59-.66,.23-.14,.4-.24,.58-.24,.13,0,.27,.13,.27,.34v1.25l.02-.03c.4-.56,1.01-1.41,1.75-1.41,.4,0,1.24,.48,1.24,.86,0,.3-.46,.86-.7,.86-.16,0-.28-.08-.43-.17-.19-.12-.4-.25-.76-.25-.7,0-1.12,.8-1.12,1.01v3.94c0,1.01,.59,1.05,1.06,1.09,.28,.02,.54,.04,.54,.3,0,.23-.17,.25-.34,.25Zm-1.69-.17c.67,0,1.09,.03,1.37,.05,.49,.04,.56,.02,.56-.13,0-.16-.15-.18-.45-.2-.46-.03-1.15-.08-1.15-1.19v-3.94c0-.24,.44-1.11,1.22-1.11,.39,0,.63,.15,.81,.26,.14,.08,.24,.15,.37,.15,.17,0,.6-.5,.6-.76,0-.29-.77-.76-1.14-.76-.68,0-1.3,.86-1.67,1.37l-.09,.12h-.11v-1.4c0-.15-.08-.24-.17-.24-.16,0-.31,.1-.53,.23-.33,.2-.79,.48-1.62,.67-.08,.02-.2,.08-.2,.15,0,.09,.14,.11,.36,.14,.37,.05,.94,.12,.94,.85v4.65c0,.46-.33,.63-.6,.76-.2,.1-.32,.16-.32,.29,0,.06,.01,.11,.15,.11,.03,0,.07,0,.13-.01,.2-.02,.61-.06,1.52-.06Z"/></g><g><path class="j" d="M84.28,92.62c0-.94-.74-1.57-1.85-1.57-.86,0-1.57,.09-1.57,1.08,0,.27,.11,.54,.11,.74s-.05,.34-.4,.34c-.31,0-.85-.27-.85-.59,.02-.83,1.03-2.09,3.02-2.03,1.12,0,2.84,.32,2.84,1.85v3.73c0,.61-.16,1.67,.77,1.67,.07,0,.23-.04,.31-.04,.09,0,.23,0,.23,.13,0,.38-.79,.45-1.04,.45-.7,0-1.17-.32-1.4-.92-.76,.65-1.75,1.04-2.75,1.04-1.17,0-1.94-.43-1.94-1.71,0-.95,.31-2.09,4.52-2.79v-1.39Zm0,1.82c-1.15,.25-3.35,.54-3.35,2.12,0,1.03,.52,1.42,1.48,1.42,.65,0,1.87-.5,1.87-1.46v-2.09Z"/><path class="j" d="M81.71,98.55c-1.34,0-1.99-.58-1.99-1.76,0-1,.35-2.13,4.52-2.83v-1.34c0-.91-.73-1.52-1.81-1.52-.83,0-1.52,.08-1.52,1.03,0,.14,.03,.28,.06,.41,.03,.12,.05,.23,.05,.32,0,.2-.05,.39-.45,.39-.31,0-.9-.27-.9-.64,0-.41,.25-.88,.64-1.25,.59-.56,1.45-.86,2.44-.83,.68,0,2.89,.14,2.89,1.9v3.73c0,.08,0,.16,0,.24-.01,.42-.03,.94,.23,1.2,.12,.12,.28,.18,.5,.18,.03,0,.09,0,.14-.02,.06,0,.12-.02,.16-.02,.09,0,.28,0,.28,.18,0,.49-1.08,.5-1.09,.5-.68,0-1.17-.31-1.42-.89-.78,.64-1.77,1.01-2.73,1.01Zm.72-7.55c1.14,0,1.9,.65,1.9,1.62v1.43h-.04c-4.13,.7-4.48,1.78-4.48,2.75,0,1.13,.6,1.66,1.89,1.66,.96,0,1.96-.38,2.72-1.03l.05-.05,.03,.07c.23,.59,.69,.89,1.36,.89,.32,0,.99-.1,.99-.4,0-.06-.04-.08-.18-.08-.03,0-.09,0-.15,.02-.06,0-.12,.02-.16,.02-.24,0-.44-.07-.57-.21-.29-.29-.27-.84-.26-1.27,0-.09,0-.17,0-.24v-3.73c0-1.67-2.14-1.8-2.79-1.8-.96-.03-1.8,.26-2.37,.8-.37,.35-.6,.8-.61,1.18,0,.28,.5,.54,.8,.54,.32,0,.35-.13,.35-.29,0-.09-.02-.19-.05-.3-.03-.13-.06-.28-.06-.44,0-1.04,.76-1.13,1.62-1.13Zm-.02,7.03c-1.04,0-1.53-.47-1.53-1.47,0-1.48,1.83-1.85,3.05-2.1,.12-.02,.24-.05,.34-.07h.06v2.14c0,.99-1.25,1.51-1.92,1.51Zm1.82-3.53c-.09,.02-.18,.04-.28,.06-1.18,.24-2.97,.61-2.97,2,0,.95,.44,1.37,1.43,1.37,.64,0,1.82-.48,1.82-1.41v-2.03Z"/></g><g><path class="j" d="M93.14,86.98c0-1.08-1.42-.61-1.42-.99,0-.11,.07-.18,.16-.2,1.39-.32,1.94-.9,2.36-.9,.11,0,.22,.11,.22,.29v12.32c0,.22,.36,.36,.95,.45,.13,.02,.2,.02,.2,.16,0,.13-.47,.25-1.13,.25-.47,0-.97,.14-1.13,.14-.14,0-.2-.14-.2-.27v-.99h-.04c-.61,.77-1.6,1.26-2.65,1.26-1.98,0-3.19-1.82-3.19-3.67,0-2.12,1.49-4.25,3.76-4.25,.76,0,1.49,.22,2.11,.63v-4.23Zm0,6.1c0-1.33-1.08-2.09-2.38-2.09-1.69,0-2.45,1.58-2.45,3.08s1.08,3.66,2.79,3.66c1.49,0,2.03-.92,2.03-1.57v-3.08Z"/><path class="j" d="M93.34,98.55c-.17,0-.25-.16-.25-.32v-.89c-.64,.76-1.61,1.21-2.63,1.21-.93,0-1.78-.41-2.37-1.16-.55-.68-.86-1.62-.86-2.56,0-2.07,1.46-4.3,3.81-4.3,.75,0,1.46,.2,2.06,.59v-4.14c0-.63-.52-.7-.94-.75-.26-.03-.49-.06-.49-.24,0-.12,.08-.22,.2-.25,.79-.18,1.31-.45,1.69-.65,.29-.15,.49-.25,.68-.25,.13,0,.27,.13,.27,.34v12.32c0,.12,.16,.29,.91,.4h.02c.11,.02,.22,.03,.22,.21,0,.2-.6,.3-1.18,.3-.29,0-.6,.06-.82,.1-.14,.03-.25,.05-.31,.05Zm-.26-1.36h.11v1.04s0,.22,.15,.22c.06,0,.17-.02,.29-.04,.23-.04,.54-.1,.84-.1,.72,0,1.08-.14,1.08-.2,0-.09-.02-.09-.13-.11h-.02c-.67-.11-1-.27-1-.5v-12.32c0-.15-.08-.24-.17-.24-.16,0-.36,.1-.64,.24-.38,.2-.91,.47-1.71,.66-.06,.01-.12,.06-.12,.15s.15,.11,.4,.14c.41,.05,1.02,.12,1.02,.85v4.33l-.08-.05c-.6-.41-1.32-.62-2.08-.62-1.79,0-3.71,1.61-3.71,4.2,0,2.27,1.6,3.62,3.14,3.62,1.02,0,1.99-.46,2.61-1.24v-.02Zm-1.96,.59c-1.73,0-2.84-2.19-2.84-3.71s.78-3.13,2.5-3.13c1.43,0,2.43,.88,2.43,2.14v3.08c0,.56-.44,1.62-2.08,1.62Zm-.34-6.73c-1.65,0-2.4,1.57-2.4,3.03s1.07,3.61,2.74,3.61c1.57,0,1.98-.99,1.98-1.52v-3.08c0-1.01-.72-2.04-2.33-2.04Z"/></g><g><path class="j" d="M101.98,91.9c0-.68-.95-.25-.95-.68,0-.14,.23-.16,.32-.16,.52,0,.77-.05,.97-.11,.2-.04,.36-.09,.65-.09,.07,0,.32,.09,.32,.43v6.23c0,.47,1.13,.23,1.13,.63,0,.14-.38,.16-.67,.16-.5,0-.76,.05-.97,.09-.2,.05-.34,.11-.61,.11-.14,0-.16-.2-.16-.27v-.99h-.04c-.56,.85-1.44,1.26-2.39,1.26-1.44,0-2.63-.88-2.63-2.41v-4.19c0-.68-.95-.25-.95-.68,0-.14,.23-.16,.32-.16,.52,0,.77-.05,.97-.11,.2-.04,.36-.09,.65-.09,.07,0,.32,.09,.32,.43v4.56c-.02,1.91,1.51,2.03,1.75,2.03,1.03,0,1.93-.76,1.96-1.28v-4.7Z"/><path class="j" d="M102.17,98.55c-.16,0-.21-.17-.21-.32v-.88c-.55,.78-1.39,1.2-2.38,1.2-1.58,0-2.68-1.01-2.68-2.46v-4.19c0-.34-.25-.37-.51-.4-.21-.02-.44-.05-.44-.29,0-.2,.29-.21,.37-.21,.53,0,.77-.06,.96-.11,.05,0,.1-.02,.14-.03,.15-.03,.3-.06,.52-.06,.1,0,.37,.11,.37,.48v4.56c0,.64,.16,1.14,.51,1.49,.49,.49,1.16,.5,1.19,.5,1.01,0,1.88-.75,1.91-1.23v-4.7c0-.34-.25-.37-.51-.4-.21-.02-.44-.05-.44-.29,0-.2,.29-.21,.37-.21,.53,0,.77-.06,.96-.11,.05,0,.1-.02,.14-.03,.15-.03,.3-.06,.52-.06,.1,0,.37,.11,.37,.48v6.23c0,.2,.29,.25,.56,.3,.28,.05,.57,.1,.57,.33,0,.19-.36,.21-.72,.21-.44,0-.69,.04-.89,.08h-.08l-.08,.04c-.16,.05-.3,.09-.54,.09Zm-.23-1.36h.11v1.04s0,.22,.11,.22c.22,0,.36-.04,.51-.08l.08-.02h.08c.2-.05,.45-.09,.91-.09,.57,0,.62-.09,.62-.11,0-.15-.24-.19-.49-.23-.3-.05-.64-.11-.64-.4v-6.23c0-.32-.23-.38-.27-.38-.21,0-.36,.03-.5,.06-.05,0-.09,.02-.14,.03-.19,.05-.44,.11-.98,.11-.1,0-.27,.02-.27,.11,0,.13,.11,.16,.35,.19,.25,.03,.6,.07,.6,.5v4.7c-.04,.52-.92,1.33-2.01,1.33-.08,0-.75-.01-1.26-.53-.36-.37-.54-.89-.54-1.56v-4.55c0-.32-.23-.38-.27-.38-.21,0-.36,.03-.5,.06-.05,0-.09,.02-.14,.03-.19,.05-.44,.11-.98,.11-.1,0-.27,.02-.27,.11,0,.13,.11,.16,.35,.19,.25,.03,.6,.07,.6,.5v4.19c0,1.39,1.06,2.36,2.58,2.36,.99,0,1.83-.44,2.35-1.24v-.02Z"/></g><g><path class="j" d="M109.73,92.62c0-.94-.74-1.57-1.85-1.57-.86,0-1.57,.09-1.57,1.08,0,.27,.11,.54,.11,.74s-.05,.34-.4,.34c-.31,0-.85-.27-.85-.59,.02-.83,1.03-2.09,3.02-2.03,1.12,0,2.84,.32,2.84,1.85v3.73c0,.61-.16,1.67,.77,1.67,.07,0,.23-.04,.31-.04,.09,0,.23,0,.23,.13,0,.38-.79,.45-1.04,.45-.7,0-1.17-.32-1.4-.92-.76,.65-1.75,1.04-2.75,1.04-1.17,0-1.94-.43-1.94-1.71,0-.95,.31-2.09,4.52-2.79v-1.39Zm0,1.82c-1.15,.25-3.35,.54-3.35,2.12,0,1.03,.52,1.42,1.48,1.42,.65,0,1.87-.5,1.87-1.46v-2.09Z"/><path class="j" d="M107.16,98.55c-1.34,0-1.99-.58-1.99-1.76,0-1,.35-2.13,4.52-2.83v-1.34c0-.91-.73-1.52-1.8-1.52-.83,0-1.52,.08-1.52,1.03,0,.14,.03,.28,.06,.41,.03,.12,.05,.23,.05,.32,0,.2-.05,.39-.45,.39-.31,0-.9-.27-.9-.64,0-.41,.25-.88,.64-1.25,.56-.54,1.38-.83,2.32-.83,.04,0,.08,0,.12,0,.68,0,2.89,.14,2.89,1.9v3.73c0,.08,0,.16,0,.24-.01,.42-.03,.94,.23,1.2,.12,.12,.28,.18,.5,.18,.03,0,.09,0,.15-.02,.06,0,.12-.02,.16-.02,.08,0,.28,0,.28,.18,0,.49-1.08,.5-1.09,.5-.68,0-1.17-.31-1.42-.89-.78,.64-1.77,1.01-2.73,1.01Zm.72-7.55c1.14,0,1.9,.65,1.9,1.62v1.43h-.04c-4.13,.7-4.48,1.78-4.48,2.75,0,1.13,.6,1.66,1.89,1.66,.96,0,1.96-.38,2.72-1.03l.05-.05,.03,.07c.23,.59,.69,.89,1.36,.89,.32,0,.99-.1,.99-.4,0-.06-.04-.08-.18-.08-.03,0-.09,0-.15,.02-.06,0-.12,.02-.16,.02-.24,0-.44-.07-.57-.21-.29-.29-.27-.84-.26-1.27,0-.09,0-.17,0-.24v-3.73c0-1.67-2.14-1.8-2.79-1.8-.04,0-.08,0-.12,0-.91,0-1.7,.28-2.25,.8-.37,.35-.6,.8-.61,1.18,0,.28,.5,.54,.8,.54,.32,0,.35-.13,.35-.29,0-.09-.02-.19-.05-.3-.03-.13-.06-.28-.06-.44,0-1.04,.76-1.13,1.62-1.13Zm-.02,7.03c-1.04,0-1.53-.47-1.53-1.47,0-1.48,1.83-1.85,3.05-2.1,.12-.02,.24-.05,.34-.07h.06v2.14c0,.99-1.25,1.51-1.92,1.51Zm1.82-3.53c-.09,.02-.18,.04-.28,.06-1.18,.24-2.97,.61-2.97,2,0,.95,.44,1.37,1.43,1.37,.64,0,1.82-.48,1.82-1.41v-2.03Z"/></g><g><path class="j" d="M113.84,91.55c-.85,0-.97,0-.97-.13,0-.14,.45-.45,1.37-1.46,.36-.43,.54-.83,.68-.83,.25,0,.23,.38,.23,1.67h1.98c.45,0,.65-.31,.7-.31,.09,0,.13,.09,.13,.14,0,.07-.05,.16-.11,.25l-.36,.65h-2.34v5.24c.04,.74,.54,1.08,1.26,1.08,.95,0,1.22-.41,1.53-.41,.07,0,.14,.02,.14,.16,0,.27-.97,.88-2.23,.88-.83,0-2.02-.23-2.02-2.09v-4.86Z"/><path class="j" d="M115.85,98.55c-1.37,0-2.07-.72-2.07-2.14v-4.81c-.86,0-.97,0-.97-.18,0-.1,.11-.21,.39-.47,.22-.21,.56-.54,.99-1.02,.14-.17,.25-.33,.35-.47,.16-.24,.26-.38,.37-.38,.18,0,.23,.17,.26,.35,.03,.22,.03,.59,.03,1.13v.19h1.93c.32,0,.5-.16,.6-.24,.05-.04,.07-.06,.1-.06,.12,0,.18,.11,.18,.19,0,.09-.06,.18-.12,.28l-.37,.67h-2.32v5.19c.03,.66,.46,1.03,1.21,1.03,.6,0,.92-.16,1.16-.29,.14-.07,.25-.13,.37-.13,.05,0,.19,0,.19,.21,0,.31-.99,.93-2.28,.93Zm-.94-9.36c-.06,0-.17,.16-.29,.33-.09,.14-.21,.3-.35,.48-.44,.48-.77,.81-1,1.02-.21,.2-.36,.35-.36,.4,0,.07,.16,.08,.92,.08h.05v4.91c0,1.37,.64,2.04,1.97,2.04,1.21,0,2.18-.6,2.18-.83,0-.11-.05-.11-.09-.11-.1,0-.2,.05-.33,.12-.25,.12-.58,.3-1.2,.3-.8,0-1.27-.41-1.31-1.13v-5.29h2.36l.35-.62c.05-.08,.1-.17,.1-.23,0-.02-.01-.09-.08-.09,0,0-.02,.02-.04,.04-.1,.09-.31,.27-.66,.27h-2.03v-.29c0-.54,0-.9-.03-1.12-.03-.24-.09-.26-.16-.26Z"/></g><g><path class="j" d="M120.01,93.75c0,2.97,1.8,3.85,2.9,3.85,1.55,0,2.14-.94,2.54-.94,.07,0,.07,.07,.07,.13,0,.41-1.57,1.71-3.19,1.71-2.7,0-3.64-2.5-3.64-3.69,0-2.3,1.28-4.23,3.53-4.23s3.19,2.14,3.19,2.86c0,.32-.2,.31-.61,.31h-4.79Zm3.55-.49c.25,0,.36-.09,.36-.36,0-1.01-1.01-1.91-2-1.91-1.12,0-1.91,1.28-1.91,2.27h3.55Z"/><path class="j" d="M122.33,98.55c-2.76,0-3.69-2.57-3.69-3.74,0-2.52,1.47-4.28,3.58-4.28,2.26,0,3.24,2.21,3.24,2.91,0,.12-.03,.2-.08,.26-.1,.1-.27,.09-.52,.1h-4.8c.01,1.33,.62,3.75,2.85,3.75,1.01,0,1.62-.41,2.02-.68,.22-.15,.37-.25,.52-.25,.12,0,.12,.13,.12,.18,0,.47-1.61,1.76-3.24,1.76Zm-.11-7.92c-2.05,0-3.48,1.72-3.48,4.18,0,1.14,.9,3.64,3.59,3.64,1.62,0,3.14-1.29,3.14-1.66,0-.08,0-.08-.02-.08-.12,0-.27,.1-.47,.24-.41,.28-1.03,.7-2.07,.7-.67,0-1.38-.31-1.9-.83-.69-.69-1.05-1.76-1.05-3.08v-.05h4.9c.23,0,.38,0,.45-.07,.04-.04,.05-.1,.05-.19,0-.68-.94-2.81-3.14-2.81Zm1.33,2.68h-3.6v-.05c0-1.07,.85-2.32,1.96-2.32s2.05,.95,2.05,1.96c0,.29-.12,.41-.41,.41Zm-3.5-.1h3.5c.23,0,.31-.08,.31-.31,0-.96-.95-1.86-1.95-1.86s-1.83,1.15-1.86,2.17Z"/></g><g><path class="j" d="M130.86,95.19c-.07-.36,.02-.56,.2-.56,.25,0,.25,.22,.34,.59,.22,.83,1.3,2.7,3.78,2.7,1.71,0,3.38-.95,3.38-2.85,0-3.47-7.31-1.53-7.31-6.23,0-2.29,1.93-3.39,4-3.39,2.18,0,2.77,.65,3.02,.65,.16,0,.2-.2,.38-.2,.11,0,.2,.05,.22,.25l.27,2.45c.02,.14-.02,.27-.2,.27-.2,0-.32-.38-.38-.54-.54-1.55-1.85-2.34-3.44-2.34-1.42,0-2.94,.68-2.94,2.34,0,3.39,7.31,1.4,7.31,6.37,0,1.51-1.06,3.78-5.15,3.78-1.33,0-2.97-.67-3.04-.99l-.45-2.32Z"/><path class="j" d="M134.36,98.55c-1.35,0-3.01-.67-3.09-1.03l-.45-2.32c-.05-.24-.03-.43,.06-.53,.05-.06,.11-.09,.19-.09,.25,0,.29,.19,.35,.47,.01,.05,.02,.11,.04,.16,.19,.74,1.24,2.66,3.73,2.66,1.61,0,3.33-.88,3.33-2.8,0-1.57-1.56-2.02-3.21-2.49-1.92-.55-4.1-1.18-4.1-3.74,0-2.37,2.03-3.44,4.05-3.44,1.64,0,2.4,.37,2.77,.55,.12,.06,.2,.1,.26,.1,.06,0,.09-.03,.14-.08,.05-.05,.12-.12,.23-.12,.16,0,.25,.1,.27,.3l.27,2.45c.01,.11,0,.19-.05,.25-.04,.05-.11,.07-.19,.07-.23,0-.36-.39-.43-.57-.51-1.47-1.75-2.31-3.39-2.31-1.44,0-2.89,.71-2.89,2.29,0,1.49,1.44,1.91,3.1,2.39,1.98,.57,4.21,1.22,4.21,3.98,0,1.77-1.36,3.83-5.2,3.83Zm-3.29-3.87s-.08,.02-.11,.05c-.06,.08-.08,.24-.04,.45h0l.45,2.32c.06,.28,1.67,.95,2.99,.95,1.81,0,3.18-.44,4.07-1.31,.65-.64,1.03-1.52,1.03-2.42,0-2.68-2.2-3.32-4.14-3.89-1.63-.47-3.17-.92-3.17-2.49,0-1.65,1.5-2.39,2.98-2.39,1.69,0,2.96,.87,3.49,2.37,.05,.14,.17,.51,.33,.51,.05,0,.09-.01,.12-.04,.04-.04,.04-.12,.03-.17l-.27-2.45c-.02-.18-.09-.21-.17-.21s-.12,.04-.17,.09c-.05,.05-.11,.11-.21,.11-.08,0-.17-.04-.3-.11-.39-.19-1.11-.54-2.72-.54-2.73,0-3.95,1.68-3.95,3.34,0,2.49,2.05,3.08,4.03,3.65,1.69,.48,3.28,.94,3.28,2.58,0,.89-.37,1.65-1.07,2.17-.62,.47-1.46,.72-2.36,.72-1.08,0-2.04-.36-2.78-1.05-.6-.57-.94-1.24-1.05-1.69-.01-.06-.03-.12-.04-.17-.06-.29-.09-.39-.26-.39Z"/></g><g><path class="j" d="M140.58,94.69c0-2.25,1.78-4.1,4.05-4.1,.9,0,2.12,.25,2.18,.67,.04,.4,.02,.83,.02,1.06,0,.25-.05,.38-.14,.38-.18,0-.38-.34-.43-.41-.61-.83-1.4-1.1-2.23-1.1-1.53,0-2.12,1.58-2.12,2.88,0,1.94,1.15,3.55,3.19,3.55,1.4,0,2.2-1.04,2.47-1.04,.05,0,.14,.05,.14,.11,0,.29-1.08,1.84-3.55,1.84-2.07,0-3.57-1.82-3.57-3.82Z"/><path class="j" d="M144.15,98.55c-1.99,0-3.62-1.73-3.62-3.87,0-2.29,1.84-4.15,4.1-4.15,.9,0,2.17,.25,2.23,.71,.03,.31,.02,.64,.02,.89,0,.07,0,.13,0,.18,0,.35-.11,.43-.19,.43-.18,0-.35-.25-.44-.39-.01-.02-.02-.04-.03-.05-.54-.73-1.25-1.08-2.19-1.08-1.43,0-2.07,1.47-2.07,2.83,0,1.74,.97,3.5,3.14,3.5,.96,0,1.64-.5,2.04-.8,.2-.15,.33-.24,.42-.24,.08,0,.19,.07,.19,.16,0,.27-1.04,1.89-3.6,1.89Zm.49-7.92c-2.21,0-4,1.82-4,4.06,0,2.08,1.58,3.77,3.52,3.77,2.44,0,3.5-1.54,3.5-1.79,0-.02-.06-.06-.09-.06-.07,0-.2,.1-.37,.22-.41,.31-1.11,.82-2.1,.82-1.94,0-3.24-1.45-3.24-3.6,0-1.41,.68-2.93,2.17-2.93,.97,0,1.72,.37,2.27,1.12,0,.01,.02,.03,.04,.05,.07,.1,.23,.34,.36,.34,.04,0,.09-.09,.09-.33,0-.05,0-.11,0-.18,0-.24,0-.57-.02-.88-.05-.35-1.18-.62-2.13-.62Z"/></g><g><path class="j" d="M150.68,91.86c.68-.65,1.57-1.28,2.59-1.28,2.3,0,3.01,2,3.01,3.55v3.01c0,.94,1.44,.56,1.44,1.01,0,.2-.16,.23-.36,.23-.32,0-.83-.07-1.51-.07s-1.28,.07-1.48,.07c-.18,0-.29-.05-.29-.2,0-.27,.88-.27,.88-.92v-3.29c0-2.23-1.55-2.65-2.18-2.65-.81,0-2.11,.7-2.11,1.62v3.8c0,1.55,1.58,1.04,1.58,1.39,0,.22-.09,.25-.31,.25-.38,0-1.28-.07-1.84-.07s-1.35,.07-1.64,.07c-.13,0-.18-.09-.18-.18,0-.36,1.06-.16,1.06-1.04v-10.17c0-1.08-1.39-.61-1.39-.99,0-.11,.05-.18,.14-.2,1.31-.25,1.93-.9,2.34-.9,.11,0,.22,.11,.22,.29v6.68Z"/><path class="j" d="M157.36,98.43c-.13,0-.3-.01-.49-.03-.28-.02-.62-.05-1.02-.05-.46,0-.87,.03-1.14,.05-.15,.01-.27,.02-.34,.02-.22,0-.34-.08-.34-.25,0-.14,.15-.21,.33-.29,.25-.12,.55-.26,.55-.62v-3.29c0-2.57-2.04-2.6-2.13-2.6-.81,0-2.06,.7-2.06,1.57v3.8c0,1.01,.7,1.11,1.16,1.17,.24,.03,.42,.06,.42,.21,0,.25-.12,.3-.36,.3-.17,0-.45-.01-.75-.03-.36-.02-.78-.04-1.08-.04-.32,0-.73,.02-1.06,.05-.24,.01-.45,.03-.57,.03-.16,0-.23-.12-.23-.23,0-.18,.18-.24,.39-.31,.31-.11,.67-.23,.67-.73v-10.17c0-.63-.5-.7-.91-.75-.26-.03-.48-.06-.48-.24,0-.13,.07-.22,.18-.25,.77-.15,1.29-.43,1.68-.64,.28-.15,.49-.26,.67-.26,.13,0,.27,.13,.27,.34v6.56c.89-.82,1.72-1.21,2.54-1.21,1.06,0,1.87,.41,2.41,1.21,.56,.84,.65,1.85,.65,2.38v3.01c0,.51,.46,.6,.87,.68,.29,.05,.57,.11,.57,.33,0,.28-.29,.28-.41,.28Zm-1.51-.17c.41,0,.75,.03,1.03,.05,.19,.01,.35,.03,.48,.03,.23,0,.31-.05,.31-.18s-.18-.18-.49-.23c-.4-.08-.95-.18-.95-.77v-3.01c0-2.58-1.53-3.5-2.96-3.5-.82,0-1.66,.41-2.56,1.26l-.08,.08v-6.8c0-.15-.08-.24-.17-.24-.16,0-.36,.11-.62,.25-.39,.21-.93,.5-1.71,.65-.09,.02-.1,.1-.1,.15,0,.09,.15,.11,.39,.14,.4,.05,1,.12,1,.85v10.17c0,.57-.43,.72-.74,.83-.2,.07-.33,.12-.33,.22,0,.03,0,.13,.13,.13s.33-.01,.57-.03c.33-.02,.74-.04,1.07-.04,.31,0,.72,.02,1.09,.04,.3,.02,.58,.03,.75,.03,.21,0,.26-.03,.26-.2,0-.07-.16-.09-.34-.11-.47-.07-1.24-.18-1.24-1.27v-3.8c0-.95,1.31-1.67,2.16-1.67,.09,0,2.23,.03,2.23,2.7v3.29c0,.43-.35,.59-.61,.72-.15,.07-.27,.13-.27,.2s.03,.15,.24,.15c.07,0,.18,0,.33-.02,.27-.02,.69-.05,1.15-.05Z"/></g><g><path class="j" d="M158.24,94.69c0-2.21,1.75-4.1,4.02-4.1,1.37,0,3.91,.67,3.91,4.02,0,2.21-1.67,3.91-3.89,3.91-2.34,0-4.03-1.39-4.03-3.82Zm6.66,.18c0-1.85-.77-3.89-2.92-3.89-1.76,0-2.48,1.55-2.48,3.08,0,1.76,.83,4.07,2.93,4.07,1.51,0,2.47-1.03,2.47-3.26Z"/><path class="j" d="M162.27,98.55c-2.48,0-4.08-1.52-4.08-3.87s1.82-4.15,4.06-4.15c.66,0,3.96,.2,3.96,4.06,0,2.26-1.69,3.96-3.94,3.96Zm-.02-7.92c-2.19,0-3.97,1.82-3.97,4.06s1.56,3.77,3.98,3.77c2.19,0,3.84-1.66,3.84-3.86,0-3.77-3.21-3.97-3.86-3.97Zm.18,7.54c-2.05,0-2.98-2.14-2.98-4.12,0-1.44,.66-3.13,2.53-3.13,.99,0,1.79,.44,2.3,1.27,.43,.69,.66,1.63,.66,2.67,0,2.13-.89,3.31-2.52,3.31Zm-.45-7.15c-1.8,0-2.43,1.63-2.43,3.03,0,.98,.24,1.95,.67,2.67,.36,.62,1.04,1.35,2.21,1.35,1.58,0,2.42-1.11,2.42-3.21,0-2.83-1.48-3.84-2.87-3.84Z"/></g><g><path class="j" d="M167.06,94.69c0-2.21,1.75-4.1,4.02-4.1,1.37,0,3.91,.67,3.91,4.02,0,2.21-1.67,3.91-3.89,3.91-2.34,0-4.03-1.39-4.03-3.82Zm6.66,.18c0-1.85-.77-3.89-2.92-3.89-1.76,0-2.48,1.55-2.48,3.08,0,1.76,.83,4.07,2.93,4.07,1.51,0,2.47-1.03,2.47-3.26Z"/><path class="j" d="M171.1,98.55c-2.48,0-4.08-1.52-4.08-3.87s1.82-4.15,4.06-4.15c.66,0,3.96,.2,3.96,4.06,0,2.26-1.69,3.96-3.94,3.96Zm-.02-7.92c-2.19,0-3.97,1.82-3.97,4.06s1.56,3.77,3.98,3.77c2.19,0,3.84-1.66,3.84-3.86,0-3.77-3.21-3.97-3.86-3.97Zm.18,7.54c-2.05,0-2.98-2.14-2.98-4.12,0-1.44,.66-3.13,2.53-3.13,.99,0,1.79,.44,2.3,1.27,.43,.69,.66,1.63,.66,2.67,0,2.13-.89,3.31-2.52,3.31Zm-.45-7.15c-1.8,0-2.43,1.63-2.43,3.03,0,.98,.24,1.95,.67,2.67,.36,.62,1.04,1.35,2.21,1.35,1.58,0,2.42-1.11,2.42-3.21,0-2.83-1.48-3.84-2.87-3.84Z"/></g><g><path class="j" d="M178.53,96.92c0,1.24,1.49,.72,1.49,1.21,0,.22-.14,.25-.41,.25-.25,0-.81-.07-1.66-.07s-1.22,.07-1.4,.07c-.14,0-.22-.07-.22-.23,0-.27,.88-.22,.88-.99v-10.17c0-1.08-1.22-.61-1.22-.99,0-.11,.07-.18,.16-.2,1.39-.32,1.75-.9,2.16-.9,.11,0,.22,.11,.22,.29v11.74Z"/><path class="j" d="M179.61,98.43c-.09,0-.22,0-.38-.02-.31-.02-.73-.05-1.27-.05-.61,0-.96,.03-1.17,.06-.1,0-.17,.02-.23,.02-.12,0-.27-.05-.27-.28,0-.13,.14-.2,.3-.27,.26-.12,.58-.26,.58-.72v-10.17c0-.64-.44-.7-.8-.75-.22-.03-.42-.06-.42-.24,0-.12,.08-.22,.2-.25,.81-.19,1.26-.46,1.59-.66,.23-.14,.4-.24,.58-.24,.13,0,.27,.13,.27,.34v11.74c0,.72,.53,.81,.96,.89,.29,.05,.53,.09,.53,.32,0,.28-.22,.3-.46,.3Zm-1.66-.17c.55,0,.97,.03,1.28,.05,.16,.01,.29,.02,.38,.02,.29,0,.36-.04,.36-.2,0-.14-.17-.17-.45-.22-.44-.08-1.04-.18-1.04-.98v-11.74c0-.15-.08-.24-.17-.24-.16,0-.31,.1-.53,.23-.33,.2-.79,.48-1.62,.67-.06,.01-.12,.06-.12,.15s.12,.11,.34,.14c.35,.05,.89,.12,.89,.85v10.17c0,.52-.38,.69-.64,.81-.13,.06-.25,.11-.25,.18,0,.15,.07,.18,.17,.18,.05,0,.12,0,.22-.02,.21-.02,.57-.06,1.18-.06Z"/></g><g><path class="j" d="M185.03,94.69c0-2.21,1.75-4.1,4.02-4.1,1.37,0,3.91,.67,3.91,4.02,0,2.21-1.67,3.91-3.89,3.91-2.34,0-4.03-1.39-4.03-3.82Zm6.66,.18c0-1.85-.77-3.89-2.92-3.89-1.76,0-2.48,1.55-2.48,3.08,0,1.76,.83,4.07,2.93,4.07,1.51,0,2.47-1.03,2.47-3.26Z"/><path class="j" d="M189.06,98.55c-2.48,0-4.08-1.52-4.08-3.87s1.82-4.15,4.06-4.15c.66,0,3.96,.2,3.96,4.06,0,2.26-1.69,3.96-3.94,3.96Zm-.02-7.92c-2.19,0-3.97,1.82-3.97,4.06s1.56,3.77,3.98,3.77c2.19,0,3.84-1.66,3.84-3.86,0-3.77-3.21-3.97-3.86-3.97Zm.18,7.54c-2.05,0-2.98-2.14-2.98-4.12,0-1.44,.66-3.13,2.53-3.13,.99,0,1.79,.44,2.3,1.27,.43,.69,.66,1.63,.66,2.67,0,2.13-.89,3.31-2.52,3.31Zm-.45-7.15c-1.8,0-2.43,1.63-2.43,3.03,0,.98,.24,1.95,.67,2.67,.36,.62,1.04,1.35,2.21,1.35,1.58,0,2.42-1.11,2.42-3.21,0-2.83-1.48-3.84-2.87-3.84Z"/></g><g><path class="j" d="M194.76,90.82c0-1.33,.34-2.65,1.06-3.8,.41-.65,1.64-1.93,2.92-1.93,.23,0,.74,.07,.74,.38,0,.34-.07,1.28-.27,1.28-.25,0-.09-.76-1.22-.76-.95,0-1.6,1.03-1.76,1.86-.18,.95-.14,2-.14,2.97h1.39c.45,0,.65-.31,.7-.31,.09,0,.13,.09,.13,.14,0,.07-.05,.16-.11,.25l-.36,.65h-1.75v5.47c0,1.15,1.28,.72,1.28,1.12,0,.22-.23,.16-.38,.16h-2.79c-.09,0-.29,.04-.29-.11,0-.38,.86-.16,.86-1.03v-5.62h-1.22l.11-.74h1.12Z"/><path class="j" d="M197.14,98.36s-.06,0-.09,0c-.03,0-.05,0-.07,0h-2.79s-.07,0-.11,0c-.06,0-.13,0-.18-.05-.03-.03-.04-.06-.04-.11,0-.18,.16-.25,.33-.32,.25-.1,.53-.22,.53-.7v-5.57h-1.23l.12-.84h1.11c0-1.37,.38-2.67,1.07-3.78,.32-.51,1.56-1.95,2.96-1.95,.29,0,.79,.09,.79,.43,0,.01-.01,1.33-.32,1.33-.11,0-.16-.1-.22-.21-.11-.22-.27-.55-1.01-.55-.88,0-1.54,.94-1.72,1.82-.15,.81-.15,1.69-.14,2.54,0,.12,0,.25,0,.37h1.34c.32,0,.5-.16,.6-.24,.05-.04,.07-.06,.1-.06,.12,0,.18,.11,.18,.19,0,.09-.06,.18-.11,.28l-.37,.67h-1.73v5.42c0,.69,.47,.77,.84,.85,.23,.04,.43,.08,.43,.27,0,.07-.02,.12-.06,.16-.05,.05-.13,.06-.21,.06Zm-2.95-.11h2.79s.05,0,.08,0c.09,0,.18,.01,.22-.03,.02-.02,.03-.04,.03-.08,0-.1-.13-.13-.35-.17-.37-.07-.92-.18-.92-.94v-5.52h1.77l.35-.62c.05-.08,.1-.17,.1-.23,0-.02-.01-.09-.08-.09,0,0-.02,.02-.04,.04-.1,.09-.31,.27-.66,.27h-1.44v-.05c0-.14,0-.28,0-.42,0-.85,0-1.74,.15-2.56,.18-.92,.88-1.9,1.81-1.9,.8,0,.99,.38,1.1,.6,.05,.1,.08,.16,.13,.16,.11,0,.22-.7,.22-1.23,0-.27-.5-.33-.69-.33-1.25,0-2.48,1.28-2.87,1.9-.69,1.1-1.05,2.41-1.05,3.77v.05h-1.12l-.09,.64h1.22v5.67c0,.55-.34,.69-.59,.8-.17,.07-.27,.12-.27,.23,0,.02,0,.03,.01,.04,.03,.03,.12,.03,.17,.02,.02,0,.04,0,.05,0Z"/></g><g><path class="j" d="M61.67,106.43c0-1.37-1.6-1.19-1.6-1.55,0-.27,.27-.25,.49-.25,.36,0,.72,.07,1.44,.07s1.44-.07,2.88-.07c3.17,0,3.96,1.73,3.96,3.06,0,1.84-1.69,2.43-1.69,2.56,0,.27,2.83,.32,2.83,3.31,0,1.19-.86,3.82-4.37,3.82-.65,0-1.73-.07-2.34-.07-.83,0-1.67,.07-2.5,.07-.09,0-.45-.04-.45-.2,0-.18,.22-.23,.54-.34,.2-.05,.83-.14,.83-1.55v-8.86Zm1.42,3.12c0,.58-.22,.67,1.4,.67,2.95,0,3.1-1.1,3.1-1.94,0-1.94-1.64-3.04-3.46-3.04-1.13,0-1.04,.31-1.04,1.35v2.97Zm0,5.67c0,1.3-.09,1.67,2.47,1.67,2.39,0,3.04-1.58,3.04-2.67,0-1.15-.07-3.46-4.21-3.46-1.39,0-1.3,.25-1.3,.41v4.03Z"/><path class="j" d="M65.6,117.43c-.33,0-.77-.02-1.2-.04-.43-.02-.84-.04-1.14-.04-.41,0-.84,.02-1.25,.04-.41,.02-.84,.04-1.25,.04,0,0-.5-.01-.5-.25,0-.2,.21-.27,.49-.36l.12-.04c.23-.06,.76-.19,.76-1.49v-8.86c0-.87-.66-1.08-1.14-1.24-.26-.08-.46-.15-.46-.31,0-.09,.02-.16,.07-.21,.1-.1,.27-.1,.42-.1h.04c.15,0,.3,.01,.48,.03,.24,.02,.54,.04,.96,.04,.3,0,.6-.01,.94-.03,.49-.02,1.09-.05,1.94-.05,1.44,0,2.52,.35,3.2,1.05,.52,.52,.81,1.26,.81,2.07,0,1.48-1.07,2.16-1.53,2.45-.07,.04-.14,.09-.16,.11,.03,.03,.2,.09,.34,.14,.8,.27,2.48,.83,2.48,3.17,0,1.55-1.18,3.87-4.42,3.87Zm-2.34-.17c.3,0,.71,.02,1.14,.04,.43,.02,.87,.04,1.2,.04,3.55,0,4.33-2.72,4.33-3.77,0-2.26-1.63-2.81-2.41-3.07-.28-.09-.42-.14-.42-.24,0-.05,.06-.09,.21-.19,.44-.28,1.48-.94,1.48-2.37,0-.91-.38-3.01-3.91-3.01-.84,0-1.45,.02-1.93,.05-.35,.01-.65,.03-.95,.03-.42,0-.73-.02-.97-.04-.17-.01-.32-.03-.47-.03h-.04c-.13,0-.28,0-.35,.07-.03,.03-.05,.07-.05,.13,0,.09,.18,.15,.39,.21,.48,.16,1.21,.39,1.21,1.33v8.86c0,1.38-.61,1.53-.83,1.59l-.11,.03c-.29,.09-.42,.14-.42,.27,0,.1,.26,.15,.4,.15,.41,0,.84-.02,1.25-.04,.41-.02,.84-.04,1.25-.04Zm2.3-.31c-1.36,0-1.97-.11-2.26-.4-.25-.26-.25-.63-.25-1.2v-4.19c0-.06,0-.15,.07-.22,.09-.09,.32-.22,1.28-.22,4.26,0,4.26,2.46,4.26,3.51,0,.66-.23,1.31-.64,1.77-.54,.63-1.37,.94-2.46,.94Zm-1.17-6.12c-.68,0-1.09,.06-1.21,.19-.04,.05-.04,.09-.04,.15v4.19c0,.54,0,.9,.22,1.13,.27,.27,.86,.37,2.19,.37s2.99-.69,2.99-2.62c0-1.02,0-3.41-4.16-3.41Zm.11-.56c-.91,0-1.25-.02-1.39-.17-.08-.09-.08-.21-.07-.37,0-.05,0-.11,0-.18v-2.97c0-.08,0-.15,0-.21,0-.49,0-.79,.18-.98,.15-.15,.42-.21,.92-.21,.94,0,1.8,.29,2.44,.8,.7,.57,1.06,1.36,1.06,2.29,0,.7,0,1.99-3.15,1.99Zm-.36-4.99c-.47,0-.72,.05-.85,.18-.15,.16-.15,.44-.15,.9,0,.07,0,.14,0,.21v2.97c0,.07,0,.13,0,.18,0,.14-.01,.24,.04,.3,.11,.12,.51,.14,1.32,.14,2.81,0,3.05-.98,3.05-1.89,0-1.44-1.07-2.99-3.41-2.99Z"/></g><g><path class="j" d="M72.11,111.53c0-1.08-.99-.61-.99-.99,0-.11,.07-.18,.16-.2,1.15-.32,1.51-.9,1.93-.9,.11,0,.22,.11,.22,.29v6.46c0,.92,1.42,.52,1.42,.99,0,.14-.11,.2-.34,.2-.38,0-.94-.07-1.67-.07-.58,0-1.04,.07-1.24,.07-.14,0-.25-.02-.27-.2,0-.45,.79,.23,.79-1.4v-4.25Zm1.4-4.7c0,.22-.52,.94-.76,.94-.22,0-.76-.74-.76-.94s.54-.95,.76-.95c.23,0,.76,.74,.76,.95Z"/><path class="j" d="M74.51,117.43c-.16,0-.35-.01-.57-.03-.3-.02-.68-.05-1.1-.05-.36,0-.68,.03-.92,.05-.14,.01-.25,.02-.33,.02-.11,0-.3,0-.32-.24,0-.2,.13-.23,.26-.26,.23-.05,.54-.12,.54-1.15v-4.25c0-.64-.35-.7-.64-.75-.17-.03-.35-.06-.35-.24,0-.12,.08-.22,.2-.25,.63-.18,1.03-.44,1.32-.63,.24-.16,.42-.27,.62-.27,.13,0,.27,.13,.27,.34v6.46c0,.49,.45,.58,.85,.65,.3,.05,.58,.1,.58,.34,0,.22-.21,.25-.39,.25Zm-1.67-.17c.43,0,.81,.02,1.11,.04,.22,.01,.41,.03,.56,.03,.27,0,.29-.08,.29-.15,0-.14-.19-.19-.49-.24-.41-.08-.93-.17-.93-.75v-6.46c0-.15-.08-.24-.17-.24-.17,0-.33,.11-.56,.26-.29,.19-.7,.46-1.35,.64-.06,.01-.13,.06-.13,.15s.08,.11,.27,.14c.29,.05,.72,.12,.72,.85v4.25c0,1.11-.37,1.2-.61,1.25-.13,.03-.18,.05-.18,.15,.01,.12,.07,.15,.22,.15,.07,0,.18,0,.32-.02,.24-.02,.56-.05,.92-.05Zm-.07-9.44c-.26,0-.81-.77-.81-.99s.55-1,.81-1c.27,0,.81,.77,.81,1s-.53,.99-.81,.99Zm0-1.89c-.18,0-.71,.73-.71,.9s.52,.89,.71,.89c.2,0,.71-.69,.71-.89s-.51-.9-.71-.9Z"/></g><g><path class="j" d="M75.57,113.69c0-2.21,1.75-4.1,4.02-4.1,1.37,0,3.91,.67,3.91,4.02,0,2.21-1.67,3.91-3.89,3.91-2.34,0-4.03-1.39-4.03-3.82Zm6.66,.18c0-1.85-.77-3.89-2.92-3.89-1.76,0-2.48,1.55-2.48,3.08,0,1.76,.83,4.07,2.94,4.07,1.51,0,2.47-1.03,2.47-3.26Z"/><path class="j" d="M79.6,117.55c-2.48,0-4.08-1.52-4.08-3.87s1.82-4.15,4.06-4.15c.66,0,3.96,.2,3.96,4.06,0,2.26-1.69,3.96-3.94,3.96Zm-.02-7.92c-2.19,0-3.97,1.82-3.97,4.06s1.56,3.77,3.98,3.77c2.19,0,3.84-1.66,3.84-3.86,0-3.77-3.21-3.97-3.86-3.97Zm.18,7.54c-2.05,0-2.98-2.14-2.98-4.12,0-1.44,.66-3.13,2.53-3.13,.99,0,1.79,.44,2.3,1.27,.43,.69,.66,1.63,.66,2.67,0,2.13-.89,3.31-2.52,3.31Zm-.45-7.15c-1.8,0-2.44,1.63-2.44,3.03,0,.98,.24,1.95,.67,2.67,.36,.62,1.04,1.35,2.21,1.35,1.58,0,2.42-1.11,2.42-3.21,0-2.83-1.48-3.84-2.87-3.84Z"/></g><g><path class="j" d="M86.75,115.92c0,1.24,1.39,.72,1.39,1.21,0,.22-.13,.25-.31,.25-.23,0-.83-.07-1.58-.07s-1.12,.07-1.33,.07c-.14,0-.22-.09-.22-.23,0-.27,.74-.22,.74-.99v-4.63c0-1.08-1.13-.61-1.13-.99,0-.11,.07-.18,.16-.2,1.3-.32,1.66-.9,2.07-.9,.11,0,.22,.11,.22,.29v1.04c.54-.61,1.28-1.19,2.14-1.19,1.1,0,1.76,.36,2.32,1.31,.56-.83,1.28-1.31,2.5-1.31,2.66,0,2.57,2.66,2.57,3.29v3.04c0,1.24,1.39,.72,1.39,1.21,0,.22-.13,.25-.31,.25-.23,0-.83-.07-1.58-.07s-1.12,.07-1.33,.07c-.14,0-.22-.09-.22-.23,0-.27,.74-.22,.74-.99v-3.49c0-1.1-.41-2.41-1.87-2.41-.85,0-1.58,.74-1.58,1.01v4.66c0,1.24,1.39,.72,1.39,1.21,0,.22-.13,.25-.31,.25-.23,0-.83-.07-1.58-.07s-1.12,.07-1.33,.07c-.14,0-.22-.09-.22-.23,0-.27,.74-.22,.74-.99v-3.8c0-1.42-.85-2.11-1.75-2.11-.5,0-1.71,.32-1.71,1.58v4.09Z"/><path class="j" d="M97.37,117.43c-.09,0-.22,0-.38-.02-.3-.02-.72-.05-1.2-.05s-.8,.03-1.03,.05c-.12,.01-.22,.02-.3,.02-.17,0-.27-.11-.27-.28,0-.13,.12-.19,.26-.27,.22-.12,.48-.26,.48-.72v-3.49c0-.55-.13-2.36-1.82-2.36-.83,0-1.53,.73-1.53,.96v4.66c0,.72,.49,.81,.89,.89,.26,.05,.5,.09,.5,.32,0,.27-.18,.3-.36,.3-.09,0-.22,0-.38-.02-.3-.02-.72-.05-1.2-.05s-.8,.03-1.03,.05c-.12,.01-.22,.02-.3,.02-.17,0-.27-.11-.27-.28,0-.13,.12-.19,.26-.27,.22-.12,.48-.26,.48-.72v-3.8c0-1.42-.85-2.06-1.7-2.06-.43,0-1.66,.28-1.66,1.53v4.09c0,.72,.49,.81,.89,.89,.26,.05,.5,.09,.5,.32,0,.27-.18,.3-.36,.3-.09,0-.22,0-.38-.02-.3-.02-.72-.05-1.2-.05s-.8,.03-1.03,.05c-.12,.01-.22,.02-.3,.02-.17,0-.27-.11-.27-.28,0-.13,.12-.19,.26-.27,.22-.12,.48-.26,.48-.72v-4.63c0-.64-.41-.7-.74-.75-.2-.03-.4-.06-.4-.24,0-.12,.08-.22,.2-.25,.74-.19,1.17-.45,1.48-.65,.24-.15,.41-.25,.6-.25,.13,0,.27,.13,.27,.34v.91c.68-.74,1.38-1.11,2.09-1.11,1.1,0,1.78,.37,2.33,1.27,.62-.88,1.39-1.27,2.5-1.27,.77,0,1.39,.22,1.82,.66,.81,.81,.8,2.13,.8,2.62v3.1c0,.72,.49,.81,.89,.89,.26,.05,.5,.09,.5,.32,0,.27-.18,.3-.36,.3Zm-1.58-.17c.49,0,.9,.03,1.21,.05,.16,.01,.29,.02,.38,.02,.2,0,.26-.05,.26-.2,0-.14-.15-.17-.42-.22-.41-.08-.97-.18-.97-.98v-3.1c0-.48,0-1.77-.77-2.55-.42-.42-1.01-.63-1.75-.63-1.12,0-1.85,.39-2.46,1.29l-.04,.07-.04-.07c-.54-.93-1.18-1.29-2.28-1.29-.71,0-1.42,.39-2.1,1.17l-.09,.1v-1.18c0-.15-.08-.24-.17-.24-.16,0-.32,.1-.54,.24-.32,.2-.76,.47-1.51,.66-.06,.01-.12,.06-.12,.15s.1,.11,.31,.14c.33,.05,.82,.12,.82,.85v4.63c0,.52-.32,.69-.53,.81-.13,.07-.2,.11-.2,.18,0,.12,.06,.18,.17,.18,.07,0,.17,0,.29-.02,.24-.02,.56-.05,1.04-.05s.9,.03,1.21,.05c.16,.01,.29,.02,.38,.02,.2,0,.26-.05,.26-.2,0-.14-.15-.17-.42-.22-.41-.08-.97-.18-.97-.98v-4.09c0-1.33,1.3-1.63,1.76-1.63,.89,0,1.8,.67,1.8,2.16v3.8c0,.52-.32,.69-.53,.81-.13,.07-.2,.11-.2,.18,0,.12,.06,.18,.17,.18,.07,0,.17,0,.29-.02,.24-.02,.56-.05,1.04-.05s.9,.03,1.21,.05c.16,.01,.29,.02,.38,.02,.2,0,.26-.05,.26-.2,0-.14-.15-.17-.42-.22-.41-.08-.97-.18-.97-.98v-4.66c0-.29,.74-1.06,1.63-1.06,1.78,0,1.92,1.88,1.92,2.46v3.49c0,.52-.32,.69-.53,.81-.13,.07-.2,.11-.2,.18,0,.12,.06,.18,.17,.18,.07,0,.17,0,.29-.02,.24-.02,.56-.05,1.04-.05Z"/></g><g><path class="j" d="M99.58,112.75c0,2.97,1.8,3.85,2.9,3.85,1.55,0,2.14-.94,2.54-.94,.07,0,.07,.07,.07,.13,0,.41-1.57,1.71-3.19,1.71-2.7,0-3.64-2.5-3.64-3.69,0-2.3,1.28-4.23,3.53-4.23s3.19,2.14,3.19,2.86c0,.32-.2,.31-.61,.31h-4.79Zm3.55-.49c.25,0,.36-.09,.36-.36,0-1.01-1.01-1.91-2-1.91-1.12,0-1.91,1.28-1.91,2.27h3.55Z"/><path class="j" d="M101.9,117.55c-2.76,0-3.69-2.57-3.69-3.74,0-2.52,1.47-4.28,3.58-4.28,2.26,0,3.24,2.21,3.24,2.91,0,.12-.03,.2-.08,.26-.1,.1-.27,.09-.52,.1h-4.8c.01,1.33,.62,3.75,2.85,3.75,1.01,0,1.62-.41,2.02-.68,.22-.15,.37-.25,.52-.25,.12,0,.12,.13,.12,.18,0,.47-1.61,1.76-3.24,1.76Zm-.11-7.92c-2.05,0-3.48,1.72-3.48,4.18,0,1.14,.9,3.64,3.59,3.64,1.62,0,3.14-1.29,3.14-1.66,0-.08,0-.08-.02-.08-.12,0-.27,.1-.47,.24-.41,.28-1.03,.7-2.07,.7-.67,0-1.38-.31-1.9-.83-.69-.69-1.05-1.76-1.05-3.08v-.05h4.9c.23,0,.38,0,.45-.07,.04-.04,.05-.1,.05-.19,0-.68-.94-2.81-3.14-2.81Zm1.33,2.68h-3.6v-.05c0-1.07,.85-2.32,1.96-2.32s2.05,.95,2.05,1.96c0,.29-.12,.41-.41,.41Zm-3.5-.1h3.5c.23,0,.31-.08,.31-.31,0-.96-.95-1.86-1.95-1.86s-1.83,1.15-1.86,2.17Z"/></g><g><path class="j" d="M111.79,105.98c0-1.08-1.42-.61-1.42-.99,0-.11,.07-.18,.16-.2,1.39-.32,1.94-.9,2.36-.9,.11,0,.22,.11,.22,.29v12.32c0,.22,.36,.36,.95,.45,.13,.02,.2,.02,.2,.16,0,.13-.47,.25-1.13,.25-.47,0-.97,.14-1.13,.14-.14,0-.2-.14-.2-.27v-.99h-.04c-.61,.77-1.6,1.26-2.65,1.26-1.98,0-3.19-1.82-3.19-3.67,0-2.12,1.49-4.25,3.76-4.25,.76,0,1.49,.22,2.11,.63v-4.23Zm0,6.1c0-1.33-1.08-2.09-2.38-2.09-1.69,0-2.45,1.58-2.45,3.08s1.08,3.66,2.79,3.66c1.49,0,2.03-.92,2.03-1.57v-3.08Z"/><path class="j" d="M111.98,117.55c-.17,0-.25-.16-.25-.32v-.89c-.64,.76-1.61,1.21-2.63,1.21-.93,0-1.78-.41-2.37-1.16-.55-.68-.86-1.62-.86-2.56,0-2.07,1.46-4.3,3.81-4.3,.75,0,1.46,.2,2.06,.59v-4.14c0-.63-.52-.7-.93-.75-.26-.03-.49-.06-.49-.24,0-.12,.08-.22,.2-.25,.79-.19,1.31-.45,1.69-.65,.29-.15,.49-.25,.68-.25,.13,0,.27,.13,.27,.34v12.32c0,.12,.16,.29,.91,.4h.02c.11,.02,.22,.03,.22,.21,0,.2-.6,.3-1.18,.3-.29,0-.6,.06-.82,.1-.14,.03-.25,.05-.31,.05Zm-.26-1.36h.11v1.04s0,.22,.15,.22c.06,0,.17-.02,.29-.04,.23-.04,.54-.1,.84-.1,.72,0,1.08-.14,1.08-.2,0-.09-.02-.09-.13-.11h-.02c-.67-.11-1-.27-1-.5v-12.32c0-.15-.08-.24-.17-.24-.16,0-.36,.1-.64,.24-.38,.2-.91,.47-1.71,.66-.06,.01-.12,.06-.12,.15s.15,.11,.4,.14c.41,.05,1.02,.12,1.02,.85v4.33l-.08-.05c-.6-.41-1.32-.62-2.08-.62-1.79,0-3.71,1.61-3.71,4.2,0,2.27,1.6,3.62,3.14,3.62,1.02,0,1.99-.46,2.61-1.24v-.02Zm-1.96,.59c-1.73,0-2.84-2.19-2.84-3.71s.78-3.13,2.5-3.13c1.43,0,2.43,.88,2.43,2.14v3.08c0,.56-.44,1.62-2.08,1.62Zm-.34-6.73c-1.65,0-2.4,1.57-2.4,3.03s1.07,3.61,2.74,3.61c1.57,0,1.98-.99,1.98-1.52v-3.08c0-1.01-.72-2.04-2.33-2.04Z"/></g><g><path class="j" d="M116.21,111.53c0-1.08-.99-.61-.99-.99,0-.11,.07-.18,.16-.2,1.15-.32,1.51-.9,1.93-.9,.11,0,.22,.11,.22,.29v6.46c0,.92,1.42,.52,1.42,.99,0,.14-.11,.2-.34,.2-.38,0-.94-.07-1.67-.07-.58,0-1.04,.07-1.24,.07-.14,0-.25-.02-.27-.2,0-.45,.79,.23,.79-1.4v-4.25Zm1.4-4.7c0,.22-.52,.94-.76,.94-.22,0-.76-.74-.76-.94s.54-.95,.76-.95c.23,0,.76,.74,.76,.95Z"/><path class="j" d="M118.61,117.43c-.16,0-.35-.01-.57-.03-.3-.02-.68-.05-1.1-.05-.36,0-.68,.03-.92,.05-.14,.01-.25,.02-.33,.02-.11,0-.3,0-.32-.24,0-.2,.13-.23,.26-.26,.23-.05,.54-.12,.54-1.15v-4.25c0-.64-.35-.7-.64-.75-.17-.03-.35-.06-.35-.24,0-.12,.08-.22,.2-.25,.63-.18,1.03-.44,1.32-.63,.24-.16,.42-.27,.62-.27,.13,0,.27,.13,.27,.34v6.46c0,.49,.45,.58,.85,.65,.3,.05,.58,.1,.58,.34,0,.22-.21,.25-.39,.25Zm-1.67-.17c.43,0,.81,.02,1.11,.04,.22,.01,.41,.03,.56,.03,.27,0,.29-.08,.29-.15,0-.14-.19-.19-.49-.24-.41-.08-.93-.17-.93-.75v-6.46c0-.15-.08-.24-.17-.24-.17,0-.33,.11-.56,.26-.29,.19-.7,.46-1.35,.64-.06,.01-.13,.06-.13,.15s.08,.11,.27,.14c.29,.05,.72,.12,.72,.85v4.25c0,1.11-.37,1.2-.61,1.25-.13,.03-.18,.05-.18,.15,.01,.12,.07,.15,.22,.15,.07,0,.18,0,.32-.02,.24-.02,.56-.05,.92-.05Zm-.07-9.44c-.26,0-.81-.77-.81-.99s.55-1,.81-1c.27,0,.81,.77,.81,1s-.53,.99-.81,.99Zm0-1.89c-.18,0-.71,.73-.71,.9s.52,.89,.71,.89c.2,0,.71-.69,.71-.89s-.51-.9-.71-.9Z"/></g><g><path class="j" d="M119.65,113.69c0-2.25,1.78-4.1,4.05-4.1,.9,0,2.12,.25,2.18,.67,.04,.4,.02,.83,.02,1.06,0,.25-.05,.38-.14,.38-.18,0-.38-.34-.43-.41-.61-.83-1.4-1.1-2.23-1.1-1.53,0-2.12,1.58-2.12,2.88,0,1.94,1.15,3.55,3.19,3.55,1.4,0,2.2-1.04,2.47-1.04,.05,0,.14,.05,.14,.11,0,.29-1.08,1.84-3.55,1.84-2.07,0-3.57-1.82-3.57-3.82Z"/><path class="j" d="M123.22,117.55c-1.99,0-3.62-1.73-3.62-3.87,0-2.29,1.84-4.15,4.1-4.15,.9,0,2.17,.25,2.23,.71,.03,.31,.02,.64,.02,.89,0,.07,0,.13,0,.18,0,.35-.11,.43-.19,.43-.18,0-.35-.25-.44-.39-.01-.02-.02-.04-.03-.05-.54-.73-1.25-1.08-2.19-1.08-1.43,0-2.08,1.47-2.08,2.83,0,1.74,.97,3.5,3.14,3.5,.96,0,1.64-.5,2.04-.8,.2-.15,.33-.24,.42-.24,.08,0,.19,.07,.19,.16,0,.27-1.04,1.89-3.6,1.89Zm.49-7.92c-2.21,0-4,1.82-4,4.06,0,2.08,1.58,3.77,3.52,3.77,2.44,0,3.5-1.54,3.5-1.79,0-.02-.06-.06-.09-.06-.07,0-.2,.1-.37,.22-.41,.31-1.11,.82-2.1,.82-1.94,0-3.24-1.45-3.24-3.6,0-1.41,.68-2.93,2.17-2.93,.97,0,1.72,.37,2.27,1.12,0,.01,.02,.03,.04,.05,.07,.1,.23,.34,.36,.34,.04,0,.09-.09,.09-.33,0-.05,0-.11,0-.18,0-.24,0-.57-.02-.88-.05-.35-1.18-.62-2.13-.62Z"/></g><g><path class="j" d="M132.2,111.62c0-.94-.74-1.57-1.85-1.57-.86,0-1.57,.09-1.57,1.08,0,.27,.11,.54,.11,.74s-.05,.34-.4,.34c-.31,0-.85-.27-.85-.59,.02-.83,1.03-2.09,3.02-2.03,1.12,0,2.84,.32,2.84,1.85v3.73c0,.61-.16,1.67,.77,1.67,.07,0,.23-.04,.31-.04,.09,0,.23,0,.23,.13,0,.38-.79,.45-1.04,.45-.7,0-1.17-.32-1.4-.92-.76,.65-1.75,1.04-2.75,1.04-1.17,0-1.94-.43-1.94-1.71,0-.95,.31-2.09,4.52-2.79v-1.39Zm0,1.82c-1.15,.25-3.35,.54-3.35,2.12,0,1.03,.52,1.42,1.48,1.42,.65,0,1.87-.5,1.87-1.46v-2.09Z"/><path class="j" d="M129.62,117.55c-1.34,0-1.99-.58-1.99-1.76,0-1,.35-2.13,4.52-2.83v-1.34c0-.91-.73-1.52-1.8-1.52-.83,0-1.52,.08-1.52,1.03,0,.14,.03,.28,.06,.41,.03,.12,.05,.23,.05,.32,0,.2-.05,.39-.45,.39-.31,0-.9-.27-.9-.64,0-.41,.25-.88,.64-1.25,.59-.56,1.46-.86,2.44-.83,.68,0,2.89,.14,2.89,1.9v3.73c0,.08,0,.16,0,.24-.01,.42-.03,.94,.23,1.2,.12,.12,.28,.18,.5,.18,.03,0,.09,0,.15-.02,.06,0,.12-.02,.16-.02,.08,0,.28,0,.28,.18,0,.49-1.08,.5-1.09,.5-.68,0-1.17-.31-1.42-.89-.78,.64-1.77,1.01-2.73,1.01Zm.72-7.55c1.14,0,1.9,.65,1.9,1.62v1.43h-.04c-4.13,.7-4.48,1.78-4.48,2.75,0,1.13,.6,1.66,1.89,1.66,.96,0,1.96-.38,2.72-1.03l.05-.05,.03,.07c.23,.59,.69,.89,1.36,.89,.32,0,.99-.1,.99-.4,0-.06-.04-.08-.18-.08-.03,0-.09,0-.15,.02-.06,0-.12,.02-.16,.02-.24,0-.44-.07-.57-.21-.29-.29-.27-.84-.26-1.27,0-.09,0-.17,0-.24v-3.73c0-1.67-2.14-1.8-2.79-1.8-.96-.03-1.8,.26-2.37,.8-.37,.35-.6,.8-.61,1.18,0,.28,.5,.54,.8,.54,.32,0,.35-.13,.35-.29,0-.09-.02-.19-.05-.3-.03-.13-.06-.28-.06-.44,0-1.04,.76-1.13,1.62-1.13Zm-.02,7.03c-1.04,0-1.53-.47-1.53-1.47,0-1.48,1.83-1.85,3.05-2.1,.12-.02,.24-.05,.34-.07h.06v2.14c0,.99-1.25,1.51-1.92,1.51Zm1.82-3.53c-.09,.02-.18,.04-.28,.06-1.18,.24-2.97,.61-2.97,2,0,.95,.44,1.37,1.43,1.37,.64,0,1.82-.48,1.82-1.41v-2.03Z"/></g><g><path class="j" d="M137.94,115.92c0,1.24,1.49,.72,1.49,1.21,0,.22-.14,.25-.41,.25-.25,0-.81-.07-1.66-.07s-1.22,.07-1.4,.07c-.14,0-.22-.07-.22-.23,0-.27,.88-.22,.88-.99v-10.17c0-1.08-1.22-.61-1.22-.99,0-.11,.07-.18,.16-.2,1.39-.32,1.75-.9,2.16-.9,.11,0,.22,.11,.22,.29v11.74Z"/><path class="j" d="M139.02,117.43c-.09,0-.22,0-.38-.02-.31-.02-.73-.05-1.27-.05-.61,0-.96,.03-1.17,.06-.1,0-.17,.02-.23,.02-.12,0-.27-.05-.27-.28,0-.13,.14-.2,.3-.27,.26-.12,.58-.26,.58-.72v-10.17c0-.64-.44-.7-.8-.75-.22-.03-.42-.06-.42-.24,0-.12,.08-.22,.2-.25,.81-.19,1.26-.46,1.59-.66,.23-.14,.4-.24,.58-.24,.13,0,.27,.13,.27,.34v11.74c0,.72,.53,.81,.96,.89,.29,.05,.54,.09,.54,.32,0,.28-.22,.3-.46,.3Zm-1.66-.17c.55,0,.97,.03,1.28,.05,.16,.01,.29,.02,.38,.02,.29,0,.36-.04,.36-.2,0-.14-.17-.17-.45-.22-.44-.08-1.04-.18-1.04-.98v-11.74c0-.15-.08-.24-.17-.24-.16,0-.31,.1-.53,.23-.33,.2-.79,.48-1.62,.67-.06,.01-.12,.06-.12,.15s.12,.11,.34,.14c.35,.05,.89,.12,.89,.85v10.17c0,.52-.38,.69-.64,.81-.13,.06-.25,.11-.25,.18,0,.15,.07,.18,.17,.18,.05,0,.12,0,.22-.02,.21-.02,.57-.06,1.18-.06Z"/></g><g><path class="j" d="M144.53,114.19c-.07-.36,.02-.56,.2-.56,.25,0,.25,.22,.34,.59,.22,.83,1.3,2.7,3.78,2.7,1.71,0,3.38-.95,3.38-2.85,0-3.47-7.31-1.53-7.31-6.23,0-2.29,1.93-3.39,4-3.39,2.18,0,2.77,.65,3.02,.65,.16,0,.2-.2,.38-.2,.11,0,.2,.05,.22,.25l.27,2.45c.02,.14-.02,.27-.2,.27-.2,0-.32-.38-.38-.54-.54-1.55-1.85-2.34-3.44-2.34-1.42,0-2.93,.68-2.93,2.34,0,3.39,7.31,1.4,7.31,6.37,0,1.51-1.06,3.78-5.15,3.78-1.33,0-2.97-.67-3.04-.99l-.45-2.32Z"/><path class="j" d="M148.02,117.55c-1.35,0-3.01-.67-3.09-1.03l-.45-2.32c-.05-.24-.03-.43,.06-.53,.05-.06,.11-.09,.19-.09,.25,0,.29,.19,.35,.47,.01,.05,.02,.11,.04,.16,.19,.74,1.24,2.66,3.73,2.66,1.61,0,3.33-.88,3.33-2.8,0-1.57-1.56-2.02-3.21-2.49-1.92-.55-4.1-1.18-4.1-3.74,0-2.37,2.03-3.44,4.05-3.44,1.64,0,2.4,.37,2.77,.55,.12,.06,.2,.1,.26,.1,.06,0,.09-.03,.14-.08,.05-.05,.12-.12,.23-.12,.16,0,.25,.1,.27,.3l.27,2.45c.01,.11,0,.19-.05,.25-.04,.05-.11,.07-.19,.07-.23,0-.36-.39-.42-.57-.51-1.47-1.75-2.31-3.39-2.31-1.44,0-2.89,.71-2.89,2.29,0,1.49,1.44,1.91,3.1,2.39,1.98,.57,4.21,1.22,4.21,3.98,0,1.77-1.36,3.83-5.2,3.83Zm-3.29-3.87s-.08,.02-.11,.05c-.06,.08-.08,.24-.04,.45h0l.45,2.32c.06,.28,1.67,.95,2.99,.95,1.81,0,3.18-.44,4.07-1.31,.65-.64,1.03-1.52,1.03-2.42,0-2.68-2.2-3.32-4.14-3.89-1.63-.47-3.17-.92-3.17-2.49,0-1.65,1.5-2.39,2.98-2.39,1.69,0,2.96,.87,3.49,2.37,.05,.14,.17,.51,.33,.51,.06,0,.1-.01,.12-.04,.04-.04,.04-.12,.03-.17l-.27-2.45c-.02-.18-.09-.21-.17-.21s-.12,.04-.17,.09c-.05,.05-.11,.11-.21,.11-.08,0-.16-.04-.3-.11-.39-.19-1.11-.54-2.72-.54-2.73,0-3.95,1.68-3.95,3.34,0,2.49,2.05,3.08,4.03,3.65,1.69,.48,3.28,.94,3.28,2.58,0,.89-.37,1.65-1.07,2.17-.62,.47-1.46,.72-2.36,.72-1.08,0-2.04-.36-2.78-1.05-.6-.57-.94-1.24-1.05-1.69-.01-.06-.03-.12-.04-.17-.06-.29-.09-.39-.26-.39Z"/></g><g><path class="j" d="M154.25,113.69c0-2.25,1.78-4.1,4.05-4.1,.9,0,2.12,.25,2.18,.67,.04,.4,.02,.83,.02,1.06,0,.25-.05,.38-.14,.38-.18,0-.38-.34-.43-.41-.61-.83-1.4-1.1-2.23-1.1-1.53,0-2.12,1.58-2.12,2.88,0,1.94,1.15,3.55,3.19,3.55,1.4,0,2.2-1.04,2.47-1.04,.05,0,.14,.05,.14,.11,0,.29-1.08,1.84-3.55,1.84-2.07,0-3.57-1.82-3.57-3.82Z"/><path class="j" d="M157.81,117.55c-1.99,0-3.62-1.73-3.62-3.87,0-2.29,1.84-4.15,4.1-4.15,.9,0,2.17,.25,2.23,.71,.03,.31,.02,.64,.02,.89,0,.07,0,.13,0,.18,0,.35-.11,.43-.19,.43-.18,0-.35-.25-.44-.39-.01-.02-.02-.04-.03-.05-.54-.73-1.25-1.08-2.19-1.08-1.43,0-2.07,1.47-2.07,2.83,0,1.74,.97,3.5,3.14,3.5,.96,0,1.64-.5,2.04-.8,.2-.15,.33-.24,.42-.24,.08,0,.19,.07,.19,.16,0,.27-1.04,1.89-3.6,1.89Zm.49-7.92c-2.21,0-4,1.82-4,4.06,0,2.08,1.58,3.77,3.52,3.77,2.44,0,3.5-1.54,3.5-1.79,0-.02-.06-.06-.09-.06-.07,0-.2,.1-.37,.22-.41,.31-1.11,.82-2.1,.82-1.94,0-3.24-1.45-3.24-3.6,0-1.41,.68-2.93,2.17-2.93,.97,0,1.72,.37,2.27,1.12,0,.01,.02,.03,.04,.05,.07,.1,.23,.34,.36,.34,.04,0,.09-.09,.09-.33,0-.05,0-.11,0-.18,0-.24,0-.57-.02-.88-.05-.35-1.18-.62-2.13-.62Z"/></g><g><path class="j" d="M163.44,111.53c0-1.08-.99-.61-.99-.99,0-.11,.07-.18,.16-.2,1.15-.32,1.51-.9,1.93-.9,.11,0,.22,.11,.22,.29v6.46c0,.92,1.42,.52,1.42,.99,0,.14-.11,.2-.34,.2-.38,0-.94-.07-1.67-.07-.58,0-1.04,.07-1.24,.07-.14,0-.25-.02-.27-.2,0-.45,.79,.23,.79-1.4v-4.25Zm1.4-4.7c0,.22-.52,.94-.76,.94-.22,0-.76-.74-.76-.94s.54-.95,.76-.95c.23,0,.76,.74,.76,.95Z"/><path class="j" d="M165.84,117.43c-.16,0-.35-.01-.57-.03-.3-.02-.68-.05-1.1-.05-.36,0-.68,.03-.92,.05-.14,.01-.25,.02-.33,.02-.11,0-.3,0-.32-.24,0-.2,.13-.23,.26-.26,.23-.05,.54-.12,.54-1.15v-4.25c0-.64-.35-.7-.64-.75-.17-.03-.35-.06-.35-.24,0-.12,.08-.22,.2-.25,.63-.18,1.03-.44,1.32-.63,.24-.16,.42-.27,.62-.27,.13,0,.27,.13,.27,.34v6.46c0,.49,.45,.58,.85,.65,.3,.05,.58,.1,.58,.34,0,.22-.21,.25-.39,.25Zm-1.67-.17c.43,0,.81,.02,1.11,.04,.22,.01,.41,.03,.56,.03,.27,0,.29-.08,.29-.15,0-.14-.19-.19-.49-.24-.41-.08-.93-.17-.93-.75v-6.46c0-.15-.08-.24-.17-.24-.17,0-.33,.11-.56,.26-.29,.19-.7,.46-1.35,.64-.06,.01-.13,.06-.13,.15s.08,.11,.27,.14c.29,.05,.72,.12,.72,.85v4.25c0,1.11-.37,1.2-.61,1.25-.13,.03-.18,.05-.18,.15,.01,.12,.07,.15,.22,.15,.07,0,.18,0,.32-.02,.24-.02,.56-.05,.92-.05Zm-.07-9.44c-.26,0-.81-.77-.81-.99s.55-1,.81-1c.27,0,.81,.77,.81,1s-.53,.99-.81,.99Zm0-1.89c-.18,0-.71,.73-.71,.9s.52,.89,.71,.89c.2,0,.71-.69,.71-.89s-.51-.9-.71-.9Z"/></g><g><path class="j" d="M168.27,112.75c0,2.97,1.8,3.85,2.9,3.85,1.55,0,2.14-.94,2.54-.94,.07,0,.07,.07,.07,.13,0,.41-1.57,1.71-3.19,1.71-2.7,0-3.64-2.5-3.64-3.69,0-2.3,1.28-4.23,3.53-4.23s3.19,2.14,3.19,2.86c0,.32-.2,.31-.61,.31h-4.79Zm3.55-.49c.25,0,.36-.09,.36-.36,0-1.01-1.01-1.91-2-1.91-1.12,0-1.91,1.28-1.91,2.27h3.55Z"/><path class="j" d="M170.59,117.55c-2.76,0-3.69-2.57-3.69-3.74,0-2.52,1.47-4.28,3.58-4.28,2.26,0,3.24,2.21,3.24,2.91,0,.12-.03,.2-.08,.26-.1,.1-.27,.09-.52,.1h-4.8c.01,1.33,.62,3.75,2.85,3.75,1.01,0,1.62-.41,2.02-.68,.22-.15,.37-.25,.52-.25,.12,0,.12,.12,.12,.18,0,.47-1.61,1.76-3.24,1.76Zm-.11-7.92c-2.05,0-3.48,1.72-3.48,4.18,0,1.14,.9,3.64,3.59,3.64,1.62,0,3.14-1.29,3.14-1.66,0-.08,0-.08-.02-.08-.12,0-.27,.1-.47,.24-.41,.28-1.03,.7-2.07,.7-.67,0-1.38-.31-1.9-.83-.69-.69-1.05-1.76-1.05-3.08v-.05h4.96c.2,0,.33,0,.39-.07,.04-.04,.05-.1,.05-.19,0-.68-.94-2.81-3.14-2.81Zm1.33,2.68h-3.6v-.05c0-1.07,.86-2.32,1.96-2.32s2.05,.95,2.05,1.96c0,.29-.12,.41-.41,.41Zm-3.5-.1h3.5c.23,0,.31-.08,.31-.31,0-.96-.95-1.86-1.95-1.86s-1.83,1.15-1.86,2.17Z"/></g><g><path class="j" d="M177.07,115.92c0,1.24,1.58,.72,1.58,1.21,0,.22-.13,.25-.4,.25-.31,0-.67-.07-1.71-.07-.95,0-1.31,.07-1.53,.07-.23,0-.32-.04-.32-.22,0-.36,1.06,0,1.06-1.17v-4.47c0-1.08-1.33-.61-1.33-.99,0-.11,.07-.18,.16-.2,1.49-.32,1.85-.9,2.27-.9,.11,0,.22,.11,.22,.29v1.19c-.04,.22,.86-1.33,2.61-1.33,2.41,0,2.93,2,2.93,3.37v2.97c0,1.24,1.4,.72,1.4,1.21,0,.22-.13,.25-.31,.25-.23,0-.68-.07-1.57-.07-.68,0-1.06,.07-1.3,.07s-.32-.04-.32-.22c0-.36,.77,0,.77-1.17v-3.37c0-.9-.65-2.25-2.11-2.25s-2.14,1.12-2.12,1.4v4.14Z"/><path class="j" d="M183.71,117.43c-.08,0-.19,0-.33-.02-.26-.02-.66-.05-1.24-.05-.43,0-.74,.03-.97,.05-.14,.01-.24,.02-.33,.02-.2,0-.37-.02-.37-.27,0-.16,.13-.21,.26-.26,.22-.08,.52-.19,.52-.91v-3.37c0-.89-.65-2.2-2.06-2.2-.93,0-1.47,.43-1.71,.69-.26,.28-.37,.56-.36,.66v4.14c0,.72,.57,.81,1.02,.89,.3,.05,.56,.09,.56,.32,0,.28-.2,.3-.45,.3-.11,0-.23,0-.37-.02-.28-.02-.66-.05-1.34-.05s-1.01,.03-1.26,.05c-.12,.01-.2,.02-.27,.02-.2,0-.37-.02-.37-.27,0-.17,.17-.21,.35-.26,.32-.09,.72-.19,.72-.91v-4.47c0-.63-.48-.7-.87-.75-.25-.03-.46-.06-.46-.24,0-.12,.08-.22,.2-.25,.89-.19,1.38-.48,1.71-.67,.23-.13,.39-.23,.57-.23,.13,0,.27,.13,.27,.34v1.1l.04-.04c.32-.34,1.16-1.25,2.52-1.25,1.09,0,1.9,.4,2.41,1.19,.5,.77,.57,1.72,.57,2.22v2.97c0,.72,.5,.81,.9,.89,.26,.05,.5,.09,.5,.32,0,.27-.18,.3-.36,.3Zm-1.57-.17c.58,0,.98,.03,1.25,.05,.13,.01,.24,.02,.32,.02,.2,0,.26-.05,.26-.2,0-.14-.15-.17-.42-.22-.41-.08-.98-.18-.98-.98v-2.97c0-1-.28-3.32-2.88-3.32-1.31,0-2.14,.89-2.45,1.22-.11,.12-.14,.15-.18,.13-.01,0-.04-.03-.03-.07v-1.18c0-.15-.09-.24-.17-.24-.15,0-.3,.09-.52,.22-.33,.19-.83,.49-1.74,.68-.06,.01-.12,.06-.12,.15s.14,.11,.37,.14c.38,.05,.96,.12,.96,.85v4.47c0,.79-.48,.92-.79,1.01-.18,.05-.27,.08-.27,.16,0,.13,.04,.17,.27,.17,.07,0,.15,0,.26-.02,.25-.02,.62-.05,1.27-.05s1.06,.03,1.34,.05c.15,.01,.26,.02,.37,.02,.28,0,.35-.04,.35-.2,0-.14-.18-.17-.48-.22-.47-.08-1.1-.18-1.1-.98v-4.14c0-.15,.12-.45,.39-.73,.25-.27,.82-.72,1.78-.72,1.47,0,2.16,1.37,2.16,2.3v3.37c0,.79-.35,.92-.58,1-.13,.05-.19,.08-.19,.17,0,.13,.04,.17,.27,.17,.08,0,.19,0,.32-.02,.23-.02,.54-.05,.98-.05Z"/></g><g><path class="j" d="M184.52,113.69c0-2.25,1.78-4.1,4.05-4.1,.9,0,2.12,.25,2.18,.67,.04,.4,.02,.83,.02,1.06,0,.25-.05,.38-.14,.38-.18,0-.38-.34-.43-.41-.61-.83-1.4-1.1-2.23-1.1-1.53,0-2.12,1.58-2.12,2.88,0,1.94,1.15,3.55,3.19,3.55,1.4,0,2.2-1.04,2.47-1.04,.05,0,.14,.05,.14,.11,0,.29-1.08,1.84-3.55,1.84-2.07,0-3.57-1.82-3.57-3.82Z"/><path class="j" d="M188.09,117.55c-1.99,0-3.62-1.73-3.62-3.87,0-2.29,1.84-4.15,4.1-4.15,.9,0,2.17,.25,2.23,.71,.03,.31,.02,.64,.02,.89,0,.07,0,.13,0,.18,0,.35-.11,.43-.19,.43-.18,0-.35-.25-.44-.39-.01-.02-.02-.04-.03-.05-.54-.73-1.25-1.08-2.19-1.08-1.43,0-2.07,1.47-2.07,2.83,0,1.74,.97,3.5,3.14,3.5,.96,0,1.64-.5,2.04-.8,.2-.15,.33-.24,.42-.24,.08,0,.19,.07,.19,.16,0,.27-1.04,1.89-3.6,1.89Zm.49-7.92c-2.21,0-4,1.82-4,4.06,0,2.08,1.58,3.77,3.52,3.77,2.44,0,3.5-1.54,3.5-1.79,0-.02-.06-.06-.09-.06-.07,0-.2,.1-.37,.22-.41,.31-1.11,.82-2.1,.82-1.94,0-3.24-1.45-3.24-3.6,0-1.41,.68-2.93,2.17-2.93,.97,0,1.72,.37,2.27,1.12,0,.01,.02,.03,.04,.05,.07,.1,.23,.34,.36,.34,.04,0,.09-.09,.09-.33,0-.05,0-.11,0-.18,0-.24,0-.57-.02-.88-.05-.35-1.18-.62-2.13-.62Z"/></g><g><path class="j" d="M193.72,112.75c0,2.97,1.8,3.85,2.9,3.85,1.55,0,2.14-.94,2.54-.94,.07,0,.07,.07,.07,.13,0,.41-1.57,1.71-3.19,1.71-2.7,0-3.64-2.5-3.64-3.69,0-2.3,1.28-4.23,3.53-4.23s3.19,2.14,3.19,2.86c0,.32-.2,.31-.61,.31h-4.79Zm3.55-.49c.25,0,.36-.09,.36-.36,0-1.01-1.01-1.91-2-1.91-1.12,0-1.91,1.28-1.91,2.27h3.55Z"/><path class="j" d="M196.04,117.55c-2.76,0-3.69-2.57-3.69-3.74,0-2.52,1.47-4.28,3.58-4.28,2.26,0,3.24,2.21,3.24,2.91,0,.12-.03,.2-.08,.26-.1,.1-.27,.09-.52,.1h-4.8c.01,1.33,.62,3.75,2.85,3.75,1.01,0,1.62-.41,2.02-.68,.22-.15,.37-.25,.52-.25,.12,0,.12,.13,.12,.18,0,.47-1.61,1.76-3.24,1.76Zm-.11-7.92c-2.05,0-3.48,1.72-3.48,4.18,0,1.14,.9,3.64,3.59,3.64,1.62,0,3.14-1.29,3.14-1.66,0-.08,0-.08-.02-.08-.12,0-.27,.1-.47,.24-.41,.28-1.03,.7-2.07,.7-.67,0-1.38-.31-1.9-.83-.69-.69-1.05-1.76-1.05-3.08v-.05h4.9c.23,0,.38,0,.45-.07,.04-.04,.05-.1,.05-.19,0-.68-.94-2.81-3.14-2.81Zm1.33,2.68h-3.6v-.05c0-1.07,.85-2.32,1.96-2.32s2.05,.95,2.05,1.96c0,.29-.12,.41-.41,.41Zm-3.5-.1h3.5c.23,0,.31-.08,.31-.31,0-.96-.95-1.86-1.95-1.86s-1.83,1.15-1.86,2.17Z"/></g><g><path class="j" d="M200.34,111.74c0-1.44,1.12-2.16,2.43-2.16,.31,0,1.55,.14,1.76,.41,.11,.14,.09,.76,.09,.88,0,.49,.07,.7-.2,.7-.18,0-.34-1.57-1.98-1.57-.7,0-1.26,.41-1.26,1.15,0,.59,.47,.97,2.36,1.73,1.03,.43,1.49,.99,1.49,2.14,0,1.35-1.1,2.47-2.43,2.47-1.26,0-1.58-.52-2.02-.52-.4,0-.4-.02-.4-1.44,0-.31-.05-.88,.22-.88,.4,0,.2,2.38,2.14,2.38,.88,0,1.6-.54,1.6-1.48s-.92-1.24-1.64-1.58c-.97-.49-2.18-.95-2.18-2.23Z"/><path class="j" d="M202.61,117.55c-.81,0-1.24-.21-1.55-.37-.18-.09-.32-.16-.47-.16-.45,0-.45-.06-.45-1.49,0-.04,0-.09,0-.13,0-.27-.01-.6,.12-.74,.04-.04,.09-.06,.15-.06,.16,0,.23,.23,.33,.58,.2,.71,.51,1.79,1.81,1.79,1.07,0,1.55-.72,1.55-1.43,0-.81-.69-1.12-1.35-1.42-.09-.04-.18-.08-.26-.12-.08-.04-.17-.08-.26-.13-.91-.45-1.95-.95-1.95-2.15,0-1.34,.97-2.21,2.48-2.21,.29,0,1.57,.14,1.8,.43,.1,.13,.1,.53,.1,.86v.05c0,.09,0,.18,0,.25,0,.22,.01,.36-.07,.44-.04,.04-.1,.06-.19,.06-.08,0-.12-.1-.2-.27-.2-.45-.58-1.29-1.78-1.29-.72,0-1.21,.44-1.21,1.1,0,.58,.52,.96,2.33,1.68,1.1,.46,1.53,1.08,1.53,2.19,0,1.39-1.11,2.52-2.48,2.52Zm-2.2-2.85s-.06,.01-.08,.03c-.1,.11-.1,.43-.09,.66,0,.05,0,.1,0,.14q0,1.39,.35,1.39c.17,0,.32,.07,.51,.17,.31,.15,.72,.36,1.51,.36,1.31,0,2.38-1.08,2.38-2.42,0-1.08-.4-1.65-1.46-2.1-1.88-.75-2.39-1.13-2.39-1.77,0-.72,.53-1.2,1.31-1.2,1.26,0,1.67,.91,1.87,1.35,.04,.09,.09,.2,.12,.21,.07,0,.1-.02,.11-.03,.05-.05,.04-.18,.04-.36,0-.07,0-.16,0-.25v-.05c0-.45-.02-.72-.08-.8-.19-.24-1.36-.39-1.72-.39-1.1,0-2.38,.55-2.38,2.11,0,1.14,.96,1.61,1.89,2.06,.09,.04,.17,.08,.26,.13,.08,.04,.17,.08,.26,.12,.66,.3,1.41,.64,1.41,1.51s-.68,1.53-1.65,1.53c-1.38,0-1.71-1.17-1.91-1.87-.08-.26-.15-.51-.23-.51Z"/></g></g></g></g></svg>