<?xml version="1.0" encoding="utf-8"?>
<!-- Generator: Adobe Illustrator 17.1.0, SVG Export Plug-In . SVG Version: 6.00 Build 0)  -->
<!DOCTYPE svg PUBLIC "-//W3C//DTD SVG 1.1//EN" "http://www.w3.org/Graphics/SVG/1.1/DTD/svg11.dtd">
<svg version="1.1" id="Layer_1" xmlns="http://www.w3.org/2000/svg" xmlns:xlink="http://www.w3.org/1999/xlink" x="0px" y="0px"
	 viewBox="0 0 261 130" enable-background="new 0 0 261 130" xml:space="preserve">
<rect x="-19.3" y="-16.4" fill="none" width="295.9" height="189.6"/>
<g>
	<path fill="#FFFFFF" d="M61.4,25.1v-1.7v-5.2V16h-7.5v-3h-1.8c0,0-3.9,0.2-6.8-1.6c-2.9-1.7-3.4-3.3-3.4-3.3V5.7H38
		c-0.7-2.9-3.3-5.1-6.4-5.1c-3.1,0-5.7,2.2-6.4,5.1h-3.9v2.4c0,0-0.6,1.6-3.4,3.3C15,13.2,11.1,13,11.1,13H8.8v3H1.3v2.2v5.2v1.7"/>
	<path fill="#FFFFFF" d="M1.3,28L1.3,28c0,4.8,0,12.1,0,16.8c0.1,4.4,0.7,8.7,1.8,13c2.1,8,5.9,15,12.1,20.7
		c4.7,4.4,10.2,7.7,15.8,10.8c0.2,0.1,0.5,0.1,0.7,0c3.9-2.1,7.7-4.5,11.2-7.1c7.7-5.6,13-12.8,15.8-21.8c2-6.3,2.7-12.8,2.7-19.4
		c0-3.4,0-9.5,0-12.9h0"/>
	<path fill="#BD4700" d="M1.2,25.1l60,0v-1.7v-5.2V16h-7.5v-3H52c0,0-3.9,0.2-6.8-1.6c-2.9-1.7-3.4-3.3-3.4-3.3V5.7h-3.9
		c-0.7-2.9-3.3-5.1-6.4-5.1c-3.1,0-5.7,2.2-6.4,5.1h-3.9v2.4c0,0-0.6,1.6-3.4,3.3C14.9,13.2,11,13,11,13H8.7v3H1.2v2.2v5.2L1.2,25.1
		"/>
	<path fill="#BD4700" d="M1.2,44.8c0.1,4.4,0.7,8.7,1.8,13c2.1,8,5.9,15,12.1,20.7c4.7,4.4,10.2,7.7,15.8,10.8
		c0.2,0.1,0.5,0.1,0.7,0c3.9-2.1,7.7-4.5,11.2-7.1c7.7-5.6,13-12.8,15.8-21.8c2-6.3,2.7-12.8,2.7-19.4c0-3.4,0-9.5,0-12.9H1.2
		C1.2,32.8,1.1,40.1,1.2,44.8 M26.9,48.9l4.4-13.4l4.4,13.4h14.1l-11.4,8.3l4.4,13.4l-11.4-8.3l-11.4,8.3l4.4-13.4l-11.4-8.3H26.9z"
		/>
	<path fill="#D75F00" d="M31.4,25.1l0.2-24.5c-3.1,0-5.7,2.2-6.4,5.1h-3.9v2.4c0,0-0.6,1.6-3.4,3.3C15,13.2,11.1,13,11.1,13H8.8v3
		H1.2v2.2v5.2v1.7L31.4,25.1z"/>
	<path fill="#D75F00" d="M31.3,62.4l-11.4,8.3l4.4-13.4l-11.4-8.3h14.1l4.4-13.4l0-7.4h-30c0,4.8-0.1,12.1,0,16.8
		c0.1,4.4,0.7,8.7,1.8,13c2.1,8,5.9,15,12.1,20.7c4.7,4.4,10.2,7.7,15.8,10.8c0.2,0.1,0.3,0,0.3,0L31.3,62.4z"/>
	<polygon fill="#FECEB0" points="31.3,35.5 35.7,48.9 49.8,48.9 38.4,57.2 42.7,70.7 31.3,62.3 	"/>
</g>
<g>
	<path fill="#231F20" d="M97.3,54.2c1.7-2.3,2.5-5.5,2.5-9.7V33.1c0-1.9,0.1-3.2,0.4-3.8c0.3-0.6,0.8-1.2,1.7-1.5
		c0.4-0.2,0.6-0.4,0.6-0.7c0-0.3-0.2-0.5-0.6-0.5c-0.1,0-0.5,0-1,0.1c-0.4,0-1.4,0.1-3.1,0.1c-0.8,0-1.5,0-2.1-0.1
		c-0.7-0.1-1.1-0.2-1.5-0.2c-0.2,0-0.3,0-0.4,0.1c-0.1,0.1-0.2,0.3-0.2,0.5c0,0.3,0.1,0.6,0.8,0.6c1.3,0.1,2.2,0.6,2.7,1.4
		c0.5,0.8,0.8,2.2,0.8,4.1V45c0,4-0.9,6.9-2.7,8.9c-1.8,1.9-4.5,2.9-8,2.9c-4,0-6.9-1.2-8.6-3.5c-1.2-1.6-1.8-4.4-1.8-8.3V33.4
		l0-1.5c0-1.4,0.1-2.5,0.4-3c0.3-0.5,0.8-0.9,1.7-1.1c0.6-0.1,0.9-0.3,0.9-0.7c0-0.2-0.1-0.5-0.7-0.5c-0.2,0-0.6,0-1.2,0.1
		c-0.7,0.1-1.1,0.1-1.3,0.1H75l-1.8,0c-0.3,0-0.8,0-1.5-0.1c-0.7,0-1.2,0-1.6,0c-0.8,0-1,0.4-1,0.7c0,0.2,0.1,0.5,0.7,0.6
		c1.3,0.2,2.2,0.6,2.6,1.2c0.4,0.6,0.6,1.7,0.6,3.3l0,1.3v11.6c0,3.2,0.6,5.8,1.6,7.8c1,1.7,2.5,3.1,4.6,4.2c2.1,1,4.5,1.5,7.1,1.5
		c2.2,0,4.4-0.4,6.3-1.3C94.7,56.8,96.3,55.6,97.3,54.2"/>
	<path fill="#231F20" d="M115.6,29.5c0.7,0,0.9,0.1,1,0.2c0.1,0.1,0.2,0.3,0.2,1l0,0.6v22.7c0,1.2-0.2,2.1-0.6,2.6
		c-0.4,0.5-1.2,0.8-2.3,0.9c-0.6,0.1-0.9,0.3-0.9,0.6c0,0.2,0.1,0.6,0.8,0.6c0.2,0,0.7,0,1.5-0.1c0.4,0,1-0.1,1.6-0.1l1.8,0l1.7,0
		c1.1,0,1.8,0,2,0.1c0.6,0.1,1,0.1,1.1,0.1c0.7,0,0.8-0.4,0.8-0.6c0-0.3-0.3-0.6-0.9-0.7c-1.9-0.3-2.8-1.3-2.9-3l0-0.9V30.9
		c0-0.9,0.1-1.2,0.2-1.3c0.1-0.1,0.3-0.2,1.2-0.2h6.4c1.2,0,2.1,0.2,2.5,0.5h0c0.4,0.3,0.7,1,0.9,2c0.1,0.6,0.3,0.8,0.7,0.8
		c0.3,0,0.6-0.2,0.6-0.9c0-0.2-0.1-0.6-0.1-1.1c-0.1-0.4-0.1-1-0.1-1.9c0-1.3-0.2-1.6-0.3-1.7c-0.2-0.2-0.7-0.3-1.6-0.3h-24.6
		c-0.6,0-0.9,0.1-1.1,0.4c-0.2,0.2-0.3,0.7-0.3,1.5c0,0.7-0.1,1.6-0.3,2.7c-0.2,0.9-0.3,1.5-0.3,1.8c0,0.6,0.3,0.8,0.5,0.8
		c0.5,0,0.7-0.7,0.8-1c0.3-1.3,0.7-2.3,1.2-2.7c0.5-0.5,1.4-0.7,2.6-0.7H115.6z"/>
	<path fill="#231F20" d="M168.3,58.5c0.4,0,0.8-0.1,1.1-0.1l1.7,0l1.7,0c1.1,0,1.9,0,2.3,0.1c1,0.2,1.6,0.2,1.9-0.1
		c0.1-0.1,0.2-0.3,0.1-0.5c0-0.3-0.3-0.5-0.9-0.6c-1.2-0.1-2.1-0.5-2.5-1.1c-0.4-0.6-0.7-1.7-0.7-3.3V30.8c0-0.7,0.2-1.4,0.5-2
		c0.3-0.5,0.7-0.9,1.1-0.9l0.9-0.2c0.5-0.1,0.7-0.4,0.7-0.6c0-0.2-0.1-0.6-0.7-0.6c-0.2,0-0.4,0-0.9,0.1c-0.6,0.1-1.8,0.1-3.4,0.1
		c-1.1,0-2.2-0.1-3.2-0.2c-0.7-0.1-1.2-0.1-1.6-0.1c-0.6,0-0.7,0.3-0.7,0.5c0,0.2,0.1,0.6,0.8,0.7c1,0.2,1.8,0.7,2.1,1.3
		c0.4,0.6,0.6,1.7,0.6,3.3v7.8c0,0.4-0.1,0.6-0.2,0.7c-0.1,0.1-0.4,0.2-1.2,0.2h-13.5c-1.2,0-1.5-0.1-1.6-0.2v0
		c-0.1-0.1-0.2-0.4-0.2-1.5v-8.2c0-1.1,0.2-1.9,0.5-2.3c0.3-0.5,1-0.8,2-1.1c0.5-0.1,0.7-0.3,0.7-0.7c0-0.2-0.1-0.6-0.8-0.6
		c-0.2,0-0.6,0-1,0.1c-0.9,0.1-1.9,0.2-3,0.2c-1.6,0-3-0.1-4.2-0.2c-0.6-0.1-1.1-0.1-1.4-0.1c-0.3,0-0.5,0-0.6,0.2
		c-0.1,0.1-0.2,0.2-0.2,0.4c0,0.2,0.1,0.5,0.8,0.6c1.3,0.2,2.1,0.6,2.6,1.1c0.5,0.6,0.7,1.5,0.7,2.8v19.7c0,2.1-0.1,3.6-0.4,4.5
		c-0.2,0.8-0.6,1.3-1.3,1.4l-1.1,0.3c-0.6,0.1-0.7,0.4-0.7,0.7c0,0.2,0.1,0.6,0.7,0.6c0.2,0,0.6,0,1.5-0.1c0.6-0.1,1.1-0.1,1.4-0.1
		l1.5-0.1l1.9,0c1.4,0,2.3,0,2.7,0.1c0.6,0.1,0.9,0.1,1.1,0.1c0.3,0,0.5-0.1,0.7-0.2c0.1-0.1,0.1-0.2,0.1-0.4c0-0.4-0.4-0.7-1-0.7
		c-1.3-0.1-2.2-0.5-2.7-1.1c-0.5-0.6-0.7-1.7-0.7-3.2v-8.4c0-0.8,0.1-1.1,0.3-1.2c0.1-0.1,0.5-0.2,1.5-0.2h13.5c1,0,1.2,0.1,1.3,0.1
		c0,0,0.2,0.2,0.2,1.2v8.4l0,0.9c0,2.3-0.7,3.5-2.3,3.8c-0.6,0.1-0.9,0.3-0.9,0.7c0,0.2,0,0.3,0.1,0.4c0.1,0.1,0.3,0.2,0.5,0.2
		c0,0,0,0,0.1,0C166.8,58.6,167.3,58.6,168.3,58.5"/>
	<path fill="#231F20" d="M235.7,55.8l-0.2,0.1l-1.2,0.6c-0.6,0.3-1.4,0.5-2.3,0.5c-1.1,0-2-0.3-2.6-0.9c-0.4-0.4-0.6-1.4-0.6-2.8
		V41.9h5.3c0.6,0,1-0.3,1.1-0.8l0.5-1.3c0.2-0.4,0.2-0.6,0.2-0.6c0-0.2,0-0.3-0.1-0.3c-0.1-0.1-0.2-0.1-0.3-0.1
		c-0.1,0-0.3,0.1-0.6,0.3c-0.3,0.2-0.8,0.3-1.5,0.3h-4.7l0.1-3.8c0-0.6-0.3-0.7-0.5-0.7c-0.2,0-0.4,0.1-1,1.1
		c-0.9,1.5-2.3,3-4.1,4.5c-0.4,0.4-0.6,0.7-0.6,0.9c0,0.2,0.1,0.5,0.7,0.5h1.9v11.4c0,3.7,1.8,5.6,5.4,5.6c1.1,0,2.2-0.3,3.4-0.9
		c1.3-0.6,1.9-1.2,1.9-1.8C236.2,56,236,55.8,235.7,55.8"/>
	<path fill="#231F20" d="M184.6,40.1c1.2,0,2.3,0.5,3.2,1.5c1,1,1.5,2.1,1.5,3.2c0,0.5-0.9,0.6-1.7,0.6h-7.6
		c0.2-1.6,0.7-2.9,1.5-3.8v0C182.4,40.6,183.4,40.1,184.6,40.1 M193.1,54c-0.1,0-0.3,0.1-0.4,0.2c-1.9,1.5-3.7,2.2-5.3,2.2
		c-2.1,0-3.8-0.9-5.2-2.6c-1.4-1.7-2.1-3.9-2.1-6.5l0-0.4h8.5l1.6,0l1.7,0c1.1,0,1.6-0.3,1.6-0.9c0-0.4-0.2-1-0.6-1.9
		c-0.4-0.9-0.8-1.6-1.1-2.1c-1.5-2.1-3.6-3.2-6.2-3.2c-2.4,0-4.5,1-6.2,3c-1.8,2-2.6,4.4-2.6,7.1c0,2.8,0.9,5.2,2.6,7.1
		c1.7,1.9,3.8,2.9,6.4,2.9c2.2,0,4.4-0.8,6.4-2.4c1.1-0.9,1.7-1.5,1.7-2c0-0.2,0-0.3-0.1-0.4C193.3,54,193.2,54,193.1,54"/>
	<path fill="#231F20" d="M222.5,57.2c-1.5-0.2-2.4-0.7-2.7-1.4c-0.3-0.7-0.4-1.6-0.4-2.8V26l0-0.7v0c0-0.6-0.1-0.9-0.2-1.1
		c-0.1-0.1-0.1-0.1-0.2-0.1c-0.2,0-0.3,0.1-0.6,0.2c-0.4,0.3-1.1,0.7-2.2,1.1l-1.4,0.6c-0.4,0.2-0.9,0.3-1.4,0.4
		c-0.5,0.1-0.7,0.3-0.7,0.6c0,0.2,0.1,0.4,0.4,0.5c0.1,0,0.3,0.1,0.4,0.1h0l1.1,0c0.9,0,1.3,0.6,1.3,2v25.4c0,0.7-0.1,1.2-0.3,1.5
		c-0.2,0.3-0.7,0.5-1.3,0.7c-0.5,0.1-0.8,0.4-0.7,0.7c0,0.2,0.1,0.6,0.8,0.6c0.1,0,0.2,0,0.9-0.1c0.3,0,1.2-0.1,2.7-0.1l3.2,0
		c0.4,0,0.8,0,1,0.1c0.3,0.1,0.5,0.1,0.6,0.1c0.2,0,0.4-0.1,0.5-0.2c0.1-0.1,0.2-0.3,0.2-0.5C223.2,57.4,223,57.2,222.5,57.2"/>
	<path fill="#231F20" d="M200.7,50.7c1.2-0.8,3-1.3,5.3-1.6v4.4c0,1.1-0.3,1.9-0.8,2.4c-0.8,0.8-1.9,1.2-3.1,1.2
		c-1,0-1.8-0.3-2.4-0.9c-0.6-0.6-0.9-1.4-0.9-2.4C198.9,52.6,199.5,51.5,200.7,50.7 M212.6,56.8c-0.1,0-0.3,0-0.6,0.1
		c-0.1,0-0.3,0-0.5,0c-0.8,0-1.3-0.3-1.6-0.8c-0.3-0.6-0.5-1.6-0.5-3v-9c0-1.7-0.6-3.1-1.8-4c-1.2-0.9-2.8-1.4-4.9-1.4
		c-2.3,0-4.2,0.8-5.6,2.3c-1,1.1-1.6,2.2-1.6,3.2c0,0.4,0.3,0.8,1,1.1c0.6,0.3,1.3,0.5,2,0.5c0.2,0,0.4-0.1,0.5-0.2
		c0.1-0.1,0.1-0.2,0.1-0.4c0-0.2-0.1-0.5-0.2-0.8c-0.2-0.6-0.3-1.2-0.3-1.7c0-1.6,0.9-2.4,2.9-2.4c1.4,0,2.6,0.4,3.5,1.3
		c0.6,0.6,0.9,1.8,0.9,3.5V48c-3.7,0.6-6.4,1.4-8,2.3c-1.6,1-2.5,2.4-2.5,4.2c0,1.3,0.4,2.4,1.3,3.2c0.9,0.8,2.1,1.2,3.5,1.2
		c1.9,0,3.9-0.8,6.1-2.5c1,1.5,2.2,2.3,3.4,2.3c0.7,0,1.4-0.1,2.1-0.4c0.8-0.3,1.1-0.6,1.2-1c0-0.2,0-0.3-0.1-0.4
		C212.9,56.9,212.8,56.8,212.6,56.8"/>
	<path fill="#231F20" d="M259,57.4c-1.2-0.2-2-0.5-2.3-0.9c-0.4-0.4-0.5-1.2-0.5-2.3V47c0-2.4-0.7-4.4-2-5.9
		c-1.4-1.5-3.1-2.3-5.3-2.3c-2.2,0-4.4,1.1-6.3,3.4V26.9c0-0.5,0-0.9,0-1.2c0-0.3,0-0.5,0-0.6c0-0.6-0.3-0.6-0.5-0.6
		c-0.2,0-0.3,0.1-0.5,0.2l-1.8,0.8c-1.2,0.6-2.2,1-3.2,1.2c-0.4,0.1-0.6,0.3-0.6,0.6c0,0.2,0.1,0.4,0.2,0.4c0.1,0.1,0.2,0.1,0.4,0.1
		h0l1.2-0.1c0.3,0,0.6,0.1,0.8,0.3c0.4,0.4,0.6,1.2,0.6,2.3v23.8c0,1.6-0.2,2.2-0.3,2.4c-0.2,0.3-0.7,0.6-1.6,0.9
		c-0.5,0.2-0.6,0.5-0.6,0.7c0,0.2,0.1,0.5,0.7,0.5c0.2,0,0.6,0,1.1-0.1c1.1-0.1,2-0.1,2.6-0.1c1.8,0,2.9,0,3.5,0.1
		c0.7,0.1,1.1,0.1,1.3,0.1c0.6,0,0.6-0.3,0.6-0.5c0-0.4-0.3-0.6-0.9-0.7c-1.3-0.2-2.1-0.5-2.5-0.9c-0.3-0.4-0.5-1.4-0.5-2.9v-8.9
		c0-0.9,0.5-1.8,1.5-2.6c1-0.8,2.1-1.2,3.4-1.2c1.6,0,2.9,0.6,3.9,1.6c1,1.1,1.4,2.6,1.4,4.5v7.6l0,0.7c0,0.8-0.1,1.1-0.2,1.3
		c-0.1,0.1-0.4,0.4-1.4,0.7c-0.4,0.2-0.6,0.4-0.5,0.6c0,0.2,0.1,0.6,0.8,0.6c0.1,0,0.3,0,0.7-0.1c0.6-0.1,1.6-0.1,3-0.1
		c0.8,0,1.8,0,2.9,0.1c0.6,0,0.9,0.1,1.1,0.1c0.7,0,0.8-0.3,0.8-0.6C259.8,57.8,259.7,57.5,259,57.4"/>
	<path fill="#231F20" d="M78.5,76.4c-1.4-0.5-2.3-0.8-2.6-1c-0.4-0.2-0.7-0.5-1-0.8c-0.3-0.4-0.5-1-0.5-1.6c0-0.7,0.3-1.3,0.8-1.7
		c0.5-0.5,1.2-0.7,2-0.7c1,0,1.9,0.3,2.7,0.8c0.8,0.5,1.3,1.2,1.6,2c0.1,0.4,0.3,0.6,0.4,0.6c0.1,0,0.3-0.1,0.3-0.4
		c0-0.1,0-0.2-0.1-0.5l-0.2-1.1c-0.1-0.6-0.1-1-0.1-1.1c0-0.3,0-0.4-0.1-0.5c-0.1,0-0.1-0.1-0.2-0.1c-0.1,0-0.1,0-0.2,0.1l-0.2,0.1
		c-0.1,0.1-0.3,0.1-0.4,0.1l-0.8-0.3c-0.6-0.2-1.2-0.4-2-0.4c-1.4,0-2.6,0.4-3.5,1.2c-0.9,0.8-1.4,1.8-1.4,3c0,1.1,0.4,2,1,2.7
		c0.7,0.7,1.9,1.3,3.5,1.9c1.6,0.5,2.6,0.9,2.9,1.2c0.6,0.6,1,1.2,1,2c0,0.8-0.4,1.6-1,2.2c-0.7,0.6-1.6,0.9-2.6,0.9
		c-1,0-1.9-0.3-2.8-0.9c-0.8-0.6-1.4-1.4-1.7-2.3c-0.1-0.4-0.3-0.6-0.4-0.6c-0.1,0-0.1,0-0.2,0.1c-0.1,0.1-0.1,0.2-0.1,0.3
		c0,0.3,0.1,0.8,0.3,1.4c0.2,0.6,0.3,1,0.3,1c0.1,0.4,0.2,0.7,0.2,0.8c0,0.1,0.1,0.2,0.3,0.3c0.3,0.2,0.8,0.4,1.5,0.6
		c0.7,0.2,1.3,0.2,1.9,0.2c1.6,0,2.9-0.5,3.9-1.3c1-0.9,1.5-2.1,1.5-3.5C82.6,78.8,81.2,77.3,78.5,76.4"/>
	<path fill="#231F20" d="M86.7,81.7c0.6-0.4,1.5-0.7,2.6-0.8v2.1c0,0.5-0.1,0.9-0.4,1.2c-0.4,0.4-0.9,0.6-1.5,0.6
		c-0.5,0-0.9-0.1-1.2-0.4c-0.3-0.3-0.4-0.7-0.4-1.2C85.8,82.6,86.1,82.1,86.7,81.7 M92.5,84.7c0,0-0.1,0-0.3,0c-0.1,0-0.1,0-0.3,0
		c-0.4,0-0.6-0.1-0.8-0.4c-0.2-0.3-0.2-0.8-0.2-1.4v-4.4c0-0.8-0.3-1.5-0.9-1.9c-0.6-0.5-1.4-0.7-2.4-0.7c-1.1,0-2,0.4-2.7,1.1
		c-0.5,0.5-0.8,1.1-0.8,1.5c0,0.2,0.2,0.4,0.5,0.5c0.3,0.2,0.6,0.2,1,0.2c0.1,0,0.2,0,0.2-0.1c0,0,0.1-0.1,0.1-0.2
		c0-0.1,0-0.2-0.1-0.4c-0.1-0.3-0.1-0.6-0.1-0.8c0-0.8,0.5-1.2,1.4-1.2c0.7,0,1.3,0.2,1.7,0.6c0.3,0.3,0.5,0.9,0.5,1.7v1.3
		c-1.8,0.3-3.1,0.7-3.9,1.1c-0.8,0.5-1.2,1.2-1.2,2c0,0.6,0.2,1.2,0.6,1.6c0.4,0.4,1,0.6,1.7,0.6c0.9,0,1.9-0.4,3-1.2
		c0.5,0.7,1.1,1.1,1.7,1.1c0.3,0,0.7-0.1,1-0.2c0.4-0.2,0.6-0.3,0.6-0.5c0-0.1,0-0.1-0.1-0.2C92.6,84.7,92.6,84.7,92.5,84.7"/>
	<path fill="#231F20" d="M104.7,84.9l-0.5-0.1c-0.5-0.1-0.8-0.3-0.9-0.8l0-0.5l0-0.3v-2.7c0-1.4-0.2-2.4-0.7-3.1
		c-0.7-1-1.7-1.5-2.9-1.5c-1,0-2.1,0.6-3,1.7v-1.1c0-0.2,0-0.3,0-0.4c0-0.2,0-0.3-0.1-0.3c-0.1-0.1-0.3-0.1-0.5,0
		c-0.1,0-0.2,0.1-0.4,0.2l-0.6,0.3c-0.5,0.2-0.9,0.4-1.4,0.5c-0.2,0-0.3,0.1-0.3,0.3c0,0.1,0,0.2,0.1,0.2c0.1,0,0.1,0.1,0.2,0.1
		l0.5,0c0.3,0,0.6,0.1,0.7,0.3c0.1,0.2,0.2,0.5,0.2,1v5c0,0.4-0.1,0.7-0.2,0.9c-0.1,0.2-0.4,0.3-0.7,0.5c-0.2,0.1-0.2,0.2-0.2,0.3
		c0,0.1,0,0.1,0.1,0.2c0,0,0.1,0.1,0.2,0.1c0.1,0,0.2,0,0.5,0c0.2,0,0.9-0.1,2.1-0.1c0.6,0,0.9,0,1,0c0.3,0,0.4,0.1,0.6,0.1
		c0.3,0,0.3-0.2,0.3-0.3c0-0.2-0.1-0.3-0.4-0.3c-1-0.1-1.5-0.4-1.5-1l0-0.9v-4.3c0-0.4,0.2-0.9,0.7-1.2c0.5-0.4,1-0.5,1.6-0.5
		c0.9,0,1.5,0.3,2,0.8c0.5,0.5,0.7,1.3,0.7,2.4V84c0,0.4-0.1,0.7-0.4,0.7l-0.3,0.1c-0.2,0-0.2,0.2-0.2,0.3c0,0.1,0.1,0.2,0.1,0.2
		l0.2,0l0.3,0h0.4l1.1,0c0.7,0,1.1,0,1.4,0.1c0.2,0,0.4,0,0.4,0c0.2,0,0.3,0,0.4-0.1c0,0,0.1-0.1,0.1-0.2
		C105,85,104.9,84.9,104.7,84.9"/>
	<path fill="#231F20" d="M171,84.9l-0.5-0.1c-0.4,0-0.6-0.2-0.7-0.3c-0.1-0.2-0.2-0.5-0.2-1V76c0-0.3-0.1-0.3-0.2-0.3l0,0l-0.6,0.3
		c-0.6,0.3-1.2,0.6-1.6,0.7c-0.4,0.1-0.6,0.2-0.6,0.4c0,0,0,0.1,0,0.1c0.1,0.1,0.2,0.1,0.4,0.1c0.4,0,0.6,0.1,0.7,0.3
		c0.1,0.2,0.2,0.6,0.2,1.2v4.9c0,0.4,0,0.8-0.1,0.9c-0.1,0.2-0.2,0.3-0.5,0.4l-0.2,0.1c-0.2,0.1-0.2,0.2-0.2,0.3
		c0,0.1,0.1,0.3,0.4,0.3c0.1,0,0.2,0,0.4,0c0.1,0,0.2,0,0.3,0l0.8,0l0.7,0c0.3,0,0.6,0,0.8,0c0.4,0,0.6,0.1,0.7,0.1
		c0.3,0,0.4-0.1,0.4-0.2C171.5,85.1,171.3,84.9,171,84.9"/>
	<path fill="#231F20" d="M165.5,84.9l-0.5-0.1c-0.5-0.1-0.8-0.3-0.9-0.8l0-0.5l0-0.3v-2.7c0-1.4-0.2-2.4-0.7-3.1
		c-0.7-1-1.7-1.5-2.9-1.5c-1,0-2.1,0.6-3,1.7v-1.1c0-0.2,0-0.3,0-0.4c0-0.2,0-0.3-0.1-0.3c-0.1-0.1-0.3-0.1-0.5,0
		c-0.1,0-0.2,0.1-0.4,0.2l-0.6,0.3c-0.5,0.2-0.9,0.4-1.4,0.5c-0.2,0-0.3,0.1-0.3,0.3c0,0.1,0,0.2,0.1,0.2c0.1,0,0.1,0.1,0.2,0.1
		l0.5,0c0.3,0,0.6,0.1,0.7,0.3c0.1,0.2,0.2,0.5,0.2,1v5c0,0.4-0.1,0.7-0.2,0.9c-0.1,0.2-0.4,0.3-0.7,0.5c-0.2,0.1-0.2,0.2-0.2,0.3
		c0,0.1,0,0.1,0.1,0.2c0,0,0.1,0.1,0.2,0.1c0.1,0,0.2,0,0.5,0c0.2,0,0.9-0.1,2.1-0.1c0.6,0,0.9,0,1,0c0.3,0,0.4,0.1,0.6,0.1
		c0.3,0,0.3-0.2,0.3-0.3c0-0.2-0.1-0.3-0.4-0.3c-1-0.1-1.5-0.4-1.5-1l0-0.9v-4.3c0-0.4,0.2-0.9,0.7-1.2c0.5-0.4,1-0.5,1.6-0.5
		c0.9,0,1.5,0.3,2,0.8c0.5,0.5,0.7,1.3,0.7,2.4V84c0,0.4-0.1,0.7-0.4,0.7l-0.3,0.1c-0.2,0-0.2,0.2-0.2,0.3c0,0.1,0.1,0.2,0.1,0.2
		l0.2,0l0.3,0h0.4l1.1,0c0.7,0,1.1,0,1.4,0.1c0.2,0,0.4,0,0.4,0c0.2,0,0.3,0,0.4-0.1c0,0,0.1-0.1,0.1-0.2
		C165.9,85,165.8,84.9,165.5,84.9"/>
	<path fill="#231F20" d="M151.6,81.4c0,1.1-0.3,2.1-0.8,2.7c-0.5,0.7-1.2,1-2.1,1c-1,0-1.9-0.5-2.6-1.4c-0.7-0.9-1.1-2.1-1.1-3.5
		c0-1.1,0.3-2,0.8-2.7c0.6-0.7,1.3-1,2.2-1c1,0,1.9,0.5,2.5,1.4C151.2,78.7,151.6,79.9,151.6,81.4 M148.3,75.9
		c-1.4,0-2.6,0.5-3.6,1.4c-1,1-1.5,2.1-1.5,3.5c0,1.4,0.5,2.6,1.4,3.5c0.9,0.9,2.1,1.4,3.5,1.4c1.5,0,2.7-0.5,3.6-1.4
		c1-0.9,1.4-2.1,1.4-3.5c0-1.3-0.5-2.5-1.5-3.4C150.8,76.4,149.7,75.9,148.3,75.9"/>
	<path fill="#231F20" d="M168.9,71.3c-0.2,0-0.4,0.2-0.7,0.5c-0.3,0.3-0.4,0.6-0.4,0.8c0,0.2,0.1,0.4,0.4,0.7
		c0.3,0.3,0.5,0.5,0.6,0.5c0.2,0,0.4-0.2,0.7-0.5c0.3-0.3,0.4-0.6,0.4-0.8c0-0.1,0-0.2-0.1-0.3l-0.3-0.4
		C169.3,71.4,169.1,71.3,168.9,71.3"/>
	<path fill="#231F20" d="M118.3,78.1c0,0.1-0.2,0.2-0.5,0.2h-3.4l-0.3,0c-0.5,0-0.5-0.2-0.5-0.2c0,0,0-0.1,0.1-0.4l2.2-4.8
		c0.1-0.2,0.1-0.2,0.1-0.2c0,0,0.1,0.1,0.2,0.3l1.8,4.6l0.1,0.2l0,0C118.3,78,118.3,78.1,118.3,78.1 M124.3,84.9
		c-0.7-0.1-1.2-0.3-1.4-0.5c-0.2-0.2-0.5-0.8-0.9-1.7l-0.2-0.6l-4.8-12.3c-0.1-0.2-0.2-0.4-0.4-0.4c-0.1,0-0.3,0.1-0.4,0.4
		l-5.7,12.7l-0.3,0.7c-0.2,0.3-0.4,0.7-0.6,1c-0.3,0.4-0.5,0.5-0.6,0.5l-0.4,0.1c-0.2,0-0.2,0.1-0.2,0.3c0,0.1,0,0.3,0.4,0.3
		c0,0,0.1,0,0.6-0.1c0.1,0,0.3,0,0.5,0c0.5,0,0.9,0,1.2,0l1.1,0.1c0.2,0,0.3,0,0.4,0c0.2,0,0.3,0,0.3-0.1c0,0,0.1-0.1,0.1-0.2
		c0-0.2-0.1-0.3-0.4-0.3c-0.5-0.1-0.8-0.2-1-0.4c-0.2-0.1-0.2-0.4-0.2-0.7c0-0.4,0.2-0.9,0.5-1.7l0.7-1.6c0.3-0.6,0.4-0.8,0.5-0.9
		c0.1-0.1,0.3-0.1,1-0.1h4c0.5,0,0.7,0.1,0.7,0.1c0.1,0,0.2,0.2,0.3,0.7l0.6,1.5c0.4,1.2,0.7,2,0.7,2.3c0,0.4-0.2,0.6-0.5,0.7
		l-0.3,0.1c-0.3,0.1-0.3,0.2-0.3,0.3c0,0.1,0,0.3,0.3,0.3c0.1,0,0.2,0,0.4,0c0.3,0,0.9-0.1,1.9-0.1c1,0,1.7,0,2.1,0.1
		c0.2,0,0.4,0,0.4,0c0.3,0,0.4-0.1,0.4-0.2C124.7,85,124.6,84.9,124.3,84.9"/>
	<path fill="#231F20" d="M180.3,81.4c0,1.1-0.3,2.1-0.8,2.7c-0.5,0.7-1.2,1-2.1,1c-1,0-1.9-0.5-2.6-1.4c-0.7-0.9-1.1-2.1-1.1-3.5
		c0-1.1,0.3-2,0.8-2.7c0.6-0.7,1.3-1,2.2-1c1,0,1.9,0.5,2.5,1.4C180,78.7,180.3,79.9,180.3,81.4 M177.1,75.9c-1.4,0-2.6,0.5-3.6,1.4
		c-1,1-1.5,2.1-1.5,3.5c0,1.4,0.5,2.6,1.4,3.5c0.9,0.9,2.1,1.4,3.5,1.4c1.5,0,2.7-0.5,3.6-1.4c1-0.9,1.4-2.1,1.4-3.5
		c0-1.3-0.5-2.5-1.5-3.4C179.6,76.4,178.4,75.9,177.1,75.9"/>
	<path fill="#231F20" d="M135.9,84.9l-0.5-0.1c-0.5-0.1-0.8-0.3-0.9-0.8l0-0.5l0-0.3v-2.7c0-1.4-0.2-2.4-0.7-3.1
		c-0.7-1-1.7-1.5-2.9-1.5c-1,0-2.1,0.6-3,1.7v-1.1c0-0.2,0-0.3,0-0.4c0-0.2,0-0.3-0.1-0.3c-0.1-0.1-0.3-0.1-0.5,0
		c-0.1,0-0.2,0.1-0.4,0.2l-0.6,0.3c-0.5,0.2-0.9,0.4-1.4,0.5c-0.2,0-0.3,0.1-0.3,0.3c0,0.1,0,0.2,0.1,0.2c0.1,0,0.1,0.1,0.2,0.1
		l0.5,0c0.3,0,0.6,0.1,0.7,0.3c0.1,0.2,0.2,0.5,0.2,1v5c0,0.4-0.1,0.7-0.2,0.9c-0.1,0.2-0.4,0.3-0.7,0.5c-0.2,0.1-0.2,0.2-0.2,0.3
		c0,0.1,0,0.1,0.1,0.2c0,0,0.1,0.1,0.2,0.1c0.1,0,0.2,0,0.5,0c0.2,0,0.9-0.1,2.1-0.1c0.6,0,0.9,0,1,0c0.3,0,0.4,0.1,0.6,0.1
		c0.3,0,0.3-0.2,0.3-0.3c0-0.2-0.1-0.3-0.4-0.3c-1-0.1-1.5-0.4-1.5-1l0-0.9v-4.3c0-0.4,0.2-0.9,0.7-1.2c0.5-0.4,1-0.5,1.6-0.5
		c0.9,0,1.5,0.3,2,0.8c0.5,0.5,0.7,1.3,0.7,2.4V84c0,0.4-0.1,0.7-0.4,0.7l-0.3,0.1c-0.2,0-0.2,0.2-0.2,0.3c0,0.1,0,0.2,0.1,0.2
		l0.2,0l0.3,0h0.4l1.1,0c0.7,0,1.1,0,1.4,0.1c0.2,0,0.4,0,0.4,0c0.2,0,0.3,0,0.4-0.1c0-0.1,0.1-0.1,0.1-0.2
		C136.3,85,136.1,84.9,135.9,84.9"/>
	<path fill="#231F20" d="M142.9,84.2L142.9,84.2l-0.7,0.3c-0.3,0.2-0.7,0.2-1.1,0.2c-0.5,0-1-0.2-1.3-0.5c-0.2-0.2-0.3-0.7-0.3-1.4
		v-5.6h2.6c0.3,0,0.5-0.1,0.5-0.4l0.3-0.6c0.1-0.2,0.1-0.3,0.1-0.3c0-0.1,0-0.1,0-0.2c0,0-0.1,0-0.1,0c-0.1,0-0.2,0.1-0.3,0.1
		c-0.2,0.1-0.4,0.2-0.7,0.2h-2.3l0-1.9c0-0.3-0.1-0.3-0.2-0.3c-0.1,0-0.2,0.1-0.5,0.5c-0.5,0.7-1.1,1.5-2,2.2
		c-0.2,0.2-0.3,0.3-0.3,0.4c0,0.1,0.1,0.2,0.3,0.2h0.9v5.6c0,1.8,0.9,2.7,2.6,2.7c0.5,0,1.1-0.1,1.7-0.4c0.6-0.3,0.9-0.6,0.9-0.8
		C143.1,84.3,143.1,84.2,142.9,84.2"/>
</g>
<g>
	<line fill="none" stroke="#BD4700" x1="73.1" y1="94.1" x2="256.1" y2="94.1"/>
</g>
<g>
	<path fill="#231F20" d="M36.7,87.5h1.5v0.2h-0.6v1.9h-0.2v-1.9h-0.6V87.5z"/>
	<path fill="#231F20" d="M38.5,89.5v-2h0.3l0.7,1.8h0l0.7-1.8h0.3v2h-0.2v-1.8h0l-0.7,1.8h-0.2l-0.7-1.8h0v1.8H38.5z"/>
</g>
<g>
	<g>
		<path fill="#7B6569" stroke="#7B6569" stroke-width="0.103" stroke-miterlimit="3.715" d="M75.8,104.9c0-1.6-1.8-1.2-1.8-1.7
			c0-0.2,0-0.2,0.2-0.2c0.8,0,1.6,0.1,2.4,0.1c0.7,0,1.4-0.1,2.1-0.1c0.4,0,0.4,0,0.4,0.2c0,0.5-1.6,0-1.6,1.7v12c0,1.5,2,1,2,1.7
			c0,0.2-0.1,0.2-0.4,0.2c-0.5,0-1.5-0.1-2.4-0.1c-1.4,0-1.8,0.1-2.1,0.1c-0.4,0-0.5-0.1-0.5-0.3c0-0.6,1.7,0.1,1.7-2.1V104.9z"/>
		<path fill="#7B6569" stroke="#7B6569" stroke-width="0.103" stroke-miterlimit="3.715" d="M83.8,117c0,1.5,2,0.9,2,1.5
			c0,0.3-0.2,0.3-0.5,0.3c-0.4,0-0.8-0.1-2.1-0.1c-1.2,0-1.6,0.1-1.9,0.1c-0.3,0-0.4,0-0.4-0.3c0-0.4,1.3,0,1.3-1.4v-5.5
			c0-1.3-1.6-0.8-1.6-1.2c0-0.1,0.1-0.2,0.2-0.2c1.8-0.4,2.3-1.1,2.8-1.1c0.1,0,0.3,0.1,0.3,0.4v1.5c0,0.3,1.1-1.6,3.2-1.6
			c3,0,3.6,2.5,3.6,4.2v3.7c0,1.5,1.7,0.9,1.7,1.5c0,0.3-0.2,0.3-0.4,0.3c-0.3,0-0.8-0.1-1.9-0.1c-0.8,0-1.3,0.1-1.6,0.1
			s-0.4,0-0.4-0.3c0-0.4,1,0,1-1.4v-4.2c0-1.1-0.8-2.8-2.6-2.8c-1.9,0-2.6,1.4-2.6,1.7V117z"/>
		<path fill="#7B6569" stroke="#7B6569" stroke-width="0.103" stroke-miterlimit="3.715" d="M94.1,109.4c0-1.6,0.4-3.3,1.3-4.7
			c0.5-0.8,2-2.4,3.6-2.4c0.3,0,0.9,0.1,0.9,0.5c0,0.4-0.1,1.6-0.3,1.6c-0.3,0-0.1-0.9-1.5-0.9c-1.2,0-2,1.3-2.2,2.3
			c-0.2,1.2-0.2,2.5-0.2,3.7h1.7c0.6,0,0.8-0.4,0.9-0.4c0.1,0,0.2,0.1,0.2,0.2c0,0.1-0.1,0.2-0.1,0.3l-0.4,0.8h-2.2v6.8
			c0,1.4,1.6,0.9,1.6,1.4c0,0.3-0.3,0.2-0.5,0.2h-3.4c-0.1,0-0.4,0-0.4-0.1c0-0.5,1.1-0.2,1.1-1.3v-6.9h-1.5l0.1-0.9H94.1z"/>
		<path fill="#7B6569" stroke="#7B6569" stroke-width="0.103" stroke-miterlimit="3.715" d="M98.9,114.2c0-2.7,2.2-5.1,5-5.1
			c1.7,0,4.8,0.8,4.8,5c0,2.7-2.1,4.8-4.8,4.8C101,119,98.9,117.2,98.9,114.2z M107.1,114.5c0-2.3-1-4.8-3.6-4.8
			c-2.2,0-3.1,1.9-3.1,3.8c0,2.2,1,5,3.6,5C105.9,118.5,107.1,117.2,107.1,114.5z"/>
		<path fill="#7B6569" stroke="#7B6569" stroke-width="0.103" stroke-miterlimit="3.715" d="M112.6,116.8c0,2.1,2,1,2,1.7
			c0,0.2-0.1,0.2-0.4,0.2c-0.3,0-0.8-0.1-2.1-0.1c-1.5,0-1.9,0.1-2,0.1c-0.2,0-0.2-0.1-0.2-0.2c0-0.5,1.1-0.4,1.1-1.3v-5.7
			c0-1.3-1.6-0.8-1.6-1.2c0-0.1,0.2-0.2,0.3-0.2c1.7-0.4,2.2-1.1,2.7-1.1c0.1,0,0.3,0.1,0.3,0.4v1.7h0c0.5-0.6,1.3-1.8,2.2-1.8
			c0.5,0,1.5,0.6,1.5,1c0,0.3-0.5,1-0.8,1c-0.4,0-0.7-0.5-1.5-0.5c-0.9,0-1.4,1-1.4,1.3V116.8z"/>
		<path fill="#7B6569" stroke="#7B6569" stroke-width="0.103" stroke-miterlimit="3.715" d="M119.7,117c0,1.5,1.7,0.9,1.7,1.5
			c0,0.3-0.2,0.3-0.4,0.3c-0.3,0-1-0.1-2-0.1c-0.9,0-1.4,0.1-1.6,0.1c-0.2,0-0.3-0.1-0.3-0.3c0-0.3,0.9-0.3,0.9-1.2v-5.7
			c0-1.3-1.4-0.8-1.4-1.2c0-0.1,0.1-0.2,0.2-0.2c1.6-0.4,2-1.1,2.6-1.1c0.1,0,0.3,0.1,0.3,0.4v1.3c0.7-0.8,1.6-1.5,2.6-1.5
			c1.4,0,2.2,0.4,2.9,1.6c0.7-1,1.6-1.6,3.1-1.6c3.3,0,3.2,3.3,3.2,4.1v3.8c0,1.5,1.7,0.9,1.7,1.5c0,0.3-0.2,0.3-0.4,0.3
			c-0.3,0-1-0.1-2-0.1c-0.9,0-1.4,0.1-1.6,0.1c-0.2,0-0.3-0.1-0.3-0.3c0-0.3,0.9-0.3,0.9-1.2V113c0-1.4-0.5-3-2.3-3
			c-1,0-2,0.9-2,1.2v5.8c0,1.5,1.7,0.9,1.7,1.5c0,0.3-0.2,0.3-0.4,0.3c-0.3,0-1-0.1-2-0.1c-0.9,0-1.4,0.1-1.6,0.1
			c-0.2,0-0.3-0.1-0.3-0.3c0-0.3,0.9-0.3,0.9-1.2v-4.7c0-1.8-1-2.6-2.2-2.6c-0.6,0-2.1,0.4-2.1,2V117z"/>
		<path fill="#7B6569" stroke="#7B6569" stroke-width="0.103" stroke-miterlimit="3.715" d="M139.7,111.7c0-1.2-0.9-1.9-2.3-1.9
			c-1.1,0-1.9,0.1-1.9,1.3c0,0.3,0.1,0.7,0.1,0.9c0,0.2-0.1,0.4-0.5,0.4c-0.4,0-1-0.3-1-0.7c0-1,1.3-2.6,3.7-2.5
			c1.4,0,3.5,0.4,3.5,2.3v4.6c0,0.8-0.2,2.1,1,2.1c0.1,0,0.3,0,0.4,0c0.1,0,0.3,0,0.3,0.2c0,0.5-1,0.6-1.3,0.6
			c-0.9,0-1.4-0.4-1.7-1.1c-0.9,0.8-2.2,1.3-3.4,1.3c-1.4,0-2.4-0.5-2.4-2.1c0-1.2,0.4-2.6,5.6-3.4V111.7z M139.7,113.9
			c-1.4,0.3-4.1,0.7-4.1,2.6c0,1.3,0.6,1.8,1.8,1.8c0.8,0,2.3-0.6,2.3-1.8V113.9z"/>
		<path fill="#7B6569" stroke="#7B6569" stroke-width="0.103" stroke-miterlimit="3.715" d="M144.7,110.4c-1,0-1.2,0-1.2-0.2
			c0-0.2,0.6-0.6,1.7-1.8c0.4-0.5,0.7-1,0.8-1c0.3,0,0.3,0.5,0.3,2.1h2.4c0.6,0,0.8-0.4,0.9-0.4c0.1,0,0.2,0.1,0.2,0.2
			c0,0.1-0.1,0.2-0.1,0.3l-0.4,0.8h-2.9v6.5c0,0.9,0.7,1.3,1.6,1.3c1.2,0,1.5-0.5,1.9-0.5c0.1,0,0.2,0,0.2,0.2
			c0,0.3-1.2,1.1-2.8,1.1c-1,0-2.5-0.3-2.5-2.6V110.4z"/>
		<path fill="#7B6569" stroke="#7B6569" stroke-width="0.103" stroke-miterlimit="3.715" d="M152.3,111.6c0-1.3-1.2-0.8-1.2-1.2
			c0-0.1,0.1-0.2,0.2-0.2c1.4-0.4,1.9-1.1,2.4-1.1c0.1,0,0.3,0.1,0.3,0.4v8c0,1.1,1.8,0.6,1.8,1.2c0,0.2-0.1,0.2-0.4,0.2
			c-0.5,0-1.2-0.1-2.1-0.1c-0.7,0-1.3,0.1-1.5,0.1c-0.2,0-0.3,0-0.3-0.2c0-0.6,1,0.3,1-1.7V111.6z M154,105.8c0,0.3-0.6,1.2-0.9,1.2
			c-0.3,0-0.9-0.9-0.9-1.2c0-0.2,0.7-1.2,0.9-1.2C153.4,104.6,154,105.5,154,105.8z"/>
		<path fill="#7B6569" stroke="#7B6569" stroke-width="0.103" stroke-miterlimit="3.715" d="M156.5,114.2c0-2.7,2.2-5.1,5-5.1
			c1.7,0,4.8,0.8,4.8,5c0,2.7-2.1,4.8-4.8,4.8C158.6,119,156.5,117.2,156.5,114.2z M164.7,114.5c0-2.3-1-4.8-3.6-4.8
			c-2.2,0-3.1,1.9-3.1,3.8c0,2.2,1,5,3.6,5C163.5,118.5,164.7,117.2,164.7,114.5z"/>
		<path fill="#7B6569" stroke="#7B6569" stroke-width="0.103" stroke-miterlimit="3.715" d="M170.2,117c0,1.5,2,0.9,2,1.5
			c0,0.3-0.2,0.3-0.5,0.3c-0.4,0-0.8-0.1-2.1-0.1c-1.2,0-1.6,0.1-1.9,0.1c-0.3,0-0.4,0-0.4-0.3c0-0.4,1.3,0,1.3-1.4v-5.5
			c0-1.3-1.6-0.8-1.6-1.2c0-0.1,0.1-0.2,0.2-0.2c1.8-0.4,2.3-1.1,2.8-1.1c0.1,0,0.3,0.1,0.3,0.4v1.5c0,0.3,1.1-1.6,3.2-1.6
			c3,0,3.6,2.5,3.6,4.2v3.7c0,1.5,1.7,0.9,1.7,1.5c0,0.3-0.2,0.3-0.4,0.3c-0.3,0-0.8-0.1-1.9-0.1c-0.8,0-1.3,0.1-1.6,0.1
			c-0.3,0-0.4,0-0.4-0.3c0-0.4,1,0,1-1.4v-4.2c0-1.1-0.8-2.8-2.6-2.8c-1.9,0-2.6,1.4-2.6,1.7V117z"/>
		<path fill="#7B6569" stroke="#7B6569" stroke-width="0.103" stroke-miterlimit="3.715" d="M184.8,114.9c-0.1-0.4,0-0.7,0.2-0.7
			c0.3,0,0.3,0.3,0.4,0.7c0.3,1,1.6,3.3,4.7,3.3c2.1,0,4.2-1.2,4.2-3.5c0-4.3-9-1.9-9-7.7c0-2.8,2.4-4.2,4.9-4.2
			c2.7,0,3.4,0.8,3.7,0.8c0.2,0,0.2-0.2,0.5-0.2c0.1,0,0.2,0.1,0.3,0.3l0.3,3c0,0.2,0,0.3-0.2,0.3c-0.2,0-0.4-0.5-0.5-0.7
			c-0.7-1.9-2.3-2.9-4.3-2.9c-1.8,0-3.6,0.8-3.6,2.9c0,4.2,9,1.7,9,7.9c0,1.9-1.3,4.7-6.4,4.7c-1.6,0-3.7-0.8-3.8-1.2L184.8,114.9z"
			/>
		<path fill="#7B6569" stroke="#7B6569" stroke-width="0.103" stroke-miterlimit="3.715" d="M198.5,113.1c0,3.7,2.2,4.8,3.6,4.8
			c1.9,0,2.6-1.2,3.1-1.2c0.1,0,0.1,0.1,0.1,0.2c0,0.5-1.9,2.1-3.9,2.1c-3.3,0-4.5-3.1-4.5-4.6c0-2.8,1.6-5.2,4.4-5.2
			c2.7,0,3.9,2.6,3.9,3.5c0,0.4-0.2,0.4-0.8,0.4H198.5z M202.8,112.5c0.3,0,0.4-0.1,0.4-0.4c0-1.2-1.2-2.4-2.5-2.4
			c-1.4,0-2.4,1.6-2.4,2.8H202.8z"/>
		<path fill="#7B6569" stroke="#7B6569" stroke-width="0.103" stroke-miterlimit="3.715" d="M206.3,114.2c0-2.8,2.2-5.1,5-5.1
			c1.1,0,2.6,0.3,2.7,0.8c0,0.5,0,1,0,1.3c0,0.3-0.1,0.5-0.2,0.5c-0.2,0-0.5-0.4-0.5-0.5c-0.8-1-1.7-1.4-2.8-1.4
			c-1.9,0-2.6,2-2.6,3.6c0,2.4,1.4,4.4,3.9,4.4c1.7,0,2.7-1.3,3-1.3c0.1,0,0.2,0.1,0.2,0.1c0,0.4-1.3,2.3-4.4,2.3
			C208.2,119,206.3,116.7,206.3,114.2z"/>
		<path fill="#7B6569" stroke="#7B6569" stroke-width="0.103" stroke-miterlimit="3.715" d="M223.1,110.8c0-0.8-1.2-0.3-1.2-0.8
			c0-0.2,0.3-0.2,0.4-0.2c0.6,0,1-0.1,1.2-0.1c0.2,0,0.4-0.1,0.8-0.1c0.1,0,0.4,0.1,0.4,0.5v7.7c0,0.6,1.4,0.3,1.4,0.8
			c0,0.2-0.5,0.2-0.8,0.2c-0.6,0-0.9,0.1-1.2,0.1c-0.2,0.1-0.4,0.1-0.8,0.1c-0.2,0-0.2-0.2-0.2-0.3v-1.2h0c-0.7,1-1.8,1.6-3,1.6
			c-1.8,0-3.2-1.1-3.2-3v-5.2c0-0.8-1.2-0.3-1.2-0.8c0-0.2,0.3-0.2,0.4-0.2c0.6,0,1-0.1,1.2-0.1c0.2,0,0.4-0.1,0.8-0.1
			c0.1,0,0.4,0.1,0.4,0.5v5.6c0,2.4,1.9,2.5,2.2,2.5c1.3,0,2.4-0.9,2.4-1.6V110.8z"/>
		<path fill="#7B6569" stroke="#7B6569" stroke-width="0.103" stroke-miterlimit="3.715" d="M229.7,116.8c0,2.1,2,1,2,1.7
			c0,0.2-0.1,0.2-0.4,0.2c-0.3,0-0.8-0.1-2.1-0.1c-1.5,0-1.9,0.1-2,0.1c-0.2,0-0.2-0.1-0.2-0.2c0-0.5,1.1-0.4,1.1-1.3v-5.7
			c0-1.3-1.6-0.8-1.6-1.2c0-0.1,0.2-0.2,0.3-0.2c1.7-0.4,2.2-1.1,2.7-1.1c0.1,0,0.3,0.1,0.3,0.4v1.7h0c0.5-0.6,1.3-1.8,2.2-1.8
			c0.5,0,1.5,0.6,1.5,1c0,0.3-0.5,1-0.8,1c-0.4,0-0.7-0.5-1.5-0.5c-0.9,0-1.4,1-1.4,1.3V116.8z"/>
		<path fill="#7B6569" stroke="#7B6569" stroke-width="0.103" stroke-miterlimit="3.715" d="M235.6,111.6c0-1.3-1.2-0.8-1.2-1.2
			c0-0.1,0.1-0.2,0.2-0.2c1.4-0.4,1.9-1.1,2.4-1.1c0.1,0,0.3,0.1,0.3,0.4v8c0,1.1,1.8,0.6,1.8,1.2c0,0.2-0.1,0.2-0.4,0.2
			c-0.5,0-1.2-0.1-2.1-0.1c-0.7,0-1.3,0.1-1.5,0.1c-0.2,0-0.3,0-0.3-0.2c0-0.6,1,0.3,1-1.7V111.6z M237.3,105.8
			c0,0.3-0.6,1.2-0.9,1.2c-0.3,0-0.9-0.9-0.9-1.2c0-0.2,0.7-1.2,0.9-1.2C236.7,104.6,237.3,105.5,237.3,105.8z"/>
		<path fill="#7B6569" stroke="#7B6569" stroke-width="0.103" stroke-miterlimit="3.715" d="M241.1,110.4c-1,0-1.2,0-1.2-0.2
			c0-0.2,0.6-0.6,1.7-1.8c0.4-0.5,0.7-1,0.8-1c0.3,0,0.3,0.5,0.3,2.1h2.4c0.6,0,0.8-0.4,0.9-0.4c0.1,0,0.2,0.1,0.2,0.2
			c0,0.1-0.1,0.2-0.1,0.3l-0.4,0.8h-2.9v6.5c0,0.9,0.7,1.3,1.6,1.3c1.2,0,1.5-0.5,1.9-0.5c0.1,0,0.2,0,0.2,0.2
			c0,0.3-1.2,1.1-2.8,1.1c-1,0-2.5-0.3-2.5-2.6V110.4z"/>
		<path fill="#7B6569" stroke="#7B6569" stroke-width="0.103" stroke-miterlimit="3.715" d="M250.4,123.2c0,0.1-0.4,0.1-0.7,0.1
			c-0.3,0-0.8,0-0.8-0.2c0-0.5,2-2.2,2-3.9c0-0.5-0.2-1-0.4-1.5l-2.9-7.2c-0.2-0.5-1-0.5-1-0.8c0-0.2,0.1-0.3,0.4-0.3
			c0.5,0,1,0.1,1.6,0.1c0.8,0,1.3-0.1,1.6-0.1c0.3,0,0.5,0,0.5,0.3c0,0.5-1.3,0-1.3,0.9c0,0.2,0,0.4,0.1,0.5l2.4,6.1l1.7-5
			c0.3-0.8,0.3-1,0.3-1.2c0-1.2-1.4-0.9-1.4-1.4c0-0.2,0.3-0.2,0.7-0.2c0.3,0,0.6,0.1,1.2,0.1c0.5,0,0.9-0.1,1.1-0.1
			c0.3,0,0.4,0.1,0.4,0.3c0,0.5-0.8,0-1.2,1.3L250.4,123.2z"/>
	</g>
</g>
</svg>
