<?xml version="1.0" encoding="utf-8"?>
<!-- Generator: Adobe Illustrator 22.1.0, SVG Export Plug-In . SVG Version: 6.00 Build 0)  -->
<svg version="1.1" id="Layer_1" xmlns="http://www.w3.org/2000/svg" xmlns:xlink="http://www.w3.org/1999/xlink" x="0px" y="0px"
	 viewBox="0 0 261 124" style="enable-background:new 0 0 261 124;" xml:space="preserve">
<style type="text/css">
	.st0{fill:#BC4B27;}
	.st1{fill:#D66027;}
	.st2{fill:#FFFFFF;}
	.st3{fill:#FDCEB0;}
	.st4{fill:#231F20;}
	.st5{fill:none;stroke:#BC4B27;}
	.st6{fill:#6D5560;}
</style>
<g id="_x3C_CMYK_x3E_">
	<g id="_x3C_Shield_x3E__2_">
		<path class="st0" d="M1.9,25.5l60,0v-1.7v-5.2v-2.2h-7.5v-3h-1.8c0,0-3.9,0.2-6.8-1.6c-2.9-1.7-3.4-3.3-3.4-3.3V6.1h-3.9
			C37.9,3.2,35.3,1,32.2,1c-3.1,0-5.7,2.2-6.4,5.1h-3.9v2.4c0,0-0.6,1.6-3.4,3.3c-2.9,1.7-6.8,1.6-6.8,1.6H9.4v3H1.9v2.2v5.2
			L1.9,25.5"/>
		<path class="st0" d="M1.9,45.2c0.1,4.4,0.7,8.7,1.8,13c2.1,8,5.9,15,12.1,20.7c4.7,4.4,10.2,7.7,15.8,10.8c0.2,0.1,0.5,0.1,0.7,0
			c3.9-2.1,7.7-4.5,11.2-7.1c7.7-5.6,13-12.8,15.8-21.8c2-6.3,2.7-12.8,2.7-19.4c0-3.4,0-9.5,0-12.9H1.9C1.9,33.1,1.8,40.5,1.9,45.2
			 M27.6,49.3l4.4-13.4l4.4,13.4h14.1L39,57.6L43.4,71l-11.4-8.3L20.5,71l4.4-13.4l-11.4-8.3H27.6z"/>
		<path class="st1" d="M32.1,25.5L32.3,1c-3.1,0-5.7,2.2-6.4,5.1H22v2.4c0,0-0.6,1.6-3.4,3.3c-2.9,1.7-6.8,1.6-6.8,1.6H9.4v3H1.9
			v2.2v5.2v1.7L32.1,25.5z"/>
		<path class="st1" d="M32,62.7L20.5,71l4.4-13.4l-11.4-8.3h14.1L32,35.9l0-7.4h-30c0,4.8-0.1,12.1,0,16.8c0.1,4.4,0.7,8.7,1.8,13
			c2.1,8,5.9,15,12.1,20.7c4.7,4.4,10.2,7.7,15.8,10.8c0.2,0.1,0.3,0,0.3,0L32,62.7z"/>
		<polygon class="st2" points="50.5,49.3 36.3,49.3 32,35.8 27.6,49.3 13.5,49.3 24.9,57.6 20.5,71 32,62.7 43.4,71 39,57.6 		"/>
		<polygon class="st3" points="32,35.8 36.3,49.3 50.5,49.3 39,57.6 43.4,71 32,62.7 		"/>
	</g>
	<g>
		<path class="st4" d="M39.5,86.6c0.3,0,0.5,0.1,0.7,0.2c0.2,0.1,0.4,0.3,0.6,0.6c0.1,0.2,0.2,0.5,0.2,0.8c0,0.3-0.1,0.5-0.2,0.7
			c-0.1,0.2-0.3,0.4-0.6,0.6c-0.2,0.1-0.5,0.2-0.7,0.2c-0.3,0-0.5-0.1-0.7-0.2c-0.2-0.1-0.4-0.3-0.6-0.6c-0.1-0.2-0.2-0.5-0.2-0.7
			c0-0.3,0.1-0.5,0.2-0.8c0.1-0.2,0.3-0.4,0.6-0.6C39,86.7,39.3,86.6,39.5,86.6z M39.5,86.9c-0.2,0-0.4,0.1-0.6,0.2
			c-0.2,0.1-0.4,0.3-0.5,0.5c-0.1,0.2-0.2,0.4-0.2,0.6c0,0.2,0.1,0.4,0.2,0.6c0.1,0.2,0.3,0.4,0.5,0.5c0.2,0.1,0.4,0.2,0.6,0.2
			c0.2,0,0.4-0.1,0.6-0.2c0.2-0.1,0.4-0.3,0.5-0.5c0.1-0.2,0.2-0.4,0.2-0.6c0-0.2-0.1-0.4-0.2-0.6c-0.1-0.2-0.3-0.4-0.5-0.5
			C40,86.9,39.8,86.9,39.5,86.9z M38.9,89v-1.6h0.6c0.2,0,0.3,0,0.4,0c0.1,0,0.2,0.1,0.2,0.2c0,0.1,0.1,0.2,0.1,0.2
			c0,0.1,0,0.2-0.1,0.3c-0.1,0.1-0.2,0.1-0.3,0.1c0.1,0,0.1,0.1,0.1,0.1c0.1,0.1,0.1,0.2,0.2,0.3l0.2,0.3h-0.3l-0.1-0.3
			c-0.1-0.2-0.2-0.3-0.3-0.4c0,0-0.1-0.1-0.2-0.1h-0.2V89H38.9z M39.1,88.1h0.3c0.2,0,0.3,0,0.3-0.1c0.1,0,0.1-0.1,0.1-0.2
			c0,0,0-0.1,0-0.1c0,0-0.1-0.1-0.1-0.1c0,0-0.1,0-0.3,0h-0.3V88.1z"/>
	</g>
	<g>
		<path class="st4" d="M97.8,54.4c1.7-2.3,2.5-5.5,2.5-9.7V33.4c0-1.9,0.1-3.2,0.4-3.8c0.3-0.6,0.8-1.2,1.7-1.5
			c0.4-0.2,0.6-0.4,0.6-0.7c0-0.3-0.2-0.5-0.6-0.5c-0.1,0-0.5,0-1,0.1c-0.4,0-1.4,0.1-3.1,0.1c-0.8,0-1.5,0-2-0.1
			c-0.7-0.1-1.1-0.2-1.5-0.2c-0.2,0-0.3,0-0.4,0.1c-0.1,0.1-0.2,0.3-0.2,0.5c0,0.3,0.1,0.6,0.8,0.6c1.3,0.1,2.2,0.6,2.7,1.4
			c0.5,0.8,0.8,2.2,0.8,4.1v11.8c0,3.9-0.9,6.9-2.7,8.9C94,56,91.3,57,87.7,57c-4,0-6.9-1.2-8.5-3.5c-1.2-1.6-1.8-4.4-1.8-8.3V33.7
			l0-1.5c0-1.4,0.1-2.5,0.4-3c0.3-0.5,0.8-0.9,1.7-1.1c0.6-0.1,0.8-0.3,0.8-0.7c0-0.2-0.1-0.5-0.7-0.5c-0.2,0-0.6,0-1.2,0.1
			c-0.7,0.1-1.1,0.1-1.3,0.1h-1.7l-1.8,0c-0.3,0-0.8,0-1.5-0.1c-0.7,0-1.2,0-1.6,0c-0.8,0-1,0.4-1,0.7c0,0.2,0.1,0.5,0.7,0.6
			c1.3,0.2,2.2,0.6,2.6,1.2c0.4,0.6,0.6,1.7,0.6,3.3l0,1.3v11.6c0,3.2,0.6,5.8,1.6,7.8c1,1.7,2.5,3.1,4.6,4.1c2.1,1,4.4,1.5,7,1.5
			c2.2,0,4.4-0.4,6.3-1.3C95.2,57,96.7,55.8,97.8,54.4"/>
		<path class="st4" d="M116,29.7c0.7,0,0.9,0.1,1,0.2c0.1,0.1,0.2,0.3,0.2,1l0,0.6v22.6c0,1.2-0.2,2.1-0.6,2.6
			c-0.4,0.5-1.2,0.8-2.3,0.9c-0.6,0.1-0.9,0.3-0.9,0.6c0,0.2,0.1,0.6,0.8,0.6c0.2,0,0.7,0,1.5-0.1c0.4,0,1-0.1,1.6-0.1l1.8,0l1.7,0
			c1.1,0,1.8,0,2,0.1c0.6,0.1,0.9,0.1,1.1,0.1c0.7,0,0.8-0.4,0.8-0.6c0-0.3-0.3-0.6-0.9-0.7c-1.9-0.3-2.8-1.3-2.9-3l0-0.9V31.2
			c0-0.9,0.1-1.2,0.2-1.2c0.1-0.1,0.3-0.2,1.2-0.2h6.4c1.2,0,2.1,0.2,2.5,0.5h0c0.4,0.3,0.7,1,0.9,2c0.1,0.6,0.3,0.8,0.7,0.8
			c0.3,0,0.6-0.2,0.6-0.9c0-0.2-0.1-0.6-0.1-1.1c-0.1-0.4-0.1-1-0.1-1.9c0-1.3-0.2-1.6-0.3-1.7c-0.2-0.2-0.7-0.3-1.6-0.3h-24.6
			c-0.6,0-0.9,0.1-1.1,0.4c-0.2,0.2-0.3,0.7-0.3,1.5c0,0.7-0.1,1.6-0.3,2.7c-0.2,0.9-0.3,1.4-0.3,1.8c0,0.6,0.3,0.7,0.5,0.8
			c0.5,0,0.7-0.7,0.8-1c0.3-1.3,0.7-2.2,1.2-2.7c0.5-0.5,1.4-0.7,2.6-0.7H116z"/>
		<path class="st4" d="M168.5,58.7c0.4,0,0.8-0.1,1.1-0.1l1.7,0l1.7,0c1.1,0,1.9,0,2.3,0.1c1,0.2,1.6,0.2,1.9-0.1
			c0.1-0.1,0.2-0.3,0.1-0.5c0-0.3-0.3-0.5-0.9-0.6c-1.2-0.1-2.1-0.5-2.5-1.1c-0.4-0.6-0.7-1.7-0.7-3.3V31.1c0-0.7,0.2-1.4,0.5-1.9
			c0.3-0.5,0.7-0.9,1.1-0.9l0.9-0.2c0.5-0.1,0.7-0.4,0.7-0.6c0-0.2-0.1-0.6-0.7-0.6c-0.2,0-0.4,0-0.9,0.1c-0.6,0.1-1.8,0.1-3.4,0.1
			c-1.1,0-2.2-0.1-3.2-0.2c-0.7-0.1-1.2-0.1-1.6-0.1c-0.6,0-0.7,0.3-0.7,0.5c0,0.2,0.1,0.6,0.8,0.7c1,0.2,1.8,0.7,2.1,1.3
			c0.4,0.6,0.6,1.7,0.6,3.3v7.8c0,0.4-0.1,0.6-0.2,0.7c-0.1,0.1-0.4,0.2-1.2,0.2h-13.5c-1.2,0-1.5-0.1-1.6-0.2v0
			c-0.1-0.1-0.2-0.4-0.2-1.5v-8.2c0-1.1,0.2-1.9,0.5-2.3c0.3-0.5,1-0.8,2-1.1c0.5-0.1,0.7-0.3,0.7-0.7c0-0.2-0.1-0.6-0.8-0.6
			c-0.2,0-0.6,0-1,0.1c-0.9,0.1-1.9,0.2-3,0.2c-1.6,0-3-0.1-4.2-0.2c-0.6-0.1-1.1-0.1-1.4-0.1c-0.3,0-0.5,0-0.6,0.2
			c-0.1,0.1-0.2,0.2-0.2,0.4c0,0.2,0.1,0.5,0.8,0.6c1.3,0.2,2.1,0.6,2.6,1.1c0.5,0.6,0.7,1.5,0.7,2.8v19.6c0,2.1-0.1,3.6-0.4,4.4
			c-0.2,0.8-0.6,1.3-1.3,1.4l-1.1,0.3c-0.6,0.1-0.7,0.4-0.7,0.7c0,0.2,0.1,0.6,0.7,0.6c0.2,0,0.6,0,1.4-0.1c0.6,0,1.1-0.1,1.4-0.1
			l1.5-0.1l1.9,0c1.4,0,2.3,0,2.7,0.1c0.6,0.1,0.9,0.1,1.1,0.1c0.3,0,0.5-0.1,0.7-0.2c0.1-0.1,0.1-0.2,0.1-0.4c0-0.4-0.4-0.6-1-0.7
			c-1.3-0.1-2.2-0.5-2.7-1.1c-0.5-0.6-0.7-1.7-0.7-3.2v-8.4c0-0.8,0.1-1.1,0.3-1.2c0.1-0.1,0.5-0.2,1.5-0.2H168c1,0,1.2,0.1,1.3,0.1
			c0,0,0.2,0.2,0.2,1.1v8.4l0,0.9c0,2.3-0.7,3.5-2.3,3.8c-0.6,0.1-0.9,0.3-0.9,0.6c0,0.2,0,0.3,0.1,0.4c0.1,0.1,0.3,0.2,0.5,0.2
			c0,0,0,0,0.1,0C167,58.8,167.5,58.8,168.5,58.7"/>
		<path class="st4" d="M235.8,56.1l-0.2,0.1l-1.2,0.6c-0.6,0.3-1.4,0.5-2.3,0.5c-1.1,0-2-0.3-2.6-0.9c-0.4-0.4-0.6-1.4-0.6-2.8V42.1
			h5.3c0.6,0,0.9-0.3,1.1-0.8l0.5-1.3c0.2-0.4,0.2-0.6,0.2-0.6c0-0.2,0-0.3-0.1-0.3c-0.1-0.1-0.2-0.1-0.3-0.1
			c-0.1,0-0.3,0.1-0.6,0.3c-0.3,0.2-0.8,0.3-1.5,0.3h-4.7l0.1-3.8c0-0.6-0.3-0.7-0.5-0.7c-0.2,0-0.4,0.1-1,1.1
			c-0.9,1.5-2.3,3-4.1,4.5c-0.4,0.4-0.6,0.7-0.6,0.9c0,0.2,0.1,0.5,0.7,0.5h1.9v11.4c0,3.7,1.8,5.6,5.4,5.6c1,0,2.2-0.3,3.4-0.9
			c1.3-0.6,1.9-1.2,1.9-1.7C236.2,56.2,236,56.1,235.8,56.1"/>
		<path class="st4" d="M184.8,40.3c1.2,0,2.2,0.5,3.2,1.5c1,1,1.5,2.1,1.5,3.2c0,0.5-0.9,0.6-1.7,0.6h-7.6c0.2-1.6,0.7-2.9,1.5-3.8
			v0C182.6,40.8,183.6,40.3,184.8,40.3 M193.2,54.2c-0.1,0-0.3,0.1-0.4,0.2c-1.9,1.5-3.7,2.2-5.3,2.2c-2,0-3.8-0.9-5.2-2.6
			c-1.4-1.7-2.1-3.9-2.1-6.5l0-0.4h8.5l1.6,0l1.7,0c1.1,0,1.6-0.3,1.6-0.9c0-0.4-0.2-1-0.6-1.9c-0.4-0.9-0.8-1.6-1.1-2.1
			c-1.5-2.1-3.6-3.2-6.2-3.2c-2.4,0-4.4,1-6.2,3c-1.7,2-2.6,4.4-2.6,7c0,2.8,0.9,5.2,2.6,7.1c1.7,1.9,3.8,2.9,6.3,2.9
			c2.2,0,4.4-0.8,6.4-2.3c1.1-0.9,1.7-1.5,1.7-2c0-0.2,0-0.3-0.1-0.4C193.5,54.2,193.4,54.2,193.2,54.2"/>
		<path class="st4" d="M222.5,57.4c-1.5-0.2-2.4-0.7-2.7-1.4c-0.3-0.6-0.4-1.6-0.4-2.8V26.3l0-0.7v0c0-0.6-0.1-0.9-0.2-1.1
			c-0.1-0.1-0.1-0.1-0.2-0.1c-0.2,0-0.3,0.1-0.6,0.2c-0.4,0.3-1.1,0.7-2.2,1.1l-1.4,0.6c-0.4,0.2-0.9,0.3-1.4,0.4
			c-0.5,0.1-0.7,0.3-0.7,0.6c0,0.2,0.1,0.4,0.4,0.5c0.1,0,0.3,0.1,0.4,0.1h0l1.1,0c0.9,0,1.3,0.6,1.3,2v25.3c0,0.7-0.1,1.2-0.3,1.5
			c-0.2,0.3-0.7,0.5-1.3,0.7c-0.5,0.1-0.8,0.4-0.7,0.7c0,0.2,0.1,0.6,0.8,0.6c0.1,0,0.2,0,0.9-0.1c0.3,0,1.2-0.1,2.7-0.1l3.2,0
			c0.4,0,0.8,0,1,0.1c0.3,0.1,0.5,0.1,0.6,0.1c0.2,0,0.4-0.1,0.5-0.2c0.1-0.1,0.2-0.3,0.2-0.5C223.3,57.6,223,57.4,222.5,57.4"/>
		<path class="st4" d="M200.9,50.9c1.2-0.8,3-1.3,5.2-1.6v4.4c0,1.1-0.3,1.9-0.7,2.4c-0.8,0.8-1.9,1.2-3.1,1.2c-1,0-1.8-0.3-2.4-0.9
			c-0.6-0.6-0.9-1.4-0.9-2.4C199,52.8,199.6,51.8,200.9,50.9 M212.7,57c-0.1,0-0.3,0-0.6,0.1c-0.1,0-0.3,0-0.5,0
			c-0.8,0-1.3-0.3-1.6-0.8c-0.3-0.6-0.5-1.6-0.5-2.9v-8.9c0-1.7-0.6-3.1-1.8-4c-1.2-0.9-2.8-1.4-4.9-1.4c-2.3,0-4.2,0.8-5.6,2.2
			c-1,1.1-1.6,2.2-1.6,3.1c0,0.4,0.3,0.8,0.9,1.1c0.6,0.3,1.3,0.5,2,0.5c0.2,0,0.4-0.1,0.5-0.2c0.1-0.1,0.1-0.2,0.1-0.4
			c0-0.2-0.1-0.5-0.2-0.8c-0.2-0.6-0.3-1.2-0.3-1.7c0-1.6,0.9-2.4,2.9-2.4c1.4,0,2.6,0.4,3.5,1.3c0.6,0.6,0.9,1.8,0.9,3.5v2.7
			c-3.7,0.6-6.4,1.4-8,2.3c-1.6,1-2.5,2.4-2.5,4.2c0,1.3,0.4,2.4,1.3,3.2c0.9,0.8,2,1.2,3.5,1.2c1.9,0,3.9-0.8,6.1-2.4
			c1,1.5,2.2,2.3,3.4,2.3c0.7,0,1.4-0.1,2.1-0.4c0.8-0.3,1.1-0.6,1.2-1c0-0.1,0-0.3-0.1-0.4C213,57.1,212.9,57,212.7,57"/>
		<path class="st4" d="M259,57.6c-1.2-0.2-2-0.5-2.3-0.9c-0.4-0.4-0.5-1.2-0.5-2.3v-7.2c0-2.4-0.7-4.4-2-5.9
			c-1.4-1.5-3.1-2.3-5.3-2.3c-2.2,0-4.3,1.1-6.3,3.4V27.2c0-0.5,0-0.9,0-1.1c0-0.3,0-0.5,0-0.6c0-0.6-0.3-0.6-0.5-0.6
			c-0.2,0-0.3,0.1-0.5,0.2l-1.8,0.8c-1.2,0.6-2.2,1-3.2,1.2c-0.4,0.1-0.6,0.3-0.6,0.6c0,0.2,0.1,0.4,0.2,0.4
			c0.1,0.1,0.2,0.1,0.4,0.1h0l1.2-0.1c0.3,0,0.6,0.1,0.8,0.3c0.4,0.4,0.6,1.1,0.6,2.3v23.7c0,1.6-0.2,2.2-0.3,2.4
			c-0.2,0.3-0.7,0.6-1.6,0.9c-0.5,0.2-0.6,0.5-0.6,0.7c0,0.2,0.1,0.5,0.7,0.5c0.2,0,0.5,0,1.1-0.1c1.1-0.1,2-0.1,2.6-0.1
			c1.8,0,2.9,0,3.5,0.1c0.7,0.1,1.1,0.1,1.3,0.1c0.6,0,0.6-0.3,0.6-0.5c0-0.4-0.3-0.6-0.9-0.7c-1.3-0.2-2.1-0.5-2.5-0.9
			c-0.3-0.4-0.5-1.4-0.5-2.9V45c0-0.9,0.5-1.8,1.5-2.6c1-0.8,2.1-1.2,3.4-1.2c1.6,0,2.9,0.6,3.9,1.6c1,1.1,1.4,2.6,1.4,4.5v7.6
			l0,0.7c0,0.8-0.1,1.1-0.2,1.3c-0.1,0.1-0.4,0.4-1.4,0.7c-0.4,0.2-0.6,0.4-0.5,0.6c0,0.2,0.1,0.6,0.8,0.6c0.1,0,0.3,0,0.7-0.1
			c0.6-0.1,1.6-0.1,2.9-0.1c0.8,0,1.8,0,2.9,0.1c0.6,0,0.9,0.1,1.1,0.1c0.7,0,0.8-0.3,0.8-0.6C259.7,58,259.6,57.7,259,57.6"/>
		<path class="st4" d="M78.9,76.5c-1.4-0.5-2.3-0.8-2.6-1c-0.4-0.2-0.7-0.5-1-0.8c-0.3-0.4-0.5-1-0.5-1.6c0-0.7,0.3-1.3,0.8-1.7
			c0.5-0.5,1.2-0.7,2-0.7c1,0,1.9,0.3,2.7,0.8c0.8,0.5,1.3,1.2,1.6,2c0.1,0.4,0.3,0.6,0.4,0.6c0.1,0,0.3-0.1,0.3-0.4
			c0-0.1,0-0.2-0.1-0.5L82.3,72c-0.1-0.6-0.1-1-0.1-1.1c0-0.3,0-0.4-0.1-0.5c0,0-0.1-0.1-0.2-0.1c-0.1,0-0.1,0-0.2,0.1l-0.2,0.1
			c-0.1,0.1-0.3,0.1-0.4,0.1l-0.8-0.3c-0.6-0.2-1.2-0.4-2-0.4c-1.4,0-2.6,0.4-3.5,1.1c-0.9,0.8-1.4,1.8-1.4,3c0,1.1,0.4,2,1,2.7
			c0.7,0.7,1.9,1.3,3.5,1.9c1.6,0.5,2.5,0.9,2.9,1.2c0.6,0.6,1,1.2,1,2c0,0.8-0.4,1.6-1,2.2c-0.7,0.6-1.6,0.9-2.6,0.9
			c-1,0-1.9-0.3-2.8-0.9c-0.8-0.6-1.4-1.4-1.7-2.3c-0.1-0.4-0.3-0.6-0.4-0.6c-0.1,0-0.1,0-0.2,0.1c-0.1,0.1-0.1,0.2-0.1,0.3
			c0,0.3,0.1,0.8,0.3,1.4c0.2,0.6,0.3,1,0.3,1c0.1,0.4,0.2,0.7,0.2,0.8c0,0.1,0.1,0.2,0.3,0.3c0.3,0.2,0.8,0.4,1.5,0.6
			c0.7,0.2,1.3,0.2,1.9,0.2c1.6,0,2.9-0.4,3.9-1.3c1-0.9,1.5-2,1.5-3.4C83.1,78.9,81.7,77.4,78.9,76.5"/>
		<path class="st4" d="M87.1,81.8c0.6-0.4,1.5-0.7,2.6-0.8v2.1c0,0.5-0.1,0.9-0.4,1.2c-0.4,0.4-0.9,0.6-1.5,0.6
			c-0.5,0-0.9-0.1-1.2-0.4c-0.3-0.3-0.4-0.7-0.4-1.2C86.2,82.7,86.5,82.2,87.1,81.8 M92.9,84.8c0,0-0.1,0-0.3,0c-0.1,0-0.1,0-0.3,0
			c-0.4,0-0.6-0.1-0.8-0.4c-0.2-0.3-0.2-0.8-0.2-1.4v-4.4c0-0.8-0.3-1.5-0.9-1.9c-0.6-0.5-1.4-0.7-2.4-0.7c-1.1,0-2,0.4-2.7,1.1
			c-0.5,0.5-0.8,1.1-0.8,1.5c0,0.2,0.2,0.4,0.5,0.5c0.3,0.2,0.6,0.2,1,0.2c0.1,0,0.2,0,0.2-0.1c0,0,0.1-0.1,0.1-0.2
			c0-0.1,0-0.2-0.1-0.4c-0.1-0.3-0.1-0.6-0.1-0.8c0-0.8,0.5-1.2,1.4-1.2c0.7,0,1.3,0.2,1.7,0.6c0.3,0.3,0.5,0.9,0.5,1.7v1.3
			c-1.8,0.3-3.1,0.7-3.9,1.1c-0.8,0.5-1.2,1.2-1.2,2c0,0.6,0.2,1.2,0.6,1.6c0.4,0.4,1,0.6,1.7,0.6c0.9,0,1.9-0.4,3-1.2
			c0.5,0.7,1.1,1.1,1.7,1.1c0.3,0,0.7-0.1,1-0.2c0.4-0.1,0.6-0.3,0.6-0.5c0-0.1,0-0.1-0.1-0.2C93.1,84.8,93,84.8,92.9,84.8"/>
		<path class="st4" d="M105.1,85l-0.5-0.1c-0.5-0.1-0.8-0.3-0.9-0.8l0-0.5l0-0.3v-2.7c0-1.4-0.2-2.4-0.7-3.1c-0.7-1-1.7-1.5-2.9-1.5
			c-1,0-2.1,0.6-3,1.7v-1.1c0-0.2,0-0.3,0-0.4c0-0.2,0-0.3-0.1-0.3c-0.1-0.1-0.3-0.1-0.5,0c-0.1,0-0.2,0.1-0.4,0.2l-0.6,0.3
			c-0.5,0.2-0.9,0.4-1.4,0.5c-0.2,0-0.3,0.1-0.3,0.3c0,0.1,0,0.2,0.1,0.2c0.1,0,0.1,0.1,0.2,0.1l0.5,0c0.3,0,0.5,0.1,0.7,0.3
			c0.1,0.2,0.2,0.5,0.2,1v5c0,0.4-0.1,0.7-0.2,0.9c-0.1,0.2-0.4,0.3-0.7,0.5c-0.2,0.1-0.2,0.2-0.2,0.3c0,0.1,0,0.1,0.1,0.2
			c0,0,0.1,0.1,0.2,0.1c0.1,0,0.2,0,0.5,0c0.2,0,0.9-0.1,2.1-0.1c0.6,0,0.9,0,1,0c0.3,0,0.4,0.1,0.6,0.1c0.3,0,0.3-0.2,0.3-0.3
			c0-0.2-0.1-0.3-0.4-0.3c-1-0.1-1.5-0.4-1.5-1l0-0.9v-4.2c0-0.4,0.2-0.8,0.7-1.2c0.5-0.4,1-0.5,1.6-0.5c0.9,0,1.5,0.3,2,0.8
			c0.5,0.5,0.7,1.3,0.7,2.3v3.8c0,0.4-0.1,0.7-0.4,0.7l-0.3,0.1c-0.2,0-0.2,0.2-0.2,0.3c0,0.1,0.1,0.2,0.1,0.2l0.2,0l0.3,0h0.4
			l1.1,0c0.7,0,1.1,0,1.3,0.1c0.2,0,0.4,0,0.4,0c0.2,0,0.3,0,0.4-0.1c0,0,0.1-0.1,0.1-0.2C105.4,85.1,105.3,85,105.1,85"/>
		<path class="st4" d="M171.2,85l-0.5-0.1c-0.4,0-0.6-0.2-0.7-0.3c-0.1-0.2-0.2-0.5-0.2-1v-7.5c0-0.3-0.1-0.3-0.2-0.3l0,0l-0.6,0.3
			c-0.6,0.3-1.2,0.6-1.6,0.7c-0.4,0.1-0.6,0.2-0.6,0.4c0,0,0,0.1,0,0.1c0.1,0.1,0.2,0.1,0.4,0.1c0.4,0,0.6,0.1,0.7,0.3
			c0.1,0.2,0.2,0.6,0.2,1.2v4.8c0,0.4,0,0.8-0.1,0.9c-0.1,0.2-0.2,0.3-0.5,0.4l-0.2,0.1c-0.2,0.1-0.2,0.2-0.2,0.3
			c0,0.1,0.1,0.3,0.4,0.3c0.1,0,0.2,0,0.4,0c0.1,0,0.2,0,0.3,0l0.8,0l0.7,0c0.3,0,0.6,0,0.8,0c0.4,0,0.6,0.1,0.7,0.1
			c0.3,0,0.4-0.1,0.4-0.2C171.7,85.2,171.5,85.1,171.2,85"/>
		<path class="st4" d="M165.8,85l-0.5-0.1c-0.5-0.1-0.8-0.3-0.9-0.8l0-0.5l0-0.3v-2.7c0-1.4-0.2-2.4-0.7-3.1c-0.7-1-1.7-1.5-2.9-1.5
			c-1,0-2.1,0.6-3,1.7v-1.1c0-0.2,0-0.3,0-0.4c0-0.2,0-0.3-0.1-0.3c-0.1-0.1-0.3-0.1-0.5,0c-0.1,0-0.2,0.1-0.4,0.2l-0.6,0.3
			c-0.5,0.2-0.9,0.4-1.4,0.5c-0.2,0-0.3,0.1-0.3,0.3c0,0.1,0,0.2,0.1,0.2c0.1,0,0.1,0.1,0.2,0.1l0.5,0c0.3,0,0.5,0.1,0.7,0.3
			c0.1,0.2,0.2,0.5,0.2,1v5c0,0.4-0.1,0.7-0.2,0.9c-0.1,0.2-0.4,0.3-0.7,0.5c-0.2,0.1-0.2,0.2-0.2,0.3c0,0.1,0,0.1,0.1,0.2
			c0,0,0.1,0.1,0.2,0.1c0.1,0,0.2,0,0.5,0c0.2,0,0.9-0.1,2.1-0.1c0.6,0,0.9,0,1,0c0.3,0,0.4,0.1,0.6,0.1c0.3,0,0.3-0.2,0.3-0.3
			c0-0.2-0.1-0.3-0.4-0.3c-1-0.1-1.5-0.4-1.5-1l0-0.9v-4.2c0-0.4,0.2-0.9,0.7-1.2c0.5-0.4,1-0.5,1.6-0.5c0.9,0,1.5,0.3,2,0.8
			c0.5,0.5,0.7,1.3,0.7,2.3v3.8c0,0.4-0.1,0.7-0.4,0.7L162,85c-0.2,0-0.2,0.2-0.2,0.3c0,0.1,0.1,0.2,0.1,0.2l0.2,0l0.3,0h0.4l1.1,0
			c0.7,0,1.1,0,1.3,0.1c0.2,0,0.4,0,0.4,0c0.2,0,0.3,0,0.4-0.1c0,0,0.1-0.1,0.1-0.2C166.1,85.1,166,85,165.8,85"/>
		<path class="st4" d="M151.8,81.5c0,1.1-0.3,2.1-0.8,2.7c-0.5,0.7-1.2,1-2.1,1c-1,0-1.9-0.5-2.6-1.4c-0.7-0.9-1-2.1-1-3.5
			c0-1.1,0.3-2,0.8-2.7c0.6-0.7,1.3-1,2.2-1c1,0,1.9,0.5,2.5,1.4C151.5,78.9,151.8,80,151.8,81.5 M148.6,76c-1.4,0-2.6,0.5-3.5,1.4
			c-1,1-1.5,2.1-1.5,3.5c0,1.4,0.5,2.6,1.4,3.5c0.9,0.9,2.1,1.4,3.5,1.4c1.4,0,2.7-0.5,3.6-1.4c0.9-0.9,1.4-2.1,1.4-3.5
			c0-1.3-0.5-2.4-1.5-3.4C151.1,76.5,149.9,76,148.6,76"/>
		<path class="st4" d="M169.1,71.4c-0.2,0-0.4,0.2-0.7,0.5c-0.3,0.3-0.4,0.6-0.4,0.8c0,0.2,0.1,0.4,0.4,0.7c0.3,0.3,0.5,0.5,0.6,0.5
			c0.2,0,0.4-0.2,0.7-0.5c0.3-0.3,0.4-0.6,0.4-0.8c0-0.1,0-0.2-0.1-0.3l-0.3-0.4C169.5,71.6,169.3,71.4,169.1,71.4"/>
		<path class="st4" d="M118.6,78.3c0,0.1-0.2,0.2-0.5,0.2h-3.4l-0.3,0c-0.5,0-0.5-0.2-0.5-0.2c0,0,0-0.1,0.1-0.4l2.2-4.8
			c0.1-0.2,0.1-0.2,0.1-0.2c0,0,0.1,0.1,0.2,0.3l1.8,4.6l0.1,0.2l0,0C118.6,78.2,118.6,78.3,118.6,78.3 M124.7,85
			c-0.7-0.1-1.2-0.3-1.4-0.5c-0.2-0.2-0.5-0.8-0.9-1.7l-0.2-0.6L117.4,70c-0.1-0.2-0.2-0.4-0.4-0.4c-0.1,0-0.3,0.1-0.4,0.4L111,82.7
			l-0.3,0.7c-0.2,0.3-0.4,0.7-0.6,1c-0.3,0.4-0.5,0.5-0.6,0.5L109,85c-0.2,0-0.2,0.1-0.2,0.3c0,0.1,0,0.3,0.4,0.3c0,0,0.1,0,0.6-0.1
			c0.1,0,0.3,0,0.5,0c0.5,0,0.9,0,1.2,0l1.1,0.1c0.2,0,0.3,0,0.4,0c0.2,0,0.3,0,0.3-0.1c0,0,0.1-0.1,0.1-0.2c0-0.2-0.1-0.3-0.4-0.3
			c-0.5-0.1-0.8-0.2-1-0.4c-0.2-0.1-0.2-0.4-0.2-0.7c0-0.4,0.2-0.9,0.5-1.6l0.7-1.6c0.3-0.6,0.4-0.8,0.5-0.9c0.1-0.1,0.3-0.1,1-0.1
			h4c0.5,0,0.7,0.1,0.7,0.1c0.1,0,0.2,0.2,0.3,0.7l0.6,1.5c0.4,1.2,0.7,1.9,0.7,2.3c0,0.4-0.2,0.6-0.5,0.7l-0.3,0.1
			c-0.3,0.1-0.3,0.2-0.3,0.3c0,0.1,0,0.3,0.3,0.3c0.1,0,0.2,0,0.4,0c0.3,0,0.9-0.1,1.9-0.1c1,0,1.7,0,2.1,0.1c0.2,0,0.4,0,0.4,0
			c0.3,0,0.4-0.1,0.4-0.2C125.1,85.2,124.9,85,124.7,85"/>
		<path class="st4" d="M180.5,81.5c0,1.1-0.3,2.1-0.8,2.7c-0.5,0.7-1.2,1-2.1,1c-1,0-1.9-0.5-2.6-1.4c-0.7-0.9-1-2.1-1-3.5
			c0-1.1,0.3-2,0.8-2.7c0.6-0.7,1.3-1,2.2-1c1,0,1.9,0.5,2.5,1.4C180.1,78.9,180.5,80,180.5,81.5 M177.2,76c-1.4,0-2.6,0.5-3.5,1.4
			c-1,1-1.5,2.1-1.5,3.5c0,1.4,0.5,2.6,1.4,3.5c0.9,0.9,2.1,1.4,3.5,1.4c1.4,0,2.7-0.5,3.6-1.4c0.9-0.9,1.4-2.1,1.4-3.5
			c0-1.3-0.5-2.4-1.5-3.4C179.8,76.5,178.6,76,177.2,76"/>
		<path class="st4" d="M136.2,85l-0.5-0.1c-0.5-0.1-0.8-0.3-0.9-0.8l0-0.5l0-0.3v-2.7c0-1.4-0.2-2.4-0.7-3.1c-0.7-1-1.7-1.5-2.9-1.5
			c-1,0-2.1,0.6-3,1.7v-1.1c0-0.2,0-0.3,0-0.4c0-0.2,0-0.3-0.1-0.3c-0.1-0.1-0.3-0.1-0.5,0c-0.1,0-0.2,0.1-0.4,0.2l-0.6,0.3
			c-0.5,0.2-0.9,0.4-1.4,0.5c-0.2,0-0.3,0.1-0.3,0.3c0,0.1,0,0.2,0.1,0.2c0.1,0,0.1,0.1,0.2,0.1l0.5,0c0.3,0,0.5,0.1,0.7,0.3
			c0.1,0.2,0.2,0.5,0.2,1v5c0,0.4-0.1,0.7-0.2,0.9c-0.1,0.2-0.4,0.3-0.7,0.5c-0.2,0.1-0.2,0.2-0.2,0.3c0,0.1,0,0.1,0.1,0.2
			c0,0,0.1,0.1,0.2,0.1c0.1,0,0.2,0,0.5,0c0.2,0,0.9-0.1,2.1-0.1c0.6,0,0.9,0,1,0c0.3,0,0.4,0.1,0.6,0.1c0.3,0,0.3-0.2,0.3-0.3
			c0-0.2-0.1-0.3-0.4-0.3c-1-0.1-1.5-0.4-1.5-1l0-0.9v-4.2c0-0.4,0.2-0.9,0.7-1.2c0.5-0.4,1-0.5,1.6-0.5c0.9,0,1.5,0.3,2,0.8
			c0.5,0.5,0.7,1.3,0.7,2.3v3.8c0,0.4-0.1,0.7-0.4,0.7l-0.3,0.1c-0.2,0-0.2,0.2-0.2,0.3c0,0.1,0,0.2,0.1,0.2l0.2,0l0.3,0h0.4l1.1,0
			c0.7,0,1.1,0,1.3,0.1c0.2,0,0.4,0,0.4,0c0.2,0,0.3,0,0.4-0.1c0,0,0.1-0.1,0.1-0.2C136.6,85.1,136.4,85,136.2,85"/>
		<path class="st4" d="M143.2,84.3L143.2,84.3l-0.7,0.3c-0.3,0.2-0.7,0.2-1.1,0.2c-0.5,0-1-0.2-1.3-0.5c-0.2-0.2-0.3-0.7-0.3-1.4
			v-5.5h2.6c0.3,0,0.5-0.1,0.5-0.4l0.3-0.6c0.1-0.2,0.1-0.3,0.1-0.3c0-0.1,0-0.1,0-0.2c0,0-0.1,0-0.1,0c-0.1,0-0.2,0.1-0.3,0.1
			c-0.2,0.1-0.4,0.2-0.7,0.2h-2.3l0-1.9c0-0.3-0.1-0.3-0.2-0.3c-0.1,0-0.2,0.1-0.5,0.5c-0.5,0.7-1.1,1.5-2,2.2
			c-0.2,0.2-0.3,0.3-0.3,0.4c0,0.1,0.1,0.2,0.3,0.2h0.9V83c0,1.8,0.9,2.7,2.6,2.7c0.5,0,1.1-0.1,1.7-0.4c0.6-0.3,0.9-0.6,0.9-0.8
			C143.4,84.4,143.3,84.3,143.2,84.3"/>
	</g>
	<g>
		<line class="st5" x1="73.6" y1="94.2" x2="256.1" y2="94.2"/>
	</g>
	<g>
		<g>
			<g>
				<path class="st6" d="M73.3,114.6c-0.1-0.4,0-0.7,0.2-0.7c0.3,0,0.3,0.3,0.4,0.7c0.3,1,1.5,3.2,4.5,3.2c2,0,4-1.1,4-3.4
					c0-4.1-8.7-1.8-8.7-7.4c0-2.7,2.3-4,4.8-4c2.6,0,3.3,0.8,3.6,0.8c0.2,0,0.2-0.2,0.5-0.2c0.1,0,0.2,0.1,0.3,0.3l0.3,2.9
					c0,0.2,0,0.3-0.2,0.3c-0.2,0-0.4-0.5-0.5-0.6c-0.6-1.8-2.2-2.8-4.1-2.8c-1.7,0-3.5,0.8-3.5,2.8c0,4,8.7,1.7,8.7,7.6
					c0,1.8-1.3,4.5-6.1,4.5c-1.6,0-3.5-0.8-3.6-1.2L73.3,114.6z"/>
				<path class="st6" d="M77.5,118.6c-1.6,0-3.6-0.8-3.7-1.2l-0.5-2.8c-0.1-0.3,0-0.5,0.1-0.6c0.1-0.1,0.1-0.1,0.2-0.1
					c0.3,0,0.4,0.2,0.4,0.6c0,0.1,0,0.1,0,0.2c0.2,0.9,1.5,3.2,4.5,3.2c1.9,0,4-1,4-3.3c0-1.9-1.9-2.4-3.8-3
					c-2.3-0.7-4.9-1.4-4.9-4.5c0-2.8,2.4-4.1,4.8-4.1c2,0,2.9,0.4,3.3,0.7c0.1,0.1,0.2,0.1,0.3,0.1c0.1,0,0.1,0,0.2-0.1
					c0.1-0.1,0.1-0.1,0.3-0.1c0.2,0,0.3,0.1,0.3,0.4l0.3,2.9c0,0.1,0,0.2-0.1,0.3c-0.1,0.1-0.1,0.1-0.2,0.1c-0.3,0-0.4-0.5-0.5-0.7
					c-0.6-1.7-2.1-2.8-4-2.8c-1.7,0-3.4,0.8-3.4,2.7c0,1.8,1.7,2.3,3.7,2.9c2.4,0.7,5,1.5,5,4.8C83.7,116.1,82,118.6,77.5,118.6z
					 M73.5,114c-0.1,0-0.1,0-0.1,0.1c-0.1,0.1-0.1,0.3,0,0.5l0,0l0.5,2.8c0.1,0.3,2,1.1,3.6,1.1c2.2,0,3.8-0.5,4.9-1.6
					c0.8-0.8,1.2-1.8,1.2-2.9c0-3.2-2.6-4-4.9-4.6c-1.9-0.6-3.8-1.1-3.8-3c0-2,1.8-2.9,3.6-2.9c2,0,3.5,1,4.2,2.8
					c0.1,0.2,0.2,0.6,0.4,0.6c0.1,0,0.1,0,0.1,0c0-0.1,0-0.1,0-0.2l-0.3-2.9c0-0.2-0.1-0.2-0.2-0.2c-0.1,0-0.1,0-0.2,0.1
					c-0.1,0.1-0.1,0.1-0.3,0.1c-0.1,0-0.2-0.1-0.4-0.1c-0.5-0.2-1.3-0.6-3.3-0.6c-3.3,0-4.7,2-4.7,4c0,3,2.4,3.7,4.8,4.3
					c2,0.6,3.9,1.1,3.9,3.1c0,1.1-0.4,2-1.3,2.6c-0.7,0.6-1.7,0.9-2.8,0.9c-1.3,0-2.4-0.4-3.3-1.3c-0.7-0.7-1.1-1.5-1.3-2
					c0-0.1,0-0.1,0-0.2C73.8,114.1,73.7,114,73.5,114z"/>
			</g>
			<g>
				<path class="st6" d="M84.6,114c0-2.7,2.1-4.9,4.8-4.9c1.1,0,2.5,0.3,2.6,0.8c0,0.5,0,1,0,1.3c0,0.3-0.1,0.5-0.2,0.5
					c-0.2,0-0.5-0.4-0.5-0.5c-0.7-1-1.7-1.3-2.7-1.3c-1.8,0-2.5,1.9-2.5,3.4c0,2.3,1.4,4.2,3.8,4.2c1.7,0,2.6-1.2,2.9-1.2
					c0.1,0,0.2,0.1,0.2,0.1c0,0.3-1.3,2.2-4.2,2.2C86.4,118.5,84.6,116.4,84.6,114z"/>
				<path class="st6" d="M88.9,118.6c-2.4,0-4.3-2.1-4.3-4.6c0-2.7,2.2-5,4.9-5c1.1,0,2.6,0.3,2.7,0.8c0,0.4,0,0.8,0,1.1
					c0,0.1,0,0.2,0,0.2c0,0.4-0.1,0.5-0.2,0.5c-0.2,0-0.4-0.3-0.5-0.5c0,0,0,0,0-0.1c-0.6-0.9-1.5-1.3-2.6-1.3
					c-1.7,0-2.5,1.8-2.5,3.4c0,2.1,1.2,4.2,3.7,4.2c1.1,0,2-0.6,2.4-1c0.2-0.2,0.4-0.3,0.5-0.3c0.1,0,0.2,0.1,0.2,0.2
					C93.2,116.7,91.9,118.6,88.9,118.6z M89.4,109.1c-2.6,0-4.8,2.2-4.8,4.8c0,2.5,1.9,4.5,4.2,4.5c2.9,0,4.2-1.8,4.2-2.1
					c0,0-0.1-0.1-0.1-0.1c-0.1,0-0.2,0.1-0.4,0.3c-0.5,0.4-1.3,1-2.5,1c-2.3,0-3.9-1.7-3.9-4.3c0-1.7,0.8-3.5,2.6-3.5
					c1.2,0,2,0.4,2.7,1.3c0,0,0,0,0,0.1c0.1,0.1,0.3,0.4,0.4,0.4c0.1,0,0.1-0.1,0.1-0.4c0-0.1,0-0.1,0-0.2c0-0.3,0-0.7,0-1
					C91.9,109.5,90.6,109.1,89.4,109.1z"/>
			</g>
			<g>
				<path class="st6" d="M96.1,110.6c0.8-0.8,1.9-1.5,3.1-1.5c2.8,0,3.6,2.4,3.6,4.2v3.6c0,1.1,1.7,0.7,1.7,1.2
					c0,0.2-0.2,0.3-0.4,0.3c-0.4,0-1-0.1-1.8-0.1c-0.8,0-1.5,0.1-1.8,0.1c-0.2,0-0.3-0.1-0.3-0.2c0-0.3,1.1-0.3,1.1-1.1v-3.9
					c0-2.7-1.8-3.2-2.6-3.2c-1,0-2.5,0.8-2.5,1.9v4.5c0,1.8,1.9,1.2,1.9,1.7c0,0.3-0.1,0.3-0.4,0.3c-0.5,0-1.5-0.1-2.2-0.1
					c-0.7,0-1.6,0.1-2,0.1c-0.2,0-0.2-0.1-0.2-0.2c0-0.4,1.3-0.2,1.3-1.2v-12.1c0-1.3-1.7-0.7-1.7-1.2c0-0.1,0.1-0.2,0.2-0.2
					c1.6-0.3,2.3-1.1,2.8-1.1c0.1,0,0.3,0.1,0.3,0.3V110.6z"/>
				<path class="st6" d="M104,118.4c-0.2,0-0.4,0-0.6,0c-0.3,0-0.7-0.1-1.2-0.1c-0.5,0-1,0-1.4,0.1c-0.2,0-0.3,0-0.4,0
					c-0.3,0-0.4-0.2-0.4-0.3c0-0.2,0.2-0.3,0.4-0.4c0.3-0.1,0.7-0.3,0.7-0.7v-3.9c0-3.1-2.4-3.1-2.5-3.1c-1,0-2.5,0.8-2.5,1.9v4.5
					c0,1.2,0.8,1.3,1.4,1.4c0.3,0,0.5,0.1,0.5,0.3c0,0.3-0.1,0.4-0.4,0.4c-0.2,0-0.5,0-0.9,0c-0.4,0-0.9,0-1.3,0
					c-0.4,0-0.9,0-1.3,0.1c-0.3,0-0.5,0-0.7,0c-0.2,0-0.3-0.1-0.3-0.3c0-0.2,0.2-0.3,0.5-0.4c0.4-0.1,0.8-0.3,0.8-0.9v-12.1
					c0-0.8-0.6-0.8-1.1-0.9c-0.3,0-0.6-0.1-0.6-0.3c0-0.2,0.1-0.3,0.2-0.3c0.9-0.2,1.5-0.5,2-0.8c0.3-0.2,0.6-0.3,0.8-0.3
					c0.2,0,0.3,0.2,0.3,0.4v7.8c1.1-1,2.1-1.4,3-1.4c1.3,0,2.2,0.5,2.9,1.5c0.7,1,0.8,2.2,0.8,2.8v3.6c0,0.6,0.6,0.7,1,0.8
					c0.3,0.1,0.7,0.1,0.7,0.4C104.5,118.4,104.2,118.4,104,118.4z M102.2,118.2c0.5,0,0.9,0,1.2,0.1c0.2,0,0.4,0,0.6,0
					c0.3,0,0.4-0.1,0.4-0.2c0-0.2-0.2-0.2-0.6-0.3c-0.5-0.1-1.1-0.2-1.1-0.9v-3.6c0-3.1-1.8-4.2-3.5-4.2c-1,0-2,0.5-3.1,1.5
					l-0.1,0.1v-8.1c0-0.2-0.1-0.3-0.2-0.3c-0.2,0-0.4,0.1-0.7,0.3c-0.5,0.3-1.1,0.6-2,0.8c-0.1,0-0.1,0.1-0.1,0.2
					c0,0.1,0.2,0.1,0.5,0.2c0.5,0.1,1.2,0.1,1.2,1v12.1c0,0.7-0.5,0.9-0.9,1c-0.2,0.1-0.4,0.1-0.4,0.3c0,0,0,0.2,0.2,0.2
					c0.1,0,0.4,0,0.7,0c0.4,0,0.9-0.1,1.3-0.1c0.4,0,0.9,0,1.3,0c0.4,0,0.7,0,0.9,0c0.3,0,0.3,0,0.3-0.2c0-0.1-0.2-0.1-0.4-0.1
					c-0.6-0.1-1.5-0.2-1.5-1.5v-4.5c0-1.1,1.6-2,2.6-2c0.1,0,2.7,0,2.7,3.2v3.9c0,0.5-0.4,0.7-0.7,0.9c-0.2,0.1-0.3,0.2-0.3,0.2
					c0,0.1,0,0.2,0.3,0.2c0.1,0,0.2,0,0.4,0C101.2,118.3,101.7,118.2,102.2,118.2z"/>
			</g>
			<g>
				<path class="st6" d="M104.4,114c0-2.6,2.1-4.9,4.8-4.9c1.6,0,4.7,0.8,4.7,4.8c0,2.6-2,4.7-4.6,4.7
					C106.4,118.5,104.4,116.9,104.4,114z M112.4,114.2c0-2.2-0.9-4.6-3.5-4.6c-2.1,0-3,1.8-3,3.7c0,2.1,1,4.9,3.5,4.9
					C111.2,118.1,112.4,116.9,112.4,114.2z"/>
				<path class="st6" d="M109.2,118.6c-3,0-4.9-1.8-4.9-4.6c0-2.7,2.2-5,4.9-5c0.8,0,4.7,0.2,4.7,4.9
					C113.9,116.6,111.9,118.6,109.2,118.6z M109.2,109.1c-2.6,0-4.7,2.2-4.7,4.8c0,2.7,1.9,4.5,4.8,4.5c2.6,0,4.6-2,4.6-4.6
					C113.8,109.4,110,109.1,109.2,109.1z M109.4,118.1c-2.4,0-3.6-2.5-3.6-4.9c0-1.7,0.8-3.7,3-3.7c1.2,0,2.1,0.5,2.8,1.5
					c0.5,0.8,0.8,1.9,0.8,3.2C112.4,116.7,111.4,118.1,109.4,118.1z M108.9,109.6c-2.1,0-2.9,1.9-2.9,3.6c0,1.2,0.3,2.3,0.8,3.2
					c0.4,0.7,1.2,1.6,2.6,1.6c1.9,0,2.9-1.3,2.9-3.8C112.3,110.8,110.5,109.6,108.9,109.6z"/>
			</g>
			<g>
				<path class="st6" d="M114.7,114c0-2.6,2.1-4.9,4.8-4.9c1.6,0,4.7,0.8,4.7,4.8c0,2.6-2,4.7-4.6,4.7
					C116.7,118.5,114.7,116.9,114.7,114z M122.6,114.2c0-2.2-0.9-4.6-3.5-4.6c-2.1,0-3,1.8-3,3.7c0,2.1,1,4.9,3.5,4.9
					C121.5,118.1,122.6,116.9,122.6,114.2z"/>
				<path class="st6" d="M119.5,118.6c-3,0-4.9-1.8-4.9-4.6c0-2.7,2.2-5,4.9-5c0.8,0,4.7,0.2,4.7,4.9
					C124.2,116.6,122.2,118.6,119.5,118.6z M119.5,109.1c-2.6,0-4.7,2.2-4.7,4.8c0,2.7,1.9,4.5,4.8,4.5c2.6,0,4.6-2,4.6-4.6
					C124.1,109.4,120.2,109.1,119.5,109.1z M119.7,118.1c-2.4,0-3.6-2.5-3.6-4.9c0-1.7,0.8-3.7,3-3.7c1.2,0,2.1,0.5,2.8,1.5
					c0.5,0.8,0.8,1.9,0.8,3.2C122.7,116.7,121.6,118.1,119.7,118.1z M119.2,109.6c-2.1,0-2.9,1.9-2.9,3.6c0,1.2,0.3,2.3,0.8,3.2
					c0.4,0.7,1.2,1.6,2.6,1.6c1.9,0,2.9-1.3,2.9-3.8C122.6,110.8,120.8,109.6,119.2,109.6z"/>
			</g>
			<g>
				<path class="st6" d="M127.6,116.6c0,1.5,1.8,0.9,1.8,1.4c0,0.3-0.2,0.3-0.5,0.3c-0.3,0-1-0.1-2-0.1c-1.1,0-1.5,0.1-1.7,0.1
					c-0.2,0-0.3-0.1-0.3-0.3c0-0.3,1.1-0.3,1.1-1.2v-12.1c0-1.3-1.5-0.7-1.5-1.2c0-0.1,0.1-0.2,0.2-0.2c1.7-0.4,2.1-1.1,2.6-1.1
					c0.1,0,0.3,0.1,0.3,0.3V116.6z"/>
				<path class="st6" d="M128.9,118.4c-0.1,0-0.3,0-0.5,0c-0.4,0-0.9-0.1-1.5-0.1c-0.7,0-1.1,0-1.4,0.1c-0.1,0-0.2,0-0.3,0
					c-0.1,0-0.3-0.1-0.3-0.3c0-0.2,0.2-0.2,0.4-0.3c0.3-0.1,0.7-0.3,0.7-0.9v-12.1c0-0.8-0.5-0.8-1-0.9c-0.3,0-0.5-0.1-0.5-0.3
					c0-0.1,0.1-0.3,0.2-0.3c1-0.2,1.5-0.5,1.9-0.8c0.3-0.2,0.5-0.3,0.7-0.3c0.2,0,0.3,0.2,0.3,0.4v14c0,0.9,0.6,1,1.1,1.1
					c0.3,0.1,0.6,0.1,0.6,0.4C129.4,118.4,129.2,118.4,128.9,118.4z M126.9,118.2c0.7,0,1.2,0,1.5,0.1c0.2,0,0.3,0,0.4,0
					c0.3,0,0.4-0.1,0.4-0.2c0-0.2-0.2-0.2-0.5-0.3c-0.5-0.1-1.2-0.2-1.2-1.2v-14c0-0.2-0.1-0.3-0.2-0.3c-0.2,0-0.4,0.1-0.6,0.3
					c-0.4,0.2-0.9,0.6-1.9,0.8c-0.1,0-0.1,0.1-0.1,0.2c0,0.1,0.1,0.1,0.4,0.2c0.4,0.1,1.1,0.1,1.1,1v12.1c0,0.6-0.5,0.8-0.8,1
					c-0.2,0.1-0.3,0.1-0.3,0.2c0,0.2,0.1,0.2,0.2,0.2c0.1,0,0.1,0,0.3,0C125.8,118.3,126.2,118.2,126.9,118.2z"/>
			</g>
			<g>
				<path class="st6" d="M134.9,114c0-2.6,2.1-4.9,4.8-4.9c1.6,0,4.7,0.8,4.7,4.8c0,2.6-2,4.7-4.6,4.7
					C136.9,118.5,134.9,116.9,134.9,114z M142.9,114.2c0-2.2-0.9-4.6-3.5-4.6c-2.1,0-3,1.8-3,3.7c0,2.1,1,4.9,3.5,4.9
					C141.7,118.1,142.9,116.9,142.9,114.2z"/>
				<path class="st6" d="M139.7,118.6c-3,0-4.9-1.8-4.9-4.6c0-2.7,2.2-5,4.9-5c0.8,0,4.7,0.2,4.7,4.9
					C144.4,116.6,142.4,118.6,139.7,118.6z M139.7,109.1c-2.6,0-4.7,2.2-4.7,4.8c0,2.7,1.9,4.5,4.8,4.5c2.6,0,4.6-2,4.6-4.6
					C144.3,109.4,140.5,109.1,139.7,109.1z M139.9,118.1c-2.4,0-3.6-2.5-3.6-4.9c0-1.7,0.8-3.7,3-3.7c1.2,0,2.1,0.5,2.8,1.5
					c0.5,0.8,0.8,1.9,0.8,3.2C142.9,116.7,141.9,118.1,139.9,118.1z M139.4,109.6c-2.1,0-2.9,1.9-2.9,3.6c0,1.2,0.3,2.3,0.8,3.2
					c0.4,0.7,1.2,1.6,2.6,1.6c1.9,0,2.9-1.3,2.9-3.8C142.8,110.8,141,109.6,139.4,109.6z"/>
			</g>
			<g>
				<path class="st6" d="M146.1,109.4c0-1.6,0.4-3.2,1.3-4.5c0.5-0.8,2-2.3,3.5-2.3c0.3,0,0.9,0.1,0.9,0.5c0,0.4-0.1,1.5-0.3,1.5
					c-0.3,0-0.1-0.9-1.5-0.9c-1.1,0-1.9,1.2-2.1,2.2c-0.2,1.1-0.2,2.4-0.2,3.5h1.7c0.5,0,0.8-0.4,0.8-0.4c0.1,0,0.2,0.1,0.2,0.2
					c0,0.1-0.1,0.2-0.1,0.3l-0.4,0.8h-2.1v6.5c0,1.4,1.5,0.9,1.5,1.3c0,0.3-0.3,0.2-0.5,0.2h-3.3c-0.1,0-0.3,0-0.3-0.1
					c0-0.5,1-0.2,1-1.2v-6.7h-1.5l0.1-0.9H146.1z"/>
				<path class="st6" d="M148.9,118.4c0,0-0.1,0-0.1,0c0,0-0.1,0-0.1,0h-3.3c0,0-0.1,0-0.1,0c-0.1,0-0.2,0-0.2-0.1
					c0,0-0.1-0.1-0.1-0.1c0-0.2,0.2-0.3,0.4-0.4c0.3-0.1,0.6-0.3,0.6-0.8v-6.6h-1.5l0.1-1h1.3c0-1.6,0.5-3.2,1.3-4.5
					c0.4-0.6,1.9-2.3,3.5-2.3c0.4,0,0.9,0.1,0.9,0.5c0,0,0,1.6-0.4,1.6c-0.1,0-0.2-0.1-0.3-0.3c-0.1-0.3-0.3-0.6-1.2-0.6
					c-1.1,0-1.8,1.1-2,2.2c-0.2,1-0.2,2-0.2,3c0,0.1,0,0.3,0,0.4h1.6c0.4,0,0.6-0.2,0.7-0.3c0.1,0,0.1-0.1,0.1-0.1
					c0.1,0,0.2,0.1,0.2,0.2c0,0.1-0.1,0.2-0.1,0.3l-0.4,0.8h-2.1v6.5c0,0.8,0.6,0.9,1,1c0.3,0.1,0.5,0.1,0.5,0.3
					c0,0.1,0,0.1-0.1,0.2C149.1,118.4,149,118.4,148.9,118.4z M145.4,118.2h3.3c0,0,0.1,0,0.1,0c0.1,0,0.2,0,0.3,0c0,0,0-0.1,0-0.1
					c0-0.1-0.2-0.2-0.4-0.2c-0.4-0.1-1.1-0.2-1.1-1.1v-6.6h2.1l0.4-0.7c0.1-0.1,0.1-0.2,0.1-0.3c0,0,0-0.1-0.1-0.1c0,0,0,0,0,0
					c-0.1,0.1-0.4,0.3-0.8,0.3h-1.7v-0.1c0-0.2,0-0.3,0-0.5c0-1,0-2.1,0.2-3.1c0.2-1.1,1-2.3,2.2-2.3c1,0,1.2,0.4,1.3,0.7
					c0.1,0.1,0.1,0.2,0.1,0.2c0.1,0,0.3-0.8,0.3-1.5c0-0.3-0.6-0.4-0.8-0.4c-1.5,0-3,1.5-3.4,2.3c-0.8,1.3-1.3,2.9-1.3,4.5v0.1h-1.3
					l-0.1,0.8h1.5v6.8c0,0.7-0.4,0.8-0.7,1c-0.2,0.1-0.3,0.1-0.3,0.3c0,0,0,0,0,0C145.2,118.3,145.3,118.2,145.4,118.2
					C145.4,118.2,145.4,118.2,145.4,118.2z"/>
			</g>
			<g>
				<path class="st6" d="M157.3,107.4c0-4.5-2.6-3.2-2.6-4c0-0.1,0.2-0.2,0.3-0.2c0.3,0,0.7,0.1,1,0.1c0.3,0,0.7-0.1,1-0.1
					c0.2,0,0.4,0.3,0.6,0.5l10.2,11.4c0.1,0.2,0.2,0.2,0.3,0.2s0.1-0.1,0.1-0.2v-9c0-2.8-2.4-2-2.4-2.7c0-0.2,0.1-0.2,0.2-0.2
					c0.6,0,1.3,0.1,2,0.1c0.7,0,1.7-0.1,2.2-0.1c0.1,0,0.2,0.1,0.2,0.2c0,0.6-1.3,0.2-1.3,1.7v12.4c0,0.6,0,0.9-0.2,0.9
					c-0.2,0-0.4-0.1-0.8-0.6l-9.2-10.4c0,0-0.3-0.4-0.5-0.4c-0.1,0-0.2,0.1-0.2,0.5v8.8c0,1.9,1.9,1.2,1.9,1.8c0,0.1,0,0.3-0.2,0.3
					c-0.5,0-1.1-0.1-2.2-0.1c-0.8,0-1.9,0.1-2,0.1c-0.3,0-0.3-0.1-0.3-0.2c0-0.8,1.9,0.2,1.9-2.8V107.4z"/>
				<path class="st6" d="M168.9,118.5c-0.1,0-0.4-0.1-0.9-0.6l-9.2-10.4c0,0,0,0-0.1-0.1c-0.1-0.1-0.3-0.3-0.4-0.3
					c0,0-0.1,0-0.1,0.4v8.8c0,1.2,0.7,1.3,1.3,1.4c0.3,0.1,0.6,0.1,0.6,0.4c0,0.3-0.2,0.3-0.3,0.3c-0.2,0-0.4,0-0.7,0
					c-0.4,0-0.8-0.1-1.5-0.1c-0.5,0-1.2,0-1.6,0.1c-0.2,0-0.3,0-0.4,0c-0.3,0-0.3-0.2-0.3-0.3c0-0.3,0.2-0.4,0.5-0.5
					c0.5-0.2,1.4-0.4,1.4-2.4v-7.9c0-3.1-1.3-3.4-2-3.6c-0.3-0.1-0.6-0.1-0.6-0.4c0-0.2,0.2-0.3,0.4-0.3c0.2,0,0.3,0,0.5,0
					c0.2,0,0.3,0,0.5,0c0.2,0,0.3,0,0.5,0c0.2,0,0.3,0,0.5,0c0.2,0,0.4,0.2,0.5,0.4c0,0,0.1,0.1,0.1,0.1l10.2,11.4
					c0.1,0.1,0.2,0.2,0.2,0.2c0,0,0-0.1,0-0.2v-9c0-1.8-1-2.1-1.7-2.3c-0.4-0.1-0.7-0.2-0.7-0.5c0-0.2,0.1-0.3,0.3-0.3
					c0.3,0,0.6,0,0.9,0c0.3,0,0.7,0,1,0c0.4,0,0.9,0,1.3,0c0.3,0,0.7,0,0.9,0c0.2,0,0.3,0.1,0.3,0.3c0,0.2-0.2,0.3-0.4,0.4
					c-0.4,0.2-0.8,0.4-0.8,1.3v12.4C169.1,118.2,169.1,118.5,168.9,118.5z M158.4,107c0.1,0,0.3,0.2,0.5,0.4c0,0,0,0,0,0.1l9.2,10.4
					c0.5,0.5,0.7,0.6,0.8,0.6c0.1,0,0.1-0.4,0.1-0.9v-12.4c0-1,0.5-1.2,0.9-1.4c0.2-0.1,0.4-0.2,0.4-0.3c0-0.1-0.1-0.1-0.2-0.1
					c-0.2,0-0.6,0-0.9,0c-0.4,0-0.9,0-1.3,0c-0.4,0-0.7,0-1,0c-0.3,0-0.6,0-0.9,0c-0.1,0-0.2,0-0.2,0.2c0,0.2,0.2,0.2,0.6,0.3
					c0.7,0.2,1.8,0.5,1.8,2.4v9c0,0.1,0,0.3-0.1,0.3c-0.1,0-0.1-0.1-0.3-0.3l-10.2-11.4c0,0-0.1-0.1-0.1-0.1
					c-0.1-0.1-0.3-0.4-0.4-0.4c-0.2,0-0.3,0-0.5,0c-0.2,0-0.3,0-0.5,0c-0.2,0-0.3,0-0.5,0c-0.2,0-0.3,0-0.5,0
					c-0.1,0-0.3,0.1-0.3,0.2c0,0.2,0.2,0.2,0.5,0.3c0.8,0.2,2.1,0.5,2.1,3.7v7.9c0,2.1-0.9,2.3-1.4,2.5c-0.3,0.1-0.4,0.1-0.4,0.3
					c0,0.1,0,0.2,0.2,0.2c0,0,0.2,0,0.4,0c0.4,0,1.1-0.1,1.6-0.1c0.6,0,1.1,0,1.5,0.1c0.3,0,0.5,0,0.7,0c0.1,0,0.2-0.1,0.2-0.2
					c0-0.1-0.2-0.2-0.5-0.2c-0.6-0.1-1.4-0.2-1.4-1.5v-8.8C158.2,107.2,158.2,107,158.4,107z"/>
			</g>
			<g>
				<path class="st6" d="M177.9,110.7c0-0.8-1.1-0.3-1.1-0.8c0-0.2,0.3-0.2,0.4-0.2c0.6,0,0.9-0.1,1.2-0.1c0.2,0,0.4-0.1,0.8-0.1
					c0.1,0,0.4,0.1,0.4,0.5v7.4c0,0.6,1.4,0.3,1.4,0.8c0,0.2-0.5,0.2-0.8,0.2c-0.6,0-0.9,0.1-1.2,0.1c-0.2,0.1-0.4,0.1-0.7,0.1
					c-0.2,0-0.2-0.2-0.2-0.3V117h0c-0.7,1-1.7,1.5-2.9,1.5c-1.7,0-3.1-1.1-3.1-2.9v-5c0-0.8-1.1-0.3-1.1-0.8c0-0.2,0.3-0.2,0.4-0.2
					c0.6,0,0.9-0.1,1.2-0.1c0.2,0,0.4-0.1,0.8-0.1c0.1,0,0.4,0.1,0.4,0.5v5.4c0,2.3,1.8,2.4,2.1,2.4c1.2,0,2.3-0.9,2.3-1.5V110.7z"
					/>
				<path class="st6" d="M178.2,118.6c-0.2,0-0.3-0.2-0.3-0.4v-1c-0.7,0.9-1.7,1.4-2.8,1.4c-1.9,0-3.2-1.2-3.2-2.9v-5
					c0-0.4-0.3-0.4-0.6-0.5c-0.2,0-0.5-0.1-0.5-0.3c0-0.2,0.2-0.3,0.4-0.3c0.6,0,0.9-0.1,1.1-0.1c0.1,0,0.1,0,0.2,0
					c0.2,0,0.4-0.1,0.6-0.1c0.1,0,0.4,0.1,0.4,0.6v5.4c0,0.8,0.2,1.4,0.6,1.8c0.6,0.6,1.4,0.6,1.4,0.6c1.2,0,2.2-0.9,2.3-1.5v-5.6
					c0-0.4-0.3-0.4-0.6-0.5c-0.2,0-0.5-0.1-0.5-0.3c0-0.2,0.2-0.3,0.4-0.3c0.6,0,0.9-0.1,1.1-0.1c0.1,0,0.1,0,0.2,0
					c0.2,0,0.4-0.1,0.6-0.1c0.1,0,0.4,0.1,0.4,0.6v7.4c0,0.2,0.3,0.3,0.7,0.4c0.3,0.1,0.7,0.1,0.7,0.4c0,0.2-0.4,0.3-0.9,0.3
					c-0.5,0-0.8,0.1-1.1,0.1l-0.1,0l-0.1,0C178.6,118.5,178.5,118.6,178.2,118.6z M177.9,117h0.1v1.2c0,0,0,0.3,0.1,0.3
					c0.3,0,0.4,0,0.6-0.1l0.1,0l0.1,0c0.2,0,0.5-0.1,1.1-0.1c0.7,0,0.7-0.1,0.7-0.1c0-0.2-0.2-0.2-0.6-0.3c-0.4-0.1-0.8-0.1-0.8-0.5
					v-7.4c0-0.4-0.3-0.5-0.3-0.5c-0.3,0-0.4,0-0.6,0.1c-0.1,0-0.1,0-0.2,0c-0.2,0.1-0.5,0.1-1.2,0.1c-0.1,0-0.3,0-0.3,0.1
					c0,0.2,0.1,0.2,0.4,0.2c0.3,0,0.7,0.1,0.7,0.6v5.6c0,0.7-1.2,1.6-2.4,1.6c-0.1,0-0.9,0-1.5-0.6c-0.4-0.4-0.6-1.1-0.6-1.9v-5.4
					c0-0.4-0.3-0.5-0.3-0.5c-0.3,0-0.4,0-0.6,0.1c-0.1,0-0.1,0-0.2,0c-0.2,0.1-0.5,0.1-1.2,0.1c-0.1,0-0.3,0-0.3,0.1
					c0,0.2,0.1,0.2,0.4,0.2c0.3,0,0.7,0.1,0.7,0.6v5c0,1.7,1.3,2.8,3.1,2.8C176.3,118.5,177.3,118,177.9,117L177.9,117z"/>
			</g>
			<g>
				<path class="st6" d="M184.3,116.5c0,2,1.9,1,1.9,1.7c0,0.2-0.1,0.2-0.3,0.2c-0.3,0-0.8-0.1-2-0.1c-1.4,0-1.8,0.1-2,0.1
					c-0.2,0-0.2-0.1-0.2-0.2c0-0.5,1.1-0.4,1.1-1.2v-5.5c0-1.3-1.5-0.7-1.5-1.2c0-0.1,0.2-0.2,0.3-0.2c1.7-0.4,2.1-1.1,2.6-1.1
					c0.1,0,0.3,0.1,0.3,0.3v1.6h0c0.5-0.6,1.2-1.8,2.1-1.8c0.5,0,1.4,0.6,1.4,1c0,0.3-0.5,1-0.8,1c-0.4,0-0.6-0.5-1.4-0.5
					c-0.9,0-1.4,1-1.4,1.3V116.5z"/>
				<path class="st6" d="M185.8,118.4c-0.1,0-0.2,0-0.4,0c-0.3,0-0.8-0.1-1.6-0.1c-1.1,0-1.6,0-1.8,0.1c-0.1,0-0.1,0-0.2,0
					c-0.2,0-0.3-0.1-0.3-0.3c0-0.2,0.2-0.3,0.4-0.4c0.3-0.2,0.6-0.3,0.6-0.8v-5.5c0-0.8-0.6-0.8-1-0.9c-0.3,0-0.5-0.1-0.5-0.3
					c0-0.2,0.2-0.3,0.3-0.3c1-0.2,1.5-0.5,1.9-0.8c0.3-0.2,0.5-0.3,0.7-0.3c0.2,0,0.3,0.2,0.3,0.4v1.5l0,0c0.5-0.7,1.2-1.7,2.1-1.7
					c0.5,0,1.5,0.6,1.5,1c0,0.4-0.5,1-0.8,1c-0.2,0-0.3-0.1-0.5-0.2c-0.2-0.1-0.5-0.3-0.9-0.3c-0.8,0-1.3,1-1.3,1.2v4.7
					c0,1.2,0.7,1.3,1.3,1.3c0.3,0,0.6,0,0.6,0.4C186.2,118.4,186,118.4,185.8,118.4z M183.8,118.2c0.8,0,1.3,0,1.6,0.1
					c0.6,0,0.7,0,0.7-0.2c0-0.2-0.2-0.2-0.5-0.2c-0.5,0-1.4-0.1-1.4-1.4v-4.7c0-0.3,0.5-1.3,1.5-1.3c0.5,0,0.7,0.2,1,0.3
					c0.2,0.1,0.3,0.2,0.4,0.2c0.2,0,0.7-0.6,0.7-0.9c0-0.3-0.9-0.9-1.4-0.9c-0.8,0-1.6,1-2,1.6l-0.1,0.1h-0.1v-1.7
					c0-0.2-0.1-0.3-0.2-0.3c-0.2,0-0.4,0.1-0.6,0.3c-0.4,0.2-0.9,0.6-1.9,0.8c-0.1,0-0.2,0.1-0.2,0.2c0,0.1,0.2,0.1,0.4,0.2
					c0.4,0.1,1.1,0.1,1.1,1v5.5c0,0.6-0.4,0.7-0.7,0.9c-0.2,0.1-0.4,0.2-0.4,0.3c0,0.1,0,0.1,0.2,0.1c0,0,0.1,0,0.2,0
					C182.2,118.3,182.7,118.2,183.8,118.2z"/>
			</g>
			<g>
				<path class="st6" d="M188.4,111.7c0-1.7,1.3-2.6,2.9-2.6c0.4,0,1.8,0.2,2.1,0.5c0.1,0.2,0.1,0.9,0.1,1.1c0,0.6,0.1,0.8-0.2,0.8
					c-0.2,0-0.4-1.9-2.4-1.9c-0.8,0-1.5,0.5-1.5,1.4c0,0.7,0.6,1.2,2.8,2.1c1.2,0.5,1.8,1.2,1.8,2.6c0,1.6-1.3,2.9-2.9,2.9
					c-1.5,0-1.9-0.6-2.4-0.6c-0.5,0-0.5,0-0.5-1.7c0-0.4-0.1-1.1,0.3-1.1c0.5,0,0.2,2.8,2.6,2.8c1.1,0,1.9-0.6,1.9-1.8
					c0-1.1-1.1-1.5-2-1.9C189.8,113.7,188.4,113.2,188.4,111.7z"/>
				<path class="st6" d="M191.1,118.6c-1,0-1.5-0.3-1.9-0.4c-0.2-0.1-0.4-0.2-0.6-0.2c-0.5,0-0.5-0.1-0.5-1.8c0,0,0-0.1,0-0.2
					c0-0.3,0-0.7,0.1-0.9c0,0,0.1-0.1,0.2-0.1c0.2,0,0.3,0.3,0.4,0.7c0.2,0.9,0.6,2.1,2.2,2.1c1.3,0,1.9-0.9,1.9-1.7
					c0-1-0.8-1.3-1.6-1.7c-0.1,0-0.2-0.1-0.3-0.1c-0.1-0.1-0.2-0.1-0.3-0.2c-1.1-0.5-2.3-1.1-2.3-2.6c0-1.6,1.2-2.6,3-2.6
					c0.3,0,1.9,0.2,2.2,0.5c0.1,0.2,0.1,0.6,0.1,1l0,0.1c0,0.1,0,0.2,0,0.3c0,0.3,0,0.4-0.1,0.5c-0.1,0.1-0.1,0.1-0.2,0.1
					c-0.1,0-0.1-0.1-0.2-0.3c-0.2-0.5-0.7-1.5-2.1-1.5c-0.9,0-1.4,0.5-1.4,1.3c0,0.7,0.6,1.1,2.8,2c1.3,0.6,1.8,1.3,1.8,2.6
					C194,117.3,192.7,118.6,191.1,118.6z M188.5,115.2C188.4,115.2,188.4,115.2,188.5,115.2c-0.2,0.2-0.2,0.5-0.2,0.8
					c0,0.1,0,0.1,0,0.2c0,1.7,0,1.7,0.4,1.7c0.2,0,0.4,0.1,0.6,0.2c0.4,0.2,0.9,0.4,1.8,0.4c1.6,0,2.8-1.3,2.8-2.9
					c0-1.3-0.5-2-1.7-2.5c-2.2-0.9-2.9-1.4-2.9-2.1c0-0.9,0.6-1.4,1.6-1.4c1.5,0,2,1.1,2.2,1.6c0.1,0.1,0.1,0.2,0.1,0.3
					c0.1,0,0.1,0,0.1,0c0.1-0.1,0.1-0.2,0-0.4c0-0.1,0-0.2,0-0.3v-0.1c0-0.5,0-0.9-0.1-1c-0.2-0.3-1.6-0.5-2.1-0.5
					c-1.3,0-2.8,0.7-2.8,2.5c0,1.4,1.1,1.9,2.3,2.5c0.1,0.1,0.2,0.1,0.3,0.2c0.1,0,0.2,0.1,0.3,0.1c0.8,0.4,1.7,0.8,1.7,1.8
					c0,1.1-0.8,1.8-2,1.8c-1.6,0-2-1.4-2.3-2.2C188.6,115.5,188.6,115.2,188.5,115.2z"/>
			</g>
			<g>
				<path class="st6" d="M196,111.4c0-1.3-1.2-0.7-1.2-1.2c0-0.1,0.1-0.2,0.2-0.2c1.4-0.4,1.8-1.1,2.3-1.1c0.1,0,0.3,0.1,0.3,0.3
					v7.7c0,1.1,1.7,0.6,1.7,1.2c0,0.2-0.1,0.2-0.4,0.2c-0.5,0-1.1-0.1-2-0.1c-0.7,0-1.2,0.1-1.5,0.1c-0.2,0-0.3,0-0.3-0.2
					c0-0.5,0.9,0.3,0.9-1.7V111.4z M197.7,105.8c0,0.3-0.6,1.1-0.9,1.1c-0.3,0-0.9-0.9-0.9-1.1c0-0.2,0.6-1.1,0.9-1.1
					C197.1,104.7,197.7,105.5,197.7,105.8z"/>
				<path class="st6" d="M198.9,118.4c-0.2,0-0.4,0-0.7,0c-0.4,0-0.8-0.1-1.3-0.1c-0.4,0-0.8,0-1.1,0.1c-0.2,0-0.3,0-0.4,0
					c-0.2,0-0.4,0-0.4-0.3c0-0.2,0.2-0.3,0.3-0.3c0.3-0.1,0.6-0.1,0.6-1.4v-5.1c0-0.8-0.4-0.8-0.8-0.9c-0.2,0-0.4-0.1-0.4-0.3
					c0-0.1,0.1-0.3,0.2-0.3c0.8-0.2,1.2-0.5,1.6-0.7c0.3-0.2,0.5-0.3,0.7-0.3c0.2,0,0.3,0.2,0.3,0.4v7.7c0,0.6,0.5,0.7,1,0.8
					c0.4,0.1,0.7,0.1,0.7,0.4C199.3,118.4,199.1,118.4,198.9,118.4z M196.9,118.2c0.5,0,1,0,1.3,0.1c0.3,0,0.5,0,0.7,0
					c0.3,0,0.3-0.1,0.3-0.2c0-0.2-0.2-0.2-0.6-0.3c-0.5-0.1-1.1-0.2-1.1-0.9v-7.7c0-0.2-0.1-0.3-0.2-0.3c-0.2,0-0.4,0.1-0.7,0.3
					c-0.4,0.2-0.8,0.5-1.6,0.8c-0.1,0-0.1,0.1-0.1,0.2c0,0.1,0.1,0.1,0.3,0.2c0.3,0.1,0.9,0.1,0.9,1v5.1c0,1.3-0.4,1.4-0.7,1.5
					c-0.2,0-0.2,0.1-0.2,0.2c0,0.1,0.1,0.2,0.3,0.2c0.1,0,0.2,0,0.4,0C196.1,118.3,196.4,118.2,196.9,118.2z M196.8,107
					c-0.3,0-1-0.9-1-1.2c0-0.3,0.7-1.2,1-1.2c0.3,0,1,0.9,1,1.2C197.8,106.1,197.1,107,196.8,107z M196.8,104.7
					c-0.2,0-0.8,0.9-0.8,1.1c0,0.2,0.6,1.1,0.8,1.1c0.2,0,0.8-0.8,0.8-1.1C197.6,105.6,197,104.7,196.8,104.7z"/>
			</g>
			<g>
				<path class="st6" d="M202.8,116.6c0,1.5,1.9,0.9,1.9,1.4c0,0.3-0.2,0.3-0.5,0.3c-0.4,0-0.8-0.1-2-0.1c-1.1,0-1.6,0.1-1.8,0.1
					c-0.3,0-0.4,0-0.4-0.3c0-0.4,1.3,0,1.3-1.4v-5.3c0-1.3-1.6-0.7-1.6-1.2c0-0.1,0.1-0.2,0.2-0.2c1.8-0.4,2.2-1.1,2.7-1.1
					c0.1,0,0.3,0.1,0.3,0.3v1.4c0,0.3,1-1.6,3.1-1.6c2.9,0,3.5,2.4,3.5,4v3.5c0,1.5,1.7,0.9,1.7,1.4c0,0.3-0.2,0.3-0.4,0.3
					c-0.3,0-0.8-0.1-1.9-0.1c-0.8,0-1.3,0.1-1.5,0.1c-0.3,0-0.4,0-0.4-0.3c0-0.4,0.9,0,0.9-1.4v-4c0-1.1-0.8-2.7-2.5-2.7
					c-1.8,0-2.6,1.3-2.5,1.7V116.6z"/>
				<path class="st6" d="M210.7,118.4c-0.1,0-0.2,0-0.4,0c-0.3,0-0.8-0.1-1.5-0.1c-0.5,0-0.9,0-1.2,0.1c-0.2,0-0.3,0-0.4,0
					c-0.2,0-0.4,0-0.4-0.3c0-0.2,0.2-0.3,0.3-0.3c0.3-0.1,0.6-0.2,0.6-1.1v-4c0-1.1-0.8-2.6-2.5-2.6c-1.1,0-1.8,0.5-2,0.8
					c-0.3,0.3-0.4,0.7-0.4,0.8v4.9c0,0.9,0.7,1,1.2,1.1c0.4,0.1,0.7,0.1,0.7,0.4c0,0.3-0.2,0.4-0.5,0.4c-0.1,0-0.3,0-0.4,0
					c-0.3,0-0.8-0.1-1.6-0.1c-0.8,0-1.2,0-1.5,0.1c-0.1,0-0.2,0-0.3,0c-0.2,0-0.4,0-0.4-0.3c0-0.2,0.2-0.3,0.4-0.3
					c0.4-0.1,0.9-0.2,0.9-1.1v-5.3c0-0.8-0.6-0.8-1-0.9c-0.3,0-0.5-0.1-0.5-0.3c0-0.1,0.1-0.3,0.2-0.3c1.1-0.2,1.6-0.6,2-0.8
					c0.3-0.2,0.5-0.3,0.7-0.3c0.2,0,0.3,0.1,0.3,0.4v1.3c0,0,0,0,0,0c0.4-0.4,1.4-1.5,3-1.5c1.3,0,2.3,0.5,2.9,1.4
					c0.6,0.9,0.7,2.1,0.7,2.7v3.5c0,0.9,0.6,1,1.1,1.1c0.3,0.1,0.6,0.1,0.6,0.4C211.2,118.4,210.9,118.4,210.7,118.4z M208.9,118.2
					c0.7,0,1.2,0,1.5,0.1c0.2,0,0.3,0,0.4,0c0.2,0,0.3-0.1,0.3-0.2c0-0.2-0.2-0.2-0.5-0.3c-0.5-0.1-1.2-0.2-1.2-1.2v-3.5
					c0-1.2-0.3-4-3.4-4c-1.6,0-2.5,1.1-2.9,1.5c-0.1,0.1-0.2,0.2-0.2,0.2c0,0,0,0,0-0.1l0-1.4c0-0.2-0.1-0.3-0.2-0.3
					c-0.2,0-0.4,0.1-0.6,0.3c-0.4,0.2-1,0.6-2.1,0.8c-0.1,0-0.1,0.1-0.1,0.2c0,0.1,0.2,0.1,0.4,0.2c0.5,0.1,1.1,0.1,1.1,1v5.3
					c0,0.9-0.6,1.1-0.9,1.2c-0.2,0.1-0.3,0.1-0.3,0.2c0,0.2,0,0.2,0.3,0.2c0.1,0,0.2,0,0.3,0c0.3,0,0.7-0.1,1.5-0.1
					c0.8,0,1.3,0,1.6,0.1c0.2,0,0.3,0,0.4,0c0.3,0,0.4,0,0.4-0.2c0-0.2-0.2-0.2-0.6-0.3c-0.6-0.1-1.3-0.2-1.3-1.2v-4.9
					c0-0.2,0.1-0.5,0.5-0.9c0.3-0.3,1-0.9,2.1-0.9c1.8,0,2.6,1.6,2.6,2.7v4c0,0.9-0.4,1.1-0.7,1.2c-0.2,0.1-0.2,0.1-0.2,0.2
					c0,0.2,0,0.2,0.3,0.2c0.1,0,0.2,0,0.4,0C208,118.3,208.3,118.2,208.9,118.2z"/>
			</g>
			<g>
				<path class="st6" d="M218.2,109.9c1,0,1.1-1.4,1.4-1.4c0.2,0,0.2,0.2,0.2,0.3c0,1.7-0.3,1.7-1.1,2.2c0.1,0.4,0.2,0.8,0.2,1.1
					c0,2-1.6,3.3-3.6,3.3c-1.1,0-1.2-0.2-1.5-0.2c-0.5,0-1,0.7-1,1.2c0,0.2-0.2,1,2.5,1c1.8,0,4.2-0.2,4.2,1.9
					c0,1.4-1.1,3.1-4.7,3.1c-1.4,0-3.6-0.5-3.6-2.3c0-0.9,0.8-1.5,1.6-1.8c-0.6-0.2-0.8-1-0.8-1.7c0-0.9,1.1-1.7,1.1-1.7v0
					c-0.9-0.5-1.4-1.6-1.4-2.6c0-2,1.5-3.4,3.5-3.4C216.9,109.1,217.6,109.9,218.2,109.9z M215,122.2c2.9,0,3.6-1.4,3.6-2.1
					c0-0.9-0.8-0.9-3-1c-1.8-0.1-2.1-0.2-2.3-0.2c-0.7,0-1.1,1-1.1,1.5C212.3,121.8,213.8,122.2,215,122.2z M215.3,109.6
					c-1.6,0-2.1,1.2-2.1,2.6c0,1.4,0.6,2.9,2.2,2.9c1.5,0,2.1-1.2,2.1-2.6C217.5,111.2,216.9,109.6,215.3,109.6z"/>
				<path class="st6" d="M214.8,122.7c-1.3,0-3.7-0.5-3.7-2.3c0-0.9,0.8-1.5,1.5-1.8c-0.5-0.3-0.7-0.9-0.7-1.7
					c0-0.8,0.8-1.6,1.1-1.8c-0.8-0.5-1.4-1.6-1.4-2.7c0-2,1.5-3.4,3.5-3.4c1.1,0,1.8,0.3,2.4,0.6c0.3,0.1,0.5,0.3,0.7,0.3
					c0.6,0,0.9-0.6,1.1-1c0.1-0.2,0.2-0.4,0.3-0.4c0.1,0,0.1,0,0.2,0.1c0.1,0.1,0.1,0.2,0.1,0.3l0,0c0,1.6-0.3,1.8-1,2.2l-0.1,0.1
					c0.1,0.4,0.1,0.8,0.1,1.1c0,2-1.5,3.3-3.6,3.3c-0.7,0-1-0.1-1.2-0.1c-0.1,0-0.2,0-0.3,0c-0.5,0-1,0.7-1,1.1l0,0
					c0,0.1,0,0.3,0.2,0.4c0.2,0.2,0.8,0.5,2.3,0.5c0.1,0,0.3,0,0.5,0c1.2,0,2.6,0,3.4,0.7c0.3,0.3,0.5,0.7,0.5,1.3
					C219.6,121,218.4,122.7,214.8,122.7z M213.1,115.2c-0.1,0.1-1.1,0.9-1.1,1.7c0,0.4,0.1,1.4,0.8,1.6l0.1,0.1l-0.2,0.1
					c-0.7,0.3-1.5,0.9-1.5,1.7c0,1.8,2.3,2.2,3.6,2.2c3.4,0,4.7-1.7,4.7-3.1c0-0.5-0.1-0.9-0.4-1.2c-0.7-0.7-2.1-0.7-3.3-0.7
					c-0.2,0-0.3,0-0.5,0c-1.3,0-2.1-0.2-2.4-0.5c-0.2-0.2-0.2-0.4-0.2-0.5l0,0c0-0.5,0.5-1.2,1.1-1.2c0.1,0,0.2,0,0.3,0
					c0.2,0,0.5,0.1,1.2,0.1c2.1,0,3.5-1.3,3.5-3.2c0-0.3,0-0.7-0.1-1.1l0,0l0.2-0.1c0.7-0.4,0.9-0.6,0.9-2.1v0c0-0.1,0-0.2,0-0.2
					c0,0,0,0-0.1,0c-0.1,0-0.2,0.2-0.2,0.4c-0.2,0.4-0.5,1-1.2,1c-0.2,0-0.5-0.1-0.8-0.3c-0.5-0.2-1.2-0.6-2.3-0.6
					c-1.9,0-3.4,1.4-3.4,3.3c0,1.1,0.5,2.1,1.3,2.6l0,0L213.1,115.2L213.1,115.2z M215,122.2c-0.6,0-2.8-0.1-2.8-1.9
					c0-0.6,0.4-1.6,1.1-1.6c0,0,0.1,0,0.2,0c0.2,0,0.7,0.1,2.1,0.2c2.1,0.1,3,0.1,3,1.1C218.6,120.4,218.4,122.2,215,122.2z
					 M213.3,118.9c-0.6,0-1,1-1,1.5c0,1.6,2,1.7,2.6,1.7c3.3,0,3.5-1.7,3.5-2.1c0-0.8-0.7-0.9-2.9-0.9c-1.4,0-1.9-0.1-2.1-0.2
					C213.4,118.9,213.3,118.9,213.3,118.9z M215.4,115.2c-1.6,0-2.3-1.5-2.3-3c0-1.7,0.8-2.7,2.2-2.7c1.6,0,2.3,1.5,2.3,3
					C217.5,114.2,216.7,115.2,215.4,115.2z M215.3,109.6c-1.8,0-2,1.6-2,2.6c0,2.1,1.1,2.8,2.1,2.8c0.6,0,2-0.2,2-2.5
					C217.4,110.4,216.3,109.6,215.3,109.6z"/>
			</g>
		</g>
	</g>
</g>
</svg>
