<?xml version="1.0" encoding="UTF-8"?><svg xmlns="http://www.w3.org/2000/svg" viewBox="0 0 216.1 109.92"><defs><style>.g{fill:#fff;}.h{fill:#fbceb0;}.i{fill:#bc4700;}.j{fill:#d65f00;}.k{fill:#231f20;}.l{fill:#7a6569;}.m{fill:none;stroke:#bc4700;}</style></defs><g id="a"/><g id="b"><g id="c"><g id="d"><g id="e"><path class="i" d="M.05,20.52H50.37v-7.67h-6.3v-2.48h-1.48s-3.26,.13-5.71-1.32c-2.42-1.43-2.87-2.8-2.88-2.8v-1.99h-3.23c-.55-2.43-2.73-4.25-5.33-4.25s-4.78,1.82-5.33,4.25h-3.29v1.99s-.46,1.37-2.88,2.8c-2.45,1.45-5.71,1.32-5.71,1.32h-1.93v2.48H0v7.64"/><path class="i" d="M.04,37.05c.07,3.69,.61,7.33,1.54,10.9,1.75,6.72,4.97,12.58,10.11,17.32,3.97,3.65,8.53,6.43,13.21,9.05,.14,.08,.4,.05,.55-.03,3.25-1.8,6.41-3.74,9.42-5.93,6.41-4.66,10.87-10.73,13.25-18.31,1.67-5.3,2.22-10.76,2.26-16.28,.02-2.89,.02-7.93,.02-10.82H.02c0,3.98-.06,10.12,.02,14.1m21.5,3.4l3.66-11.27,3.66,11.27h11.85l-9.58,6.96,3.66,11.27-9.58-6.96-9.58,6.96,3.66-11.26-9.58-6.96h11.85Z"/><path class="j" d="M25.34,20.53L25.49,.03c-2.6,0-4.78,1.82-5.33,4.25h-3.29v1.99s-.46,1.37-2.88,2.8c-2.45,1.45-5.71,1.32-5.71,1.32h-1.93v2.48H.05v7.64H25.34Z"/><path class="j" d="M25.23,51.74l-9.58,6.96,3.66-11.26-9.58-6.96h11.85l3.66-11.27-.04-6.24H.05c0,3.98-.06,10.12,.02,14.1,.07,3.69,.61,7.33,1.54,10.9,1.75,6.72,4.97,12.58,10.11,17.32,3.97,3.65,8.54,6.43,13.21,9.05,.14,.08,.26,.03,.26,.03l.04-22.63Z"/><polygon class="g" points="40.74 40.46 28.89 40.46 25.23 29.19 21.57 40.46 9.73 40.46 19.31 47.42 15.65 58.69 25.23 51.72 34.82 58.69 31.16 47.42 40.74 40.46"/><polygon class="h" points="25.23 29.19 28.89 40.46 40.74 40.46 31.16 47.42 34.82 58.69 25.23 51.72 25.23 29.19"/></g><path class="k" d="M31.58,71.77c.21,0,.42,.05,.62,.16,.2,.11,.36,.26,.47,.47,.11,.2,.17,.41,.17,.63s-.06,.43-.17,.63c-.11,.2-.27,.36-.47,.47-.2,.11-.41,.17-.63,.17s-.43-.06-.63-.17c-.2-.11-.36-.27-.47-.47-.11-.2-.17-.41-.17-.63s.06-.43,.17-.63c.11-.2,.27-.36,.47-.47,.2-.11,.41-.16,.62-.16Zm0,.21c-.18,0-.35,.05-.52,.14-.17,.09-.3,.22-.39,.39-.09,.17-.14,.34-.14,.53s.05,.36,.14,.52c.09,.17,.22,.3,.39,.39,.17,.09,.34,.14,.52,.14s.36-.05,.52-.14c.17-.09,.3-.22,.39-.39,.09-.17,.14-.34,.14-.52s-.05-.36-.14-.53c-.09-.17-.23-.3-.39-.39-.17-.09-.34-.14-.52-.14Zm-.55,1.75v-1.35h.47c.16,0,.27,.01,.35,.04,.07,.03,.13,.07,.17,.13,.04,.06,.06,.13,.06,.2,0,.1-.04,.19-.11,.26-.07,.07-.16,.11-.28,.12,.05,.02,.09,.04,.11,.07,.05,.05,.12,.14,.2,.27l.17,.27h-.27l-.12-.21c-.09-.17-.17-.27-.23-.32-.04-.03-.1-.05-.17-.05h-.13v.58h-.22Zm.22-.76h.27c.13,0,.21-.02,.26-.06s.07-.09,.07-.15c0-.04-.01-.08-.03-.11-.02-.03-.05-.06-.09-.07-.04-.02-.11-.02-.22-.02h-.25v.41Z"/><g><path class="k" d="M80.36,44.73c1.4-1.89,2.11-4.61,2.11-8.1v-9.46c0-1.57,.11-2.65,.34-3.2,.22-.54,.7-.97,1.44-1.27,.32-.13,.48-.32,.48-.56,0-.29-.18-.46-.48-.46-.12,0-.4,.02-.85,.06-.33,.04-1.21,.06-2.62,.06-.66,0-1.24-.04-1.71-.11-.55-.09-.95-.14-1.23-.15-.16,0-.28,.03-.37,.11-.09,.09-.14,.22-.14,.4,0,.21,.12,.48,.67,.53,1.05,.1,1.8,.49,2.24,1.18,.44,.7,.67,1.84,.67,3.4v9.89c0,3.3-.75,5.8-2.23,7.43-1.47,1.63-3.73,2.45-6.72,2.45-3.34,0-5.74-.99-7.15-2.93-1-1.37-1.51-3.71-1.51-6.96v-9.63l-.04-1.26c0-1.21,.12-2.05,.36-2.51,.23-.44,.7-.75,1.39-.9,.47-.09,.71-.28,.71-.59,0-.16-.07-.42-.56-.42-.18,0-.51,.02-.99,.06-.57,.05-.91,.08-1.06,.08h-1.45l-1.47,.02c-.27,0-.69-.02-1.27-.06-.56-.02-1.01-.04-1.32-.04-.7,0-.85,.31-.85,.57,0,.19,.11,.44,.62,.51,1.09,.16,1.83,.49,2.18,.97,.36,.49,.54,1.42,.54,2.75l.04,1.09v9.71c0,2.67,.46,4.87,1.37,6.54,.81,1.46,2.11,2.62,3.86,3.47,1.74,.85,3.73,1.27,5.9,1.27,1.87,0,3.65-.36,5.29-1.07,1.65-.71,2.94-1.68,3.82-2.88"/><path class="k" d="M95.65,24.08c.59,0,.78,.1,.84,.16,.06,.06,.16,.24,.16,.8l.02,.49v18.97c0,1.04-.16,1.76-.49,2.15-.32,.39-.96,.65-1.91,.77-.49,.06-.74,.22-.74,.49,0,.2,.09,.53,.7,.53,.13,0,.56-.04,1.3-.11,.36-.04,.82-.06,1.35-.06l1.49-.02,1.4,.02c.9,0,1.47,.02,1.7,.06,.48,.08,.8,.12,.96,.12,.57,0,.66-.33,.66-.53,0-.28-.26-.46-.77-.55-1.56-.27-2.34-1.1-2.4-2.54l-.02-.74V25.32c0-.74,.12-.97,.19-1.05,.07-.07,.29-.19,.97-.19h5.37c1.04,0,1.74,.13,2.09,.39h0c.34,.25,.6,.82,.76,1.69,.09,.47,.27,.71,.59,.69,.24-.02,.53-.17,.51-.74-.01-.2-.05-.51-.12-.95-.06-.33-.09-.88-.09-1.61,0-1.05-.14-1.32-.25-1.44-.18-.18-.61-.27-1.36-.27h-20.58c-.48,0-.79,.11-.95,.33-.15,.21-.22,.61-.22,1.22,0,.58-.1,1.34-.28,2.24-.16,.72-.23,1.21-.23,1.49,0,.53,.29,.63,.46,.64,.46,.02,.59-.61,.64-.82,.25-1.12,.6-1.88,1.04-2.28,.44-.39,1.17-.59,2.16-.59h5.06Z"/><path class="k" d="M139.62,48.35c.38-.04,.68-.06,.91-.06l1.43-.04,1.42,.02c.96,0,1.59,.03,1.89,.07,.82,.13,1.33,.16,1.55-.08,.09-.1,.13-.23,.12-.4-.02-.26-.26-.43-.72-.49-1.04-.11-1.75-.42-2.11-.91-.37-.5-.55-1.43-.55-2.76V25.24c0-.61,.13-1.16,.39-1.63,.25-.45,.55-.72,.91-.79l.78-.17c.46-.1,.56-.33,.56-.51s-.08-.49-.58-.49c-.13,0-.37,.03-.72,.08-.54,.07-1.49,.11-2.85,.11-.94,0-1.83-.04-2.66-.13-.6-.06-1.04-.1-1.31-.1-.5,0-.59,.27-.6,.43-.01,.2,.09,.46,.65,.57,.87,.2,1.47,.56,1.79,1.08,.32,.53,.49,1.45,.49,2.74v6.54c0,.31-.06,.51-.17,.59-.09,.06-.34,.13-1,.13h-11.27c-1.03,0-1.27-.12-1.32-.18h0c-.07-.07-.18-.31-.18-1.22v-6.85c0-.92,.14-1.57,.42-1.95,.27-.38,.83-.67,1.65-.88,.4-.1,.61-.29,.61-.55,0-.19-.09-.51-.68-.51-.2,0-.46,.03-.82,.08-.78,.1-1.63,.15-2.53,.15-1.33,0-2.5-.06-3.48-.17-.52-.06-.91-.1-1.16-.12-.22,0-.38,.04-.49,.14-.09,.09-.13,.2-.13,.35,0,.2,.11,.46,.66,.53,1.05,.16,1.78,.48,2.18,.95,.4,.47,.6,1.26,.6,2.33v16.43c0,1.77-.1,3.02-.3,3.72-.19,.68-.54,1.06-1.06,1.18l-.95,.23c-.49,.11-.59,.37-.59,.57,0,.18,.08,.48,.6,.48,.14,0,.54-.03,1.21-.09,.48-.04,.88-.06,1.2-.06l1.26-.04,1.61,.02c1.17,0,1.94,.03,2.28,.09,.47,.06,.78,.09,.95,.09,.26,0,.45-.06,.56-.18,.08-.09,.12-.2,.12-.34-.02-.34-.3-.54-.83-.6-1.11-.12-1.87-.44-2.27-.95-.4-.51-.6-1.42-.6-2.71v-7.01c0-.7,.12-.94,.22-1.02,.11-.09,.42-.19,1.28-.19h11.26c.86,0,1.03,.09,1.07,.12,.03,.03,.13,.18,.13,.96v7.02l-.02,.75c0,1.9-.62,2.93-1.9,3.15-.48,.07-.74,.26-.75,.54,0,.15,.03,.27,.12,.36,.09,.09,.23,.14,.42,.14,.01,0,.03,0,.05,0,.09,0,.5-.03,1.33-.1"/><path class="k" d="M196.01,46.14l-.17,.05-1,.48c-.51,.27-1.16,.41-1.91,.41-.93,0-1.65-.26-2.15-.78-.33-.34-.5-1.13-.5-2.34v-9.49h4.41c.47,0,.8-.21,.95-.63l.44-1.09c.16-.36,.18-.47,.18-.52,0-.13-.02-.23-.09-.29-.06-.06-.14-.07-.24-.06-.11,.02-.26,.1-.47,.25-.28,.19-.7,.29-1.23,.29h-3.95l.07-3.18c0-.51-.21-.62-.39-.62-.14,0-.35,.11-.83,.9-.78,1.25-1.92,2.52-3.4,3.77-.36,.31-.54,.56-.54,.78,0,.19,.11,.41,.62,.41h1.58v9.52c0,3.12,1.52,4.7,4.52,4.7,.88,0,1.84-.25,2.86-.74,1.06-.51,1.58-.99,1.58-1.46,0-.21-.13-.33-.35-.33"/><path class="k" d="M153.31,32.97c.97,0,1.88,.42,2.71,1.24,.83,.83,1.25,1.73,1.25,2.69,0,.4-.76,.49-1.39,.49h-6.34c.17-1.35,.59-2.43,1.25-3.21h0c.67-.8,1.51-1.21,2.52-1.21m7.03,11.61c-.11,.02-.22,.07-.34,.16-1.61,1.23-3.11,1.85-4.46,1.85-1.71,0-3.18-.73-4.36-2.18-1.18-1.46-1.78-3.28-1.78-5.41v-.3h7.13l1.3,.04,1.42,.02c.91,0,1.37-.25,1.37-.75,0-.31-.16-.83-.49-1.6-.32-.74-.64-1.34-.95-1.78-1.29-1.8-3.04-2.71-5.2-2.71-1.98,0-3.72,.85-5.19,2.53-1.46,1.68-2.21,3.66-2.21,5.89,0,2.35,.72,4.35,2.14,5.94,1.43,1.6,3.21,2.41,5.32,2.41,1.87,0,3.66-.66,5.33-1.97,.93-.73,1.38-1.29,1.38-1.71,0-.15-.04-.27-.12-.34-.07-.07-.16-.09-.29-.09"/><path class="k" d="M184.92,47.23c-1.25-.21-2.02-.62-2.28-1.21-.23-.54-.35-1.34-.35-2.36V21.23l.02-.59h0c0-.48-.06-.76-.2-.89-.06-.05-.12-.08-.19-.08-.13,0-.28,.05-.47,.18-.33,.25-.95,.55-1.83,.9l-1.17,.48c-.35,.14-.74,.26-1.18,.36-.39,.11-.59,.29-.59,.53,0,.14,.05,.32,.32,.43,.1,.03,.22,.04,.36,.04h0l.95-.04c.74,0,1.1,.54,1.1,1.64v21.19c0,.58-.09,1-.27,1.26-.18,.25-.55,.46-1.09,.61-.43,.12-.64,.32-.62,.59,0,.18,.1,.49,.64,.49,.05,0,.19-.01,.74-.1,.28-.04,1.03-.06,2.22-.06l2.66-.02c.37,0,.66,.02,.83,.05,.23,.05,.4,.08,.53,.08,.17,0,.31-.05,.4-.14,.09-.1,.13-.24,.13-.42-.02-.26-.24-.43-.66-.5"/><path class="k" d="M166.76,41.86c1.03-.69,2.51-1.13,4.39-1.31v3.65c0,.92-.21,1.61-.63,2.02-.69,.67-1.57,1.01-2.59,1.01-.84,0-1.51-.25-1.99-.73-.49-.49-.73-1.16-.73-1.99,0-1.07,.52-1.96,1.56-2.65m9.94,5.11c-.09,0-.24,.03-.48,.08-.1,.02-.25,.03-.44,.03-.63,0-1.07-.23-1.34-.69-.27-.48-.41-1.31-.41-2.47v-7.48c0-1.43-.5-2.56-1.48-3.35-.97-.78-2.36-1.18-4.11-1.18-1.92,0-3.49,.63-4.66,1.88-.87,.93-1.31,1.82-1.31,2.63,0,.35,.27,.67,.8,.95,.5,.26,1.07,.4,1.68,.4,.18,0,.31-.05,.4-.14,.08-.08,.11-.19,.1-.33-.01-.19-.06-.4-.14-.63-.16-.53-.24-1-.24-1.4,0-1.35,.79-2,2.4-2,1.21,0,2.18,.37,2.89,1.1,.52,.53,.79,1.52,.79,2.94v2.25c-3.13,.48-5.38,1.14-6.71,1.94-1.37,.83-2.06,2.01-2.06,3.52,0,1.11,.37,2.01,1.1,2.68,.73,.66,1.71,1,2.93,1,1.57,0,3.28-.69,5.1-2.05,.85,1.26,1.81,1.9,2.87,1.9,.57,0,1.17-.12,1.77-.36,.65-.26,.96-.52,.98-.8,0-.13-.02-.22-.09-.3-.08-.08-.19-.11-.33-.1"/><path class="k" d="M215.48,47.44c-1-.16-1.66-.41-1.95-.74-.3-.33-.45-.97-.45-1.91v-6.06c0-2.02-.57-3.68-1.7-4.94-1.13-1.26-2.63-1.89-4.45-1.89s-3.64,.95-5.24,2.82v-12.77c0-.42,0-.75,.02-.96,.03-.23,.04-.39,.04-.47,0-.47-.28-.54-.45-.54-.13,0-.29,.04-.45,.13l-1.5,.71c-.97,.47-1.87,.8-2.66,.99-.35,.09-.53,.27-.53,.51,0,.2,.11,.31,.2,.36,.09,.05,.2,.07,.33,.07h0l.97-.06c.26-.02,.48,.05,.65,.22,.33,.31,.5,.96,.5,1.93v19.9c0,1.33-.13,1.83-.24,2.02-.16,.26-.6,.51-1.31,.73-.46,.13-.54,.39-.53,.59,.01,.15,.1,.41,.6,.41,.17,0,.46-.02,.89-.05,.94-.07,1.68-.1,2.19-.1,1.47,0,2.45,.02,2.9,.07,.58,.06,.92,.09,1.07,.09,.47,0,.54-.27,.54-.44,0-.32-.25-.51-.76-.59-1.1-.15-1.79-.4-2.06-.76-.28-.36-.41-1.18-.41-2.45v-7.41c0-.79,.42-1.51,1.25-2.15,.84-.65,1.79-.98,2.82-.98,1.34,0,2.43,.46,3.23,1.38,.8,.92,1.21,2.18,1.21,3.76v6.33l-.02,.59c0,.67-.11,.96-.2,1.08-.1,.12-.37,.33-1.15,.62-.32,.13-.48,.3-.46,.51,0,.17,.11,.47,.66,.47,.09,0,.29-.02,.61-.05,.52-.07,1.36-.1,2.47-.1,.67,0,1.49,.03,2.42,.09,.47,.04,.79,.06,.95,.06,.55,0,.64-.29,.64-.47,0-.2-.11-.46-.62-.54"/><path class="k" d="M64.59,63.29c-1.17-.39-1.91-.66-2.21-.81-.29-.15-.57-.38-.82-.7-.28-.37-.43-.81-.43-1.32,0-.57,.22-1.06,.66-1.44,.44-.39,.99-.58,1.65-.58,.83,0,1.59,.22,2.26,.65,.67,.43,1.12,.98,1.34,1.64,.11,.33,.22,.48,.35,.48,.11,0,.25-.06,.25-.34,0-.05-.02-.17-.05-.39l-.15-.96c-.08-.52-.12-.83-.12-.93,0-.22-.04-.37-.12-.45-.04-.04-.09-.06-.15-.06-.07,0-.12,.02-.14,.05l-.13,.11c-.11,.1-.23,.1-.34,.05l-.64-.27c-.46-.19-1.04-.29-1.71-.29-1.19,0-2.17,.32-2.93,.96-.76,.64-1.14,1.48-1.14,2.5,0,.91,.29,1.66,.87,2.23,.58,.57,1.57,1.09,2.95,1.56,1.32,.44,2.13,.79,2.4,1.03,.53,.46,.8,1.04,.8,1.71s-.29,1.31-.87,1.8c-.58,.49-1.3,.74-2.14,.74s-1.61-.26-2.31-.78c-.71-.51-1.18-1.16-1.39-1.92-.1-.32-.21-.49-.35-.49-.06,0-.12,.01-.16,.05-.06,.05-.08,.14-.08,.27,0,.24,.08,.65,.24,1.21,.14,.52,.22,.8,.23,.85,.07,.35,.13,.57,.17,.66,.04,.09,.12,.18,.24,.26,.27,.18,.7,.35,1.28,.48,.58,.14,1.11,.21,1.59,.21,1.33,0,2.44-.38,3.29-1.12,.85-.75,1.28-1.72,1.28-2.89,0-1.73-1.17-2.99-3.48-3.74"/><path class="k" d="M71.45,67.72c.5-.34,1.23-.55,2.16-.64v1.79c0,.45-.1,.79-.31,.99-.34,.33-.77,.5-1.27,.5-.41,0-.74-.12-.98-.36-.24-.24-.36-.57-.36-.98,0-.52,.26-.96,.77-1.3m4.85,2.51s-.12,.01-.23,.04c-.05,.01-.12,.02-.21,.02-.31,0-.53-.11-.66-.34-.14-.24-.2-.64-.2-1.21v-3.65c0-.69-.24-1.24-.72-1.63-.47-.38-1.14-.57-2-.57-.94,0-1.7,.31-2.26,.92-.42,.45-.64,.88-.64,1.28,0,.17,.13,.32,.38,.45,.24,.13,.52,.19,.81,.19,.08,0,.15-.02,.19-.06,.04-.04,.05-.09,.05-.16,0-.09-.03-.19-.07-.31-.08-.26-.12-.49-.12-.69,0-.66,.39-.99,1.18-.99,.59,0,1.07,.18,1.42,.54,.26,.26,.39,.74,.39,1.44v1.11c-1.53,.24-2.63,.55-3.28,.95-.66,.4-1,.98-1,1.71,0,.54,.18,.98,.53,1.3,.35,.32,.83,.48,1.42,.48,.77,0,1.6-.34,2.49-1,.41,.62,.88,.93,1.4,.93,.28,0,.57-.06,.86-.18,.31-.13,.46-.25,.47-.38,0-.06-.01-.1-.04-.14-.03-.03-.09-.05-.16-.05"/><path class="k" d="M86.47,70.4l-.39-.06c-.43-.07-.68-.29-.74-.67l-.03-.44v-2.51c0-1.15-.19-2.02-.6-2.59-.59-.82-1.39-1.24-2.4-1.24-.88,0-1.73,.47-2.54,1.4v-.92c0-.14,0-.25,0-.35,0-.13-.01-.21-.06-.27-.08-.08-.22-.07-.38,.02-.05,.03-.17,.08-.36,.18l-.49,.24c-.38,.18-.78,.31-1.19,.38-.19,.04-.28,.11-.28,.23,0,.08,.04,.14,.11,.18,.05,.03,.11,.05,.18,.05h.4c.27,0,.46,.06,.56,.21,.1,.15,.15,.44,.15,.87v4.21c0,.35-.05,.6-.16,.75-.1,.15-.31,.28-.62,.39-.13,.05-.2,.13-.21,.22,0,.06,.01,.11,.04,.15,.04,.04,.09,.06,.17,.06,.06,0,.18-.01,.38-.03,.19-.03,.78-.04,1.76-.04,.47,0,.76,0,.87,.02,.21,.04,.37,.05,.48,.05,.23,0,.26-.14,.26-.22,0-.14-.12-.23-.35-.25-.81-.05-1.22-.32-1.25-.81l-.02-.75v-3.56c0-.37,.2-.71,.58-1.01,.39-.3,.84-.45,1.35-.45,.72,0,1.28,.23,1.66,.69,.39,.46,.59,1.12,.59,1.97v3.21c0,.36-.11,.57-.34,.62l-.28,.07c-.17,.04-.21,.15-.21,.23,0,.11,.05,.16,.09,.19l.15,.04,.27-.02h.36l.92-.03c.55,0,.93,.01,1.13,.04,.18,.02,.3,.03,.37,.03,.14,0,.24-.03,.3-.09,.04-.04,.06-.1,.06-.16,0-.12-.11-.2-.3-.23"/><path class="k" d="M141.92,70.42l-.43-.05c-.29-.04-.49-.13-.58-.27-.09-.14-.14-.43-.14-.86v-6.28c0-.21-.09-.27-.17-.27h-.01l-.51,.24c-.53,.28-.98,.48-1.32,.59-.34,.11-.5,.21-.51,.32,0,.04,.01,.08,.04,.11,.06,.06,.17,.09,.36,.09,.31,0,.51,.07,.6,.21,.09,.15,.14,.48,.14,.98v4.06c0,.36-.04,.63-.11,.79-.07,.16-.2,.26-.39,.33l-.18,.06c-.17,.06-.2,.17-.2,.25,0,.1,.05,.22,.3,.22,.07,0,.18,0,.35-.03,.07-.01,.17-.02,.28-.03l.68-.04h.6c.27,.01,.49,.02,.65,.03,.31,.03,.51,.04,.61,.04,.24,0,.3-.11,.3-.2,0-.16-.12-.25-.37-.29"/><path class="k" d="M137.34,70.4l-.39-.06c-.43-.07-.68-.29-.74-.67l-.03-.44v-2.51c0-1.15-.19-2.02-.6-2.59-.58-.82-1.39-1.24-2.4-1.24-.88,0-1.73,.47-2.54,1.4v-.92c0-.14,0-.25,0-.35,0-.13-.01-.21-.06-.27-.08-.08-.22-.07-.38,.02-.05,.03-.17,.08-.36,.18l-.49,.24c-.38,.18-.78,.31-1.19,.38-.19,.04-.28,.11-.28,.23,0,.08,.04,.14,.11,.18,.05,.03,.11,.05,.18,.05h.4c.27,0,.46,.06,.56,.21,.1,.15,.15,.44,.15,.87v4.21c0,.35-.05,.6-.16,.75-.1,.15-.31,.28-.62,.39-.13,.05-.2,.13-.21,.22,0,.06,.01,.11,.04,.15,.04,.04,.09,.06,.17,.06,.06,0,.18-.01,.38-.03,.19-.03,.78-.04,1.76-.04,.47,0,.76,0,.87,.02,.21,.04,.37,.05,.48,.05,.23,0,.26-.14,.26-.22,0-.14-.12-.23-.35-.25-.81-.05-1.22-.32-1.25-.81l-.02-.75v-3.56c0-.37,.2-.71,.58-1.01,.39-.3,.84-.45,1.35-.45,.72,0,1.28,.23,1.66,.69,.39,.46,.59,1.12,.59,1.97v3.21c0,.36-.11,.57-.34,.62l-.28,.07c-.17,.04-.21,.15-.21,.23,0,.11,.05,.16,.09,.19l.15,.04,.27-.02h.36l.92-.03c.55,0,.93,.01,1.13,.04,.18,.02,.3,.03,.37,.03,.14,0,.24-.03,.3-.09,.04-.04,.06-.1,.05-.16,0-.12-.11-.2-.3-.23"/><path class="k" d="M125.66,67.45c0,.95-.22,1.72-.66,2.27-.43,.55-1.03,.83-1.78,.83-.86,0-1.59-.4-2.17-1.18-.58-.79-.88-1.78-.88-2.95,0-.92,.24-1.67,.7-2.23,.46-.56,1.08-.84,1.84-.84,.86,0,1.57,.38,2.12,1.14,.55,.76,.83,1.76,.83,2.96m-2.71-4.57c-1.16,0-2.16,.4-2.97,1.2-.81,.8-1.23,1.78-1.23,2.92s.39,2.15,1.16,2.91c.77,.75,1.76,1.14,2.95,1.14s2.23-.39,3.03-1.17c.8-.78,1.2-1.77,1.2-2.96,0-1.09-.41-2.05-1.22-2.84-.81-.79-1.79-1.19-2.91-1.19"/><path class="k" d="M140.15,59.03c-.14,0-.33,.13-.57,.4-.24,.27-.35,.47-.35,.63s.11,.36,.32,.62c.22,.26,.39,.39,.53,.39s.33-.13,.56-.4c.23-.27,.34-.48,.33-.63,0-.08-.03-.17-.1-.26l-.22-.36c-.17-.27-.33-.4-.5-.4"/><path class="k" d="M97.85,64.77c0,.12-.14,.18-.42,.18h-3.07c-.38,0-.38-.16-.38-.2,0-.03,.02-.11,.12-.33l1.82-4.04c.06-.14,.1-.15,.1-.15,.04,0,.11,.04,.2,.28l1.54,3.88,.05,.17h0c.04,.12,.04,.17,.04,.2m5.05,5.62c-.58-.1-.96-.24-1.15-.42-.19-.18-.43-.64-.72-1.39l-.2-.5-4.01-10.27c-.08-.2-.17-.3-.3-.3s-.22,.1-.31,.31l-4.79,10.65-.27,.61c-.13,.28-.31,.56-.52,.82-.25,.32-.4,.41-.48,.44l-.35,.1c-.13,.04-.19,.12-.19,.25,0,.08,.04,.22,.3,.22,.01,0,.05,0,.52-.05,.1,0,.24-.01,.41-.01,.38,0,.73,0,1.03,.02l.89,.05c.14,0,.25,.01,.32,.01,.13,0,.22-.03,.27-.08,.03-.03,.05-.08,.04-.13,0-.13-.12-.22-.33-.26-.42-.09-.7-.2-.84-.33-.13-.12-.2-.32-.2-.6,0-.3,.14-.76,.41-1.38l.61-1.37c.23-.51,.36-.68,.43-.73,.07-.05,.27-.1,.83-.1h3.37c.44,0,.57,.04,.61,.07,.04,.03,.13,.16,.29,.57l.47,1.23c.38,.97,.57,1.63,.57,1.95s-.14,.53-.43,.59l-.29,.07c-.22,.04-.27,.15-.27,.24s.04,.24,.29,.24c.07,0,.17-.01,.3-.04,.21-.04,.76-.05,1.61-.05s1.4,.02,1.72,.05c.19,.01,.3,.02,.36,.02,.25,0,.3-.11,.31-.2,0-.14-.1-.24-.32-.28"/><path class="k" d="M149.68,67.45c0,.95-.22,1.72-.66,2.27-.43,.55-1.03,.83-1.78,.83-.86,0-1.59-.4-2.17-1.18-.58-.79-.88-1.78-.88-2.95,0-.92,.24-1.67,.7-2.23,.46-.56,1.08-.84,1.84-.84,.86,0,1.57,.38,2.12,1.14,.55,.76,.83,1.76,.83,2.96m-2.71-4.57c-1.16,0-2.16,.4-2.97,1.2-.81,.8-1.23,1.78-1.23,2.92s.39,2.15,1.16,2.91c.77,.75,1.76,1.14,2.95,1.14s2.23-.39,3.03-1.17c.8-.78,1.2-1.77,1.2-2.96,0-1.09-.41-2.05-1.22-2.84-.81-.79-1.79-1.19-2.91-1.19"/><path class="k" d="M112.59,70.4l-.39-.06c-.43-.07-.68-.29-.74-.67l-.03-.44v-2.51c0-1.15-.19-2.02-.6-2.59-.59-.82-1.39-1.24-2.4-1.24-.88,0-1.73,.47-2.54,1.4v-.92c0-.14,0-.25,0-.35,0-.13-.01-.21-.06-.27-.08-.08-.22-.07-.38,.02-.05,.03-.17,.08-.36,.18l-.49,.24c-.38,.18-.78,.31-1.19,.38-.19,.04-.28,.11-.28,.23,0,.08,.04,.14,.11,.18,.05,.03,.11,.05,.17,.05h.4c.27,0,.46,.06,.56,.21,.1,.15,.15,.44,.15,.87v4.21c0,.35-.05,.6-.15,.75-.1,.15-.31,.28-.62,.39-.13,.05-.2,.13-.21,.22,0,.06,.01,.11,.04,.15,.04,.04,.09,.06,.17,.06,.06,0,.18-.01,.38-.03,.19-.03,.78-.04,1.76-.04,.47,0,.76,0,.87,.02,.21,.04,.37,.05,.48,.05,.23,0,.26-.14,.26-.22,0-.14-.12-.23-.35-.25-.81-.05-1.22-.32-1.25-.81l-.02-.75v-3.56c0-.37,.2-.71,.58-1.01,.39-.3,.84-.45,1.35-.45,.72,0,1.28,.23,1.66,.69,.39,.46,.59,1.12,.59,1.97v3.21c0,.36-.11,.57-.34,.62l-.28,.07c-.17,.04-.2,.15-.2,.23,0,.09,.03,.15,.09,.19l.15,.04,.27-.02h.36l.92-.03c.55,0,.93,.01,1.13,.04,.18,.02,.3,.03,.37,.03,.14,0,.24-.03,.3-.09,.04-.04,.06-.1,.05-.16,0-.12-.11-.2-.3-.23"/><path class="k" d="M118.45,69.83l-.08,.02-.49,.23c-.25,.13-.57,.2-.94,.2-.46,0-.81-.13-1.06-.39-.16-.17-.25-.56-.25-1.15v-4.64h2.16c.23,0,.38-.1,.46-.3l.21-.53c.08-.18,.09-.23,.09-.25,0-.06,0-.1-.04-.13-.03-.02-.07-.03-.11-.02-.05,0-.13,.05-.23,.12-.14,.09-.35,.14-.61,.14h-1.94l.04-1.56c0-.24-.1-.29-.18-.29-.06,0-.16,.05-.4,.43-.38,.61-.94,1.23-1.66,1.84-.18,.15-.26,.27-.26,.37,0,.09,.05,.19,.29,.19h.78v4.65c0,1.51,.74,2.28,2.19,2.28,.43,0,.9-.12,1.39-.36,.51-.25,.76-.48,.76-.7,0-.1-.06-.15-.16-.15"/></g><line class="m" x1="60.09" y1="78.12" x2="213.02" y2="78.12"/><g id="f"><g><g><path class="l" d="M61.94,86.36c0-1.4-1.36-.98-1.36-1.36,0-.11,.07-.15,.21-.15,.59,0,.88,.06,1.51,.06s.98-.06,1.3-.06c.14,0,.27,.04,.27,.2,0,.31-.83-.08-.83,1.01v7.44c0,2.19-1.2,3.89-2.72,3.89-.43,0-.55-.1-.55-.5,0-.2,.11-.78,.31-.78,.21,0,.48,.56,.87,.56,.59,0,.98-.8,.98-2.03v-8.26Z"/><path class="l" d="M60.33,97.44c-.46,0-.6-.12-.6-.55,0-.15,.09-.83,.36-.83,.11,0,.21,.11,.34,.23,.15,.15,.33,.33,.53,.33,.56,0,.93-.8,.93-1.98v-8.26c0-.88-.55-1.01-.95-1.1-.22-.05-.41-.09-.41-.26,0-.2,.2-.2,.26-.2,.29,0,.51,.01,.73,.03s.46,.03,.78,.03c.39,0,.66-.02,.88-.04,.16-.01,.29-.02,.42-.02,.27,0,.32,.15,.32,.25,0,.15-.14,.18-.27,.21-.24,.05-.56,.13-.56,.8v7.44c0,2.21-1.22,3.94-2.77,3.94Zm-.24-1.29c-.13,0-.26,.51-.26,.73,0,.37,.09,.45,.5,.45,1.5,0,2.67-1.69,2.67-3.84v-7.44c0-.75,.38-.84,.64-.9,.14-.03,.19-.05,.19-.11,0-.04,0-.15-.22-.15-.13,0-.26,0-.42,.02-.22,.02-.5,.04-.88,.04-.32,0-.56-.01-.79-.03-.23-.01-.44-.03-.73-.03-.15,0-.16,.05-.16,.1,0,.08,.12,.12,.33,.16,.41,.09,1.03,.23,1.03,1.19v8.26c0,1.26-.4,2.08-1.03,2.08-.25,0-.44-.2-.6-.36-.1-.1-.2-.2-.27-.2Z"/></g><g><path class="l" d="M64.5,91.9c0-1.72,1.36-3.19,3.12-3.19,1.06,0,3.04,.52,3.04,3.12,0,1.72-1.3,3.04-3.03,3.04-1.82,0-3.14-1.08-3.14-2.97Zm5.18,.14c0-1.44-.6-3.03-2.27-3.03-1.37,0-1.93,1.2-1.93,2.4,0,1.37,.64,3.17,2.28,3.17,1.18,0,1.92-.8,1.92-2.54Z"/><path class="l" d="M67.64,94.92c-1.94,0-3.19-1.19-3.19-3.02s1.42-3.24,3.17-3.24c.52,0,3.09,.15,3.09,3.17,0,1.76-1.32,3.09-3.08,3.09Zm-.01-6.16c-1.69,0-3.07,1.41-3.07,3.14s1.21,2.92,3.09,2.92c1.7,0,2.98-1.29,2.98-2.99,0-2.93-2.49-3.07-2.99-3.07Zm.14,5.87c-.76,0-1.38-.38-1.8-1.09-.34-.57-.53-1.35-.53-2.12,0-1.13,.52-2.45,1.98-2.45,1.71,0,2.32,1.66,2.32,3.08,0,1.67-.7,2.58-1.97,2.58Zm-.35-5.56c-1.39,0-1.88,1.26-1.88,2.35,0,2.14,1.16,3.12,2.23,3.12,1.22,0,1.87-.86,1.87-2.49,0-2.19-1.15-2.98-2.22-2.98Z"/></g><g><path class="l" d="M72.33,91.17c0,2.31,1.4,3,2.26,3,1.2,0,1.67-.73,1.97-.73,.06,0,.06,.06,.06,.1,0,.32-1.22,1.33-2.48,1.33-2.1,0-2.83-1.95-2.83-2.87,0-1.79,.99-3.29,2.75-3.29s2.48,1.67,2.48,2.23c0,.25-.15,.24-.48,.24h-3.73Zm2.76-.38c.2,0,.28-.07,.28-.28,0-.78-.78-1.48-1.55-1.48-.87,0-1.48,.99-1.48,1.76h2.76Z"/><path class="l" d="M74.14,94.92c-2.15,0-2.88-2.01-2.88-2.92,0-1.97,1.15-3.34,2.79-3.34s2.53,1.6,2.53,2.28c0,.1-.02,.16-.07,.21-.08,.08-.21,.07-.41,.08h-3.72c.02,2.29,1.45,2.9,2.21,2.9s1.25-.32,1.56-.53c.17-.12,.29-.2,.41-.2,.11,0,.11,.11,.11,.15,0,.37-1.26,1.38-2.53,1.38Zm-.08-6.16c-1.59,0-2.7,1.33-2.7,3.24,0,.88,.7,2.82,2.78,2.82,1.25,0,2.43-.99,2.43-1.28,0-.01,0-.04,0-.05-.09,0-.21,.08-.36,.18-.32,.22-.8,.55-1.62,.55s-2.31-.64-2.31-3.05v-.05h3.82c.17,0,.29,0,.34-.05,.03-.03,.04-.07,.04-.14,0-.52-.73-2.18-2.43-2.18Zm1.04,2.09h-2.81v-.05c0-.84,.67-1.81,1.53-1.81s1.6,.75,1.6,1.53c0,.23-.1,.33-.33,.33Zm-2.71-.1h2.71c.18,0,.23-.05,.23-.23,0-.74-.73-1.44-1.5-1.44s-1.41,.88-1.43,1.67Z"/></g><g><path class="l" d="M87.73,93.24c1.01,1.54,1.69,1.02,1.69,1.36,0,.17-.78,.17-.91,.17-1.02,0-1.57-.71-2.1-1.51l-1.55-2.45c-.5-.78-.29-.74-1.86-.74-.45,0-.36,.25-.36,.39v2.96c0,1.2,1.46,.77,1.46,1.25,0,.14-.13,.11-.24,.11-.13,0-.45-.06-1.61-.06-.53,0-1.06,.06-1.6,.06-.08,0-.14-.07-.14-.15,0-.35,1.02-.15,1.02-1.22v-7.13c0-1.34-1.2-.77-1.2-1.25,0-.08,.11-.17,.28-.17,.25,0,.18,.06,.9,.06,.81,0,1.61-.06,2.34-.06,.22,0,3.32-.28,3.32,2.42,0,1.09-.78,2.03-1.76,2.42l2.34,3.54Zm-5.1-3.85c0,.27,.87,.2,1.53,.2,.6,0,1.95-.25,1.95-1.99s-1.3-2.28-2.68-2.28c-.5,0-.8-.03-.8,.52v3.56Z"/><path class="l" d="M83.95,94.82s-.06,0-.1,0c-.03,0-.08,0-.14,0-.19-.02-.59-.05-1.47-.05-.26,0-.53,.01-.8,.03-.26,.01-.53,.03-.8,.03-.11,0-.19-.09-.19-.2,0-.16,.16-.23,.34-.3,.3-.12,.68-.28,.68-.92v-7.13c0-.8-.44-.88-.79-.95-.22-.04-.42-.08-.42-.3,0-.11,.12-.22,.33-.22,.1,0,.15,0,.21,.02,.1,.02,.24,.04,.68,.04,.42,0,.83-.02,1.23-.03,.39-.01,.75-.03,1.11-.03,.01,0,.03,0,.06,0,1.48-.06,2.26,.38,2.66,.76,.43,.42,.65,.99,.65,1.72,0,1.03-.7,2-1.74,2.45l2.31,3.49c.66,1.01,1.17,1.12,1.45,1.18,.14,.03,.26,.06,.26,.21,0,.06,0,.22-.96,.22-1.04,0-1.58-.69-2.14-1.53l-1.56-2.45c-.05-.08-.1-.16-.14-.22-.29-.47-.31-.5-1.28-.5h-.4c-.14,0-.23,.03-.28,.08-.05,.05-.04,.13-.04,.2,0,.02,0,.04,0,.06v2.96c0,.7,.52,.81,.93,.91,.28,.06,.52,.12,.52,.34,0,.05-.01,.09-.04,.12-.04,.04-.09,.04-.15,.04Zm-1.71-.16c.88,0,1.28,.03,1.48,.05,.1,0,.14,0,.19,0,.05,0,.11,0,.12-.02,0,0,.01-.02,.01-.05,0-.14-.17-.18-.44-.24-.43-.09-1.01-.22-1.01-1v-2.96s0-.04,0-.06c0-.08-.01-.2,.06-.28,.07-.07,.18-.11,.35-.11h.41c1.01,0,1.04,.03,1.36,.54,.04,.06,.08,.14,.14,.22l1.55,2.45c.54,.81,1.07,1.49,2.06,1.49,.71,0,.86-.09,.86-.12,0-.07-.03-.08-.18-.11-.29-.06-.83-.18-1.51-1.22l-2.37-3.59,.06-.02c1.04-.41,1.73-1.37,1.73-2.38,0-.69-.21-1.25-.62-1.65-.38-.37-1.14-.78-2.58-.73-.03,0-.05,0-.06,0-.35,0-.72,.01-1.1,.03-.4,.01-.82,.03-1.23,.03-.45,0-.6-.02-.7-.04-.06,0-.11-.02-.2-.02-.15,0-.23,.07-.23,.12,0,.13,.12,.16,.34,.2,.35,.06,.87,.16,.87,1.05v7.13c0,.71-.45,.89-.75,1.01-.18,.07-.28,.12-.28,.21,0,.05,.03,.1,.09,.1,.26,0,.53-.01,.8-.03,.26-.01,.53-.03,.8-.03Zm1.2-5.02c-.38,0-.69-.02-.81-.14-.03-.03-.05-.07-.05-.12v-3.56c0-.21,.04-.35,.13-.44,.13-.13,.36-.13,.65-.13h.07c.82,0,2.73,.23,2.73,2.33,0,.77-.26,1.34-.77,1.69-.47,.32-1.01,.35-1.23,.35-.11,0-.23,0-.35,0-.12,0-.25,0-.37,0Zm-.15-4.28c-.24,0-.41,0-.51,.1-.07,.07-.1,.18-.1,.36v3.56s0,.03,.02,.05c.12,.12,.64,.11,1.1,.1,.12,0,.24,0,.35,0,.45,0,1.9-.14,1.9-1.94,0-2.02-1.84-2.23-2.63-2.23h-.14Z"/></g><g><path class="l" d="M90.29,93.38c.29-.34,.25-.46,.43-.46,.2,0,.14,.13,.45,.46,.27,.29,.45,.25,.45,.43s-.18,.17-.45,.48c-.31,.28-.25,.42-.45,.42-.18,0-.14-.14-.43-.42-.28-.31-.46-.29-.46-.48s.18-.14,.46-.43Z"/><path class="l" d="M90.73,94.76c-.13,0-.18-.07-.24-.16-.05-.07-.11-.16-.23-.28-.12-.13-.22-.2-.3-.26-.1-.07-.18-.13-.18-.25s.08-.17,.17-.23c.08-.05,.18-.11,.3-.24,.11-.13,.18-.23,.22-.3,.07-.11,.11-.18,.25-.18,.14,0,.18,.06,.25,.17,.05,.07,.11,.17,.23,.31,.12,.13,.22,.19,.29,.24,.09,.06,.17,.1,.17,.23s-.07,.18-.17,.25c-.08,.06-.17,.12-.29,.26-.13,.12-.2,.21-.24,.28-.06,.09-.11,.16-.24,.16Zm0-1.79c-.08,0-.09,.02-.16,.13-.05,.07-.11,.18-.23,.31h0c-.13,.14-.24,.21-.32,.26-.1,.06-.13,.08-.13,.15,0,.07,.03,.1,.14,.17,.08,.06,.19,.13,.31,.27,.13,.12,.19,.22,.24,.29,.06,.09,.08,.12,.16,.12,.08,0,.1-.03,.16-.11,.05-.07,.12-.17,.25-.3,.12-.14,.22-.21,.3-.27,.1-.07,.13-.1,.13-.17,0-.07-.03-.09-.12-.15-.08-.05-.19-.12-.31-.26-.13-.14-.19-.24-.24-.32-.06-.1-.08-.13-.17-.13Z"/></g><g><path class="l" d="M100.91,86.83c0,.07-.08,.11-.14,.11-.13,0-.17-.17-.21-.25-.34-.73-1.06-1.47-1.92-1.47-.64,0-1.16,.46-1.16,1.13,0,.94,2.07,3.15,5.1,5.95,.35-.39,.41-.9,.41-1.48,0-1.64-1.32-1.08-1.32-1.53,0-.15,.21-.13,.32-.13,.52,0,1.01,.06,1.22,.06,.18,0,.42-.06,.9-.06,.13,0,.2,.03,.2,.17,0,.22-.53,.07-.6,.69-.1,.88-.21,1.78-.66,2.58,.53,.42,1.85,1.78,2.48,1.78,.28,0,.42-.07,.52-.07s.11,.08,.11,.11c0,.24-.7,.45-1.16,.45-1.05,0-1.82-.8-2.59-1.42-1.01,.94-2.07,1.42-3.45,1.42-2.06,0-3.87-1.36-3.87-3.54,0-1.5,.74-2.65,2.24-2.97-.36-.45-.64-1.01-.64-1.6,0-1.27,1.13-1.9,2.27-1.9,.9,0,1.43,.38,1.5,.38s.13-.13,.25-.13c.2,0,.17,.27,.17,.39l.04,1.33Zm1.02,6.32c-3-2.56-4.06-4.44-4.57-4.44-.88,0-1.53,1.09-1.53,1.91,0,1.86,1.78,3.43,3.59,3.43,.9,0,1.82-.31,2.51-.9Z"/><path class="l" d="M104.98,94.92c-.91,0-1.6-.58-2.27-1.14-.11-.09-.21-.18-.31-.26-1.05,.97-2.12,1.4-3.45,1.4-1.95,0-3.92-1.23-3.92-3.59,0-1.58,.8-2.67,2.2-3-.29-.37-.6-.92-.6-1.57,0-1.34,1.2-1.95,2.32-1.95,.71,0,1.2,.24,1.41,.34,.04,.02,.08,.04,.09,.04,0,0,.03-.02,.05-.04,.04-.04,.11-.09,.2-.09,.06,0,.11,.02,.14,.06,.08,.08,.08,.23,.08,.34v.04l.04,1.33c0,.1-.11,.16-.19,.16-.14,0-.19-.14-.23-.23,0-.02-.02-.04-.02-.05-.33-.72-1.04-1.44-1.87-1.44-.63,0-1.11,.47-1.11,1.08,0,.81,1.65,2.74,5.04,5.88,.3-.36,.36-.81,.36-1.41,0-1.04-.53-1.16-.92-1.24-.21-.05-.4-.09-.4-.28,0-.05,.02-.09,.05-.12,.07-.07,.19-.06,.28-.06h.04c.32,0,.62,.02,.86,.04,.15,.01,.27,.02,.35,.02,.07,0,.14,0,.24-.02,.15-.02,.36-.04,.66-.04,.12,0,.25,.03,.25,.22,0,.12-.11,.16-.21,.2-.16,.06-.35,.14-.39,.49-.09,.81-.19,1.73-.64,2.56,.12,.1,.29,.25,.47,.41,.59,.53,1.49,1.33,1.95,1.33,.17,0,.29-.03,.38-.05,.06-.01,.1-.02,.14-.02,.11,0,.16,.08,.16,.16,0,.3-.8,.5-1.21,.5Zm-2.59-1.53l.03,.03c.12,.09,.23,.19,.35,.29,.66,.55,1.34,1.12,2.21,1.12,.49,0,1.11-.22,1.11-.4,0-.02,0-.06-.06-.06-.03,0-.07,0-.12,.02-.09,.02-.22,.05-.4,.05-.5,0-1.37-.78-2.01-1.36-.2-.18-.37-.33-.5-.43l-.03-.03,.02-.04c.46-.82,.56-1.74,.65-2.56,.05-.41,.29-.51,.46-.57,.11-.04,.15-.06,.15-.11,0-.1-.03-.12-.15-.12-.29,0-.49,.02-.65,.04-.1,.01-.18,.02-.25,.02-.08,0-.21,0-.36-.02-.24-.02-.54-.04-.86-.04-.03,0-.06,0-.1,0-.06,0-.12,0-.15,.03,0,0-.02,.02-.02,.05,0,.11,.11,.14,.32,.19,.4,.09,1,.22,1,1.34,0,.63-.07,1.13-.42,1.52l-.03,.04-.04-.03c-3.49-3.23-5.11-5.13-5.11-5.99,0-.68,.52-1.18,1.21-1.18,.88,0,1.62,.75,1.96,1.5,0,.02,.02,.03,.02,.06,.04,.09,.08,.17,.14,.17,.04,0,.09-.03,.09-.06l-.04-1.33v-.05c0-.09,0-.22-.05-.27-.02-.02-.04-.03-.07-.03-.05,0-.09,.03-.13,.07-.04,.03-.07,.06-.12,.06-.03,0-.06-.02-.13-.05-.2-.1-.68-.33-1.37-.33-1.07,0-2.22,.58-2.22,1.85,0,.65,.34,1.21,.63,1.57l.05,.06-.08,.02c-1.4,.3-2.2,1.37-2.2,2.92,0,2.29,1.92,3.49,3.82,3.49,1.32,0,2.37-.43,3.41-1.4l.03-.03Zm-2.97,.7c-1.9,0-3.64-1.66-3.64-3.48,0-.89,.7-1.96,1.58-1.96,.25,0,.59,.38,1.21,1.07,.7,.79,1.76,1.99,3.39,3.38l.04,.04-.04,.04c-.67,.58-1.6,.91-2.54,.91Zm-2.06-5.34c-.82,0-1.48,1.02-1.48,1.86,0,1.77,1.69,3.38,3.54,3.38,.9,0,1.78-.31,2.43-.85-1.61-1.38-2.66-2.56-3.36-3.35-.56-.63-.92-1.04-1.13-1.04Z"/></g><g><path class="l" d="M112.29,86.27c0-.1,.06-.63-.14-.64h-2.28c-.87,0-.9,.21-1.15,.98-.04,.14-.06,.32-.24,.32-.08,0-.14-.1-.14-.17l.15-1.36c.01-.17,0-.55,.25-.55,1.09,0,2.17,.06,3.98,.06,2.54,0,3.82-.06,4.1-.06,.32,0,.39,.08,.41,.41l.07,1.12c.01,.14,.03,.31-.15,.31-.52,0,.24-1.06-1.19-1.06h-2c-.63,0-.56-.06-.56,.69v7.14c0,1.18,1.13,.71,1.13,1.15,0,.04,.01,.17-.13,.17-.34,0-.73-.06-1.13-.06-1.57,0-1.83,.06-1.92,.06-.13,0-.17-.04-.17-.18,0-.34,1.11-.2,1.11-1.04v-7.28Z"/><path class="l" d="M114.4,94.82c-.16,0-.33-.01-.52-.03-.2-.01-.41-.03-.62-.03-1.27,0-1.69,.04-1.84,.05-.04,0-.06,0-.08,0-.16,0-.22-.07-.22-.23s.19-.23,.4-.31c.31-.11,.7-.25,.7-.73v-7.28s0-.04,0-.06c.02-.43-.04-.53-.1-.53h-2.28c-.79,0-.85,.16-1.07,.85l-.03,.1s-.01,.04-.02,.06c-.03,.12-.08,.29-.27,.29-.12,0-.19-.13-.19-.22l.15-1.36v-.07c.02-.2,.03-.52,.3-.52,.48,0,.95,.01,1.49,.02,.69,.02,1.47,.03,2.49,.03,1.9,0,3.12-.03,3.7-.05,.2,0,.33,0,.4,0,.34,0,.44,.1,.46,.45l.07,1.12c0,.09,.02,.22-.05,.3-.04,.04-.09,.06-.16,.06-.24,0-.26-.19-.28-.38-.03-.3-.07-.68-.91-.68h-2.13c-.19,0-.31,0-.35,.04-.04,.04-.04,.17-.04,.4,0,.06,0,.13,0,.2v7.14c0,.69,.41,.78,.73,.85,.21,.05,.4,.09,.4,.29,0,.05,0,.12-.05,.17-.03,.03-.07,.05-.13,.05Zm-1.13-.16c.21,0,.42,.02,.62,.03,.18,.01,.35,.03,.51,.03,.03,0,.05,0,.06-.02,.02-.02,.02-.06,.02-.09,0-.13-.11-.16-.32-.21-.34-.08-.81-.18-.81-.95v-7.14c0-.07,0-.14,0-.2,0-.27,0-.39,.07-.47,.07-.07,.18-.07,.42-.07h2.13c.94,0,.98,.46,1.01,.77,.02,.22,.04,.29,.18,.29,.04,0,.07,0,.08-.03,.04-.04,.03-.15,.02-.23l-.07-1.12c-.01-.3-.07-.36-.36-.36-.07,0-.2,0-.4,0-.58,.02-1.8,.05-3.7,.05-1.02,0-1.8-.02-2.49-.03-.54-.01-1.01-.02-1.49-.02-.16,0-.19,.21-.2,.43,0,.03,0,.05,0,.07l-.15,1.36s.04,.11,.09,.11c.11,0,.14-.08,.17-.22,0-.02,.01-.05,.02-.07l.03-.1c.22-.68,.3-.92,1.16-.92h2.28c.22,.02,.2,.43,.19,.64,0,.03,0,.05,0,.06v7.28c0,.55-.45,.71-.77,.82-.18,.06-.34,.12-.34,.21,0,.12,.02,.13,.12,.13,.01,0,.04,0,.07,0,.16-.01,.57-.05,1.85-.05Z"/></g><g><path class="l" d="M117.22,91.17c0,2.31,1.4,3,2.26,3,1.2,0,1.67-.73,1.98-.73,.06,0,.06,.06,.06,.1,0,.32-1.22,1.33-2.48,1.33-2.1,0-2.83-1.95-2.83-2.87,0-1.79,.99-3.29,2.75-3.29s2.48,1.67,2.48,2.23c0,.25-.15,.24-.48,.24h-3.73Zm2.76-.38c.2,0,.28-.07,.28-.28,0-.78-.78-1.48-1.55-1.48-.87,0-1.48,.99-1.48,1.76h2.76Z"/><path class="l" d="M119.03,94.92c-2.15,0-2.88-2.01-2.88-2.92,0-1.97,1.15-3.34,2.79-3.34s2.53,1.6,2.53,2.28c0,.1-.02,.16-.07,.21-.08,.08-.21,.07-.41,.08h-3.72c.02,2.29,1.45,2.9,2.21,2.9s1.25-.32,1.56-.53c.17-.12,.29-.2,.41-.2,.11,0,.11,.11,.11,.15,0,.37-1.26,1.38-2.53,1.38Zm-.08-6.16c-1.59,0-2.7,1.33-2.7,3.24,0,.88,.7,2.82,2.78,2.82,1.25,0,2.43-.99,2.43-1.28,0-.01,0-.04,0-.05-.09,0-.21,.08-.36,.19-.32,.22-.8,.55-1.62,.55s-2.31-.64-2.31-3.05v-.05h3.82c.17,0,.29,0,.34-.05,.03-.03,.04-.07,.04-.14,0-.52-.73-2.18-2.43-2.18Zm1.04,2.09h-2.81v-.05c0-.84,.67-1.81,1.53-1.81s1.6,.75,1.6,1.53c0,.23-.1,.33-.33,.33Zm-2.71-.1h2.71c.18,0,.23-.05,.23-.23,0-.74-.73-1.44-1.5-1.44s-1.41,.88-1.43,1.67Z"/></g><g><path class="l" d="M123.77,93.54c0,1.3,1.25,.63,1.25,1.08,0,.13-.07,.15-.22,.15-.2,0-.53-.06-1.32-.06-.94,0-1.19,.06-1.29,.06-.11,0-.15-.04-.15-.13,0-.29,.71-.24,.71-.81v-3.61c0-.84-1.01-.48-1.01-.77,0-.08,.11-.14,.18-.15,1.08-.25,1.36-.7,1.68-.7,.08,0,.17,.08,.17,.22v1.05h.03c.29-.41,.8-1.16,1.39-1.16,.29,0,.92,.36,.92,.63,0,.21-.34,.63-.5,.63-.27,0-.42-.32-.92-.32-.57,0-.91,.64-.91,.83v3.07Z"/><path class="l" d="M124.79,94.82c-.07,0-.15,0-.26-.01-.21-.02-.54-.04-1.06-.04-.71,0-1.02,.03-1.18,.05-.05,0-.09,0-.11,0-.14,0-.2-.06-.2-.18,0-.15,.14-.23,.3-.3,.2-.1,.42-.21,.42-.51v-3.61c0-.48-.36-.53-.65-.57-.18-.02-.36-.05-.36-.2,0-.12,.13-.19,.22-.2,.63-.15,.98-.36,1.23-.51,.18-.11,.31-.19,.46-.19,.11,0,.22,.1,.22,.27v.93c.3-.41,.79-1.1,1.37-1.1,.31,0,.97,.38,.97,.68,0,.22-.34,.68-.55,.68-.13,0-.23-.06-.34-.13-.15-.09-.31-.19-.59-.19-.54,0-.86,.62-.86,.78v3.07c0,.77,.45,.81,.82,.83,.22,.02,.43,.03,.43,.24s-.18,.2-.27,.2Zm-1.32-.16c.52,0,.85,.02,1.07,.04,.11,0,.19,.01,.25,.01,.16,0,.17-.03,.17-.1,0-.11-.1-.13-.34-.14-.36-.03-.91-.07-.91-.93v-3.07c0-.21,.35-.88,.96-.88,.31,0,.49,.11,.64,.21,.1,.06,.19,.12,.28,.12,.13,0,.45-.39,.45-.58,0-.22-.59-.58-.87-.58-.53,0-1,.67-1.29,1.06l-.07,.1h-.1v-1.1c0-.11-.06-.17-.12-.17-.12,0-.24,.07-.41,.18-.26,.16-.62,.37-1.26,.52-.06,.01-.14,.06-.14,.1,0,.06,.1,.08,.27,.1,.29,.04,.74,.1,.74,.67v3.61c0,.37-.27,.5-.47,.6-.15,.07-.24,.12-.24,.21,0,.04,0,.08,.1,.08,.02,0,.05,0,.1,0,.15-.02,.48-.05,1.19-.05Z"/></g><g><path class="l" d="M127.25,91.17c0,2.31,1.4,3,2.26,3,1.2,0,1.67-.73,1.97-.73,.06,0,.06,.06,.06,.1,0,.32-1.22,1.33-2.48,1.33-2.1,0-2.83-1.95-2.83-2.87,0-1.79,.99-3.29,2.75-3.29s2.48,1.67,2.48,2.23c0,.25-.15,.24-.48,.24h-3.73Zm2.76-.38c.2,0,.28-.07,.28-.28,0-.78-.78-1.48-1.55-1.48-.87,0-1.48,.99-1.48,1.76h2.76Z"/><path class="l" d="M129.05,94.92c-2.15,0-2.88-2.01-2.88-2.92,0-1.97,1.15-3.34,2.79-3.34s2.53,1.6,2.53,2.28c0,.1-.02,.16-.07,.21-.08,.08-.21,.07-.41,.08h-3.72c.02,2.29,1.45,2.9,2.21,2.9s1.25-.32,1.56-.53c.17-.12,.29-.2,.41-.2,.11,0,.11,.11,.11,.15,0,.37-1.26,1.38-2.53,1.38Zm-.08-6.16c-1.59,0-2.7,1.33-2.7,3.24,0,.88,.7,2.82,2.78,2.82,1.25,0,2.43-.99,2.43-1.28,0-.01,0-.04,0-.05-.09,0-.21,.08-.36,.18-.32,.22-.8,.55-1.62,.55s-2.31-.64-2.31-3.05v-.05h3.82c.17,0,.29,0,.34-.05,.03-.03,.04-.07,.04-.14,0-.52-.73-2.18-2.43-2.18Zm1.04,2.09h-2.81v-.05c0-.84,.67-1.81,1.53-1.81s1.6,.75,1.6,1.53c0,.23-.1,.33-.33,.33Zm-2.71-.1h2.71c.18,0,.23-.05,.23-.23,0-.74-.73-1.44-1.5-1.44s-1.41,.88-1.43,1.67Z"/></g><g><path class="l" d="M132.29,90.38c0-1.12,.87-1.68,1.89-1.68,.24,0,1.2,.11,1.37,.32,.08,.11,.07,.59,.07,.69,0,.38,.06,.55-.15,.55-.14,0-.27-1.22-1.54-1.22-.55,0-.98,.32-.98,.9,0,.46,.36,.76,1.83,1.34,.8,.34,1.16,.77,1.16,1.67,0,1.05-.85,1.92-1.89,1.92-.98,0-1.23-.41-1.57-.41-.31,0-.31-.01-.31-1.12,0-.24-.04-.69,.17-.69,.31,0,.15,1.85,1.67,1.85,.69,0,1.25-.42,1.25-1.15s-.71-.97-1.27-1.23c-.76-.38-1.69-.74-1.69-1.74Z"/><path class="l" d="M134.05,94.92c-.63,0-.97-.17-1.21-.29-.14-.07-.24-.12-.36-.12-.36,0-.36-.07-.36-1.17,0-.03,0-.07,0-.1,0-.21,0-.47,.1-.58,.03-.03,.07-.05,.12-.05,.13,0,.19,.18,.27,.46,.16,.55,.4,1.39,1.4,1.39,.6,0,1.2-.34,1.2-1.1,0-.62-.53-.86-1.04-1.09-.07-.03-.14-.06-.2-.09-.07-.03-.13-.07-.2-.1-.71-.35-1.52-.74-1.52-1.68,0-1.05,.76-1.73,1.94-1.73,.17,0,1.21,.09,1.41,.34,.08,.1,.08,.4,.08,.68v.04c0,.07,0,.14,0,.2,0,.18,0,.28-.05,.35-.03,.04-.08,.05-.15,.05s-.1-.08-.17-.22c-.16-.35-.45-1-1.38-1-.56,0-.93,.34-.93,.85,0,.45,.4,.74,1.8,1.3,.86,.36,1.19,.84,1.19,1.71,0,1.09-.87,1.97-1.94,1.97Zm-1.71-2.21s-.04,0-.05,.02c-.08,.08-.07,.34-.07,.51,0,.04,0,.07,0,.11q0,1.07,.26,1.07c.14,0,.25,.06,.4,.13,.24,.12,.56,.28,1.17,.28,1.02,0,1.84-.84,1.84-1.87,0-.83-.31-1.27-1.13-1.62-1.46-.59-1.87-.88-1.87-1.39,0-.57,.41-.95,1.03-.95,.99,0,1.31,.71,1.47,1.06,.03,.07,.07,.15,.09,.16,.05,0,.07-.02,.07-.02,.03-.04,.03-.14,.03-.28,0-.06,0-.12,0-.2v-.04c0-.35-.02-.56-.06-.62-.14-.18-1.06-.3-1.33-.3-.85,0-1.84,.43-1.84,1.63,0,.88,.75,1.24,1.47,1.59,.07,.03,.13,.07,.2,.1,.06,.03,.13,.06,.2,.09,.52,.23,1.1,.5,1.1,1.19s-.53,1.2-1.3,1.2c-1.08,0-1.34-.91-1.5-1.46-.05-.18-.11-.39-.17-.39Z"/></g><g><path class="l" d="M140.18,90.29c0-.73-.57-1.22-1.44-1.22-.67,0-1.22,.07-1.22,.84,0,.21,.08,.42,.08,.57s-.04,.27-.31,.27c-.24,0-.66-.21-.66-.46,.01-.64,.8-1.62,2.35-1.58,.87,0,2.21,.25,2.21,1.44v2.9c0,.48-.13,1.3,.6,1.3,.06,0,.18-.03,.24-.03,.07,0,.18,0,.18,.1,0,.29-.62,.35-.81,.35-.55,0-.91-.25-1.09-.71-.59,.5-1.36,.81-2.14,.81-.91,0-1.51-.34-1.51-1.33,0-.74,.24-1.62,3.52-2.17v-1.08Zm0,1.41c-.9,.2-2.61,.42-2.61,1.65,0,.8,.41,1.11,1.15,1.11,.5,0,1.46-.39,1.46-1.13v-1.62Z"/><path class="l" d="M138.17,94.92c-1.05,0-1.56-.45-1.56-1.38,0-.78,.27-1.67,3.52-2.21v-1.04c0-.7-.56-1.17-1.39-1.17-.66,0-1.17,.06-1.17,.79,0,.11,.02,.22,.05,.32,.02,.09,.04,.18,.04,.25,0,.16-.04,.32-.36,.32-.24,0-.71-.22-.71-.51,0-.33,.19-.69,.5-.98,.44-.42,1.08-.65,1.81-.65,.03,0,.06,0,.09,0,.53,0,2.26,.11,2.26,1.49v2.9c0,.06,0,.12,0,.19,0,.32-.02,.72,.18,.93,.09,.09,.21,.14,.38,.14,.02,0,.07,0,.11-.01,.05,0,.09-.01,.13-.01,.07,0,.23,0,.23,.15,0,.4-.85,.4-.86,.4-.53,0-.91-.24-1.11-.68-.6,.5-1.37,.78-2.12,.78Zm.56-5.9c.89,0,1.49,.51,1.49,1.27v1.12h-.04c-3.21,.54-3.47,1.38-3.47,2.13,0,.87,.46,1.28,1.46,1.28,.75,0,1.52-.29,2.11-.8l.05-.05,.03,.06c.18,.45,.53,.68,1.05,.68,.25,0,.76-.07,.76-.3,0-.03-.02-.05-.13-.05-.02,0-.07,0-.11,.01-.05,0-.09,.01-.13,.01-.19,0-.35-.06-.45-.17-.23-.23-.21-.66-.2-1,0-.07,0-.13,0-.19v-2.9c0-1.29-1.66-1.39-2.16-1.39-.03,0-.06,0-.09,0-.7,0-1.32,.22-1.74,.62-.29,.27-.46,.62-.47,.91,0,.21,.38,.41,.61,.41s.26-.09,.26-.22c0-.07-.02-.15-.04-.23-.02-.1-.05-.22-.05-.34,0-.82,.6-.89,1.27-.89Zm-.01,5.49c-.82,0-1.2-.37-1.2-1.16,0-1.16,1.43-1.45,2.38-1.65,.09-.02,.18-.04,.27-.06h.06v1.67c0,.78-.98,1.18-1.51,1.18Zm1.41-2.75c-.07,.01-.14,.03-.21,.04-.92,.19-2.3,.47-2.3,1.55,0,.73,.34,1.06,1.1,1.06,.48,0,1.41-.38,1.41-1.08v-1.56Z"/></g><g><path class="l" d="M147.92,93.05c0,.83-.11,1.16,1.06,1.16,3.24,0,3.71-1.44,3.89-1.44,.1,0,.11,.14,.11,.17,0,.5-.36,.99-.7,1.36-.45,.5-.76,.48-1.37,.48-1.06,0-2.13-.08-3.19-.06-.56,.01-1.15,.06-1.71,.06-.13,0-.21-.03-.21-.14,.03-.17,.17-.14,.62-.36,.36-.17,.39-.56,.39-1.22v-7.1c0-.73-1.18-.63-1.18-.91,0-.15,.1-.18,.28-.18,.29,0,.73,.06,1.42,.06,.8,0,1.13-.06,1.34-.06,.18,0,.27,.03,.27,.2,0,.32-1.02-.03-1.02,1.19v6.81Z"/><path class="l" d="M151.09,94.82h-.18c-.46,0-.92-.02-1.37-.03-.6-.02-1.21-.04-1.82-.03-.22,0-.45,.02-.67,.03-.34,.01-.7,.03-1.04,.03-.06,0-.26,0-.26-.19,.02-.15,.11-.18,.28-.25,.09-.04,.21-.08,.36-.16,.33-.15,.36-.49,.36-1.17v-7.1c0-.41-.42-.54-.76-.64-.24-.07-.42-.13-.42-.27,0-.21,.17-.23,.33-.23,.12,0,.26,0,.43,.02,.26,.02,.58,.04,.99,.04,.53,0,.85-.02,1.07-.04,.11,0,.2-.02,.27-.02,.17,0,.32,.02,.32,.25,0,.15-.15,.19-.31,.23-.3,.08-.71,.19-.71,.96v6.81c0,.07,0,.14,0,.2,0,.35,0,.58,.13,.72,.13,.13,.4,.19,.89,.19,2.59,0,3.4-.94,3.7-1.29,.09-.1,.13-.16,.19-.16,.12,0,.16,.13,.16,.22,0,.42-.23,.87-.71,1.39-.42,.47-.72,.49-1.23,.49Zm-2.92-.16c.46,0,.92,.02,1.37,.03,.45,.02,.91,.03,1.37,.03h.09c.56,0,.83,0,1.24-.46,.46-.5,.69-.94,.69-1.33,0,0,0-.12-.06-.12-.02,0-.07,.07-.12,.12-.31,.36-1.14,1.32-3.78,1.32-.52,0-.8-.07-.96-.22-.17-.17-.16-.43-.16-.8,0-.06,0-.13,0-.2v-6.81c0-.84,.47-.97,.79-1.06,.17-.05,.24-.07,.24-.13,0-.12-.03-.15-.22-.15-.07,0-.16,0-.27,.02-.22,.02-.55,.04-1.08,.04-.42,0-.74-.02-1-.04-.16-.01-.3-.02-.42-.02-.2,0-.23,.03-.23,.13,0,.07,.18,.12,.35,.18,.35,.1,.83,.25,.83,.74v7.1c0,.67-.03,1.08-.42,1.26-.16,.08-.28,.13-.37,.16-.17,.07-.21,.09-.22,.16,0,.04,.01,.08,.16,.08,.34,0,.69-.02,1.03-.03,.23-.01,.45-.02,.67-.03,.15,0,.3,0,.45,0Z"/></g><g><path class="l" d="M153.41,91.9c0-1.72,1.36-3.19,3.12-3.19,1.06,0,3.04,.52,3.04,3.12,0,1.72-1.3,3.04-3.03,3.04-1.82,0-3.14-1.08-3.14-2.97Zm5.18,.14c0-1.44-.6-3.03-2.27-3.03-1.37,0-1.93,1.2-1.93,2.4,0,1.37,.64,3.17,2.28,3.17,1.18,0,1.92-.8,1.92-2.54Z"/><path class="l" d="M156.55,94.92c-1.94,0-3.19-1.19-3.19-3.02s1.42-3.24,3.17-3.24c.52,0,3.09,.15,3.09,3.17,0,1.76-1.32,3.09-3.08,3.09Zm-.01-6.16c-1.69,0-3.07,1.41-3.07,3.14s1.21,2.92,3.09,2.92c1.7,0,2.98-1.29,2.98-2.99,0-2.93-2.49-3.07-2.99-3.07Zm.14,5.87c-.76,0-1.38-.38-1.8-1.09-.34-.57-.53-1.35-.53-2.12,0-1.13,.52-2.45,1.98-2.45,1.71,0,2.32,1.66,2.32,3.08,0,1.67-.7,2.58-1.97,2.58Zm-.35-5.56c-1.39,0-1.88,1.26-1.88,2.35,0,2.14,1.16,3.12,2.23,3.12,1.22,0,1.87-.86,1.87-2.49,0-2.19-1.15-2.98-2.22-2.98Z"/></g><g><path class="l" d="M160.91,93.89h1.99c.88,0,.69-.99,1.01-.99,.1,0,.14,.04,.14,.13,0,.22-.38,1.18-.38,1.34,0,.14-.06,.35-.36,.35h-3c-.13,0-.21-.03-.21-.18,0-.06,.01-.11,.13-.29l2.84-4.47h-1.92c-.83,0-.5,.77-.91,.77-.13,0-.13-.11-.13-.17,0-.13,.24-1.46,.46-1.46h3.07c.17,0,.27,.04,.27,.22,0,.15-.42,.71-.52,.87l-2.48,3.88Z"/><path class="l" d="M163.31,94.76h-3c-.12,0-.26-.03-.26-.23,0-.07,.02-.14,.13-.32l2.79-4.39h-1.83c-.45,0-.53,.23-.6,.45-.05,.16-.11,.32-.31,.32-.12,0-.18-.07-.18-.22,0-.06,.22-1.51,.51-1.51h3.07c.15,0,.32,.03,.32,.27,0,.12-.2,.42-.42,.74-.05,.07-.09,.12-.11,.16l-2.43,3.8h1.9c.51,0,.64-.36,.73-.64,.06-.19,.12-.35,.28-.35,.17,0,.19,.11,.19,.18,0,.13-.11,.46-.21,.77-.08,.25-.17,.5-.17,.57,0,.12-.04,.4-.41,.4Zm-2.16-5.04h2.01l-.05,.08-2.84,4.47c-.11,.18-.12,.22-.12,.27,0,.1,.03,.13,.16,.13h3c.26,0,.31-.16,.31-.3,0-.08,.06-.28,.17-.6,.1-.29,.21-.63,.21-.74,0-.05-.01-.08-.09-.08-.08,0-.12,.11-.18,.28-.1,.3-.24,.71-.83,.71h-2.08l.05-.08,2.48-3.88s.06-.09,.11-.16c.13-.19,.4-.58,.4-.68,0-.13-.05-.17-.22-.17h-3.07c-.15,0-.41,1.19-.41,1.41,0,.09,.02,.12,.08,.12,.13,0,.16-.09,.21-.25,.07-.22,.17-.52,.7-.52Z"/></g><g><path class="l" d="M168.2,90.29c0-.73-.57-1.22-1.44-1.22-.67,0-1.22,.07-1.22,.84,0,.21,.08,.42,.08,.57s-.04,.27-.31,.27c-.24,0-.66-.21-.66-.46,.01-.64,.8-1.62,2.35-1.58,.87,0,2.21,.25,2.21,1.44v2.9c0,.48-.13,1.3,.6,1.3,.06,0,.18-.03,.24-.03,.07,0,.18,0,.18,.1,0,.29-.62,.35-.81,.35-.55,0-.91-.25-1.09-.71-.59,.5-1.36,.81-2.14,.81-.91,0-1.51-.34-1.51-1.33,0-.74,.24-1.62,3.52-2.17v-1.08Zm0,1.41c-.9,.2-2.61,.42-2.61,1.65,0,.8,.41,1.11,1.15,1.11,.5,0,1.46-.39,1.46-1.13v-1.62Z"/><path class="l" d="M166.2,94.92c-1.05,0-1.56-.45-1.56-1.38,0-.78,.27-1.67,3.52-2.21v-1.04c0-.7-.56-1.17-1.39-1.17-.66,0-1.17,.06-1.17,.79,0,.11,.02,.22,.05,.32,.02,.09,.04,.18,.04,.25,0,.16-.04,.32-.36,.32-.24,0-.71-.22-.71-.51,0-.33,.19-.69,.5-.98,.44-.42,1.08-.65,1.81-.65,.03,0,.06,0,.09,0,.53,0,2.26,.11,2.26,1.49v2.9c0,.06,0,.12,0,.19,0,.32-.02,.72,.18,.93,.09,.09,.21,.14,.38,.14,.02,0,.07,0,.11-.01,.05,0,.09-.01,.13-.01,.07,0,.23,0,.23,.15,0,.4-.85,.4-.86,.4-.53,0-.91-.24-1.11-.68-.6,.5-1.37,.78-2.12,.78Zm.56-5.9c.89,0,1.49,.51,1.49,1.27v1.12h-.04c-3.21,.54-3.47,1.38-3.47,2.13,0,.87,.46,1.28,1.46,1.28,.75,0,1.52-.29,2.11-.8l.05-.05,.03,.06c.18,.45,.53,.68,1.05,.68,.25,0,.76-.07,.76-.3,0-.03-.02-.05-.13-.05-.02,0-.07,0-.11,.01-.05,0-.09,.01-.13,.01-.19,0-.35-.06-.45-.17-.23-.23-.21-.66-.2-1,0-.07,0-.13,0-.19v-2.9c0-1.29-1.66-1.39-2.16-1.39-.03,0-.06,0-.09,0-.7,0-1.32,.22-1.74,.62-.29,.27-.46,.62-.47,.91,0,.21,.38,.41,.61,.41s.26-.09,.26-.22c0-.07-.02-.15-.04-.23-.02-.1-.05-.22-.05-.34,0-.82,.6-.89,1.27-.89Zm-.01,5.49c-.82,0-1.2-.37-1.2-1.16,0-1.16,1.43-1.45,2.38-1.65,.09-.02,.18-.04,.27-.06h.06v1.67c0,.78-.98,1.18-1.51,1.18Zm1.41-2.75c-.07,.01-.14,.03-.21,.04-.92,.19-2.3,.47-2.3,1.55,0,.73,.34,1.06,1.1,1.06,.48,0,1.41-.38,1.41-1.08v-1.56Z"/></g><g><path class="l" d="M172.54,93.63c0,.97,1.23,.56,1.23,.94,0,.17-.1,.2-.31,.2-.24,0-.52-.06-1.33-.06-.74,0-1.02,.06-1.19,.06-.18,0-.25-.03-.25-.17,0-.28,.83,0,.83-.91v-3.47c0-.84-1.04-.48-1.04-.77,0-.08,.06-.14,.13-.15,1.16-.25,1.44-.7,1.76-.7,.08,0,.17,.08,.17,.22v.92c-.03,.17,.67-1.04,2.03-1.04,1.88,0,2.28,1.55,2.28,2.62v2.31c0,.97,1.09,.56,1.09,.94,0,.17-.1,.2-.24,.2-.18,0-.53-.06-1.22-.06-.53,0-.83,.06-1.01,.06s-.25-.03-.25-.17c0-.28,.6,0,.6-.91v-2.62c0-.7-.5-1.75-1.64-1.75s-1.67,.87-1.65,1.09v3.22Z"/><path class="l" d="M177.71,94.82c-.06,0-.15,0-.25-.02-.2-.02-.51-.04-.96-.04-.33,0-.57,.02-.75,.04-.11,0-.19,.02-.26,.02-.16,0-.3-.02-.3-.22,0-.13,.11-.17,.21-.21,.18-.07,.39-.15,.39-.7v-2.62c0-.69-.5-1.7-1.59-1.7-.72,0-1.14,.33-1.32,.53-.2,.21-.28,.43-.28,.51v3.22c0,.55,.42,.62,.78,.68,.23,.04,.45,.07,.45,.26,0,.23-.17,.25-.36,.25-.09,0-.18,0-.29-.02-.22-.02-.51-.04-1.04-.04s-.79,.03-.98,.04c-.09,0-.16,.01-.21,.01-.16,0-.3-.02-.3-.22,0-.14,.13-.17,.28-.21,.24-.07,.55-.15,.55-.7v-3.47c0-.48-.37-.53-.67-.57-.19-.02-.37-.05-.37-.2,0-.1,.07-.18,.17-.2,.69-.15,1.07-.37,1.33-.52,.18-.1,.31-.18,.45-.18,.11,0,.22,.1,.22,.27v.83h.01c.25-.28,.91-.99,1.97-.99,2.17,0,2.33,2.04,2.33,2.67v2.31c0,.55,.37,.62,.69,.68,.21,.04,.4,.07,.4,.26,0,.25-.2,.25-.29,.25Zm-1.22-.16c.45,0,.77,.02,.97,.04,.36,.03,.44,.03,.44-.13,0-.1-.12-.12-.32-.16-.33-.06-.77-.14-.77-.78v-2.31c0-2.32-1.56-2.57-2.23-2.57-1.02,0-1.65,.69-1.89,.95-.09,.1-.12,.12-.16,.1-.01,0-.04-.02-.03-.07v-.92c0-.11-.06-.17-.12-.17-.11,0-.23,.07-.4,.17-.26,.15-.65,.38-1.36,.53-.04,0-.09,.04-.09,.1,0,.06,.11,.08,.28,.1,.3,.04,.76,.1,.76,.67v3.47c0,.62-.37,.73-.62,.79-.14,.04-.2,.06-.2,.12,0,.09,.02,.12,.2,.12,.05,0,.12,0,.21-.01,.19-.02,.48-.04,.99-.04s.83,.02,1.05,.04c.11,0,.2,.02,.28,.02,.22,0,.26-.04,.26-.15,0-.1-.14-.12-.36-.16-.37-.06-.87-.14-.87-.78v-3.22c0-.12,.1-.35,.31-.58,.2-.21,.64-.56,1.4-.56,1.15,0,1.69,1.07,1.69,1.8v2.62c0,.62-.28,.72-.46,.79-.11,.04-.14,.06-.14,.12,0,.09,.02,.12,.2,.12,.06,0,.15,0,.25-.02,.18-.02,.42-.04,.76-.04Z"/></g><g><path class="l" d="M177.99,91.9c0-1.72,1.36-3.19,3.12-3.19,1.06,0,3.04,.52,3.04,3.12,0,1.72-1.3,3.04-3.03,3.04-1.82,0-3.14-1.08-3.14-2.97Zm5.18,.14c0-1.44-.6-3.03-2.27-3.03-1.37,0-1.93,1.2-1.93,2.4,0,1.37,.64,3.17,2.28,3.17,1.18,0,1.92-.8,1.92-2.54Z"/><path class="l" d="M181.13,94.92c-1.94,0-3.19-1.19-3.19-3.02s1.42-3.24,3.17-3.24c.52,0,3.09,.15,3.09,3.17,0,1.76-1.32,3.09-3.08,3.09Zm-.01-6.16c-1.69,0-3.07,1.41-3.07,3.14s1.21,2.92,3.09,2.92c1.7,0,2.98-1.29,2.98-2.99,0-2.93-2.49-3.07-2.99-3.07Zm.14,5.87c-.76,0-1.38-.38-1.8-1.09-.34-.57-.53-1.35-.53-2.12,0-1.13,.52-2.45,1.98-2.45,1.71,0,2.32,1.66,2.32,3.08,0,1.67-.7,2.58-1.97,2.58Zm-.35-5.56c-1.39,0-1.88,1.26-1.88,2.35,0,2.14,1.16,3.12,2.23,3.12,1.22,0,1.87-.86,1.87-2.49,0-2.19-1.15-2.98-2.22-2.98Z"/></g><g><path class="l" d="M190.19,93.05c0,.83-.11,1.16,1.06,1.16,3.24,0,3.71-1.44,3.89-1.44,.1,0,.11,.14,.11,.17,0,.5-.36,.99-.7,1.36-.45,.5-.76,.48-1.37,.48-1.06,0-2.13-.08-3.19-.06-.56,.01-1.15,.06-1.71,.06-.13,0-.21-.03-.21-.14,.03-.17,.17-.14,.62-.36,.36-.17,.39-.56,.39-1.22v-7.1c0-.73-1.18-.63-1.18-.91,0-.15,.1-.18,.28-.18,.29,0,.73,.06,1.42,.06,.8,0,1.13-.06,1.34-.06,.18,0,.27,.03,.27,.2,0,.32-1.02-.03-1.02,1.19v6.81Z"/><path class="l" d="M193.36,94.82h-.18c-.46,0-.92-.02-1.37-.03-.6-.02-1.21-.04-1.82-.03-.22,0-.45,.02-.67,.03-.34,.01-.7,.03-1.04,.03-.06,0-.26,0-.26-.19,.02-.15,.11-.18,.28-.25,.09-.04,.21-.08,.36-.16,.33-.15,.36-.49,.36-1.17v-7.1c0-.41-.42-.54-.76-.64-.24-.07-.42-.13-.42-.27,0-.21,.17-.23,.33-.23,.12,0,.26,0,.43,.02,.26,.02,.58,.04,.99,.04,.53,0,.85-.02,1.07-.04,.11,0,.2-.02,.27-.02,.17,0,.32,.02,.32,.25,0,.15-.15,.19-.31,.23-.3,.08-.71,.19-.71,.96v6.81c0,.07,0,.14,0,.2,0,.35,0,.58,.13,.72,.13,.13,.4,.19,.89,.19,2.59,0,3.4-.94,3.7-1.29,.09-.1,.13-.16,.19-.16,.12,0,.16,.13,.16,.22,0,.42-.23,.87-.71,1.39-.42,.47-.72,.49-1.23,.49Zm-2.92-.16c.46,0,.92,.02,1.37,.03,.45,.02,.91,.03,1.37,.03h.09c.56,0,.83,0,1.24-.46,.46-.5,.69-.94,.69-1.33,0,0,0-.12-.06-.12-.02,0-.07,.07-.12,.12-.31,.36-1.14,1.32-3.78,1.32-.52,0-.8-.07-.96-.22-.17-.17-.16-.43-.16-.8,0-.06,0-.13,0-.2v-6.81c0-.84,.47-.97,.79-1.06,.17-.05,.24-.07,.24-.13,0-.12-.03-.15-.22-.15-.07,0-.16,0-.27,.02-.22,.02-.55,.04-1.08,.04-.42,0-.74-.02-1-.04-.16-.01-.3-.02-.42-.02-.2,0-.23,.03-.23,.13,0,.07,.18,.12,.35,.18,.35,.1,.83,.25,.83,.74v7.1c0,.67-.03,1.08-.42,1.26-.16,.08-.28,.13-.37,.16-.17,.07-.21,.09-.22,.16,0,.04,.01,.08,.16,.08,.34,0,.69-.02,1.03-.03,.23-.01,.45-.02,.67-.03,.15,0,.3,0,.45,0Z"/></g><g><path class="l" d="M195.68,91.9c0-1.72,1.36-3.19,3.12-3.19,1.06,0,3.04,.52,3.04,3.12,0,1.72-1.3,3.04-3.03,3.04-1.82,0-3.14-1.08-3.14-2.97Zm5.18,.14c0-1.44-.6-3.03-2.27-3.03-1.37,0-1.93,1.2-1.93,2.4,0,1.37,.64,3.17,2.28,3.17,1.18,0,1.92-.8,1.92-2.54Z"/><path class="l" d="M198.82,94.92c-1.94,0-3.19-1.19-3.19-3.02s1.42-3.24,3.17-3.24c.52,0,3.09,.15,3.09,3.17,0,1.76-1.32,3.09-3.08,3.09Zm-.01-6.16c-1.69,0-3.07,1.41-3.07,3.14s1.21,2.92,3.09,2.92c1.7,0,2.98-1.29,2.98-2.99,0-2.93-2.49-3.07-2.99-3.07Zm.14,5.87c-.76,0-1.38-.38-1.8-1.09-.34-.57-.53-1.35-.53-2.12,0-1.13,.52-2.45,1.98-2.45,1.71,0,2.32,1.66,2.32,3.08,0,1.67-.7,2.58-1.97,2.58Zm-.35-5.56c-1.39,0-1.88,1.26-1.88,2.35,0,2.14,1.16,3.12,2.23,3.12,1.22,0,1.87-.86,1.87-2.49,0-2.19-1.15-2.98-2.22-2.98Z"/></g><g><path class="l" d="M204.12,93.63c0,.97,1.23,.56,1.23,.94,0,.17-.1,.2-.31,.2-.24,0-.52-.06-1.33-.06-.74,0-1.02,.06-1.19,.06-.18,0-.25-.03-.25-.17,0-.28,.83,0,.83-.91v-3.47c0-.84-1.04-.48-1.04-.77,0-.08,.06-.14,.13-.15,1.16-.25,1.44-.7,1.76-.7,.08,0,.17,.08,.17,.22v.92c-.03,.17,.67-1.04,2.03-1.04,1.88,0,2.28,1.55,2.28,2.62v2.31c0,.97,1.09,.56,1.09,.94,0,.17-.1,.2-.24,.2-.18,0-.53-.06-1.22-.06-.53,0-.83,.06-1.01,.06s-.25-.03-.25-.17c0-.28,.6,0,.6-.91v-2.62c0-.7-.5-1.75-1.64-1.75s-1.67,.87-1.65,1.09v3.22Z"/><path class="l" d="M209.29,94.82c-.06,0-.15,0-.25-.02-.2-.02-.51-.04-.96-.04-.33,0-.57,.02-.75,.04-.11,0-.19,.02-.26,.02-.16,0-.3-.02-.3-.22,0-.13,.11-.17,.21-.21,.18-.07,.39-.15,.39-.7v-2.62c0-.69-.5-1.7-1.59-1.7-.72,0-1.14,.33-1.32,.53-.2,.21-.28,.43-.28,.51v3.22c0,.55,.42,.62,.78,.68,.23,.04,.45,.07,.45,.26,0,.23-.17,.25-.36,.25-.09,0-.18,0-.29-.02-.22-.02-.51-.04-1.04-.04s-.79,.03-.98,.04c-.09,0-.16,.01-.21,.01-.16,0-.3-.02-.3-.22,0-.14,.13-.17,.28-.21,.24-.07,.55-.15,.55-.7v-3.47c0-.48-.37-.53-.67-.57-.19-.02-.37-.05-.37-.2,0-.1,.07-.18,.17-.2,.69-.15,1.07-.37,1.33-.52,.18-.1,.31-.18,.45-.18,.11,0,.22,.1,.22,.27v.83h.01c.25-.28,.91-.99,1.97-.99,2.17,0,2.33,2.04,2.33,2.67v2.31c0,.55,.37,.62,.69,.68,.21,.04,.4,.07,.4,.26,0,.25-.2,.25-.29,.25Zm-1.22-.16c.45,0,.77,.02,.97,.04,.36,.03,.44,.03,.44-.13,0-.1-.12-.12-.32-.16-.33-.06-.77-.14-.77-.78v-2.31c0-2.32-1.56-2.57-2.23-2.57-1.02,0-1.65,.69-1.89,.95-.09,.1-.12,.12-.16,.1-.01,0-.04-.02-.03-.07v-.92c0-.11-.06-.17-.12-.17-.11,0-.23,.07-.4,.17-.26,.15-.65,.38-1.36,.53-.04,0-.09,.04-.09,.1,0,.06,.11,.08,.28,.1,.3,.04,.76,.1,.76,.67v3.47c0,.62-.37,.73-.62,.79-.14,.04-.2,.06-.2,.12,0,.09,.02,.12,.2,.12,.05,0,.12,0,.21-.01,.19-.02,.48-.04,.99-.04s.83,.02,1.05,.04c.11,0,.2,.02,.28,.02,.22,0,.26-.04,.26-.15,0-.1-.14-.12-.36-.16-.37-.06-.87-.14-.87-.78v-3.22c0-.12,.1-.35,.31-.58,.2-.21,.64-.56,1.4-.56,1.15,0,1.69,1.07,1.69,1.8v2.62c0,.62-.28,.72-.46,.79-.11,.04-.14,.06-.14,.12,0,.09,.02,.12,.2,.12,.06,0,.15,0,.25-.02,.18-.02,.42-.04,.76-.04Z"/></g><g><path class="l" d="M214.26,89.26c.67,0,.74-.9,.94-.9,.13,0,.11,.14,.11,.22,0,1.08-.21,1.13-.73,1.46,.06,.24,.1,.49,.1,.74,0,1.33-1.05,2.14-2.33,2.14-.71,0-.78-.11-.97-.11-.34,0-.67,.45-.67,.77,0,.11-.11,.67,1.65,.67,1.18,0,2.76-.14,2.76,1.25,0,.88-.74,2.05-3.08,2.05-.9,0-2.37-.34-2.37-1.48,0-.57,.53-.99,1.02-1.18-.39-.15-.53-.63-.53-1.11,0-.56,.71-1.13,.73-1.13v-.03c-.57-.35-.9-1.04-.9-1.72,0-1.27,1.01-2.2,2.26-2.2,1.16,0,1.61,.56,2,.56Zm-2.13,7.97c1.92,0,2.33-.88,2.33-1.39,0-.59-.49-.62-1.93-.66-1.18-.04-1.36-.14-1.47-.14-.43,0-.69,.64-.69,1.01,0,.94,.99,1.18,1.77,1.18Zm.21-8.22c-1.04,0-1.37,.81-1.37,1.72s.39,1.89,1.43,1.89c.98,0,1.37-.77,1.37-1.67s-.38-1.95-1.43-1.95Z"/><path class="l" d="M212.05,97.61c-.84,0-2.42-.32-2.42-1.53,0-.57,.49-.98,.95-1.18-.29-.18-.46-.57-.46-1.1,0-.48,.52-1,.71-1.15-.54-.35-.88-1.02-.88-1.74,0-1.28,.99-2.25,2.31-2.25,.75,0,1.2,.23,1.54,.39,.19,.09,.33,.17,.47,.17,.41,0,.58-.36,.7-.62,.08-.16,.14-.28,.24-.28,.05,0,.08,.01,.11,.04,.05,.05,.05,.14,.05,.21v.02c0,1.04-.21,1.16-.66,1.44l-.06,.04c.06,.27,.09,.5,.09,.72,0,1.29-.98,2.19-2.38,2.19-.48,0-.68-.05-.81-.08-.06-.02-.11-.03-.16-.03-.3,0-.62,.42-.62,.72v.02c0,.06,0,.17,.1,.27,.14,.15,.52,.33,1.51,.33,.2,0,.41,0,.62,0,.72,0,1.47,.05,1.88,.45,.21,.21,.31,.49,.31,.85,0,.97-.82,2.1-3.13,2.1Zm-1.13-4.9c-.1,.07-.69,.6-.69,1.08,0,.26,.05,.88,.5,1.06l.12,.05-.12,.05c-.46,.17-.99,.57-.99,1.13,0,1.13,1.52,1.44,2.32,1.44,2.24,0,3.03-1.08,3.03-2,0-.33-.09-.59-.28-.78-.44-.44-1.34-.43-2.13-.42-.1,0-.2,0-.3,0-.82,0-1.35-.12-1.58-.36-.13-.14-.13-.29-.13-.35v-.02c0-.35,.36-.82,.72-.82,.07,0,.12,.01,.19,.03,.12,.03,.31,.08,.78,.08,1.34,0,2.28-.86,2.28-2.09,0-.22-.03-.45-.1-.73v-.03l.12-.08c.44-.27,.61-.37,.61-1.36v-.02s0-.11-.02-.14c0,0-.01-.01-.04-.01-.04,0-.1,.12-.15,.23-.13,.27-.32,.67-.79,.67-.16,0-.31-.08-.51-.18-.32-.16-.77-.38-1.49-.38-1.26,0-2.21,.92-2.21,2.15,0,.71,.33,1.35,.87,1.68h.02v.12h-.04Zm1.22,4.58c-.43,0-1.81-.09-1.81-1.23,0-.37,.25-1.06,.74-1.06,.03,0,.07,0,.12,.02,.15,.03,.48,.09,1.35,.12,1.4,.04,1.98,.06,1.98,.71,0,.24-.11,1.44-2.38,1.44Zm-1.08-2.19c-.4,0-.64,.62-.64,.96,0,1.02,1.2,1.13,1.72,1.13,2.17,0,2.28-1.11,2.28-1.34,0-.53-.42-.57-1.88-.61-.88-.03-1.21-.09-1.36-.12-.05,0-.08-.02-.1-.02Zm1.34-2.42c-1.02,0-1.48-.97-1.48-1.94,0-1.14,.5-1.77,1.42-1.77,1.02,0,1.48,1,1.48,2,0,1.08-.53,1.72-1.42,1.72Zm-.06-3.61c-.6,0-1.32,.29-1.32,1.67,0,.85,.36,1.84,1.38,1.84,.4,0,1.32-.16,1.32-1.62,0-.88-.36-1.9-1.38-1.9Z"/></g><g><path class="l" d="M60.59,107.29c-.06-.28,.01-.43,.15-.43,.2,0,.2,.17,.27,.46,.17,.64,1.01,2.1,2.94,2.1,1.33,0,2.63-.74,2.63-2.21,0-2.7-5.69-1.19-5.69-4.85,0-1.78,1.5-2.63,3.11-2.63,1.69,0,2.16,.5,2.35,.5,.13,0,.15-.15,.29-.15,.08,0,.15,.04,.17,.2l.21,1.9c.01,.11-.01,.21-.15,.21-.15,0-.25-.29-.29-.42-.42-1.2-1.44-1.82-2.68-1.82-1.11,0-2.28,.53-2.28,1.82,0,2.63,5.69,1.09,5.69,4.96,0,1.18-.83,2.94-4.01,2.94-1.04,0-2.31-.52-2.37-.77l-.35-1.81Z"/><path class="l" d="M63.3,109.92c-.99,0-2.35-.5-2.42-.81l-.35-1.81c-.04-.19-.02-.34,.05-.42,.04-.05,.09-.07,.16-.07,.21,0,.24,.16,.29,.37,0,.04,.02,.08,.03,.13,.15,.57,.96,2.06,2.89,2.06,1.24,0,2.58-.68,2.58-2.16,0-1.21-1.21-1.56-2.49-1.93-1.5-.43-3.2-.92-3.2-2.92,0-1.85,1.59-2.68,3.16-2.68,1.28,0,1.87,.29,2.16,.43,.09,.04,.16,.08,.19,.08s.06-.02,.1-.06c.04-.04,.1-.09,.19-.09s.2,.04,.22,.24l.21,1.9c.01,.09,0,.16-.04,.2-.04,.04-.09,.06-.16,.06-.19,0-.29-.31-.34-.45-.4-1.14-1.35-1.79-2.63-1.79-1.11,0-2.23,.55-2.23,1.77,0,1.15,1.11,1.48,2.4,1.85,1.54,.45,3.29,.95,3.29,3.11,0,.73-.3,1.44-.83,1.95-.71,.69-1.8,1.04-3.23,1.04Zm-2.56-3.01s-.06,.01-.08,.04c-.05,.06-.06,.18-.03,.34h0l.35,1.81c.04,.19,1.23,.73,2.32,.73,3.77,0,3.96-2.41,3.96-2.89,0-2.08-1.71-2.58-3.21-3.01-1.27-.37-2.47-.72-2.47-1.95,0-1.29,1.17-1.87,2.33-1.87,1.32,0,2.31,.68,2.72,1.85,.03,.1,.13,.39,.25,.39,.04,0,.07,0,.08-.03,.03-.03,.03-.08,.02-.13l-.21-1.91c-.01-.13-.06-.15-.12-.15-.05,0-.08,.03-.12,.07-.04,.04-.09,.09-.17,.09-.06,0-.13-.03-.24-.09-.3-.15-.86-.42-2.11-.42-1.52,0-3.06,.8-3.06,2.58,0,1.93,1.59,2.38,3.13,2.83,1.32,.38,2.56,.73,2.56,2.02,0,1.56-1.39,2.26-2.68,2.26-2,0-2.83-1.54-2.99-2.14-.01-.05-.02-.09-.03-.13-.05-.22-.07-.29-.19-.29Z"/></g><g><path class="l" d="M68.05,106.9c0-1.75,1.39-3.19,3.15-3.19,.7,0,1.65,.2,1.69,.52,.03,.31,.01,.64,.01,.83,0,.2-.04,.29-.11,.29-.14,0-.29-.27-.34-.32-.48-.64-1.09-.85-1.74-.85-1.19,0-1.65,1.23-1.65,2.24,0,1.51,.9,2.76,2.48,2.76,1.09,0,1.71-.81,1.92-.81,.04,0,.11,.04,.11,.08,0,.22-.84,1.43-2.76,1.43-1.61,0-2.77-1.42-2.77-2.97Z"/><path class="l" d="M70.82,109.92c-1.56,0-2.82-1.35-2.82-3.02,0-.86,.33-1.68,.93-2.29,.6-.62,1.41-.96,2.27-.96,.7,0,1.7,.2,1.74,.56,.02,.25,.02,.5,.02,.69,0,.05,0,.1,0,.14,0,.28-.09,.34-.16,.34-.15,0-.28-.2-.35-.31-.01-.02-.02-.03-.02-.04-.42-.56-.97-.83-1.7-.83-1.1,0-1.6,1.14-1.6,2.19,0,1.87,1.22,2.71,2.43,2.71,.74,0,1.27-.39,1.58-.62,.15-.11,.26-.19,.34-.19,.06,0,.16,.06,.16,.13,0,.21-.81,1.48-2.81,1.48Zm.38-6.16c-1.71,0-3.1,1.41-3.1,3.14,0,1.61,1.22,2.92,2.72,2.92,1.89,0,2.71-1.19,2.71-1.38,0-.01-.04-.03-.06-.03-.05,0-.16,.08-.28,.17-.32,.24-.87,.64-1.64,.64-1.49,0-2.53-1.15-2.53-2.81,0-1.1,.53-2.29,1.7-2.29,.76,0,1.34,.29,1.78,.87,0,0,.02,.02,.03,.04,.05,.07,.18,.26,.27,.26,.02,0,.06-.06,.06-.24,0-.04,0-.09,0-.14,0-.19,0-.44-.02-.68-.03-.27-.91-.47-1.65-.47Z"/></g><g><path class="l" d="M75.61,104.7c.53-.5,1.22-.99,2.02-.99,1.79,0,2.34,1.55,2.34,2.76v2.34c0,.73,1.12,.43,1.12,.78,0,.15-.13,.18-.28,.18-.25,0-.64-.06-1.18-.06s-.99,.06-1.15,.06c-.14,0-.22-.04-.22-.15,0-.21,.69-.21,.69-.71v-2.56c0-1.74-1.2-2.06-1.69-2.06-.63,0-1.64,.55-1.64,1.26v2.96c0,1.2,1.23,.81,1.23,1.08,0,.17-.07,.2-.24,.2-.29,0-.99-.06-1.43-.06s-1.05,.06-1.27,.06c-.1,0-.14-.07-.14-.14,0-.28,.83-.13,.83-.81v-7.91c0-.84-1.08-.48-1.08-.77,0-.08,.04-.14,.11-.15,1.02-.2,1.5-.7,1.82-.7,.08,0,.17,.08,.17,.22v5.2Z"/><path class="l" d="M80.81,109.82c-.1,0-.23,0-.38-.02-.21-.02-.48-.04-.79-.04-.35,0-.66,.02-.89,.04-.12,0-.21,.02-.26,.02-.23,0-.27-.11-.27-.2,0-.11,.12-.17,.26-.24,.2-.09,.42-.2,.42-.48v-2.56c0-1.99-1.58-2.01-1.65-2.01-.63,0-1.59,.54-1.59,1.21v2.96c0,.78,.54,.85,.89,.9,.19,.03,.34,.05,.34,.18,0,.23-.14,.25-.29,.25-.13,0-.35-.01-.59-.02-.28-.02-.6-.03-.84-.03-.25,0-.57,.02-.83,.04-.19,.01-.35,.02-.45,.02-.13,0-.19-.1-.19-.19,0-.15,.15-.2,.31-.25,.24-.08,.51-.18,.51-.56v-7.91c0-.48-.39-.53-.7-.57-.2-.02-.38-.05-.38-.2,0-.11,.06-.18,.15-.2,.59-.11,1-.33,1.3-.5,.22-.12,.38-.21,.53-.21,.11,0,.22,.1,.22,.27v5.08c.68-.63,1.33-.93,1.97-.93,1.76,0,2.39,1.51,2.39,2.81v2.34c0,.39,.36,.46,.67,.52,.23,.04,.45,.08,.45,.27,0,.23-.24,.23-.33,.23Zm-1.18-.16c.32,0,.59,.02,.8,.04,.15,.01,.27,.02,.37,.02,.19,0,.23-.05,.23-.13,0-.1-.14-.13-.37-.17-.32-.06-.75-.14-.75-.61v-2.34c0-2-1.18-2.71-2.29-2.71-.64,0-1.29,.32-1.98,.98l-.08,.08v-5.31c0-.11-.06-.17-.12-.17-.12,0-.28,.09-.48,.19-.31,.16-.72,.39-1.33,.51-.06,.01-.07,.06-.07,.1,0,.06,.11,.08,.29,.1,.31,.04,.79,.1,.79,.67v7.91c0,.45-.34,.57-.58,.65-.15,.05-.25,.09-.25,.16,0,.03,0,.09,.09,.09,.09,0,.25,0,.44-.02,.26-.02,.58-.03,.83-.03,.24,0,.56,.02,.85,.03,.23,.01,.45,.02,.58,.02,.16,0,.19-.02,.19-.15,0-.04-.13-.06-.25-.08-.37-.05-.98-.14-.98-1v-2.96c0-.75,1.02-1.31,1.69-1.31,.07,0,1.74,.02,1.74,2.11v2.56c0,.34-.28,.47-.48,.57-.11,.05-.21,.1-.21,.15,0,.04,0,.1,.17,.1,.05,0,.14,0,.25-.02,.21-.02,.54-.04,.89-.04Z"/></g><g><path class="l" d="M81.13,106.9c0-1.72,1.36-3.19,3.12-3.19,1.06,0,3.04,.52,3.04,3.12,0,1.72-1.3,3.04-3.03,3.04-1.82,0-3.14-1.08-3.14-2.97Zm5.18,.14c0-1.44-.6-3.03-2.27-3.03-1.37,0-1.93,1.2-1.93,2.4,0,1.37,.64,3.17,2.28,3.17,1.18,0,1.92-.8,1.92-2.54Z"/><path class="l" d="M84.27,109.92c-1.94,0-3.19-1.19-3.19-3.02s1.42-3.24,3.17-3.24c.52,0,3.09,.15,3.09,3.17,0,1.76-1.32,3.09-3.08,3.09Zm-.01-6.16c-1.69,0-3.07,1.41-3.07,3.14s1.21,2.92,3.09,2.92c1.7,0,2.98-1.29,2.98-2.99,0-2.93-2.49-3.07-2.99-3.07Zm.14,5.87c-.76,0-1.38-.38-1.8-1.09-.34-.57-.53-1.35-.53-2.12,0-1.13,.52-2.45,1.98-2.45,1.71,0,2.32,1.66,2.32,3.08,0,1.67-.7,2.58-1.97,2.58Zm-.35-5.56c-1.39,0-1.88,1.26-1.88,2.35,0,2.14,1.16,3.12,2.23,3.12,1.22,0,1.87-.86,1.87-2.49,0-2.19-1.15-2.98-2.22-2.98Z"/></g><g><path class="l" d="M87.91,106.9c0-1.72,1.36-3.19,3.12-3.19,1.06,0,3.04,.52,3.04,3.12,0,1.72-1.3,3.04-3.03,3.04-1.82,0-3.14-1.08-3.14-2.97Zm5.18,.14c0-1.44-.6-3.03-2.27-3.03-1.37,0-1.93,1.2-1.93,2.4,0,1.37,.64,3.17,2.28,3.17,1.18,0,1.92-.8,1.92-2.54Z"/><path class="l" d="M91.05,109.92c-1.94,0-3.19-1.19-3.19-3.02s1.42-3.24,3.17-3.24c.52,0,3.09,.15,3.09,3.17,0,1.76-1.32,3.09-3.08,3.09Zm-.01-6.16c-1.69,0-3.07,1.41-3.07,3.14s1.21,2.92,3.09,2.92c1.7,0,2.98-1.29,2.98-2.99,0-2.93-2.49-3.07-2.99-3.07Zm.14,5.87c-.76,0-1.38-.38-1.8-1.09-.34-.57-.53-1.35-.53-2.12,0-1.13,.52-2.45,1.98-2.45,1.71,0,2.32,1.66,2.32,3.08,0,1.67-.7,2.58-1.97,2.58Zm-.35-5.56c-1.39,0-1.88,1.26-1.88,2.35,0,2.14,1.16,3.12,2.23,3.12,1.22,0,1.87-.86,1.87-2.49,0-2.19-1.15-2.98-2.22-2.98Z"/></g><g><path class="l" d="M96.42,108.63c0,.97,1.16,.56,1.16,.94,0,.17-.11,.2-.32,.2-.2,0-.63-.06-1.29-.06s-.95,.06-1.09,.06c-.11,0-.17-.06-.17-.18,0-.21,.69-.17,.69-.77v-7.91c0-.84-.95-.48-.95-.77,0-.08,.06-.14,.13-.15,1.08-.25,1.36-.7,1.68-.7,.08,0,.17,.08,.17,.22v9.13Z"/><path class="l" d="M97.26,109.82c-.07,0-.17,0-.3-.02-.24-.02-.56-.04-.99-.04-.47,0-.75,.03-.91,.04-.08,0-.14,.01-.18,.01-.1,0-.22-.04-.22-.23,0-.11,.11-.16,.24-.22,.2-.09,.44-.2,.44-.55v-7.91c0-.48-.33-.53-.61-.57-.17-.02-.34-.05-.34-.2,0-.1,.07-.18,.17-.2,.63-.15,.98-.36,1.23-.51,.18-.11,.31-.19,.46-.19,.11,0,.22,.1,.22,.27v9.13c0,.55,.39,.62,.74,.68,.22,.04,.43,.07,.43,.26,0,.23-.18,.25-.37,.25Zm-1.29-.16c.43,0,.76,.02,1,.04,.13,0,.23,.02,.29,.02,.23,0,.27-.04,.27-.15,0-.1-.13-.13-.34-.16-.35-.06-.82-.14-.82-.78v-9.13c0-.11-.06-.17-.12-.17-.12,0-.24,.07-.41,.18-.26,.16-.62,.37-1.26,.52-.04,0-.09,.04-.09,.11,0,.06,.08,.08,.25,.1,.28,.04,.7,.1,.7,.67v7.91c0,.41-.3,.55-.5,.64-.1,.05-.18,.08-.18,.13,0,.11,.05,.13,.12,.13,.04,0,.1,0,.17-.01,.17-.02,.45-.04,.92-.04Z"/></g><g><path class="l" d="M101.33,106.9c0-1.72,1.36-3.19,3.12-3.19,1.06,0,3.04,.52,3.04,3.12,0,1.72-1.3,3.04-3.03,3.04-1.82,0-3.14-1.08-3.14-2.97Zm5.18,.14c0-1.44-.6-3.03-2.27-3.03-1.37,0-1.93,1.2-1.93,2.4,0,1.37,.64,3.17,2.28,3.17,1.18,0,1.92-.8,1.92-2.54Z"/><path class="l" d="M104.47,109.92c-1.94,0-3.19-1.19-3.19-3.02s1.42-3.24,3.17-3.24c.52,0,3.09,.15,3.09,3.17,0,1.76-1.32,3.09-3.08,3.09Zm-.01-6.16c-1.69,0-3.07,1.41-3.07,3.14s1.21,2.92,3.09,2.92c1.7,0,2.98-1.29,2.98-2.99,0-2.93-2.49-3.07-2.99-3.07Zm.14,5.87c-.76,0-1.38-.38-1.8-1.09-.34-.57-.53-1.35-.53-2.12,0-1.13,.52-2.45,1.98-2.45,1.71,0,2.32,1.66,2.32,3.08,0,1.67-.7,2.58-1.97,2.58Zm-.35-5.56c-1.39,0-1.88,1.26-1.88,2.35,0,2.14,1.16,3.12,2.23,3.12,1.22,0,1.87-.86,1.87-2.49,0-2.19-1.15-2.98-2.22-2.98Z"/></g><g><path class="l" d="M108.7,103.88c0-1.04,.27-2.06,.83-2.96,.32-.5,1.27-1.5,2.27-1.5,.18,0,.57,.06,.57,.29,0,.27-.06,.99-.21,.99-.2,0-.07-.59-.95-.59-.74,0-1.25,.8-1.37,1.44-.14,.74-.11,1.55-.11,2.31h1.08c.35,0,.5-.24,.55-.24,.07,0,.1,.07,.1,.11,0,.06-.04,.13-.08,.2l-.28,.5h-1.36v4.26c0,.9,.99,.56,.99,.87,0,.17-.18,.13-.29,.13h-2.17c-.07,0-.22,.03-.22-.08,0-.29,.67-.13,.67-.8v-4.37h-.95l.08-.57h.87Z"/><path class="l" d="M110.55,109.77s-.09,0-.13,0h-2.17s-.06,0-.09,0c-.05,0-.11,0-.15-.04-.02-.02-.04-.05-.04-.09,0-.15,.13-.21,.27-.26,.19-.08,.41-.17,.41-.54v-4.32h-.96l.1-.67h.86c0-1.06,.3-2.07,.83-2.93,.38-.59,1.34-1.52,2.31-1.52,.23,0,.62,.07,.62,.34,0,.01,0,1.04-.26,1.04-.09,0-.13-.08-.18-.17-.08-.17-.21-.42-.77-.42-.68,0-1.19,.72-1.32,1.4-.12,.63-.12,1.32-.11,1.98,0,.09,0,.18,0,.27h1.03c.24,0,.38-.12,.46-.19,.04-.03,.06-.05,.09-.05,.1,0,.15,.09,.15,.16s-.05,.15-.09,.22l-.29,.53h-1.34v4.21c0,.52,.36,.59,.65,.65,.18,.03,.35,.07,.35,.22,0,.06-.02,.1-.05,.13-.04,.04-.11,.05-.17,.05Zm-2.3-.1h2.17s.04,0,.06,0c.06,0,.14,0,.17-.02,0,0,.02-.02,.02-.06,0-.07-.1-.09-.27-.12-.29-.06-.73-.14-.73-.75v-4.31h1.38l.27-.48c.04-.06,.08-.13,.08-.17,0-.01,0-.06-.04-.06,0,0-.02,.02-.03,.03-.08,.07-.24,.21-.52,.21h-1.13v-.05c0-.11,0-.21,0-.32,0-.67,0-1.35,.11-2,.14-.72,.69-1.48,1.42-1.48,.63,0,.78,.3,.86,.47,.04,.08,.06,.11,.09,.11,.07-.02,.16-.52,.16-.94,0-.2-.38-.24-.52-.24-.97,0-1.92,.99-2.23,1.48-.54,.86-.82,1.87-.82,2.93v.05h-.88l-.07,.47h.94v4.42c0,.44-.27,.55-.47,.63-.13,.05-.2,.09-.2,.17,0,.02,0,.02,0,.02,.02,.02,.09,.02,.13,.01h.04Z"/></g><g><path class="l" d="M125.38,108.48c.07,1.18,1.11,.66,1.11,1.15,0,.14-.18,.14-.34,.14-.27,0-.76-.06-1.32-.06-.43,0-.88,.06-1.23,.06-.13,0-.15-.07-.15-.13,0-.42,.88-.11,.87-1.15l-.14-5.44c0-.35-.07-.55-.15-.55-.1,0-.22,.13-.36,.42l-2.9,5.91c-.07,.13-.29,.7-.43,.7s-.24-.31-.28-.41l-2.98-6.25c-.04-.11-.11-.15-.17-.15-.04,0-.08,.07-.1,.21l-.17,4.92c-.07,1.86,1.26,1.25,1.26,1.75,0,.14-.15,.15-.35,.15-.18,0-.81-.06-1.23-.06-.73,0-.97,.06-1.22,.06-.1,0-.14-.07-.14-.17,0-.48,.9,.1,.99-1.36,.17-2.28,.34-3.77,.34-5.25,0-3.29-1.33-2.51-1.33-2.98,0-.13,.11-.15,.24-.15,.25,0,.5,.06,.77,.06,.25,0,.5-.06,.76-.06,.2,0,.22,.24,.29,.39l3.33,7.12c.15,.29,.21,.42,.31,.42,.07,0,.21-.29,.43-.76l3.33-6.7c.08-.15,.2-.49,.36-.48,.14,0,.59,.06,.66,.06,.32,0,.45-.06,.67-.06,.08,0,.14,.08,.14,.17,0,.45-1.12-.15-1.06,1.51l.2,6.95Z"/><path class="l" d="M126.15,109.82c-.11,0-.26,0-.43-.02-.25-.02-.56-.04-.89-.04-.23,0-.46,.02-.68,.03-.2,.01-.39,.03-.55,.03-.15,0-.2-.09-.2-.18,0-.2,.16-.26,.33-.33,.26-.1,.55-.22,.54-.82l-.14-5.43c0-.38-.08-.5-.1-.5-.03,0-.15,.03-.32,.39l-2.9,5.91s-.04,.08-.07,.14c-.18,.39-.29,.59-.41,.59-.15,0-.25-.24-.31-.39l-.02-.05-2.98-6.25c-.04-.09-.09-.13-.12-.13,0,0-.04,.04-.05,.17l-.17,4.91c-.04,1.19,.48,1.33,.87,1.43,.2,.05,.39,.11,.39,.32s-.24,.2-.4,.2c-.07,0-.21,0-.39-.02-.26-.02-.59-.04-.84-.04-.46,0-.72,.02-.91,.04-.12,.01-.21,.02-.3,.02-.12,0-.19-.08-.19-.22,0-.21,.15-.25,.31-.3,.26-.07,.62-.17,.68-1.06,.05-.64,.09-1.21,.14-1.74,.11-1.36,.2-2.44,.2-3.51,0-2.35-.68-2.59-1.05-2.72-.15-.05-.28-.1-.28-.27,0-.14,.1-.2,.29-.2,.13,0,.26,.01,.38,.03,.13,.01,.26,.03,.39,.03,.12,0,.25-.01,.37-.03,.12-.01,.25-.03,.38-.03,.19,0,.25,.17,.3,.31,.01,.04,.03,.07,.04,.11l3.37,7.19c.11,.21,.17,.32,.23,.32,.05-.02,.2-.35,.37-.69l.02-.04,3.33-6.7s.04-.07,.06-.11c.08-.17,.18-.39,.34-.39h.02c.08,0,.26,.02,.42,.04,.1,.01,.2,.02,.23,.02,.17,0,.28-.02,.39-.03,.09-.01,.17-.02,.28-.02,.12,0,.19,.11,.19,.22,0,.19-.16,.23-.34,.27-.32,.08-.76,.18-.73,1.24l.2,6.95c.04,.67,.41,.76,.71,.83,.21,.05,.4,.09,.4,.32,0,.19-.22,.19-.39,.19Zm-1.32-.16c.33,0,.64,.02,.89,.04,.17,.01,.32,.02,.42,.02,.19,0,.29-.01,.29-.09,0-.15-.11-.18-.32-.23-.31-.07-.74-.17-.79-.92h0l-.2-6.95c-.04-1.14,.47-1.26,.8-1.34,.19-.04,.26-.07,.26-.17,0-.06-.04-.12-.09-.12-.1,0-.18,.01-.27,.02-.11,.02-.23,.03-.41,.03-.03,0-.11,0-.24-.02-.15-.02-.34-.04-.42-.04h0c-.1,0-.19,.2-.26,.33-.02,.04-.04,.08-.06,.12l-3.35,6.74c-.28,.58-.36,.74-.46,.74-.12,0-.18-.12-.31-.37l-.04-.07-3.33-7.12s-.03-.08-.04-.12c-.05-.15-.09-.25-.2-.25-.12,0-.25,.01-.37,.03-.12,.01-.25,.03-.38,.03-.14,0-.27-.01-.4-.03-.13-.01-.25-.03-.37-.03-.19,0-.19,.07-.19,.1,0,.09,.06,.12,.21,.17,.39,.14,1.12,.39,1.12,2.81,0,1.07-.09,2.15-.2,3.51-.04,.53-.09,1.11-.14,1.74-.06,.96-.48,1.07-.75,1.15-.17,.05-.24,.07-.24,.2,0,.12,.07,.12,.09,.12,.09,0,.18,0,.3-.02,.19-.02,.46-.04,.92-.04,.25,0,.58,.02,.85,.04,.17,.01,.31,.02,.38,.02,.23,0,.3-.03,.3-.1,0-.13-.11-.16-.32-.22-.39-.11-.99-.27-.94-1.53l.17-4.92c.02-.17,.07-.26,.15-.26,.03,0,.15,.01,.21,.19l2.98,6.24s.01,.03,.02,.05c.03,.09,.13,.32,.21,.32,.05,0,.16-.18,.32-.53,.03-.06,.05-.11,.07-.14l2.9-5.91c.14-.3,.28-.45,.41-.45s.2,.22,.2,.6l.14,5.43c0,.67-.35,.81-.6,.92-.17,.07-.26,.11-.26,.24,0,.03,.01,.08,.1,.08,.16,0,.35-.01,.55-.03,.22-.02,.45-.03,.68-.03Z"/></g><g><path class="l" d="M127.91,106.17c0,2.31,1.4,3,2.26,3,1.2,0,1.67-.73,1.97-.73,.06,0,.06,.06,.06,.1,0,.32-1.22,1.33-2.48,1.33-2.1,0-2.83-1.95-2.83-2.87,0-1.79,.99-3.29,2.75-3.29s2.48,1.67,2.48,2.23c0,.25-.15,.24-.48,.24h-3.73Zm2.76-.38c.2,0,.28-.07,.28-.28,0-.78-.78-1.48-1.55-1.48-.87,0-1.48,.99-1.48,1.76h2.76Z"/><path class="l" d="M129.71,109.92c-2.15,0-2.88-2.01-2.88-2.92,0-1.97,1.15-3.34,2.79-3.34s2.53,1.6,2.53,2.28c0,.1-.02,.16-.07,.21-.08,.08-.21,.07-.41,.08h-3.72c.02,2.29,1.45,2.9,2.21,2.9s1.25-.32,1.56-.53c.17-.12,.29-.2,.41-.2,.11,0,.11,.11,.11,.15,0,.37-1.26,1.38-2.53,1.38Zm-.08-6.16c-1.59,0-2.7,1.33-2.7,3.24,0,.88,.7,2.82,2.78,2.82,1.25,0,2.43-.99,2.43-1.28,0-.01,0-.04,0-.05-.09,0-.21,.08-.36,.18-.32,.22-.8,.55-1.62,.55s-2.31-.64-2.31-3.05v-.05h3.82c.17,0,.29,0,.34-.05,.03-.03,.04-.07,.04-.14,0-.52-.73-2.18-2.43-2.18Zm1.04,2.09h-2.81v-.05c0-.84,.67-1.81,1.53-1.81s1.6,.75,1.6,1.53c0,.23-.1,.33-.33,.33Zm-2.71-.1h2.71c.18,0,.23-.05,.23-.23,0-.74-.73-1.44-1.5-1.44s-1.41,.88-1.43,1.67Z"/></g><g><path class="l" d="M137.26,100.9c0-.84-1.11-.48-1.11-.77,0-.08,.06-.14,.13-.15,1.08-.25,1.51-.7,1.84-.7,.08,0,.17,.08,.17,.22v9.58c0,.17,.28,.28,.74,.35,.1,.01,.15,.01,.15,.13,0,.1-.36,.2-.88,.2-.36,0-.76,.11-.88,.11-.11,0-.15-.11-.15-.21v-.77h-.03c-.48,.6-1.25,.98-2.06,.98-1.54,0-2.48-1.42-2.48-2.86,0-1.65,1.16-3.31,2.93-3.31,.59,0,1.16,.17,1.64,.49v-3.29Zm0,4.75c0-1.04-.84-1.62-1.85-1.62-1.32,0-1.91,1.23-1.91,2.4s.84,2.84,2.17,2.84c1.16,0,1.58-.71,1.58-1.22v-2.4Z"/><path class="l" d="M137.41,109.92c-.14,0-.2-.13-.2-.26v-.67c-.5,.58-1.25,.93-2.04,.93-1.58,0-2.53-1.48-2.53-2.91,0-1.61,1.14-3.36,2.98-3.36,.58,0,1.12,.15,1.59,.45v-3.2c0-.48-.4-.53-.72-.57-.21-.02-.39-.05-.39-.2,0-.1,.07-.18,.17-.2,.61-.14,1.02-.35,1.31-.5,.22-.12,.39-.2,.54-.2,.11,0,.22,.1,.22,.27v9.58c0,.07,.09,.21,.7,.3h.02c.09,.01,.18,.03,.18,.18,0,.17-.48,.25-.93,.25-.22,0-.46,.04-.64,.08-.11,.02-.19,.04-.24,.04Zm-.21-1.08h.1v.82s0,.16,.1,.16c.04,0,.13-.02,.23-.03,.18-.03,.42-.08,.66-.08,.55,0,.82-.1,.83-.15,0-.06,0-.06-.09-.07h-.02c-.53-.08-.78-.21-.78-.4v-9.58c0-.11-.06-.17-.12-.17-.12,0-.28,.08-.49,.19-.3,.15-.71,.36-1.33,.51-.04,0-.09,.04-.09,.11s.15,.08,.3,.1c.32,.04,.81,.1,.81,.67v3.39l-.08-.05c-.47-.32-1.02-.48-1.61-.48-1.78,0-2.88,1.69-2.88,3.26,0,1.38,.91,2.81,2.43,2.81,.79,0,1.54-.36,2.02-.96v-.02Zm-1.52,.48c-1.36,0-2.22-1.71-2.22-2.89s.61-2.44,1.96-2.44c1.12,0,1.9,.69,1.9,1.67v2.4c0,.44-.34,1.27-1.63,1.27Zm-.27-5.24c-1.27,0-1.86,1.22-1.86,2.35s.83,2.79,2.12,2.79c1.21,0,1.53-.76,1.53-1.17v-2.4c0-.78-.56-1.58-1.8-1.58Z"/></g><g><path class="l" d="M140.52,105.22c0-.84-.77-.48-.77-.77,0-.08,.06-.14,.13-.15,.9-.25,1.18-.7,1.5-.7,.08,0,.17,.08,.17,.22v5.03c0,.71,1.11,.41,1.11,.77,0,.11-.08,.15-.27,.15-.29,0-.73-.06-1.3-.06-.45,0-.81,.06-.97,.06-.11,0-.2-.01-.21-.15,0-.35,.62,.18,.62-1.09v-3.31Zm1.09-3.66c0,.17-.41,.73-.59,.73-.17,0-.59-.57-.59-.73s.42-.74,.59-.74c.18,0,.59,.57,.59,.74Z"/><path class="l" d="M142.38,109.82c-.12,0-.27,0-.44-.02-.23-.02-.52-.04-.86-.04-.28,0-.53,.02-.71,.04-.11,0-.2,.02-.25,.02-.08,0-.24,0-.26-.2,0-.17,.11-.19,.21-.21,.17-.04,.41-.09,.41-.89v-3.31c0-.49-.26-.53-.49-.57-.14-.02-.28-.05-.28-.2,0-.1,.07-.18,.17-.2,.49-.14,.8-.34,1.02-.49,.19-.12,.33-.22,.49-.22,.11,0,.22,.1,.22,.27v5.03c0,.38,.33,.44,.65,.49,.24,.04,.46,.08,.46,.28,0,.2-.23,.2-.32,.2Zm-1.3-.16c.34,0,.63,.02,.87,.04,.17,.01,.32,.02,.44,.02,.22,0,.22-.06,.22-.1,0-.1-.14-.14-.38-.18-.31-.06-.73-.13-.73-.59v-5.03c0-.11-.06-.17-.12-.17-.13,0-.26,.08-.43,.2-.23,.15-.55,.36-1.05,.5-.05,0-.09,.04-.09,.11,0,.06,.04,.08,.2,.1,.23,.04,.57,.1,.57,.67v3.31c0,.88-.29,.94-.49,.98-.1,.02-.13,.03-.13,.11,0,.09,.05,.1,.16,.1,.05,0,.14,0,.25-.02,.18-.02,.44-.04,.72-.04Zm-.06-7.32c-.2,0-.64-.61-.64-.78s.43-.79,.64-.79c.22,0,.64,.61,.64,.79s-.42,.78-.64,.78Zm0-1.47c-.13,0-.54,.56-.54,.69s.4,.68,.54,.68c.14,0,.54-.53,.54-.68s-.39-.69-.54-.69Z"/></g><g><path class="l" d="M142.8,106.9c0-1.75,1.39-3.19,3.15-3.19,.7,0,1.65,.2,1.69,.52,.03,.31,.01,.64,.01,.83,0,.2-.04,.29-.11,.29-.14,0-.29-.27-.34-.32-.48-.64-1.09-.85-1.74-.85-1.19,0-1.65,1.23-1.65,2.24,0,1.51,.9,2.76,2.48,2.76,1.09,0,1.71-.81,1.92-.81,.04,0,.11,.04,.11,.08,0,.22-.84,1.43-2.76,1.43-1.61,0-2.77-1.42-2.77-2.97Z"/><path class="l" d="M145.57,109.92c-1.56,0-2.82-1.35-2.82-3.02,0-.86,.33-1.68,.93-2.29,.6-.62,1.41-.96,2.27-.96,.7,0,1.7,.2,1.74,.56,.02,.24,.02,.5,.02,.69,0,.05,0,.1,0,.14,0,.28-.09,.34-.16,.34-.14,0-.28-.2-.35-.3l-.03-.04c-.42-.56-.97-.83-1.7-.83-1.1,0-1.6,1.14-1.6,2.19,0,1.87,1.22,2.71,2.43,2.71,.74,0,1.27-.39,1.58-.62,.15-.11,.26-.19,.34-.19,.06,0,.16,.06,.16,.13,0,.21-.81,1.48-2.81,1.48Zm.38-6.16c-1.71,0-3.1,1.41-3.1,3.14,0,1.61,1.22,2.92,2.72,2.92,1.89,0,2.71-1.19,2.71-1.38,0-.01-.04-.03-.06-.03-.05,0-.16,.08-.28,.17-.32,.24-.87,.64-1.64,.64-1.49,0-2.53-1.15-2.53-2.81,0-1.1,.53-2.29,1.7-2.29,.76,0,1.34,.29,1.78,.87,0,0,.02,.02,.03,.04,.05,.07,.18,.26,.27,.26,.02,0,.06-.06,.06-.24,0-.04,0-.09,0-.14,0-.19,0-.44-.02-.68-.03-.27-.91-.47-1.65-.47Z"/></g><g><path class="l" d="M149.45,105.22c0-.84-.77-.48-.77-.77,0-.08,.06-.14,.13-.15,.9-.25,1.18-.7,1.5-.7,.08,0,.17,.08,.17,.22v5.03c0,.71,1.11,.41,1.11,.77,0,.11-.08,.15-.27,.15-.29,0-.73-.06-1.3-.06-.45,0-.81,.06-.97,.06-.11,0-.2-.01-.21-.15,0-.35,.62,.18,.62-1.09v-3.31Zm1.09-3.66c0,.17-.41,.73-.59,.73-.17,0-.59-.57-.59-.73s.42-.74,.59-.74c.18,0,.59,.57,.59,.74Z"/><path class="l" d="M151.32,109.82c-.12,0-.27,0-.44-.02-.23-.02-.52-.04-.86-.04-.28,0-.53,.02-.71,.04-.11,0-.2,.02-.25,.02-.08,0-.24,0-.26-.2,0-.17,.11-.19,.21-.21,.17-.04,.41-.09,.41-.89v-3.31c0-.49-.26-.53-.49-.57-.14-.02-.28-.05-.28-.2,0-.1,.07-.18,.17-.2,.49-.14,.8-.34,1.02-.49,.19-.12,.33-.22,.49-.22,.11,0,.22,.1,.22,.27v5.03c0,.38,.33,.44,.65,.49,.24,.04,.46,.08,.46,.28,0,.2-.23,.2-.32,.2Zm-1.3-.16c.34,0,.63,.02,.87,.04,.17,.01,.32,.02,.44,.02,.22,0,.22-.06,.22-.1,0-.1-.14-.14-.38-.18-.31-.06-.73-.13-.73-.59v-5.03c0-.11-.06-.17-.12-.17-.13,0-.26,.08-.43,.2-.23,.15-.55,.36-1.05,.5-.05,0-.09,.04-.09,.11,0,.06,.04,.08,.2,.1,.23,.04,.57,.1,.57,.67v3.31c0,.88-.29,.94-.49,.98-.1,.02-.13,.03-.13,.11,0,.09,.05,.1,.16,.1,.05,0,.14,0,.25-.02,.18-.02,.44-.04,.72-.04Zm-.06-7.32c-.2,0-.64-.61-.64-.78s.43-.79,.64-.79c.22,0,.64,.61,.64,.79s-.42,.78-.64,.78Zm0-1.47c-.13,0-.54,.56-.54,.69s.4,.68,.54,.68c.14,0,.54-.53,.54-.68s-.39-.69-.54-.69Z"/></g><g><path class="l" d="M153.96,108.63c0,.97,1.23,.56,1.23,.94,0,.17-.1,.2-.31,.2-.24,0-.52-.06-1.33-.06-.74,0-1.02,.06-1.19,.06-.18,0-.25-.03-.25-.17,0-.28,.83,0,.83-.91v-3.47c0-.84-1.04-.48-1.04-.77,0-.08,.06-.14,.13-.15,1.16-.25,1.44-.7,1.76-.7,.08,0,.17,.08,.17,.22v.92c-.03,.17,.67-1.04,2.03-1.04,1.88,0,2.28,1.55,2.28,2.62v2.31c0,.97,1.09,.56,1.09,.94,0,.17-.1,.2-.24,.2-.18,0-.53-.06-1.22-.06-.53,0-.83,.06-1.01,.06s-.25-.03-.25-.17c0-.28,.6,0,.6-.91v-2.62c0-.7-.5-1.75-1.64-1.75s-1.67,.87-1.65,1.09v3.22Z"/><path class="l" d="M159.13,109.82c-.06,0-.15,0-.25-.02-.2-.02-.51-.04-.96-.04-.33,0-.57,.02-.75,.04-.11,0-.19,.02-.26,.02-.16,0-.3-.02-.3-.22,0-.13,.11-.17,.21-.21,.18-.07,.39-.15,.39-.7v-2.62c0-.69-.5-1.7-1.59-1.7-.72,0-1.14,.33-1.32,.53-.2,.21-.28,.43-.28,.51v3.22c0,.55,.42,.62,.78,.68,.23,.04,.45,.07,.45,.26,0,.23-.17,.25-.36,.25-.09,0-.18,0-.29-.02-.22-.02-.51-.04-1.04-.04s-.79,.03-.98,.04c-.09,0-.16,.01-.21,.01-.16,0-.3-.02-.3-.22,0-.14,.13-.17,.28-.21,.24-.07,.55-.15,.55-.7v-3.47c0-.48-.37-.53-.67-.57-.19-.02-.37-.05-.37-.2,0-.1,.07-.18,.17-.2,.69-.15,1.07-.37,1.33-.52,.18-.1,.31-.18,.45-.18,.11,0,.22,.1,.22,.27v.83h.01c.25-.28,.91-.99,1.97-.99,2.17,0,2.33,2.04,2.33,2.67v2.31c0,.55,.37,.62,.69,.68,.21,.04,.4,.07,.4,.26,0,.25-.2,.25-.29,.25Zm-1.22-.16c.45,0,.77,.02,.97,.04,.36,.03,.44,.03,.44-.13,0-.1-.12-.12-.32-.16-.33-.06-.77-.14-.77-.78v-2.31c0-2.32-1.56-2.57-2.23-2.57-1.02,0-1.65,.69-1.89,.95-.09,.1-.12,.12-.16,.1-.01,0-.04-.02-.03-.07v-.92c0-.11-.06-.17-.12-.17-.11,0-.23,.07-.4,.17-.26,.15-.65,.38-1.36,.53-.04,0-.09,.04-.09,.1,0,.06,.11,.08,.28,.1,.3,.04,.76,.1,.76,.67v3.47c0,.62-.37,.73-.62,.79-.15,.04-.2,.06-.2,.12,0,.09,.02,.12,.2,.12,.05,0,.12,0,.21-.01,.19-.02,.48-.04,.99-.04s.83,.02,1.05,.04c.11,0,.2,.02,.28,.02,.22,0,.26-.04,.26-.15,0-.1-.14-.12-.36-.16-.37-.06-.87-.14-.87-.78v-3.22c0-.12,.1-.35,.31-.58,.2-.21,.64-.56,1.4-.56,1.15,0,1.69,1.07,1.69,1.8v2.62c0,.62-.28,.72-.46,.79-.11,.04-.14,.06-.14,.12,0,.09,.02,.12,.2,.12,.06,0,.15,0,.25-.02,.18-.02,.42-.04,.76-.04Z"/></g><g><path class="l" d="M160.46,106.17c0,2.31,1.4,3,2.26,3,1.2,0,1.67-.73,1.98-.73,.06,0,.06,.06,.06,.1,0,.32-1.22,1.33-2.48,1.33-2.1,0-2.83-1.95-2.83-2.87,0-1.79,.99-3.29,2.75-3.29s2.48,1.67,2.48,2.23c0,.25-.15,.24-.48,.24h-3.73Zm2.76-.38c.2,0,.28-.07,.28-.28,0-.78-.78-1.48-1.55-1.48-.87,0-1.48,.99-1.48,1.76h2.76Z"/><path class="l" d="M162.27,109.92c-2.15,0-2.88-2.01-2.88-2.92,0-1.97,1.15-3.34,2.79-3.34s2.53,1.6,2.53,2.28c0,.1-.02,.16-.07,.21-.08,.08-.21,.07-.41,.08h-3.72c.02,2.29,1.45,2.9,2.21,2.9s1.25-.32,1.56-.53c.17-.12,.29-.2,.41-.2,.11,0,.11,.11,.11,.15,0,.37-1.26,1.38-2.53,1.38Zm-.08-6.16c-1.59,0-2.7,1.33-2.7,3.24,0,.88,.7,2.82,2.78,2.82,1.25,0,2.43-.99,2.43-1.28,0-.01,0-.04,0-.05-.09,0-.21,.08-.36,.19-.32,.22-.8,.55-1.62,.55s-2.31-.64-2.31-3.05v-.05h3.82c.17,0,.29,0,.34-.05,.03-.03,.04-.07,.04-.14,0-.52-.73-2.18-2.43-2.18Zm1.04,2.09h-2.81v-.05c0-.84,.67-1.81,1.53-1.81s1.6,.75,1.6,1.53c0,.23-.1,.33-.33,.33Zm-2.71-.1h2.71c.18,0,.23-.05,.23-.23,0-.74-.73-1.44-1.5-1.44s-1.41,.88-1.43,1.67Z"/></g></g></g></g></g></g></svg>