<?xml version="1.0" encoding="utf-8"?>
<!-- Generator: Adobe Illustrator 17.1.0, SVG Export Plug-In . SVG Version: 6.00 Build 0)  -->
<!DOCTYPE svg PUBLIC "-//W3C//DTD SVG 1.1//EN" "http://www.w3.org/Graphics/SVG/1.1/DTD/svg11.dtd">
<svg version="1.1" id="Layer_1" xmlns="http://www.w3.org/2000/svg" xmlns:xlink="http://www.w3.org/1999/xlink" x="0px" y="0px"
	 viewBox="0 0 175 90" enable-background="new 0 0 175 90" xml:space="preserve">
<g>
	<path fill="#FFFFFF" d="M41.2,17.3v-1.2v-3.5v-1.5h-5v-2H35c0,0-2.6,0.1-4.5-1s-2.3-2.2-2.3-2.2V4.3h-2.6c-0.4-2-2.2-3.4-4.3-3.4
		S17.4,2.4,17,4.3h-2.7v1.6c0,0-0.3,1.1-2.3,2.2c-2,1.2-4.5,1-4.5,1H5.9v2H1v1.5v3.5v1.1"/>
	<path fill="#FFFFFF" d="M1,19.2L1,19.2c0,3.2,0,8.1,0,11.3c0.1,2.9,0.5,5.9,1.3,8.7c1.4,5.4,4,10.1,8,13.9
		c3.1,2.9,6.8,5.1,10.6,7.2c0.1,0.1,0.3,0.1,0.4,0c2.6-1.5,5.1-3,7.6-4.8c5.1-3.6,8.7-8.5,10.6-14.6c1.3-4.3,1.7-8.6,1.8-13
		c0-2.3,0-6.4,0-8.7l0,0"/>
	<path fill="#BC4B27" d="M1,17.3h40.2v-1.2v-3.5v-1.5h-5v-2H35c0,0-2.6,0.1-4.5-1s-2.3-2.2-2.3-2.2V4.3h-2.6c-0.4-2-2.2-3.4-4.3-3.4
		S17.4,2.4,17,4.3h-2.7v1.6c0,0-0.3,1.1-2.3,2.2c-2,1.2-4.5,1-4.5,1H5.9v2h-5v1.5v3.5L1,17.3"/>
	<path fill="#BC4B27" d="M0.9,30.5c0.1,3,0.5,5.9,1.3,8.7c1.4,5.4,4,10.1,8,13.9c3.1,2.9,6.8,5.1,10.6,7.2c0.1,0.1,0.3,0.1,0.4,0
		c2.6-1.5,5.1-3,7.6-4.8c5.2-3.7,8.7-8.6,10.6-14.6c1.3-4.3,1.7-8.6,1.8-13c0-2.3,0-6.4,0-8.7H0.9C0.9,22.4,0.9,27.3,0.9,30.5
		 M18.1,33.2l2.9-9l2.9,9h9.4l-7.6,5.5l2.9,9L21,42.2l-7.6,5.6l2.9-9l-7.6-5.5C8.7,33.2,18.1,33.2,18.1,33.2z"/>
	<path fill="#D66027" d="M21.1,17.3L21.3,1c-2.1,0-3.8,1.5-4.3,3.4h-2.7V6c0,0-0.3,1.1-2.3,2.2c-2,1.2-4.5,1-4.5,1H5.9v2H1v1.5v3.5
		v1.1H21.1z"/>
	<path fill="#D66027" d="M21,42.3l-7.6,5.6l2.9-9l-7.6-5.5h9.4l2.9-9v-5H1c0,3.2-0.1,8.1,0,11.3c0.1,2.9,0.5,5.9,1.3,8.7
		c1.4,5.4,4,10.1,8,13.9c3.1,2.9,6.8,5.1,10.6,7.2c0.1,0.1,0.2,0,0.2,0L21,42.3z"/>
	<polygon fill="#FDCEB0" points="21,24.3 24,33.2 33.4,33.2 25.8,38.8 28.7,47.8 21,42.3 	"/>
</g>
<g>
	<path fill="#231F20" d="M65.4,36.8c1.1-1.5,1.7-3.7,1.7-6.5v-7.6c0-1.3,0.1-2.1,0.3-2.6c0.1-0.4,0.6-0.8,1.2-1
		c0.3-0.1,0.3-0.3,0.3-0.4c0-0.2-0.1-0.3-0.4-0.3c-0.1,0-0.3,0-0.7,0.1c-0.3,0-1,0.1-2.1,0.1c-0.6,0-1,0-1.4-0.1
		c-0.4-0.1-0.8-0.1-1-0.1c-0.1,0-0.2,0-0.3,0.1c-0.1,0.1-0.1,0.2-0.1,0.3s0.1,0.3,0.6,0.4c0.8,0.1,1.5,0.4,1.8,0.9
		c0.3,0.6,0.6,1.5,0.6,2.7v7.9c0,2.7-0.6,4.6-1.8,5.9c-1.2,1.3-3,2-5.4,2c-2.7,0-4.6-0.8-5.7-2.4c-0.8-1.1-1.2-3-1.2-5.6v-7.7v-1
		c0-1,0.1-1.7,0.3-2s0.6-0.6,1.1-0.7c0.3-0.1,0.6-0.2,0.6-0.5c0-0.1-0.1-0.3-0.4-0.3c-0.1,0-0.4,0-0.8,0.1c-0.4,0.1-0.7,0.1-0.8,0.1
		h-1.2h-1.2c-0.2,0-0.6,0-1-0.1c-0.4,0-0.8,0-1,0c-0.6,0-0.7,0.3-0.7,0.5c0,0.1,0.1,0.3,0.5,0.4c0.9,0.1,1.5,0.4,1.7,0.8
		c0.3,0.4,0.4,1.1,0.4,2.2v0.8v7.8c0,2.2,0.3,3.9,1.1,5.2c0.6,1.2,1.7,2.1,3.1,2.8c1.4,0.7,3,1,4.8,1c1.5,0,2.9-0.3,4.3-0.8
		C63.6,38.5,64.6,37.7,65.4,36.8"/>
	<path fill="#231F20" d="M77.6,20.2c0.5,0,0.6,0.1,0.7,0.1c0.1,0.1,0.1,0.2,0.1,0.6v0.4v15.2c0,0.8-0.1,1.4-0.4,1.7
		c-0.3,0.3-0.8,0.5-1.5,0.6c-0.4,0.1-0.6,0.2-0.6,0.4c0,0.1,0.1,0.4,0.6,0.4c0.1,0,0.4,0,1-0.1c0.3,0,0.6-0.1,1-0.1h1.2h1.1
		c0.7,0,1.2,0,1.4,0.1c0.4,0.1,0.6,0.1,0.8,0.1c0.5,0,0.6-0.3,0.6-0.4c0-0.2-0.2-0.3-0.6-0.4c-1.3-0.2-1.9-0.9-2-2v-0.6V21.2
		c0-0.6,0.1-0.8,0.1-0.8s0.2-0.1,0.8-0.1h4.3c0.8,0,1.4,0.1,1.7,0.3l0,0c0.3,0.2,0.5,0.6,0.6,1.3c0.1,0.3,0.2,0.6,0.5,0.6
		c0.2,0,0.4-0.1,0.4-0.6c0-0.1-0.1-0.4-0.1-0.8c-0.1-0.3-0.1-0.7-0.1-1.3c0-0.8-0.1-1-0.2-1.1c-0.1-0.1-0.5-0.2-1.1-0.2H71.5
		c-0.4,0-0.6,0.1-0.8,0.3c-0.1,0.1-0.2,0.5-0.2,1s-0.1,1-0.2,1.8c-0.1,0.6-0.2,1-0.2,1.2c0,0.4,0.2,0.5,0.3,0.5
		c0.3,0,0.5-0.5,0.5-0.6c0.2-0.9,0.5-1.5,0.8-1.8s0.9-0.5,1.7-0.5L77.6,20.2L77.6,20.2z"/>
	<path fill="#231F20" d="M112.8,39.7c0.3,0,0.6-0.1,0.7-0.1h1.1h1.1c0.8,0,1.3,0,1.5,0.1c0.6,0.1,1,0.1,1.3-0.1
		c0.1-0.1,0.1-0.2,0.1-0.3c0-0.2-0.2-0.3-0.6-0.4c-0.8-0.1-1.4-0.3-1.7-0.7c-0.3-0.4-0.4-1.1-0.4-2.2V21.1c0-0.5,0.1-0.9,0.3-1.3
		c0.2-0.3,0.4-0.6,0.7-0.6l0.6-0.1c0.3-0.1,0.4-0.3,0.4-0.4s-0.1-0.4-0.5-0.4c-0.1,0-0.3,0-0.6,0.1c-0.4,0.1-1.2,0.1-2.3,0.1
		c-0.8,0-1.5-0.1-2.2-0.1c-0.5-0.1-0.8-0.1-1-0.1c-0.4,0-0.5,0.2-0.5,0.3s0.1,0.3,0.5,0.5c0.7,0.1,1.2,0.4,1.4,0.8
		c0.3,0.4,0.4,1.2,0.4,2.2v5.4c0,0.3-0.1,0.4-0.1,0.5c-0.1,0.1-0.3,0.1-0.8,0.1h-9c-0.8,0-1-0.1-1-0.1l0,0c-0.1-0.1-0.1-0.3-0.1-1
		v-5.5c0-0.7,0.1-1.3,0.3-1.5c0.2-0.3,0.7-0.6,1.3-0.7c0.3-0.1,0.5-0.2,0.5-0.4c0-0.1-0.1-0.4-0.6-0.4c-0.1,0-0.3,0-0.6,0.1
		c-0.6,0.1-1.3,0.1-2,0.1c-1,0-2-0.1-2.8-0.1c-0.4-0.1-0.7-0.1-0.9-0.1s-0.3,0-0.4,0.1c-0.1,0.1-0.1,0.1-0.1,0.3
		c0,0.1,0.1,0.3,0.6,0.4c0.8,0.1,1.4,0.4,1.7,0.8c0.3,0.3,0.5,1,0.5,1.9V35c0,1.4-0.1,2.4-0.2,3c-0.1,0.6-0.4,0.8-0.8,1l-0.8,0.2
		c-0.4,0.1-0.5,0.3-0.5,0.4s0.1,0.3,0.5,0.3c0.1,0,0.4,0,1-0.1c0.4,0,0.7-0.1,1-0.1h1h1.3c0.9,0,1.5,0,1.8,0.1
		c0.3,0.1,0.6,0.1,0.8,0.1c0.2,0,0.3-0.1,0.4-0.1c0.1-0.1,0.1-0.1,0.1-0.3c0-0.3-0.2-0.4-0.7-0.5c-0.9-0.1-1.5-0.3-1.8-0.8
		c-0.3-0.4-0.5-1.1-0.5-2.2v-5.6c0-0.6,0.1-0.8,0.2-0.8c0.1-0.1,0.3-0.1,1-0.1h9c0.7,0,0.8,0.1,0.8,0.1s0.1,0.1,0.1,0.8V36v0.6
		c0,1.5-0.5,2.4-1.5,2.5c-0.4,0.1-0.6,0.2-0.6,0.4c0,0.1,0,0.2,0.1,0.3c0.1,0.1,0.2,0.1,0.3,0.1c0,0,0,0,0.1,0
		C111.8,39.7,112.2,39.7,112.8,39.7"/>
	<path fill="#231F20" d="M158,37.9l-0.1,0.1l-0.8,0.3c-0.4,0.2-0.9,0.3-1.5,0.3c-0.8,0-1.3-0.2-1.7-0.6c-0.3-0.3-0.4-0.9-0.4-1.9
		v-7.6h3.5c0.3,0,0.6-0.1,0.8-0.5l0.3-0.9c0.1-0.3,0.1-0.3,0.1-0.4c0-0.1,0-0.2-0.1-0.2c-0.1-0.1-0.1-0.1-0.2-0.1
		c-0.1,0-0.2,0.1-0.3,0.2c-0.2,0.1-0.6,0.2-1,0.2h-3.1l0.1-2.5c0-0.4-0.1-0.5-0.3-0.5c-0.1,0-0.3,0.1-0.7,0.7c-0.6,1-1.5,2-2.7,3
		c-0.3,0.3-0.4,0.4-0.4,0.6c0,0.1,0.1,0.3,0.5,0.3h1.3v7.6c0,2.5,1.2,3.8,3.6,3.8c0.7,0,1.5-0.2,2.3-0.6c0.8-0.4,1.3-0.8,1.3-1.2
		C158.3,38,158.2,37.9,158,37.9"/>
	<path fill="#231F20" d="M123.8,27.3c0.8,0,1.5,0.3,2.2,1c0.7,0.6,1,1.4,1,2.2c0,0.3-0.6,0.4-1.1,0.4h-5.1c0.1-1,0.5-2,1-2.6l0,0
		C122.3,27.7,123,27.3,123.8,27.3 M129.5,36.7c-0.1,0-0.2,0.1-0.3,0.1c-1.3,1-2.5,1.5-3.6,1.5c-1.4,0-2.5-0.6-3.5-1.7
		s-1.4-2.7-1.4-4.3V32h5.7h1h1.1c0.7,0,1.1-0.2,1.1-0.6c0-0.3-0.1-0.7-0.4-1.3c-0.3-0.6-0.5-1-0.8-1.4c-1-1.5-2.4-2.2-4.2-2.2
		c-1.6,0-3,0.7-4.2,2s-1.7,2.9-1.7,4.7c0,1.9,0.6,3.5,1.7,4.8c1.1,1.3,2.6,2,4.3,2c1.5,0,2.9-0.6,4.3-1.6c0.8-0.6,1.1-1,1.1-1.4
		c0-0.1,0-0.2-0.1-0.3C129.6,36.7,129.5,36.7,129.5,36.7"/>
	<path fill="#231F20" d="M149.1,38.8c-1-0.1-1.6-0.5-1.8-1c-0.2-0.4-0.3-1-0.3-1.9v-18v-0.5l0,0c0-0.3-0.1-0.6-0.1-0.7
		s-0.1-0.1-0.1-0.1c-0.1,0-0.2,0.1-0.3,0.1c-0.3,0.2-0.8,0.4-1.5,0.7l-0.9,0.3c-0.3,0.1-0.6,0.2-0.9,0.3s-0.5,0.2-0.5,0.4
		c0,0.1,0.1,0.3,0.3,0.3c0.1,0,0.2,0.1,0.3,0.1l0,0h0.8c0.6,0,0.9,0.4,0.9,1.3v17c0,0.5-0.1,0.8-0.2,1c-0.1,0.2-0.4,0.3-0.8,0.5
		c-0.3,0.1-0.5,0.3-0.5,0.5c0,0.1,0.1,0.4,0.5,0.4c0.1,0,0.1,0,0.6-0.1c0.2,0,0.8-0.1,1.7-0.1h2.2c0.3,0,0.6,0,0.7,0.1
		c0.2,0.1,0.3,0.1,0.4,0.1c0.1,0,0.3-0.1,0.3-0.1s0.1-0.2,0.1-0.3C149.7,39,149.5,38.8,149.1,38.8"/>
	<path fill="#231F20" d="M134.6,34.5c0.8-0.6,2-0.9,3.5-1v2.9c0,0.8-0.1,1.3-0.5,1.6c-0.6,0.6-1.3,0.8-2.1,0.8
		c-0.7,0-1.2-0.2-1.6-0.6c-0.4-0.4-0.6-0.9-0.6-1.6C133.3,35.7,133.7,35,134.6,34.5 M142.6,38.5c-0.1,0-0.2,0-0.4,0.1
		c-0.1,0-0.2,0-0.3,0c-0.5,0-0.8-0.2-1-0.6c-0.2-0.4-0.3-1-0.3-2v-5.9c0-1.1-0.4-2-1.2-2.7c-0.8-0.6-1.9-1-3.3-1
		c-1.5,0-2.8,0.5-3.7,1.5c-0.7,0.8-1,1.5-1,2.1c0,0.3,0.2,0.6,0.6,0.8c0.4,0.2,0.8,0.3,1.3,0.3c0.1,0,0.3-0.1,0.3-0.1
		c0.1-0.1,0.1-0.1,0.1-0.3s-0.1-0.3-0.1-0.5c-0.1-0.4-0.2-0.8-0.2-1.1c0-1,0.6-1.6,2-1.6c1,0,1.7,0.3,2.3,0.9
		c0.4,0.4,0.6,1.2,0.6,2.4v1.8c-2.5,0.4-4.3,0.9-5.4,1.5c-1.1,0.6-1.7,1.6-1.7,2.8c0,0.9,0.3,1.6,0.9,2.2c0.6,0.6,1.4,0.8,2.4,0.8
		c1.3,0,2.7-0.6,4.1-1.6c0.7,1,1.5,1.5,2.3,1.5c0.5,0,0.9-0.1,1.4-0.3c0.5-0.2,0.8-0.4,0.8-0.6c0-0.1,0-0.2-0.1-0.2
		C142.8,38.5,142.7,38.5,142.6,38.5"/>
	<path fill="#231F20" d="M173.6,39c-0.8-0.1-1.3-0.3-1.5-0.6c-0.2-0.3-0.3-0.8-0.3-1.5V32c0-1.6-0.5-2.9-1.3-4
		c-0.9-1-2.1-1.5-3.6-1.5c-1.5,0-2.9,0.8-4.2,2.2V18.5c0-0.3,0-0.6,0-0.8c0-0.2,0-0.3,0-0.3c0-0.3-0.2-0.4-0.3-0.4s-0.2,0-0.3,0.1
		l-1.2,0.6c-0.8,0.3-1.5,0.6-2.2,0.8c-0.3,0.1-0.4,0.2-0.4,0.4c0,0.1,0.1,0.3,0.1,0.3c0.1,0.1,0.1,0.1,0.3,0.1l0,0l0.8-0.1
		c0.2,0,0.4,0.1,0.5,0.1c0.3,0.3,0.4,0.8,0.4,1.5v16c0,1-0.1,1.5-0.2,1.6c-0.1,0.2-0.5,0.4-1,0.6c-0.3,0.1-0.4,0.3-0.4,0.5
		c0,0.1,0.1,0.3,0.5,0.3c0.1,0,0.3,0,0.7-0.1c0.8-0.1,1.3-0.1,1.7-0.1c1.2,0,2,0,2.3,0.1c0.5,0.1,0.8,0.1,0.8,0.1
		c0.3,0,0.4-0.2,0.4-0.3c0-0.3-0.2-0.4-0.6-0.5c-0.9-0.1-1.4-0.3-1.7-0.6c-0.2-0.3-0.3-1-0.3-2v-5.9c0-0.6,0.3-1.2,1-1.7
		c0.7-0.5,1.4-0.8,2.2-0.8c1,0,2,0.3,2.6,1.1c0.6,0.8,1,1.7,1,3v5.2v0.5c0,0.6-0.1,0.8-0.1,0.8c-0.1,0.1-0.3,0.3-0.9,0.5
		c-0.3,0.1-0.3,0.2-0.3,0.4c0,0.1,0.1,0.3,0.6,0.3c0.1,0,0.2,0,0.5-0.1c0.4-0.1,1.1-0.1,2-0.1c0.6,0,1.2,0,2,0.1
		c0.3,0,0.6,0.1,0.8,0.1c0.4,0,0.5-0.2,0.5-0.3C174.1,39.2,174,39,173.6,39"/>
	<path fill="#231F20" d="M52.7,51.6c-0.9-0.3-1.5-0.6-1.7-0.6c-0.2-0.1-0.5-0.3-0.6-0.6c-0.2-0.3-0.3-0.6-0.3-1
		c0-0.5,0.2-0.8,0.6-1.2c0.3-0.3,0.8-0.5,1.3-0.5c0.6,0,1.3,0.1,1.8,0.5c0.6,0.3,0.9,0.8,1,1.3c0.1,0.3,0.2,0.4,0.3,0.4
		c0.1,0,0.2-0.1,0.2-0.3c0-0.1,0-0.1-0.1-0.3L55,48.6c-0.1-0.4-0.1-0.7-0.1-0.8c0-0.2,0-0.3-0.1-0.3c0,0-0.1-0.1-0.1-0.1
		s-0.1,0-0.1,0.1l-0.1,0.1c-0.1,0.1-0.2,0.1-0.3,0.1l-0.5-0.2c-0.3-0.1-0.8-0.2-1.4-0.2c-1,0-1.7,0.3-2.4,0.8
		c-0.6,0.5-0.9,1.2-0.9,2c0,0.7,0.2,1.3,0.7,1.8c0.5,0.5,1.3,0.9,2.4,1.3c1,0.3,1.7,0.6,2,0.8c0.4,0.3,0.6,0.8,0.6,1.4
		s-0.2,1-0.7,1.5s-1,0.6-1.7,0.6c-0.6,0-1.3-0.2-1.9-0.6c-0.6-0.4-0.9-0.9-1.1-1.5c-0.1-0.3-0.1-0.4-0.3-0.4c-0.1,0-0.1,0-0.1,0.1
		c-0.1,0.1-0.1,0.1-0.1,0.2c0,0.2,0.1,0.5,0.2,1c0.1,0.4,0.2,0.6,0.2,0.7c0.1,0.3,0.1,0.5,0.1,0.6c0,0.1,0.1,0.1,0.2,0.2
		c0.2,0.1,0.6,0.3,1,0.4s0.9,0.1,1.3,0.1c1,0,2-0.3,2.7-0.9c0.7-0.6,1-1.4,1-2.3C55.5,53.2,54.5,52.3,52.7,51.6"/>
	<path fill="#231F20" d="M58.2,55.2c0.4-0.3,1-0.4,1.7-0.5v1.5c0,0.3-0.1,0.6-0.3,0.8c-0.3,0.3-0.6,0.4-1,0.4
		c-0.3,0-0.6-0.1-0.8-0.3c-0.2-0.2-0.3-0.5-0.3-0.8C57.6,55.8,57.8,55.5,58.2,55.2 M62.1,57.2c0,0-0.1,0-0.2,0c-0.1,0-0.1,0-0.1,0
		c-0.3,0-0.4-0.1-0.6-0.3C61,56.7,61,56.5,61,56V53c0-0.6-0.2-1-0.6-1.3c-0.3-0.3-0.9-0.5-1.6-0.5c-0.8,0-1.3,0.3-1.8,0.7
		c-0.3,0.3-0.5,0.7-0.5,1c0,0.1,0.1,0.3,0.3,0.3c0.2,0.1,0.4,0.1,0.6,0.1c0.1,0,0.1,0,0.1-0.1c0,0,0.1-0.1,0.1-0.1s0-0.1-0.1-0.3
		c-0.1-0.2-0.1-0.4-0.1-0.6c0-0.6,0.3-0.8,1-0.8c0.5,0,0.8,0.1,1.1,0.4c0.2,0.2,0.3,0.6,0.3,1.1v0.9c-1.3,0.2-2.1,0.4-2.7,0.8
		c-0.6,0.3-0.8,0.8-0.8,1.4c0,0.4,0.1,0.8,0.4,1s0.7,0.4,1.1,0.4c0.6,0,1.3-0.3,2-0.8c0.3,0.5,0.7,0.8,1.1,0.8
		c0.2,0,0.5-0.1,0.7-0.1c0.3-0.1,0.3-0.2,0.3-0.3c0-0.1,0-0.1,0-0.1C62.1,57.2,62.1,57.2,62.1,57.2"/>
	<path fill="#231F20" d="M70.2,57.4L70,57.3c-0.3-0.1-0.6-0.2-0.6-0.6v-0.3v-0.2v-1.8c0-0.9-0.1-1.6-0.5-2.1c-0.5-0.6-1.1-1-1.9-1
		c-0.7,0-1.4,0.3-2,1.1v-0.8c0-0.1,0-0.2,0-0.3s0-0.1-0.1-0.2c-0.1-0.1-0.1-0.1-0.3,0c-0.1,0-0.1,0.1-0.3,0.1L64,51.5
		c-0.3,0.1-0.6,0.2-1,0.3c-0.1,0-0.2,0.1-0.2,0.2c0,0.1,0,0.1,0.1,0.1s0.1,0.1,0.1,0.1h0.3c0.2,0,0.3,0.1,0.4,0.1
		c0.1,0.1,0.1,0.3,0.1,0.7v3.4c0,0.3-0.1,0.5-0.1,0.6c-0.1,0.1-0.3,0.2-0.5,0.3C63,57.4,63,57.5,63,57.6s0,0.1,0.1,0.1
		c0,0,0.1,0.1,0.1,0.1c0.1,0,0.1,0,0.3,0c0.1,0,0.6,0,1.4,0c0.3,0,0.6,0,0.7,0c0.1,0,0.3,0.1,0.4,0.1c0.2,0,0.2-0.1,0.2-0.2
		c0-0.1-0.1-0.2-0.3-0.2c-0.6-0.1-1-0.3-1-0.6v-0.6v-2.9c0-0.3,0.1-0.6,0.5-0.8c0.3-0.2,0.7-0.3,1-0.3c0.6,0,1,0.2,1.3,0.6
		c0.3,0.3,0.5,0.9,0.5,1.6v2.6c0,0.3-0.1,0.4-0.3,0.5l-0.2,0.1c-0.1,0-0.1,0.1-0.1,0.2c0,0.1,0.1,0.1,0.1,0.1h0.1h0.2h0.3h0.8
		c0.4,0,0.8,0,0.9,0c0.1,0,0.2,0,0.3,0c0.1,0,0.2,0,0.2-0.1c0,0,0.1-0.1,0.1-0.1C70.5,57.4,70.4,57.4,70.2,57.4"/>
	<path fill="#231F20" d="M114.7,57.4l-0.3-0.1c-0.2,0-0.4-0.1-0.5-0.2c-0.1-0.1-0.1-0.3-0.1-0.7v-5c0-0.1-0.1-0.2-0.1-0.2l0,0
		l-0.4,0.2c-0.4,0.2-0.8,0.3-1,0.5c-0.3,0.1-0.4,0.1-0.4,0.3v0.1c0.1,0.1,0.1,0.1,0.3,0.1c0.3,0,0.4,0.1,0.5,0.1
		c0.1,0.1,0.1,0.3,0.1,0.8v3.2c0,0.3,0,0.5-0.1,0.6c-0.1,0.1-0.1,0.2-0.3,0.3l-0.1,0.1c-0.1,0.1-0.1,0.1-0.1,0.2
		c0,0.1,0.1,0.2,0.2,0.2c0.1,0,0.1,0,0.3,0c0.1,0,0.1,0,0.2,0h0.6h0.5c0.2,0,0.4,0,0.5,0c0.3,0,0.4,0,0.5,0c0.2,0,0.2-0.1,0.2-0.1
		C115,57.4,114.9,57.4,114.7,57.4"/>
	<path fill="#231F20" d="M111,57.4l-0.3-0.1c-0.3-0.1-0.6-0.2-0.6-0.6v-0.3v-0.2v-1.8c0-0.9-0.1-1.6-0.5-2.1c-0.5-0.6-1.1-1-1.9-1
		c-0.7,0-1.4,0.3-2,1.1v-0.8c0-0.1,0-0.2,0-0.3s0-0.1-0.1-0.2c-0.1-0.1-0.1-0.1-0.3,0c-0.1,0-0.1,0.1-0.3,0.1l-0.4,0.2
		c-0.3,0.1-0.6,0.2-1,0.3c-0.1,0-0.2,0.1-0.2,0.2c0,0.1,0,0.1,0.1,0.1c0.1,0,0.1,0.1,0.1,0.1h0.3c0.2,0,0.3,0.1,0.4,0.1
		c0.1,0.1,0.1,0.3,0.1,0.7v3.4c0,0.3-0.1,0.5-0.1,0.6c-0.1,0.1-0.3,0.2-0.5,0.3c-0.1,0.1-0.1,0.1-0.1,0.2c0,0.1,0,0.1,0.1,0.1
		c0,0,0.1,0.1,0.1,0.1c0.1,0,0.1,0,0.3,0s0.6,0,1.4,0c0.3,0,0.6,0,0.7,0c0.1,0,0.3,0.1,0.4,0.1c0.2,0,0.2-0.1,0.2-0.2
		c0-0.1-0.1-0.2-0.3-0.2c-0.6-0.1-1-0.3-1-0.6v-0.6v-2.9c0-0.3,0.1-0.6,0.5-0.8c0.3-0.2,0.7-0.3,1-0.3c0.6,0,1,0.2,1.3,0.6
		c0.3,0.3,0.5,0.9,0.5,1.6v2.6c0,0.3-0.1,0.4-0.3,0.5l-0.2,0.1c-0.1,0-0.1,0.1-0.1,0.2c0,0.1,0.1,0.1,0.1,0.1h0.1h0.2h0.3h0.8
		c0.4,0,0.8,0,0.9,0c0.1,0,0.2,0,0.3,0c0.1,0,0.2,0,0.2-0.1c0,0,0.1-0.1,0.1-0.1C111.3,57.4,111.1,57.4,111,57.4"/>
	<path fill="#231F20" d="M101.6,55c0,0.8-0.2,1.4-0.6,1.8s-0.8,0.7-1.4,0.7c-0.7,0-1.3-0.3-1.7-0.9c-0.5-0.6-0.7-1.4-0.7-2.4
		c0-0.7,0.2-1.3,0.6-1.8c0.3-0.4,0.8-0.7,1.5-0.7c0.7,0,1.3,0.3,1.7,0.9C101.4,53.2,101.6,54,101.6,55 M99.4,51.4
		c-0.9,0-1.7,0.3-2.4,1c-0.6,0.6-1,1.4-1,2.3s0.3,1.7,0.9,2.3c0.6,0.6,1.4,0.9,2.4,0.9s1.8-0.3,2.4-0.9c0.6-0.6,1-1.4,1-2.4
		c0-0.9-0.3-1.6-1-2.3C101.1,51.6,100.3,51.4,99.4,51.4"/>
	<path fill="#231F20" d="M113.2,48.2c-0.1,0-0.3,0.1-0.4,0.3c-0.2,0.2-0.3,0.3-0.3,0.5c0,0.1,0.1,0.3,0.3,0.5
		c0.1,0.2,0.3,0.3,0.4,0.3c0.1,0,0.3-0.1,0.4-0.3c0.2-0.2,0.3-0.3,0.3-0.5c0-0.1,0-0.1-0.1-0.2l-0.2-0.3
		C113.5,48.3,113.4,48.2,113.2,48.2"/>
	<path fill="#231F20" d="M79.3,52.8c0,0.1-0.1,0.1-0.3,0.1h-2.2h-0.2c-0.3,0-0.3-0.1-0.3-0.1s0-0.1,0.1-0.3l1.5-3.2
		c0.1-0.1,0.1-0.1,0.1-0.1s0.1,0,0.1,0.2l1.3,3.1l0.1,0.1l0,0C79.3,52.8,79.3,52.8,79.3,52.8 M83.4,57.4c-0.5-0.1-0.8-0.2-0.9-0.3
		c-0.1-0.1-0.3-0.5-0.6-1.1l-0.1-0.4l-3.2-8.3c-0.1-0.1-0.1-0.2-0.2-0.2s-0.2,0.1-0.3,0.3l-3.9,8.5L74,56.3
		c-0.1,0.2-0.3,0.4-0.4,0.6c-0.2,0.3-0.3,0.3-0.3,0.3l-0.3,0.1c-0.1,0-0.1,0.1-0.1,0.2c0,0.1,0,0.2,0.2,0.2c0,0,0.1,0,0.4-0.1
		c0.1,0,0.2,0,0.3,0c0.3,0,0.6,0,0.8,0l0.7,0.1c0.1,0,0.2,0,0.3,0s0.1,0,0.2-0.1c0,0,0.1-0.1,0-0.1c0-0.1-0.1-0.2-0.3-0.2
		c-0.3-0.1-0.6-0.1-0.7-0.3c-0.1-0.1-0.1-0.3-0.1-0.5c0-0.2,0.1-0.6,0.3-1.1l0.5-1.1c0.2-0.4,0.3-0.6,0.3-0.6
		c0.1-0.1,0.2-0.1,0.7-0.1h2.7c0.3,0,0.5,0.1,0.5,0.1c0.1,0,0.1,0.1,0.2,0.5l0.3,1c0.3,0.8,0.4,1.3,0.4,1.5c0,0.3-0.1,0.4-0.3,0.5
		l-0.2,0.1c-0.2,0-0.2,0.1-0.2,0.2c0,0.1,0,0.2,0.2,0.2c0.1,0,0.1,0,0.2,0c0.1,0,0.6-0.1,1.3-0.1s1.1,0,1.4,0.1c0.1,0,0.2,0,0.3,0
		c0.2,0,0.2-0.1,0.3-0.1C83.7,57.4,83.5,57.4,83.4,57.4"/>
	<path fill="#231F20" d="M120.9,55c0,0.8-0.2,1.4-0.6,1.8s-0.8,0.7-1.4,0.7c-0.7,0-1.3-0.3-1.7-0.9c-0.5-0.6-0.7-1.4-0.7-2.4
		c0-0.7,0.2-1.3,0.6-1.8c0.3-0.4,0.8-0.7,1.5-0.7c0.7,0,1.3,0.3,1.7,0.9C120.6,53.2,120.9,54,120.9,55 M118.8,51.4
		c-0.9,0-1.7,0.3-2.4,1c-0.6,0.6-1,1.4-1,2.3s0.3,1.7,0.9,2.3c0.6,0.6,1.4,0.9,2.4,0.9s1.8-0.3,2.4-0.9c0.6-0.6,1-1.4,1-2.4
		c0-0.9-0.3-1.6-1-2.3C120.4,51.6,119.6,51.4,118.8,51.4"/>
	<path fill="#231F20" d="M91.2,57.4l-0.3-0.1c-0.3-0.1-0.6-0.2-0.6-0.6v-0.3v-0.2v-1.8c0-0.9-0.1-1.6-0.5-2.1c-0.5-0.6-1.1-1-1.9-1
		c-0.7,0-1.4,0.3-2,1.1v-0.8c0-0.1,0-0.2,0-0.3s0-0.1-0.1-0.2c-0.1-0.1-0.1-0.1-0.3,0c-0.1,0-0.1,0.1-0.3,0.1l-0.4,0.2
		c-0.3,0.1-0.6,0.2-1,0.3c-0.1,0-0.2,0.1-0.2,0.2c0,0.1,0,0.1,0.1,0.1c0.1,0,0.1,0.1,0.1,0.1h0.3c0.2,0,0.3,0.1,0.4,0.1
		c0.1,0.1,0.1,0.3,0.1,0.7v3.4c0,0.3-0.1,0.5-0.1,0.6c-0.1,0.1-0.3,0.2-0.5,0.3c-0.1,0.1-0.1,0.1-0.1,0.2c0,0.1,0,0.1,0.1,0.1
		c0,0,0.1,0.1,0.1,0.1s0.1,0,0.3,0s0.6,0,1.4,0c0.3,0,0.6,0,0.7,0c0.1,0,0.3,0.1,0.4,0.1c0.2,0,0.2-0.1,0.2-0.2
		c0-0.1-0.1-0.2-0.3-0.2c-0.6-0.1-1-0.3-1-0.6v-0.6v-2.9c0-0.3,0.1-0.6,0.5-0.8c0.3-0.2,0.7-0.3,1-0.3c0.6,0,1,0.2,1.3,0.6
		c0.3,0.3,0.5,0.9,0.5,1.6v2.6c0,0.3-0.1,0.4-0.3,0.5l-0.2,0.1c-0.1,0-0.1,0.1-0.1,0.2c0,0.1,0,0.1,0.1,0.1h0.1h0.2h0.3h0.8
		c0.4,0,0.8,0,0.9,0c0.1,0,0.2,0,0.3,0c0.1,0,0.2,0,0.2-0.1c0,0,0.1-0.1,0.1-0.1C91.4,57.4,91.3,57.4,91.2,57.4"/>
	<path fill="#231F20" d="M95.9,56.9L95.9,56.9l-0.4,0.2c-0.2,0.1-0.5,0.1-0.8,0.1c-0.3,0-0.6-0.1-0.8-0.3c-0.1-0.1-0.2-0.4-0.2-0.9
		v-3.7h1.7c0.2,0,0.3-0.1,0.3-0.2l0.1-0.4c0.1-0.1,0.1-0.2,0.1-0.2c0-0.1,0-0.1,0-0.1h-0.1c-0.1,0-0.1,0.1-0.2,0.1
		c-0.1,0.1-0.3,0.1-0.5,0.1h-1.5v-1.3c0-0.2-0.1-0.2-0.1-0.2c-0.1,0-0.1,0.1-0.3,0.3c-0.3,0.5-0.8,1-1.3,1.5
		c-0.1,0.1-0.2,0.2-0.2,0.3c0,0.1,0.1,0.1,0.2,0.1h0.6V56c0,1.2,0.6,1.8,1.7,1.8c0.3,0,0.7-0.1,1.1-0.3s0.6-0.3,0.6-0.6
		C96,57,95.9,56.9,95.9,56.9"/>
</g>
<g>
	<path d="M24.9,58.9h1v0.1h-0.4v1.3h-0.1v-1.3h-0.4C24.9,59.1,24.9,58.9,24.9,58.9z"/>
	<path d="M26.1,60.3V59h0.2l0.4,1.2l0,0l0.4-1.2h0.2v1.3h-0.1v-1.2l0,0l-0.4,1.2h-0.1l-0.4-1.2l0,0v1.2H26.1z"/>
</g>
<g>
	<line fill="none" stroke="#BC4B27" x1="49" y1="63.5" x2="171.7" y2="63.5"/>
</g>
<g>
	<path fill="#7B6669" stroke="#7B6669" stroke-width="0.144" stroke-miterlimit="10" d="M126.1,77.4c0.4-1.3,1.1-0.8,1.1-1.3
		c0-0.1-0.1-0.3-0.4-0.3c-0.2,0-0.6,0.1-1,0.1c-0.6,0-0.9-0.1-1.2-0.1c-0.3,0-0.6,0-0.6,0.2c0,0.5,1.3,0.1,1.3,1.3
		c0,0.1,0,0.3-0.3,1.1l-1.6,4.8l-2.2-5.8c-0.1-0.1-0.1-0.3-0.1-0.5c0-0.8,1.2-0.4,1.2-0.8c0-0.2-0.1-0.3-0.4-0.3
		c-0.3,0-0.8,0.1-1.5,0.1c-0.6,0-1-0.1-1.5-0.1c-0.3,0-0.4,0.1-0.4,0.3c0,0.3,0.8,0.3,1,0.8l2.8,6.9c0.2,0.4,0.4,0.9,0.4,1.4
		c0,1.7-2,3.2-2,3.7c0,0.1,0.5,0.1,0.8,0.1c0.3,0,0.7,0,0.7-0.1L126.1,77.4z M114,78.3c0-0.3,0.5-1.3,1.4-1.3c0.8,0,1,0.5,1.4,0.5
		c0.3,0,0.8-0.6,0.8-1c0-0.4-1-1-1.4-1c-0.9,0-1.7,1.1-2.1,1.7H114v-1.6c0-0.2-0.1-0.3-0.3-0.3c-0.5,0-0.9,0.7-2.5,1
		c-0.1,0-0.3,0.1-0.3,0.2c0,0.4,1.5-0.1,1.5,1.2v5.5c0,0.8-1,0.8-1,1.3c0,0.1,0.1,0.2,0.2,0.2c0.1,0,0.6-0.1,2-0.1
		c1.2,0,1.7,0.1,2,0.1c0.2,0,0.3-0.1,0.3-0.2c0-0.7-1.9,0.3-1.9-1.6L114,78.3L114,78.3z M105.2,82.5c0,2.2,1.4,2.4,2.4,2.4
		c1.5,0,2.7-0.7,2.7-1c0-0.1-0.1-0.2-0.1-0.2c-0.3,0-0.7,0.5-1.8,0.5c-0.8,0-1.5-0.4-1.5-1.3v-6.2h2.7L110,76
		c0.1-0.1,0.1-0.2,0.1-0.3c0-0.1-0.1-0.1-0.1-0.1c-0.1,0-0.3,0.3-0.8,0.3h-2.3c0-1.5,0-2-0.3-2c-0.1,0-0.3,0.5-0.8,1
		c-1,1.2-1.6,1.5-1.6,1.7c0,0.1,0.1,0.1,1.1,0.1V82.5z M100.1,80.8c0.8,0.4,2,0.8,2,1.9c0,1.1-0.8,1.7-1.9,1.7c-2.3,0-2-2.8-2.5-2.8
		c-0.3,0-0.3,0.7-0.3,1c0,1.7,0,1.7,0.5,1.7c0.5,0,0.9,0.6,2.4,0.6c1.5,0,2.9-1.3,2.9-2.9c0-1.3-0.6-2-1.7-2.5
		c-2.2-0.9-2.8-1.3-2.8-2c0-0.8,0.6-1.3,1.5-1.3c2,0,2.1,1.8,2.3,1.8c0.3,0,0.2-0.3,0.2-0.8c0-0.1,0-0.8-0.1-1
		c-0.3-0.3-1.7-0.5-2.1-0.5c-1.5,0-2.9,0.8-2.9,2.5C97.5,79.7,98.9,80.3,100.1,80.8 M93.8,71.3c-0.3,0-0.9,0.9-0.9,1.1
		c0,0.2,0.6,1.1,0.9,1.1c0.3,0,0.9-0.8,0.9-1.1S94.1,71.3,93.8,71.3 M93.1,82.9c0,2-0.9,1.1-0.9,1.7c0,0.2,0.1,0.2,0.3,0.2
		c0.2,0,0.8-0.1,1.5-0.1c0.8,0,1.5,0.1,2,0.1c0.3,0,0.4-0.1,0.4-0.2c0-0.6-1.7-0.1-1.7-1.2v-7.6c0-0.2-0.1-0.3-0.3-0.3
		c-0.5,0-0.9,0.7-2.2,1c-0.1,0-0.2,0.1-0.2,0.2c0,0.4,1.2-0.1,1.2,1.2L93.1,82.9L93.1,82.9z M85.8,82.5c0,2.2,1.4,2.4,2.4,2.4
		c1.5,0,2.7-0.7,2.7-1c0-0.1-0.1-0.2-0.1-0.2c-0.3,0-0.7,0.5-1.8,0.5c-0.8,0-1.5-0.4-1.5-1.3v-6.2h2.7l0.4-0.8
		c0.1-0.1,0.1-0.2,0.1-0.3c0-0.1-0.1-0.1-0.1-0.1c-0.1,0-0.3,0.3-0.8,0.3h-2.3c0-1.5,0-2-0.3-2c-0.1,0-0.3,0.5-0.8,1
		c-1,1.2-1.6,1.5-1.6,1.7c0,0.1,0.1,0.1,1.1,0.1V82.5z M76.2,78.2c0-0.3,0.7-1.7,2.5-1.7c1.7,0,2.4,1.6,2.4,2.7v4
		c0,1.4-0.9,1-0.9,1.4c0,0.2,0.1,0.3,0.3,0.3c0.3,0,0.7-0.1,1.5-0.1c1,0,1.5,0.1,1.8,0.1c0.2,0,0.3-0.1,0.3-0.3
		c0-0.6-1.7,0.1-1.7-1.4v-3.5c0-1.6-0.6-4-3.4-4c-2,0-3.1,1.8-3.1,1.5v-1.4c0-0.2-0.1-0.3-0.3-0.3c-0.5,0-0.9,0.7-2.7,1
		c-0.1,0-0.2,0.1-0.2,0.2c0,0.4,1.5-0.1,1.5,1.2v5.2c0,1.4-1.3,1-1.3,1.4c0,0.2,0.1,0.3,0.3,0.3c0.3,0,0.7-0.1,1.8-0.1
		c1.3,0,1.7,0.1,2,0.1c0.3,0,0.5-0.1,0.5-0.3c0-0.6-1.9,0.1-1.9-1.4v-5H76.2z M66,78.8c0-1.2,0.9-2.7,2.2-2.7c1.2,0,2.4,1,2.4,2.2
		c0,0.3-0.1,0.4-0.4,0.4C70.2,78.8,66,78.8,66,78.8z M71.6,79.4c0.5,0,0.7,0,0.7-0.3c0-0.8-1.1-3.4-3.8-3.4c-2.7,0-4.1,2.2-4.1,5
		c0,1.4,1.1,4.3,4.3,4.3c1.9,0,3.8-1.5,3.8-2c0-0.1,0-0.1-0.1-0.1c-0.5,0-1.2,1.1-3,1.1c-1.3,0-3.4-1-3.4-4.5
		C65.9,79.4,71.6,79.4,71.6,79.4z M50.9,82.6c0,2-1.5,1.5-1.5,2c0,0.1,0.1,0.2,0.2,0.2s2.2-0.1,2.4-0.1c1,0,2.2,0.1,3.2,0.1
		c5.9,0,8.2-3.4,8.2-8.3c0-3.9-3.7-6.8-7.4-6.8c-1.8,0-3.2,0.1-4.6,0.1c-0.6,0-1.3-0.1-1.9-0.1c-0.1,0-0.3,0.1-0.3,0.2
		c0,0.6,1.7-0.1,1.7,2C50.9,72,50.9,82.6,50.9,82.6z M52.5,71.7c0-1,0.1-1.3,2.1-1.3c4.1,0,7.2,2.7,7.2,7.4c0,4.9-2.9,6.5-5.9,6.5
		c-1,0-2.6-0.3-3.3-1c-0.2-0.2-0.1-1.2-0.1-1.5C52.5,81.7,52.5,71.7,52.5,71.7z"/>
	<path fill="#7B6669" stroke="#7B6669" stroke-width="0.144" stroke-miterlimit="3.783" d="M126.1,77.4c0.4-1.3,1.1-0.8,1.1-1.3
		c0-0.1-0.1-0.3-0.4-0.3c-0.2,0-0.6,0.1-1,0.1c-0.6,0-0.9-0.1-1.2-0.1c-0.3,0-0.6,0-0.6,0.2c0,0.5,1.3,0.1,1.3,1.3
		c0,0.1,0,0.3-0.3,1.1l-1.6,4.8l-2.2-5.8c-0.1-0.1-0.1-0.3-0.1-0.5c0-0.8,1.2-0.4,1.2-0.8c0-0.2-0.1-0.3-0.4-0.3
		c-0.3,0-0.8,0.1-1.5,0.1c-0.6,0-1-0.1-1.5-0.1c-0.3,0-0.4,0.1-0.4,0.3c0,0.3,0.8,0.3,1,0.8l2.8,6.9c0.2,0.4,0.4,0.9,0.4,1.4
		c0,1.7-2,3.2-2,3.7c0,0.1,0.5,0.1,0.8,0.1c0.3,0,0.7,0,0.7-0.1L126.1,77.4z M114,78.3c0-0.3,0.5-1.3,1.4-1.3c0.8,0,1,0.5,1.4,0.5
		c0.3,0,0.8-0.6,0.8-1c0-0.4-1-1-1.4-1c-0.9,0-1.7,1.1-2.1,1.7H114v-1.6c0-0.2-0.1-0.3-0.3-0.3c-0.5,0-0.9,0.7-2.5,1
		c-0.1,0-0.3,0.1-0.3,0.2c0,0.4,1.5-0.1,1.5,1.2v5.5c0,0.8-1,0.8-1,1.3c0,0.1,0.1,0.2,0.2,0.2c0.1,0,0.6-0.1,2-0.1
		c1.2,0,1.7,0.1,2,0.1c0.2,0,0.3-0.1,0.3-0.2c0-0.7-1.9,0.3-1.9-1.6L114,78.3L114,78.3z M105.2,82.5c0,2.2,1.4,2.4,2.4,2.4
		c1.5,0,2.7-0.7,2.7-1c0-0.1-0.1-0.2-0.1-0.2c-0.3,0-0.7,0.5-1.8,0.5c-0.8,0-1.5-0.4-1.5-1.3v-6.2h2.7L110,76
		c0.1-0.1,0.1-0.2,0.1-0.3c0-0.1-0.1-0.1-0.1-0.1c-0.1,0-0.3,0.3-0.8,0.3h-2.3c0-1.5,0-2-0.3-2c-0.1,0-0.3,0.5-0.8,1
		c-1,1.2-1.6,1.5-1.6,1.7c0,0.1,0.1,0.1,1.1,0.1V82.5z M100.1,80.8c0.8,0.4,2,0.8,2,1.9c0,1.1-0.8,1.7-1.9,1.7c-2.3,0-2-2.8-2.5-2.8
		c-0.3,0-0.3,0.7-0.3,1c0,1.7,0,1.7,0.5,1.7c0.5,0,0.9,0.6,2.4,0.6c1.5,0,2.9-1.3,2.9-2.9c0-1.3-0.6-2-1.7-2.5
		c-2.2-0.9-2.8-1.3-2.8-2c0-0.8,0.6-1.3,1.5-1.3c2,0,2.1,1.8,2.3,1.8c0.3,0,0.2-0.3,0.2-0.8c0-0.1,0-0.8-0.1-1
		c-0.3-0.3-1.7-0.5-2.1-0.5c-1.5,0-2.9,0.8-2.9,2.5C97.5,79.7,98.9,80.3,100.1,80.8z M93.8,71.3c-0.3,0-0.9,0.9-0.9,1.1
		c0,0.2,0.6,1.1,0.9,1.1c0.3,0,0.9-0.8,0.9-1.1S94.1,71.3,93.8,71.3z M93.1,82.9c0,2-0.9,1.1-0.9,1.7c0,0.2,0.1,0.2,0.3,0.2
		c0.2,0,0.8-0.1,1.5-0.1c0.8,0,1.5,0.1,2,0.1c0.3,0,0.4-0.1,0.4-0.2c0-0.6-1.7-0.1-1.7-1.2v-7.6c0-0.2-0.1-0.3-0.3-0.3
		c-0.5,0-0.9,0.7-2.2,1c-0.1,0-0.2,0.1-0.2,0.2c0,0.4,1.2-0.1,1.2,1.2L93.1,82.9L93.1,82.9z M85.8,82.5c0,2.2,1.4,2.4,2.4,2.4
		c1.5,0,2.7-0.7,2.7-1c0-0.1-0.1-0.2-0.1-0.2c-0.3,0-0.7,0.5-1.8,0.5c-0.8,0-1.5-0.4-1.5-1.3v-6.2h2.7l0.4-0.8
		c0.1-0.1,0.1-0.2,0.1-0.3c0-0.1-0.1-0.1-0.1-0.1c-0.1,0-0.3,0.3-0.8,0.3h-2.3c0-1.5,0-2-0.3-2c-0.1,0-0.3,0.5-0.8,1
		c-1,1.2-1.6,1.5-1.6,1.7c0,0.1,0.1,0.1,1.1,0.1V82.5z M76.2,78.2c0-0.3,0.7-1.7,2.5-1.7c1.7,0,2.4,1.6,2.4,2.7v4
		c0,1.4-0.9,1-0.9,1.4c0,0.2,0.1,0.3,0.3,0.3c0.3,0,0.7-0.1,1.5-0.1c1,0,1.5,0.1,1.8,0.1c0.2,0,0.3-0.1,0.3-0.3
		c0-0.6-1.7,0.1-1.7-1.4v-3.5c0-1.6-0.6-4-3.4-4c-2,0-3.1,1.8-3.1,1.5v-1.4c0-0.2-0.1-0.3-0.3-0.3c-0.5,0-0.9,0.7-2.7,1
		c-0.1,0-0.2,0.1-0.2,0.2c0,0.4,1.5-0.1,1.5,1.2v5.2c0,1.4-1.3,1-1.3,1.4c0,0.2,0.1,0.3,0.3,0.3c0.3,0,0.7-0.1,1.8-0.1
		c1.3,0,1.7,0.1,2,0.1c0.3,0,0.5-0.1,0.5-0.3c0-0.6-1.9,0.1-1.9-1.4v-5H76.2z M66,78.8c0-1.2,0.9-2.7,2.2-2.7c1.2,0,2.4,1,2.4,2.2
		c0,0.3-0.1,0.4-0.4,0.4C70.2,78.8,66,78.8,66,78.8z M71.6,79.4c0.5,0,0.7,0,0.7-0.3c0-0.8-1.1-3.4-3.8-3.4c-2.7,0-4.1,2.2-4.1,5
		c0,1.4,1.1,4.3,4.3,4.3c1.9,0,3.8-1.5,3.8-2c0-0.1,0-0.1-0.1-0.1c-0.5,0-1.2,1.1-3,1.1c-1.3,0-3.4-1-3.4-4.5
		C65.9,79.4,71.6,79.4,71.6,79.4z M50.9,82.6c0,2-1.5,1.5-1.5,2c0,0.1,0.1,0.2,0.2,0.2s2.2-0.1,2.4-0.1c1,0,2.2,0.1,3.2,0.1
		c5.9,0,8.2-3.4,8.2-8.3c0-3.9-3.7-6.8-7.4-6.8c-1.8,0-3.2,0.1-4.6,0.1c-0.6,0-1.3-0.1-1.9-0.1c-0.1,0-0.3,0.1-0.3,0.2
		c0,0.6,1.7-0.1,1.7,2C50.9,72,50.9,82.6,50.9,82.6z M52.5,71.7c0-1,0.1-1.3,2.1-1.3c4.1,0,7.2,2.7,7.2,7.4c0,4.9-2.9,6.5-5.9,6.5
		c-1,0-2.6-0.3-3.3-1c-0.2-0.2-0.1-1.2-0.1-1.5C52.5,81.7,52.5,71.7,52.5,71.7z"/>
</g>
</svg>
