<svg id="artwork" xmlns="http://www.w3.org/2000/svg" viewBox="0 0 216.65 113.89"><defs><style>.cls-1{fill:#bc4b27;}.cls-2{fill:#bc4700;}.cls-3{fill:#d66027;}.cls-4{fill:#fff;}.cls-5{fill:#fdceb0;}.cls-6{fill:#231f20;}.cls-7{fill:none;stroke:#bc4b27;}.cls-8{fill:#6d5560;}</style></defs><title>CMYK</title><g id="_CMYK_" data-name="&lt;CMYK&gt;"><g id="_Shield_" data-name="&lt;Shield&gt;"><path class="cls-1" d="M.38,20.85H50.7V13.18H44.4V10.7H42.92A12,12,0,0,1,37.2,9.37c-2.42-1.43-2.87-2.79-2.88-2.8v-2H31.1a5.46,5.46,0,0,0-10.66,0H17.15v2s-.46,1.37-2.87,2.8A12,12,0,0,1,8.56,10.7H6.63v2.48H.33v7.64"/><path class="cls-2" d="M.37,37.38a46.68,46.68,0,0,0,1.54,10.9A34.81,34.81,0,0,0,12,65.6a68.25,68.25,0,0,0,13.21,9.05.66.66,0,0,0,.55,0,92,92,0,0,0,9.42-5.93A35.13,35.13,0,0,0,48.45,50.38,55.06,55.06,0,0,0,50.71,34.1c0-2.89,0-7.93,0-10.82H.35c0,4,0,10.12,0,14.1m21.5,3.4,3.66-11.26,3.66,11.26H41l-9.59,7L35.12,59l-9.59-7L16,59l3.66-11.27-9.59-7Z"/><path class="cls-3" d="M25.68,20.85,25.82.35A5.47,5.47,0,0,0,20.49,4.6H17.2v2S16.74,8,14.33,9.4a11.93,11.93,0,0,1-5.72,1.32H6.68v2.49H.38v7.64Z"/><path class="cls-3" d="M25.57,52.07,16,59l3.66-11.27-9.58-7H21.9l3.67-11.26-.05-6.24H.39c0,4-.06,10.11,0,14.1A46.68,46.68,0,0,0,1.94,48.3,34.89,34.89,0,0,0,12.05,65.62a68.63,68.63,0,0,0,13.22,9,.29.29,0,0,0,.25,0Z"/><polygon class="cls-4" points="41.07 40.78 29.23 40.78 25.57 29.52 21.91 40.78 10.06 40.78 19.64 47.74 15.98 59.01 25.57 52.05 35.15 59.01 31.49 47.74 41.07 40.78"/><polygon class="cls-5" points="25.57 29.52 29.23 40.78 41.07 40.78 31.49 47.74 35.15 59.01 25.57 52.05 25.57 29.52"/></g><path class="cls-6" d="M31.91,72.09a1.27,1.27,0,0,1,.62.16,1.18,1.18,0,0,1,.47.47,1.29,1.29,0,0,1,.17.63A1.26,1.26,0,0,1,33,74a1.16,1.16,0,0,1-.46.47,1.29,1.29,0,0,1-.63.17,1.26,1.26,0,0,1-.62-.17,1.18,1.18,0,0,1-.47-.47,1.26,1.26,0,0,1-.17-.62,1.29,1.29,0,0,1,.17-.63,1.18,1.18,0,0,1,.47-.47A1.27,1.27,0,0,1,31.91,72.09Zm0,.21a1,1,0,0,0-.51.13,1,1,0,0,0-.4.39,1.13,1.13,0,0,0-.14.53,1.1,1.1,0,0,0,.14.52.92.92,0,0,0,.39.39,1.1,1.1,0,0,0,.52.14,1.07,1.07,0,0,0,.52-.14.92.92,0,0,0,.39-.39,1,1,0,0,0,.14-.52,1.13,1.13,0,0,0-.14-.53.92.92,0,0,0-.39-.39A1.08,1.08,0,0,0,31.91,72.3ZM31.36,74V72.69h.47a1,1,0,0,1,.34,0,.31.31,0,0,1,.17.13.36.36,0,0,1,.06.2.37.37,0,0,1-.1.26.45.45,0,0,1-.28.12.41.41,0,0,1,.11.07,1.16,1.16,0,0,1,.2.27l.17.26h-.27l-.12-.21a.89.89,0,0,0-.23-.31.23.23,0,0,0-.17,0h-.13V74Zm.22-.76h.26a.49.49,0,0,0,.26,0,.18.18,0,0,0,.07-.15.2.2,0,0,0,0-.11.16.16,0,0,0-.09-.07.57.57,0,0,0-.22,0h-.25Z"/><path class="cls-6" d="M80.69,45.05c1.4-1.88,2.11-4.61,2.11-8.09V27.5a9.9,9.9,0,0,1,.34-3.21A2.43,2.43,0,0,1,84.58,23c.31-.13.47-.32.47-.56a.43.43,0,0,0-.48-.46l-.85.06c-.33,0-1.21.06-2.62.06A11.87,11.87,0,0,1,79.39,22a9.07,9.07,0,0,0-1.24-.16.42.42,0,0,0-.36.12.48.48,0,0,0-.15.39c0,.22.12.48.67.54a2.78,2.78,0,0,1,2.24,1.17,6.63,6.63,0,0,1,.67,3.4v9.89c0,3.31-.75,5.81-2.23,7.44s-3.73,2.45-6.72,2.45c-3.33,0-5.74-1-7.15-2.93-1-1.37-1.51-3.71-1.51-7V27.74l0-1.26A6.2,6.2,0,0,1,63.93,24a1.93,1.93,0,0,1,1.4-.9c.47-.09.71-.29.71-.59s-.07-.42-.56-.42c-.18,0-.52,0-1,.06s-.91.07-1.06.07H62l-1.47,0c-.27,0-.69,0-1.27-.05s-1,0-1.33,0c-.7,0-.85.31-.85.57s.11.44.62.51a3.25,3.25,0,0,1,2.19,1,5,5,0,0,1,.54,2.76l0,1.08v9.71a13.68,13.68,0,0,0,1.37,6.54,8.57,8.57,0,0,0,3.85,3.47A13.52,13.52,0,0,0,71.58,49a13.3,13.3,0,0,0,5.29-1.07,9.06,9.06,0,0,0,3.82-2.88"/><path class="cls-6" d="M96,24.41c.59,0,.78.1.84.15s.16.24.16.8l0,.49v19A3.56,3.56,0,0,1,96.52,47a3.07,3.07,0,0,1-1.91.77c-.49,0-.74.22-.74.49s.09.53.7.53c.13,0,.55,0,1.29-.11a12.84,12.84,0,0,1,1.35-.06l1.49,0,1.4,0a13.86,13.86,0,0,1,1.7.06,9.08,9.08,0,0,0,1,.11c.57,0,.66-.33.66-.53s-.26-.46-.77-.55a2.51,2.51,0,0,1-2.4-2.54l0-.75V25.64c0-.74.12-1,.18-1s.29-.19,1-.19h5.37a3.88,3.88,0,0,1,2.08.38h0a2.72,2.72,0,0,1,.76,1.7c.09.47.27.7.59.69s.53-.17.51-.74c0-.2,0-.52-.12-1a10.11,10.11,0,0,1-.09-1.61c0-1.05-.14-1.33-.25-1.44s-.61-.26-1.36-.26H88.3a1.11,1.11,0,0,0-1,.32,2.27,2.27,0,0,0-.23,1.23A11.38,11.38,0,0,1,86.84,26a7.91,7.91,0,0,0-.23,1.49c0,.53.29.63.46.63.45,0,.59-.61.64-.82a4.36,4.36,0,0,1,1-2.27,3.24,3.24,0,0,1,2.16-.59Z"/><path class="cls-6" d="M140,48.68a8.91,8.91,0,0,1,.91-.06l1.42,0,1.42,0a14.3,14.3,0,0,1,1.89.08c.83.12,1.33.16,1.55-.09a.47.47,0,0,0,.12-.39c0-.27-.26-.43-.72-.49a2.9,2.9,0,0,1-2.11-.91,4.9,4.9,0,0,1-.55-2.75V25.57a3.34,3.34,0,0,1,.39-1.64,1.38,1.38,0,0,1,.91-.79L146,23c.46-.1.56-.33.56-.51s-.08-.49-.58-.49a5.91,5.91,0,0,0-.73.07,22.53,22.53,0,0,1-2.85.12A24.72,24.72,0,0,1,139.7,22c-.6-.06-1-.09-1.31-.09-.5,0-.59.27-.6.43s.09.46.65.57A2.69,2.69,0,0,1,140.22,24a5.51,5.51,0,0,1,.49,2.73v6.54c0,.31-.06.52-.17.59a2.1,2.1,0,0,1-1,.14H128.26c-1,0-1.27-.13-1.32-.18h0c-.07-.07-.18-.31-.18-1.22V25.77a3.47,3.47,0,0,1,.41-1.95,2.89,2.89,0,0,1,1.65-.89c.41-.1.61-.29.61-.55s-.09-.51-.68-.51a6.35,6.35,0,0,0-.81.08,20,20,0,0,1-2.53.15,31.86,31.86,0,0,1-3.48-.17c-.52-.07-.91-.1-1.16-.12a.7.7,0,0,0-.49.14.48.48,0,0,0-.13.36c0,.2.11.46.66.53a3.52,3.52,0,0,1,2.18.95,3.65,3.65,0,0,1,.6,2.34V42.56a15.6,15.6,0,0,1-.3,3.72,1.47,1.47,0,0,1-1.06,1.18l-1,.23c-.49.11-.6.37-.6.57s.08.47.6.47c.15,0,.54,0,1.22-.08q.72-.06,1.2-.06l1.25-.05,1.61,0a17.47,17.47,0,0,1,2.28.09,7.94,7.94,0,0,0,.95.08.75.75,0,0,0,.56-.17.46.46,0,0,0,.11-.35c0-.34-.29-.54-.83-.6a3.23,3.23,0,0,1-2.27-1,4.55,4.55,0,0,1-.6-2.71v-7c0-.7.12-.94.22-1s.41-.19,1.28-.19h11.25c.87,0,1,.09,1.07.12s.13.18.13,1v7l0,.74c0,1.91-.62,2.94-1.9,3.16-.48.07-.74.25-.75.54a.46.46,0,0,0,.11.36.56.56,0,0,0,.42.14h.05l1.33-.09"/><path class="cls-6" d="M196.34,46.47l-.17.05-1,.48a4.09,4.09,0,0,1-1.91.4,2.85,2.85,0,0,1-2.15-.78,3.72,3.72,0,0,1-.5-2.35V34.78H195a.93.93,0,0,0,.95-.63l.44-1.1a1.59,1.59,0,0,0,.18-.52.34.34,0,0,0-.08-.28.28.28,0,0,0-.25-.06,1.35,1.35,0,0,0-.47.25,2.22,2.22,0,0,1-1.23.28h-3.95l.08-3.18c0-.51-.21-.62-.39-.62s-.35.11-.83.9a16.55,16.55,0,0,1-3.4,3.77c-.36.31-.54.56-.54.78s.11.41.62.41h1.58V44.3c0,3.12,1.52,4.7,4.52,4.7a6.68,6.68,0,0,0,2.86-.74c1.06-.51,1.58-1,1.58-1.46a.31.31,0,0,0-.35-.33"/><path class="cls-6" d="M153.64,33.29a3.8,3.8,0,0,1,2.71,1.25,3.73,3.73,0,0,1,1.26,2.68c0,.41-.76.49-1.39.49h-6.34a6.12,6.12,0,0,1,1.25-3.21h0a3.14,3.14,0,0,1,2.51-1.21m7,11.61a.8.8,0,0,0-.34.16,7.65,7.65,0,0,1-4.46,1.85,5.44,5.44,0,0,1-4.36-2.19,8.33,8.33,0,0,1-1.78-5.41V39h7.12l1.3,0h1.42c.91,0,1.37-.25,1.37-.75a4.8,4.8,0,0,0-.49-1.59,10,10,0,0,0-1-1.79,6.12,6.12,0,0,0-5.2-2.7,6.76,6.76,0,0,0-5.2,2.53,8.74,8.74,0,0,0-2.2,5.89,8.63,8.63,0,0,0,2.14,5.94A6.85,6.85,0,0,0,154.37,49a8.59,8.59,0,0,0,5.33-2c.93-.73,1.38-1.29,1.38-1.72A.45.45,0,0,0,161,45a.37.37,0,0,0-.29-.08"/><path class="cls-6" d="M185.25,47.56c-1.25-.21-2-.62-2.28-1.21a6.34,6.34,0,0,1-.35-2.36V21.56l0-.6h0c0-.48-.06-.76-.2-.88a.25.25,0,0,0-.19-.08.84.84,0,0,0-.48.17,9.16,9.16,0,0,1-1.83.91l-1.17.47a8.09,8.09,0,0,1-1.17.36c-.39.11-.59.29-.59.53a.44.44,0,0,0,.31.43,1.27,1.27,0,0,0,.37.05h0l.95,0c.74,0,1.1.53,1.1,1.63v21.2a2.21,2.21,0,0,1-.27,1.25,2,2,0,0,1-1.09.62c-.43.11-.64.31-.63.59s.11.49.64.49a6.17,6.17,0,0,0,.75-.1c.27,0,1-.06,2.22-.06H184a4.42,4.42,0,0,1,.84,0,2.75,2.75,0,0,0,.52.08.54.54,0,0,0,.4-.14.56.56,0,0,0,.13-.42c0-.26-.24-.43-.66-.5"/><path class="cls-6" d="M167.09,42.18a9.63,9.63,0,0,1,4.39-1.31v3.65a2.79,2.79,0,0,1-.62,2,3.62,3.62,0,0,1-2.6,1,2.54,2.54,0,0,1-2.73-2.72,3.11,3.11,0,0,1,1.56-2.65M177,47.29a2.25,2.25,0,0,0-.48.08,2.39,2.39,0,0,1-.43,0,1.39,1.39,0,0,1-1.34-.69,5.26,5.26,0,0,1-.42-2.47V36.76a4.08,4.08,0,0,0-1.47-3.35,6.46,6.46,0,0,0-4.11-1.18,6.09,6.09,0,0,0-4.66,1.88,4,4,0,0,0-1.31,2.64c0,.35.26.67.79.94a3.53,3.53,0,0,0,1.68.4.54.54,0,0,0,.4-.14.4.4,0,0,0,.1-.33,2.33,2.33,0,0,0-.14-.63,5,5,0,0,1-.24-1.41c0-1.35.79-2,2.4-2a3.9,3.9,0,0,1,2.9,1.1,4.23,4.23,0,0,1,.78,2.94v2.25a19.75,19.75,0,0,0-6.71,1.94,3.92,3.92,0,0,0-2.06,3.52,3.48,3.48,0,0,0,1.1,2.68,4.21,4.21,0,0,0,2.93,1,8.73,8.73,0,0,0,5.1-2,3.58,3.58,0,0,0,2.87,1.9,4.74,4.74,0,0,0,1.77-.36c.65-.26,1-.52,1-.81a.35.35,0,0,0-.09-.29.41.41,0,0,0-.34-.1"/><path class="cls-6" d="M215.81,47.77a3.4,3.4,0,0,1-1.95-.75,2.93,2.93,0,0,1-.45-1.9V39.06a7.13,7.13,0,0,0-1.7-4.94,5.75,5.75,0,0,0-4.45-1.89A6.93,6.93,0,0,0,202,35.05V22.28c0-.43,0-.75,0-1s0-.39,0-.48c0-.47-.28-.54-.45-.54a1.07,1.07,0,0,0-.45.13l-1.5.71a14,14,0,0,1-2.66,1q-.54.15-.54.51a.41.41,0,0,0,.2.37.84.84,0,0,0,.33.07h0l1-.06a.82.82,0,0,1,.65.22,2.71,2.71,0,0,1,.5,1.93v19.9a4.76,4.76,0,0,1-.24,2,2.41,2.41,0,0,1-1.32.73c-.45.13-.53.39-.52.59s.1.41.6.41l.89-.05c.94-.07,1.68-.1,2.19-.1,1.47,0,2.45,0,2.9.07s.92.08,1.07.08c.47,0,.54-.27.54-.44s-.25-.51-.75-.58a3.28,3.28,0,0,1-2.06-.76,4.61,4.61,0,0,1-.42-2.46v-7.4A2.75,2.75,0,0,1,203.27,35a4.57,4.57,0,0,1,2.82-1,4.09,4.09,0,0,1,3.23,1.37,5.57,5.57,0,0,1,1.21,3.76V45.5l0,.6a1.83,1.83,0,0,1-.2,1.07,2.7,2.7,0,0,1-1.16.62q-.48.2-.45.51c0,.18.1.47.65.47a5.28,5.28,0,0,0,.61-.05,21,21,0,0,1,2.47-.1c.67,0,1.49,0,2.42.09l.94.06c.56,0,.64-.29.64-.46s-.11-.47-.62-.54"/><path class="cls-6" d="M64.92,63.62a23.52,23.52,0,0,1-2.22-.81,2.49,2.49,0,0,1-.81-.7,2.07,2.07,0,0,1-.43-1.32,1.82,1.82,0,0,1,.66-1.44,2.39,2.39,0,0,1,1.64-.59,4.17,4.17,0,0,1,2.27.65,3.12,3.12,0,0,1,1.34,1.64c.11.33.22.48.35.48s.25-.06.25-.33c0-.06,0-.18,0-.39l-.15-1c-.08-.52-.12-.84-.12-.94a.59.59,0,0,0-.12-.44.2.2,0,0,0-.15-.06.17.17,0,0,0-.15.05l-.13.11a.29.29,0,0,1-.34,0l-.64-.26a4.33,4.33,0,0,0-1.71-.3,4.42,4.42,0,0,0-2.92,1,3.12,3.12,0,0,0-1.14,2.5,3,3,0,0,0,.87,2.23,7.8,7.8,0,0,0,3,1.56,9.4,9.4,0,0,1,2.4,1A2.16,2.16,0,0,1,67.38,68a2.32,2.32,0,0,1-.87,1.8,3.24,3.24,0,0,1-2.14.74,3.91,3.91,0,0,1-2.32-.77,3.63,3.63,0,0,1-1.39-1.92c-.1-.33-.21-.49-.35-.5a.23.23,0,0,0-.16.06.33.33,0,0,0-.08.26,5.14,5.14,0,0,0,.24,1.21l.23.84c.08.35.14.57.17.66a.76.76,0,0,0,.25.26,4,4,0,0,0,1.27.48,6.9,6.9,0,0,0,1.6.21,4.83,4.83,0,0,0,3.28-1.12,3.7,3.7,0,0,0,1.29-2.89c0-1.73-1.17-3-3.48-3.74"/><path class="cls-6" d="M71.79,68a4.8,4.8,0,0,1,2.15-.64v1.79a1.36,1.36,0,0,1-.31,1,1.76,1.76,0,0,1-1.27.49A1.24,1.24,0,0,1,71,69.34a1.53,1.53,0,0,1,.77-1.3m4.85,2.51-.23,0-.22,0a.69.69,0,0,1-.66-.34,2.72,2.72,0,0,1-.2-1.21V65.41a2,2,0,0,0-.72-1.63,3.11,3.11,0,0,0-2-.57,3,3,0,0,0-2.26.91,2,2,0,0,0-.64,1.28c0,.17.13.32.38.45a1.74,1.74,0,0,0,.82.2.25.25,0,0,0,.18-.07.17.17,0,0,0,0-.15,1.48,1.48,0,0,0-.07-.31,2.78,2.78,0,0,1-.12-.69c0-.66.39-1,1.19-1a1.9,1.9,0,0,1,1.42.54,2.09,2.09,0,0,1,.38,1.44v1.1a9.84,9.84,0,0,0-3.28.95,1.9,1.9,0,0,0-1,1.71,1.63,1.63,0,0,0,.53,1.29,2,2,0,0,0,1.42.49,4.25,4.25,0,0,0,2.49-1,1.72,1.72,0,0,0,1.4.93,2.44,2.44,0,0,0,.86-.17c.31-.13.46-.25.47-.38a.16.16,0,0,0,0-.14.21.21,0,0,0-.15,0"/><path class="cls-6" d="M86.8,70.72l-.39,0a.79.79,0,0,1-.74-.68l0-.44V67a4.55,4.55,0,0,0-.6-2.59,2.83,2.83,0,0,0-2.4-1.24,3.43,3.43,0,0,0-2.54,1.4V63.33a.33.33,0,0,0-.06-.26c-.07-.09-.21-.07-.38,0l-.36.18-.49.24a4.66,4.66,0,0,1-1.2.38c-.18,0-.28.11-.28.23a.18.18,0,0,0,.11.17.34.34,0,0,0,.17,0H78a.6.6,0,0,1,.56.22,1.72,1.72,0,0,1,.15.87v4.2a1.45,1.45,0,0,1-.15.76,1.27,1.27,0,0,1-.62.39.28.28,0,0,0-.21.23.16.16,0,0,0,0,.14.21.21,0,0,0,.17.06l.38,0c.19,0,.78,0,1.76,0a8.08,8.08,0,0,1,.87,0,4.08,4.08,0,0,0,.48,0c.23,0,.27-.14.27-.22s-.12-.23-.36-.25c-.81,0-1.22-.31-1.25-.81V65.61a1.24,1.24,0,0,1,.58-1A2.15,2.15,0,0,1,82,64.16a2.07,2.07,0,0,1,1.66.69,3,3,0,0,1,.59,2V70c0,.36-.11.56-.34.62l-.28.07a.22.22,0,0,0-.2.23.2.2,0,0,0,.09.19l.15,0,.27,0h.36l.91,0a9.53,9.53,0,0,1,1.13,0l.37,0a.41.41,0,0,0,.3-.09.21.21,0,0,0,.06-.16c0-.12-.11-.2-.31-.23"/><path class="cls-6" d="M142.25,70.74l-.42,0a.81.81,0,0,1-.58-.26,1.79,1.79,0,0,1-.14-.86V63.28c0-.21-.09-.26-.16-.27h0l-.5.24a8.88,8.88,0,0,1-1.33.59c-.34.11-.5.21-.51.32a.15.15,0,0,0,0,.11.5.5,0,0,0,.36.09q.47,0,.6.21a2.24,2.24,0,0,1,.14,1v4.06a2.14,2.14,0,0,1-.11.79.63.63,0,0,1-.39.32l-.18.06a.26.26,0,0,0-.2.25c0,.1.06.22.3.22l.35,0,.28,0,.68,0h.6a5.55,5.55,0,0,1,.65,0l.61,0c.24,0,.3-.11.3-.2s-.11-.26-.37-.29"/><path class="cls-6" d="M137.67,70.72l-.39,0a.77.77,0,0,1-.74-.68l0-.44V67a4.54,4.54,0,0,0-.61-2.59,2.8,2.8,0,0,0-2.4-1.24,3.45,3.45,0,0,0-2.54,1.4v-.93c0-.13,0-.25,0-.35a.33.33,0,0,0-.06-.26c-.08-.09-.22-.07-.38,0l-.37.18-.49.24a4.59,4.59,0,0,1-1.19.38c-.19,0-.28.11-.28.23a.18.18,0,0,0,.1.17.37.37,0,0,0,.18,0h.4a.63.63,0,0,1,.56.22,1.72,1.72,0,0,1,.15.87v4.2a1.43,1.43,0,0,1-.16.76,1.22,1.22,0,0,1-.62.39c-.13,0-.2.13-.2.23a.16.16,0,0,0,0,.14.24.24,0,0,0,.17.06l.38,0c.19,0,.79,0,1.77,0a8.19,8.19,0,0,1,.87,0,3.89,3.89,0,0,0,.48,0c.23,0,.26-.14.26-.22s-.12-.23-.35-.25c-.81,0-1.22-.31-1.25-.81l0-.75V65.61a1.27,1.27,0,0,1,.58-1,2.17,2.17,0,0,1,1.35-.45,2.07,2.07,0,0,1,1.67.69,3,3,0,0,1,.58,2V70c0,.36-.11.56-.33.62l-.28.07a.23.23,0,0,0-.21.23.22.22,0,0,0,.09.19l.15,0,.28,0h.35l.92,0a9.53,9.53,0,0,1,1.13,0l.37,0a.41.41,0,0,0,.3-.09A.21.21,0,0,0,138,71c0-.12-.11-.2-.3-.23"/><path class="cls-6" d="M126,67.78a3.56,3.56,0,0,1-.66,2.27,2.15,2.15,0,0,1-1.78.83,2.63,2.63,0,0,1-2.17-1.18,4.87,4.87,0,0,1-.88-3,3.46,3.46,0,0,1,.7-2.23,2.27,2.27,0,0,1,1.84-.84,2.53,2.53,0,0,1,2.12,1.13,5,5,0,0,1,.83,3m-2.71-4.57a4.08,4.08,0,0,0-3,1.2,3.94,3.94,0,0,0-1.23,2.92,3.9,3.9,0,0,0,1.16,2.9,4,4,0,0,0,2.94,1.14,4.15,4.15,0,0,0,3-1.17,4,4,0,0,0,1.2-3,3.85,3.85,0,0,0-1.22-2.84,4,4,0,0,0-2.91-1.19"/><path class="cls-6" d="M140.48,59.36c-.14,0-.32.13-.56.4a1.12,1.12,0,0,0-.36.63,1.14,1.14,0,0,0,.32.62c.22.26.39.39.54.39s.33-.13.56-.4a1,1,0,0,0,.33-.63.45.45,0,0,0-.1-.26l-.23-.36c-.16-.26-.33-.39-.5-.39"/><path class="cls-6" d="M98.18,65.09c0,.12-.14.19-.41.19H94.7c-.38,0-.38-.15-.38-.2a.91.91,0,0,1,.12-.32l1.81-4c.07-.14.1-.15.1-.15s.12,0,.21.28l1.53,3.88,0,.17h0a.6.6,0,0,1,0,.2m5.06,5.62a2.29,2.29,0,0,1-1.15-.42,4.42,4.42,0,0,1-.72-1.39l-.2-.5-4-10.27q-.12-.3-.3-.3c-.12,0-.22.1-.31.31l-4.8,10.64-.26.62a4.44,4.44,0,0,1-.52.81,1.26,1.26,0,0,1-.48.44l-.35.1A.26.26,0,0,0,90,71c0,.08,0,.22.3.22l.53,0,.41,0,1,0,.89.06h.32a.38.38,0,0,0,.27-.08.18.18,0,0,0,0-.13c0-.13-.12-.22-.33-.26a1.89,1.89,0,0,1-.84-.33.79.79,0,0,1-.2-.6,4,4,0,0,1,.41-1.38l.61-1.37a2.08,2.08,0,0,1,.43-.73,2,2,0,0,1,.83-.1H98c.44,0,.57,0,.6.07s.13.16.29.57l.47,1.23a7.39,7.39,0,0,1,.56,2c0,.34-.13.53-.42.59l-.29.06c-.23,0-.27.15-.27.24s0,.24.29.24a1.37,1.37,0,0,0,.29,0,13.39,13.39,0,0,1,1.62-.05c.82,0,1.4,0,1.72,0l.36,0c.24,0,.3-.11.31-.2s-.1-.24-.32-.28"/><path class="cls-6" d="M150,67.78a3.62,3.62,0,0,1-.65,2.27,2.16,2.16,0,0,1-1.78.83,2.66,2.66,0,0,1-2.18-1.18,4.84,4.84,0,0,1-.87-3,3.4,3.4,0,0,1,.7-2.23,2.26,2.26,0,0,1,1.83-.84,2.52,2.52,0,0,1,2.12,1.13,5,5,0,0,1,.83,3m-2.71-4.57a4.08,4.08,0,0,0-3,1.2,4,4,0,0,0-1.23,2.92,3.9,3.9,0,0,0,1.16,2.9,4,4,0,0,0,3,1.14,4.14,4.14,0,0,0,3-1.17,4,4,0,0,0,1.2-3,3.88,3.88,0,0,0-1.21-2.84,4,4,0,0,0-2.92-1.19"/><path class="cls-6" d="M112.92,70.72l-.39,0a.79.79,0,0,1-.75-.68l0-.44V67a4.54,4.54,0,0,0-.61-2.59,2.81,2.81,0,0,0-2.4-1.24,3.45,3.45,0,0,0-2.54,1.4v-.93c0-.13,0-.25,0-.35a.33.33,0,0,0-.06-.26c-.08-.09-.22-.07-.39,0l-.36.18-.49.24a4.59,4.59,0,0,1-1.19.38c-.19,0-.28.11-.28.23a.17.17,0,0,0,.1.17.35.35,0,0,0,.18,0h.4a.6.6,0,0,1,.55.22,1.72,1.72,0,0,1,.15.87v4.2a1.45,1.45,0,0,1-.15.76,1.22,1.22,0,0,1-.62.39c-.13,0-.2.13-.2.23a.16.16,0,0,0,0,.14.22.22,0,0,0,.17.06l.38,0c.19,0,.78,0,1.77,0a7.85,7.85,0,0,1,.86,0,4.21,4.21,0,0,0,.49,0c.23,0,.26-.14.26-.22s-.12-.23-.35-.25c-.81,0-1.22-.31-1.25-.81l0-.75V65.61a1.27,1.27,0,0,1,.58-1,2.17,2.17,0,0,1,1.35-.45,2,2,0,0,1,1.66.69,3,3,0,0,1,.59,2V70c0,.36-.11.56-.34.62l-.27.07a.23.23,0,0,0-.21.23.21.21,0,0,0,.09.19l.15,0,.27,0h.36l.92,0a9.75,9.75,0,0,1,1.13,0l.36,0a.38.38,0,0,0,.3-.09.23.23,0,0,0,.06-.16c0-.12-.11-.2-.3-.23"/><path class="cls-6" d="M118.78,70.15l-.07,0-.49.23a2,2,0,0,1-.94.2,1.37,1.37,0,0,1-1-.39,1.74,1.74,0,0,1-.25-1.15V64.43h2.16a.45.45,0,0,0,.46-.3l.21-.53a.76.76,0,0,0,.09-.26.18.18,0,0,0,0-.13.14.14,0,0,0-.11,0,.72.72,0,0,0-.23.12,1.11,1.11,0,0,1-.6.14H116l0-1.56c0-.24-.1-.3-.18-.3s-.16.06-.4.44a8.12,8.12,0,0,1-1.66,1.84c-.17.15-.26.27-.26.37s0,.19.29.19h.79v4.66c0,1.51.73,2.28,2.19,2.28a3.23,3.23,0,0,0,1.39-.36c.51-.25.76-.48.76-.71a.14.14,0,0,0-.16-.15"/><line class="cls-7" x1="60.42" y1="78.44" x2="213.35" y2="78.44"/><g id="_VPR_" data-name="&lt;VPR&gt;"><path class="cls-8" d="M60.36,91a5.33,5.33,0,0,1,5.5-5.38,5.22,5.22,0,0,1,5.42,5.31,5.31,5.31,0,0,1-5.67,5.55C62.35,96.46,60.36,94.15,60.36,91Zm1.09-.43c0,2.77,1.82,5.46,4.79,5.46,2.19,0,3.94-1.76,3.94-4.53s-1.84-5.39-4.77-5.39C62.89,86.09,61.45,88.18,61.45,90.55Z"/><path class="cls-8" d="M65.61,96.51c-3.17,0-5.3-2.22-5.3-5.53a5.37,5.37,0,0,1,5.55-5.43,5.52,5.52,0,0,1,3.89,1.5,5.28,5.28,0,0,1,1.58,3.86A5.36,5.36,0,0,1,65.61,96.51Zm.25-10.86A5.27,5.27,0,0,0,60.41,91c0,3.25,2.09,5.43,5.2,5.43a5.27,5.27,0,0,0,5.62-5.5A5.14,5.14,0,0,0,65.86,85.65Zm.38,10.41a4.5,4.5,0,0,1-3.55-1.71,6.12,6.12,0,0,1-1.29-3.8,4.9,4.9,0,0,1,1.05-3.15,3.71,3.71,0,0,1,3-1.36c3,0,4.82,2.76,4.82,5.44S68.55,96.06,66.24,96.06Zm-.83-9.92c-1.88,0-3.91,1.38-3.91,4.41,0,3.51,2.44,5.41,4.74,5.41s3.89-1.85,3.89-4.48S68.37,86.14,65.41,86.14Z"/><path class="cls-8" d="M72.62,90.05a5.92,5.92,0,0,1,.88-3.16,3.5,3.5,0,0,1,2.43-1.61c.2,0,.62.06.62.32s-.06,1.06-.23,1.06-.07-.63-1-.63c-.79,0-1.33.86-1.47,1.55a13.55,13.55,0,0,0-.12,2.47h1.16a.92.92,0,0,0,.58-.25.11.11,0,0,1,.11.12.6.6,0,0,1-.09.21l-.3.54H73.71v4.56c0,1,1.07.6,1.07.93s-.2.13-.32.13H72.14c-.08,0-.24,0-.24-.09,0-.31.72-.13.72-.85V90.67h-1l.09-.62Z"/><path class="cls-8" d="M74.6,96.35H72a.22.22,0,0,1-.16,0,.2.2,0,0,1,0-.1c0-.16.13-.21.28-.27s.44-.18.44-.58V90.72h-1l.1-.72h.93a5.89,5.89,0,0,1,.89-3.14,3.48,3.48,0,0,1,2.47-1.63c.25,0,.67.08.67.37,0,0,0,1.11-.28,1.11-.1,0-.14-.09-.19-.18s-.22-.45-.83-.45-1.28.78-1.42,1.51a11.3,11.3,0,0,0-.12,2.11V90h1.11a.7.7,0,0,0,.49-.2s.06,0,.09,0a.16.16,0,0,1,.15.17.48.48,0,0,1-.09.23l-.32.57H73.76v4.51c0,.56.39.63.7.69s.37.07.37.24a.16.16,0,0,1-.06.13A.21.21,0,0,1,74.6,96.35Zm-2.46-.11h2.39a.27.27,0,0,0,.18,0,.09.09,0,0,0,0-.06c0-.08-.11-.11-.29-.14s-.78-.15-.78-.79V90.62h1.48l.28-.52a.5.5,0,0,0,.09-.18s0-.07-.05-.07l0,0a.81.81,0,0,1-.55.22H73.66v-.4a11.56,11.56,0,0,1,.12-2.13c.15-.77.74-1.59,1.52-1.59s.83.32.92.51.07.12.1.12.18-.56.18-1c0-.22-.41-.27-.57-.27a3.48,3.48,0,0,0-2.39,1.58,6,6,0,0,0-.87,3.14v0h-.94l-.08.52h1v4.73a.66.66,0,0,1-.5.67c-.14.06-.22.09-.22.18v0s.1,0,.14,0Z"/><path class="cls-8" d="M81.42,95.36c0,.77,1.18.44,1.18.83,0,.15-.1.1-.21.1H80c-.12,0-.36,0-.38-.1,0-.38.66.19.66-1.17V91.48c0-.66.06-.81-.6-.81H77.79v4.56c0,1,1.06.6,1.06.93s-.19.13-.31.13H76.21c-.07,0-.24,0-.24-.09,0-.31.72-.13.72-.85V90.67h-1l.09-.62h.93a5.93,5.93,0,0,1,.89-3.16A3.46,3.46,0,0,1,80,85.28c.19,0,1,.06,1,.32s-.06,1.06-.22,1.06-.08-.75-1.44-.75c-.8,0-1.34,1-1.47,1.67a13.55,13.55,0,0,0-.12,2.47H80a1.74,1.74,0,0,0,1.25-.31c.09,0,.18.09.18.24Z"/><path class="cls-8" d="M82.5,96.35H80c-.13,0-.34,0-.36-.15s.12-.2.22-.22.44-.1.44-1v-3.7c0-.27,0-.43-.07-.51s-.21-.09-.48-.09H77.84v4.51c0,.56.38.63.69.69s.37.07.37.24a.17.17,0,0,1-.05.13.3.3,0,0,1-.25,0H76.12a.22.22,0,0,1-.16,0,.13.13,0,0,1,0-.1c0-.16.14-.21.28-.27a.56.56,0,0,0,.44-.58V90.72h-1l.11-.72h.92a6.07,6.07,0,0,1,.89-3.14A3.5,3.5,0,0,1,80,85.23s1.08,0,1.08.37c0,0,0,1.11-.27,1.11-.09,0-.14-.08-.19-.17s-.3-.58-1.25-.58c-.76,0-1.29,1-1.43,1.63a12.27,12.27,0,0,0-.12,2.11c0,.1,0,.2,0,.3H80c.81,0,1-.16,1.1-.24a.2.2,0,0,1,.15-.07.26.26,0,0,1,.23.29v5.38c0,.41.37.47.69.53s.49.09.49.3a.15.15,0,0,1,0,.12A.15.15,0,0,1,82.5,96.35ZM80,96.24h2.42a.11.11,0,0,0,.08,0s0,0,0,0-.15-.15-.4-.2-.78-.14-.78-.63V90c0-.12-.07-.19-.13-.19a.14.14,0,0,0-.09,0c-.11.1-.32.27-1.16.27H77.74v0c0-.11,0-.23,0-.34a11.67,11.67,0,0,1,.13-2.14c.14-.71.7-1.71,1.52-1.71,1,0,1.23.41,1.34.63s.07.12.1.12a2.22,2.22,0,0,0,.17-1c0-.18-.65-.27-1-.27a3.48,3.48,0,0,0-2.39,1.58,5.88,5.88,0,0,0-.88,3.14v0H75.8l-.07.52h1v4.73a.66.66,0,0,1-.5.67c-.14.06-.22.09-.22.18s0,0,0,0,.1,0,.14,0H78.6a.25.25,0,0,0,.18,0s0,0,0-.06-.11-.11-.29-.14-.77-.15-.77-.79V90.62h2c.31,0,.46,0,.55.12s.1.29.1.58V95c0,.93-.31,1-.52,1s-.14,0-.14.12.12.06.25,0Z"/><path class="cls-8" d="M82.58,93.28A3.38,3.38,0,0,1,86,89.86c.75,0,1.77.21,1.82.55s0,.69,0,.89,0,.31-.12.31-.31-.28-.36-.34a2.18,2.18,0,0,0-1.86-.92c-1.27,0-1.77,1.32-1.77,2.4a2.69,2.69,0,0,0,2.66,3c1.17,0,1.83-.87,2-.87.05,0,.12,0,.12.09,0,.24-.9,1.53-3,1.53A3.08,3.08,0,0,1,82.58,93.28Z"/><path class="cls-8" d="M85.55,96.51a3.13,3.13,0,0,1-3-3.23A3.44,3.44,0,0,1,86,89.81c.75,0,1.82.2,1.87.59a6.26,6.26,0,0,1,0,.74v.16c0,.3-.09.36-.17.36s-.3-.21-.37-.33l0,0a2.1,2.1,0,0,0-1.82-.9c-1.18,0-1.72,1.22-1.72,2.35a2.62,2.62,0,0,0,2.61,2.91A2.77,2.77,0,0,0,88,95c.17-.12.28-.2.36-.2s.17.06.17.14S87.69,96.51,85.55,96.51Zm.4-6.6a3.35,3.35,0,0,0-3.32,3.37,3,3,0,0,0,2.92,3.13,3,3,0,0,0,2.9-1.48s0,0-.07,0a1,1,0,0,0-.3.18,2.82,2.82,0,0,1-1.75.69,2.72,2.72,0,0,1-2.71-3c0-1.18.57-2.45,1.82-2.45a2.2,2.2,0,0,1,1.9.94l0,0c0,.08.19.28.29.28s.07,0,.07-.26v-.16a5.89,5.89,0,0,0,0-.72C87.68,90.13,86.74,89.91,86,89.91Z"/><path class="cls-8" d="M89.91,92.5c0,2.47,1.5,3.21,2.41,3.21,1.29,0,1.79-.78,2.12-.78.06,0,.06.06.06.1a3.2,3.2,0,0,1-2.66,1.43,3.09,3.09,0,0,1-3-3.08c0-1.92,1.07-3.52,2.94-3.52a2.76,2.76,0,0,1,2.66,2.38c0,.27-.17.26-.51.26Zm3-.41c.21,0,.3-.07.3-.3A1.72,1.72,0,0,0,91.5,90.2c-.93,0-1.59,1.07-1.59,1.89Z"/><path class="cls-8" d="M91.84,96.51a3.15,3.15,0,0,1-3.08-3.13c0-2.1,1.23-3.57,3-3.57a2.83,2.83,0,0,1,2.71,2.43.28.28,0,0,1-.08.22c-.07.08-.2.09-.39.09H90c0,1.1.52,3.11,2.36,3.11A2.77,2.77,0,0,0,94,95.09a.91.91,0,0,1,.44-.21c.11,0,.11.11.11.15C94.55,95.42,93.2,96.51,91.84,96.51Zm-.09-6.6c-1.7,0-2.89,1.43-2.89,3.47a3,3,0,0,0,3,3A3.19,3.19,0,0,0,94.45,95s0,0,0,0a.85.85,0,0,0-.39.19,2.85,2.85,0,0,1-1.73.59c-.85,0-2.46-.69-2.46-3.26v0H94c.18,0,.31,0,.36-.06a.19.19,0,0,0,0-.15A2.72,2.72,0,0,0,91.75,89.91Zm1.11,2.23h-3v0a1.91,1.91,0,0,1,1.64-1.94,1.77,1.77,0,0,1,1.71,1.64C93.21,92,93.11,92.14,92.86,92.14ZM90,92h2.9c.19,0,.25-.06.25-.25a1.66,1.66,0,0,0-1.61-1.54A1.8,1.8,0,0,0,90,92Z"/><path class="cls-8" d="M97.68,93.28A3.38,3.38,0,0,1,101,89.86a3.08,3.08,0,0,1,3.26,3.34A3.19,3.19,0,0,1,101,96.46,3.07,3.07,0,0,1,97.68,93.28Zm5.55.15c0-1.55-.65-3.24-2.43-3.24-1.47,0-2.07,1.29-2.07,2.56,0,1.47.69,3.39,2.44,3.39C102.43,96.14,103.23,95.29,103.23,93.43Z"/><path class="cls-8" d="M101,96.51a3.11,3.11,0,0,1-3.41-3.23A3.43,3.43,0,0,1,101,89.81a3.14,3.14,0,0,1,3.31,3.39A3.23,3.23,0,0,1,101,96.51Zm0-6.6a3.33,3.33,0,0,0-3.29,3.37A3,3,0,0,0,101,96.41a3.13,3.13,0,0,0,3.19-3.21A3,3,0,0,0,101,89.91Zm.15,6.28A2.15,2.15,0,0,1,99.25,95a4.5,4.5,0,0,1-.57-2.27c0-1.2.55-2.61,2.12-2.61,1.83,0,2.48,1.77,2.48,3.29C103.28,95.21,102.53,96.19,101.17,96.19Zm-.37-6c-1.5,0-2,1.35-2,2.51,0,2.3,1.24,3.34,2.39,3.34,1.31,0,2-.92,2-2.66C103.18,91.07,102,90.24,100.8,90.24Z"/><path class="cls-8" d="M105.41,90.05a5.93,5.93,0,0,1,.89-3.16,3.46,3.46,0,0,1,2.43-1.61c.19,0,.61.06.61.32s-.06,1.06-.22,1.06-.08-.63-1-.63-1.34.86-1.47,1.55a13.55,13.55,0,0,0-.12,2.47h1.15a1,1,0,0,0,.59-.25.11.11,0,0,1,.1.12.46.46,0,0,1-.09.21l-.3.54h-1.45v4.56c0,1,1.06.6,1.06.93s-.19.13-.31.13h-2.33c-.07,0-.24,0-.24-.09,0-.31.72-.13.72-.85V90.67h-1l.09-.62Z"/><path class="cls-8" d="M107.39,96.35h-2.55a.22.22,0,0,1-.16,0,.13.13,0,0,1,0-.1c0-.16.14-.21.28-.27a.56.56,0,0,0,.44-.58V90.72h-1l.11-.72h.92a6.07,6.07,0,0,1,.89-3.14,3.5,3.5,0,0,1,2.48-1.63c.24,0,.66.08.66.37,0,0,0,1.11-.27,1.11-.1,0-.15-.09-.19-.18s-.22-.45-.83-.45-1.28.78-1.43,1.51a12.22,12.22,0,0,0-.12,2.11c0,.1,0,.2,0,.3h1.1a.7.7,0,0,0,.49-.2.19.19,0,0,1,.1,0,.16.16,0,0,1,.15.17.5.5,0,0,1-.1.23l-.31.57h-1.43v4.51c0,.56.38.63.69.69s.37.07.37.24a.19.19,0,0,1-.05.13A.23.23,0,0,1,107.39,96.35Zm-2.46-.11h2.39a.25.25,0,0,0,.18,0s0,0,0-.06-.11-.11-.29-.14-.77-.15-.77-.79V90.62h1.47l.29-.52a.45.45,0,0,0,.08-.18s0-.07,0-.07l0,0a.84.84,0,0,1-.56.22h-1.2v0c0-.11,0-.23,0-.35a11.56,11.56,0,0,1,.13-2.13c.15-.77.73-1.59,1.52-1.59a.86.86,0,0,1,.92.51c0,.09.06.12.1.12a2.22,2.22,0,0,0,.17-1c0-.22-.41-.27-.56-.27a3.46,3.46,0,0,0-2.39,1.58,5.88,5.88,0,0,0-.88,3.14v0h-.94l-.07.52h1v4.73a.66.66,0,0,1-.5.67c-.14.06-.22.09-.22.18s0,0,0,0,.09,0,.14,0Z"/><path class="cls-8" d="M112.66,90.67c-.71,0-.81,0-.81-.11s.37-.37,1.14-1.21c.3-.36.45-.69.57-.69s.19.31.19,1.39h1.65a1,1,0,0,0,.59-.25.11.11,0,0,1,.1.12.46.46,0,0,1-.09.21l-.3.54h-2V95c0,.62.45.9,1,.9.8,0,1-.34,1.28-.34.06,0,.12,0,.12.13s-.81.74-1.86.74c-.69,0-1.68-.2-1.68-1.74Z"/><path class="cls-8" d="M114.34,96.51a1.56,1.56,0,0,1-1.73-1.79v-4c-.72,0-.81,0-.81-.16s.09-.18.32-.4.47-.45.83-.85c.11-.14.21-.27.29-.39s.22-.31.32-.31.2.15.22.29,0,.49,0,.95V90h1.6a.7.7,0,0,0,.49-.2.19.19,0,0,1,.1,0,.16.16,0,0,1,.15.17.5.5,0,0,1-.1.23l-.31.57H113.8V95c0,.55.38.85,1,.85a1.88,1.88,0,0,0,1-.24.7.7,0,0,1,.32-.1c.11,0,.17.06.17.18S115.42,96.51,114.34,96.51Zm-.78-7.8s-.15.14-.24.27-.18.25-.3.4c-.36.4-.64.67-.83.85a1.4,1.4,0,0,0-.29.33c0,.06.19.06.76.06h0v4.1c0,1.13.53,1.69,1.63,1.69a2.16,2.16,0,0,0,1.81-.69c0-.08,0-.08-.07-.08a.66.66,0,0,0-.27.09,2,2,0,0,1-1,.25,1,1,0,0,1-1.1-1V90.62h2l.29-.52a.45.45,0,0,0,.08-.18s0-.07-.05-.07l0,0a.84.84,0,0,1-.56.22h-1.7v-.25c0-.46,0-.76,0-.94S113.59,88.71,113.56,88.71Z"/><path class="cls-8" d="M118.46,90.92a3.27,3.27,0,0,1,2.16-1.06c1.92,0,2.5,1.66,2.5,3v2.51c0,.78,1.2.46,1.2.84,0,.16-.13.19-.3.19s-.69-.06-1.26-.06-1.06.06-1.23.06-.24,0-.24-.16.74-.23.74-.77V92.68c0-1.86-1.29-2.21-1.82-2.21s-1.75.59-1.75,1.35V95c0,1.29,1.32.87,1.32,1.15s-.08.21-.26.21-1.06-.06-1.53-.06-1.12.06-1.36.06a.14.14,0,0,1-.15-.15c0-.3.88-.13.88-.87V86.86c0-.9-1.15-.51-1.15-.83,0-.09,0-.15.12-.16,1.09-.21,1.6-.75,2-.75.09,0,.18.09.18.24Z"/><path class="cls-8" d="M124,96.4l-.41,0c-.23,0-.51,0-.85,0s-.72,0-1,0l-.28,0c-.24,0-.29-.12-.29-.21s.13-.18.28-.26.46-.21.46-.51V92.68c0-2.13-1.7-2.16-1.77-2.16-.67,0-1.7.58-1.7,1.3V95c0,.83.57.91.95,1,.21,0,.37.05.37.18s-.15.26-.31.26l-.63,0c-.3,0-.65,0-.9,0s-.61,0-.88,0l-.48,0a.19.19,0,0,1-.2-.2c0-.15.16-.21.33-.27s.55-.19.55-.6V86.86c0-.52-.41-.58-.75-.62s-.4,0-.4-.21a.2.2,0,0,1,.16-.21,4.92,4.92,0,0,0,1.39-.53,1.33,1.33,0,0,1,.57-.22.26.26,0,0,1,.23.29v5.45a3.12,3.12,0,0,1,2.11-1c1.88,0,2.55,1.61,2.55,3v2.51c0,.42.38.49.72.55s.48.09.48.29S124.12,96.4,124,96.4Zm-1.26-.16c.34,0,.63,0,.86,0l.4,0c.21,0,.25,0,.25-.14s-.15-.14-.4-.19-.8-.15-.8-.65V92.81c0-2.14-1.27-2.9-2.45-2.9a3.16,3.16,0,0,0-2.13,1l-.08.08V85.36c0-.12-.07-.19-.13-.19a1.44,1.44,0,0,0-.52.2,4.71,4.71,0,0,1-1.42.55.1.1,0,0,0-.08.11c0,.07.12.09.31.11.34,0,.84.11.84.72v8.47c0,.49-.36.61-.62.7s-.26.09-.26.17a.09.09,0,0,0,.1.1l.47,0c.28,0,.62,0,.89,0s.6,0,.91,0l.62,0c.17,0,.21,0,.21-.16s-.14-.07-.28-.09c-.39,0-1-.14-1-1.06V91.82c0-.8,1.09-1.4,1.8-1.4.08,0,1.87,0,1.87,2.26v2.74c0,.36-.3.5-.52.6s-.22.11-.22.17,0,.11.19.11l.27,0C122,96.27,122.38,96.24,122.76,96.24Z"/><path class="cls-8" d="M125.34,92.5c0,2.47,1.5,3.21,2.41,3.21,1.29,0,1.79-.78,2.12-.78.06,0,.06.06.06.1a3.2,3.2,0,0,1-2.66,1.43,3.09,3.09,0,0,1-3-3.08c0-1.92,1.07-3.52,2.94-3.52a2.76,2.76,0,0,1,2.66,2.38c0,.27-.17.26-.51.26Zm2.95-.41c.21,0,.3-.07.3-.3a1.72,1.72,0,0,0-1.66-1.59c-.93,0-1.59,1.07-1.59,1.89Z"/><path class="cls-8" d="M127.27,96.51a3.15,3.15,0,0,1-3.08-3.13c0-2.1,1.23-3.57,3-3.57a2.83,2.83,0,0,1,2.71,2.43.28.28,0,0,1-.07.22.54.54,0,0,1-.39.09h-4c0,1.1.52,3.11,2.36,3.11a2.74,2.74,0,0,0,1.68-.57.91.91,0,0,1,.44-.21c.11,0,.11.11.11.15C130,95.42,128.63,96.51,127.27,96.51Zm-.09-6.6c-1.7,0-2.89,1.43-2.89,3.47a3,3,0,0,0,3,3A3.18,3.18,0,0,0,129.88,95s0,0,0,0a.9.9,0,0,0-.39.19,2.83,2.83,0,0,1-1.73.59c-.85,0-2.46-.69-2.46-3.26v0h4.09c.18,0,.31,0,.37-.06a.25.25,0,0,0,0-.15A2.72,2.72,0,0,0,127.18,89.91Zm1.11,2.23h-3v0a1.91,1.91,0,0,1,1.64-1.94,1.77,1.77,0,0,1,1.71,1.64C128.64,92,128.54,92.14,128.29,92.14Zm-2.9-.1h2.9c.19,0,.25-.06.25-.25a1.66,1.66,0,0,0-1.61-1.54A1.8,1.8,0,0,0,125.39,92Z"/><path class="cls-8" d="M133.56,86.89c-.38-.9-1.16-.62-1.16-1a.19.19,0,0,1,.21-.21c.47,0,.93.06,1.38.06s1-.06,1.19-.06.21.06.21.15-.62.23-.62.77a1.54,1.54,0,0,0,.14.58l2.62,6.18c.33.8.44,1.14.6,1.14s.2-.24.27-.42L141,87.7a2.25,2.25,0,0,0,.21-1c0-.69-1-.41-1-.75,0-.15.08-.2.23-.2.33,0,.66.06,1,.06.72,0,.94-.06,1.15-.06s.26.06.26.2c0,.33-.42-.05-.84,1l-3.74,8.83c-.16.38-.27.87-.49.87s-.42-.63-.56-.94Z"/><path class="cls-8" d="M137.82,96.64c-.23,0-.38-.4-.52-.76l-.08-.21-3.71-8.76a1.12,1.12,0,0,0-.83-.71c-.18,0-.33-.09-.33-.26a.24.24,0,0,1,.26-.26c.24,0,.48,0,.71,0s.45,0,.67,0,.53,0,.77,0l.42,0c.1,0,.26.07.26.2s-.1.17-.23.24a.61.61,0,0,0-.39.53,1.49,1.49,0,0,0,.13.56l2.63,6.18c.06.14.11.27.15.38.19.47.3.73.4.73s.13-.13.18-.27l.05-.12L141,87.68a2.09,2.09,0,0,0,.2-1c0-.38-.28-.44-.56-.5s-.4-.08-.4-.26.15-.25.28-.25.33,0,.5,0a4,4,0,0,0,.49,0,7.9,7.9,0,0,0,.9,0l.25,0c.25,0,.31.13.31.25s-.1.19-.2.23-.4.15-.65.75l-3.73,8.83-.12.3C138.12,96.36,138,96.64,137.82,96.64Zm-4.22-9.77,3.71,8.76c0,.06.06.14.09.22.1.27.26.69.42.69s.23-.27.33-.53a2.85,2.85,0,0,1,.12-.31L142,86.87c.27-.64.54-.74.71-.8s.13,0,.13-.14,0-.15-.21-.15l-.24,0a8.12,8.12,0,0,1-.91,0,4.07,4.07,0,0,1-.5,0l-.49,0c-.14,0-.18,0-.18.15s.12.12.32.17.64.13.64.58a2.08,2.08,0,0,1-.21,1l-2.61,6.43a.56.56,0,0,0,0,.12c-.06.16-.12.33-.28.33s-.26-.23-.49-.79c0-.12-.1-.24-.15-.38l-2.63-6.18a1.71,1.71,0,0,1-.14-.6.68.68,0,0,1,.44-.61c.1-.06.18-.1.18-.16s-.09-.1-.16-.1l-.41,0c-.24,0-.54,0-.78,0l-.68,0c-.23,0-.46,0-.7,0a.14.14,0,0,0-.16.16c0,.09.07.11.26.17a1.18,1.18,0,0,1,.89.76Z"/><path class="cls-8" d="M143.36,91.48c0-.9-.82-.51-.82-.83a.15.15,0,0,1,.13-.16c1-.27,1.26-.75,1.61-.75.09,0,.18.09.18.24v5.38c0,.77,1.18.44,1.18.83,0,.12-.09.16-.28.16s-.78-.06-1.4-.06-.87.06-1,.06-.21,0-.22-.16c0-.38.65.19.65-1.17Zm1.17-3.92c0,.18-.43.78-.63.78s-.63-.61-.63-.78.45-.79.63-.79S144.53,87.38,144.53,87.56Z"/><path class="cls-8" d="M145.36,96.4l-.48,0c-.25,0-.56,0-.92,0a7.59,7.59,0,0,0-.76,0l-.27,0c-.1,0-.25,0-.27-.21s.11-.2.21-.22.44-.1.44-1V91.48c0-.53-.27-.58-.52-.62s-.3,0-.3-.21a.21.21,0,0,1,.18-.21,4,4,0,0,0,1.09-.52.94.94,0,0,1,.52-.23.26.26,0,0,1,.23.29v5.38c0,.41.37.47.7.53s.48.09.48.3S145.45,96.4,145.36,96.4Zm-1.4-.16c.36,0,.68,0,.93,0l.47,0c.22,0,.23-.06.23-.11s-.15-.15-.4-.2-.78-.14-.78-.63V90c0-.12-.07-.19-.13-.19a1,1,0,0,0-.47.21,3.66,3.66,0,0,1-1.12.53.12.12,0,0,0-.1.12c0,.07.06.09.22.11a.62.62,0,0,1,.6.72V95c0,.93-.31,1-.51,1s-.15,0-.15.12.06.11.18.11l.26,0C143.39,96.27,143.66,96.24,144,96.24Zm-.06-7.85c-.21,0-.67-.65-.67-.83s.46-.84.67-.84.68.64.68.84S144.14,88.39,143.9,88.39Zm0-1.57c-.14,0-.58.6-.58.74s.44.73.58.73.58-.56.58-.73S144.06,86.82,143.9,86.82Z"/><path class="cls-8" d="M145.65,93.28A3.39,3.39,0,0,1,149,89.86c.75,0,1.77.21,1.81.55s0,.69,0,.89-.05.31-.12.31-.32-.28-.36-.34a2.18,2.18,0,0,0-1.86-.92c-1.28,0-1.77,1.32-1.77,2.4a2.69,2.69,0,0,0,2.65,3c1.17,0,1.83-.87,2.06-.87,0,0,.12,0,.12.09,0,.24-.9,1.53-3,1.53A3.09,3.09,0,0,1,145.65,93.28Z"/><path class="cls-8" d="M148.62,96.51a3.14,3.14,0,0,1-3-3.23A3.45,3.45,0,0,1,149,89.81c.75,0,1.81.2,1.86.59a6.47,6.47,0,0,1,0,.74v.16c0,.3-.1.36-.17.36s-.3-.21-.38-.33l0,0a2.11,2.11,0,0,0-1.82-.9c-1.18,0-1.72,1.22-1.72,2.35a2.62,2.62,0,0,0,2.6,2.91,2.8,2.8,0,0,0,1.7-.67c.16-.12.27-.2.36-.2s.17.06.17.14S150.76,96.51,148.62,96.51Zm.41-6.6a3.35,3.35,0,0,0-3.33,3.37,3,3,0,0,0,2.92,3.13,3,3,0,0,0,2.91-1.48.1.1,0,0,0-.07,0,.78.78,0,0,0-.3.18,2.88,2.88,0,0,1-1.76.69,2.71,2.71,0,0,1-2.7-3c0-1.18.57-2.45,1.82-2.45a2.23,2.23,0,0,1,1.9.94l0,0c.05.08.19.28.29.28s.07,0,.07-.26v-.16a6,6,0,0,0,0-.72C150.75,90.13,149.81,89.91,149,89.91Z"/><path class="cls-8" d="M153,92.5c0,2.47,1.5,3.21,2.42,3.21,1.29,0,1.78-.78,2.11-.78.06,0,.06.06.06.1a3.18,3.18,0,0,1-2.65,1.43,3.09,3.09,0,0,1-3-3.08c0-1.92,1.06-3.52,2.94-3.52a2.76,2.76,0,0,1,2.65,2.38c0,.27-.16.26-.51.26Zm3-.41c.21,0,.3-.07.3-.3a1.72,1.72,0,0,0-1.67-1.59c-.93,0-1.59,1.07-1.59,1.89Z"/><path class="cls-8" d="M154.92,96.51a3.14,3.14,0,0,1-3.08-3.13c0-2.1,1.23-3.57,3-3.57a2.82,2.82,0,0,1,2.7,2.43.28.28,0,0,1-.07.22c-.08.09-.23.09-.44.09h-4c0,1.1.52,3.11,2.37,3.11a2.71,2.71,0,0,0,1.67-.57.91.91,0,0,1,.44-.21c.11,0,.11.11.11.15C157.62,95.42,156.28,96.51,154.92,96.51Zm-.09-6.6c-1.71,0-2.89,1.43-2.89,3.47a3,3,0,0,0,3,3,3.17,3.17,0,0,0,2.6-1.38s0,0,0,0a.88.88,0,0,0-.38.19,2.88,2.88,0,0,1-1.73.59c-.86,0-2.47-.69-2.47-3.26v0H157c.19,0,.31,0,.37-.06s0-.07,0-.15A2.71,2.71,0,0,0,154.83,89.91Zm1.11,2.23h-3v0a1.92,1.92,0,0,1,1.64-1.94,1.78,1.78,0,0,1,1.72,1.64C156.29,92,156.18,92.14,155.94,92.14ZM153,92h2.91c.19,0,.25-.06.25-.25a1.67,1.67,0,0,0-1.62-1.54A1.81,1.81,0,0,0,153,92Z"/><path class="cls-8" d="M164,94.28c0,2.16,1.57,1.38,1.57,1.89,0,.11-.06.18-.43.18s-.74-.06-1.62-.06c-.71,0-1.2.06-1.64.06-.09,0-.24,0-.24-.18,0-.4,1.17.06,1.17-1.6V87.38c0-1.8-1.23-.88-1.23-1.42a.21.21,0,0,1,.2-.23c.13,0,.66.06,1.53.06s1-.06,1.71-.06c1.9,0,4,.66,4,2.9,0,.6-.45,2.88-3.65,2.88-.15,0-1-.08-1-.35,0-.1.08-.13.15-.13a7.56,7.56,0,0,0,1,.09c1.53,0,2.43-.74,2.43-2.09,0-1.81-1.4-2.77-3.12-2.77-.48,0-.81,0-.81.45Z"/><path class="cls-8" d="M165.18,96.4l-.58,0c-.26,0-.54,0-1,0s-.73,0-1,0l-.63,0c-.12,0-.29-.06-.29-.23s.16-.22.33-.27c.34-.1.84-.26.84-1.33V87.38c0-1.11-.48-1.14-.83-1.16-.2,0-.4,0-.4-.26a.26.26,0,0,1,.25-.28H162c.24,0,.69,0,1.32,0,.37,0,.62,0,.87,0s.48,0,.84,0a5.69,5.69,0,0,1,2.75.62,2.54,2.54,0,0,1,1.32,2.33s0,2.93-3.7,2.93c0,0-1.07,0-1.07-.4a.18.18,0,0,1,.2-.18l.18,0a4.5,4.5,0,0,0,.8.07c1.53,0,2.38-.73,2.38-2,0-1.65-1.21-2.72-3.07-2.72-.52,0-.76,0-.76.4v7.57c0,1.41.68,1.53,1.13,1.61.24,0,.44.07.44.28S165.52,96.4,165.18,96.4Zm-1.62-.16c.5,0,.79,0,1,0l.58,0c.38,0,.38-.08.38-.13s-.12-.14-.35-.18c-.46-.08-1.22-.21-1.22-1.71V86.71c0-.5.38-.5.86-.5,1.92,0,3.17,1.11,3.17,2.82,0,1.36-.91,2.14-2.48,2.14a4.44,4.44,0,0,1-.81-.07l-.17,0c-.1,0-.1.06-.1.08,0,.2.72.3,1,.3,3.55,0,3.6-2.81,3.6-2.83,0-.86-.39-2.85-4-2.85-.36,0-.59,0-.84,0s-.49,0-.87,0c-.63,0-1.09,0-1.33,0h-.2a.16.16,0,0,0-.15.18c0,.13.08.15.31.16s.92,0,.92,1.26v7.19c0,1.15-.55,1.31-.91,1.42-.17.06-.26.09-.26.18s.14.13.19.13l.62,0C162.83,96.26,163.16,96.24,163.56,96.24Z"/><path class="cls-8" d="M171.22,95c0,1.4,1.34.68,1.34,1.16,0,.13-.08.16-.24.16s-.57-.06-1.41-.06a12.18,12.18,0,0,0-1.38.06c-.12,0-.17,0-.17-.13,0-.32.77-.26.77-.87V91.48c0-.9-1.08-.51-1.08-.83,0-.09.12-.15.19-.16,1.16-.27,1.46-.75,1.8-.75.09,0,.18.09.18.24V91.1h0c.32-.43.86-1.24,1.49-1.24.31,0,1,.39,1,.67s-.36.68-.54.68-.45-.35-1-.35a1.11,1.11,0,0,0-1,.89Z"/><path class="cls-8" d="M172.32,96.4H172c-.23,0-.57,0-1.13,0-.76,0-1.1,0-1.26,0h-.12c-.15,0-.22-.06-.22-.18s.16-.24.32-.32.45-.23.45-.55V91.48c0-.53-.39-.58-.7-.62s-.38,0-.38-.21.14-.19.23-.21a4.3,4.3,0,0,0,1.32-.55,1,1,0,0,1,.49-.2c.12,0,.23.11.23.29v1c.34-.47.85-1.18,1.47-1.18.33,0,1,.4,1,.72s-.38.73-.59.73a.67.67,0,0,1-.36-.14,1,1,0,0,0-1.56.63V95c0,.83.49.87.88.9.23,0,.46,0,.46.26S172.46,96.4,172.32,96.4Zm-1.41-.16c.56,0,.91,0,1.14.05.41,0,.46,0,.46-.1s-.11-.14-.37-.16-1-.07-1-1V91.75a1.07,1.07,0,0,1,1.71-.72.59.59,0,0,0,.31.13c.14,0,.49-.42.49-.63s-.64-.62-.94-.62c-.57,0-1.08.71-1.39,1.14l-.07.1h-.11V90c0-.12-.06-.19-.13-.19a1,1,0,0,0-.44.18,4.35,4.35,0,0,1-1.35.57c-.06,0-.15.06-.15.11s.11.09.29.11.79.11.79.72v3.87c0,.39-.28.52-.51.64s-.26.13-.26.23,0,.08.12.08h.11C169.8,96.28,170.15,96.24,170.91,96.24Z"/><path class="cls-8" d="M174.8,92.5c0,2.47,1.5,3.21,2.41,3.21,1.29,0,1.79-.78,2.12-.78.06,0,.06.06.06.1a3.2,3.2,0,0,1-2.66,1.43,3.09,3.09,0,0,1-3-3.08c0-1.92,1.07-3.52,2.94-3.52a2.76,2.76,0,0,1,2.66,2.38c0,.27-.17.26-.51.26Zm2.95-.41c.21,0,.3-.07.3-.3a1.72,1.72,0,0,0-1.66-1.59c-.93,0-1.59,1.07-1.59,1.89Z"/><path class="cls-8" d="M176.73,96.51a3.15,3.15,0,0,1-3.08-3.13c0-2.1,1.23-3.57,3-3.57a2.83,2.83,0,0,1,2.71,2.43.28.28,0,0,1-.08.22c-.07.08-.2.09-.39.09h-4c0,1.1.52,3.11,2.36,3.11a2.71,2.71,0,0,0,1.67-.57,1,1,0,0,1,.45-.21c.11,0,.11.11.11.15C179.44,95.42,178.09,96.51,176.73,96.51Zm-.09-6.6c-1.7,0-2.89,1.43-2.89,3.47a3,3,0,0,0,3,3A3.19,3.19,0,0,0,179.34,95s0,0,0,0a.85.85,0,0,0-.39.19,2.85,2.85,0,0,1-1.73.59c-.85,0-2.46-.69-2.46-3.26v0h4.09c.18,0,.31,0,.36-.06a.19.19,0,0,0,.05-.15A2.72,2.72,0,0,0,176.64,89.91Zm1.11,2.23h-3v0a1.91,1.91,0,0,1,1.64-1.94,1.77,1.77,0,0,1,1.71,1.64C178.1,92,178,92.14,177.75,92.14Zm-2.9-.1h2.9c.19,0,.25-.06.25-.25a1.66,1.66,0,0,0-1.61-1.54A1.8,1.8,0,0,0,174.85,92Z"/><path class="cls-8" d="M180,91.66a1.81,1.81,0,0,1,2-1.8,3.34,3.34,0,0,1,1.47.34,2.09,2.09,0,0,1,.07.74c0,.4.06.58-.16.58s-.29-1.3-1.65-1.3a1,1,0,0,0-1.05,1c0,.49.39.81,2,1.44A1.7,1.7,0,0,1,184,94.4a2.06,2.06,0,0,1-2,2.06c-1.05,0-1.32-.44-1.68-.44s-.33,0-.33-1.2c0-.25,0-.73.18-.73s.17,2,1.79,2a1.22,1.22,0,0,0,1.33-1.23c0-.8-.76-1-1.36-1.32C181.05,93.11,180,92.72,180,91.66Z"/><path class="cls-8" d="M181.93,96.51a2.65,2.65,0,0,1-1.3-.31.91.91,0,0,0-.38-.13c-.38,0-.38,0-.38-1.25v-.11a1,1,0,0,1,.1-.62.17.17,0,0,1,.13,0c.14,0,.2.19.28.49.17.59.43,1.49,1.51,1.49a1.18,1.18,0,0,0,1.28-1.18c0-.67-.57-.93-1.12-1.18l-.22-.1-.21-.1c-.76-.38-1.63-.8-1.63-1.8a1.85,1.85,0,0,1,2.08-1.85c.18,0,1.29.1,1.5.36a1.57,1.57,0,0,1,.09.73v.25c0,.18,0,.3,0,.37a.25.25,0,0,1-.16,0c-.07,0-.11-.08-.18-.23a1.51,1.51,0,0,0-1.47-1.07.9.9,0,0,0-1,.91c0,.48.43.79,1.93,1.39A1.75,1.75,0,0,1,184,94.4,2.1,2.1,0,0,1,181.93,96.51Zm-1.83-2.37a.07.07,0,0,0-.06,0,1,1,0,0,0-.07.55v.11c0,1.15,0,1.15.28,1.15a.94.94,0,0,1,.43.14,2.44,2.44,0,0,0,1.25.3,2,2,0,0,0,2-2,1.66,1.66,0,0,0-1.22-1.74c-1.57-.62-2-.94-2-1.48a1,1,0,0,1,1.1-1,1.61,1.61,0,0,1,1.56,1.13.93.93,0,0,0,.1.17l.08,0a.6.6,0,0,0,0-.3v-.26a1.92,1.92,0,0,0-.06-.66,3.38,3.38,0,0,0-1.43-.32,1.76,1.76,0,0,0-2,1.75c0,.94.8,1.33,1.57,1.71l.22.1.21.1c.56.25,1.18.53,1.18,1.27a1.28,1.28,0,0,1-1.38,1.28c-1.16,0-1.44-1-1.6-1.57C180.23,94.35,180.17,94.14,180.1,94.14Z"/><path class="cls-8" d="M185.31,91.48c0-.9-.82-.51-.82-.83a.15.15,0,0,1,.13-.16c1-.27,1.26-.75,1.61-.75.09,0,.18.09.18.24v5.38c0,.77,1.18.44,1.18.83,0,.12-.09.16-.28.16s-.78-.06-1.4-.06-.87.06-1,.06-.21,0-.23-.16c0-.38.66.19.66-1.17Zm1.17-3.92c0,.18-.43.78-.63.78s-.63-.61-.63-.78.45-.79.63-.79S186.48,87.38,186.48,87.56Z"/><path class="cls-8" d="M187.31,96.4l-.48,0c-.25,0-.56,0-.92,0a7.59,7.59,0,0,0-.76,0l-.27,0c-.1,0-.26,0-.28-.21s.12-.2.22-.22.44-.1.44-1V91.48c0-.53-.28-.58-.52-.62s-.3,0-.3-.21a.21.21,0,0,1,.17-.21,3.9,3.9,0,0,0,1.1-.52.94.94,0,0,1,.52-.23.26.26,0,0,1,.23.29v5.38c0,.41.37.47.7.53s.48.09.48.3S187.4,96.4,187.31,96.4Zm-1.4-.16c.36,0,.68,0,.93,0l.47,0c.21,0,.23-.06.23-.11s-.15-.15-.4-.2-.78-.14-.78-.63V90c0-.12-.07-.19-.13-.19a1,1,0,0,0-.47.21,3.66,3.66,0,0,1-1.12.53.12.12,0,0,0-.1.12c0,.07.06.09.21.11a.62.62,0,0,1,.61.72V95c0,.93-.31,1-.52,1s-.14,0-.14.12.06.11.18.11l.26,0C185.34,96.27,185.61,96.24,185.91,96.24Zm-.06-7.85c-.21,0-.68-.65-.68-.83s.47-.84.68-.84.68.64.68.84S186.08,88.39,185.85,88.39Zm0-1.57c-.14,0-.58.6-.58.74s.44.73.58.73.58-.56.58-.73S186,86.82,185.85,86.82Z"/><path class="cls-8" d="M192.45,86.86c0-.9-1.18-.51-1.18-.83a.15.15,0,0,1,.13-.16c1.16-.27,1.62-.75,2-.75.09,0,.18.09.18.24V95.62c0,.18.3.3.79.37.11,0,.17,0,.17.14s-.39.21-.95.21a8.72,8.72,0,0,0-.94.12c-.12,0-.17-.12-.17-.23v-.82h0a2.73,2.73,0,0,1-4.86-2,3.37,3.37,0,0,1,3.14-3.54,3.15,3.15,0,0,1,1.75.52Zm0,5.08a1.79,1.79,0,0,0-2-1.74c-1.41,0-2,1.32-2,2.57s.9,3,2.33,3c1.24,0,1.69-.76,1.69-1.3Z"/><path class="cls-8" d="M192.62,96.51c-.15,0-.22-.14-.22-.28v-.72a2.86,2.86,0,0,1-2.18,1,2.91,2.91,0,0,1-2.71-3.11,4,4,0,0,1,.87-2.47,3,3,0,0,1,2.32-1.12,3.12,3.12,0,0,1,1.7.48V86.86c0-.52-.42-.58-.77-.62s-.41,0-.41-.21a.21.21,0,0,1,.17-.21,6.12,6.12,0,0,0,1.41-.54,1.43,1.43,0,0,1,.57-.21.26.26,0,0,1,.23.29V95.62c0,.08.1.22.75.32h0c.09,0,.19,0,.19.19s-.52.26-1,.26a3.43,3.43,0,0,0-.68.08Zm-.22-1.15h.1v.87s0,.18.12.18l.24,0a3.55,3.55,0,0,1,.7-.08c.6,0,.88-.12.9-.17s0-.06-.1-.08h0c-.57-.08-.84-.22-.84-.42V85.36c0-.12-.07-.19-.13-.19a1.31,1.31,0,0,0-.53.2,6.09,6.09,0,0,1-1.43.55.1.1,0,0,0-.09.11c0,.07.12.09.32.11.35,0,.86.11.86.72v3.62l-.07-.06a3.13,3.13,0,0,0-1.73-.51,3.3,3.3,0,0,0-3.09,3.49,2.82,2.82,0,0,0,2.61,3,2.79,2.79,0,0,0,2.16-1Zm-1.64.5c-1.45,0-2.38-1.83-2.38-3.09s.66-2.62,2.09-2.62a1.84,1.84,0,0,1,2,1.79v2.57C192.5,95,192.14,95.86,190.76,95.86Zm-.29-5.61c-1.36,0-2,1.3-2,2.52s.89,3,2.28,3,1.64-.82,1.64-1.25V91.94A1.72,1.72,0,0,0,190.47,90.25Z"/><path class="cls-8" d="M195.7,92.5c0,2.47,1.5,3.21,2.41,3.21,1.29,0,1.79-.78,2.12-.78.06,0,.06.06.06.1a3.2,3.2,0,0,1-2.66,1.43,3.09,3.09,0,0,1-3-3.08c0-1.92,1.07-3.52,2.94-3.52a2.76,2.76,0,0,1,2.66,2.38c0,.27-.17.26-.51.26Zm3-.41c.21,0,.3-.07.3-.3a1.72,1.72,0,0,0-1.66-1.59c-.93,0-1.59,1.07-1.59,1.89Z"/><path class="cls-8" d="M197.63,96.51a3.15,3.15,0,0,1-3.08-3.13c0-2.1,1.23-3.57,3-3.57a2.83,2.83,0,0,1,2.71,2.43.28.28,0,0,1-.08.22c-.08.09-.23.09-.43.09h-4c0,1.1.52,3.11,2.36,3.11a2.77,2.77,0,0,0,1.68-.57.91.91,0,0,1,.44-.21c.11,0,.11.11.11.15C200.34,95.42,199,96.51,197.63,96.51Zm-.09-6.6c-1.7,0-2.89,1.43-2.89,3.47a3,3,0,0,0,3,3A3.19,3.19,0,0,0,200.24,95s0,0,0,0a.85.85,0,0,0-.39.19,2.85,2.85,0,0,1-1.73.59c-.85,0-2.46-.69-2.46-3.26v0h4.09c.18,0,.31,0,.36-.06a.19.19,0,0,0,.05-.15A2.72,2.72,0,0,0,197.54,89.91Zm1.11,2.23h-3v0a1.91,1.91,0,0,1,1.64-1.94A1.77,1.77,0,0,1,199,91.79C199,92,198.9,92.14,198.65,92.14Zm-2.9-.1h2.9c.19,0,.25-.06.25-.25a1.66,1.66,0,0,0-1.61-1.54A1.8,1.8,0,0,0,195.75,92Z"/><path class="cls-8" d="M202.57,95.14c0,1,1.32.6,1.32,1,0,.18-.11.21-.33.21s-.56-.06-1.43-.06-1.09.06-1.27.06-.27,0-.27-.18c0-.3.88,0,.88-1V91.48c0-.9-1.11-.51-1.11-.83a.15.15,0,0,1,.14-.16c1.24-.27,1.54-.75,1.89-.75.09,0,.18.09.18.24v1a3.28,3.28,0,0,1,2.17-1.11c2,0,2.45,1.66,2.45,2.8v2.48c0,1,1.17.6,1.17,1,0,.18-.11.21-.26.21s-.57-.06-1.3-.06c-.57,0-.89.06-1.08.06s-.27,0-.27-.18c0-.3.64,0,.64-1V92.39a1.82,1.82,0,0,0-1.75-1.87,1.68,1.68,0,0,0-1.77,1.17Z"/><path class="cls-8" d="M208.1,96.4l-.27,0c-.22,0-.55,0-1,0a7.55,7.55,0,0,0-.81,0l-.27,0c-.17,0-.32,0-.32-.23s.11-.18.22-.22.42-.16.42-.75V92.39a1.78,1.78,0,0,0-1.7-1.82,1.87,1.87,0,0,0-1.42.57.93.93,0,0,0-.3.54v3.46c0,.59.44.66.84.73.25,0,.48.07.48.27s-.18.26-.38.26l-.31,0c-.24,0-.56,0-1.12,0a9.53,9.53,0,0,0-1,0h-.23c-.17,0-.32,0-.32-.23s.14-.18.29-.22a.67.67,0,0,0,.59-.75V91.48c0-.53-.4-.58-.72-.62s-.39,0-.39-.21a.21.21,0,0,1,.18-.21,4.33,4.33,0,0,0,1.42-.56,1,1,0,0,1,.48-.19.26.26,0,0,1,.23.29v.89l0,0a2.88,2.88,0,0,1,2.1-1c2.32,0,2.5,2.18,2.5,2.85v2.48c0,.59.39.66.74.73s.43.07.43.27S208.25,96.4,208.1,96.4Zm-1.3-.16c.48,0,.82,0,1,.05.39,0,.47,0,.47-.15S208.18,96,208,96s-.82-.15-.82-.82V92.66c0-2.49-1.68-2.75-2.4-2.75a2.77,2.77,0,0,0-2,1c-.09.1-.12.13-.16.11a.07.07,0,0,1,0-.07V90c0-.12-.07-.19-.13-.19A.88.88,0,0,0,202,90a4.78,4.78,0,0,1-1.45.57.1.1,0,0,0-.1.11c0,.07.12.09.3.11s.81.11.81.72V95.2a.75.75,0,0,1-.66.84c-.16,0-.22.07-.22.13s0,.13.22.13h.22a9.6,9.6,0,0,1,1-.05c.57,0,.89,0,1.12,0l.31,0c.24,0,.28,0,.28-.16s-.15-.14-.4-.18-.92-.14-.92-.82V91.69a1,1,0,0,1,.32-.62,2,2,0,0,1,1.5-.6,1.87,1.87,0,0,1,1.8,1.92V95.2c0,.66-.29.77-.49.84s-.15.06-.15.13,0,.13.22.13l.26,0C206.17,96.27,206.44,96.24,206.8,96.24Z"/><path class="cls-8" d="M209,90.67c-.71,0-.81,0-.81-.11s.37-.37,1.14-1.21c.3-.36.45-.69.57-.69s.19.31.19,1.39h1.65a1,1,0,0,0,.59-.25.11.11,0,0,1,.1.12.46.46,0,0,1-.09.21l-.3.54h-1.95V95c0,.62.45.9,1,.9.8,0,1-.34,1.28-.34.06,0,.12,0,.12.13s-.81.74-1.86.74c-.69,0-1.68-.2-1.68-1.74Z"/><path class="cls-8" d="M210.67,96.51a1.56,1.56,0,0,1-1.73-1.79v-4c-.72,0-.81,0-.81-.16s.09-.18.33-.4.46-.45.82-.85a3.89,3.89,0,0,0,.29-.39c.14-.19.22-.31.32-.31s.2.15.22.29,0,.49,0,.95V90h1.6a.75.75,0,0,0,.5-.2.14.14,0,0,1,.09,0,.16.16,0,0,1,.15.17.48.48,0,0,1-.09.23l-.32.57h-1.93V95c0,.55.39.85,1,.85a1.85,1.85,0,0,0,1-.24.7.7,0,0,1,.32-.1c.11,0,.17.06.17.18S211.75,96.51,210.67,96.51Zm-.78-7.8s-.14.14-.24.27-.17.25-.29.4c-.37.4-.65.67-.83.85a1.31,1.31,0,0,0-.3.33c0,.06.19.06.76.06h0v4.1c0,1.13.53,1.69,1.63,1.69a2.16,2.16,0,0,0,1.81-.69c0-.08,0-.08-.07-.08a.66.66,0,0,0-.27.09,2,2,0,0,1-1,.25,1,1,0,0,1-1.1-1V90.62h2l.29-.52a.45.45,0,0,0,.08-.18s0-.07,0-.07l0,0a.82.82,0,0,1-.56.22H210v-.25c0-.46,0-.76,0-.94S209.93,88.71,209.89,88.71Z"/><path class="cls-8" d="M61.2,107.05a5.92,5.92,0,0,1,.88-3.16,3.5,3.5,0,0,1,2.43-1.61c.2,0,.62.06.62.32s-.06,1.06-.23,1.06-.07-.63-1-.63c-.79,0-1.33.86-1.47,1.55a13.55,13.55,0,0,0-.12,2.47h1.16a.92.92,0,0,0,.58-.25.11.11,0,0,1,.11.12.6.6,0,0,1-.09.21l-.3.54H62.29v4.56c0,1,1.07.6,1.07.93s-.2.13-.32.13H60.72c-.08,0-.24,0-.24-.09,0-.31.72-.13.72-.85v-4.68h-1l.09-.62Z"/><path class="cls-8" d="M63.18,113.35H60.62a.2.2,0,0,1-.15,0,.13.13,0,0,1,0-.1c0-.16.13-.21.28-.27a.56.56,0,0,0,.44-.58v-4.63h-1l.1-.72h.93a6,6,0,0,1,.89-3.14,3.48,3.48,0,0,1,2.47-1.63c.25,0,.67.08.67.37,0,0,0,1.11-.28,1.11-.1,0-.14-.09-.19-.18s-.22-.45-.83-.45-1.28.78-1.42,1.51a11.3,11.3,0,0,0-.12,2.11v.3h1.11a.7.7,0,0,0,.49-.2s.06,0,.09,0a.17.17,0,0,1,.16.17.5.5,0,0,1-.1.23l-.31.57H62.34v4.51c0,.56.39.63.7.69s.37.07.37.24a.19.19,0,0,1,0,.13A.25.25,0,0,1,63.18,113.35Zm-2.46-.11h2.39a.27.27,0,0,0,.18,0,.09.09,0,0,0,0-.06c0-.08-.11-.11-.29-.14s-.78-.15-.78-.79v-4.61h1.48l.28-.52a.5.5,0,0,0,.09-.18s0-.07,0-.07l0,0a.81.81,0,0,1-.55.22H62.24v-.4a11.56,11.56,0,0,1,.12-2.13c.15-.77.74-1.59,1.52-1.59s.83.32.92.51.07.12.1.12.18-.56.18-1c0-.22-.41-.27-.57-.27a3.48,3.48,0,0,0-2.39,1.58,6,6,0,0,0-.87,3.14v0h-.94l-.07.52h1v4.73a.66.66,0,0,1-.5.67c-.14.06-.22.09-.22.18s0,0,0,0,.09,0,.14,0Z"/><path class="cls-8" d="M63.78,110.28a3.38,3.38,0,0,1,3.34-3.42,3.08,3.08,0,0,1,3.26,3.34,3.19,3.19,0,0,1-3.24,3.26A3.07,3.07,0,0,1,63.78,110.28Zm5.55.15c0-1.55-.65-3.24-2.43-3.24-1.47,0-2.07,1.29-2.07,2.56,0,1.47.69,3.39,2.44,3.39C68.53,113.14,69.33,112.29,69.33,110.43Z"/><path class="cls-8" d="M67.14,113.51a3.12,3.12,0,0,1-3.41-3.23,3.43,3.43,0,0,1,3.39-3.47,3.14,3.14,0,0,1,3.31,3.39A3.23,3.23,0,0,1,67.14,113.51Zm0-6.6a3.34,3.34,0,0,0-3.29,3.37,3,3,0,0,0,3.31,3.13,3.13,3.13,0,0,0,3.19-3.21A3,3,0,0,0,67.12,106.91Zm.15,6.28A2.16,2.16,0,0,1,65.35,112a4.6,4.6,0,0,1-.57-2.27c0-1.2.55-2.61,2.12-2.61,1.83,0,2.48,1.77,2.48,3.29C69.38,112.21,68.63,113.19,67.27,113.19Zm-.37-6c-1.49,0-2,1.35-2,2.51,0,2.3,1.24,3.34,2.39,3.34,1.31,0,2-.92,2-2.66C69.28,108.07,68.05,107.24,66.9,107.24Z"/><path class="cls-8" d="M72.65,112c0,1.4,1.34.68,1.34,1.16,0,.13-.08.16-.24.16s-.57-.06-1.41-.06a12.18,12.18,0,0,0-1.38.06c-.12,0-.17,0-.17-.13,0-.32.77-.26.77-.87v-3.87c0-.9-1.08-.51-1.08-.83,0-.09.12-.15.19-.16,1.16-.27,1.46-.75,1.8-.75.09,0,.18.09.18.24v1.12h0c.32-.43.86-1.24,1.49-1.24.31,0,1,.39,1,.67s-.36.68-.54.68-.45-.35-1-.35a1.11,1.11,0,0,0-1,.89Z"/><path class="cls-8" d="M73.75,113.4h-.28c-.23,0-.57,0-1.13,0-.76,0-1.1,0-1.26,0H71c-.14,0-.22-.06-.22-.18s.16-.24.32-.32.45-.23.45-.55v-3.87c0-.53-.39-.58-.7-.62s-.38,0-.38-.21.14-.19.23-.21a4.3,4.3,0,0,0,1.32-.55,1,1,0,0,1,.49-.2c.12,0,.23.11.23.29v1c.34-.47.85-1.18,1.47-1.18.33,0,1,.4,1,.72s-.38.73-.59.73a.67.67,0,0,1-.36-.14,1,1,0,0,0-1.56.63V112c0,.83.49.87.88.9.23,0,.46,0,.46.26S73.89,113.4,73.75,113.4Zm-1.41-.16c.56,0,.91,0,1.14.05.41,0,.46,0,.46-.1s-.11-.14-.37-.16-1-.07-1-1v-3.28a1.19,1.19,0,0,1,1-.94,1.16,1.16,0,0,1,.68.22.59.59,0,0,0,.31.13c.14,0,.49-.42.49-.63s-.63-.62-.94-.62c-.57,0-1.08.71-1.39,1.14l-.07.1H72.6V107c0-.12-.06-.19-.13-.19A1.07,1.07,0,0,0,72,107a4.35,4.35,0,0,1-1.35.57c-.06,0-.15.06-.15.11s.11.09.29.11.79.11.79.72v3.87c0,.39-.28.52-.51.64s-.26.13-.26.23,0,.08.12.08h.11C71.23,113.28,71.58,113.24,72.34,113.24Z"/><path class="cls-8" d="M86.35,111.72c1.08,1.65,1.81,1.09,1.81,1.45,0,.18-.84.18-1,.18-1.1,0-1.68-.76-2.25-1.62l-1.67-2.62c-.54-.84-.31-.8-2-.8-.48,0-.39.27-.39.42v3.17c0,1.29,1.56.82,1.56,1.33,0,.15-.14.12-.26.12s-.48-.06-1.72-.06c-.57,0-1.14.06-1.71.06a.15.15,0,0,1-.15-.16c0-.38,1.09-.17,1.09-1.31v-7.63c0-1.44-1.29-.83-1.29-1.34,0-.09.12-.18.3-.18a8.63,8.63,0,0,0,1,.06c.87,0,1.73-.06,2.51-.06.24,0,3.55-.3,3.55,2.6a2.9,2.9,0,0,1-1.89,2.59Zm-5.46-4.13c0,.29.93.21,1.63.21a2,2,0,0,0,2.09-2.13c0-1.83-1.4-2.44-2.87-2.44-.54,0-.85,0-.85.55Z"/><path class="cls-8" d="M82.29,113.4H82c-.21,0-.64,0-1.57,0-.29,0-.58,0-.85,0l-.86,0a.2.2,0,0,1-.2-.21c0-.17.17-.24.36-.32a.94.94,0,0,0,.73-1v-7.63c0-.86-.47-1-.84-1s-.45-.09-.45-.32.13-.23.35-.23l.23,0a3.89,3.89,0,0,0,.73,0q.67,0,1.32,0l1.19,0h.35a3.51,3.51,0,0,1,2.55.82,2.42,2.42,0,0,1,.7,1.84,2.92,2.92,0,0,1-1.86,2.61l2.47,3.75c.71,1.08,1.26,1.2,1.55,1.26s.27.06.27.22,0,.23-1,.23-1.7-.74-2.29-1.64l-1.67-2.63-.15-.23c-.31-.51-.33-.54-1.37-.54h-.43a.43.43,0,0,0-.3.08c-.06.06,0,.14,0,.22a.2.2,0,0,1,0,.07v3.17c0,.75.55.87,1,1,.3.07.56.12.56.36a.17.17,0,0,1,0,.13A.22.22,0,0,1,82.29,113.4Zm-1.82-.16c.94,0,1.37,0,1.58.05h.2s.11,0,.13,0a.08.08,0,0,0,0-.06c0-.15-.18-.2-.48-.26-.46-.1-1.08-.24-1.08-1.07v-3.17a.13.13,0,0,0,0-.06.42.42,0,0,1,.07-.3.54.54,0,0,1,.38-.11h.24c1.27,0,1.29,0,1.65.58l.14.24L85,111.7c.58.88,1.15,1.6,2.21,1.6.7,0,.92-.09.92-.13s0-.09-.19-.12c-.31-.07-.89-.19-1.61-1.31l-2.54-3.84,0,0a2.84,2.84,0,0,0,1.86-2.55,2.33,2.33,0,0,0-.67-1.77,3.55,3.55,0,0,0-2.76-.78h-.07l-1.19,0q-.64,0-1.32,0a4.2,4.2,0,0,1-.75,0l-.21,0c-.16,0-.25.08-.25.13s.13.17.37.22.92.17.92,1.12v7.63A1.05,1.05,0,0,1,79,113c-.19.08-.3.13-.3.23a.1.1,0,0,0,.1.11c.28,0,.57,0,.85,0S80.18,113.24,80.47,113.24Zm1.29-5.38a1.55,1.55,0,0,1-.87-.14.21.21,0,0,1,0-.13v-3.81a.59.59,0,0,1,.14-.46c.14-.14.37-.15.69-.14h.07c.88,0,2.92.24,2.92,2.49a2,2,0,0,1-.83,1.81,2.46,2.46,0,0,1-1.31.37h-.76Zm-.16-4.58c-.26,0-.45,0-.55.11a.51.51,0,0,0-.11.39v3.81a.08.08,0,0,0,0,0,2.58,2.58,0,0,0,1.18.12h.38a1.91,1.91,0,0,0,2-2.08c0-2.16-2-2.39-2.82-2.39H81.6Z"/><path class="cls-8" d="M89,109.5c0,2.47,1.5,3.21,2.42,3.21,1.29,0,1.78-.78,2.11-.78.06,0,.06.06.06.1a3.18,3.18,0,0,1-2.65,1.43,3.09,3.09,0,0,1-3-3.08c0-1.92,1.06-3.52,2.94-3.52a2.76,2.76,0,0,1,2.65,2.38c0,.27-.17.26-.51.26Zm3-.41c.21,0,.29-.07.29-.3a1.71,1.71,0,0,0-1.66-1.59c-.93,0-1.59,1.07-1.59,1.89Z"/><path class="cls-8" d="M90.92,113.51a3.14,3.14,0,0,1-3.08-3.13c0-2.1,1.22-3.57,3-3.57a2.82,2.82,0,0,1,2.7,2.43.28.28,0,0,1-.07.22c-.08.09-.23.08-.44.09H89c0,1.1.52,3.11,2.37,3.11a2.71,2.71,0,0,0,1.67-.57.91.91,0,0,1,.44-.21c.11,0,.11.11.11.15C93.62,112.42,92.27,113.51,90.92,113.51Zm-.09-6.6c-1.71,0-2.89,1.43-2.89,3.47a3,3,0,0,0,3,3,3.17,3.17,0,0,0,2.6-1.38s0,0,0,0a.83.83,0,0,0-.38.19,2.88,2.88,0,0,1-1.73.59c-.86,0-2.47-.69-2.47-3.26v0H93c.19,0,.31,0,.37-.06s0-.07,0-.15A2.71,2.71,0,0,0,90.83,106.91Zm1.11,2.23h-3v0a1.92,1.92,0,0,1,1.64-1.94,1.77,1.77,0,0,1,1.71,1.64C92.28,109,92.18,109.14,91.94,109.14ZM89,109h2.91c.18,0,.25-.06.25-.25a1.67,1.67,0,0,0-1.62-1.54A1.81,1.81,0,0,0,89,109Z"/><path class="cls-8" d="M94.23,108.66a1.81,1.81,0,0,1,2-1.8,3.31,3.31,0,0,1,1.47.34,2.1,2.1,0,0,1,.08.74c0,.4.06.58-.17.58s-.28-1.3-1.65-1.3a1,1,0,0,0-1,1c0,.49.39.81,2,1.44a1.7,1.7,0,0,1,1.24,1.78,2,2,0,0,1-2,2.06c-1.05,0-1.32-.44-1.68-.44s-.33,0-.33-1.2c0-.25,0-.73.18-.73s.16,2,1.78,2a1.23,1.23,0,0,0,1.34-1.23c0-.8-.77-1-1.37-1.32C95.23,110.11,94.23,109.72,94.23,108.66Z"/><path class="cls-8" d="M96.12,113.51a2.59,2.59,0,0,1-1.3-.31,1,1,0,0,0-.38-.13c-.38,0-.38,0-.38-1.25,0,0,0-.07,0-.11,0-.22,0-.5.11-.62a.14.14,0,0,1,.13,0c.14,0,.19.19.28.49.17.59.42,1.49,1.5,1.49a1.18,1.18,0,0,0,1.29-1.18c0-.67-.57-.93-1.12-1.18l-.22-.1-.21-.1c-.77-.38-1.63-.8-1.63-1.8a1.84,1.84,0,0,1,2.07-1.85c.18,0,1.3.1,1.51.36a1.72,1.72,0,0,1,.09.73v.25c0,.18,0,.3-.06.37a.23.23,0,0,1-.16,0c-.07,0-.11-.08-.17-.23A1.52,1.52,0,0,0,96,107.27a.9.9,0,0,0-1,.91c0,.48.43.79,1.93,1.39a1.76,1.76,0,0,1,1.28,1.83A2.1,2.1,0,0,1,96.12,113.51Zm-1.83-2.37s-.05,0-.06,0-.08.36-.08.55,0,.08,0,.11c0,1.15,0,1.15.28,1.15a.91.91,0,0,1,.42.14,2.49,2.49,0,0,0,1.26.3,2,2,0,0,0,2-2,1.66,1.66,0,0,0-1.21-1.74c-1.57-.62-2-.94-2-1.48a1,1,0,0,1,1.1-1,1.63,1.63,0,0,1,1.57,1.13.61.61,0,0,0,.09.17.15.15,0,0,0,.08,0s0-.15,0-.3v-.26a1.59,1.59,0,0,0-.07-.66,3.35,3.35,0,0,0-1.43-.32,1.76,1.76,0,0,0-2,1.75c0,.94.8,1.33,1.57,1.71l.21.1.22.1c.55.25,1.18.53,1.18,1.27a1.28,1.28,0,0,1-1.39,1.28c-1.15,0-1.43-1-1.6-1.57C94.41,111.35,94.35,111.14,94.29,111.14Z"/><path class="cls-8" d="M99.75,109.5c0,2.47,1.5,3.21,2.41,3.21,1.29,0,1.79-.78,2.12-.78.06,0,.06.06.06.1a3.2,3.2,0,0,1-2.66,1.43,3.09,3.09,0,0,1-3-3.08c0-1.92,1.07-3.52,2.94-3.52a2.76,2.76,0,0,1,2.66,2.38c0,.27-.17.26-.51.26Zm3-.41c.21,0,.3-.07.3-.3a1.72,1.72,0,0,0-1.66-1.59c-.93,0-1.59,1.07-1.59,1.89Z"/><path class="cls-8" d="M101.68,113.51a3.15,3.15,0,0,1-3.08-3.13c0-2.1,1.23-3.57,3-3.57a2.83,2.83,0,0,1,2.71,2.43.28.28,0,0,1-.07.22.54.54,0,0,1-.39.09h-4c0,1.1.52,3.11,2.36,3.11a2.74,2.74,0,0,0,1.68-.57.91.91,0,0,1,.44-.21c.11,0,.11.11.11.15C104.39,112.42,103,113.51,101.68,113.51Zm-.09-6.6c-1.7,0-2.89,1.43-2.89,3.47a3,3,0,0,0,3,3,3.18,3.18,0,0,0,2.61-1.38s0,0,0,0a.9.9,0,0,0-.39.19,2.83,2.83,0,0,1-1.73.59c-.85,0-2.46-.69-2.46-3.26v0h4.09c.18,0,.31,0,.37-.06a.25.25,0,0,0,0-.15A2.72,2.72,0,0,0,101.59,106.91Zm1.11,2.23h-3v0a1.91,1.91,0,0,1,1.64-1.94,1.77,1.77,0,0,1,1.71,1.64C103.05,109,103,109.14,102.7,109.14Zm-2.9-.1h2.9c.19,0,.25-.06.25-.25a1.66,1.66,0,0,0-1.61-1.54A1.8,1.8,0,0,0,99.8,109Z"/><path class="cls-8" d="M108.71,108.55c0-.78-.62-1.3-1.55-1.3-.72,0-1.3.07-1.3.9,0,.22.09.45.09.61s0,.29-.33.29-.71-.23-.71-.5c0-.69.86-1.74,2.52-1.69.93,0,2.37.27,2.37,1.54v3.11c0,.51-.13,1.39.65,1.39l.25,0c.08,0,.2,0,.2.11,0,.31-.66.37-.87.37a1.15,1.15,0,0,1-1.17-.76,3.59,3.59,0,0,1-2.3.87c-1,0-1.62-.36-1.62-1.43,0-.79.26-1.74,3.77-2.32Zm0,1.52c-1,.21-2.79.45-2.79,1.77,0,.85.43,1.18,1.23,1.18.54,0,1.56-.42,1.56-1.21Z"/><path class="cls-8" d="M106.56,113.51c-1.12,0-1.67-.49-1.67-1.48s.29-1.78,3.77-2.37v-1.11c0-.75-.6-1.25-1.5-1.25-.71,0-1.25.06-1.25.85a1.33,1.33,0,0,0,0,.34,1.47,1.47,0,0,1,0,.27c0,.17,0,.34-.38.34s-.76-.23-.76-.55a1.58,1.58,0,0,1,.54-1,2.74,2.74,0,0,1,1.93-.69h.1c.57,0,2.42.11,2.42,1.59v3.31c0,.34,0,.78.19,1a.53.53,0,0,0,.41.15h.12l.13,0c.07,0,.25,0,.25.16,0,.42-.91.42-.92.42a1.2,1.2,0,0,1-1.19-.73A3.69,3.69,0,0,1,106.56,113.51Zm.6-6.31c1,0,1.6.54,1.6,1.35v1.2h-.05c-3.43.57-3.72,1.47-3.72,2.27s.5,1.38,1.57,1.38a3.55,3.55,0,0,0,2.26-.86l.06,0,0,.07a1.11,1.11,0,0,0,1.13.73c.26,0,.82-.08.82-.32,0,0,0-.06-.15-.06l-.12,0h-.13a.66.66,0,0,1-.49-.18,1.5,1.5,0,0,1-.21-1.06V108.4c0-1.39-1.77-1.49-2.32-1.49h-.1a2.66,2.66,0,0,0-1.86.66,1.52,1.52,0,0,0-.51,1c0,.23.41.45.66.45s.28-.11.28-.24a1.29,1.29,0,0,0,0-.25,1.42,1.42,0,0,1,0-.36C105.81,107.27,106.45,107.2,107.16,107.2Zm0,5.87c-.88,0-1.28-.39-1.28-1.23,0-1.24,1.53-1.56,2.54-1.76l.29-.06.06,0v1.81C108.76,112.64,107.71,113.07,107.15,113.07Zm1.51-2.94-.23.05c-1,.2-2.46.5-2.46,1.66,0,.78.36,1.13,1.18,1.13.51,0,1.51-.41,1.51-1.16Z"/><path class="cls-8" d="M113.15,112c0,1.4,1.33.68,1.33,1.16,0,.13-.07.16-.24.16s-.57-.06-1.41-.06a12.63,12.63,0,0,0-1.38.06c-.12,0-.16,0-.16-.13,0-.32.76-.26.76-.87v-3.87c0-.9-1.08-.51-1.08-.83,0-.09.12-.15.2-.16,1.15-.27,1.45-.75,1.8-.75.09,0,.18.09.18.24v1.12h0c.31-.43.85-1.24,1.48-1.24.32,0,1,.39,1,.67s-.36.68-.54.68-.45-.35-1-.35a1.11,1.11,0,0,0-1,.89Z"/><path class="cls-8" d="M114.24,113.4H114c-.23,0-.58,0-1.14,0-.75,0-1.09,0-1.26,0h-.12q-.21,0-.21-.18c0-.17.15-.24.31-.32s.45-.23.45-.55v-3.87c0-.53-.38-.58-.7-.62s-.38,0-.38-.21.14-.19.24-.21a4.41,4.41,0,0,0,1.32-.55.94.94,0,0,1,.49-.2.26.26,0,0,1,.23.29v1c.34-.47.85-1.18,1.46-1.18.34,0,1,.4,1,.72s-.38.73-.59.73a.73.73,0,0,1-.36-.14,1,1,0,0,0-.63-.21,1.07,1.07,0,0,0-.92.84V112c0,.83.48.87.87.9s.46,0,.46.26S114.38,113.4,114.24,113.4Zm-1.41-.16c.57,0,.91,0,1.15.05.41,0,.45,0,.45-.1s-.1-.14-.36-.16-1-.07-1-1v-3.28a1.17,1.17,0,0,1,1-.94,1.2,1.2,0,0,1,.69.22.6.6,0,0,0,.3.13c.14,0,.49-.42.49-.63s-.63-.62-.94-.62c-.56,0-1.07.71-1.38,1.14l-.08.1h-.1V107c0-.12-.07-.19-.13-.19a1,1,0,0,0-.44.18,4.35,4.35,0,0,1-1.35.57c-.06,0-.16.06-.16.11s.12.09.3.11.78.11.78.72v3.87c0,.39-.28.52-.5.64s-.26.13-.26.23,0,.08.11.08h.11C111.73,113.28,112.07,113.24,112.83,113.24Z"/><path class="cls-8" d="M115.52,110.28a3.39,3.39,0,0,1,3.38-3.42c.75,0,1.77.21,1.81.55s0,.69,0,.89,0,.31-.12.31-.32-.28-.36-.34a2.18,2.18,0,0,0-1.86-.92c-1.28,0-1.77,1.32-1.77,2.4a2.69,2.69,0,0,0,2.65,3c1.17,0,1.83-.87,2.06-.87,0,0,.12,0,.12.09,0,.24-.9,1.53-3,1.53A3.09,3.09,0,0,1,115.52,110.28Z"/><path class="cls-8" d="M118.49,113.51a3.14,3.14,0,0,1-3-3.23,3.45,3.45,0,0,1,3.43-3.47c.75,0,1.81.2,1.86.59a6.47,6.47,0,0,1,0,.74v.16c0,.3-.1.36-.17.36s-.3-.21-.38-.33l0,0a2.11,2.11,0,0,0-1.82-.9c-1.18,0-1.72,1.22-1.72,2.35a2.62,2.62,0,0,0,2.6,2.91A2.8,2.8,0,0,0,121,112c.16-.12.27-.2.36-.2s.17.06.17.14S120.63,113.51,118.49,113.51Zm.41-6.6a3.35,3.35,0,0,0-3.33,3.37,3,3,0,0,0,2.92,3.13,3,3,0,0,0,2.91-1.48.1.1,0,0,0-.07,0,.78.78,0,0,0-.3.18,2.88,2.88,0,0,1-1.76.69,2.71,2.71,0,0,1-2.7-3c0-1.18.57-2.45,1.82-2.45a2.23,2.23,0,0,1,1.9.94l0,0c.05.08.19.28.29.28s.07-.08.07-.26v-.16a6,6,0,0,0,0-.72C120.62,107.13,119.68,106.91,118.9,106.91Z"/><path class="cls-8" d="M123.47,107.92a3.27,3.27,0,0,1,2.16-1.06c1.92,0,2.5,1.66,2.5,3v2.51c0,.78,1.2.46,1.2.84,0,.16-.13.19-.3.19s-.69-.06-1.26-.06-1.06.06-1.23.06-.24,0-.24-.16.74-.23.74-.77v-2.74c0-1.86-1.29-2.21-1.82-2.21s-1.75.59-1.75,1.35V112c0,1.29,1.32.87,1.32,1.15s-.08.21-.26.21-1.06-.06-1.53-.06-1.12.06-1.36.06a.14.14,0,0,1-.15-.15c0-.3.88-.13.88-.87v-8.47c0-.9-1.15-.51-1.15-.83,0-.09,0-.15.12-.16,1.09-.21,1.6-.75,2-.75.09,0,.18.09.18.24Z"/><path class="cls-8" d="M129,113.4l-.41,0c-.23,0-.51,0-.85,0s-.72,0-1,0l-.28,0c-.24,0-.29-.12-.29-.21s.13-.18.28-.26.46-.21.46-.51v-2.74c0-2.13-1.7-2.16-1.77-2.16-.67,0-1.7.58-1.7,1.3V112c0,.83.57.91,1,1,.21,0,.36.05.36.18s-.14.26-.3.26l-.63,0c-.3,0-.65,0-.9,0s-.61,0-.88,0l-.48,0a.19.19,0,0,1-.2-.2c0-.15.16-.21.33-.27s.55-.19.55-.6v-8.47c0-.52-.42-.58-.75-.62s-.4,0-.4-.21a.2.2,0,0,1,.16-.21,4.92,4.92,0,0,0,1.39-.53,1.33,1.33,0,0,1,.57-.22.26.26,0,0,1,.23.29v5.45a3.12,3.12,0,0,1,2.11-1c1.88,0,2.55,1.61,2.55,3v2.51c0,.42.38.49.72.55s.48.09.48.29S129.13,113.4,129,113.4Zm-1.26-.16c.34,0,.63,0,.86,0l.4,0c.21,0,.25,0,.25-.14s-.15-.14-.4-.19-.8-.15-.8-.65v-2.51c0-2.14-1.27-2.9-2.45-2.9a3.16,3.16,0,0,0-2.13,1l-.08.08v-5.68c0-.12-.07-.19-.13-.19a1.44,1.44,0,0,0-.52.2,4.68,4.68,0,0,1-1.43.55c-.06,0-.07.07-.07.11s.11.09.31.11.84.11.84.72v8.47c0,.49-.36.61-.62.7s-.26.09-.26.17a.09.09,0,0,0,.1.1l.47,0c.28,0,.62,0,.89,0s.6,0,.91,0l.62,0c.17,0,.21,0,.21-.16s-.14-.07-.28-.09c-.39,0-1-.14-1-1.06v-3.17c0-.8,1.09-1.4,1.8-1.4.08,0,1.86,0,1.86,2.26v2.74c0,.36-.29.5-.51.6s-.22.11-.22.17,0,.11.19.11l.27,0C127,113.27,127.39,113.24,127.77,113.24Z"/></g></g></svg>