<svg xmlns="http://www.w3.org/2000/svg" viewBox="0 0 216.1 117.55"><defs><style>.cls-1{fill:#bc4700;}.cls-2{fill:#d65f00;}.cls-3{fill:#fff;}.cls-4{fill:#fbceb0;}.cls-5{fill:#231f20;}.cls-6{fill:none;stroke:#bc4700;}.cls-7{fill:#7a6569;}</style></defs><g id="Layer_2" data-name="Layer 2"><g id="artwork"><g id="_PMS_" data-name="&lt;PMS&gt;"><g id="_Shield_" data-name="&lt;Shield&gt;"><path class="cls-1" d="M.05,20.52H50.37V12.85h-6.3V10.37H42.58a11.9,11.9,0,0,1-5.71-1.32C34.45,7.61,34,6.25,34,6.25v-2H30.76a5.46,5.46,0,0,0-10.65,0H16.82v2s-.46,1.37-2.88,2.8a11.88,11.88,0,0,1-5.71,1.32H6.3v2.48H0V20.5"/><path class="cls-1" d="M0,37.05A47.37,47.37,0,0,0,1.57,48,34.83,34.83,0,0,0,11.69,65.27,67.85,67.85,0,0,0,24.9,74.33a.67.67,0,0,0,.55,0,90.28,90.28,0,0,0,9.42-5.93A35.09,35.09,0,0,0,48.12,50.05a55.06,55.06,0,0,0,2.26-16.28c0-2.89,0-7.93,0-10.82H0c0,4,0,10.12,0,14.1m21.5,3.41L25.2,29.19l3.66,11.27H40.71l-9.59,7,3.66,11.27-9.58-7-9.58,7,3.66-11.26-9.59-7Z"/><path class="cls-2" d="M25.34,20.53,25.49,0a5.46,5.46,0,0,0-5.33,4.25H16.87v2S16.41,7.65,14,9.08A11.88,11.88,0,0,1,8.28,10.4H6.35v2.48H.05v7.64Z"/><path class="cls-2" d="M25.23,51.74l-9.58,7,3.66-11.26-9.58-7H21.57l3.66-11.27,0-6.24H.05c0,4,0,10.12,0,14.1A46.84,46.84,0,0,0,1.61,48,34.74,34.74,0,0,0,11.72,65.29a68.46,68.46,0,0,0,13.21,9.06.33.33,0,0,0,.26,0Z"/><polygon class="cls-3" points="40.74 40.46 28.89 40.46 25.23 29.19 21.57 40.46 9.73 40.46 19.31 47.42 15.65 58.69 25.23 51.72 34.82 58.69 31.16 47.42 40.74 40.46"/><polygon class="cls-4" points="25.23 29.19 28.89 40.46 40.74 40.46 31.16 47.42 34.82 58.69 25.23 51.72 25.23 29.19"/></g><path class="cls-5" d="M31.58,71.77a1.27,1.27,0,0,1,.62.16,1.16,1.16,0,0,1,.47.46,1.35,1.35,0,0,1,.17.63,1.29,1.29,0,0,1-.17.63,1.16,1.16,0,0,1-.46.47,1.32,1.32,0,0,1-1.26,0,1.16,1.16,0,0,1-.46-.47,1.29,1.29,0,0,1-.17-.63,1.35,1.35,0,0,1,.17-.63,1.16,1.16,0,0,1,.47-.46A1.27,1.27,0,0,1,31.58,71.77Zm0,.2a1.1,1.1,0,0,0-.52.14,1,1,0,0,0-.39.39,1.05,1.05,0,0,0,0,1,1,1,0,0,0,.39.38,1,1,0,0,0,.52.14,1,1,0,0,0,.52-.14,1,1,0,0,0,.39-.38,1.05,1.05,0,0,0,0-1,1,1,0,0,0-.39-.39A1.1,1.1,0,0,0,31.58,72ZM31,73.72V72.37h.46a1.44,1.44,0,0,1,.35,0,.37.37,0,0,1,.17.13.39.39,0,0,1,.06.2A.35.35,0,0,1,32,73a.4.4,0,0,1-.28.12l.11.08a1.31,1.31,0,0,1,.2.26l.17.27H31.9l-.12-.21a1.13,1.13,0,0,0-.23-.32.29.29,0,0,0-.17,0h-.13v.58Zm.22-.76h.26a.39.39,0,0,0,.26-.06.18.18,0,0,0,.07-.15.23.23,0,0,0,0-.11.26.26,0,0,0-.1-.07l-.21,0h-.25Z"/><path class="cls-5" d="M80.36,44.73c1.4-1.89,2.11-4.61,2.11-8.1V27.17A10.16,10.16,0,0,1,82.8,24a2.42,2.42,0,0,1,1.45-1.27c.31-.14.47-.32.47-.56a.43.43,0,0,0-.48-.46l-.85.06c-.33,0-1.21.05-2.62.05a10.58,10.58,0,0,1-1.71-.11,10.52,10.52,0,0,0-1.24-.15.48.48,0,0,0-.37.11.54.54,0,0,0-.14.4c0,.21.12.48.67.53a2.81,2.81,0,0,1,2.24,1.18,6.61,6.61,0,0,1,.67,3.4V37c0,3.3-.75,5.8-2.23,7.43s-3.73,2.45-6.72,2.45c-3.33,0-5.74-1-7.15-2.92-1-1.38-1.51-3.72-1.51-7V27.41l0-1.25a6.08,6.08,0,0,1,.36-2.52,2,2,0,0,1,1.4-.9c.47-.08.71-.28.71-.58s-.07-.42-.56-.42l-1,.05c-.56.06-.91.08-1.06.08H61.65l-1.47,0c-.27,0-.7,0-1.28-.06l-1.32,0c-.7,0-.85.31-.85.57s.11.44.62.52a3.21,3.21,0,0,1,2.19,1,5.07,5.07,0,0,1,.54,2.75l0,1.09V37.4a13.61,13.61,0,0,0,1.38,6.53,8.41,8.41,0,0,0,3.85,3.47,14,14,0,0,0,11.2.21,9.21,9.21,0,0,0,3.82-2.88"/><path class="cls-5" d="M95.65,24.08c.59,0,.78.1.84.16s.16.24.16.8l0,.49v19a3.44,3.44,0,0,1-.49,2.15,2.91,2.91,0,0,1-1.9.77c-.49.06-.74.23-.74.5s.09.53.69.53c.14,0,.56,0,1.3-.12.36,0,.82,0,1.35,0l1.49,0,1.4,0c.9,0,1.47,0,1.7,0a7.57,7.57,0,0,0,1,.12c.57,0,.66-.34.66-.53s-.26-.47-.77-.55a2.52,2.52,0,0,1-2.4-2.55l0-.74V25.32c0-.74.11-1,.18-1.05s.29-.19,1-.19h5.37a3.79,3.79,0,0,1,2.08.39h0a2.71,2.71,0,0,1,.76,1.69c.09.48.27.71.59.69s.53-.16.51-.74c0-.19-.05-.51-.12-.94a10.35,10.35,0,0,1-.09-1.62c0-1.05-.15-1.32-.25-1.43s-.61-.27-1.36-.27H88a1.11,1.11,0,0,0-1,.33,2.23,2.23,0,0,0-.23,1.22,11.21,11.21,0,0,1-.28,2.24,8.14,8.14,0,0,0-.23,1.49c0,.54.28.63.46.64.45,0,.59-.61.64-.82a4.25,4.25,0,0,1,1-2.28,3.24,3.24,0,0,1,2.16-.59Z"/><path class="cls-5" d="M139.62,48.35a8.31,8.31,0,0,1,.9-.05l1.43,0,1.42,0a15,15,0,0,1,1.89.07c.83.13,1.33.16,1.55-.08a.53.53,0,0,0,.12-.4c0-.26-.26-.43-.72-.49a2.9,2.9,0,0,1-2.11-.9,4.94,4.94,0,0,1-.55-2.76V25.24a3.44,3.44,0,0,1,.38-1.63,1.39,1.39,0,0,1,.92-.79l.78-.17c.46-.1.55-.34.55-.51s-.07-.5-.58-.5a6.52,6.52,0,0,0-.72.08,25.61,25.61,0,0,1-2.85.11,24.81,24.81,0,0,1-2.66-.13c-.6-.06-1-.1-1.31-.1-.5,0-.59.27-.6.43s.09.47.65.58a2.68,2.68,0,0,1,1.78,1.07,5.53,5.53,0,0,1,.49,2.74V33c0,.31-.06.51-.18.59a2.11,2.11,0,0,1-1,.13H127.93c-1,0-1.27-.12-1.32-.18h0c-.07-.06-.19-.31-.19-1.21V25.44a3.42,3.42,0,0,1,.42-2,2.86,2.86,0,0,1,1.65-.88c.41-.1.61-.29.61-.55s-.09-.51-.68-.51a6,6,0,0,0-.81.07,20,20,0,0,1-2.53.15,29.41,29.41,0,0,1-3.48-.17c-.52-.06-.91-.1-1.16-.11a.65.65,0,0,0-.49.14.45.45,0,0,0-.13.35c0,.21.11.46.65.53a3.53,3.53,0,0,1,2.19,1,3.68,3.68,0,0,1,.6,2.33V42.24A15.66,15.66,0,0,1,123,46a1.49,1.49,0,0,1-1.06,1.18l-1,.23c-.49.11-.59.37-.59.56s.08.48.6.48c.14,0,.54,0,1.22-.09.48,0,.88-.06,1.19-.06l1.26,0,1.61,0a17.86,17.86,0,0,1,2.27.08,9,9,0,0,0,1,.09.75.75,0,0,0,.56-.18.43.43,0,0,0,.11-.34c0-.34-.3-.54-.83-.6a3.23,3.23,0,0,1-2.27-.95,4.54,4.54,0,0,1-.61-2.71v-7c0-.69.13-.94.23-1s.41-.19,1.28-.19h11.25c.86,0,1,.09,1.07.12s.13.18.13,1v7l0,.75c0,1.9-.62,2.93-1.9,3.15-.49.08-.74.26-.76.55a.52.52,0,0,0,.12.36.61.61,0,0,0,.42.14h0l1.34-.1"/><path class="cls-5" d="M196,46.14l-.17,0-1,.48a4.09,4.09,0,0,1-1.91.41,2.85,2.85,0,0,1-2.15-.79,3.66,3.66,0,0,1-.5-2.34V34.46h4.41a.94.94,0,0,0,.95-.64l.44-1.09a1.59,1.59,0,0,0,.18-.52.33.33,0,0,0-.09-.29.27.27,0,0,0-.24-.05,1.07,1.07,0,0,0-.47.25,2.31,2.31,0,0,1-1.23.28h-3.95l.08-3.18c0-.51-.22-.62-.39-.62s-.35.11-.83.9a17,17,0,0,1-3.4,3.77q-.54.45-.54.78c0,.19.11.41.62.41h1.58V44c0,3.12,1.52,4.7,4.52,4.7a6.71,6.71,0,0,0,2.86-.74c1.06-.52,1.58-1,1.58-1.47a.32.32,0,0,0-.35-.33"/><path class="cls-5" d="M153.31,33A3.82,3.82,0,0,1,156,34.21a3.75,3.75,0,0,1,1.26,2.69c0,.4-.76.49-1.39.49h-6.34a6.13,6.13,0,0,1,1.24-3.21h0A3.15,3.15,0,0,1,153.31,33m7,11.6a.8.8,0,0,0-.34.16,7.61,7.61,0,0,1-4.46,1.85,5.43,5.43,0,0,1-4.36-2.18A8.37,8.37,0,0,1,149.4,39v-.31h7.12l1.3,0,1.42,0c.91,0,1.37-.25,1.37-.75a4.83,4.83,0,0,0-.49-1.6,10.17,10.17,0,0,0-.95-1.78A6.11,6.11,0,0,0,154,31.9a6.76,6.76,0,0,0-5.2,2.54,8.73,8.73,0,0,0-2.21,5.89,8.64,8.64,0,0,0,2.15,5.94A6.85,6.85,0,0,0,154,48.68a8.57,8.57,0,0,0,5.33-2c.93-.73,1.38-1.29,1.38-1.71a.44.44,0,0,0-.12-.34.42.42,0,0,0-.29-.09"/><path class="cls-5" d="M184.92,47.23c-1.25-.21-2-.61-2.28-1.21a6.3,6.3,0,0,1-.35-2.36V21.23l0-.59h0c0-.48-.06-.76-.2-.89a.31.31,0,0,0-.19-.08.85.85,0,0,0-.48.18,8.74,8.74,0,0,1-1.83.9l-1.17.48a7.86,7.86,0,0,1-1.18.36c-.39.11-.58.28-.58.53a.45.45,0,0,0,.31.43,1.31,1.31,0,0,0,.37,0h0l.95,0c.74,0,1.1.54,1.1,1.64V45.38a2.22,2.22,0,0,1-.27,1.26,2,2,0,0,1-1.09.61c-.43.12-.65.32-.63.59s.11.49.64.49a7.21,7.21,0,0,0,.74-.09c.28,0,1-.06,2.23-.06l2.66,0a4.24,4.24,0,0,1,.84.06,2.75,2.75,0,0,0,.52.08.51.51,0,0,0,.4-.15.56.56,0,0,0,.13-.41q0-.41-.66-.51"/><path class="cls-5" d="M166.76,41.86a9.59,9.59,0,0,1,4.39-1.31V44.2a2.78,2.78,0,0,1-.63,2,3.58,3.58,0,0,1-2.59,1,2.54,2.54,0,0,1-2.73-2.73,3.09,3.09,0,0,1,1.56-2.64M176.7,47a2.39,2.39,0,0,0-.48.09,2.51,2.51,0,0,1-.44,0,1.39,1.39,0,0,1-1.33-.7,5.24,5.24,0,0,1-.42-2.46V36.43a4.06,4.06,0,0,0-1.48-3.34,6.37,6.37,0,0,0-4.11-1.19,6.08,6.08,0,0,0-4.65,1.89,4,4,0,0,0-1.31,2.63c0,.35.26.67.79.95a3.62,3.62,0,0,0,1.68.4.54.54,0,0,0,.4-.14.45.45,0,0,0,.1-.34,2.41,2.41,0,0,0-.14-.63,5,5,0,0,1-.24-1.4c0-1.35.78-2,2.4-2a3.86,3.86,0,0,1,2.89,1.1,4.16,4.16,0,0,1,.79,2.93v2.26a19.53,19.53,0,0,0-6.71,1.94A3.91,3.91,0,0,0,162.38,45a3.46,3.46,0,0,0,1.1,2.68,4.2,4.2,0,0,0,2.93,1,8.75,8.75,0,0,0,5.1-2,3.55,3.55,0,0,0,2.87,1.89,4.78,4.78,0,0,0,1.77-.36c.65-.26,1-.51,1-.8a.37.37,0,0,0-.1-.3.41.41,0,0,0-.33-.1"/><path class="cls-5" d="M215.48,47.44a3.45,3.45,0,0,1-1.95-.74,3,3,0,0,1-.45-1.91V38.73a7.1,7.1,0,0,0-1.7-4.93,5.72,5.72,0,0,0-4.45-1.9,6.91,6.91,0,0,0-5.24,2.83V22c0-.42,0-.74,0-1s0-.38,0-.47c0-.47-.28-.54-.45-.54a1.09,1.09,0,0,0-.46.12l-1.49.71a13.26,13.26,0,0,1-2.67,1c-.35.09-.53.26-.53.51a.39.39,0,0,0,.2.36.67.67,0,0,0,.33.07h0l1,0a.82.82,0,0,1,.65.21,2.72,2.72,0,0,1,.5,1.94v19.9a4.76,4.76,0,0,1-.24,2,2.35,2.35,0,0,1-1.32.72c-.45.13-.54.4-.52.59s.1.42.6.42l.89-.05c.94-.07,1.68-.11,2.19-.11,1.47,0,2.45,0,2.9.07s.92.09,1.07.09c.47,0,.54-.28.54-.44,0-.32-.25-.52-.76-.59a3.28,3.28,0,0,1-2.06-.76,4.7,4.7,0,0,1-.41-2.45V36.84a2.73,2.73,0,0,1,1.25-2.15,4.52,4.52,0,0,1,2.82-1A4.11,4.11,0,0,1,209,35.09a5.55,5.55,0,0,1,1.21,3.76v6.33l0,.59a1.88,1.88,0,0,1-.2,1.08,2.92,2.92,0,0,1-1.16.62c-.32.12-.47.3-.46.51s.11.47.66.47l.61-.05a20.93,20.93,0,0,1,2.47-.1c.67,0,1.48,0,2.41.09.48,0,.79.06,1,.06.56,0,.64-.29.64-.47s-.11-.46-.62-.54"/><path class="cls-5" d="M64.59,63.29a23.52,23.52,0,0,1-2.22-.81,2.36,2.36,0,0,1-.81-.69,2.1,2.1,0,0,1-.43-1.33A1.84,1.84,0,0,1,61.79,59a2.42,2.42,0,0,1,1.64-.58,4.17,4.17,0,0,1,2.27.65A3.12,3.12,0,0,1,67,60.73c.11.33.22.48.35.48s.25-.06.25-.34c0,0,0-.17,0-.39l-.15-1q-.12-.78-.12-.93a.62.62,0,0,0-.12-.45.2.2,0,0,0-.15-.06.21.21,0,0,0-.15.05l-.13.11a.29.29,0,0,1-.34,0L65.79,58a4.56,4.56,0,0,0-1.71-.29,4.35,4.35,0,0,0-2.92,1A3.12,3.12,0,0,0,60,61.19a3,3,0,0,0,.87,2.23,7.94,7.94,0,0,0,3,1.56,9.53,9.53,0,0,1,2.4,1,2.19,2.19,0,0,1,.8,1.71,2.29,2.29,0,0,1-.87,1.8,3.18,3.18,0,0,1-2.14.75,3.85,3.85,0,0,1-2.31-.78,3.5,3.5,0,0,1-1.39-1.92c-.1-.32-.21-.48-.35-.49a.21.21,0,0,0-.16.05.35.35,0,0,0-.08.27,5.08,5.08,0,0,0,.24,1.2c.14.52.22.8.23.85a5.44,5.44,0,0,0,.17.66.72.72,0,0,0,.24.26,4.3,4.3,0,0,0,1.28.48,7.42,7.42,0,0,0,1.59.2,4.81,4.81,0,0,0,3.29-1.12A3.66,3.66,0,0,0,68.06,67c0-1.73-1.17-3-3.47-3.75"/><path class="cls-5" d="M71.45,67.72a4.76,4.76,0,0,1,2.16-.64v1.79a1.34,1.34,0,0,1-.31,1,1.77,1.77,0,0,1-1.27.5A1.24,1.24,0,0,1,70.69,69a1.53,1.53,0,0,1,.76-1.3m4.86,2.51a1,1,0,0,0-.23,0h-.22a.69.69,0,0,1-.66-.34,2.53,2.53,0,0,1-.2-1.21V65.08a2,2,0,0,0-.72-1.62,3.13,3.13,0,0,0-2-.58A2.93,2.93,0,0,0,70,63.8a1.93,1.93,0,0,0-.64,1.28c0,.16.13.32.38.45a1.74,1.74,0,0,0,.82.19.24.24,0,0,0,.18-.06.21.21,0,0,0,0-.16,1.28,1.28,0,0,0-.07-.3,2.38,2.38,0,0,1-.12-.69c0-.67.39-1,1.19-1a1.9,1.9,0,0,1,1.42.54,2.11,2.11,0,0,1,.38,1.44v1.11a9.53,9.53,0,0,0-3.28,1,1.9,1.9,0,0,0-1,1.7,1.66,1.66,0,0,0,.54,1.3,2,2,0,0,0,1.42.48,4.25,4.25,0,0,0,2.49-1,1.72,1.72,0,0,0,1.4.93,2.33,2.33,0,0,0,.86-.18c.31-.12.46-.24.47-.38a.14.14,0,0,0-.05-.13.15.15,0,0,0-.15,0"/><path class="cls-5" d="M86.47,70.4l-.39-.06a.77.77,0,0,1-.74-.67l0-.45V66.71a4.49,4.49,0,0,0-.6-2.58,2.81,2.81,0,0,0-2.4-1.25,3.47,3.47,0,0,0-2.55,1.4v-.92c0-.14,0-.25,0-.35a.35.35,0,0,0-.06-.27c-.07-.08-.21-.07-.38,0l-.36.17-.5.25a5,5,0,0,1-1.19.37c-.19,0-.28.12-.28.23a.18.18,0,0,0,.11.18.34.34,0,0,0,.17,0h.4a.64.64,0,0,1,.56.21,1.72,1.72,0,0,1,.15.87V69.3a1.31,1.31,0,0,1-.16.75,1.18,1.18,0,0,1-.61.4c-.13,0-.2.12-.21.22a.24.24,0,0,0,0,.15.24.24,0,0,0,.18.06l.38,0c.19,0,.78,0,1.76,0,.47,0,.76,0,.87,0a2.79,2.79,0,0,0,.48.06c.23,0,.27-.14.27-.22s-.12-.23-.36-.25c-.81,0-1.22-.32-1.25-.82l0-.74V65.29a1.26,1.26,0,0,1,.59-1,2.15,2.15,0,0,1,1.35-.45,2.09,2.09,0,0,1,1.66.68,3,3,0,0,1,.59,2V69.7c0,.36-.12.57-.34.62l-.28.08a.22.22,0,0,0-.2.23c0,.11,0,.16.08.18l.16,0,.27,0H84l.92,0c.55,0,.93,0,1.13,0a2.44,2.44,0,0,0,.37,0,.41.41,0,0,0,.3-.09.21.21,0,0,0,0-.17c0-.12-.11-.2-.3-.22"/><path class="cls-5" d="M141.92,70.42l-.43,0a.77.77,0,0,1-.57-.27,1.79,1.79,0,0,1-.14-.86V63c0-.21-.09-.27-.16-.27h0l-.51.24a10.84,10.84,0,0,1-1.32.59c-.34.11-.5.2-.51.32a.15.15,0,0,0,0,.11.5.5,0,0,0,.35.08c.31,0,.52.07.61.21a2.24,2.24,0,0,1,.14,1v4.06a2.1,2.1,0,0,1-.11.79.62.62,0,0,1-.39.33l-.18.06a.25.25,0,0,0-.2.24c0,.1,0,.22.3.22l.35,0,.28,0,.68,0h.6l.65,0c.3,0,.5,0,.61,0s.3-.1.3-.2-.11-.25-.37-.28"/><path class="cls-5" d="M137.34,70.4l-.39-.06a.78.78,0,0,1-.75-.67l0-.45V66.71a4.48,4.48,0,0,0-.61-2.58,2.79,2.79,0,0,0-2.4-1.25,3.45,3.45,0,0,0-2.54,1.4v-.92c0-.14,0-.25,0-.35a.35.35,0,0,0-.06-.27c-.08-.08-.22-.07-.39,0l-.36.17-.49.25a5,5,0,0,1-1.19.37c-.19,0-.28.12-.28.23a.17.17,0,0,0,.1.18.35.35,0,0,0,.18,0h.4a.62.62,0,0,1,.55.21,1.72,1.72,0,0,1,.15.87V69.3a1.41,1.41,0,0,1-.15.75,1.17,1.17,0,0,1-.62.4c-.13,0-.2.13-.2.22a.19.19,0,0,0,0,.15.22.22,0,0,0,.17.06l.38,0c.19,0,.79,0,1.77,0,.47,0,.75,0,.86,0a3,3,0,0,0,.49.06c.23,0,.26-.14.26-.22s-.12-.23-.35-.25c-.81,0-1.22-.32-1.25-.82l0-.74V65.29a1.27,1.27,0,0,1,.58-1,2.17,2.17,0,0,1,1.35-.45,2.06,2.06,0,0,1,1.66.68,3,3,0,0,1,.59,2V69.7c0,.36-.11.57-.34.62l-.27.08c-.17,0-.21.14-.21.23a.18.18,0,0,0,.09.18l.15,0,.27,0h.36l.92,0c.54,0,.92,0,1.13,0a2.34,2.34,0,0,0,.36,0,.38.38,0,0,0,.3-.09.25.25,0,0,0,.06-.17c0-.12-.11-.2-.3-.22"/><path class="cls-5" d="M125.66,67.45a3.6,3.6,0,0,1-.66,2.28,2.15,2.15,0,0,1-1.78.83,2.63,2.63,0,0,1-2.17-1.18,4.87,4.87,0,0,1-.88-2.95,3.42,3.42,0,0,1,.7-2.23,2.28,2.28,0,0,1,1.84-.85,2.54,2.54,0,0,1,2.12,1.14,5,5,0,0,1,.83,3M123,62.88a4.12,4.12,0,0,0-3,1.2,4.17,4.17,0,0,0-.08,5.83A4.07,4.07,0,0,0,122.85,71a4.2,4.2,0,0,0,3-1.16,4,4,0,0,0,1.2-3,3.87,3.87,0,0,0-1.22-2.85A4,4,0,0,0,123,62.88"/><path class="cls-5" d="M140.15,59c-.14,0-.33.13-.57.4a1.17,1.17,0,0,0-.35.64,1.2,1.2,0,0,0,.32.62c.22.26.39.39.53.39s.34-.13.57-.4a1.11,1.11,0,0,0,.33-.63.5.5,0,0,0-.1-.26l-.23-.36c-.17-.27-.33-.4-.5-.4"/><path class="cls-5" d="M97.85,64.77q0,.18-.42.18H94.37c-.38,0-.38-.14-.38-.19a.93.93,0,0,1,.11-.33l1.82-4c.06-.14.1-.15.1-.15s.12,0,.2.28l1.54,3.88,0,.17h0a.92.92,0,0,1,0,.2m5.06,5.62a2.5,2.5,0,0,1-1.15-.42,4.55,4.55,0,0,1-.72-1.39l-.2-.5-4-10.27c-.08-.21-.18-.31-.3-.31s-.22.11-.31.31l-4.8,10.65-.27.61a4,4,0,0,1-.51.82c-.26.32-.4.41-.48.43l-.35.11a.24.24,0,0,0-.19.24c0,.09,0,.22.3.22l.53,0h.41l1,0,.89.05h.32a.38.38,0,0,0,.27-.07.2.2,0,0,0,0-.13c0-.14-.12-.22-.33-.27a2,2,0,0,1-.84-.32.79.79,0,0,1-.2-.6,4,4,0,0,1,.41-1.38l.61-1.37a2,2,0,0,1,.43-.73,1.78,1.78,0,0,1,.83-.1H97.7c.43,0,.56,0,.6.07s.13.15.29.57l.47,1.23a7.26,7.26,0,0,1,.56,2,.52.52,0,0,1-.43.59l-.28.07c-.23,0-.27.15-.27.24s0,.23.29.23l.29,0a12.58,12.58,0,0,1,1.62-.06c.82,0,1.4,0,1.72,0l.36,0c.24,0,.3-.11.31-.2s-.1-.24-.32-.28"/><path class="cls-5" d="M149.68,67.45a3.66,3.66,0,0,1-.65,2.28,2.18,2.18,0,0,1-1.79.83,2.63,2.63,0,0,1-2.17-1.18,4.87,4.87,0,0,1-.88-2.95,3.42,3.42,0,0,1,.7-2.23,2.31,2.31,0,0,1,1.84-.85,2.53,2.53,0,0,1,2.12,1.14,5,5,0,0,1,.83,3M147,62.88a4.12,4.12,0,0,0-3,1.2A4,4,0,0,0,142.77,67a3.92,3.92,0,0,0,1.16,2.91A4.07,4.07,0,0,0,146.88,71a4.17,4.17,0,0,0,3-1.16,4,4,0,0,0,1.2-3,3.87,3.87,0,0,0-1.22-2.85A4,4,0,0,0,147,62.88"/><path class="cls-5" d="M112.59,70.4l-.4-.06a.78.78,0,0,1-.74-.67l0-.45V66.71a4.49,4.49,0,0,0-.6-2.58,2.8,2.8,0,0,0-2.4-1.25,3.45,3.45,0,0,0-2.54,1.4v-.92c0-.14,0-.25,0-.35a.4.4,0,0,0-.06-.27c-.08-.08-.22-.07-.39,0l-.36.17-.49.25a4.92,4.92,0,0,1-1.2.37c-.18,0-.28.12-.28.23a.18.18,0,0,0,.11.18.35.35,0,0,0,.18,0h.4a.62.62,0,0,1,.55.21,1.72,1.72,0,0,1,.15.87V69.3a1.41,1.41,0,0,1-.15.75,1.17,1.17,0,0,1-.62.4.29.29,0,0,0-.21.22.25.25,0,0,0,0,.15.22.22,0,0,0,.17.06l.38,0c.19,0,.78,0,1.76,0,.47,0,.76,0,.87,0a2.88,2.88,0,0,0,.49.06c.22,0,.26-.14.26-.22s-.12-.23-.35-.25c-.82,0-1.23-.32-1.25-.82l0-.74V65.29a1.24,1.24,0,0,1,.58-1,2.17,2.17,0,0,1,1.35-.45,2.06,2.06,0,0,1,1.66.68,3,3,0,0,1,.59,2V69.7c0,.36-.11.57-.34.62l-.28.08a.22.22,0,0,0-.2.23.18.18,0,0,0,.09.18l.15,0,.27,0h.36l.92,0c.54,0,.92,0,1.12,0a2.44,2.44,0,0,0,.37,0,.38.38,0,0,0,.3-.09.25.25,0,0,0,.06-.17c0-.12-.11-.2-.3-.22"/><path class="cls-5" d="M118.45,69.83l-.07,0-.49.24a2,2,0,0,1-.94.2,1.36,1.36,0,0,1-1-.39,1.76,1.76,0,0,1-.25-1.15V64.11h2.16a.44.44,0,0,0,.45-.3l.22-.54a.75.75,0,0,0,.09-.25.17.17,0,0,0,0-.13.2.2,0,0,0-.11,0,.63.63,0,0,0-.23.12,1,1,0,0,1-.6.15h-1.94l0-1.57c0-.24-.1-.29-.18-.29s-.17,0-.4.43a8.36,8.36,0,0,1-1.66,1.85c-.17.14-.26.27-.26.37s0,.19.29.19h.78v4.65a2,2,0,0,0,2.2,2.28,3.26,3.26,0,0,0,1.39-.36c.51-.25.76-.48.76-.7a.14.14,0,0,0-.16-.15"/><line class="cls-6" x1="60.09" y1="78.12" x2="213.02" y2="78.12"/><g id="_SHP_" data-name="&lt;SHP&gt;"><path class="cls-7" d="M60,95.19c-.07-.36,0-.56.2-.56s.25.22.34.6a3.85,3.85,0,0,0,3.78,2.7c1.71,0,3.39-1,3.39-2.85,0-3.47-7.31-1.53-7.31-6.23,0-2.28,1.92-3.38,4-3.38a6.37,6.37,0,0,1,3,.65c.16,0,.2-.2.38-.2s.19,0,.21.25l.27,2.45c0,.14,0,.27-.2.27s-.32-.38-.37-.54A3.44,3.44,0,0,0,64.27,86c-1.43,0-2.94.68-2.94,2.34,0,3.38,7.31,1.4,7.31,6.37,0,1.52-1.06,3.78-5.15,3.78-1.33,0-3-.66-3-1Z"/><path class="cls-7" d="M63.49,98.55c-1.34,0-3-.67-3.09-1L60,95.2a.63.63,0,0,1,.06-.53.22.22,0,0,1,.19-.09c.25,0,.29.19.35.47a1.36,1.36,0,0,0,0,.17,3.81,3.81,0,0,0,3.73,2.66c1.61,0,3.34-.88,3.34-2.8,0-1.57-1.56-2-3.21-2.49-1.92-.55-4.1-1.17-4.1-3.74,0-2.37,2-3.43,4-3.43a5.72,5.72,0,0,1,2.77.55.8.8,0,0,0,.26.1.21.21,0,0,0,.14-.08.31.31,0,0,1,.24-.12c.15,0,.24.1.26.3l.27,2.44a.28.28,0,0,1,0,.25.26.26,0,0,1-.2.08c-.23,0-.36-.39-.42-.57a3.38,3.38,0,0,0-3.39-2.31c-1.44,0-2.89.71-2.89,2.29s1.44,1.91,3.1,2.39c2,.57,4.21,1.22,4.21,4C68.69,96.49,67.33,98.55,63.49,98.55ZM60.2,94.68a.17.17,0,0,0-.12,0,.63.63,0,0,0,0,.45h0l.45,2.32c.06.29,1.67,1,3,1a5.68,5.68,0,0,0,4.07-1.3,3.39,3.39,0,0,0,1-2.43c0-2.68-2.2-3.32-4.14-3.88-1.63-.48-3.17-.92-3.17-2.49s1.5-2.39,3-2.39a3.46,3.46,0,0,1,3.48,2.37c0,.14.17.51.33.51s.1,0,.12,0a.2.2,0,0,0,0-.17L68,86.18c0-.19-.09-.21-.16-.21a.22.22,0,0,0-.17.09.29.29,0,0,1-.21.11.86.86,0,0,1-.3-.11,5.57,5.57,0,0,0-2.73-.54c-2.72,0-3.94,1.67-3.94,3.33,0,2.49,2,3.08,4,3.65,1.68.48,3.28.94,3.28,2.58a2.58,2.58,0,0,1-1.08,2.17,3.92,3.92,0,0,1-2.36.73,4,4,0,0,1-2.78-1.06,3.81,3.81,0,0,1-1-1.68c0-.06,0-.12,0-.17C60.39,94.78,60.36,94.68,60.2,94.68Z"/><path class="cls-7" d="M69.72,94.69a4.07,4.07,0,0,1,4-4.11c.9,0,2.13.25,2.18.67a10,10,0,0,1,0,1.06c0,.25-.06.38-.15.38s-.37-.34-.43-.42a2.62,2.62,0,0,0-2.23-1.09c-1.53,0-2.13,1.58-2.13,2.88,0,1.94,1.16,3.54,3.19,3.54,1.41,0,2.2-1,2.47-1,0,0,.14,0,.14.11,0,.29-1.08,1.83-3.55,1.83A3.69,3.69,0,0,1,69.72,94.69Z"/><path class="cls-7" d="M73.28,98.55a3.74,3.74,0,0,1-3.61-3.86,4.14,4.14,0,0,1,4.1-4.16c.9,0,2.17.25,2.23.71s0,.65,0,.89v.18c0,.35-.11.43-.2.43s-.34-.25-.44-.39l0,0a2.56,2.56,0,0,0-2.19-1.07c-1.43,0-2.08,1.46-2.08,2.83,0,1.74,1,3.49,3.14,3.49a3.34,3.34,0,0,0,2-.8c.2-.14.33-.24.43-.24s.19.07.19.16C76.88,96.94,75.84,98.55,73.28,98.55Zm.49-7.92a4,4,0,0,0-4,4.06,3.65,3.65,0,0,0,3.51,3.76c2.45,0,3.5-1.54,3.5-1.78,0,0-.06-.06-.09-.06a1,1,0,0,0-.37.22,3.42,3.42,0,0,1-2.1.82c-1.94,0-3.24-1.44-3.24-3.59,0-1.41.68-2.93,2.18-2.93a2.65,2.65,0,0,1,2.27,1.11l0,.06c.07.1.23.34.35.34s.1-.09.1-.33v-.18c0-.24,0-.57,0-.88S74.72,90.63,73.77,90.63Z"/><path class="cls-7" d="M79.82,91.86a3.91,3.91,0,0,1,2.59-1.28c2.3,0,3,2,3,3.55v3c0,.93,1.44.55,1.44,1,0,.2-.16.24-.36.24s-.83-.07-1.51-.07-1.28.07-1.48.07-.29-.06-.29-.2.88-.27.88-.92V94c0-2.24-1.55-2.65-2.18-2.65-.81,0-2.1.7-2.1,1.62v3.8c0,1.55,1.58,1,1.58,1.39s-.09.25-.3.25c-.38,0-1.28-.07-1.84-.07s-1.35.07-1.64.07a.17.17,0,0,1-.18-.18c0-.36,1.06-.16,1.06-1V87c0-1.08-1.38-.61-1.38-1a.18.18,0,0,1,.14-.2c1.32-.25,1.93-.9,2.34-.9.11,0,.22.11.22.29Z"/><path class="cls-7" d="M86.5,98.43l-.49,0c-.28,0-.62,0-1,0s-.87,0-1.15,0l-.33,0c-.23,0-.34-.09-.34-.25s.15-.21.33-.29.55-.27.55-.63V94c0-2.57-2-2.6-2.13-2.6-.81,0-2,.7-2,1.57v3.8c0,1,.7,1.11,1.16,1.17.23,0,.42.06.42.22s-.12.3-.35.3l-.76,0c-.36,0-.78,0-1.08,0s-.73,0-1.06,0l-.58,0a.22.22,0,0,1-.23-.23c0-.18.18-.24.39-.31s.67-.23.67-.74V87c0-.63-.5-.7-.91-.75-.25,0-.47,0-.47-.24a.24.24,0,0,1,.18-.25,5.21,5.21,0,0,0,1.68-.64,1.64,1.64,0,0,1,.67-.26.31.31,0,0,1,.27.34v6.57a3.8,3.8,0,0,1,2.54-1.22,2.72,2.72,0,0,1,2.41,1.22,4.43,4.43,0,0,1,.65,2.38v3c0,.51.46.59.87.67s.57.11.57.33S86.62,98.43,86.5,98.43ZM85,98.26c.4,0,.75,0,1,0l.48,0c.22,0,.31,0,.31-.19s-.19-.17-.49-.23-.95-.18-.95-.77v-3c0-2.58-1.53-3.5-3-3.5a3.84,3.84,0,0,0-2.56,1.27l-.08.08v-6.8c0-.15-.09-.24-.17-.24a1.59,1.59,0,0,0-.62.25,5.66,5.66,0,0,1-1.71.65.13.13,0,0,0-.1.15c0,.09.14.12.39.14s1,.13,1,.85V97.15c0,.58-.42.72-.73.83s-.33.12-.33.22a.12.12,0,0,0,.13.13l.57,0c.33,0,.74,0,1.07,0s.72,0,1.09,0l.75,0c.21,0,.25,0,.25-.2S81.2,98,81,98c-.46-.06-1.24-.17-1.24-1.27v-3.8c0-1,1.31-1.67,2.15-1.67.1,0,2.23,0,2.23,2.7v3.29c0,.43-.35.59-.61.72s-.27.13-.27.2,0,.15.24.15l.33,0C84.11,98.29,84.52,98.26,85,98.26Z"/><path class="cls-7" d="M87.38,94.69a4.06,4.06,0,0,1,4-4.11,3.7,3.7,0,0,1,3.91,4,3.82,3.82,0,0,1-3.89,3.9C89.07,98.5,87.38,97.12,87.38,94.69Zm6.66.18C94,93,93.26,91,91.12,91c-1.76,0-2.48,1.55-2.48,3.08,0,1.76.83,4.07,2.93,4.07C93.08,98.13,94,97.1,94,94.87Z"/><path class="cls-7" d="M91.41,98.55c-2.48,0-4.08-1.51-4.08-3.86a4.12,4.12,0,0,1,4.06-4.16,3.77,3.77,0,0,1,4,4.07A3.86,3.86,0,0,1,91.41,98.55Zm0-7.92a4,4,0,0,0-4,4.06c0,2.29,1.56,3.76,4,3.76a3.76,3.76,0,0,0,3.84-3.85A3.67,3.67,0,0,0,91.39,90.63Zm.18,7.55c-2,0-3-2.14-3-4.12,0-1.45.66-3.13,2.53-3.13a2.61,2.61,0,0,1,2.31,1.27,5.2,5.2,0,0,1,.66,2.67C94.09,97,93.2,98.18,91.57,98.18ZM91.12,91c-1.79,0-2.43,1.63-2.43,3a5.37,5.37,0,0,0,.67,2.67,2.52,2.52,0,0,0,2.21,1.35C93.15,98.08,94,97,94,94.87,94,92,92.51,91,91.12,91Z"/><path class="cls-7" d="M96.2,94.69a4.06,4.06,0,0,1,4-4.11,3.7,3.7,0,0,1,3.91,4,3.82,3.82,0,0,1-3.89,3.9C97.89,98.5,96.2,97.12,96.2,94.69Zm6.66.18c0-1.86-.78-3.89-2.92-3.89-1.76,0-2.48,1.55-2.48,3.08,0,1.76.83,4.07,2.93,4.07C101.9,98.13,102.86,97.1,102.86,94.87Z"/><path class="cls-7" d="M100.23,98.55c-2.48,0-4.08-1.51-4.08-3.86a4.12,4.12,0,0,1,4.06-4.16,3.77,3.77,0,0,1,4,4.07A3.86,3.86,0,0,1,100.23,98.55Zm0-7.92a4,4,0,0,0-4,4.06c0,2.29,1.56,3.76,4,3.76a3.76,3.76,0,0,0,3.84-3.85A3.67,3.67,0,0,0,100.21,90.63Zm.18,7.55c-2,0-3-2.14-3-4.12,0-1.45.66-3.13,2.53-3.13a2.61,2.61,0,0,1,2.31,1.27,5.2,5.2,0,0,1,.66,2.67C102.91,97,102,98.18,100.39,98.18ZM99.94,91c-1.8,0-2.43,1.63-2.43,3a5.37,5.37,0,0,0,.67,2.67,2.52,2.52,0,0,0,2.21,1.35c1.58,0,2.42-1.11,2.42-3.21C102.81,92,101.33,91,99.94,91Z"/><path class="cls-7" d="M107.66,96.92c0,1.24,1.5.72,1.5,1.21,0,.21-.15.25-.42.25s-.81-.07-1.65-.07-1.23.07-1.41.07-.21-.07-.21-.24.88-.21.88-1V87c0-1.08-1.22-.61-1.22-1a.2.2,0,0,1,.16-.2c1.38-.32,1.74-.9,2.16-.9.11,0,.21.11.21.29Z"/><path class="cls-7" d="M108.74,98.43l-.38,0c-.31,0-.73,0-1.27,0s-1,0-1.18,0l-.23,0c-.12,0-.26-.05-.26-.29s.14-.19.3-.27a.75.75,0,0,0,.58-.72V87c0-.63-.44-.7-.8-.75s-.42-.06-.42-.24a.26.26,0,0,1,.2-.25,4.88,4.88,0,0,0,1.58-.66,1.22,1.22,0,0,1,.59-.24c.13,0,.26.13.26.34V96.92c0,.72.54.81,1,.89s.54.09.54.32S109,98.43,108.74,98.43Zm-1.65-.17c.55,0,1,0,1.28,0l.37,0c.29,0,.37,0,.37-.2s-.17-.18-.45-.23c-.44-.07-1-.17-1-1V85.18c0-.15-.08-.24-.16-.24a1.12,1.12,0,0,0-.53.23,5.17,5.17,0,0,1-1.62.67.15.15,0,0,0-.13.15c0,.09.13.11.34.14s.89.13.89.85V97.15a.85.85,0,0,1-.64.81c-.13.06-.24.12-.24.18s.06.19.16.19l.22,0C106.12,98.29,106.48,98.26,107.09,98.26Z"/><path class="cls-7" d="M114.16,94.69a4.07,4.07,0,0,1,4-4.11,3.7,3.7,0,0,1,3.9,4,3.82,3.82,0,0,1-3.89,3.9C115.85,98.5,114.16,97.12,114.16,94.69Zm6.66.18c0-1.86-.77-3.89-2.91-3.89-1.77,0-2.49,1.55-2.49,3.08,0,1.76.83,4.07,2.94,4.07C119.87,98.13,120.82,97.1,120.82,94.87Z"/><path class="cls-7" d="M118.19,98.55c-2.48,0-4.08-1.51-4.08-3.86a4.12,4.12,0,0,1,4.07-4.16,3.76,3.76,0,0,1,3.95,4.07A3.86,3.86,0,0,1,118.19,98.55Zm0-7.92a4,4,0,0,0-4,4.06c0,2.29,1.56,3.76,4,3.76A3.76,3.76,0,0,0,122,94.6,3.67,3.67,0,0,0,118.18,90.63Zm.18,7.55c-2,0-3-2.14-3-4.12,0-1.45.67-3.13,2.54-3.13a2.59,2.59,0,0,1,2.3,1.27,5.1,5.1,0,0,1,.66,2.67C120.87,97,120,98.18,118.36,98.18ZM117.91,91c-1.8,0-2.44,1.63-2.44,3a5.47,5.47,0,0,0,.67,2.67,2.54,2.54,0,0,0,2.22,1.35c1.58,0,2.41-1.11,2.41-3.21C120.77,92,119.29,91,117.91,91Z"/><path class="cls-7" d="M123.9,90.82A7.11,7.11,0,0,1,125,87a4.19,4.19,0,0,1,2.92-1.93c.23,0,.74.07.74.38s-.08,1.28-.27,1.28-.09-.76-1.23-.76c-1,0-1.6,1-1.76,1.86a16.29,16.29,0,0,0-.15,3h1.39a1.09,1.09,0,0,0,.7-.31.14.14,0,0,1,.13.14.63.63,0,0,1-.11.26l-.36.64h-1.75V97c0,1.15,1.28.72,1.28,1.11,0,.22-.23.17-.38.17h-2.79c-.09,0-.28,0-.28-.11,0-.38.86-.16.86-1V91.55h-1.23l.11-.73Z"/><path class="cls-7" d="M126.28,98.36h-3.07a.26.26,0,0,1-.18,0,.15.15,0,0,1,0-.11c0-.19.16-.25.33-.32a.68.68,0,0,0,.53-.71V91.6h-1.23l.12-.83h1.11A7.23,7.23,0,0,1,124.92,87c.32-.51,1.56-1.95,3-1.95.29,0,.79.09.79.43,0,0,0,1.33-.32,1.33-.12,0-.16-.1-.22-.21s-.27-.55-1-.55-1.54.94-1.71,1.82a13.34,13.34,0,0,0-.15,2.54v.37h1.34a.84.84,0,0,0,.6-.25s.07-.06.1-.06a.19.19,0,0,1,.18.19.57.57,0,0,1-.12.28l-.37.67h-1.73V97c0,.68.47.77.85.84s.43.09.43.27a.21.21,0,0,1-.06.16A.28.28,0,0,1,126.28,98.36Zm-3-.1h2.87c.09,0,.18,0,.22,0a.12.12,0,0,0,0-.09c0-.1-.13-.13-.35-.17-.37-.07-.93-.17-.93-.94V91.5h1.77l.35-.62a.73.73,0,0,0,.1-.23s0-.09-.08-.09,0,0,0,0a1,1,0,0,1-.66.27h-1.44V90.4a13.55,13.55,0,0,1,.15-2.56c.18-.92.88-1.9,1.81-1.9s1,.38,1.1.6.08.16.13.16.22-.71.22-1.23c0-.27-.5-.33-.69-.33A4.19,4.19,0,0,0,125,87a7.12,7.12,0,0,0-1,3.78v.05h-1.12l-.1.63H124v5.67a.77.77,0,0,1-.59.8c-.18.07-.28.12-.28.23a.05.05,0,0,0,0,0s.12,0,.17,0Z"/><path class="cls-7" d="M61.4,106.18c0-1.32-1.56-1-1.56-1.35,0-.16.14-.2.29-.2.66,0,1.31.07,2,.07s1.11-.07,1.67-.07c.31,0,.34.11.34.18,0,.36-1.29,0-1.29,1.37v3.89c0,.25,0,.32.27.32h6.59c.18,0,.14-.45.14-.52v-3.69c0-1.24-1.35-.94-1.35-1.35,0-.11,0-.2.31-.2.59,0,1.53.07,1.87.07.66,0,.93-.07,1.3-.07s.5.18.5.29c0,.32-1.21,0-1.21,1.26v9.54c0,1.32,1.64,1,1.64,1.44,0,.06-.07.22-.2.22-.48,0-1-.07-1.69-.07-1.15,0-1.66.07-2,.07-.16,0-.43.05-.43-.24s1.26-.18,1.26-1.31v-4.32c0-.29.07-.45-.14-.45H63c-.21,0-.21.11-.21.3v4.49c0,1.22,1.71.83,1.71,1.38,0,.09-.13.15-.29.15s-1.55-.07-2.5-.07a9.7,9.7,0,0,0-1.55.07c-.15,0-.2-.09-.2-.27,0-.52,1.4.07,1.4-1.71Z"/><path class="cls-7" d="M68.85,117.43a.35.35,0,0,1-.25-.07.29.29,0,0,1-.08-.22c0-.2.21-.27.44-.35s.82-.29.82-1v-4.32a1,1,0,0,1,0-.18c0-.1,0-.17,0-.2a.13.13,0,0,0-.08,0H63c-.16,0-.16,0-.16.25v4.49c0,.69.56.83,1.06,1s.65.16.65.42-.14.2-.34.2l-.54,0c-.53,0-1.33,0-2,0a10.16,10.16,0,0,0-1.48.06H60.2c-.25,0-.25-.24-.25-.32s.2-.28.43-.34c.41-.11,1-.25,1-1.37v-9.22c0-.81-.63-1-1.08-1.06-.27-.06-.48-.11-.48-.29s.06-.25.34-.25.66,0,1,0,.65,0,1,0l.83,0c.27,0,.56,0,.84,0s.39.08.39.23-.18.21-.38.27a1,1,0,0,0-.91,1.1v3.89c0,.25,0,.27.22.27h6.62c.07-.08.06-.34.06-.42v-3.73c0-.75-.5-.9-.9-1-.24-.07-.45-.13-.45-.32s.11-.25.36-.25.78,0,1.17,0l.7,0a8.22,8.22,0,0,0,.84,0,3.55,3.55,0,0,1,.46,0c.37,0,.55.11.55.34s-.17.19-.36.24a.94.94,0,0,0-.85,1v9.54c0,.79.61,1,1.1,1.09.29.08.54.15.54.35s-.09.27-.25.27l-.73,0c-.3,0-.61,0-1,0-.74,0-1.21,0-1.55,0l-.45,0ZM63,111h6.65a.21.21,0,0,1,.15,0c.06.06,0,.15,0,.28a.91.91,0,0,0,0,.17v4.32c0,.74-.51.92-.88,1s-.38.14-.38.26,0,.11,0,.14.16,0,.26,0H69l.44,0c.34,0,.81,0,1.56,0,.35,0,.67,0,1,0l.72,0c.09,0,.15-.13.15-.17s-.18-.17-.47-.25c-.49-.14-1.17-.32-1.17-1.19v-9.54a1,1,0,0,1,.93-1.11c.17,0,.28-.08.28-.15s0-.24-.45-.24a3.4,3.4,0,0,0-.45,0c-.22,0-.47,0-.85,0l-.7,0c-.39,0-.84,0-1.17,0s-.26.08-.26.15.14.16.37.23c.39.12,1,.29,1,1.12v3.72a.77.77,0,0,1-.09.5.13.13,0,0,1-.1,0H63.1c-.31,0-.32-.11-.32-.37v-3.89a1.1,1.1,0,0,1,1-1.2c.19,0,.31-.09.31-.17s0-.13-.29-.13-.56,0-.83,0-.56,0-.84,0-.67,0-1,0-.65,0-1,0-.24.08-.24.15.15.14.41.19c.45.11,1.14.27,1.15,1.16v9.22c0,1.19-.62,1.36-1,1.47-.24.06-.36.1-.36.24s.06.22.15.22h0a10.6,10.6,0,0,1,1.5-.06c.64,0,1.44,0,2,0l.54,0c.13,0,.24,0,.24-.1s-.22-.24-.58-.33-1.13-.28-1.13-1.05v-4.49C62.78,111.17,62.78,111,63,111Z"/><path class="cls-7" d="M75.1,112.75c0,3,1.8,3.85,2.9,3.85,1.55,0,2.14-.93,2.54-.93.07,0,.07.07.07.12,0,.42-1.57,1.71-3.19,1.71a3.7,3.7,0,0,1-3.63-3.69c0-2.3,1.28-4.23,3.53-4.23a3.31,3.31,0,0,1,3.18,2.87c0,.32-.19.3-.61.3Zm3.55-.49c.25,0,.36-.09.36-.36a2.07,2.07,0,0,0-2-1.9,2.23,2.23,0,0,0-1.91,2.26Z"/><path class="cls-7" d="M77.42,117.55a3.76,3.76,0,0,1-3.68-3.74c0-2.52,1.47-4.28,3.58-4.28a3.38,3.38,0,0,1,3.23,2.92.3.3,0,0,1-.08.25c-.1.1-.26.1-.52.1h-4.8c0,1.33.63,3.75,2.85,3.75a3.35,3.35,0,0,0,2-.68,1,1,0,0,1,.52-.25c.12,0,.12.12.12.17C80.66,116.26,79.05,117.55,77.42,117.55Zm-.1-7.92c-2,0-3.48,1.72-3.48,4.18a3.66,3.66,0,0,0,3.58,3.64c1.62,0,3.14-1.28,3.14-1.66,0-.07,0-.07,0-.07a1.1,1.1,0,0,0-.47.23,3.4,3.4,0,0,1-2.07.7,2.8,2.8,0,0,1-1.9-.82,4.31,4.31,0,0,1-1-3.08v0h5c.2,0,.33,0,.39-.07s0-.09,0-.18A3.27,3.27,0,0,0,77.32,109.63Zm1.33,2.68h-3.6v0A2.28,2.28,0,0,1,77,110a2.11,2.11,0,0,1,2,2C79.06,112.19,78.94,112.31,78.65,112.31Zm-3.5-.09h3.5c.23,0,.31-.08.31-.32A2,2,0,0,0,77,110.05,2.18,2.18,0,0,0,75.15,112.22Z"/><path class="cls-7" d="M86.26,111.62a1.63,1.63,0,0,0-1.85-1.57c-.87,0-1.57.09-1.57,1.08,0,.27.11.54.11.74s0,.34-.4.34-.84-.27-.84-.59c0-.83,1-2.09,3-2,1.12,0,2.85.33,2.85,1.86v3.72c0,.62-.16,1.68.77,1.68.07,0,.23,0,.31,0s.23,0,.23.13c0,.38-.79.45-1,.45a1.4,1.4,0,0,1-1.41-.92,4.25,4.25,0,0,1-2.75,1c-1.17,0-2-.43-2-1.71,0-1,.31-2.08,4.52-2.79Zm0,1.82c-1.15.25-3.35.54-3.35,2.12,0,1,.53,1.42,1.48,1.42.65,0,1.87-.5,1.87-1.46Z"/><path class="cls-7" d="M83.69,117.55c-1.34,0-2-.57-2-1.76,0-1,.35-2.13,4.52-2.83v-1.34c0-.91-.72-1.52-1.8-1.52-.83,0-1.52.08-1.52,1a2,2,0,0,0,.06.42,1.25,1.25,0,0,1,0,.32c0,.2,0,.39-.45.39s-.89-.27-.89-.64a1.86,1.86,0,0,1,.64-1.26,3.37,3.37,0,0,1,2.43-.83c.68,0,2.9.14,2.9,1.91v3.72c0,.08,0,.16,0,.25a1.76,1.76,0,0,0,.23,1.2.67.67,0,0,0,.5.18l.15,0,.16,0c.08,0,.28,0,.28.18,0,.49-1.08.5-1.09.5a1.46,1.46,0,0,1-1.43-.89A4.31,4.31,0,0,1,83.69,117.55Zm.72-7.55a1.68,1.68,0,0,1,1.9,1.62v1.43h0c-4.13.69-4.48,1.78-4.48,2.74,0,1.14.61,1.66,1.9,1.66a4.25,4.25,0,0,0,2.72-1l0,0,0,.06a1.34,1.34,0,0,0,1.36.89c.32,0,1-.1,1-.4,0-.06,0-.08-.18-.08l-.15,0-.16,0a.75.75,0,0,1-.57-.21,1.82,1.82,0,0,1-.26-1.28c0-.08,0-.16,0-.24v-3.72c0-1.68-2.14-1.81-2.8-1.81a3.3,3.3,0,0,0-2.37.8,1.82,1.82,0,0,0-.6,1.19c0,.28.49.54.79.54s.35-.13.35-.29a1.17,1.17,0,0,0-.05-.3,2.12,2.12,0,0,1-.06-.44C82.79,110.09,83.56,110,84.41,110Zm0,7c-1,0-1.53-.47-1.53-1.47,0-1.48,1.84-1.85,3-2.1l.34-.07.06,0v2.15C86.31,116.51,85.06,117,84.39,117Zm1.82-3.53-.28.06c-1.18.24-3,.6-3,2,0,1,.44,1.37,1.43,1.37.64,0,1.82-.48,1.82-1.41Z"/><path class="cls-7" d="M92,115.92c0,1.24,1.5.72,1.5,1.21,0,.21-.15.25-.42.25s-.81-.07-1.65-.07-1.23.07-1.41.07-.21-.07-.21-.24.88-.21.88-1V106c0-1.08-1.23-.61-1.23-1a.2.2,0,0,1,.17-.2c1.38-.32,1.74-.9,2.16-.9.11,0,.21.11.21.29Z"/><path class="cls-7" d="M93.08,117.43l-.38,0c-.31,0-.73,0-1.27,0s-1,0-1.18,0l-.23,0c-.12,0-.26-.05-.26-.29s.14-.19.3-.27a.75.75,0,0,0,.58-.72V106c0-.63-.44-.7-.8-.75s-.42-.06-.42-.24a.26.26,0,0,1,.2-.25,5,5,0,0,0,1.58-.66,1.22,1.22,0,0,1,.59-.24c.13,0,.26.13.26.34v11.74c0,.72.54.81,1,.89s.54.09.54.32S93.33,117.43,93.08,117.43Zm-1.65-.17c.55,0,1,0,1.28,0l.37,0c.29,0,.37,0,.37-.2s-.17-.18-.45-.23c-.44-.07-1-.17-1-1V104.18c0-.15-.08-.24-.16-.24a1.19,1.19,0,0,0-.54.23,5,5,0,0,1-1.61.67.15.15,0,0,0-.13.15c0,.09.13.11.34.14.36.05.89.13.89.85v10.17a.85.85,0,0,1-.64.81c-.13.06-.24.12-.24.18s.06.19.16.19l.22,0C90.46,117.29,90.82,117.26,91.43,117.26Z"/><path class="cls-7" d="M95.19,110.55c-.85,0-1,0-1-.12s.45-.45,1.36-1.46c.37-.43.55-.83.69-.83s.23.38.23,1.68h2a1.17,1.17,0,0,0,.71-.31.13.13,0,0,1,.12.14.52.52,0,0,1-.11.26l-.36.64H96.5v5.24a1.1,1.1,0,0,0,1.26,1.08c1,0,1.23-.41,1.53-.41.08,0,.15,0,.15.16s-1,.88-2.23.88c-.83,0-2-.23-2-2.08Z"/><path class="cls-7" d="M97.21,117.55a1.86,1.86,0,0,1-2.07-2.13V110.6c-.86,0-1,0-1-.17s.11-.21.39-.48.55-.54,1-1c.14-.17.25-.34.35-.47s.26-.38.37-.38.23.18.25.35a10.48,10.48,0,0,1,0,1.13v.2h1.93a.84.84,0,0,0,.6-.25s.07-.06.11-.06a.18.18,0,0,1,.17.19.66.66,0,0,1-.11.28l-.38.67H96.55v5.19a1.05,1.05,0,0,0,1.21,1,2.3,2.3,0,0,0,1.16-.28.87.87,0,0,1,.37-.13s.2,0,.2.21S98.5,117.55,97.21,117.55Zm-.94-9.36c-.06,0-.17.16-.29.34s-.21.3-.36.47c-.44.48-.77.81-1,1s-.36.34-.36.4.16.07.92.07h0v4.92c0,1.37.64,2,2,2s2.18-.59,2.18-.83,0-.11-.1-.11a.71.71,0,0,0-.32.12,2.45,2.45,0,0,1-1.21.29,1.16,1.16,0,0,1-1.31-1.12v-5.3h2.36l.35-.62a.55.55,0,0,0,.1-.23s0-.09-.07-.09l0,0a1,1,0,0,1-.67.27h-2v-.3c0-.54,0-.9,0-1.12S96.33,108.19,96.27,108.19Z"/><path class="cls-7" d="M102.26,110.86a4,4,0,0,1,2.6-1.28c2.3,0,3,2,3,3.55v3c0,.93,1.44.55,1.44,1,0,.2-.16.24-.36.24s-.82-.07-1.51-.07-1.28.07-1.48.07-.28-.06-.28-.2.88-.27.88-.92V113c0-2.24-1.55-2.65-2.18-2.65-.81,0-2.11.7-2.11,1.62v3.8c0,1.55,1.59,1,1.59,1.39s-.09.25-.31.25c-.38,0-1.28-.07-1.83-.07s-1.36.07-1.64.07a.17.17,0,0,1-.18-.18c0-.36,1.06-.16,1.06-1V106c0-1.08-1.39-.61-1.39-1a.19.19,0,0,1,.15-.2c1.31-.25,1.92-.9,2.34-.9.11,0,.21.11.21.29Z"/><path class="cls-7" d="M108.94,117.43l-.49,0c-.27,0-.62,0-1,0s-.87,0-1.14,0l-.34,0c-.22,0-.33-.09-.33-.25s.15-.21.33-.29.55-.27.55-.63V113c0-2.57-2-2.6-2.13-2.6-.81,0-2.06.7-2.06,1.57v3.8c0,1,.7,1.11,1.16,1.17.24,0,.43.06.43.22s-.13.3-.36.3l-.75,0c-.37,0-.78,0-1.08,0s-.74,0-1.07,0l-.57,0a.22.22,0,0,1-.23-.23c0-.18.18-.24.39-.31s.67-.23.67-.74V106c0-.63-.51-.7-.91-.75s-.48,0-.48-.24a.24.24,0,0,1,.19-.25,5.41,5.41,0,0,0,1.68-.64,1.59,1.59,0,0,1,.67-.26c.13,0,.26.13.26.34v6.57a3.82,3.82,0,0,1,2.55-1.22,2.72,2.72,0,0,1,2.41,1.22,4.41,4.41,0,0,1,.64,2.38v3c0,.51.47.59.88.67s.56.11.56.33S109.07,117.43,108.94,117.43Zm-1.51-.17c.41,0,.75,0,1,0l.48,0c.23,0,.31,0,.31-.19s-.18-.17-.48-.23-1-.18-1-.77v-3c0-2.58-1.52-3.5-3-3.5a3.82,3.82,0,0,0-2.56,1.27l-.09.08v-6.8c0-.15-.08-.24-.16-.24a1.62,1.62,0,0,0-.63.25,5.58,5.58,0,0,1-1.7.65.14.14,0,0,0-.11.15c0,.09.15.12.39.14.4.05,1,.13,1,.85v10.17c0,.58-.43.72-.74.83s-.32.12-.32.22a.12.12,0,0,0,.13.13l.57,0c.33,0,.74,0,1.07,0s.72,0,1.08,0l.75,0c.21,0,.26,0,.26-.2s-.16-.09-.34-.12c-.47-.06-1.25-.17-1.25-1.27v-3.8c0-1,1.31-1.67,2.16-1.67.09,0,2.23,0,2.23,2.7v3.29c0,.43-.35.59-.61.72s-.27.13-.27.2,0,.15.23.15l.33,0C106.56,117.29,107,117.26,107.43,117.26Z"/><path class="cls-7" d="M117.19,114.89c0,2.6,1.89,1.66,1.89,2.27,0,.13-.08.22-.53.22-.61,0-.88-.07-1.94-.07-.85,0-1.44.07-2,.07-.11,0-.29-.06-.29-.22,0-.48,1.4.07,1.4-1.92v-8.63c0-2.16-1.47-1.06-1.47-1.71a.25.25,0,0,1,.23-.27c.16,0,.79.07,1.84.07s1.19-.07,2-.07c2.29,0,4.83.79,4.83,3.48,0,.72-.54,3.45-4.38,3.45-.18,0-1.22-.09-1.22-.41,0-.13.09-.16.18-.16a9.48,9.48,0,0,0,1.17.1c1.83,0,2.91-.88,2.91-2.5,0-2.18-1.67-3.33-3.74-3.33-.58,0-1,0-1,.54Z"/><path class="cls-7" d="M118.55,117.43c-.26,0-.46,0-.69,0s-.65,0-1.25,0-.87,0-1.21,0l-.75,0c-.14,0-.34-.07-.34-.27s.18-.25.39-.32c.4-.12,1-.3,1-1.6v-8.63c0-1.35-.58-1.38-1-1.41-.24,0-.47,0-.47-.3a.3.3,0,0,1,.28-.32h.25c.29,0,.84.06,1.59.06.45,0,.75,0,1,0s.58,0,1,0c1.47,0,4.88.34,4.88,3.53a3.54,3.54,0,0,1-.77,2,4.4,4.4,0,0,1-3.66,1.47s-1.27,0-1.27-.46a.2.2,0,0,1,.23-.21l.22,0a4.89,4.89,0,0,0,.95.08c1.82,0,2.86-.89,2.86-2.45,0-2-1.45-3.28-3.69-3.28-.62,0-.92,0-.92.49v9.09c0,1.71.82,1.85,1.37,1.94.28,0,.52.09.52.33S119,117.43,118.55,117.43Zm-1.94-.17c.6,0,1,0,1.25,0s.43,0,.69,0c.48,0,.48-.1.48-.17s-.15-.18-.44-.23c-.54-.09-1.45-.25-1.45-2V105.8c0-.59.45-.59,1-.59,2.3,0,3.79,1.33,3.79,3.38,0,1.62-1.08,2.55-3,2.55a6.16,6.16,0,0,1-1-.08l-.2,0c-.13,0-.13.08-.13.11,0,.25.9.36,1.17.36a4.32,4.32,0,0,0,3.59-1.44,3.43,3.43,0,0,0,.74-2c0-3.1-3.34-3.43-4.78-3.43-.43,0-.7,0-1,0s-.6,0-1,0c-.75,0-1.3,0-1.59-.06h-.25a.2.2,0,0,0-.18.22c0,.17.12.19.37.2.44,0,1.1.07,1.1,1.51v8.63c0,1.37-.65,1.57-1.08,1.7-.21.07-.32.1-.32.22s.17.17.24.17l.74,0C115.74,117.28,116.13,117.26,116.61,117.26Z"/><path class="cls-7" d="M126.35,115.79c0,1.68,1.6.81,1.6,1.39,0,.16-.09.2-.29.2s-.68-.07-1.69-.07a15.44,15.44,0,0,0-1.66.07c-.14,0-.2-.06-.2-.16,0-.38.92-.31.92-1v-4.64c0-1.08-1.29-.62-1.29-1,0-.11.14-.18.23-.2,1.39-.33,1.75-.9,2.16-.9.11,0,.22.11.22.29v1.35h0c.38-.53,1-1.5,1.79-1.5.37,0,1.18.47,1.18.81s-.43.81-.64.81-.54-.41-1.19-.41a1.33,1.33,0,0,0-1.17,1.06Z"/><path class="cls-7" d="M127.66,117.43l-.33,0c-.27,0-.69,0-1.36,0a13.69,13.69,0,0,0-1.51.06h-.15c-.16,0-.25-.07-.25-.21s.19-.28.38-.38.54-.27.54-.67v-4.64c0-.64-.47-.7-.85-.75s-.44-.06-.44-.24.16-.23.27-.25a5,5,0,0,0,1.59-.66,1.2,1.2,0,0,1,.58-.24.3.3,0,0,1,.27.34V111l0,0c.4-.57,1-1.42,1.75-1.42.39,0,1.23.48,1.23.86s-.45.86-.69.86a.79.79,0,0,1-.43-.16,1.17,1.17,0,0,0-1.88.76v3.94c0,1,.59,1.06,1.06,1.09.28,0,.54,0,.54.3S127.83,117.43,127.66,117.43Zm-1.69-.17c.67,0,1.09,0,1.37,0,.48,0,.56,0,.56-.13s-.15-.18-.45-.2c-.46,0-1.15-.08-1.15-1.19v-3.94a1.27,1.27,0,0,1,2-.85.71.71,0,0,0,.38.15c.17,0,.59-.5.59-.76s-.76-.76-1.13-.76c-.69,0-1.3.86-1.67,1.37l-.09.13h-.11v-1.4c0-.15-.09-.24-.17-.24a1.1,1.1,0,0,0-.53.23,5.3,5.3,0,0,1-1.62.67c-.08,0-.19.08-.19.15s.13.11.36.14.93.12.93.85v4.64c0,.46-.33.63-.6.76s-.32.17-.32.29,0,.11.15.11h.14A14,14,0,0,1,126,117.26Z"/><path class="cls-7" d="M129.78,113.69a4.07,4.07,0,0,1,4-4.11,3.7,3.7,0,0,1,3.91,4,3.82,3.82,0,0,1-3.89,3.9C131.48,117.5,129.78,116.12,129.78,113.69Zm6.67.18c0-1.86-.78-3.89-2.92-3.89-1.77,0-2.49,1.55-2.49,3.08,0,1.76.83,4.07,2.94,4.07C135.49,117.13,136.45,116.1,136.45,113.87Z"/><path class="cls-7" d="M133.82,117.55c-2.48,0-4.09-1.51-4.09-3.86a4.13,4.13,0,0,1,4.07-4.16,3.77,3.77,0,0,1,4,4.07A3.86,3.86,0,0,1,133.82,117.55Zm0-7.92a4,4,0,0,0-4,4.06c0,2.29,1.57,3.76,4,3.76a3.76,3.76,0,0,0,3.84-3.85A3.67,3.67,0,0,0,133.8,109.63Zm.18,7.55c-2,0-3-2.14-3-4.12,0-1.45.66-3.13,2.53-3.13a2.59,2.59,0,0,1,2.3,1.27,5.1,5.1,0,0,1,.67,2.67C136.5,116,135.6,117.18,134,117.18Zm-.45-7.15c-1.8,0-2.44,1.63-2.44,3a5.37,5.37,0,0,0,.68,2.67,2.52,2.52,0,0,0,2.21,1.35c1.58,0,2.42-1.11,2.42-3.21C136.4,111,134.92,110,133.53,110Z"/><path class="cls-7" d="M139.52,109.82a7.2,7.2,0,0,1,1.06-3.8,4.19,4.19,0,0,1,2.92-1.93c.24,0,.74.07.74.38s-.07,1.28-.27,1.28-.09-.76-1.22-.76c-1,0-1.61,1-1.77,1.86a16.3,16.3,0,0,0-.14,3h1.38a1.17,1.17,0,0,0,.71-.31.13.13,0,0,1,.12.14.52.52,0,0,1-.11.26l-.36.64h-1.74V116c0,1.15,1.28.72,1.28,1.11,0,.22-.24.17-.38.17H139c-.09,0-.29,0-.29-.11,0-.38.86-.16.86-1v-5.62H138.3l.11-.73Z"/><path class="cls-7" d="M141.9,117.36h-3.07a.29.29,0,0,1-.18,0,.15.15,0,0,1,0-.11c0-.19.16-.25.33-.32a.68.68,0,0,0,.53-.71V110.6h-1.23l.12-.83h1.11a7.23,7.23,0,0,1,1.07-3.78c.33-.51,1.56-1.95,3-1.95.29,0,.79.09.79.43,0,0,0,1.33-.32,1.33-.11,0-.16-.1-.22-.21s-.26-.55-1-.55-1.55.94-1.72,1.82a13.35,13.35,0,0,0-.14,2.54v.37h1.33a.84.84,0,0,0,.6-.25c.05,0,.07-.06.11-.06a.18.18,0,0,1,.17.19.66.66,0,0,1-.11.28l-.38.67h-1.72V116c0,.68.46.77.84.84s.44.09.44.27a.21.21,0,0,1-.06.16A.31.31,0,0,1,141.9,117.36Zm-3-.1h2.87c.08,0,.18,0,.22,0a.12.12,0,0,0,0-.09c0-.1-.13-.13-.36-.17s-.92-.17-.92-.94V110.5h1.76l.35-.62a.55.55,0,0,0,.1-.23s0-.09-.07-.09l0,0a1,1,0,0,1-.67.27h-1.43v-.47a13.56,13.56,0,0,1,.14-2.56c.18-.92.88-1.9,1.82-1.9s1,.38,1.09.6.08.16.13.16.22-.71.22-1.23c0-.27-.5-.33-.69-.33-1.35,0-2.56,1.41-2.87,1.9a7.13,7.13,0,0,0-1.06,3.78v.05h-1.12l-.09.63h1.21v5.67a.77.77,0,0,1-.59.8c-.17.07-.27.12-.27.23s0,0,0,0,.12,0,.18,0Z"/><path class="cls-7" d="M144.8,112.75c0,3,1.8,3.85,2.9,3.85,1.54,0,2.14-.93,2.53-.93.08,0,.08.07.08.12,0,.42-1.57,1.71-3.19,1.71a3.71,3.71,0,0,1-3.64-3.69c0-2.3,1.28-4.23,3.53-4.23a3.31,3.31,0,0,1,3.19,2.87c0,.32-.2.3-.61.3Zm3.54-.49c.26,0,.36-.09.36-.36a2.06,2.06,0,0,0-2-1.9,2.23,2.23,0,0,0-1.91,2.26Z"/><path class="cls-7" d="M147.12,117.55a3.76,3.76,0,0,1-3.69-3.74c0-2.52,1.47-4.28,3.58-4.28a3.39,3.39,0,0,1,3.24,2.92.34.34,0,0,1-.08.25c-.1.1-.27.1-.52.1h-4.8c0,1.33.62,3.75,2.85,3.75a3.32,3.32,0,0,0,2-.68,1.09,1.09,0,0,1,.52-.25c.13,0,.13.13.13.17C150.36,116.26,148.75,117.55,147.12,117.55Zm-.11-7.92c-2,0-3.48,1.72-3.48,4.18a3.67,3.67,0,0,0,3.59,3.64c1.62,0,3.14-1.28,3.14-1.66,0-.07,0-.07,0-.07a1.07,1.07,0,0,0-.46.23,3.4,3.4,0,0,1-2.07.7,2.76,2.76,0,0,1-1.9-.82,4.27,4.27,0,0,1-1.05-3.08v0h4.9c.23,0,.38,0,.45-.07a.26.26,0,0,0,.05-.18A3.28,3.28,0,0,0,147,109.63Zm1.33,2.68h-3.59v0a2.28,2.28,0,0,1,2-2.31,2.1,2.1,0,0,1,2,2C148.75,112.19,148.63,112.31,148.34,112.31Zm-3.49-.09h3.49c.24,0,.31-.08.31-.32a2,2,0,0,0-1.94-1.85A2.17,2.17,0,0,0,144.85,112.22Z"/><path class="cls-7" d="M151.42,111.74a2.18,2.18,0,0,1,2.43-2.16,3.94,3.94,0,0,1,1.77.42,2.67,2.67,0,0,1,.09.88c0,.48.07.7-.2.7s-.34-1.57-2-1.57a1.15,1.15,0,0,0-1.26,1.16c0,.59.46,1,2.36,1.73a2,2,0,0,1,1.49,2.14,2.46,2.46,0,0,1-2.43,2.46c-1.26,0-1.59-.52-2-.52s-.39,0-.39-1.44c0-.3-.06-.88.21-.88s.2,2.38,2.15,2.38a1.47,1.47,0,0,0,1.6-1.48c0-1-.92-1.24-1.64-1.58C152.63,113.49,151.42,113,151.42,111.74Z"/><path class="cls-7" d="M153.69,117.55a3.16,3.16,0,0,1-1.55-.36,1.09,1.09,0,0,0-.47-.16c-.44,0-.44,0-.44-1.49a.62.62,0,0,0,0-.13c0-.27,0-.6.12-.74a.2.2,0,0,1,.15-.06c.16,0,.23.23.33.58.2.72.51,1.8,1.82,1.8a1.41,1.41,0,0,0,1.55-1.43c0-.81-.69-1.12-1.35-1.42l-.26-.12-.26-.13c-.91-.44-1.95-1-1.95-2.15a2.21,2.21,0,0,1,2.48-2.21c.29,0,1.57.14,1.8.44a1.93,1.93,0,0,1,.11.86v.3c0,.22,0,.36-.06.44a.29.29,0,0,1-.19.06c-.08,0-.12-.1-.2-.27a1.84,1.84,0,0,0-1.78-1.3,1.1,1.1,0,0,0-1.21,1.11c0,.58.52,1,2.32,1.68a2.1,2.1,0,0,1,1.53,2.19A2.49,2.49,0,0,1,153.69,117.55Zm-2.2-2.84a.09.09,0,0,0-.07,0c-.11.11-.1.43-.1.66a.71.71,0,0,1,0,.14c0,1.39,0,1.39.34,1.39a1.23,1.23,0,0,1,.51.17,3.09,3.09,0,0,0,1.51.35,2.4,2.4,0,0,0,2.38-2.41,2,2,0,0,0-1.46-2.1c-1.88-.75-2.39-1.13-2.39-1.77a1.19,1.19,0,0,1,1.31-1.21,2,2,0,0,1,1.87,1.36.91.91,0,0,0,.11.21.15.15,0,0,0,.11,0s0-.18,0-.37v-.3a2.14,2.14,0,0,0-.08-.8,3.94,3.94,0,0,0-1.73-.4,2.13,2.13,0,0,0-2.38,2.11c0,1.14,1,1.61,1.9,2.06l.25.13.26.12c.66.3,1.41.64,1.41,1.51a1.53,1.53,0,0,1-1.65,1.53c-1.38,0-1.72-1.17-1.92-1.87C151.65,115,151.58,114.71,151.49,114.71Z"/><path class="cls-7" d="M157.23,111.74a2.18,2.18,0,0,1,2.43-2.16,3.94,3.94,0,0,1,1.77.42,2.43,2.43,0,0,1,.09.88c0,.48.07.7-.2.7s-.34-1.57-2-1.57a1.15,1.15,0,0,0-1.26,1.16c0,.59.47,1,2.36,1.73a2,2,0,0,1,1.49,2.14,2.46,2.46,0,0,1-2.43,2.46c-1.26,0-1.58-.52-2-.52s-.4,0-.4-1.44c0-.3-.05-.88.22-.88s.19,2.38,2.14,2.38a1.47,1.47,0,0,0,1.6-1.48c0-1-.92-1.24-1.64-1.58C158.44,113.49,157.23,113,157.23,111.74Z"/><path class="cls-7" d="M159.5,117.55a3.23,3.23,0,0,1-1.55-.36,1.1,1.1,0,0,0-.46-.16c-.45,0-.45,0-.45-1.49v-.13c0-.27,0-.6.12-.74a.2.2,0,0,1,.15-.06c.16,0,.22.23.32.58.21.72.52,1.8,1.82,1.8a1.41,1.41,0,0,0,1.55-1.43c0-.81-.69-1.12-1.35-1.42l-.26-.12-.26-.13c-.91-.44-1.95-1-1.95-2.15a2.21,2.21,0,0,1,2.48-2.21c.29,0,1.57.14,1.81.44a2.13,2.13,0,0,1,.1.86v.3c0,.22,0,.36-.06.44a.25.25,0,0,1-.19.06c-.08,0-.12-.1-.2-.27a1.83,1.83,0,0,0-1.78-1.3,1.11,1.11,0,0,0-1.21,1.11c0,.58.52,1,2.33,1.68A2.09,2.09,0,0,1,162,115,2.49,2.49,0,0,1,159.5,117.55Zm-2.19-2.84a.1.1,0,0,0-.08,0,1.19,1.19,0,0,0-.09.66v.14c0,1.39,0,1.39.35,1.39a1.23,1.23,0,0,1,.51.17,3,3,0,0,0,1.5.35,2.4,2.4,0,0,0,2.38-2.41,2,2,0,0,0-1.46-2.1c-1.88-.75-2.39-1.13-2.39-1.77a1.2,1.2,0,0,1,1.31-1.21,2,2,0,0,1,1.87,1.36c0,.09.09.2.12.21a.18.18,0,0,0,.11,0,.71.71,0,0,0,0-.37v-.3a1.93,1.93,0,0,0-.08-.8,3.87,3.87,0,0,0-1.73-.4,2.14,2.14,0,0,0-2.38,2.11c0,1.14,1,1.61,1.9,2.06l.26.13.25.12c.66.3,1.41.64,1.41,1.51a1.53,1.53,0,0,1-1.65,1.53c-1.38,0-1.71-1.17-1.91-1.87C157.46,115,157.39,114.71,157.31,114.71Z"/><path class="cls-7" d="M164.24,111.53c0-1.08-1-.62-1-1a.2.2,0,0,1,.16-.2c1.15-.33,1.51-.9,1.92-.9.11,0,.22.11.22.29v6.46c0,.92,1.42.52,1.42,1,0,.14-.1.2-.34.2s-.94-.07-1.67-.07-1.05.07-1.25.07-.25,0-.27-.2c0-.45.8.23.8-1.4Zm1.4-4.7c0,.21-.52.93-.76.93s-.75-.73-.75-.93.54-1,.75-1S165.64,106.61,165.64,106.83Z"/><path class="cls-7" d="M166.63,117.43l-.57,0c-.3,0-.67,0-1.1,0a7.57,7.57,0,0,0-.92,0l-.33,0c-.11,0-.29,0-.32-.24s.13-.23.26-.26.54-.12.54-1.15v-4.25c0-.64-.36-.7-.64-.75s-.35-.06-.35-.24a.24.24,0,0,1,.2-.25,4.51,4.51,0,0,0,1.32-.63,1.18,1.18,0,0,1,.61-.27c.14,0,.27.12.27.34v6.46c0,.49.45.58.85.65s.57.1.57.34S166.81,117.43,166.63,117.43Zm-1.67-.17c.43,0,.8,0,1.11,0l.56,0c.27,0,.29-.08.29-.15s-.18-.19-.49-.24-.93-.17-.93-.75v-6.46c0-.15-.08-.24-.17-.24a1.19,1.19,0,0,0-.56.26,4.73,4.73,0,0,1-1.35.64.14.14,0,0,0-.12.15c0,.09.07.11.26.14a.74.74,0,0,1,.73.85v4.25c0,1.11-.37,1.19-.62,1.25s-.18,0-.18.15.07.15.22.15l.32,0C164.27,117.29,164.59,117.26,165,117.26Zm-.08-9.45c-.25,0-.8-.77-.8-1s.55-1,.8-1,.81.77.81,1S165.16,107.81,164.88,107.81Zm0-1.89c-.17,0-.7.73-.7.91s.52.88.7.88.71-.68.71-.88S165.08,105.92,164.88,105.92Z"/><path class="cls-7" d="M167.69,113.69a4.07,4.07,0,0,1,4-4.11,3.7,3.7,0,0,1,3.9,4,3.81,3.81,0,0,1-3.88,3.9C169.38,117.5,167.69,116.12,167.69,113.69Zm6.66.18c0-1.86-.77-3.89-2.91-3.89-1.77,0-2.49,1.55-2.49,3.08,0,1.76.83,4.07,2.94,4.07C173.4,117.13,174.35,116.1,174.35,113.87Z"/><path class="cls-7" d="M171.73,117.55c-2.49,0-4.09-1.51-4.09-3.86a4.13,4.13,0,0,1,4.07-4.16,3.76,3.76,0,0,1,3.95,4.07A3.85,3.85,0,0,1,171.73,117.55Zm0-7.92a4,4,0,0,0-4,4.06c0,2.29,1.57,3.76,4,3.76a3.75,3.75,0,0,0,3.83-3.85A3.67,3.67,0,0,0,171.71,109.63Zm.18,7.55c-2,0-3-2.14-3-4.12,0-1.45.67-3.13,2.54-3.13a2.59,2.59,0,0,1,2.3,1.27,5.1,5.1,0,0,1,.66,2.67C174.4,116,173.51,117.18,171.89,117.18Zm-.45-7.15c-1.8,0-2.44,1.63-2.44,3a5.47,5.47,0,0,0,.67,2.67,2.54,2.54,0,0,0,2.22,1.35c1.58,0,2.41-1.11,2.41-3.21C174.3,111,172.82,110,171.44,110Z"/><path class="cls-7" d="M178.87,115.92c0,1.24,1.59.72,1.59,1.21,0,.21-.13.25-.4.25s-.67-.07-1.71-.07-1.32.07-1.53.07-.33,0-.33-.22c0-.36,1.07,0,1.07-1.17v-4.46c0-1.08-1.34-.62-1.34-1a.2.2,0,0,1,.17-.2c1.49-.33,1.85-.9,2.26-.9.11,0,.22.11.22.29v1.18a3.93,3.93,0,0,1,2.61-1.33c2.41,0,2.94,2,2.94,3.37v3c0,1.24,1.4.72,1.4,1.21,0,.21-.13.25-.31.25s-.68-.07-1.56-.07c-.69,0-1.06.07-1.3.07s-.32,0-.32-.22c0-.36.77,0,.77-1.17v-3.36a2.19,2.19,0,0,0-2.1-2.26,2,2,0,0,0-2.13,1.41Z"/><path class="cls-7" d="M185.51,117.43l-.32,0c-.26,0-.66,0-1.24,0a7.64,7.64,0,0,0-1,0l-.33,0c-.2,0-.37,0-.37-.27s.13-.21.26-.26.51-.19.51-.91v-3.36a2.15,2.15,0,0,0-2.05-2.21,2.35,2.35,0,0,0-1.72.69,1.17,1.17,0,0,0-.36.67v4.14c0,.72.57.81,1,.89s.56.09.56.32-.2.3-.44.3l-.37,0c-.28,0-.67,0-1.34,0s-1,0-1.26,0l-.27,0c-.21,0-.38,0-.38-.27s.17-.21.35-.26a.8.8,0,0,0,.72-.91v-4.46c0-.64-.49-.7-.88-.75-.24,0-.46-.06-.46-.24a.24.24,0,0,1,.21-.25,5.12,5.12,0,0,0,1.7-.67,1.17,1.17,0,0,1,.57-.23c.14,0,.27.12.27.34v1.1l0,0a3.45,3.45,0,0,1,2.52-1.25,2.67,2.67,0,0,1,2.42,1.2,4.31,4.31,0,0,1,.57,2.22v3c0,.72.49.81.9.89.26,0,.5.09.5.32S185.69,117.43,185.51,117.43Zm-1.56-.17c.58,0,1,0,1.25,0l.31,0c.2,0,.26,0,.26-.2s-.15-.18-.42-.23-1-.17-1-1v-3c0-1-.29-3.32-2.89-3.32a3.35,3.35,0,0,0-2.44,1.22c-.12.12-.14.15-.19.13a.07.07,0,0,1,0-.07v-1.18c0-.15-.08-.24-.17-.24a1.14,1.14,0,0,0-.52.21,5.27,5.27,0,0,1-1.73.69.14.14,0,0,0-.13.15c0,.09.15.11.38.14s1,.12,1,.85V116a.91.91,0,0,1-.79,1c-.18,0-.28.08-.28.16s0,.17.28.17l.26,0c.25,0,.62,0,1.27,0s1.06,0,1.34,0l.37,0c.28,0,.35,0,.35-.2s-.19-.18-.49-.23c-.46-.07-1.1-.17-1.1-1v-4.14a1.25,1.25,0,0,1,.39-.74,2.42,2.42,0,0,1,1.79-.72,2.25,2.25,0,0,1,2.15,2.31V116c0,.79-.35.92-.58,1s-.19.07-.19.16,0,.17.27.17l.32,0C183.2,117.29,183.51,117.26,184,117.26Z"/><path class="cls-7" d="M186.52,111.74a2.18,2.18,0,0,1,2.43-2.16,3.94,3.94,0,0,1,1.77.42,2.67,2.67,0,0,1,.09.88c0,.48.07.7-.2.7s-.34-1.57-2-1.57a1.15,1.15,0,0,0-1.26,1.16c0,.59.46,1,2.36,1.73a2,2,0,0,1,1.49,2.14,2.46,2.46,0,0,1-2.43,2.46c-1.26,0-1.59-.52-2-.52s-.39,0-.39-1.44c0-.3-.06-.88.21-.88s.2,2.38,2.14,2.38a1.47,1.47,0,0,0,1.61-1.48c0-1-.92-1.24-1.64-1.58C187.73,113.49,186.52,113,186.52,111.74Z"/><path class="cls-7" d="M188.79,117.55a3.16,3.16,0,0,1-1.55-.36,1.09,1.09,0,0,0-.47-.16c-.44,0-.44,0-.44-1.49a.62.62,0,0,0,0-.13c0-.27,0-.6.12-.74a.2.2,0,0,1,.15-.06c.16,0,.23.23.33.58.2.72.51,1.8,1.81,1.8a1.42,1.42,0,0,0,1.56-1.43c0-.81-.69-1.12-1.35-1.42l-.26-.12-.26-.13c-.91-.44-1.95-1-1.95-2.15a2.21,2.21,0,0,1,2.48-2.21c.29,0,1.57.14,1.8.44a1.93,1.93,0,0,1,.11.86v0c0,.09,0,.18,0,.25,0,.22,0,.36-.07.44a.24.24,0,0,1-.18.06c-.08,0-.12-.1-.2-.27a1.85,1.85,0,0,0-1.78-1.3,1.1,1.1,0,0,0-1.21,1.11c0,.58.52,1,2.32,1.68a2.1,2.1,0,0,1,1.53,2.19A2.49,2.49,0,0,1,188.79,117.55Zm-2.2-2.84a.09.09,0,0,0-.07,0c-.11.11-.1.43-.1.66,0,0,0,.1,0,.14,0,1.39,0,1.39.34,1.39a1.23,1.23,0,0,1,.51.17,3.09,3.09,0,0,0,1.51.35,2.4,2.4,0,0,0,2.38-2.41,2,2,0,0,0-1.46-2.1c-1.88-.75-2.39-1.13-2.39-1.77a1.19,1.19,0,0,1,1.31-1.21,2,2,0,0,1,1.87,1.36.91.91,0,0,0,.11.21.15.15,0,0,0,.11,0c.05,0,.05-.18,0-.37v-.3a2.14,2.14,0,0,0-.08-.8,3.94,3.94,0,0,0-1.73-.4,2.13,2.13,0,0,0-2.38,2.11c0,1.14,1,1.61,1.89,2.06l.26.13.26.12c.66.3,1.41.64,1.41,1.51a1.53,1.53,0,0,1-1.66,1.53c-1.37,0-1.71-1.17-1.91-1.87C186.75,115,186.68,114.71,186.59,114.71Z"/></g></g></g></g></svg>