<svg xmlns="http://www.w3.org/2000/svg" viewBox="0 0 216.1 121.53"><defs><style>.cls-1{fill:#bc4700;}.cls-2{fill:#d65f00;}.cls-3{fill:#fff;}.cls-4{fill:#fbceb0;}.cls-5{fill:#231f20;}.cls-6{fill:none;stroke:#bc4700;}.cls-7{fill:#7a6569;}</style></defs><g id="Layer_2" data-name="Layer 2"><g id="artwork"><g id="_PMS_" data-name="&lt;PMS&gt;"><g id="_Shield_" data-name="&lt;Shield&gt;"><path class="cls-1" d="M.05,20.52H50.37V12.85h-6.3V10.37H42.58a11.9,11.9,0,0,1-5.71-1.32C34.45,7.61,34,6.25,34,6.25v-2H30.76a5.46,5.46,0,0,0-10.65,0H16.82v2s-.46,1.37-2.88,2.8a11.88,11.88,0,0,1-5.71,1.32H6.3v2.48H0V20.5"/><path class="cls-1" d="M0,37.05A47.37,47.37,0,0,0,1.57,48,34.83,34.83,0,0,0,11.69,65.27,67.85,67.85,0,0,0,24.9,74.33a.67.67,0,0,0,.55,0,90.28,90.28,0,0,0,9.42-5.93A35.09,35.09,0,0,0,48.12,50.05a55.06,55.06,0,0,0,2.26-16.28c0-2.89,0-7.93,0-10.82H0c0,4,0,10.12,0,14.1m21.5,3.41L25.2,29.19l3.66,11.27H40.71l-9.59,7,3.66,11.27-9.58-7-9.58,7,3.66-11.26-9.59-7Z"/><path class="cls-2" d="M25.34,20.53,25.49,0a5.46,5.46,0,0,0-5.33,4.25H16.87v2S16.41,7.65,14,9.08A11.88,11.88,0,0,1,8.28,10.4H6.35v2.48H.05v7.64Z"/><path class="cls-2" d="M25.23,51.74l-9.58,7,3.66-11.26-9.58-7H21.57l3.66-11.27,0-6.24H.05c0,4,0,10.12,0,14.1A46.84,46.84,0,0,0,1.61,48,34.74,34.74,0,0,0,11.72,65.29a68.46,68.46,0,0,0,13.21,9.06.33.33,0,0,0,.26,0Z"/><polygon class="cls-3" points="40.74 40.46 28.89 40.46 25.23 29.19 21.57 40.46 9.73 40.46 19.31 47.42 15.65 58.69 25.23 51.72 34.82 58.69 31.16 47.42 40.74 40.46"/><polygon class="cls-4" points="25.23 29.19 28.89 40.46 40.74 40.46 31.16 47.42 34.82 58.69 25.23 51.72 25.23 29.19"/></g><path class="cls-5" d="M31.58,71.77a1.27,1.27,0,0,1,.62.16,1.16,1.16,0,0,1,.47.46,1.35,1.35,0,0,1,.17.63,1.29,1.29,0,0,1-.17.63,1.16,1.16,0,0,1-.46.47,1.32,1.32,0,0,1-1.26,0,1.16,1.16,0,0,1-.46-.47,1.29,1.29,0,0,1-.17-.63,1.35,1.35,0,0,1,.17-.63,1.16,1.16,0,0,1,.47-.46A1.27,1.27,0,0,1,31.58,71.77Zm0,.2a1.1,1.1,0,0,0-.52.14,1,1,0,0,0-.39.39,1.05,1.05,0,0,0,0,1,1,1,0,0,0,.39.38,1,1,0,0,0,.52.14,1,1,0,0,0,.52-.14,1,1,0,0,0,.39-.38,1.05,1.05,0,0,0,0-1,1,1,0,0,0-.39-.39A1.1,1.1,0,0,0,31.58,72ZM31,73.72V72.37h.46a1.44,1.44,0,0,1,.35,0,.37.37,0,0,1,.17.13.39.39,0,0,1,.06.2A.35.35,0,0,1,32,73a.4.4,0,0,1-.28.12l.11.08a1.31,1.31,0,0,1,.2.26l.17.27H31.9l-.12-.21a1.13,1.13,0,0,0-.23-.32.29.29,0,0,0-.17,0h-.13v.58Zm.22-.76h.26a.39.39,0,0,0,.26-.06.18.18,0,0,0,.07-.15.23.23,0,0,0,0-.11.26.26,0,0,0-.1-.07l-.21,0h-.25Z"/><path class="cls-5" d="M80.36,44.73c1.4-1.89,2.11-4.61,2.11-8.1V27.17A10.16,10.16,0,0,1,82.8,24a2.42,2.42,0,0,1,1.45-1.27c.31-.14.47-.32.47-.56a.43.43,0,0,0-.48-.46l-.85.06c-.33,0-1.21.05-2.62.05a10.58,10.58,0,0,1-1.71-.11,10.52,10.52,0,0,0-1.24-.15.48.48,0,0,0-.37.11.54.54,0,0,0-.14.4c0,.21.12.48.67.53a2.81,2.81,0,0,1,2.24,1.18,6.61,6.61,0,0,1,.67,3.4V37c0,3.3-.75,5.8-2.23,7.43s-3.73,2.45-6.72,2.45c-3.33,0-5.74-1-7.15-2.92-1-1.38-1.51-3.72-1.51-7V27.41l0-1.25a6.08,6.08,0,0,1,.36-2.52,2,2,0,0,1,1.4-.9c.47-.08.71-.28.71-.58s-.07-.42-.56-.42l-1,.05c-.56.06-.91.08-1.06.08H61.65l-1.47,0c-.27,0-.7,0-1.28-.06l-1.32,0c-.7,0-.85.31-.85.57s.11.44.62.52a3.21,3.21,0,0,1,2.19,1,5.07,5.07,0,0,1,.54,2.75l0,1.09V37.4a13.61,13.61,0,0,0,1.38,6.53,8.41,8.41,0,0,0,3.85,3.47,14,14,0,0,0,11.2.21,9.21,9.21,0,0,0,3.82-2.88"/><path class="cls-5" d="M95.65,24.08c.59,0,.78.1.84.16s.16.24.16.8l0,.49v19a3.44,3.44,0,0,1-.49,2.15,2.91,2.91,0,0,1-1.9.77c-.49.06-.74.23-.74.5s.09.53.69.53c.14,0,.56,0,1.3-.12.36,0,.82,0,1.35,0l1.49,0,1.4,0c.9,0,1.47,0,1.7,0a7.57,7.57,0,0,0,1,.12c.57,0,.66-.34.66-.53s-.26-.47-.77-.55a2.52,2.52,0,0,1-2.4-2.55l0-.74V25.32c0-.74.11-1,.18-1.05s.29-.19,1-.19h5.37a3.79,3.79,0,0,1,2.08.39h0a2.71,2.71,0,0,1,.76,1.69c.09.48.27.71.59.69s.53-.16.51-.74c0-.19-.05-.51-.12-.94a10.35,10.35,0,0,1-.09-1.62c0-1.05-.15-1.32-.25-1.43s-.61-.27-1.36-.27H88a1.11,1.11,0,0,0-1,.33,2.23,2.23,0,0,0-.23,1.22,11.21,11.21,0,0,1-.28,2.24,8.14,8.14,0,0,0-.23,1.49c0,.54.28.63.46.64.45,0,.59-.61.64-.82a4.25,4.25,0,0,1,1-2.28,3.24,3.24,0,0,1,2.16-.59Z"/><path class="cls-5" d="M139.62,48.35a8.31,8.31,0,0,1,.9-.05l1.43,0,1.42,0a15,15,0,0,1,1.89.07c.83.13,1.33.16,1.55-.08a.53.53,0,0,0,.12-.4c0-.26-.26-.43-.72-.49a2.9,2.9,0,0,1-2.11-.9,4.94,4.94,0,0,1-.55-2.76V25.24a3.44,3.44,0,0,1,.38-1.63,1.39,1.39,0,0,1,.92-.79l.78-.17c.46-.1.55-.34.55-.51s-.07-.5-.58-.5a6.52,6.52,0,0,0-.72.08,25.61,25.61,0,0,1-2.85.11,24.81,24.81,0,0,1-2.66-.13c-.6-.06-1-.1-1.31-.1-.5,0-.59.27-.6.43s.09.47.65.58a2.68,2.68,0,0,1,1.78,1.07,5.53,5.53,0,0,1,.49,2.74V33c0,.31-.06.51-.18.59a2.11,2.11,0,0,1-1,.13H127.93c-1,0-1.27-.12-1.32-.18h0c-.07-.06-.19-.31-.19-1.21V25.44a3.42,3.42,0,0,1,.42-2,2.86,2.86,0,0,1,1.65-.88c.41-.1.61-.29.61-.55s-.09-.51-.68-.51a6,6,0,0,0-.81.07,20,20,0,0,1-2.53.15,29.41,29.41,0,0,1-3.48-.17c-.52-.06-.91-.1-1.16-.11a.65.65,0,0,0-.49.14.45.45,0,0,0-.13.35c0,.21.11.46.65.53a3.53,3.53,0,0,1,2.19,1,3.68,3.68,0,0,1,.6,2.33V42.24A15.66,15.66,0,0,1,123,46a1.49,1.49,0,0,1-1.06,1.18l-1,.23c-.49.11-.59.37-.59.56s.08.48.6.48c.14,0,.54,0,1.22-.09.48,0,.88-.06,1.19-.06l1.26,0,1.61,0a17.86,17.86,0,0,1,2.27.08,9,9,0,0,0,1,.09.75.75,0,0,0,.56-.18.43.43,0,0,0,.11-.34c0-.34-.3-.54-.83-.6a3.23,3.23,0,0,1-2.27-.95,4.54,4.54,0,0,1-.61-2.71v-7c0-.69.13-.94.23-1s.41-.19,1.28-.19h11.25c.86,0,1,.09,1.07.12s.13.18.13,1v7l0,.75c0,1.9-.62,2.93-1.9,3.15-.49.08-.74.26-.76.55a.52.52,0,0,0,.12.36.61.61,0,0,0,.42.14h0l1.34-.1"/><path class="cls-5" d="M196,46.14l-.17,0-1,.48a4.09,4.09,0,0,1-1.91.41,2.85,2.85,0,0,1-2.15-.79,3.66,3.66,0,0,1-.5-2.34V34.46h4.41a.94.94,0,0,0,.95-.64l.44-1.09a1.59,1.59,0,0,0,.18-.52.33.33,0,0,0-.09-.29.27.27,0,0,0-.24-.05,1.07,1.07,0,0,0-.47.25,2.31,2.31,0,0,1-1.23.28h-3.95l.08-3.18c0-.51-.22-.62-.39-.62s-.35.11-.83.9a17,17,0,0,1-3.4,3.77q-.54.45-.54.78c0,.19.11.41.62.41h1.58V44c0,3.12,1.52,4.7,4.52,4.7a6.71,6.71,0,0,0,2.86-.74c1.06-.52,1.58-1,1.58-1.47a.32.32,0,0,0-.35-.33"/><path class="cls-5" d="M153.31,33A3.82,3.82,0,0,1,156,34.21a3.75,3.75,0,0,1,1.26,2.69c0,.4-.76.49-1.39.49h-6.34a6.13,6.13,0,0,1,1.24-3.21h0A3.15,3.15,0,0,1,153.31,33m7,11.6a.8.8,0,0,0-.34.16,7.61,7.61,0,0,1-4.46,1.85,5.43,5.43,0,0,1-4.36-2.18A8.37,8.37,0,0,1,149.4,39v-.31h7.12l1.3,0,1.42,0c.91,0,1.37-.25,1.37-.75a4.83,4.83,0,0,0-.49-1.6,10.17,10.17,0,0,0-.95-1.78A6.11,6.11,0,0,0,154,31.9a6.76,6.76,0,0,0-5.2,2.54,8.73,8.73,0,0,0-2.21,5.89,8.64,8.64,0,0,0,2.15,5.94A6.85,6.85,0,0,0,154,48.68a8.57,8.57,0,0,0,5.33-2c.93-.73,1.38-1.29,1.38-1.71a.44.44,0,0,0-.12-.34.42.42,0,0,0-.29-.09"/><path class="cls-5" d="M184.92,47.23c-1.25-.21-2-.61-2.28-1.21a6.3,6.3,0,0,1-.35-2.36V21.23l0-.59h0c0-.48-.06-.76-.2-.89a.31.31,0,0,0-.19-.08.85.85,0,0,0-.48.18,8.74,8.74,0,0,1-1.83.9l-1.17.48a7.86,7.86,0,0,1-1.18.36c-.39.11-.58.28-.58.53a.45.45,0,0,0,.31.43,1.31,1.31,0,0,0,.37,0h0l.95,0c.74,0,1.1.54,1.1,1.64V45.38a2.22,2.22,0,0,1-.27,1.26,2,2,0,0,1-1.09.61c-.43.12-.65.32-.63.59s.11.49.64.49a7.21,7.21,0,0,0,.74-.09c.28,0,1-.06,2.23-.06l2.66,0a4.24,4.24,0,0,1,.84.06,2.75,2.75,0,0,0,.52.08.51.51,0,0,0,.4-.15.56.56,0,0,0,.13-.41q0-.41-.66-.51"/><path class="cls-5" d="M166.76,41.86a9.59,9.59,0,0,1,4.39-1.31V44.2a2.78,2.78,0,0,1-.63,2,3.58,3.58,0,0,1-2.59,1,2.54,2.54,0,0,1-2.73-2.73,3.09,3.09,0,0,1,1.56-2.64M176.7,47a2.39,2.39,0,0,0-.48.09,2.51,2.51,0,0,1-.44,0,1.39,1.39,0,0,1-1.33-.7,5.24,5.24,0,0,1-.42-2.46V36.43a4.06,4.06,0,0,0-1.48-3.34,6.37,6.37,0,0,0-4.11-1.19,6.08,6.08,0,0,0-4.65,1.89,4,4,0,0,0-1.31,2.63c0,.35.26.67.79.95a3.62,3.62,0,0,0,1.68.4.54.54,0,0,0,.4-.14.45.45,0,0,0,.1-.34,2.41,2.41,0,0,0-.14-.63,5,5,0,0,1-.24-1.4c0-1.35.78-2,2.4-2a3.86,3.86,0,0,1,2.89,1.1,4.16,4.16,0,0,1,.79,2.93v2.26a19.53,19.53,0,0,0-6.71,1.94A3.91,3.91,0,0,0,162.38,45a3.46,3.46,0,0,0,1.1,2.68,4.2,4.2,0,0,0,2.93,1,8.75,8.75,0,0,0,5.1-2,3.55,3.55,0,0,0,2.87,1.89,4.78,4.78,0,0,0,1.77-.36c.65-.26,1-.51,1-.8a.37.37,0,0,0-.1-.3.41.41,0,0,0-.33-.1"/><path class="cls-5" d="M215.48,47.44a3.45,3.45,0,0,1-1.95-.74,3,3,0,0,1-.45-1.91V38.73a7.1,7.1,0,0,0-1.7-4.93,5.72,5.72,0,0,0-4.45-1.9,6.91,6.91,0,0,0-5.24,2.83V22c0-.42,0-.74,0-1s0-.38,0-.47c0-.47-.28-.54-.45-.54a1.09,1.09,0,0,0-.46.12l-1.49.71a13.26,13.26,0,0,1-2.67,1c-.35.09-.53.26-.53.51a.39.39,0,0,0,.2.36.67.67,0,0,0,.33.07h0l1,0a.82.82,0,0,1,.65.21,2.72,2.72,0,0,1,.5,1.94v19.9a4.76,4.76,0,0,1-.24,2,2.35,2.35,0,0,1-1.32.72c-.45.13-.54.4-.52.59s.1.42.6.42l.89-.05c.94-.07,1.68-.11,2.19-.11,1.47,0,2.45,0,2.9.07s.92.09,1.07.09c.47,0,.54-.28.54-.44,0-.32-.25-.52-.76-.59a3.28,3.28,0,0,1-2.06-.76,4.7,4.7,0,0,1-.41-2.45V36.84a2.73,2.73,0,0,1,1.25-2.15,4.52,4.52,0,0,1,2.82-1A4.11,4.11,0,0,1,209,35.09a5.55,5.55,0,0,1,1.21,3.76v6.33l0,.59a1.88,1.88,0,0,1-.2,1.08,2.92,2.92,0,0,1-1.16.62c-.32.12-.47.3-.46.51s.11.47.66.47l.61-.05a20.93,20.93,0,0,1,2.47-.1c.67,0,1.48,0,2.41.09.48,0,.79.06,1,.06.56,0,.64-.29.64-.47s-.11-.46-.62-.54"/><path class="cls-5" d="M64.59,63.29a23.52,23.52,0,0,1-2.22-.81,2.36,2.36,0,0,1-.81-.69,2.1,2.1,0,0,1-.43-1.33A1.84,1.84,0,0,1,61.79,59a2.42,2.42,0,0,1,1.64-.58,4.17,4.17,0,0,1,2.27.65A3.12,3.12,0,0,1,67,60.73c.11.33.22.48.35.48s.25-.06.25-.34c0,0,0-.17,0-.39l-.15-1q-.12-.78-.12-.93a.62.62,0,0,0-.12-.45.2.2,0,0,0-.15-.06.21.21,0,0,0-.15.05l-.13.11a.29.29,0,0,1-.34,0L65.79,58a4.56,4.56,0,0,0-1.71-.29,4.35,4.35,0,0,0-2.92,1A3.12,3.12,0,0,0,60,61.19a3,3,0,0,0,.87,2.23,7.94,7.94,0,0,0,3,1.56,9.53,9.53,0,0,1,2.4,1,2.19,2.19,0,0,1,.8,1.71,2.29,2.29,0,0,1-.87,1.8,3.18,3.18,0,0,1-2.14.75,3.85,3.85,0,0,1-2.31-.78,3.5,3.5,0,0,1-1.39-1.92c-.1-.32-.21-.48-.35-.49a.21.21,0,0,0-.16.05.35.35,0,0,0-.08.27,5.08,5.08,0,0,0,.24,1.2c.14.52.22.8.23.85a5.44,5.44,0,0,0,.17.66.72.72,0,0,0,.24.26,4.3,4.3,0,0,0,1.28.48,7.42,7.42,0,0,0,1.59.2,4.81,4.81,0,0,0,3.29-1.12A3.66,3.66,0,0,0,68.06,67c0-1.73-1.17-3-3.47-3.75"/><path class="cls-5" d="M71.45,67.72a4.76,4.76,0,0,1,2.16-.64v1.79a1.34,1.34,0,0,1-.31,1,1.77,1.77,0,0,1-1.27.5A1.24,1.24,0,0,1,70.69,69a1.53,1.53,0,0,1,.76-1.3m4.86,2.51a1,1,0,0,0-.23,0h-.22a.69.69,0,0,1-.66-.34,2.53,2.53,0,0,1-.2-1.21V65.08a2,2,0,0,0-.72-1.62,3.13,3.13,0,0,0-2-.58A2.93,2.93,0,0,0,70,63.8a1.93,1.93,0,0,0-.64,1.28c0,.16.13.32.38.45a1.74,1.74,0,0,0,.82.19.24.24,0,0,0,.18-.06.21.21,0,0,0,0-.16,1.28,1.28,0,0,0-.07-.3,2.38,2.38,0,0,1-.12-.69c0-.67.39-1,1.19-1a1.9,1.9,0,0,1,1.42.54,2.11,2.11,0,0,1,.38,1.44v1.11a9.53,9.53,0,0,0-3.28,1,1.9,1.9,0,0,0-1,1.7,1.66,1.66,0,0,0,.54,1.3,2,2,0,0,0,1.42.48,4.25,4.25,0,0,0,2.49-1,1.72,1.72,0,0,0,1.4.93,2.33,2.33,0,0,0,.86-.18c.31-.12.46-.24.47-.38a.14.14,0,0,0-.05-.13.15.15,0,0,0-.15,0"/><path class="cls-5" d="M86.47,70.4l-.39-.06a.77.77,0,0,1-.74-.67l0-.45V66.71a4.49,4.49,0,0,0-.6-2.58,2.81,2.81,0,0,0-2.4-1.25,3.47,3.47,0,0,0-2.55,1.4v-.92c0-.14,0-.25,0-.35a.35.35,0,0,0-.06-.27c-.07-.08-.21-.07-.38,0l-.36.17-.5.25a5,5,0,0,1-1.19.37c-.19,0-.28.12-.28.23a.18.18,0,0,0,.11.18.34.34,0,0,0,.17,0h.4a.64.64,0,0,1,.56.21,1.72,1.72,0,0,1,.15.87V69.3a1.31,1.31,0,0,1-.16.75,1.18,1.18,0,0,1-.61.4c-.13,0-.2.12-.21.22a.24.24,0,0,0,0,.15.24.24,0,0,0,.18.06l.38,0c.19,0,.78,0,1.76,0,.47,0,.76,0,.87,0a2.79,2.79,0,0,0,.48.06c.23,0,.27-.14.27-.22s-.12-.23-.36-.25c-.81,0-1.22-.32-1.25-.82l0-.74V65.29a1.26,1.26,0,0,1,.59-1,2.15,2.15,0,0,1,1.35-.45,2.09,2.09,0,0,1,1.66.68,3,3,0,0,1,.59,2V69.7c0,.36-.12.57-.34.62l-.28.08a.22.22,0,0,0-.2.23c0,.11,0,.16.08.18l.16,0,.27,0H84l.92,0c.55,0,.93,0,1.13,0a2.44,2.44,0,0,0,.37,0,.41.41,0,0,0,.3-.09.21.21,0,0,0,0-.17c0-.12-.11-.2-.3-.22"/><path class="cls-5" d="M141.92,70.42l-.43,0a.77.77,0,0,1-.57-.27,1.79,1.79,0,0,1-.14-.86V63c0-.21-.09-.27-.16-.27h0l-.51.24a10.84,10.84,0,0,1-1.32.59c-.34.11-.5.2-.51.32a.15.15,0,0,0,0,.11.5.5,0,0,0,.35.08c.31,0,.52.07.61.21a2.24,2.24,0,0,1,.14,1v4.06a2.1,2.1,0,0,1-.11.79.62.62,0,0,1-.39.33l-.18.06a.25.25,0,0,0-.2.24c0,.1,0,.22.3.22l.35,0,.28,0,.68,0h.6l.65,0c.3,0,.5,0,.61,0s.3-.1.3-.2-.11-.25-.37-.28"/><path class="cls-5" d="M137.34,70.4l-.39-.06a.78.78,0,0,1-.75-.67l0-.45V66.71a4.48,4.48,0,0,0-.61-2.58,2.79,2.79,0,0,0-2.4-1.25,3.45,3.45,0,0,0-2.54,1.4v-.92c0-.14,0-.25,0-.35a.35.35,0,0,0-.06-.27c-.08-.08-.22-.07-.39,0l-.36.17-.49.25a5,5,0,0,1-1.19.37c-.19,0-.28.12-.28.23a.17.17,0,0,0,.1.18.35.35,0,0,0,.18,0h.4a.62.62,0,0,1,.55.21,1.72,1.72,0,0,1,.15.87V69.3a1.41,1.41,0,0,1-.15.75,1.17,1.17,0,0,1-.62.4c-.13,0-.2.13-.2.22a.19.19,0,0,0,0,.15.22.22,0,0,0,.17.06l.38,0c.19,0,.79,0,1.77,0,.47,0,.75,0,.86,0a3,3,0,0,0,.49.06c.23,0,.26-.14.26-.22s-.12-.23-.35-.25c-.81,0-1.22-.32-1.25-.82l0-.74V65.29a1.27,1.27,0,0,1,.58-1,2.17,2.17,0,0,1,1.35-.45,2.06,2.06,0,0,1,1.66.68,3,3,0,0,1,.59,2V69.7c0,.36-.11.57-.34.62l-.27.08c-.17,0-.21.14-.21.23a.18.18,0,0,0,.09.18l.15,0,.27,0h.36l.92,0c.54,0,.92,0,1.13,0a2.34,2.34,0,0,0,.36,0,.38.38,0,0,0,.3-.09.25.25,0,0,0,.06-.17c0-.12-.11-.2-.3-.22"/><path class="cls-5" d="M125.66,67.45a3.6,3.6,0,0,1-.66,2.28,2.15,2.15,0,0,1-1.78.83,2.63,2.63,0,0,1-2.17-1.18,4.87,4.87,0,0,1-.88-2.95,3.42,3.42,0,0,1,.7-2.23,2.28,2.28,0,0,1,1.84-.85,2.54,2.54,0,0,1,2.12,1.14,5,5,0,0,1,.83,3M123,62.88a4.12,4.12,0,0,0-3,1.2,4.17,4.17,0,0,0-.08,5.83A4.07,4.07,0,0,0,122.85,71a4.2,4.2,0,0,0,3-1.16,4,4,0,0,0,1.2-3,3.87,3.87,0,0,0-1.22-2.85A4,4,0,0,0,123,62.88"/><path class="cls-5" d="M140.15,59c-.14,0-.33.13-.57.4a1.17,1.17,0,0,0-.35.64,1.2,1.2,0,0,0,.32.62c.22.26.39.39.53.39s.34-.13.57-.4a1.11,1.11,0,0,0,.33-.63.5.5,0,0,0-.1-.26l-.23-.36c-.17-.27-.33-.4-.5-.4"/><path class="cls-5" d="M97.85,64.77q0,.18-.42.18H94.37c-.38,0-.38-.14-.38-.19a.93.93,0,0,1,.11-.33l1.82-4c.06-.14.1-.15.1-.15s.12,0,.2.28l1.54,3.88,0,.17h0a.92.92,0,0,1,0,.2m5.06,5.62a2.5,2.5,0,0,1-1.15-.42,4.55,4.55,0,0,1-.72-1.39l-.2-.5-4-10.27c-.08-.21-.18-.31-.3-.31s-.22.11-.31.31l-4.8,10.65-.27.61a4,4,0,0,1-.51.82c-.26.32-.4.41-.48.43l-.35.11a.24.24,0,0,0-.19.24c0,.09,0,.22.3.22l.53,0h.41l1,0,.89.05h.32a.38.38,0,0,0,.27-.07.2.2,0,0,0,0-.13c0-.14-.12-.22-.33-.27a2,2,0,0,1-.84-.32.79.79,0,0,1-.2-.6,4,4,0,0,1,.41-1.38l.61-1.37a2,2,0,0,1,.43-.73,1.78,1.78,0,0,1,.83-.1H97.7c.43,0,.56,0,.6.07s.13.15.29.57l.47,1.23a7.26,7.26,0,0,1,.56,2,.52.52,0,0,1-.43.59l-.28.07c-.23,0-.27.15-.27.24s0,.23.29.23l.29,0a12.58,12.58,0,0,1,1.62-.06c.82,0,1.4,0,1.72,0l.36,0c.24,0,.3-.11.31-.2s-.1-.24-.32-.28"/><path class="cls-5" d="M149.68,67.45a3.66,3.66,0,0,1-.65,2.28,2.18,2.18,0,0,1-1.79.83,2.63,2.63,0,0,1-2.17-1.18,4.87,4.87,0,0,1-.88-2.95,3.42,3.42,0,0,1,.7-2.23,2.31,2.31,0,0,1,1.84-.85,2.53,2.53,0,0,1,2.12,1.14,5,5,0,0,1,.83,3M147,62.88a4.12,4.12,0,0,0-3,1.2A4,4,0,0,0,142.77,67a3.92,3.92,0,0,0,1.16,2.91A4.07,4.07,0,0,0,146.88,71a4.17,4.17,0,0,0,3-1.16,4,4,0,0,0,1.2-3,3.87,3.87,0,0,0-1.22-2.85A4,4,0,0,0,147,62.88"/><path class="cls-5" d="M112.59,70.4l-.4-.06a.78.78,0,0,1-.74-.67l0-.45V66.71a4.49,4.49,0,0,0-.6-2.58,2.8,2.8,0,0,0-2.4-1.25,3.45,3.45,0,0,0-2.54,1.4v-.92c0-.14,0-.25,0-.35a.4.4,0,0,0-.06-.27c-.08-.08-.22-.07-.39,0l-.36.17-.49.25a4.92,4.92,0,0,1-1.2.37c-.18,0-.28.12-.28.23a.18.18,0,0,0,.11.18.35.35,0,0,0,.18,0h.4a.62.62,0,0,1,.55.21,1.72,1.72,0,0,1,.15.87V69.3a1.41,1.41,0,0,1-.15.75,1.17,1.17,0,0,1-.62.4.29.29,0,0,0-.21.22.25.25,0,0,0,0,.15.22.22,0,0,0,.17.06l.38,0c.19,0,.78,0,1.76,0,.47,0,.76,0,.87,0a2.88,2.88,0,0,0,.49.06c.22,0,.26-.14.26-.22s-.12-.23-.35-.25c-.82,0-1.23-.32-1.25-.82l0-.74V65.29a1.24,1.24,0,0,1,.58-1,2.17,2.17,0,0,1,1.35-.45,2.06,2.06,0,0,1,1.66.68,3,3,0,0,1,.59,2V69.7c0,.36-.11.57-.34.62l-.28.08a.22.22,0,0,0-.2.23.18.18,0,0,0,.09.18l.15,0,.27,0h.36l.92,0c.54,0,.92,0,1.12,0a2.44,2.44,0,0,0,.37,0,.38.38,0,0,0,.3-.09.25.25,0,0,0,.06-.17c0-.12-.11-.2-.3-.22"/><path class="cls-5" d="M118.45,69.83l-.07,0-.49.24a2,2,0,0,1-.94.2,1.36,1.36,0,0,1-1-.39,1.76,1.76,0,0,1-.25-1.15V64.11h2.16a.44.44,0,0,0,.45-.3l.22-.54a.75.75,0,0,0,.09-.25.17.17,0,0,0,0-.13.2.2,0,0,0-.11,0,.63.63,0,0,0-.23.12,1,1,0,0,1-.6.15h-1.94l0-1.57c0-.24-.1-.29-.18-.29s-.17,0-.4.43a8.36,8.36,0,0,1-1.66,1.85c-.17.14-.26.27-.26.37s0,.19.29.19h.78v4.65a2,2,0,0,0,2.2,2.28,3.26,3.26,0,0,0,1.39-.36c.51-.25.76-.48.76-.7a.14.14,0,0,0-.16-.15"/><line class="cls-6" x1="60.09" y1="78.12" x2="213.02" y2="78.12"/><g id="_Strategic_" data-name="&lt;Strategic&gt;"><path class="cls-7" d="M59.86,95c-.07-.35,0-.54.2-.54s.25.21.33.58a3.8,3.8,0,0,0,3.73,2.66c1.68,0,3.33-.94,3.33-2.8,0-3.42-7.2-1.51-7.2-6.14,0-2.25,1.9-3.33,3.94-3.33a6.3,6.3,0,0,1,3,.64c.16,0,.19-.2.37-.2s.2.06.21.25L68,88.56c0,.14,0,.27-.2.27s-.31-.37-.37-.53A3.37,3.37,0,0,0,64.07,86c-1.41,0-2.89.68-2.89,2.31,0,3.33,7.19,1.38,7.19,6.27,0,1.49-1,3.73-5.07,3.73-1.31,0-2.92-.66-3-1Z"/><path class="cls-7" d="M63.3,98.35c-1.32,0-3-.66-3-1L59.81,95a.65.65,0,0,1,.06-.52.23.23,0,0,1,.19-.09c.25,0,.29.2.35.47l0,.16a3.77,3.77,0,0,0,3.68,2.62c1.58,0,3.28-.86,3.28-2.75,0-1.55-1.53-2-3.16-2.45-1.89-.54-4-1.16-4-3.69,0-2.33,2-3.38,4-3.38a5.66,5.66,0,0,1,2.73.54.7.7,0,0,0,.25.1.21.21,0,0,0,.14-.08.32.32,0,0,1,.23-.12c.16,0,.25.1.26.3l.27,2.41a.33.33,0,0,1,0,.25.3.3,0,0,1-.2.07c-.23,0-.35-.38-.42-.57A3.32,3.32,0,0,0,64.07,86c-1.42,0-2.84.7-2.84,2.26s1.41,1.88,3,2.35c2,.57,4.15,1.2,4.15,3.92C68.42,96.32,67.08,98.35,63.3,98.35Zm-3.24-3.81a.12.12,0,0,0-.11,0c-.07.07-.08.23,0,.44l.45,2.28c.06.28,1.64.94,2.94.94a5.58,5.58,0,0,0,4-1.29,3.38,3.38,0,0,0,1-2.39c0-2.64-2.16-3.27-4.08-3.82-1.6-.47-3.12-.91-3.12-2.45s1.48-2.36,2.95-2.36a3.42,3.42,0,0,1,3.43,2.34c0,.14.17.5.32.5a.17.17,0,0,0,.12,0,.2.2,0,0,0,0-.17l-.27-2.41c0-.18-.09-.21-.16-.21s-.11,0-.16.09a.29.29,0,0,1-.21.11.74.74,0,0,1-.3-.11,5.54,5.54,0,0,0-2.68-.53c-2.68,0-3.89,1.65-3.89,3.28,0,2.45,2,3,4,3.59,1.66.48,3.23.93,3.23,2.55a2.58,2.58,0,0,1-1,2.14,3.88,3.88,0,0,1-2.33.71,3.93,3.93,0,0,1-2.74-1,3.64,3.64,0,0,1-1-1.66,1.24,1.24,0,0,1,0-.16C60.25,94.63,60.22,94.54,60.06,94.54Z"/><path class="cls-7" d="M70,91.45c-.84,0-1,0-1-.12s.44-.44,1.35-1.44c.35-.42.53-.81.67-.81s.23.37.23,1.65h2a1.08,1.08,0,0,0,.69-.31.14.14,0,0,1,.13.15.66.66,0,0,1-.11.25l-.35.63H71.33v5.16a1.09,1.09,0,0,0,1.24,1.07c.94,0,1.21-.41,1.51-.41.07,0,.14,0,.14.16s-1,.87-2.2.87c-.81,0-2-.23-2-2.06Z"/><path class="cls-7" d="M72,98.35a1.83,1.83,0,0,1-2-2.11V91.5c-.85,0-1,0-1-.17s.11-.21.38-.47.55-.53,1-1c.14-.17.25-.33.34-.46S71,89,71.1,89s.23.17.25.34a10.36,10.36,0,0,1,0,1.12v.19h1.9a.88.88,0,0,0,.59-.24s.07-.07.1-.07a.2.2,0,0,1,.18.2.58.58,0,0,1-.12.27l-.36.66H71.38v5.11c0,.66.46,1,1.19,1a2.32,2.32,0,0,0,1.14-.28.75.75,0,0,1,.37-.13s.19,0,.19.21S73.3,98.35,72,98.35Zm-.92-9.22c-.06,0-.17.16-.29.33s-.2.3-.34.47c-.44.47-.77.79-1,1s-.35.35-.35.4.17.07.91.07h0v4.84c0,1.35.63,2,1.93,2a2.57,2.57,0,0,0,2.15-.82c0-.11,0-.11-.09-.11a.67.67,0,0,0-.32.12,2.42,2.42,0,0,1-1.19.29,1.14,1.14,0,0,1-1.29-1.11V91.4h2.33l.34-.61a.8.8,0,0,0,.1-.22s0-.09-.08-.09,0,0,0,0a1,1,0,0,1-.66.27h-2v-.29a10.15,10.15,0,0,0,0-1.11C71.22,89.15,71.16,89.13,71.1,89.13Z"/><path class="cls-7" d="M77.12,96.61c0,1.65,1.58.8,1.58,1.37,0,.16-.09.19-.29.19s-.67-.07-1.66-.07a15.23,15.23,0,0,0-1.64.07c-.14,0-.19,0-.19-.16,0-.37.9-.3.9-1V92.41c0-1.06-1.27-.6-1.27-1,0-.11.14-.18.23-.2,1.36-.32,1.72-.89,2.12-.89.11,0,.22.11.22.29V92h0c.38-.52,1-1.47,1.76-1.47.37,0,1.17.46,1.17.79s-.43.8-.64.8-.53-.41-1.17-.41a1.31,1.31,0,0,0-1.15,1Z"/><path class="cls-7" d="M78.41,98.22h-.32a12.06,12.06,0,0,0-1.34-.06,13.34,13.34,0,0,0-1.49.06h-.15q-.24,0-.24-.21c0-.18.18-.27.37-.37s.53-.26.53-.65V92.41c0-.62-.46-.68-.83-.73s-.44-.06-.44-.24.16-.23.27-.25a4.65,4.65,0,0,0,1.56-.65,1.17,1.17,0,0,1,.57-.24.31.31,0,0,1,.27.34v1.2c.4-.56,1-1.39,1.73-1.39.39,0,1.22.47,1.22.84s-.45.85-.69.85A.84.84,0,0,1,79,92a1.23,1.23,0,0,0-.75-.25,1.27,1.27,0,0,0-1.1,1v3.88c0,1,.58,1,1,1.07.28,0,.54,0,.54.3S78.57,98.22,78.41,98.22Zm-1.66-.17c.66,0,1.07,0,1.34,0,.48,0,.55,0,.55-.12s-.15-.18-.44-.2c-.45,0-1.13-.08-1.13-1.17V92.73a1.38,1.38,0,0,1,1.2-1.1,1.42,1.42,0,0,1,.8.26.68.68,0,0,0,.37.15c.17,0,.59-.49.59-.75s-.76-.74-1.12-.74c-.67,0-1.28.84-1.64,1.35l-.09.12h-.11V90.64c0-.15-.09-.24-.17-.24a1.18,1.18,0,0,0-.52.23,5,5,0,0,1-1.59.66c-.08,0-.19.08-.19.15s.13.11.35.14.92.12.92.83V97c0,.45-.32.61-.59.74S75,97.9,75,98s0,.11.14.11h.13A14,14,0,0,1,76.75,98.05Z"/><path class="cls-7" d="M85.08,92.5c0-.92-.72-1.54-1.82-1.54-.85,0-1.54.09-1.54,1.06,0,.27.1.53.1.73s0,.33-.39.33-.83-.26-.83-.58c0-.82,1-2.06,3-2,1.1,0,2.8.32,2.8,1.82V96c0,.61-.16,1.65.76,1.65l.3,0c.09,0,.23,0,.23.12,0,.37-.78.44-1,.44a1.37,1.37,0,0,1-1.39-.9,4.21,4.21,0,0,1-2.71,1c-1.15,0-1.92-.43-1.92-1.69,0-.94.31-2,4.45-2.75Zm0,1.79c-1.13.25-3.29.53-3.29,2.09,0,1,.51,1.4,1.45,1.4.64,0,1.84-.49,1.84-1.43Z"/><path class="cls-7" d="M82.55,98.35c-1.32,0-2-.57-2-1.74,0-1,.35-2.1,4.45-2.79V92.5c0-.89-.71-1.49-1.77-1.49-.82,0-1.49.07-1.49,1a2.7,2.7,0,0,0,0,.41,1.25,1.25,0,0,1,.05.32c0,.2-.05.39-.44.39s-.88-.27-.88-.64a1.86,1.86,0,0,1,.63-1.24,3.25,3.25,0,0,1,2.28-.82h.12c.67,0,2.85.13,2.85,1.87v3.91a1.69,1.69,0,0,0,.22,1.18.66.66,0,0,0,.49.18l.14,0h.16c.09,0,.28,0,.28.17,0,.49-1.06.49-1.07.49a1.43,1.43,0,0,1-1.41-.87A4.25,4.25,0,0,1,82.55,98.35Zm.71-7.44a1.66,1.66,0,0,1,1.88,1.59v1.41h0c-4.06.67-4.4,1.74-4.4,2.69,0,1.12.59,1.64,1.86,1.64a4.19,4.19,0,0,0,2.68-1l0,0,0,.07a1.32,1.32,0,0,0,1.34.87c.31,0,1-.09,1-.39,0-.06,0-.07-.18-.07H87.3l-.16,0a.73.73,0,0,1-.56-.21,1.74,1.74,0,0,1-.26-1.25,1.93,1.93,0,0,0,0-.24V92.32c0-1.65-2.11-1.77-2.75-1.77h-.12a3.11,3.11,0,0,0-2.21.79,1.74,1.74,0,0,0-.6,1.16c0,.28.49.53.78.53s.34-.12.34-.28a1.77,1.77,0,0,0,0-.3,1.94,1.94,0,0,1-.06-.43C81.67,91,82.42,90.91,83.26,90.91Zm0,6.92c-1,0-1.5-.46-1.5-1.45,0-1.45,1.8-1.82,3-2.07l.34-.07h.07v2.12C85.14,97.32,83.9,97.83,83.24,97.83ZM85,94.35l-.28.06c-1.16.24-2.91.6-2.91,2,0,.94.43,1.35,1.4,1.35.63,0,1.79-.47,1.79-1.38Z"/><path class="cls-7" d="M88.64,91.45c-.83,0-1,0-1-.12s.44-.44,1.34-1.44c.36-.42.53-.81.68-.81s.23.37.23,1.65h2a1.08,1.08,0,0,0,.69-.31c.09,0,.12.09.12.15a.62.62,0,0,1-.1.25l-.36.63h-2.3v5.16a1.08,1.08,0,0,0,1.24,1.07c.94,0,1.2-.41,1.51-.41.07,0,.14,0,.14.16s-1,.87-2.2.87c-.82,0-2-.23-2-2.06Z"/><path class="cls-7" d="M90.63,98.35a1.84,1.84,0,0,1-2-2.11V91.5c-.85,0-1,0-1-.17s.12-.21.39-.47.55-.53,1-1l.34-.46c.16-.23.25-.37.37-.37s.23.17.25.34a10.36,10.36,0,0,1,0,1.12v.19h1.9a.83.83,0,0,0,.58-.24s.08-.07.11-.07a.19.19,0,0,1,.17.2.59.59,0,0,1-.11.27l-.37.66H90v5.11c0,.66.45,1,1.19,1a2.36,2.36,0,0,0,1.14-.28.69.69,0,0,1,.37-.13s.19,0,.19.21S91.91,98.35,90.63,98.35Zm-.92-9.22c-.06,0-.17.16-.29.33s-.21.3-.35.47c-.43.47-.76.79-1,1s-.35.35-.35.4.17.07.9.07h0v4.84c0,1.35.64,2,1.94,2a2.57,2.57,0,0,0,2.15-.82c0-.11,0-.11-.09-.11a.74.74,0,0,0-.33.12,2.34,2.34,0,0,1-1.18.29,1.13,1.13,0,0,1-1.29-1.11V91.4h2.32l.34-.61a.58.58,0,0,0,.1-.22s0-.09-.07-.09l0,0a.92.92,0,0,1-.65.27h-2v-.29a10.15,10.15,0,0,0,0-1.11C89.83,89.15,89.77,89.13,89.71,89.13Z"/><path class="cls-7" d="M94.33,93.62c0,2.92,1.77,3.79,2.85,3.79,1.53,0,2.11-.92,2.5-.92.08,0,.08.07.08.12,0,.41-1.55,1.69-3.14,1.69A3.65,3.65,0,0,1,93,94.66c0-2.27,1.25-4.16,3.47-4.16a3.27,3.27,0,0,1,3.14,2.82c0,.31-.2.3-.6.3Zm3.49-.48c.25,0,.36-.09.36-.36a2,2,0,0,0-2-1.88c-1.1,0-1.88,1.26-1.88,2.24Z"/><path class="cls-7" d="M96.62,98.35A3.71,3.71,0,0,1,93,94.66c0-2.48,1.45-4.21,3.53-4.21a3.33,3.33,0,0,1,3.19,2.87.36.36,0,0,1-.08.25c-.1.1-.26.1-.51.1H94.38c0,1.3.62,3.69,2.8,3.69a3.25,3.25,0,0,0,2-.67,1,1,0,0,1,.51-.25c.13,0,.13.13.13.17C99.81,97.07,98.22,98.35,96.62,98.35Zm-.11-7.8c-2,0-3.42,1.69-3.42,4.11a3.61,3.61,0,0,0,3.53,3.59c1.59,0,3.08-1.27,3.08-1.64,0-.07,0-.07,0-.07a1,1,0,0,0-.45.23,3.36,3.36,0,0,1-2,.69c-1,0-2.9-.8-2.9-3.84v-.05h4.83c.21,0,.37,0,.44-.07a.26.26,0,0,0,0-.18A3.22,3.22,0,0,0,96.51,90.55Zm1.31,2.64H94.28v0a2.25,2.25,0,0,1,1.93-2.29,2.08,2.08,0,0,1,2,1.93C98.23,93.07,98.11,93.19,97.82,93.19Zm-3.44-.1h3.44c.23,0,.31-.08.31-.31A2,2,0,0,0,96.21,91,2.15,2.15,0,0,0,94.38,93.09Z"/><path class="cls-7" d="M106.05,91.2c.86,0,.94-1.13,1.19-1.13s.14.18.14.28c0,1.37-.26,1.44-.92,1.85a4.18,4.18,0,0,1,.13.94,2.73,2.73,0,0,1-3,2.71,5.51,5.51,0,0,1-1.22-.14c-.43,0-.85.57-.85,1,0,.15-.14.85,2.09.85,1.49,0,3.49-.17,3.49,1.58,0,1.12-.94,2.59-3.9,2.59-1.13,0-3-.42-3-1.88a1.79,1.79,0,0,1,1.29-1.49,1.39,1.39,0,0,1-.67-1.4c0-.71.9-1.43.92-1.43v0a2.54,2.54,0,0,1-1.14-2.18,2.77,2.77,0,0,1,2.86-2.78C105,90.5,105.56,91.2,106.05,91.2Zm-2.69,10.09c2.43,0,2.94-1.11,2.94-1.75s-.62-.78-2.44-.84a11.76,11.76,0,0,1-1.87-.17c-.55,0-.86.81-.86,1.27C101.13,101,102.38,101.29,103.36,101.29Zm.27-10.4c-1.32,0-1.74,1-1.74,2.18s.49,2.39,1.81,2.39,1.73-1,1.73-2.11S105,90.89,103.63,90.89Z"/><path class="cls-7" d="M103.25,101.75c-1,0-3-.4-3-1.93a1.79,1.79,0,0,1,1.21-1.49,1.53,1.53,0,0,1-.59-1.4,2.28,2.28,0,0,1,.91-1.45,2.58,2.58,0,0,1-1.13-2.2,2.8,2.8,0,0,1,2.91-2.83,4,4,0,0,1,1.94.49,1.45,1.45,0,0,0,.59.21c.53,0,.74-.45.9-.78s.17-.35.29-.35a.17.17,0,0,1,.13,0,.33.33,0,0,1,.07.26v0c0,1.31-.26,1.47-.83,1.82l-.09,0a4.08,4.08,0,0,1,.12.92,2.76,2.76,0,0,1-3,2.76,3.72,3.72,0,0,1-1-.1.56.56,0,0,0-.21,0c-.4,0-.8.54-.8.92v0a.46.46,0,0,0,.13.36c.18.19.66.41,1.91.41H104c1,0,2.18,0,2.77.57a1.41,1.41,0,0,1,.39,1.06C107.2,100.33,106.17,101.75,103.25,101.75Zm-1.44-6.2c-.11.08-.88.75-.88,1.38,0,.33.06,1.13.64,1.36l.12,0-.12,0a1.74,1.74,0,0,0-1.26,1.44c0,1.45,1.92,1.83,2.94,1.83,2.84,0,3.85-1.37,3.85-2.54a1.3,1.3,0,0,0-.36-1c-.56-.56-1.7-.55-2.7-.54h-.38a3,3,0,0,1-2-.45.54.54,0,0,1-.15-.43v0a1.1,1.1,0,0,1,.9-1,.62.62,0,0,1,.23,0,3.59,3.59,0,0,0,1,.1,2.67,2.67,0,0,0,2.9-2.66,3.76,3.76,0,0,0-.13-.93v0l.16-.09c.56-.35.77-.48.77-1.73v0c0-.06,0-.14,0-.18l-.06,0s-.12.15-.19.29c-.17.34-.41.85-1,.85a1.51,1.51,0,0,1-.64-.23,3.92,3.92,0,0,0-1.89-.48,2.7,2.7,0,0,0-2.8,2.73,2.48,2.48,0,0,0,1.11,2.14h0v.12Zm1.55,5.79c-.54,0-2.29-.11-2.29-1.54,0-.46.32-1.32.92-1.32l.16,0a10.28,10.28,0,0,0,1.71.15c1.76.06,2.49.08,2.49.89C106.35,99.84,106.21,101.34,103.36,101.34ZM102,98.58c-.52,0-.81.81-.81,1.22,0,1.34,1.67,1.44,2.18,1.44,2.75,0,2.89-1.42,2.89-1.7,0-.68-.53-.73-2.4-.78a10,10,0,0,1-1.72-.16Zm1.71-3.07c-1.29,0-1.86-1.23-1.86-2.44,0-1.44.63-2.24,1.79-2.24s1.86,1.27,1.86,2.52S104.82,95.51,103.7,95.51Zm-.07-4.57c-1.47,0-1.69,1.33-1.69,2.13,0,1.73,1,2.34,1.76,2.34.5,0,1.68-.2,1.68-2.06S104.44,90.94,103.63,90.94Z"/><path class="cls-7" d="M109.22,92.41c0-1.06-1-.6-1-1a.2.2,0,0,1,.16-.2c1.13-.32,1.49-.89,1.9-.89.1,0,.21.11.21.29V97c0,.91,1.4.52,1.4,1,0,.14-.11.19-.34.19s-.92-.07-1.64-.07-1,.07-1.23.07-.25,0-.26-.19c0-.45.78.23.78-1.38Zm1.38-4.63c0,.22-.52.92-.75.92s-.74-.72-.74-.92.53-.94.74-.94S110.6,87.57,110.6,87.78Z"/><path class="cls-7" d="M111.57,98.22l-.56,0c-.29,0-.66,0-1.08,0s-.68,0-.91,0l-.32,0c-.14,0-.29,0-.32-.24s.14-.22.26-.25.52-.12.52-1.13V92.41c0-.63-.34-.69-.62-.73s-.35-.06-.35-.24a.25.25,0,0,1,.2-.25,4.25,4.25,0,0,0,1.3-.62,1.23,1.23,0,0,1,.61-.27c.13,0,.26.13.26.34V97c0,.49.44.57.83.64s.57.1.57.34S111.75,98.22,111.57,98.22Zm-1.64-.17c.42,0,.79,0,1.09,0l.55,0c.27,0,.29-.07.29-.14s-.18-.18-.48-.24-.92-.17-.92-.74V90.64c0-.15-.08-.24-.16-.24a1.15,1.15,0,0,0-.56.26,4.46,4.46,0,0,1-1.33.63.14.14,0,0,0-.12.15c0,.08.08.1.26.14a.72.72,0,0,1,.72.83V96.6c0,1.09-.37,1.18-.61,1.23s-.17,0-.17.15.06.14.21.14l.31,0C109.25,98.08,109.57,98.05,109.93,98.05Zm-.08-9.29c-.25,0-.79-.77-.79-1s.54-1,.79-1,.8.76.8,1S110.12,88.76,109.85,88.76Zm0-1.87c-.17,0-.69.72-.69.89s.52.87.69.87.7-.67.7-.87S110.05,86.89,109.85,86.89Z"/><path class="cls-7" d="M112.12,94.54a4,4,0,0,1,4-4c.89,0,2.1.24,2.15.65a9.83,9.83,0,0,1,0,1c0,.25,0,.37-.14.37s-.38-.34-.43-.41a2.58,2.58,0,0,0-2.2-1.08c-1.51,0-2.09,1.56-2.09,2.84,0,1.91,1.13,3.49,3.14,3.49,1.38,0,2.16-1,2.43-1,0,0,.14.06.14.11,0,.28-1.06,1.81-3.49,1.81A3.64,3.64,0,0,1,112.12,94.54Z"/><path class="cls-7" d="M115.63,98.35a3.7,3.7,0,0,1-3.57-3.81,4.07,4.07,0,0,1,4-4.09c.89,0,2.14.24,2.2.7,0,.3,0,.63,0,.87v.18c0,.35-.11.42-.19.42s-.35-.25-.44-.38l0,0a2.52,2.52,0,0,0-2.16-1.06c-1.4,0-2,1.45-2,2.79,0,1.71,1,3.44,3.09,3.44a3.29,3.29,0,0,0,2-.79c.19-.14.32-.24.42-.24s.19.07.19.16C119.17,96.75,118.15,98.35,115.63,98.35Zm.47-7.8a4,4,0,0,0-3.93,4,3.6,3.6,0,0,0,3.46,3.71c2.4,0,3.44-1.52,3.44-1.76,0,0-.06-.06-.09-.06a1,1,0,0,0-.36.22,3.41,3.41,0,0,1-2.07.81c-1.91,0-3.19-1.42-3.19-3.54,0-1.39.67-2.89,2.14-2.89a2.61,2.61,0,0,1,2.24,1.1l0,.05c.06.1.22.34.35.34s.09-.08.09-.32V92c0-.24,0-.56,0-.86S117,90.55,116.1,90.55Z"/><path class="cls-7" d="M127,95.73c0,2.55,1.86,1.63,1.86,2.23,0,.12-.07.21-.52.21s-.87-.07-1.91-.07c-.84,0-1.42.07-1.93.07-.11,0-.29,0-.29-.21,0-.48,1.38.07,1.38-1.9V87.57c0-2.13-1.45-1-1.45-1.68a.24.24,0,0,1,.23-.27c.16,0,.78.07,1.81.07s1.17-.07,2-.07c2.25,0,4.75.78,4.75,3.42,0,.71-.53,3.41-4.31,3.41-.17,0-1.2-.09-1.2-.41,0-.13.09-.16.18-.16a8.38,8.38,0,0,0,1.15.11c1.81,0,2.87-.87,2.87-2.47,0-2.15-1.65-3.28-3.69-3.28-.56,0-1,0-1,.53Z"/><path class="cls-7" d="M128.32,98.22l-.68,0c-.3,0-.64,0-1.23,0s-.86,0-1.2,0l-.73,0c-.14,0-.34-.07-.34-.26s.18-.25.39-.31c.4-.12,1-.31,1-1.59V87.57c0-1.33-.57-1.36-1-1.38-.24,0-.47,0-.47-.3a.3.3,0,0,1,.28-.32h.25c.29,0,.82.06,1.56.06.45,0,.74,0,1,0s.57,0,1,0c1.44,0,4.8.34,4.8,3.47a3.42,3.42,0,0,1-.75,2,4.33,4.33,0,0,1-3.61,1.46s-1.25,0-1.25-.46a.2.2,0,0,1,.23-.21l.21,0a4.85,4.85,0,0,0,.94.08c1.79,0,2.82-.88,2.82-2.41,0-2-1.43-3.23-3.64-3.23-.61,0-.9,0-.9.48v9c0,1.67.81,1.81,1.35,1.9.27.05.51.09.51.33S128.73,98.22,128.32,98.22Zm-1.91-.17c.59,0,.93,0,1.23,0s.42,0,.68,0c.47,0,.47-.09.47-.16s-.15-.18-.43-.23c-.54-.09-1.44-.24-1.44-2v-9c0-.58.45-.58,1-.58,2.27,0,3.74,1.31,3.74,3.33,0,1.6-1.06,2.52-2.92,2.52a4.71,4.71,0,0,1-1-.09l-.2,0c-.13,0-.13.08-.13.11,0,.23.86.36,1.15.36,4.21,0,4.26-3.32,4.26-3.36,0-3-3.29-3.37-4.7-3.37-.42,0-.69,0-1,0s-.59,0-1,0c-.74,0-1.28,0-1.57-.06h-.24a.2.2,0,0,0-.18.22c0,.17.11.18.37.19.43,0,1.09.07,1.09,1.49v8.49c0,1.36-.65,1.55-1.07,1.68-.21.07-.32.11-.32.22s.17.16.24.16l.73,0C125.55,98.07,125.94,98.05,126.41,98.05Z"/><path class="cls-7" d="M135.55,96.74c0,1.22,1.47.71,1.47,1.18,0,.22-.14.25-.4.25s-.8-.07-1.64-.07-1.2.07-1.38.07-.21-.07-.21-.23.87-.21.87-1V87c0-1.06-1.21-.6-1.21-1a.19.19,0,0,1,.16-.19c1.37-.32,1.72-.89,2.13-.89.11,0,.21.11.21.29Z"/><path class="cls-7" d="M136.62,98.22a2.91,2.91,0,0,1-.38,0c-.3,0-.72,0-1.26,0a10.45,10.45,0,0,0-1.15.06h-.23c-.12,0-.26,0-.26-.28s.14-.19.3-.27.57-.26.57-.7V87c0-.63-.44-.69-.79-.73S133,86.16,133,86a.24.24,0,0,1,.2-.24,4.76,4.76,0,0,0,1.56-.65,1.2,1.2,0,0,1,.58-.24c.13,0,.26.13.26.34V96.74c0,.71.53.8,1,.87.27,0,.52.09.52.31S136.86,98.22,136.62,98.22ZM135,98.05c.55,0,1,0,1.26,0l.38,0c.28,0,.35,0,.35-.2s-.17-.17-.44-.21c-.43-.08-1-.18-1-1V85.18c0-.15-.08-.24-.16-.24a1.13,1.13,0,0,0-.52.23,5,5,0,0,1-1.6.66.14.14,0,0,0-.12.14c0,.09.12.12.33.14s.88.13.88.84V97a.86.86,0,0,1-.63.8c-.13.06-.24.11-.24.17s.06.18.16.18h.22A10.51,10.51,0,0,1,135,98.05Z"/><path class="cls-7" d="M142.14,92.5c0-.92-.72-1.54-1.82-1.54-.85,0-1.55.09-1.55,1.06,0,.27.11.53.11.73s0,.33-.39.33-.83-.26-.83-.58c0-.82,1-2.06,3-2,1.1,0,2.8.32,2.8,1.82V96c0,.61-.16,1.65.76,1.65l.3,0c.09,0,.23,0,.23.12,0,.37-.78.44-1,.44a1.36,1.36,0,0,1-1.38-.9,4.21,4.21,0,0,1-2.71,1c-1.15,0-1.92-.43-1.92-1.69,0-.94.3-2,4.45-2.75Zm0,1.79c-1.13.25-3.29.53-3.29,2.09,0,1,.51,1.4,1.45,1.4.64,0,1.84-.49,1.84-1.43Z"/><path class="cls-7" d="M139.61,98.35c-1.32,0-2-.57-2-1.74,0-1,.35-2.1,4.45-2.79V92.5c0-.89-.71-1.49-1.77-1.49-.82,0-1.49.07-1.49,1a2.7,2.7,0,0,0,0,.41,1.25,1.25,0,0,1,.05.32c0,.2-.05.39-.44.39s-.88-.27-.88-.64a1.86,1.86,0,0,1,.63-1.24,3.25,3.25,0,0,1,2.28-.82h.12c.67,0,2.85.13,2.85,1.87V96a1.93,1.93,0,0,1,0,.24,1.74,1.74,0,0,0,.23,1.18.64.64,0,0,0,.49.18l.14,0h.16c.09,0,.28,0,.28.17,0,.49-1.07.49-1.08.49a1.41,1.41,0,0,1-1.4-.87A4.25,4.25,0,0,1,139.61,98.35Zm.71-7.44a1.65,1.65,0,0,1,1.87,1.59v1.41h0c-4.07.67-4.41,1.74-4.41,2.69,0,1.12.6,1.64,1.87,1.64a4.19,4.19,0,0,0,2.68-1l.05,0,0,.07a1.31,1.31,0,0,0,1.33.87c.32,0,1-.09,1-.39,0-.06,0-.07-.18-.07h-.14l-.16,0a.73.73,0,0,1-.56-.21,1.74,1.74,0,0,1-.26-1.25c0-.08,0-.16,0-.24V92.32c0-1.65-2.11-1.77-2.75-1.77a3.19,3.19,0,0,0-2.33.79,1.74,1.74,0,0,0-.6,1.16c0,.28.49.53.78.53s.34-.12.34-.28a1.17,1.17,0,0,0-.05-.3,2.79,2.79,0,0,1-.06-.43C138.72,91,139.48,90.91,140.32,90.91Zm0,6.92c-1,0-1.51-.46-1.51-1.45,0-1.45,1.81-1.82,3-2.07l.34-.07h.06v2.12C142.19,97.32,141,97.83,140.3,97.83Zm1.79-3.48-.28.06c-1.16.24-2.91.6-2.91,2,0,.94.43,1.35,1.4,1.35.63,0,1.79-.47,1.79-1.38Z"/><path class="cls-7" d="M147.66,96.74c0,1.22,1.56.71,1.56,1.18,0,.22-.13.25-.39.25s-.66-.07-1.69-.07-1.29.07-1.5.07-.32,0-.32-.21c0-.35,1,0,1-1.15v-4.4c0-1.06-1.31-.6-1.31-1a.2.2,0,0,1,.16-.2c1.47-.32,1.83-.89,2.23-.89.11,0,.22.11.22.29v1.17a3.85,3.85,0,0,1,2.57-1.31c2.37,0,2.89,2,2.89,3.31v2.93c0,1.22,1.38.71,1.38,1.18,0,.22-.12.25-.3.25s-.67-.07-1.54-.07c-.68,0-1,.07-1.28.07s-.32,0-.32-.21c0-.35.76,0,.76-1.15V93.49a2.15,2.15,0,0,0-2.07-2.21,2,2,0,0,0-2.09,1.38Z"/><path class="cls-7" d="M154.2,98.22a2,2,0,0,1-.32,0c-.26,0-.65,0-1.22,0a9.47,9.47,0,0,0-.95,0l-.33,0c-.2,0-.37,0-.37-.26s.13-.21.26-.26.5-.19.5-.89V93.49a2.11,2.11,0,0,0-2-2.16,2.24,2.24,0,0,0-1.68.67,1.15,1.15,0,0,0-.36.66v4.08c0,.71.55.8,1,.87.3,0,.56.09.56.31s-.2.3-.44.3a2.49,2.49,0,0,1-.37,0c-.28,0-.65,0-1.32,0s-1,0-1.24.06h-.26c-.21,0-.37,0-.37-.26s.16-.21.34-.26a.78.78,0,0,0,.7-.89v-4.4c0-.62-.47-.68-.86-.73-.24,0-.45-.06-.45-.24a.25.25,0,0,1,.2-.25,5.1,5.1,0,0,0,1.68-.66,1.25,1.25,0,0,1,.56-.23.31.31,0,0,1,.27.34v1.08l0,0a3.36,3.36,0,0,1,2.48-1.23,2.65,2.65,0,0,1,2.38,1.17,4.19,4.19,0,0,1,.56,2.19v2.93c0,.71.49.8.88.87s.5.09.5.31S154.37,98.22,154.2,98.22Zm-1.54-.17c.57,0,1,0,1.23,0l.31,0c.19,0,.25,0,.25-.2s-.15-.16-.41-.21-1-.18-1-1V93.81c0-3-2-3.26-2.84-3.26a3.27,3.27,0,0,0-2.41,1.2c-.11.12-.14.15-.18.12s0,0,0-.07V90.64c0-.15-.09-.24-.17-.24a1.16,1.16,0,0,0-.51.22,5.2,5.2,0,0,1-1.71.67.14.14,0,0,0-.12.15c0,.08.14.11.37.14s.94.12.94.83v4.4a.88.88,0,0,1-.78,1c-.17,0-.26.08-.26.16s0,.16.27.16h.26a9.83,9.83,0,0,1,1.24-.06c.67,0,1.05,0,1.33,0l.36,0c.27,0,.34,0,.34-.2s-.18-.17-.48-.21-1.08-.18-1.08-1V92.66a1.26,1.26,0,0,1,.38-.73,2.38,2.38,0,0,1,1.76-.7,2.21,2.21,0,0,1,2.12,2.26v3.32c0,.77-.34.9-.57,1s-.19.07-.19.16,0,.16.27.16l.32,0C151.92,98.08,152.23,98.05,152.66,98.05Z"/><path class="cls-7" d="M157.45,96.74c0,1.22,1.56.71,1.56,1.18,0,.22-.12.25-.39.25s-.65-.07-1.68-.07-1.3.07-1.51.07-.32,0-.32-.21c0-.35,1,0,1-1.15v-4.4c0-1.06-1.31-.6-1.31-1a.2.2,0,0,1,.16-.2c1.47-.32,1.82-.89,2.23-.89.11,0,.21.11.21.29v1.17A3.88,3.88,0,0,1,160,90.5c2.38,0,2.89,2,2.89,3.31v2.93c0,1.22,1.39.71,1.39,1.18,0,.22-.13.25-.3.25s-.68-.07-1.55-.07c-.67,0-1,.07-1.27.07s-.32,0-.32-.21c0-.35.76,0,.76-1.15V93.49a2.16,2.16,0,0,0-2.07-2.21,2,2,0,0,0-2.1,1.38Z"/><path class="cls-7" d="M164,98.22a2,2,0,0,1-.32,0c-.26,0-.65,0-1.23,0-.42,0-.72,0-.95,0l-.32,0c-.21,0-.37,0-.37-.26s.13-.21.25-.26.51-.19.51-.89V93.49a2.11,2.11,0,0,0-2-2.16,2.27,2.27,0,0,0-1.69.67,1.22,1.22,0,0,0-.36.66v4.08c0,.71.56.8,1,.87s.55.09.55.31-.2.3-.44.3a2.43,2.43,0,0,1-.36,0c-.28,0-.66,0-1.32,0a12.32,12.32,0,0,0-1.24.06h-.27c-.2,0-.37,0-.37-.26s.17-.21.34-.26a.78.78,0,0,0,.71-.89v-4.4c0-.62-.48-.68-.86-.73s-.45-.06-.45-.24a.25.25,0,0,1,.2-.25,5.2,5.2,0,0,0,1.68-.66,1.17,1.17,0,0,1,.56-.23c.13,0,.26.13.26.34v1.08l0,0A3.38,3.38,0,0,1,160,90.45a2.63,2.63,0,0,1,2.38,1.17,4.21,4.21,0,0,1,.57,2.19v2.93c0,.71.49.8.88.87s.5.09.5.31S164.17,98.22,164,98.22Zm-1.55-.17c.58,0,1,0,1.23,0l.32,0c.19,0,.25,0,.25-.2s-.15-.16-.42-.21-1-.18-1-1V93.81c0-3-2-3.26-2.84-3.26a3.26,3.26,0,0,0-2.4,1.2c-.11.12-.14.15-.19.12s0,0,0-.07V90.64c0-.15-.08-.24-.16-.24a1.11,1.11,0,0,0-.51.22,5.3,5.3,0,0,1-1.71.67.14.14,0,0,0-.12.15c0,.08.14.11.36.14.38,0,1,.12,1,.83v4.4a.88.88,0,0,1-.78,1c-.17,0-.27.08-.27.16s0,.16.27.16h.26a10,10,0,0,1,1.25-.06c.67,0,1.05,0,1.32,0l.36,0c.28,0,.34,0,.34-.2s-.18-.17-.47-.21c-.46-.08-1.09-.18-1.09-1V92.66a1.23,1.23,0,0,1,.39-.73,2.38,2.38,0,0,1,1.76-.7,2.21,2.21,0,0,1,2.12,2.26v3.32c0,.77-.34.9-.57,1s-.19.07-.19.16,0,.16.27.16l.31,0C161.72,98.08,162,98.05,162.45,98.05Z"/><path class="cls-7" d="M166,92.41c0-1.06-1-.6-1-1a.2.2,0,0,1,.16-.2c1.14-.32,1.49-.89,1.9-.89.11,0,.21.11.21.29V97c0,.91,1.4.52,1.4,1,0,.14-.1.19-.33.19-.38,0-.93-.07-1.65-.07-.57,0-1,.07-1.23.07s-.24,0-.26-.19c0-.45.78.23.78-1.38Zm1.38-4.63c0,.22-.51.92-.74.92s-.75-.72-.75-.92.53-.94.75-.94S167.36,87.57,167.36,87.78Z"/><path class="cls-7" d="M168.34,98.22l-.57,0c-.29,0-.66,0-1.08,0s-.67,0-.9,0l-.33,0c-.14,0-.29,0-.31-.24s.13-.22.25-.25.53-.12.53-1.13V92.41c0-.63-.35-.69-.63-.73s-.35-.06-.35-.24a.25.25,0,0,1,.2-.25,4.25,4.25,0,0,0,1.3-.62,1.23,1.23,0,0,1,.61-.27c.13,0,.26.13.26.34V97c0,.49.45.57.84.64s.56.1.56.34S168.52,98.22,168.34,98.22Zm-1.65-.17c.42,0,.79,0,1.09,0l.56,0c.26,0,.28-.07.28-.14s-.18-.18-.48-.24-.92-.17-.92-.74V90.64c0-.15-.08-.24-.16-.24a1.08,1.08,0,0,0-.55.26,4.59,4.59,0,0,1-1.33.63.15.15,0,0,0-.13.15c0,.08.08.1.27.14a.72.72,0,0,1,.71.83V96.6c0,1.09-.37,1.18-.61,1.23s-.17,0-.17.15.07.14.21.14l.32,0C166,98.08,166.33,98.05,166.69,98.05Zm-.07-9.29c-.26,0-.8-.77-.8-1s.54-1,.8-1,.79.76.79,1S166.89,88.76,166.62,88.76Zm0-1.87c-.18,0-.7.72-.7.89s.52.87.7.87.69-.67.69-.87S166.81,86.89,166.62,86.89Z"/><path class="cls-7" d="M171.7,96.74c0,1.22,1.56.71,1.56,1.18,0,.22-.12.25-.39.25s-.65-.07-1.68-.07-1.3.07-1.51.07-.32,0-.32-.21c0-.35,1,0,1-1.15v-4.4c0-1.06-1.31-.6-1.31-1a.2.2,0,0,1,.16-.2c1.47-.32,1.82-.89,2.23-.89.11,0,.21.11.21.29v1.17a3.88,3.88,0,0,1,2.57-1.31c2.38,0,2.89,2,2.89,3.31v2.93c0,1.22,1.39.71,1.39,1.18,0,.22-.13.25-.3.25s-.68-.07-1.55-.07c-.67,0-1,.07-1.27.07s-.32,0-.32-.21c0-.35.76,0,.76-1.15V93.49a2.16,2.16,0,0,0-2.08-2.21,2,2,0,0,0-2.09,1.38Z"/><path class="cls-7" d="M178.25,98.22a2.13,2.13,0,0,1-.33,0c-.25,0-.65,0-1.22,0-.42,0-.73,0-.95,0l-.32,0c-.21,0-.37,0-.37-.26s.13-.21.25-.26.51-.19.51-.89V93.49a2.11,2.11,0,0,0-2-2.16,2.26,2.26,0,0,0-1.68.67,1.22,1.22,0,0,0-.36.66v4.08c0,.71.56.8,1,.87.29,0,.55.09.55.31s-.2.3-.44.3a2.56,2.56,0,0,1-.37,0c-.27,0-.65,0-1.31,0a12.32,12.32,0,0,0-1.24.06h-.27c-.2,0-.37,0-.37-.26s.17-.21.34-.26a.78.78,0,0,0,.71-.89v-4.4c0-.62-.48-.68-.86-.73s-.45-.06-.45-.24a.25.25,0,0,1,.2-.25,5.2,5.2,0,0,0,1.68-.66,1.17,1.17,0,0,1,.56-.23c.13,0,.26.13.26.34v1.08l0,0a3.36,3.36,0,0,1,2.48-1.23,2.63,2.63,0,0,1,2.38,1.17,4.19,4.19,0,0,1,.56,2.19v2.93c0,.71.49.8.89.87s.5.09.5.31S178.42,98.22,178.25,98.22Zm-1.55-.17c.58,0,1,0,1.23,0l.32,0c.19,0,.25,0,.25-.2s-.15-.16-.42-.21-1-.18-1-1V93.81c0-3-2-3.26-2.84-3.26a3.26,3.26,0,0,0-2.4,1.2c-.11.12-.14.15-.19.12s0,0,0-.07V90.64c0-.15-.08-.24-.16-.24a1.11,1.11,0,0,0-.51.22,5.3,5.3,0,0,1-1.71.67.14.14,0,0,0-.12.15c0,.08.14.11.36.14.38,0,1,.12,1,.83v4.4a.88.88,0,0,1-.78,1c-.18,0-.27.08-.27.16s0,.16.27.16h.26a10,10,0,0,1,1.25-.06c.67,0,1.05,0,1.32,0l.36,0c.28,0,.34,0,.34-.2s-.18-.17-.47-.21c-.46-.08-1.09-.18-1.09-1V92.66a1.23,1.23,0,0,1,.39-.73,2.37,2.37,0,0,1,1.75-.7,2.22,2.22,0,0,1,2.13,2.26v3.32c0,.77-.35.9-.57,1s-.19.07-.19.16,0,.16.27.16l.31,0C176,98.08,176.28,98.05,176.7,98.05Z"/><path class="cls-7" d="M184.56,91.2c.85,0,.94-1.13,1.19-1.13s.14.18.14.28c0,1.37-.26,1.44-.92,1.85a4.17,4.17,0,0,1,.12.94,2.73,2.73,0,0,1-2.94,2.71,5.51,5.51,0,0,1-1.22-.14c-.43,0-.85.57-.85,1,0,.15-.15.85,2.09.85,1.49,0,3.49-.17,3.49,1.58,0,1.12-.94,2.59-3.9,2.59-1.13,0-3-.42-3-1.88a1.8,1.8,0,0,1,1.3-1.49,1.4,1.4,0,0,1-.68-1.4c0-.71.91-1.43.93-1.43v0a2.54,2.54,0,0,1-1.14-2.18A2.77,2.77,0,0,1,182,90.5C183.5,90.5,184.07,91.2,184.56,91.2Zm-2.69,10.09c2.43,0,2.94-1.11,2.94-1.75s-.62-.78-2.45-.84a11.27,11.27,0,0,1-1.86-.17c-.55,0-.87.81-.87,1.27C179.63,101,180.89,101.29,181.87,101.29Zm.26-10.4c-1.31,0-1.73,1-1.73,2.18s.49,2.39,1.8,2.39,1.74-1,1.74-2.11S183.46,90.89,182.13,90.89Z"/><path class="cls-7" d="M181.76,101.75c-1,0-3-.4-3-1.93a1.8,1.8,0,0,1,1.22-1.49,1.53,1.53,0,0,1-.6-1.4,2.32,2.32,0,0,1,.91-1.45,2.59,2.59,0,0,1-1.12-2.2A2.8,2.8,0,0,1,182,90.45a4,4,0,0,1,1.94.49,1.41,1.41,0,0,0,.59.21c.52,0,.74-.45.9-.78s.17-.35.29-.35a.19.19,0,0,1,.13,0c.07.06.06.17.06.26v0c0,1.31-.26,1.47-.82,1.82l-.09,0a4.08,4.08,0,0,1,.12.92,2.77,2.77,0,0,1-3,2.76,3.66,3.66,0,0,1-1-.1.56.56,0,0,0-.21,0c-.4,0-.8.54-.8.92v0a.44.44,0,0,0,.12.36c.19.19.67.41,1.92.41h.38c1,0,2.18,0,2.77.57a1.41,1.41,0,0,1,.39,1.06C185.71,100.33,184.68,101.75,181.76,101.75Zm-1.44-6.2c-.11.08-.88.75-.88,1.38,0,.33.06,1.13.64,1.36l.12,0-.12,0a1.72,1.72,0,0,0-1.26,1.44c0,1.45,1.92,1.83,2.94,1.83,2.84,0,3.85-1.37,3.85-2.54a1.34,1.34,0,0,0-.36-1c-.56-.56-1.7-.55-2.7-.54h-.38a3,3,0,0,1-2-.45.5.5,0,0,1-.15-.43v0a1.1,1.1,0,0,1,.9-1,.62.62,0,0,1,.23,0,3.59,3.59,0,0,0,1,.1A2.67,2.67,0,0,0,185,93.14a4.23,4.23,0,0,0-.12-.93v0l.15-.09c.57-.35.78-.48.78-1.73v0a.34.34,0,0,0,0-.18l-.06,0c-.05,0-.13.15-.2.29-.16.34-.4.85-1,.85a1.51,1.51,0,0,1-.64-.23,3.92,3.92,0,0,0-1.89-.48,2.71,2.71,0,0,0-2.81,2.73,2.5,2.5,0,0,0,1.11,2.14h0v.12Zm1.55,5.79c-.54,0-2.29-.11-2.29-1.54,0-.46.32-1.32.92-1.32l.16,0a10.28,10.28,0,0,0,1.71.15c1.76.06,2.49.08,2.49.89C184.86,99.84,184.72,101.34,181.87,101.34Zm-1.37-2.76c-.53,0-.82.81-.82,1.22,0,1.34,1.68,1.44,2.19,1.44,2.75,0,2.89-1.42,2.89-1.7,0-.68-.54-.73-2.4-.78a10,10,0,0,1-1.72-.16Zm1.7-3.07c-1.28,0-1.86-1.23-1.86-2.44,0-1.44.64-2.24,1.79-2.24S184,92.1,184,93.35,183.32,95.51,182.2,95.51Zm-.07-4.57c-1.46,0-1.68,1.33-1.68,2.13,0,1.73.94,2.34,1.75,2.34.51,0,1.69-.2,1.69-2.06S182.94,90.94,182.13,90.94Z"/><path class="cls-7" d="M198.29,88.12c0,.09-.11.14-.18.14s-.21-.21-.27-.32a3,3,0,0,0-2.42-1.86,1.42,1.42,0,0,0-1.48,1.44c0,1.18,2.63,4,6.46,7.53a2.65,2.65,0,0,0,.51-1.88c0-2.07-1.66-1.36-1.66-1.93,0-.19.26-.16.4-.16.66,0,1.28.07,1.55.07s.53-.07,1.13-.07c.16,0,.25,0,.25.21s-.67.09-.76.87a8.41,8.41,0,0,1-.84,3.26c.68.54,2.34,2.26,3.14,2.26a4.45,4.45,0,0,0,.66-.09.13.13,0,0,1,.14.14c0,.3-.89.57-1.47.57-1.33,0-2.31-1-3.28-1.79a6.1,6.1,0,0,1-4.36,1.79c-2.61,0-4.9-1.72-4.9-4.49a3.52,3.52,0,0,1,2.84-3.76,3.28,3.28,0,0,1-.82-2c0-1.61,1.44-2.41,2.88-2.41a4.27,4.27,0,0,1,1.89.48c.09,0,.16-.16.32-.16s.22.34.22.5Zm1.29,8c-3.79-3.25-5.14-5.62-5.78-5.62-1.11,0-1.93,1.38-1.93,2.41a4.62,4.62,0,0,0,4.54,4.34A5,5,0,0,0,199.58,96.12Z"/><path class="cls-7" d="M203.45,98.35a4.64,4.64,0,0,1-2.88-1.44l-.4-.34a6.05,6.05,0,0,1-4.36,1.78,5.25,5.25,0,0,1-3.46-1.22,4.27,4.27,0,0,1-1.49-3.32,3.56,3.56,0,0,1,2.8-3.79,3.3,3.3,0,0,1-.78-2c0-1.69,1.52-2.46,2.93-2.46a4,4,0,0,1,1.77.42l.13.06.07,0a.36.36,0,0,1,.24-.11.21.21,0,0,1,.17.07.6.6,0,0,1,.1.42v.06l.05,1.68c0,.12-.14.19-.23.19s-.23-.17-.28-.28l0-.07a2.91,2.91,0,0,0-2.38-1.83A1.38,1.38,0,0,0,194,87.52c0,1,2.1,3.47,6.4,7.46a2.63,2.63,0,0,0,.47-1.81c0-1.32-.68-1.47-1.17-1.58-.27-.06-.49-.11-.49-.35a.17.17,0,0,1,.05-.14.46.46,0,0,1,.35-.07h.05c.41,0,.79,0,1.1,0l.45,0,.3,0a7.3,7.3,0,0,1,.83,0c.16,0,.3,0,.3.26s-.12.2-.26.25a.67.67,0,0,0-.5.63,8.75,8.75,0,0,1-.82,3.24c.16.13.36.31.6.53.75.67,1.88,1.69,2.47,1.69a2.27,2.27,0,0,0,.48-.06l.18,0a.18.18,0,0,1,.19.19C205,98.08,204.05,98.35,203.45,98.35Zm-3.28-1.91,0,0c.15.11.29.24.44.36a4.54,4.54,0,0,0,2.81,1.42c.58,0,1.42-.27,1.42-.52a.09.09,0,0,0-.09-.09l-.16,0a1.79,1.79,0,0,1-.5.07c-.62,0-1.73-1-2.54-1.72l-.63-.55,0,0,0,0a8.19,8.19,0,0,0,.83-3.24.76.76,0,0,1,.57-.72c.13,0,.19-.08.19-.15s0-.16-.2-.16a7.25,7.25,0,0,0-.82.05l-.31,0-.46,0c-.31,0-.69-.05-1.09-.05h-.13a.37.37,0,0,0-.2,0,.1.1,0,0,0,0,.07c0,.15.14.19.41.25.5.11,1.25.28,1.25,1.68a2.74,2.74,0,0,1-.52,1.92l0,0,0,0c-4.41-4.09-6.47-6.49-6.47-7.57A1.48,1.48,0,0,1,195.42,86a3,3,0,0,1,2.47,1.89l0,.07c.05.13.1.22.19.22s.13,0,.13-.09l-.06-1.68v-.06c0-.11,0-.28-.07-.35a.12.12,0,0,0-.1,0,.27.27,0,0,0-.17.08s-.09.08-.15.08a.67.67,0,0,1-.16-.06,3.75,3.75,0,0,0-1.73-.42c-1.36,0-2.83.74-2.83,2.36a3.24,3.24,0,0,0,.81,2l.05.06-.08,0a3.47,3.47,0,0,0-2.8,3.71,4.5,4.5,0,0,0,4.85,4.44,6,6,0,0,0,4.32-1.78Zm-3.76.86a4.67,4.67,0,0,1-4.59-4.39c0-1.12.88-2.46,2-2.46.32,0,.74.48,1.52,1.35a41.61,41.61,0,0,0,4.3,4.28l0,0,0,0A5,5,0,0,1,196.41,97.3Zm-2.61-6.75c-1,0-1.88,1.29-1.88,2.36a4.57,4.57,0,0,0,4.49,4.29,4.86,4.86,0,0,0,3.09-1.08,44,44,0,0,1-4.26-4.25C194.51,91,194.07,90.55,193.8,90.55Z"/><path class="cls-7" d="M61.49,107.1c0-1.35-1.57-1.17-1.57-1.53s.26-.25.47-.25.71.08,1.42.08,1.42-.08,2.84-.08c3.12,0,3.9,1.71,3.9,3a3.11,3.11,0,0,1-1.67,2.52c0,.26,2.79.32,2.79,3.26,0,1.17-.85,3.76-4.31,3.76-.64,0-1.7-.07-2.31-.07-.81,0-1.64.07-2.46.07-.09,0-.44,0-.44-.2s.21-.23.53-.33.81-.15.81-1.53Zm1.4,3.06c0,.57-.21.66,1.39.66,2.91,0,3-1.08,3-1.91,0-1.92-1.62-3-3.41-3-1.11,0-1,.3-1,1.33Zm0,5.59c0,1.28-.08,1.65,2.43,1.65s3-1.56,3-2.63-.07-3.4-4.15-3.4c-1.36,0-1.28.25-1.28.41Z"/><path class="cls-7" d="M65.36,117.93c-.33,0-.76,0-1.19,0l-1.12,0-1.23,0c-.4,0-.82,0-1.23,0,0,0-.49,0-.49-.25s.2-.26.48-.36l.12,0c.22-.06.74-.19.74-1.47V107.1c0-.86-.64-1.07-1.12-1.22-.25-.09-.45-.15-.45-.31a.27.27,0,0,1,.07-.2.59.59,0,0,1,.42-.1h0l.48,0c.23,0,.53,0,.94,0l.93,0c.48,0,1.08,0,1.91,0a4.32,4.32,0,0,1,3.16,1,2.87,2.87,0,0,1,.79,2,2.8,2.8,0,0,1-1.5,2.42l-.16.1a1.57,1.57,0,0,0,.34.14,3,3,0,0,1,2.44,3.12C69.72,115.18,68.94,117.93,65.36,117.93Zm-2.31-.17,1.13,0c.42,0,.86,0,1.18,0,3.49,0,4.26-2.68,4.26-3.71a3,3,0,0,0-2.37-3c-.28-.09-.42-.14-.42-.23s.06-.09.21-.19a2.7,2.7,0,0,0,1.46-2.33c0-.89-.37-3-3.85-3-.83,0-1.42,0-1.9,0l-.94,0c-.41,0-.71,0-1,0l-.47,0h0a.52.52,0,0,0-.35.07.17.17,0,0,0,0,.13c0,.09.18.14.38.21.48.16,1.2.39,1.2,1.32v8.72c0,1.36-.6,1.51-.83,1.57l-.11,0c-.28.09-.41.14-.41.26s.26.15.39.15c.41,0,.83,0,1.23,0S62.65,117.76,63.05,117.76Zm2.27-.31c-1.34,0-1.94-.11-2.23-.4s-.25-.62-.25-1.17v-4.13a.3.3,0,0,1,.07-.22c.09-.09.32-.21,1.26-.21,4.2,0,4.2,2.42,4.2,3.45a2.7,2.7,0,0,1-.63,1.75A3,3,0,0,1,65.32,117.45Zm-1.15-6c-.67,0-1.07.06-1.18.18a.14.14,0,0,0,0,.15v4.13c0,.53,0,.88.21,1.1s.85.37,2.16.37,3-.68,3-2.58C68.27,113.77,68.27,111.42,64.17,111.42Zm.11-.55c-.9,0-1.24,0-1.37-.16a.48.48,0,0,1-.07-.37V107c0-.49,0-.78.18-1s.41-.21.9-.21a3.81,3.81,0,0,1,2.41.79,2.81,2.81,0,0,1,1,2.26C67.38,109.59,67.38,110.87,64.28,110.87ZM63.92,106c-.46,0-.7.05-.83.18s-.15.43-.15.89a1.41,1.41,0,0,1,0,.21v2.92c0,.07,0,.13,0,.18s0,.24,0,.3.51.13,1.3.13c2.77,0,3-1,3-1.86A3,3,0,0,0,63.92,106Z"/><path class="cls-7" d="M76,111.49c0-.67-.94-.24-.94-.67,0-.14.23-.16.31-.16a3,3,0,0,0,1-.11,3.47,3.47,0,0,1,.64-.08.38.38,0,0,1,.32.42V117c0,.46,1.12.23,1.12.62,0,.14-.38.16-.66.16a4.5,4.5,0,0,0-1,.09,2,2,0,0,1-.6.1c-.14,0-.16-.19-.16-.26v-1h0A2.76,2.76,0,0,1,73.59,118,2.38,2.38,0,0,1,71,115.63v-4.14c0-.67-.94-.24-.94-.67,0-.14.23-.16.32-.16a3,3,0,0,0,1-.11,3.47,3.47,0,0,1,.64-.08.38.38,0,0,1,.32.42v4.49a1.76,1.76,0,0,0,1.72,2c1,0,1.9-.74,1.94-1.26Z"/><path class="cls-7" d="M76.14,118.05c-.16,0-.21-.17-.21-.31v-.87a2.79,2.79,0,0,1-2.34,1.18A2.43,2.43,0,0,1,71,115.63v-4.14c0-.33-.25-.36-.51-.39s-.43,0-.43-.28.28-.21.37-.21a3.25,3.25,0,0,0,.94-.1l.14,0a2.24,2.24,0,0,1,.51-.07.44.44,0,0,1,.37.48v4.49a2,2,0,0,0,.5,1.46,1.81,1.81,0,0,0,1.17.49c1,0,1.85-.73,1.88-1.21v-4.63c0-.33-.24-.36-.5-.39s-.44,0-.44-.28.29-.21.37-.21a3.4,3.4,0,0,0,1-.1l.14,0a2.16,2.16,0,0,1,.51-.07.44.44,0,0,1,.37.48V117c0,.18.23.23.55.29s.57.1.57.33-.36.21-.71.21a5.25,5.25,0,0,0-.89.07l-.06,0-.08,0A1.85,1.85,0,0,1,76.14,118.05Zm-.22-1.34H76v1s0,.21.11.21a1.69,1.69,0,0,0,.5-.08l.09,0,.07,0a5.29,5.29,0,0,1,.9-.07c.56,0,.61-.09.61-.11s-.2-.18-.49-.23-.63-.11-.63-.39v-6.14a.33.33,0,0,0-.27-.37,2.11,2.11,0,0,0-.49.06l-.14,0a3,3,0,0,1-1,.11c-.1,0-.26,0-.26.11s.1.16.34.18.6.07.6.49v4.63c0,.58-1,1.31-2,1.31a1.84,1.84,0,0,1-1.24-.52,2.07,2.07,0,0,1-.53-1.53v-4.49c0-.31-.22-.37-.27-.37a2,2,0,0,0-.48.06l-.15,0a2.93,2.93,0,0,1-1,.11c-.1,0-.27,0-.27.11s.1.16.34.18.6.07.6.49v4.14A2.33,2.33,0,0,0,73.59,118a2.67,2.67,0,0,0,2.31-1.22Z"/><path class="cls-7" d="M79.15,112.33a2.14,2.14,0,0,1,2.4-2.13c.3,0,1.52.14,1.73.41a2.37,2.37,0,0,1,.09.87c0,.47.07.69-.19.69s-.34-1.54-2-1.54A1.12,1.12,0,0,0,80,111.76c0,.59.46,1,2.32,1.7a2,2,0,0,1,1.47,2.11A2.42,2.42,0,0,1,81.39,118c-1.24,0-1.56-.51-2-.51s-.39,0-.39-1.42c0-.3-.05-.87.21-.87s.2,2.34,2.11,2.34a1.45,1.45,0,0,0,1.58-1.45c0-.94-.9-1.23-1.61-1.56C80.34,114.05,79.15,113.59,79.15,112.33Z"/><path class="cls-7" d="M81.39,118.05a3.1,3.1,0,0,1-1.53-.36,1.17,1.17,0,0,0-.46-.15c-.44,0-.44-.06-.44-1.47v-.13c0-.27,0-.6.12-.73a.2.2,0,0,1,.14-.06c.16,0,.23.23.33.57.2.71.5,1.77,1.78,1.77a1.38,1.38,0,0,0,1.53-1.4c0-.8-.68-1.11-1.33-1.4l-.25-.12-.26-.12c-.9-.44-1.92-.94-1.92-2.12a2.18,2.18,0,0,1,2.45-2.18c.28,0,1.54.14,1.77.43a1.8,1.8,0,0,1,.1.85v0c0,.09,0,.17,0,.24,0,.22,0,.36-.07.44a.24.24,0,0,1-.18.06c-.08,0-.12-.1-.2-.27a1.79,1.79,0,0,0-1.75-1.27A1.07,1.07,0,0,0,80,111.76c0,.57.51.94,2.29,1.66a2.06,2.06,0,0,1,1.5,2.15A2.46,2.46,0,0,1,81.39,118.05Zm-2.17-2.8a.09.09,0,0,0-.07,0c-.1.1-.1.42-.09.65v.14c0,1.37,0,1.37.34,1.37a1.12,1.12,0,0,1,.5.16,3,3,0,0,0,1.49.35,2.36,2.36,0,0,0,2.34-2.38,2,2,0,0,0-1.44-2.06c-1.85-.74-2.36-1.12-2.36-1.75a1.18,1.18,0,0,1,1.3-1.19,1.91,1.91,0,0,1,1.84,1.34,1.21,1.21,0,0,0,.11.21.15.15,0,0,0,.11,0s0-.18,0-.36a2,2,0,0,1,0-.25v0a1.73,1.73,0,0,0-.08-.79,3.73,3.73,0,0,0-1.69-.39,2.1,2.1,0,0,0-2.35,2.08c0,1.12,1,1.58,1.87,2l.25.12.25.12c.65.29,1.39.62,1.39,1.49a1.5,1.5,0,0,1-1.63,1.5c-1.35,0-1.68-1.15-1.88-1.84C79.38,115.49,79.31,115.25,79.22,115.25Z"/><path class="cls-7" d="M85.58,112.11c0-1.06-1-.6-1-1a.18.18,0,0,1,.15-.19c1.14-.32,1.49-.89,1.9-.89.11,0,.21.1.21.28v6.37c0,.9,1.41.51,1.41,1,0,.14-.11.2-.34.2s-.92-.07-1.65-.07c-.57,0-1,.07-1.22.07s-.25,0-.27-.2c0-.44.78.23.78-1.38ZM87,107.49c0,.21-.51.92-.74.92s-.75-.73-.75-.92.54-.94.75-.94S87,107.27,87,107.49Z"/><path class="cls-7" d="M87.94,117.93l-.56,0c-.3,0-.67,0-1.09,0s-.67,0-.9,0l-.32,0c-.14,0-.3,0-.32-.24s.13-.23.25-.26.53-.11.53-1.13v-4.19c0-.62-.35-.68-.63-.73s-.35-.06-.35-.24a.24.24,0,0,1,.21-.24,4.29,4.29,0,0,0,1.29-.62,1.18,1.18,0,0,1,.61-.27.3.3,0,0,1,.27.33v6.37c0,.48.44.56.83.63s.57.11.57.34S88.12,117.93,87.94,117.93Zm-1.65-.17c.43,0,.8,0,1.09,0l.56,0c.26,0,.28-.08.28-.15s-.18-.18-.48-.24-.92-.16-.92-.73v-6.37c0-.14-.08-.23-.16-.23a1.18,1.18,0,0,0-.55.25,4.46,4.46,0,0,1-1.33.63.15.15,0,0,0-.12.15c0,.09.07.11.26.14a.72.72,0,0,1,.71.83v4.19c0,1.1-.36,1.18-.61,1.23s-.17,0-.17.15.07.15.22.15l.31,0C85.61,117.78,85.93,117.76,86.29,117.76Zm-.07-9.3c-.26,0-.8-.76-.8-1s.54-1,.8-1,.79.75.79,1S86.49,108.46,86.22,108.46Zm0-1.86c-.17,0-.7.71-.7.89s.53.87.7.87.69-.68.69-.87S86.41,106.6,86.22,106.6Z"/><path class="cls-7" d="M91.3,116.44c0,1.22,1.57.71,1.57,1.19,0,.21-.13.25-.39.25s-.66-.07-1.69-.07-1.29.07-1.51.07-.32,0-.32-.22c0-.35,1.05,0,1.05-1.15v-4.4c0-1.06-1.31-.6-1.31-1a.18.18,0,0,1,.16-.19c1.47-.32,1.82-.89,2.23-.89.11,0,.21.1.21.28v1.17a3.93,3.93,0,0,1,2.58-1.31c2.37,0,2.89,2,2.89,3.32v2.92c0,1.22,1.38.71,1.38,1.19,0,.21-.12.25-.3.25s-.68-.07-1.55-.07c-.67,0-1,.07-1.27.07s-.32,0-.32-.22c0-.35.76,0,.76-1.15V113.2A2.16,2.16,0,0,0,93.4,111a2,2,0,0,0-2.1,1.38Z"/><path class="cls-7" d="M97.85,117.93l-.32,0c-.26,0-.65,0-1.23,0-.42,0-.72,0-1,0l-.32,0c-.2,0-.37,0-.37-.27s.13-.21.25-.25.51-.19.51-.9V113.2a2.11,2.11,0,0,0-2-2.17,2.29,2.29,0,0,0-1.69.68,1.13,1.13,0,0,0-.35.65v4.08c0,.71.55.8,1,.87.3,0,.56.09.56.32s-.2.3-.44.3l-.37,0c-.28,0-.65,0-1.32,0s-1,0-1.24,0l-.27,0c-.2,0-.37,0-.37-.27s.17-.21.35-.25a.79.79,0,0,0,.7-.9v-4.4c0-.62-.48-.68-.86-.73s-.45-.06-.45-.24a.24.24,0,0,1,.2-.24,5.15,5.15,0,0,0,1.68-.67,1.18,1.18,0,0,1,.56-.22.3.3,0,0,1,.27.33v1.08l0,0a3.44,3.44,0,0,1,2.49-1.23,2.65,2.65,0,0,1,2.38,1.17,4.3,4.3,0,0,1,.56,2.2v2.92c0,.71.49.8.88.87s.5.09.5.32S98,117.93,97.85,117.93Zm-1.55-.17c.58,0,1,0,1.23,0l.32,0c.19,0,.25,0,.25-.2s-.15-.17-.42-.22-1-.17-1-1v-2.92c0-3-2-3.27-2.84-3.27a3.27,3.27,0,0,0-2.41,1.2c-.11.12-.14.15-.19.13a.1.1,0,0,1,0-.08v-1.16c0-.14-.08-.23-.16-.23a1.08,1.08,0,0,0-.51.21,5.3,5.3,0,0,1-1.71.67.15.15,0,0,0-.12.15c0,.09.14.11.36.14.38,0,1,.12,1,.83v4.4a.88.88,0,0,1-.78,1c-.17,0-.26.08-.26.16s0,.17.26.17l.26,0c.25,0,.61,0,1.25,0s1,0,1.32,0l.37,0c.27,0,.33,0,.33-.2s-.18-.17-.47-.22c-.46-.07-1.09-.17-1.09-1v-4.08a1.21,1.21,0,0,1,.39-.72,2.34,2.34,0,0,1,1.76-.71,2.21,2.21,0,0,1,2.12,2.27v3.31c0,.78-.34.91-.57,1s-.19.08-.19.16,0,.17.27.17l.31,0A7.57,7.57,0,0,1,96.3,117.76Z"/><path class="cls-7" d="M99.55,113.32c0,2.93,1.77,3.79,2.85,3.79,1.53,0,2.11-.92,2.5-.92.07,0,.07.07.07.13,0,.4-1.54,1.68-3.14,1.68a3.65,3.65,0,0,1-3.58-3.63c0-2.27,1.26-4.17,3.48-4.17a3.27,3.27,0,0,1,3.14,2.82c0,.32-.2.3-.61.3Zm3.49-.48c.25,0,.36-.09.36-.35a2,2,0,0,0-2-1.88c-1.1,0-1.88,1.26-1.88,2.23Z"/><path class="cls-7" d="M101.83,118.05a3.71,3.71,0,0,1-3.63-3.68c0-2.49,1.45-4.22,3.53-4.22a3.33,3.33,0,0,1,3.19,2.87.38.38,0,0,1-.08.26c-.1.09-.26.09-.51.09H99.6c0,1.31.61,3.69,2.8,3.69a3.28,3.28,0,0,0,2-.67,1.12,1.12,0,0,1,.51-.25c.12,0,.12.13.12.18C105,116.78,103.44,118.05,101.83,118.05Zm-.1-7.8c-2,0-3.43,1.69-3.43,4.12a3.6,3.6,0,0,0,3.53,3.58c1.6,0,3.09-1.27,3.09-1.63,0-.08,0-.08,0-.08a1.18,1.18,0,0,0-.46.24,3.36,3.36,0,0,1-2,.69c-1,0-2.9-.81-2.9-3.85v0h4.88c.19,0,.32,0,.38-.07a.22.22,0,0,0,.06-.18A3.22,3.22,0,0,0,101.73,110.25Zm1.31,2.64H99.5v0a2.25,2.25,0,0,1,1.93-2.28,2.09,2.09,0,0,1,2,1.93C103.45,112.77,103.32,112.89,103,112.89Zm-3.44-.1H103c.23,0,.3-.07.3-.3a2,2,0,0,0-1.91-1.83A2.14,2.14,0,0,0,99.6,112.79Z"/><path class="cls-7" d="M106,112.33a2.14,2.14,0,0,1,2.39-2.13,3.84,3.84,0,0,1,1.74.41,2.61,2.61,0,0,1,.09.87c0,.47.07.69-.2.69s-.34-1.54-2-1.54a1.12,1.12,0,0,0-1.24,1.13c0,.59.46,1,2.32,1.7a2,2,0,0,1,1.47,2.11,2.42,2.42,0,0,1-2.39,2.43c-1.24,0-1.56-.51-2-.51s-.39,0-.39-1.42c0-.3,0-.87.22-.87s.19,2.34,2.11,2.34a1.45,1.45,0,0,0,1.58-1.45c0-.94-.91-1.23-1.62-1.56C107.13,114.05,106,113.59,106,112.33Z"/><path class="cls-7" d="M108.18,118.05a3.13,3.13,0,0,1-1.53-.36,1.13,1.13,0,0,0-.46-.15c-.44,0-.44-.06-.44-1.47v-.13c0-.27,0-.6.12-.73a.2.2,0,0,1,.15-.06c.16,0,.22.23.32.57.2.71.51,1.77,1.79,1.77a1.38,1.38,0,0,0,1.52-1.4c0-.8-.67-1.11-1.32-1.4l-.26-.12-.25-.12c-.9-.44-1.92-.94-1.92-2.12a2.17,2.17,0,0,1,2.44-2.18c.28,0,1.55.14,1.78.43a2.1,2.1,0,0,1,.1.85v.29c0,.22,0,.36-.06.44a.25.25,0,0,1-.19.06c-.08,0-.12-.1-.2-.27a1.79,1.79,0,0,0-1.75-1.27,1.08,1.08,0,0,0-1.19,1.08c0,.57.51.94,2.29,1.66a2.06,2.06,0,0,1,1.5,2.15A2.46,2.46,0,0,1,108.18,118.05Zm-2.16-2.8a.11.11,0,0,0-.08,0c-.1.1-.09.42-.09.65,0,0,0,.1,0,.14,0,1.37,0,1.37.33,1.37a1.2,1.2,0,0,1,.51.16,3,3,0,0,0,1.48.35,2.36,2.36,0,0,0,2.34-2.38,2,2,0,0,0-1.44-2.06c-1.84-.74-2.35-1.12-2.35-1.75a1.18,1.18,0,0,1,1.29-1.19,1.93,1.93,0,0,1,1.85,1.34.76.76,0,0,0,.11.21.14.14,0,0,0,.1,0s0-.18,0-.36v-.3a2.11,2.11,0,0,0-.08-.79,3.77,3.77,0,0,0-1.7-.39,2.1,2.1,0,0,0-2.34,2.08c0,1.12,1,1.58,1.86,2l.25.12.26.12c.65.29,1.39.62,1.39,1.49a1.5,1.5,0,0,1-1.63,1.5c-1.36,0-1.69-1.15-1.89-1.84C106.17,115.49,106.1,115.25,106,115.25Z"/><path class="cls-7" d="M111.61,112.33a2.14,2.14,0,0,1,2.4-2.13c.3,0,1.52.14,1.73.41a2.37,2.37,0,0,1,.09.87c0,.47.07.69-.19.69s-.34-1.54-2-1.54a1.12,1.12,0,0,0-1.24,1.13c0,.59.46,1,2.32,1.7a2,2,0,0,1,1.47,2.11,2.42,2.42,0,0,1-2.39,2.43c-1.24,0-1.56-.51-2-.51s-.39,0-.39-1.42c0-.3,0-.87.21-.87s.2,2.34,2.11,2.34a1.45,1.45,0,0,0,1.58-1.45c0-.94-.9-1.23-1.61-1.56C112.8,114.05,111.61,113.59,111.61,112.33Z"/><path class="cls-7" d="M113.85,118.05a3.1,3.1,0,0,1-1.53-.36,1.17,1.17,0,0,0-.46-.15c-.44,0-.44-.06-.44-1.47v-.13c0-.27,0-.6.12-.73a.2.2,0,0,1,.14-.06c.16,0,.23.23.33.57.2.71.5,1.77,1.78,1.77a1.38,1.38,0,0,0,1.53-1.4c0-.8-.68-1.11-1.33-1.4l-.25-.12-.26-.12c-.9-.44-1.92-.94-1.92-2.12a2.18,2.18,0,0,1,2.45-2.18c.28,0,1.54.14,1.77.43a1.8,1.8,0,0,1,.1.85v0c0,.09,0,.17,0,.24,0,.22,0,.36-.07.44a.24.24,0,0,1-.18.06c-.08,0-.12-.1-.2-.27a1.79,1.79,0,0,0-1.75-1.27,1.07,1.07,0,0,0-1.19,1.08c0,.57.51.94,2.29,1.66a2.06,2.06,0,0,1,1.5,2.15A2.46,2.46,0,0,1,113.85,118.05Zm-2.17-2.8a.09.09,0,0,0-.07,0c-.1.1-.1.42-.09.65v.14c0,1.37,0,1.37.34,1.37a1.12,1.12,0,0,1,.5.16,3,3,0,0,0,1.49.35,2.36,2.36,0,0,0,2.34-2.38,2,2,0,0,0-1.44-2.06c-1.85-.74-2.36-1.12-2.36-1.75a1.18,1.18,0,0,1,1.3-1.19,1.91,1.91,0,0,1,1.84,1.34,1.21,1.21,0,0,0,.11.21.15.15,0,0,0,.11,0s0-.18,0-.36a2,2,0,0,1,0-.25v0a1.73,1.73,0,0,0-.08-.79,3.73,3.73,0,0,0-1.69-.39,2.1,2.1,0,0,0-2.35,2.08c0,1.12,1,1.58,1.87,2l.25.12.25.12c.65.29,1.39.62,1.39,1.49a1.5,1.5,0,0,1-1.63,1.5c-1.35,0-1.68-1.15-1.88-1.84C111.84,115.49,111.77,115.25,111.68,115.25Z"/><path class="cls-7" d="M122.82,107.22c0-1.81-1.45-1.24-1.45-1.72,0-.12.14-.18.24-.18.55,0,1.07.08,1.6.08,1.17,0,2.32-.08,3.85-.08,3.14,0,6.22,2.38,6.22,5.66,0,4.08-1.93,6.9-6.84,6.9-.91,0-1.81-.07-2.72-.07l-2,.07c-.14,0-.18-.07-.18-.18,0-.41,1.26,0,1.26-1.65Zm1.4,8.09c0,.28,0,1.13.11,1.29a4.41,4.41,0,0,0,2.73.8c2.51,0,4.91-1.35,4.91-5.45a5.76,5.76,0,0,0-6-6.18c-1.69,0-1.76.28-1.76,1.11Z"/><path class="cls-7" d="M126.44,117.93c-.46,0-.92,0-1.36,0s-.9,0-1.36,0l-1.09,0-.89,0a.2.2,0,0,1-.23-.23c0-.17.17-.22.36-.28.36-.11.9-.28.9-1.37v-8.83c0-1.15-.59-1.3-1-1.41-.23-.06-.43-.11-.43-.31s.16-.23.3-.23.55,0,.82,0,.52,0,.78,0l1.67,0c.67,0,1.36,0,2.18,0,3,0,6.27,2.3,6.27,5.71C133.33,115.53,131,117.93,126.44,117.93Zm-2.72-.17c.46,0,.92,0,1.36,0s.91,0,1.36,0c4.44,0,6.79-2.37,6.79-6.85,0-3.35-3.19-5.61-6.17-5.61-.81,0-1.51,0-2.18,0s-1.12,0-1.67,0c-.27,0-.53,0-.79,0s-.53,0-.81,0c-.07,0-.19,0-.19.13s.12.15.35.21c.44.11,1.1.28,1.1,1.51v8.83c0,1.17-.59,1.35-1,1.47-.19,0-.29.09-.29.18s0,.13.13.13l.89,0Zm3.34-.31a4.55,4.55,0,0,1-2.77-.81,2.18,2.18,0,0,1-.12-1.15v-8.61c0-.86.09-1.16,1.81-1.16a5.83,5.83,0,0,1,6,6.23,5.6,5.6,0,0,1-1.53,4.3A4.94,4.94,0,0,1,127.06,117.45ZM126,105.82c-1.71,0-1.71.29-1.71,1.06v8.61a2.8,2.8,0,0,0,.09,1.07,4.44,4.44,0,0,0,2.7.79,4.85,4.85,0,0,0,3.36-1.17,5.56,5.56,0,0,0,1.5-4.23A5.74,5.74,0,0,0,126,105.82Z"/><path class="cls-7" d="M135.23,113.32c0,2.93,1.78,3.79,2.86,3.79,1.52,0,2.11-.92,2.5-.92.07,0,.07.07.07.13,0,.4-1.54,1.68-3.14,1.68a3.65,3.65,0,0,1-3.58-3.63c0-2.27,1.26-4.17,3.47-4.17a3.27,3.27,0,0,1,3.14,2.82c0,.32-.19.3-.6.3Zm3.5-.48c.24,0,.35-.09.35-.35a2,2,0,0,0-2-1.88c-1.1,0-1.88,1.26-1.88,2.23Z"/><path class="cls-7" d="M137.52,118.05a3.7,3.7,0,0,1-3.63-3.68c0-2.49,1.45-4.22,3.52-4.22A3.33,3.33,0,0,1,140.6,113a.34.34,0,0,1-.08.26c-.09.09-.26.09-.51.09h-4.73c0,1.31.62,3.69,2.81,3.69a3.24,3.24,0,0,0,2-.67,1.15,1.15,0,0,1,.52-.25c.12,0,.12.13.12.18C140.71,116.78,139.12,118.05,137.52,118.05Zm-.11-7.8c-2,0-3.42,1.69-3.42,4.12a3.6,3.6,0,0,0,3.53,3.58c1.59,0,3.09-1.27,3.09-1.63,0-.08,0-.08,0-.08a1.07,1.07,0,0,0-.46.24,3.36,3.36,0,0,1-2,.69c-1,0-2.91-.81-2.91-3.85v0H140c.21,0,.37,0,.44-.07s.05-.09.05-.18A3.22,3.22,0,0,0,137.41,110.25Zm1.32,2.64h-3.55v0a2.26,2.26,0,0,1,1.93-2.28,2.08,2.08,0,0,1,2,1.93C139.13,112.77,139,112.89,138.73,112.89Zm-3.45-.1h3.45c.23,0,.3-.07.3-.3a2,2,0,0,0-1.92-1.83A2.14,2.14,0,0,0,135.28,112.79Z"/><path class="cls-7" d="M145.19,116.37l1.19-2.55a5.51,5.51,0,0,0,.78-2.25c0-1-1.1-.5-1.1-.94,0-.22.19-.23.42-.23.38,0,.71.07,1.1.07s.62-.07.93-.07.47,0,.47.26-.63.12-.88.66l-2.71,5.74c-.34.73-.34.94-.61.94s-.3-.3-.35-.42l-2.68-6.12c-.34-.8-1-.53-1-.85,0-.13,0-.21.37-.21s.33.07,1.5.07c.66,0,.89-.07,1.1-.07s.41,0,.41.19c0,.36-1,.12-1,.66a5.62,5.62,0,0,0,.3.86Z"/><path class="cls-7" d="M144.78,118.05c-.23,0-.32-.24-.37-.39l0-.06-2.68-6.12a1,1,0,0,0-.69-.62c-.15,0-.29-.09-.29-.25s.07-.27.43-.27l.3,0a7.94,7.94,0,0,0,1.2,0,7.18,7.18,0,0,0,.84,0l.26,0c.25,0,.46,0,.46.25s-.24.25-.47.3-.54.12-.54.36a6.52,6.52,0,0,0,.3.85l1.69,4.14,1.14-2.44.17-.35a4.38,4.38,0,0,0,.61-1.88c0-.56-.36-.61-.67-.66s-.43-.06-.43-.28.29-.29.47-.29a4.91,4.91,0,0,1,.55,0,4.8,4.8,0,0,0,.55,0,3.55,3.55,0,0,0,.46,0,3.57,3.57,0,0,1,.47,0c.13,0,.53,0,.53.32,0,.13-.14.18-.3.23a.92.92,0,0,0-.6.45l-2.71,5.74-.2.46C145.07,117.91,145,118.05,144.78,118.05Zm-3.63-7.6c-.32,0-.32.06-.32.16s0,.11.21.16a1.06,1.06,0,0,1,.76.67l2.67,6.12,0,.06c.07.18.13.33.28.33s.2-.08.36-.45c.05-.12.11-.28.2-.46l2.71-5.74a1,1,0,0,1,.66-.5c.14,0,.22-.08.22-.14s-.13-.21-.42-.21a3.55,3.55,0,0,0-.46,0,3.57,3.57,0,0,1-.47,0,4.92,4.92,0,0,1-.56,0,4.75,4.75,0,0,0-.54,0c-.28,0-.37,0-.37.18s.11.15.34.18.76.12.76.76a4.56,4.56,0,0,1-.62,1.93l-.17.34-1.23,2.66-1.78-4.37a5.16,5.16,0,0,1-.31-.88c0-.34.35-.41.62-.46s.39-.09.39-.2-.07-.14-.36-.14l-.25,0a6.65,6.65,0,0,1-.85,0,9.85,9.85,0,0,1-1.21,0A1.37,1.37,0,0,0,141.15,110.45Z"/><path class="cls-7" d="M150.38,113.32c0,2.93,1.77,3.79,2.85,3.79,1.53,0,2.11-.92,2.5-.92.07,0,.07.07.07.13,0,.4-1.54,1.68-3.13,1.68a3.66,3.66,0,0,1-3.59-3.63c0-2.27,1.26-4.17,3.48-4.17A3.27,3.27,0,0,1,155.7,113c0,.32-.2.3-.61.3Zm3.49-.48c.25,0,.36-.09.36-.35a2,2,0,0,0-2-1.88c-1.1,0-1.88,1.26-1.88,2.23Z"/><path class="cls-7" d="M152.67,118.05a3.71,3.71,0,0,1-3.64-3.68c0-2.49,1.45-4.22,3.53-4.22a3.33,3.33,0,0,1,3.19,2.87.38.38,0,0,1-.08.26c-.1.09-.26.09-.51.09h-4.73c0,1.31.61,3.69,2.8,3.69a3.28,3.28,0,0,0,2-.67,1.12,1.12,0,0,1,.51-.25c.12,0,.12.13.12.18C155.85,116.78,154.27,118.05,152.67,118.05Zm-.11-7.8c-2,0-3.43,1.69-3.43,4.12a3.61,3.61,0,0,0,3.54,3.58c1.59,0,3.08-1.27,3.08-1.63,0-.08,0-.08,0-.08a1.18,1.18,0,0,0-.46.24,3.36,3.36,0,0,1-2,.69c-1,0-2.9-.81-2.9-3.85v0h4.83c.21,0,.37,0,.43-.07a.22.22,0,0,0,.06-.18A3.22,3.22,0,0,0,152.56,110.25Zm1.31,2.64h-3.54v0a2.25,2.25,0,0,1,1.93-2.28,2.08,2.08,0,0,1,2,1.93C154.28,112.77,154.16,112.89,153.87,112.89Zm-3.44-.1h3.44c.23,0,.31-.07.31-.3a2,2,0,0,0-1.92-1.83A2.14,2.14,0,0,0,150.43,112.79Z"/><path class="cls-7" d="M158.69,116.44c0,1.22,1.47.71,1.47,1.19,0,.21-.14.25-.41.25s-.8-.07-1.63-.07-1.21.07-1.38.07-.22-.07-.22-.23.87-.22.87-1v-10c0-1.06-1.2-.6-1.2-1a.2.2,0,0,1,.16-.2c1.36-.32,1.72-.88,2.12-.88.11,0,.22.1.22.28Z"/><path class="cls-7" d="M159.75,117.93l-.38,0c-.3,0-.71,0-1.25,0a11.46,11.46,0,0,0-1.16,0l-.22,0a.25.25,0,0,1-.27-.28c0-.13.14-.2.3-.27s.57-.26.57-.71v-10c0-.62-.44-.68-.79-.73s-.42-.06-.42-.24a.27.27,0,0,1,.21-.25,4.75,4.75,0,0,0,1.56-.65,1.24,1.24,0,0,1,.57-.23.3.3,0,0,1,.27.33v11.56c0,.71.52.8.94.87.27,0,.53.09.53.32S160,117.93,159.75,117.93Zm-1.63-.17c.54,0,.95,0,1.26,0l.37,0c.28,0,.36,0,.36-.2s-.17-.17-.45-.22c-.43-.07-1-.17-1-1V104.88c0-.14-.08-.23-.16-.23a1.1,1.1,0,0,0-.52.22,5,5,0,0,1-1.59.66.15.15,0,0,0-.12.15c0,.09.12.11.33.14s.87.12.87.83v10a.85.85,0,0,1-.63.8c-.12.06-.24.11-.24.18s.07.18.17.18l.21,0C157.16,117.79,157.52,117.76,158.12,117.76Z"/><path class="cls-7" d="M160.35,114.24a4,4,0,0,1,4-4,3.64,3.64,0,0,1,3.84,4,3.76,3.76,0,0,1-3.83,3.85C162,118,160.35,116.64,160.35,114.24Zm6.56.18c0-1.83-.76-3.83-2.87-3.83-1.74,0-2.45,1.52-2.45,3,0,1.74.82,4,2.89,4C166,117.63,166.91,116.62,166.91,114.42Z"/><path class="cls-7" d="M164.32,118.05a3.67,3.67,0,0,1-4-3.81,4.06,4.06,0,0,1,4-4.09,4.32,4.32,0,0,1,2.46.75,4.05,4.05,0,0,1-2.45,7.15Zm0-7.8a4,4,0,0,0-3.91,4,3.58,3.58,0,0,0,3.92,3.71,3.7,3.7,0,0,0,3.78-3.8A3.61,3.61,0,0,0,164.31,110.25Zm.17,7.43a2.55,2.55,0,0,1-2.26-1.38,5.38,5.38,0,0,1-.68-2.68c0-1.42.66-3.08,2.5-3.08a2.55,2.55,0,0,1,2.27,1.25,5.07,5.07,0,0,1,.65,2.63C167,116.52,166.08,117.68,164.48,117.68Zm-.44-7c-1.77,0-2.39,1.61-2.39,3a5.31,5.31,0,0,0,.66,2.63,2.45,2.45,0,0,0,2.17,1.33c1.56,0,2.38-1.09,2.38-3.16C166.86,111.63,165.41,110.64,164,110.64Z"/><path class="cls-7" d="M170.89,120.09c0,1.17,1.63.73,1.63,1.16,0,.21-.12.23-.33.23s-.66-.07-1.85-.07c-.69,0-1.2.07-1.4.07s-.26,0-.26-.2c0-.46.92-.18.92-1.26v-7.91c0-1.06-1.21-.6-1.21-1a.18.18,0,0,1,.16-.19c1.37-.32,1.72-.89,2.13-.89.11,0,.21.1.21.28v1a3.6,3.6,0,0,1,2.43-1.17c2.09,0,3.18,1.65,3.18,3.6,0,1.63-1,4.2-3.78,4.2a4.06,4.06,0,0,1-1.83-.48Zm0-4.13c0,1,1.1,1.62,2.31,1.62,1.63,0,2.32-1.56,2.32-3,0-1.61-.82-3.58-2.69-3.58s-2,1.37-1.94,1.4Z"/><path class="cls-7" d="M172.19,121.53l-.29,0c-.27,0-.73-.05-1.56-.05-.45,0-.81,0-1.08.05l-.32,0c-.09,0-.31,0-.31-.25s.16-.29.34-.37a.83.83,0,0,0,.58-.89v-7.91c0-.62-.44-.68-.79-.73s-.42-.06-.42-.24a.24.24,0,0,1,.2-.24,5,5,0,0,0,1.56-.65,1.2,1.2,0,0,1,.58-.24c.13,0,.26.12.26.33v.91a3.6,3.6,0,0,1,2.38-1.1,3,3,0,0,1,2.41,1.09,4,4,0,0,1,.82,2.56c0,1.64-1,4.25-3.83,4.25a4.11,4.11,0,0,1-1.78-.45v2.49c0,.69.6.79,1.07.86.3,0,.56.09.56.3S172.36,121.53,172.19,121.53Zm-1.85-.17c.83,0,1.29,0,1.57,0l.28,0c.22,0,.28,0,.28-.18s-.22-.16-.47-.2c-.49-.08-1.16-.18-1.16-1v-2.65l.08,0a4.06,4.06,0,0,0,1.8.47c2.71,0,3.72-2.55,3.72-4.15,0-2.45-1.56-3.55-3.12-3.55a3.54,3.54,0,0,0-2.39,1.16l-.09.08v-1.15c0-.14-.08-.23-.16-.23a1.1,1.1,0,0,0-.52.22,4.94,4.94,0,0,1-1.6.66.15.15,0,0,0-.12.15c0,.09.12.11.34.14s.87.12.87.83V120a.93.93,0,0,1-.63,1c-.19.08-.29.14-.29.28s0,.15.21.15l.31,0C169.51,121.39,169.89,121.36,170.34,121.36Zm2.86-3.73c-1.16,0-2.36-.63-2.36-1.67v-3.53a1.35,1.35,0,0,1,.21-.62,1.92,1.92,0,0,1,1.78-.83c1.8,0,2.74,1.83,2.74,3.63C175.57,116.07,174.83,117.63,173.2,117.63Zm-2.26-5.21h0V116c0,.88,1,1.57,2.26,1.57s2.27-.9,2.27-2.92c0-1.41-.7-3.53-2.64-3.53a2,2,0,0,0-1.52.56A1.41,1.41,0,0,0,170.94,112.42Z"/><path class="cls-7" d="M179.44,116.44c0,1.22,1.37.71,1.37,1.19,0,.21-.13.25-.31.25s-.81-.07-1.56-.07-1.1.07-1.31.07-.21-.09-.21-.23.73-.22.73-1v-4.56c0-1.06-1.12-.6-1.12-1a.18.18,0,0,1,.16-.19c1.28-.32,1.63-.89,2-.89.1,0,.21.1.21.28v1a3,3,0,0,1,2.11-1.17,2.34,2.34,0,0,1,2.29,1.29,2.71,2.71,0,0,1,2.46-1.29c2.63,0,2.54,2.62,2.54,3.25v3c0,1.22,1.36.71,1.36,1.19,0,.21-.12.25-.3.25s-.81-.07-1.56-.07-1.1.07-1.31.07-.21-.09-.21-.23.72-.22.72-1v-3.44c0-1.08-.4-2.37-1.84-2.37a1.74,1.74,0,0,0-1.56,1v4.59c0,1.22,1.36.71,1.36,1.19,0,.21-.12.25-.3.25s-.81-.07-1.56-.07-1.1.07-1.31.07-.21-.09-.21-.23.72-.22.72-1v-3.74c0-1.4-.83-2.07-1.72-2.07a1.62,1.62,0,0,0-1.68,1.56Z"/><path class="cls-7" d="M189.9,117.93l-.38,0c-.29,0-.7,0-1.18,0s-.78,0-1,0l-.3,0a.25.25,0,0,1-.26-.28c0-.13.11-.2.25-.27a.73.73,0,0,0,.47-.71v-3.44c0-.54-.13-2.32-1.79-2.32a1.74,1.74,0,0,0-1.51.94v4.59c0,.71.48.8.87.87s.49.09.49.32-.17.3-.35.3l-.38,0c-.29,0-.7,0-1.18,0s-.78,0-1,0l-.3,0a.25.25,0,0,1-.26-.28c0-.13.11-.2.25-.27a.73.73,0,0,0,.47-.71v-3.74c0-1.4-.83-2-1.67-2a1.57,1.57,0,0,0-1.63,1.51v4c0,.71.48.8.87.87s.5.09.5.32-.18.3-.36.3l-.37,0c-.3,0-.71,0-1.19,0s-.78,0-1,0l-.3,0a.25.25,0,0,1-.26-.28c0-.13.12-.2.25-.27a.73.73,0,0,0,.47-.71v-4.56c0-.62-.4-.68-.72-.73s-.39-.06-.39-.24a.24.24,0,0,1,.2-.24,4.89,4.89,0,0,0,1.46-.64,1.13,1.13,0,0,1,.59-.25c.13,0,.26.12.26.33v.9a2.88,2.88,0,0,1,2.06-1.09,2.38,2.38,0,0,1,2.29,1.25,2.76,2.76,0,0,1,2.46-1.25,2.45,2.45,0,0,1,1.8.65,3.68,3.68,0,0,1,.79,2.59v3c0,.71.48.8.87.87s.49.09.49.32S190.08,117.93,189.9,117.93Zm-1.56-.17c.48,0,.89,0,1.19,0l.37,0c.19,0,.25,0,.25-.2s-.15-.17-.41-.22-1-.17-1-1v-3a3.64,3.64,0,0,0-.76-2.52,2.36,2.36,0,0,0-1.73-.62,2.66,2.66,0,0,0-2.42,1.27l0,.07,0-.07a2.28,2.28,0,0,0-2.24-1.27,2.85,2.85,0,0,0-2.07,1.15l-.09.1v-1.16c0-.14-.08-.23-.16-.23a1.19,1.19,0,0,0-.54.23,4.42,4.42,0,0,1-1.49.65.15.15,0,0,0-.12.15c0,.09.09.11.3.14s.82.12.82.83v4.56a.84.84,0,0,1-.53.8c-.12.07-.2.11-.2.18s.05.18.16.18l.29,0c.23,0,.55,0,1,0s.89,0,1.19,0l.37,0c.2,0,.25,0,.25-.2s-.14-.17-.4-.22-1-.17-1-1v-4a1.67,1.67,0,0,1,1.73-1.61c.89,0,1.78.65,1.78,2.12v3.74a.84.84,0,0,1-.53.8c-.13.07-.2.11-.2.18s.05.18.16.18l.29,0c.23,0,.55,0,1,0s.89,0,1.19,0l.37,0c.19,0,.25,0,.25-.2s-.14-.17-.41-.22-.95-.17-.95-1v-4.59a1.76,1.76,0,0,1,1.61-1c1.76,0,1.89,1.85,1.89,2.42v3.44a.84.84,0,0,1-.52.8c-.13.07-.2.11-.2.18s0,.18.16.18l.29,0C187.55,117.79,187.87,117.76,188.34,117.76Z"/><path class="cls-7" d="M191.69,113.32c0,2.93,1.77,3.79,2.85,3.79,1.53,0,2.11-.92,2.5-.92.07,0,.07.07.07.13,0,.4-1.54,1.68-3.14,1.68a3.65,3.65,0,0,1-3.58-3.63c0-2.27,1.26-4.17,3.48-4.17A3.27,3.27,0,0,1,197,113c0,.32-.2.3-.61.3Zm3.49-.48c.25,0,.35-.09.35-.35a2,2,0,0,0-2-1.88c-1.1,0-1.88,1.26-1.88,2.23Z"/><path class="cls-7" d="M194,118.05a3.71,3.71,0,0,1-3.63-3.68c0-2.49,1.45-4.22,3.53-4.22a3.33,3.33,0,0,1,3.19,2.87.38.38,0,0,1-.08.26c-.1.09-.26.09-.51.09h-4.73c0,1.31.61,3.69,2.8,3.69a3.28,3.28,0,0,0,2-.67,1.12,1.12,0,0,1,.51-.25c.12,0,.12.13.12.18C197.16,116.78,195.58,118.05,194,118.05Zm-.1-7.8c-2,0-3.43,1.69-3.43,4.12A3.6,3.6,0,0,0,194,118c1.6,0,3.09-1.27,3.09-1.63,0-.08,0-.08,0-.08a1.18,1.18,0,0,0-.46.24,3.36,3.36,0,0,1-2,.69c-1,0-2.9-.81-2.9-3.85v0h4.83c.21,0,.37,0,.43-.07A.22.22,0,0,0,197,113,3.22,3.22,0,0,0,193.87,110.25Zm1.31,2.64h-3.54v0a2.25,2.25,0,0,1,1.93-2.28,2.09,2.09,0,0,1,2,1.93C195.59,112.77,195.46,112.89,195.18,112.89Zm-3.44-.1h3.44c.23,0,.3-.07.3-.3a2,2,0,0,0-1.91-1.83A2.13,2.13,0,0,0,191.74,112.79Z"/><path class="cls-7" d="M200,116.44c0,1.22,1.56.71,1.56,1.19,0,.21-.13.25-.39.25s-.66-.07-1.69-.07-1.29.07-1.5.07-.32,0-.32-.22c0-.35,1,0,1-1.15v-4.4c0-1.06-1.31-.6-1.31-1a.18.18,0,0,1,.16-.19c1.47-.32,1.83-.89,2.23-.89.11,0,.22.1.22.28v1.17a3.85,3.85,0,0,1,2.57-1.31c2.37,0,2.89,2,2.89,3.32v2.92c0,1.22,1.38.71,1.38,1.19,0,.21-.12.25-.3.25s-.67-.07-1.54-.07c-.68,0-1,.07-1.28.07s-.32,0-.32-.22c0-.35.76,0,.76-1.15V113.2A2.16,2.16,0,0,0,202.1,111a2,2,0,0,0-2.09,1.38Z"/><path class="cls-7" d="M206.55,117.93l-.32,0c-.26,0-.65,0-1.22,0a9.47,9.47,0,0,0-.95,0l-.33,0c-.2,0-.37,0-.37-.27s.13-.21.25-.25.51-.19.51-.9V113.2a2.11,2.11,0,0,0-2-2.17,2.29,2.29,0,0,0-1.69.68,1.13,1.13,0,0,0-.35.65v4.08c0,.71.55.8,1,.87s.56.09.56.32-.2.3-.44.3l-.37,0c-.28,0-.65,0-1.32,0s-1,0-1.24,0l-.26,0c-.21,0-.38,0-.38-.27s.17-.21.35-.25a.79.79,0,0,0,.7-.9v-4.4c0-.62-.47-.68-.86-.73s-.45-.06-.45-.24a.24.24,0,0,1,.2-.24,5.05,5.05,0,0,0,1.68-.67,1.18,1.18,0,0,1,.56-.22.3.3,0,0,1,.27.33v1.08l0,0a3.44,3.44,0,0,1,2.49-1.23,2.65,2.65,0,0,1,2.38,1.17,4.2,4.2,0,0,1,.56,2.2v2.92c0,.71.49.8.88.87s.5.09.5.32S206.72,117.93,206.55,117.93Zm-1.54-.17c.57,0,1,0,1.23,0l.31,0c.19,0,.25,0,.25-.2s-.15-.17-.42-.22-1-.17-1-1v-2.92c0-3-2-3.27-2.84-3.27a3.27,3.27,0,0,0-2.41,1.2c-.11.12-.14.15-.18.13s0,0,0-.08v-1.16a.21.21,0,0,0-.17-.23,1.08,1.08,0,0,0-.51.21,5.2,5.2,0,0,1-1.71.67.15.15,0,0,0-.12.15c0,.09.14.11.37.14s.94.12.94.83v4.4a.88.88,0,0,1-.78,1c-.17,0-.26.08-.26.16s0,.17.27.17l.26,0c.24,0,.6,0,1.24,0s1,0,1.33,0l.36,0c.27,0,.34,0,.34-.2s-.18-.17-.48-.22c-.46-.07-1.08-.17-1.08-1v-4.08a1.24,1.24,0,0,1,.38-.72,2.34,2.34,0,0,1,1.76-.71,2.21,2.21,0,0,1,2.12,2.27v3.31c0,.78-.34.91-.57,1s-.19.08-.19.16,0,.17.27.17l.32,0A7.34,7.34,0,0,1,205,117.76Z"/><path class="cls-7" d="M207.79,111.16c-.83,0-.95,0-.95-.13s.44-.44,1.34-1.43c.36-.43.54-.82.68-.82s.23.37.23,1.65H211a1.1,1.1,0,0,0,.69-.3.13.13,0,0,1,.12.14.62.62,0,0,1-.1.25l-.36.64h-2.3v5.16c0,.72.53,1.06,1.24,1.06.94,0,1.2-.41,1.51-.41.07,0,.14,0,.14.16s-1,.87-2.2.87c-.82,0-2-.23-2-2Z"/><path class="cls-7" d="M209.78,118.05a1.84,1.84,0,0,1-2-2.1v-4.74c-.84,0-1,0-1-.18s.11-.2.38-.47.55-.53,1-1c.13-.16.25-.33.34-.46s.25-.37.37-.37.23.17.25.34a10.36,10.36,0,0,1,0,1.12v.19H211a.88.88,0,0,0,.59-.24s.07-.06.1-.06a.18.18,0,0,1,.17.19.58.58,0,0,1-.11.28l-.37.66h-2.28v5.11c0,.65.45,1,1.19,1a2.25,2.25,0,0,0,1.14-.28.87.87,0,0,1,.37-.13s.19,0,.19.21S211.06,118.05,209.78,118.05Zm-.92-9.22c-.06,0-.17.16-.29.33s-.21.3-.35.47c-.43.47-.76.79-1,1s-.35.34-.35.39.17.08.9.08h.05V116c0,1.34.64,2,1.94,2a2.57,2.57,0,0,0,2.15-.82c0-.11-.05-.11-.09-.11a.74.74,0,0,0-.33.12,2.34,2.34,0,0,1-1.18.29,1.13,1.13,0,0,1-1.29-1.11v-5.21h2.32l.34-.62a.47.47,0,0,0,.1-.22s0-.09-.07-.09l0,0a1,1,0,0,1-.65.26h-2v-.29a9.94,9.94,0,0,0,0-1.1C209,108.85,208.92,108.83,208.86,108.83Z"/></g></g></g></g></svg>