<svg id="Layer_1" data-name="Layer 1" xmlns="http://www.w3.org/2000/svg" viewBox="0 0 444.15 240.26"><defs><style>.cls-1{fill:#221f1f;}.cls-2{fill:none;stroke:#bc4b27;stroke-width:2.03px;}.cls-3{fill:#fff;}.cls-4{fill:#bc4b27;}.cls-5{fill:#d66027;}.cls-6{fill:#fdceb0;}.cls-7{fill:#7b6669;stroke:#7b6669;stroke-miterlimit:3.71;stroke-width:0.19px;}</style></defs><path class="cls-1" d="M165.83,94.22c2.84-3.83,4.28-9.36,4.28-16.45V58.56a20.59,20.59,0,0,1,.68-6.51,5,5,0,0,1,2.93-2.58c.65-.27,1-.65,1-1.14a.87.87,0,0,0-1-.93c-.24,0-.82,0-1.73.12-.67.08-2.46.12-5.32.12a21.65,21.65,0,0,1-3.48-.24,24.76,24.76,0,0,0-2.51-.31,1,1,0,0,0-.75.23,1.09,1.09,0,0,0-.28.81c0,.44.23,1,1.35,1.08a5.69,5.69,0,0,1,4.55,2.39c.9,1.42,1.36,3.74,1.36,6.91V78.6c0,6.71-1.52,11.79-4.52,15.1s-7.59,5-13.66,5c-6.77,0-11.66-2-14.52-6-2-2.78-3.06-7.54-3.06-14.13V59.05l-.08-2.56a12.22,12.22,0,0,1,.73-5.1,3.92,3.92,0,0,1,2.83-1.83c1-.17,1.45-.57,1.45-1.19,0-.32-.15-.85-1.15-.85-.37,0-1,0-2,.12-1.15.1-1.85.15-2.15.15h-3l-3,0c-.54,0-1.41,0-2.59-.12s-2-.07-2.69-.07c-1.42,0-1.72.62-1.72,1.15s.22.89,1.26,1.05c2.22.32,3.72,1,4.44,2s1.09,2.88,1.09,5.59l.08,2.21V79.33c0,5.42.94,9.89,2.79,13.28a17.37,17.37,0,0,0,7.83,7,27.33,27.33,0,0,0,12,2.58,27,27,0,0,0,10.75-2.17,18.66,18.66,0,0,0,7.77-5.85"/><path class="cls-1" d="M196.88,52.28c1.2,0,1.59.2,1.71.32s.33.49.33,1.62l0,1V93.76c0,2.1-.33,3.58-1,4.37s-2,1.31-3.87,1.56c-1,.12-1.5.46-1.5,1,0,.4.18,1.08,1.41,1.08.27,0,1.13-.08,2.63-.24.74-.07,1.66-.11,2.74-.11l3,0,2.84,0a32.4,32.4,0,0,1,3.46.11,15.18,15.18,0,0,0,1.95.24c1.16,0,1.34-.68,1.34-1.09,0-.56-.53-.94-1.57-1.11-3.16-.55-4.76-2.25-4.88-5.17l0-1.51V54.8c0-1.51.24-2,.38-2.13s.58-.39,2-.39h10.9c2.11,0,3.54.27,4.24.79h0c.7.51,1.21,1.67,1.54,3.44.18,1,.55,1.43,1.2,1.4.49,0,1.07-.34,1-1.5q0-.6-.24-1.92a19.64,19.64,0,0,1-.19-3.28c0-2.14-.3-2.69-.52-2.92s-1.23-.54-2.76-.54h-41.8a2.26,2.26,0,0,0-1.93.66,4.57,4.57,0,0,0-.46,2.49,23.32,23.32,0,0,1-.57,4.55,17.26,17.26,0,0,0-.48,3c0,1.08.59,1.28.94,1.29.93,0,1.2-1.24,1.3-1.66.5-2.27,1.21-3.83,2.12-4.63a6.58,6.58,0,0,1,4.39-1.2Z"/><path class="cls-1" d="M286.19,101.58c.76-.07,1.38-.11,1.85-.11l2.9-.08,2.88,0a30.29,30.29,0,0,1,3.84.15c1.67.26,2.69.33,3.15-.17a1,1,0,0,0,.24-.81c0-.53-.52-.87-1.46-1-2.12-.23-3.56-.85-4.29-1.85s-1.12-2.89-1.12-5.6V54.64a6.87,6.87,0,0,1,.78-3.32,2.89,2.89,0,0,1,1.86-1.61l1.59-.34c.93-.2,1.13-.68,1.13-1s-.16-1-1.18-1a13.35,13.35,0,0,0-1.47.16,49.54,49.54,0,0,1-5.79.23,51.13,51.13,0,0,1-5.41-.27c-1.22-.13-2.11-.19-2.67-.19-1,0-1.19.55-1.21.87s.18,1,1.31,1.17a5.4,5.4,0,0,1,3.63,2.18c.66,1.08,1,2.94,1,5.56V70.31c0,.63-.12,1-.35,1.2a4.39,4.39,0,0,1-2,.27h-22.9c-2.08,0-2.57-.25-2.68-.36h0c-.14-.13-.37-.63-.37-2.47V55a7,7,0,0,1,.84-4,5.89,5.89,0,0,1,3.36-1.79c.82-.21,1.23-.59,1.23-1.12s-.18-1-1.37-1a11.52,11.52,0,0,0-1.66.16,41.23,41.23,0,0,1-5.13.31,63.09,63.09,0,0,1-7.08-.35c-1.06-.13-1.85-.21-2.35-.24a1.31,1.31,0,0,0-1,.29A1,1,0,0,0,246,48c0,.41.23.93,1.33,1.08,2.13.32,3.62,1,4.43,1.93S253,53.59,253,55.78V89.16a31.54,31.54,0,0,1-.61,7.56,3,3,0,0,1-2.15,2.39l-1.93.47c-1,.23-1.21.75-1.21,1.15s.16,1,1.22,1c.29,0,1.1-.06,2.47-.17,1-.09,1.79-.13,2.43-.13l2.55-.09,3.26,0a36.45,36.45,0,0,1,4.63.17,18.57,18.57,0,0,0,1.93.18,1.51,1.51,0,0,0,1.14-.36.92.92,0,0,0,.24-.7c0-.69-.61-1.1-1.7-1.22-2.25-.25-3.8-.9-4.6-1.92S259.4,94.6,259.4,92V77.73c0-1.41.24-1.91.45-2.08s.84-.39,2.6-.39h22.86c1.75,0,2.1.19,2.17.25s.26.36.26,2V91.73l0,1.52c0,3.86-1.27,6-3.87,6.4-1,.15-1.5.52-1.53,1.11a1,1,0,0,0,.24.74,1.21,1.21,0,0,0,.85.28h.09c.18,0,1-.06,2.7-.2"/><path class="cls-1" d="M400.74,97.09l-.34.1-2,1a8.31,8.31,0,0,1-3.88.82,5.77,5.77,0,0,1-4.37-1.59c-.67-.7-1-2.3-1-4.76V73.36h9A1.9,1.9,0,0,0,400,72.07l.88-2.22a3.39,3.39,0,0,0,.38-1.06.73.73,0,0,0-.18-.58.57.57,0,0,0-.49-.12,2.56,2.56,0,0,0-1,.51,4.49,4.49,0,0,1-2.5.58h-8l.15-6.47c0-1-.43-1.25-.79-1.25s-.7.22-1.68,1.82a34.1,34.1,0,0,1-6.9,7.66c-.74.62-1.1,1.14-1.1,1.59s.22.83,1.26.83h3.2V92.69c0,6.34,3.09,9.55,9.18,9.55a13.47,13.47,0,0,0,5.81-1.5c2.16-1,3.21-2,3.21-3a.64.64,0,0,0-.71-.67"/><path class="cls-1" d="M314,70.33a7.76,7.76,0,0,1,5.51,2.53,7.66,7.66,0,0,1,2.55,5.46c0,.82-1.54,1-2.82,1H306.37a12.48,12.48,0,0,1,2.53-6.52h0A6.39,6.39,0,0,1,314,70.33m14.28,23.58a1.53,1.53,0,0,0-.69.32c-3.26,2.49-6.31,3.75-9.07,3.75a11.05,11.05,0,0,1-8.85-4.43,17,17,0,0,1-3.62-11l0-.62h14.46l2.65.08,2.88,0c1.84,0,2.77-.52,2.77-1.53a9.65,9.65,0,0,0-1-3.24,20,20,0,0,0-1.93-3.62,12.43,12.43,0,0,0-10.56-5.5,13.7,13.7,0,0,0-10.56,5.15,17.71,17.71,0,0,0-4.48,12,17.51,17.51,0,0,0,4.35,12.07,14,14,0,0,0,10.8,4.89,17.39,17.39,0,0,0,10.83-4c1.89-1.48,2.81-2.62,2.81-3.48a.9.9,0,0,0-.24-.69.74.74,0,0,0-.59-.17"/><path class="cls-1" d="M378.22,99.31c-2.54-.43-4.1-1.25-4.63-2.46a12.77,12.77,0,0,1-.71-4.8V46.49l0-1.2h0c0-1-.13-1.53-.41-1.79a.56.56,0,0,0-.39-.17,1.8,1.8,0,0,0-1,.36,18.37,18.37,0,0,1-3.73,1.84l-2.37,1a17.84,17.84,0,0,1-2.39.73c-.79.21-1.2.58-1.2,1.07a.9.9,0,0,0,.65.87,2.52,2.52,0,0,0,.73.1h0l1.93-.08c1.5,0,2.24,1.08,2.24,3.32V95.55a4.48,4.48,0,0,1-.56,2.55,4.09,4.09,0,0,1-2.21,1.25c-.88.24-1.31.64-1.27,1.2,0,.37.21,1,1.3,1,.1,0,.38,0,1.51-.2.56-.08,2.08-.12,4.52-.12l5.41,0a9.92,9.92,0,0,1,1.69.1,5.15,5.15,0,0,0,1.07.17,1.06,1.06,0,0,0,.8-.29,1.09,1.09,0,0,0,.26-.85c0-.53-.48-.88-1.33-1"/><path class="cls-1" d="M341.34,88.39c2.09-1.4,5.09-2.29,8.91-2.66v7.42a5.67,5.67,0,0,1-1.27,4.1,7.34,7.34,0,0,1-5.27,2,5.14,5.14,0,0,1-5.54-5.54,6.26,6.26,0,0,1,3.17-5.37m20.18,10.37a5.76,5.76,0,0,0-1,.17,5,5,0,0,1-.88.06,2.86,2.86,0,0,1-2.72-1.4,11,11,0,0,1-.84-5V77.37a8.28,8.28,0,0,0-3-6.8c-2-1.59-4.79-2.4-8.35-2.4A12.38,12.38,0,0,0,335.29,72c-1.76,1.89-2.66,3.69-2.66,5.35,0,.71.54,1.36,1.61,1.92a7.22,7.22,0,0,0,3.42.81,1.08,1.08,0,0,0,.8-.28.85.85,0,0,0,.21-.68,5.38,5.38,0,0,0-.28-1.29A9.85,9.85,0,0,1,337.9,75c0-2.73,1.59-4.06,4.87-4.06a7.83,7.83,0,0,1,5.88,2.24c1.06,1.08,1.6,3.08,1.6,6v4.57c-6.35,1-10.93,2.31-13.63,4a8,8,0,0,0-4.19,7.14,7,7,0,0,0,2.24,5.44,8.53,8.53,0,0,0,5.95,2c3.19,0,6.67-1.4,10.36-4.16,1.72,2.56,3.68,3.85,5.83,3.85a9.85,9.85,0,0,0,3.6-.73c1.32-.53,1.95-1,2-1.63a.73.73,0,0,0-.19-.6.81.81,0,0,0-.68-.21"/><path class="cls-1" d="M440.3,99.73c-2-.32-3.37-.83-4-1.51s-.91-2-.91-3.87V82A14.43,14.43,0,0,0,432,72a11.65,11.65,0,0,0-9-3.85c-3.82,0-7.4,1.93-10.65,5.74V48c0-.86,0-1.52,0-2s.08-.79.08-1c0-1-.57-1.1-.91-1.1a2.09,2.09,0,0,0-.92.25l-3,1.44a27.07,27.07,0,0,1-5.42,2c-.71.19-1.08.54-1.08,1a.81.81,0,0,0,.41.74,1.41,1.41,0,0,0,.67.14h0l2-.11a1.68,1.68,0,0,1,1.33.44c.67.63,1,2,1,3.93V94.24c0,2.7-.27,3.72-.49,4.1a4.78,4.78,0,0,1-2.67,1.48c-.93.26-1.09.8-1.07,1.2s.2.84,1.22.84c.34,0,.94,0,1.81-.11,1.92-.14,3.42-.21,4.45-.21,3,0,5,0,5.89.14,1.19.12,1.88.18,2.17.18,1,0,1.1-.56,1.1-.9,0-.64-.51-1-1.53-1.19-2.23-.3-3.63-.82-4.19-1.54s-.84-2.4-.84-5v-15a5.58,5.58,0,0,1,2.54-4.37,9.21,9.21,0,0,1,5.74-2,8.31,8.31,0,0,1,6.55,2.79,11.27,11.27,0,0,1,2.46,7.63V95.14l0,1.2a3.71,3.71,0,0,1-.42,2.19,5.55,5.55,0,0,1-2.34,1.26c-.65.25-1,.6-.93,1s.22,1,1.33,1c.19,0,.6,0,1.24-.11a45.67,45.67,0,0,1,5-.2c1.37,0,3,.06,4.91.19,1,.08,1.61.12,1.93.12,1.12,0,1.29-.6,1.29-1s-.22-.94-1.25-1.1"/><path class="cls-1" d="M133.79,131.93c-2.38-.79-3.89-1.34-4.5-1.64a5.07,5.07,0,0,1-1.66-1.42,4.33,4.33,0,0,1-.87-2.69,3.76,3.76,0,0,1,1.34-2.93,4.9,4.9,0,0,1,3.34-1.18,8.45,8.45,0,0,1,4.6,1.32,6.35,6.35,0,0,1,2.73,3.33c.22.67.45,1,.71,1s.5-.12.5-.69c0-.1,0-.35-.09-.79l-.31-2c-.16-1-.24-1.69-.24-1.9a1.24,1.24,0,0,0-.24-.9.45.45,0,0,0-.31-.12.32.32,0,0,0-.3.1l-.26.22a.62.62,0,0,1-.7.1l-1.3-.55a9.11,9.11,0,0,0-3.47-.59,8.89,8.89,0,0,0-5.94,2,6.36,6.36,0,0,0-2.32,5.07,6.12,6.12,0,0,0,1.78,4.54,16,16,0,0,0,6,3.16,19,19,0,0,1,4.88,2.09,4.42,4.42,0,0,1,1.63,3.47,4.69,4.69,0,0,1-1.77,3.66,6.52,6.52,0,0,1-4.35,1.51,7.85,7.85,0,0,1-4.7-1.58,7.28,7.28,0,0,1-2.83-3.9c-.19-.66-.43-1-.71-1a.41.41,0,0,0-.32.11.73.73,0,0,0-.17.54,10.34,10.34,0,0,0,.5,2.45c.29,1.05.45,1.62.47,1.72a9,9,0,0,0,.35,1.33,1.28,1.28,0,0,0,.49.53,8.29,8.29,0,0,0,2.59,1,14.2,14.2,0,0,0,3.24.42,9.79,9.79,0,0,0,6.67-2.28,7.47,7.47,0,0,0,2.61-5.86c0-3.52-2.38-6.08-7.06-7.61"/><path class="cls-1" d="M147.74,140.92a9.63,9.63,0,0,1,4.38-1.3v3.64a2.78,2.78,0,0,1-.63,2,3.58,3.58,0,0,1-2.58,1,2.54,2.54,0,0,1-2.73-2.73,3.11,3.11,0,0,1,1.56-2.64m9.86,5.1a3,3,0,0,0-.48.08,2.39,2.39,0,0,1-.43,0,1.41,1.41,0,0,1-1.35-.69,5.39,5.39,0,0,1-.41-2.46v-7.41a4,4,0,0,0-1.46-3.3,6.28,6.28,0,0,0-4.05-1.17,6,6,0,0,0-4.6,1.86,4,4,0,0,0-1.3,2.59c0,.34.26.65.78.92a3.49,3.49,0,0,0,1.65.39.52.52,0,0,0,.38-.12.43.43,0,0,0,.1-.32,2.83,2.83,0,0,0-.14-.62,5,5,0,0,1-.24-1.4c0-1.35.78-2,2.4-2a3.86,3.86,0,0,1,2.88,1.11,4.13,4.13,0,0,1,.79,2.92v2.25a19.55,19.55,0,0,0-6.66,1.92,3.86,3.86,0,0,0-2,3.46,3.39,3.39,0,0,0,1.08,2.64,4.1,4.1,0,0,0,2.89,1,8.67,8.67,0,0,0,5.06-2,3.52,3.52,0,0,0,2.84,1.88,4.82,4.82,0,0,0,1.74-.35c.64-.26.94-.5,1-.78a.33.33,0,0,0-.09-.28.39.39,0,0,0-.31-.09"/><path class="cls-1" d="M178.24,146.36l-.79-.11a1.58,1.58,0,0,1-1.51-1.37l-.06-.9,0-.57v-4.53a9.14,9.14,0,0,0-1.23-5.26,5.7,5.7,0,0,0-4.87-2.52c-1.78,0-3.51,1-5.16,2.84v-1.87c0-.28,0-.52,0-.71a.72.72,0,0,0-.12-.55c-.15-.16-.44-.14-.78.05l-.73.36-1,.49a10,10,0,0,1-2.43.77c-.37.08-.57.24-.57.47a.38.38,0,0,0,.22.36.74.74,0,0,0,.36.09l.81,0a1.29,1.29,0,0,1,1.13.44,3.53,3.53,0,0,1,.31,1.77v8.54a2.85,2.85,0,0,1-.32,1.54,2.47,2.47,0,0,1-1.25.79c-.27.11-.41.26-.42.46a.35.35,0,0,0,.09.29.45.45,0,0,0,.35.13l.77-.07c.38-.06,1.59-.09,3.58-.09,1,0,1.54,0,1.76,0a7.1,7.1,0,0,0,1,.11c.46,0,.53-.29.53-.45s-.24-.46-.72-.51c-1.64-.1-2.48-.64-2.54-1.65l0-1.51V136a2.56,2.56,0,0,1,1.18-2,4.41,4.41,0,0,1,2.74-.91,4.22,4.22,0,0,1,3.38,1.39,6,6,0,0,1,1.19,4V145c0,.73-.22,1.15-.68,1.26l-.57.15a.47.47,0,0,0-.42.47.4.4,0,0,0,.19.38l.3.07.56,0h.72l1.86-.06a19.08,19.08,0,0,1,2.3.09c.36,0,.6.07.75.07a.8.8,0,0,0,.61-.19.44.44,0,0,0,.11-.33c0-.25-.23-.4-.62-.46"/><path class="cls-1" d="M290.88,146.4l-.87-.09a1.61,1.61,0,0,1-1.17-.55,3.56,3.56,0,0,1-.28-1.75V131.26c0-.44-.18-.55-.34-.56h0l-1,.48a18.52,18.52,0,0,1-2.68,1.21c-.7.22-1,.42-1,.64a.31.31,0,0,0,.08.23,1,1,0,0,0,.72.18c.63,0,1,.14,1.22.42a4.38,4.38,0,0,1,.29,2v8.25a4.12,4.12,0,0,1-.23,1.6,1.23,1.23,0,0,1-.78.67l-.36.11a.52.52,0,0,0-.41.5c0,.21.11.45.61.45a6.67,6.67,0,0,0,.7-.06c.14,0,.34,0,.58-.05l1.38-.08,1.22,0c.54,0,1,0,1.31.05.63.05,1,.08,1.25.08.48,0,.6-.22.61-.41s-.24-.51-.75-.58"/><path class="cls-1" d="M281.56,146.36l-.79-.11a1.58,1.58,0,0,1-1.51-1.37l-.05-.9v-5.1a9.22,9.22,0,0,0-1.22-5.26,5.71,5.71,0,0,0-4.88-2.52c-1.77,0-3.51,1-5.16,2.84v-1.87c0-.28,0-.52,0-.71a.76.76,0,0,0-.13-.55c-.15-.16-.43-.14-.77.05l-.74.36-1,.49a10,10,0,0,1-2.42.77c-.38.08-.57.24-.57.47a.37.37,0,0,0,.21.36.74.74,0,0,0,.36.09l.81,0a1.26,1.26,0,0,1,1.13.44,3.53,3.53,0,0,1,.31,1.77v8.54a2.85,2.85,0,0,1-.32,1.54,2.47,2.47,0,0,1-1.25.79c-.27.11-.41.26-.42.46a.35.35,0,0,0,.09.29.45.45,0,0,0,.35.13l.77-.07c.38-.06,1.59-.09,3.58-.09,1,0,1.54,0,1.77,0a6.84,6.84,0,0,0,1,.11c.46,0,.53-.29.53-.45s-.24-.46-.71-.51c-1.65-.1-2.48-.64-2.54-1.65l0-1.51V136a2.56,2.56,0,0,1,1.18-2,4.41,4.41,0,0,1,2.74-.91,4.22,4.22,0,0,1,3.38,1.39,6,6,0,0,1,1.19,4V145c0,.73-.22,1.15-.68,1.26l-.57.15a.46.46,0,0,0-.41.47.4.4,0,0,0,.18.38l.3.07.56,0h.72l1.87-.06a19,19,0,0,1,2.29.09c.36,0,.61.07.75.07a.8.8,0,0,0,.61-.19.4.4,0,0,0,.11-.33c0-.25-.22-.4-.62-.46"/><path class="cls-1" d="M257.84,140.38a7.36,7.36,0,0,1-1.33,4.62,4.37,4.37,0,0,1-3.62,1.68,5.33,5.33,0,0,1-4.41-2.39,9.79,9.79,0,0,1-1.79-6,6.89,6.89,0,0,1,1.43-4.53,4.61,4.61,0,0,1,3.73-1.72,5.12,5.12,0,0,1,4.3,2.31,10,10,0,0,1,1.69,6m-5.51-9.28a8.33,8.33,0,0,0-6,2.44,8.45,8.45,0,0,0-.15,11.83,8.25,8.25,0,0,0,6,2.31,8.47,8.47,0,0,0,6.15-2.38,8.07,8.07,0,0,0,2.43-6,7.84,7.84,0,0,0-2.47-5.77,8.18,8.18,0,0,0-5.92-2.42"/><path class="cls-1" d="M287.28,123.28c-.29,0-.66.26-1.15.81a1.53,1.53,0,0,0-.07,2.55c.44.53.8.79,1.09.79s.67-.26,1.14-.81a2.23,2.23,0,0,0,.67-1.28.9.9,0,0,0-.21-.53l-.45-.72c-.34-.55-.68-.81-1-.81"/><path class="cls-1" d="M201.36,134.93c0,.25-.29.37-.85.37H194.8l-.52,0c-.77,0-.77-.29-.77-.39a2,2,0,0,1,.23-.66l3.7-8.2c.13-.28.2-.3.2-.3s.23.09.41.56l3.12,7.89.1.34h0a1.75,1.75,0,0,1,.09.41m10.26,11.41a4.8,4.8,0,0,1-2.33-.85,9,9,0,0,1-1.45-2.82l-.42-1-8.14-20.86c-.16-.42-.36-.62-.61-.62s-.45.21-.64.63l-9.73,21.62-.55,1.25a8.24,8.24,0,0,1-1.05,1.66c-.51.64-.81.84-1,.88l-.7.21a.49.49,0,0,0-.39.51c0,.16.08.44.61.44l1.06-.1q.3,0,.84,0c.77,0,1.48,0,2.09,0l1.82.11.65,0a.73.73,0,0,0,.54-.16.33.33,0,0,0,.08-.26c0-.27-.24-.45-.66-.53a4.15,4.15,0,0,1-1.71-.66,1.59,1.59,0,0,1-.41-1.22,8,8,0,0,1,.83-2.8l1.25-2.79a3.68,3.68,0,0,1,.87-1.48,3.57,3.57,0,0,1,1.68-.21H201a2.77,2.77,0,0,1,1.23.14,3.15,3.15,0,0,1,.59,1.16l.95,2.51a14.65,14.65,0,0,1,1.15,4,1.05,1.05,0,0,1-.87,1.19l-.59.13c-.46.09-.55.31-.55.49s.08.48.59.48a3.42,3.42,0,0,0,.6-.07,25.73,25.73,0,0,1,3.28-.12c1.67,0,2.84,0,3.5.1l.73,0c.49,0,.61-.22.62-.41s-.2-.48-.65-.57"/><path class="cls-1" d="M306.64,140.38a7.36,7.36,0,0,1-1.33,4.62,4.37,4.37,0,0,1-3.62,1.68,5.33,5.33,0,0,1-4.41-2.39,9.79,9.79,0,0,1-1.79-6,6.89,6.89,0,0,1,1.43-4.53,4.61,4.61,0,0,1,3.73-1.72,5.11,5.11,0,0,1,4.3,2.31,10,10,0,0,1,1.69,6m-5.51-9.28a8.33,8.33,0,0,0-6,2.44,8.44,8.44,0,0,0-.14,11.83,8.21,8.21,0,0,0,6,2.31,8.47,8.47,0,0,0,6.15-2.38,8,8,0,0,0,2.43-6,7.84,7.84,0,0,0-2.47-5.77,8.18,8.18,0,0,0-5.92-2.42"/><path class="cls-1" d="M231.29,146.36l-.8-.11a1.59,1.59,0,0,1-1.51-1.37l0-.9,0-.57v-4.53a9.22,9.22,0,0,0-1.23-5.26,5.7,5.7,0,0,0-4.87-2.52c-1.78,0-3.52,1-5.17,2.84v-1.87c0-.28,0-.52,0-.71a.72.72,0,0,0-.12-.55c-.16-.17-.44-.14-.78.05l-.74.36-1,.49a9.89,9.89,0,0,1-2.42.77c-.38.08-.57.24-.57.47a.38.38,0,0,0,.22.36.68.68,0,0,0,.35.09l.81,0a1.26,1.26,0,0,1,1.13.44,3.42,3.42,0,0,1,.31,1.77v8.54a2.85,2.85,0,0,1-.32,1.54,2.38,2.38,0,0,1-1.25.79c-.26.11-.4.26-.42.46a.35.35,0,0,0,.09.29.47.47,0,0,0,.35.13c.12,0,.37,0,.77-.07s1.59-.09,3.59-.09c1,0,1.53,0,1.76,0a6.84,6.84,0,0,0,1,.11c.47,0,.53-.29.53-.45s-.24-.46-.71-.51c-1.65-.1-2.48-.64-2.54-1.65l0-1.51V136a2.55,2.55,0,0,1,1.19-2,4.37,4.37,0,0,1,2.74-.91,4.2,4.2,0,0,1,3.37,1.39,6,6,0,0,1,1.19,4V145c0,.73-.22,1.15-.68,1.26l-.57.15a.46.46,0,0,0-.41.47.41.41,0,0,0,.18.38l.31.07.55,0h.72l1.87-.06a19,19,0,0,1,2.29.09c.36,0,.61.07.75.07a.8.8,0,0,0,.61-.19.4.4,0,0,0,.11-.33c0-.25-.22-.4-.61-.46"/><path class="cls-1" d="M243.2,145.21l-.15,0-1,.48a4.12,4.12,0,0,1-1.91.4,2.84,2.84,0,0,1-2.14-.78,3.68,3.68,0,0,1-.5-2.34v-9.42h4.39a.9.9,0,0,0,.92-.62l.43-1.08a1.68,1.68,0,0,0,.18-.51.33.33,0,0,0-.07-.27.3.3,0,0,0-.23-.05,1.42,1.42,0,0,0-.45.24,2.27,2.27,0,0,1-1.24.29h-3.93l.07-3.18c0-.48-.19-.59-.36-.59s-.33.11-.8.88a16.74,16.74,0,0,1-3.37,3.74c-.36.3-.53.55-.53.76s.1.39.59.39h1.59V143c0,3.08,1.49,4.64,4.45,4.64a6.56,6.56,0,0,0,2.83-.74c1-.5,1.55-1,1.55-1.43,0-.19-.12-.3-.33-.3"/><line class="cls-2" x1="124.65" y1="162.04" x2="435.29" y2="162.04"/><path class="cls-3" d="M104.82,44.93V29.4H92.06v-5h-3s-6.61.26-11.57-2.68S71.67,16,71.66,16V12H65.12a11.07,11.07,0,0,0-21.58,0H36.89v4S36,18.8,31.06,21.69s-11.57,2.68-11.57,2.68H15.58v5H2.82V44.87"/><path class="cls-3" d="M2.75,49.85h0c0,8.07-.11,20.49,0,28.56a94.15,94.15,0,0,0,3.11,22.07C9.47,114.09,16,126,26.42,135.55c8,7.4,17.28,13,26.75,18.33a1.35,1.35,0,0,0,1.11-.06,184.24,184.24,0,0,0,19.09-12,71.14,71.14,0,0,0,26.83-37.08c3.37-10.74,4.5-21.79,4.57-33,0-5.85,0-16.05,0-21.91h0"/><path class="cls-4" d="M2.7,44.93H104.6V29.4H91.84v-5h-3s-6.61.26-11.56-2.68S71.45,16,71.44,16V12H64.9a11.07,11.07,0,0,0-21.58,0H36.67v4s-.94,2.77-5.83,5.67-11.57,2.68-11.57,2.68H15.36v5H2.6V44.87"/><path class="cls-4" d="M2.68,78.41a94.15,94.15,0,0,0,3.11,22.07C9.32,114.09,15.86,126,26.27,135.55c8,7.4,17.28,13,26.75,18.33a1.35,1.35,0,0,0,1.11-.06,184.24,184.24,0,0,0,19.09-12,71.23,71.23,0,0,0,26.83-37.08c3.37-10.74,4.5-21.79,4.57-33,0-5.85,0-16.05,0-21.91H2.64c0,8.07-.11,20.49,0,28.56M46.22,85.3l7.41-22.81L61,85.3H85L65.63,99.4,73,122.21l-19.41-14.1-19.41,14.1L41.63,99.4,22.23,85.3Z"/><path class="cls-5" d="M53.92,44.93l.29-41.5A11.07,11.07,0,0,0,43.42,12H36.77v4s-.94,2.78-5.83,5.68-11.57,2.68-11.57,2.68H15.46v5H2.7V44.93Z"/><path class="cls-5" d="M53.7,108.15l-19.41,14.1L41.7,99.44,22.3,85.34h24L53.7,62.53l-.08-12.64H2.71c0,8.07-.11,20.49,0,28.56a94.76,94.76,0,0,0,3.12,22.07C9.39,114.13,15.93,126,26.33,135.59c8,7.4,17.29,13,26.76,18.33a.65.65,0,0,0,.53.06Z"/><polygon class="cls-6" points="53.7 62.49 61.11 85.3 85.1 85.3 65.69 99.4 73.11 122.21 53.7 108.11 53.7 62.49"/><path class="cls-1" d="M165.83,94.22c2.84-3.83,4.28-9.36,4.28-16.45V58.56a20.59,20.59,0,0,1,.68-6.51,5,5,0,0,1,2.93-2.58c.65-.27,1-.65,1-1.14a.87.87,0,0,0-1-.93c-.24,0-.82,0-1.73.12-.67.08-2.46.12-5.32.12a21.65,21.65,0,0,1-3.48-.24,24.76,24.76,0,0,0-2.51-.31,1,1,0,0,0-.75.23,1.09,1.09,0,0,0-.28.81c0,.44.23,1,1.35,1.08a5.69,5.69,0,0,1,4.55,2.39c.9,1.42,1.36,3.74,1.36,6.91V78.6c0,6.71-1.52,11.79-4.52,15.1s-7.59,5-13.66,5c-6.77,0-11.66-2-14.52-6-2-2.78-3.06-7.54-3.06-14.13V59.05l-.08-2.56a12.22,12.22,0,0,1,.73-5.1,3.92,3.92,0,0,1,2.83-1.83c1-.17,1.45-.57,1.45-1.19,0-.32-.15-.85-1.15-.85-.37,0-1,0-2,.12-1.15.1-1.85.15-2.15.15h-3l-3,0c-.54,0-1.41,0-2.59-.12s-2-.07-2.69-.07c-1.42,0-1.72.62-1.72,1.15s.22.89,1.26,1.05c2.22.32,3.72,1,4.44,2s1.09,2.88,1.09,5.59l.08,2.21V79.33c0,5.42.94,9.89,2.79,13.28a17.37,17.37,0,0,0,7.83,7,27.33,27.33,0,0,0,12,2.58,27,27,0,0,0,10.75-2.17,18.66,18.66,0,0,0,7.77-5.85"/><path class="cls-1" d="M196.88,52.28c1.2,0,1.59.2,1.71.32s.33.49.33,1.62l0,1V93.76c0,2.1-.33,3.58-1,4.37s-2,1.31-3.87,1.56c-1,.12-1.5.46-1.5,1,0,.4.18,1.08,1.41,1.08.27,0,1.13-.08,2.63-.24.74-.07,1.66-.11,2.74-.11l3,0,2.84,0a32.4,32.4,0,0,1,3.46.11,15.18,15.18,0,0,0,1.95.24c1.16,0,1.34-.68,1.34-1.09,0-.56-.53-.94-1.57-1.11-3.16-.55-4.76-2.25-4.88-5.17l0-1.51V54.8c0-1.51.24-2,.38-2.13s.58-.39,2-.39h10.9c2.11,0,3.54.27,4.24.79h0c.7.51,1.21,1.67,1.54,3.44.18,1,.55,1.43,1.2,1.4.49,0,1.07-.34,1-1.5q0-.6-.24-1.92a19.64,19.64,0,0,1-.19-3.28c0-2.14-.3-2.69-.52-2.92s-1.23-.54-2.76-.54h-41.8a2.26,2.26,0,0,0-1.93.66,4.57,4.57,0,0,0-.46,2.49,23.32,23.32,0,0,1-.57,4.55,17.26,17.26,0,0,0-.48,3c0,1.08.59,1.28.94,1.29.93,0,1.2-1.24,1.3-1.66.5-2.27,1.21-3.83,2.12-4.63a6.58,6.58,0,0,1,4.39-1.2Z"/><path class="cls-1" d="M286.19,101.58c.76-.07,1.38-.11,1.85-.11l2.9-.08,2.88,0a30.29,30.29,0,0,1,3.84.15c1.67.26,2.69.33,3.15-.17a1,1,0,0,0,.24-.81c0-.53-.52-.87-1.46-1-2.12-.23-3.56-.85-4.29-1.85s-1.12-2.89-1.12-5.6V54.64a6.87,6.87,0,0,1,.78-3.32,2.89,2.89,0,0,1,1.86-1.61l1.59-.34c.93-.2,1.13-.68,1.13-1s-.16-1-1.18-1a13.35,13.35,0,0,0-1.47.16,49.54,49.54,0,0,1-5.79.23,51.13,51.13,0,0,1-5.41-.27c-1.22-.13-2.11-.19-2.67-.19-1,0-1.19.55-1.21.87s.18,1,1.31,1.17a5.4,5.4,0,0,1,3.63,2.18c.66,1.08,1,2.94,1,5.56V70.31c0,.63-.12,1-.35,1.2a4.39,4.39,0,0,1-2,.27h-22.9c-2.08,0-2.57-.25-2.68-.36h0c-.14-.13-.37-.63-.37-2.47V55a7,7,0,0,1,.84-4,5.89,5.89,0,0,1,3.36-1.79c.82-.21,1.23-.59,1.23-1.12s-.18-1-1.37-1a11.52,11.52,0,0,0-1.66.16,41.23,41.23,0,0,1-5.13.31,63.09,63.09,0,0,1-7.08-.35c-1.06-.13-1.85-.21-2.35-.24a1.31,1.31,0,0,0-1,.29A1,1,0,0,0,246,48c0,.41.23.93,1.33,1.08,2.13.32,3.62,1,4.43,1.93S253,53.59,253,55.78V89.16a31.54,31.54,0,0,1-.61,7.56,3,3,0,0,1-2.15,2.39l-1.93.47c-1,.23-1.21.75-1.21,1.15s.16,1,1.22,1c.29,0,1.1-.06,2.47-.17,1-.09,1.79-.13,2.43-.13l2.55-.09,3.26,0a36.45,36.45,0,0,1,4.63.17,18.57,18.57,0,0,0,1.93.18,1.51,1.51,0,0,0,1.14-.36.92.92,0,0,0,.24-.7c0-.69-.61-1.1-1.7-1.22-2.25-.25-3.8-.9-4.6-1.92S259.4,94.6,259.4,92V77.73c0-1.41.24-1.91.45-2.08s.84-.39,2.6-.39h22.86c1.75,0,2.1.19,2.17.25s.26.36.26,2V91.73l0,1.52c0,3.86-1.27,6-3.87,6.4-1,.15-1.5.52-1.53,1.11a1,1,0,0,0,.24.74,1.21,1.21,0,0,0,.85.28h.09c.18,0,1-.06,2.7-.2"/><path class="cls-1" d="M400.74,97.09l-.34.1-2,1a8.31,8.31,0,0,1-3.88.82,5.77,5.77,0,0,1-4.37-1.59c-.67-.7-1-2.3-1-4.76V73.36h9A1.9,1.9,0,0,0,400,72.07l.88-2.22a3.39,3.39,0,0,0,.38-1.06.73.73,0,0,0-.18-.58.57.57,0,0,0-.49-.12,2.56,2.56,0,0,0-1,.51,4.49,4.49,0,0,1-2.5.58h-8l.15-6.47c0-1-.43-1.25-.79-1.25s-.7.22-1.68,1.82a34.1,34.1,0,0,1-6.9,7.66c-.74.62-1.1,1.14-1.1,1.59s.22.83,1.26.83h3.2V92.69c0,6.34,3.09,9.55,9.18,9.55a13.47,13.47,0,0,0,5.81-1.5c2.16-1,3.21-2,3.21-3a.64.64,0,0,0-.71-.67"/><path class="cls-1" d="M314,70.33a7.76,7.76,0,0,1,5.51,2.53,7.66,7.66,0,0,1,2.55,5.46c0,.82-1.54,1-2.82,1H306.37a12.48,12.48,0,0,1,2.53-6.52h0A6.39,6.39,0,0,1,314,70.33m14.28,23.58a1.53,1.53,0,0,0-.69.32c-3.26,2.49-6.31,3.75-9.07,3.75a11.05,11.05,0,0,1-8.85-4.43,17,17,0,0,1-3.62-11l0-.62h14.46l2.65.08,2.88,0c1.84,0,2.77-.52,2.77-1.53a9.65,9.65,0,0,0-1-3.24,20,20,0,0,0-1.93-3.62,12.43,12.43,0,0,0-10.56-5.5,13.7,13.7,0,0,0-10.56,5.15,17.71,17.71,0,0,0-4.48,12,17.51,17.51,0,0,0,4.35,12.07,14,14,0,0,0,10.8,4.89,17.39,17.39,0,0,0,10.83-4c1.89-1.48,2.81-2.62,2.81-3.48a.9.9,0,0,0-.24-.69.74.74,0,0,0-.59-.17"/><path class="cls-1" d="M378.22,99.31c-2.54-.43-4.1-1.25-4.63-2.46a12.77,12.77,0,0,1-.71-4.8V46.49l0-1.2h0c0-1-.13-1.53-.41-1.79a.56.56,0,0,0-.39-.17,1.8,1.8,0,0,0-1,.36,18.37,18.37,0,0,1-3.73,1.84l-2.37,1a17.84,17.84,0,0,1-2.39.73c-.79.21-1.2.58-1.2,1.07a.9.9,0,0,0,.65.87,2.52,2.52,0,0,0,.73.1h0l1.93-.08c1.5,0,2.24,1.08,2.24,3.32V95.55a4.48,4.48,0,0,1-.56,2.55,4.09,4.09,0,0,1-2.21,1.25c-.88.24-1.31.64-1.27,1.2,0,.37.21,1,1.3,1,.1,0,.38,0,1.51-.2.56-.08,2.08-.12,4.52-.12l5.41,0a9.92,9.92,0,0,1,1.69.1,5.15,5.15,0,0,0,1.07.17,1.06,1.06,0,0,0,.8-.29,1.09,1.09,0,0,0,.26-.85c0-.53-.48-.88-1.33-1"/><path class="cls-1" d="M341.34,88.39c2.09-1.4,5.09-2.29,8.91-2.66v7.42a5.67,5.67,0,0,1-1.27,4.1,7.34,7.34,0,0,1-5.27,2,5.14,5.14,0,0,1-5.54-5.54,6.26,6.26,0,0,1,3.17-5.37m20.18,10.37a5.76,5.76,0,0,0-1,.17,5,5,0,0,1-.88.06,2.86,2.86,0,0,1-2.72-1.4,11,11,0,0,1-.84-5V77.37a8.28,8.28,0,0,0-3-6.8c-2-1.59-4.79-2.4-8.35-2.4A12.38,12.38,0,0,0,335.29,72c-1.76,1.89-2.66,3.69-2.66,5.35,0,.71.54,1.36,1.61,1.92a7.22,7.22,0,0,0,3.42.81,1.08,1.08,0,0,0,.8-.28.85.85,0,0,0,.21-.68,5.38,5.38,0,0,0-.28-1.29A9.85,9.85,0,0,1,337.9,75c0-2.73,1.59-4.06,4.87-4.06a7.83,7.83,0,0,1,5.88,2.24c1.06,1.08,1.6,3.08,1.6,6v4.57c-6.35,1-10.93,2.31-13.63,4a8,8,0,0,0-4.19,7.14,7,7,0,0,0,2.24,5.44,8.53,8.53,0,0,0,5.95,2c3.19,0,6.67-1.4,10.36-4.16,1.72,2.56,3.68,3.85,5.83,3.85a9.85,9.85,0,0,0,3.6-.73c1.32-.53,1.95-1,2-1.63a.73.73,0,0,0-.19-.6.81.81,0,0,0-.68-.21"/><path class="cls-1" d="M440.3,99.73c-2-.32-3.37-.83-4-1.51s-.91-2-.91-3.87V82A14.43,14.43,0,0,0,432,72a11.65,11.65,0,0,0-9-3.85c-3.82,0-7.4,1.93-10.65,5.74V48c0-.86,0-1.52,0-2s.08-.79.08-1c0-1-.57-1.1-.91-1.1a2.09,2.09,0,0,0-.92.25l-3,1.44a27.07,27.07,0,0,1-5.42,2c-.71.19-1.08.54-1.08,1a.81.81,0,0,0,.41.74,1.41,1.41,0,0,0,.67.14h0l2-.11a1.68,1.68,0,0,1,1.33.44c.67.63,1,2,1,3.93V94.24c0,2.7-.27,3.72-.49,4.1a4.78,4.78,0,0,1-2.67,1.48c-.93.26-1.09.8-1.07,1.2s.2.84,1.22.84c.34,0,.94,0,1.81-.11,1.92-.14,3.42-.21,4.45-.21,3,0,5,0,5.89.14,1.19.12,1.88.18,2.17.18,1,0,1.1-.56,1.1-.9,0-.64-.51-1-1.53-1.19-2.23-.3-3.63-.82-4.19-1.54s-.84-2.4-.84-5v-15a5.58,5.58,0,0,1,2.54-4.37,9.21,9.21,0,0,1,5.74-2,8.31,8.31,0,0,1,6.55,2.79,11.27,11.27,0,0,1,2.46,7.63V95.14l0,1.2a3.71,3.71,0,0,1-.42,2.19,5.55,5.55,0,0,1-2.34,1.26c-.65.25-1,.6-.93,1s.22,1,1.33,1c.19,0,.6,0,1.24-.11a45.67,45.67,0,0,1,5-.2c1.37,0,3,.06,4.91.19,1,.08,1.61.12,1.93.12,1.12,0,1.29-.6,1.29-1s-.22-.94-1.25-1.1"/><path class="cls-1" d="M133.79,131.93c-2.38-.79-3.89-1.34-4.5-1.64a5.07,5.07,0,0,1-1.66-1.42,4.33,4.33,0,0,1-.87-2.69,3.76,3.76,0,0,1,1.34-2.93,4.9,4.9,0,0,1,3.34-1.18,8.45,8.45,0,0,1,4.6,1.32,6.35,6.35,0,0,1,2.73,3.33c.22.67.45,1,.71,1s.5-.12.5-.69c0-.1,0-.35-.09-.79l-.31-2c-.16-1-.24-1.69-.24-1.9a1.24,1.24,0,0,0-.24-.9.45.45,0,0,0-.31-.12.32.32,0,0,0-.3.1l-.26.22a.62.62,0,0,1-.7.1l-1.3-.55a9.11,9.11,0,0,0-3.47-.59,8.89,8.89,0,0,0-5.94,2,6.36,6.36,0,0,0-2.32,5.07,6.12,6.12,0,0,0,1.78,4.54,16,16,0,0,0,6,3.16,19,19,0,0,1,4.88,2.09,4.42,4.42,0,0,1,1.63,3.47,4.69,4.69,0,0,1-1.77,3.66,6.52,6.52,0,0,1-4.35,1.51,7.85,7.85,0,0,1-4.7-1.58,7.28,7.28,0,0,1-2.83-3.9c-.19-.66-.43-1-.71-1a.41.41,0,0,0-.32.11.73.73,0,0,0-.17.54,10.34,10.34,0,0,0,.5,2.45c.29,1.05.45,1.62.47,1.72a9,9,0,0,0,.35,1.33,1.28,1.28,0,0,0,.49.53,8.29,8.29,0,0,0,2.59,1,14.2,14.2,0,0,0,3.24.42,9.79,9.79,0,0,0,6.67-2.28,7.47,7.47,0,0,0,2.61-5.86c0-3.52-2.38-6.08-7.06-7.61"/><path class="cls-1" d="M147.74,140.92a9.63,9.63,0,0,1,4.38-1.3v3.64a2.78,2.78,0,0,1-.63,2,3.58,3.58,0,0,1-2.58,1,2.54,2.54,0,0,1-2.73-2.73,3.11,3.11,0,0,1,1.56-2.64m9.86,5.1a3,3,0,0,0-.48.08,2.39,2.39,0,0,1-.43,0,1.41,1.41,0,0,1-1.35-.69,5.39,5.39,0,0,1-.41-2.46v-7.41a4,4,0,0,0-1.46-3.3,6.28,6.28,0,0,0-4.05-1.17,6,6,0,0,0-4.6,1.86,4,4,0,0,0-1.3,2.59c0,.34.26.65.78.92a3.49,3.49,0,0,0,1.65.39.52.52,0,0,0,.38-.12.43.43,0,0,0,.1-.32,2.83,2.83,0,0,0-.14-.62,5,5,0,0,1-.24-1.4c0-1.35.78-2,2.4-2a3.86,3.86,0,0,1,2.88,1.11,4.13,4.13,0,0,1,.79,2.92v2.25a19.55,19.55,0,0,0-6.66,1.92,3.86,3.86,0,0,0-2,3.46,3.39,3.39,0,0,0,1.08,2.64,4.1,4.1,0,0,0,2.89,1,8.67,8.67,0,0,0,5.06-2,3.52,3.52,0,0,0,2.84,1.88,4.82,4.82,0,0,0,1.74-.35c.64-.26.94-.5,1-.78a.33.33,0,0,0-.09-.28.39.39,0,0,0-.31-.09"/><path class="cls-1" d="M178.24,146.36l-.79-.11a1.58,1.58,0,0,1-1.51-1.37l-.06-.9,0-.57v-4.53a9.14,9.14,0,0,0-1.23-5.26,5.7,5.7,0,0,0-4.87-2.52c-1.78,0-3.51,1-5.16,2.84v-1.87c0-.28,0-.52,0-.71a.72.72,0,0,0-.12-.55c-.15-.16-.44-.14-.78.05l-.73.36-1,.49a10,10,0,0,1-2.43.77c-.37.08-.57.24-.57.47a.38.38,0,0,0,.22.36.74.74,0,0,0,.36.09l.81,0a1.29,1.29,0,0,1,1.13.44,3.53,3.53,0,0,1,.31,1.77v8.54a2.85,2.85,0,0,1-.32,1.54,2.47,2.47,0,0,1-1.25.79c-.27.11-.41.26-.42.46a.35.35,0,0,0,.09.29.45.45,0,0,0,.35.13l.77-.07c.38-.06,1.59-.09,3.58-.09,1,0,1.54,0,1.76,0a7.1,7.1,0,0,0,1,.11c.46,0,.53-.29.53-.45s-.24-.46-.72-.51c-1.64-.1-2.48-.64-2.54-1.65l0-1.51V136a2.56,2.56,0,0,1,1.18-2,4.41,4.41,0,0,1,2.74-.91,4.22,4.22,0,0,1,3.38,1.39,6,6,0,0,1,1.19,4V145c0,.73-.22,1.15-.68,1.26l-.57.15a.47.47,0,0,0-.42.47.4.4,0,0,0,.19.38l.3.07.56,0h.72l1.86-.06a19.08,19.08,0,0,1,2.3.09c.36,0,.6.07.75.07a.8.8,0,0,0,.61-.19.44.44,0,0,0,.11-.33c0-.25-.23-.4-.62-.46"/><path class="cls-1" d="M290.88,146.4l-.87-.09a1.61,1.61,0,0,1-1.17-.55,3.56,3.56,0,0,1-.28-1.75V131.26c0-.44-.18-.55-.34-.56h0l-1,.48a18.52,18.52,0,0,1-2.68,1.21c-.7.22-1,.42-1,.64a.31.31,0,0,0,.08.23,1,1,0,0,0,.72.18c.63,0,1,.14,1.22.42a4.38,4.38,0,0,1,.29,2v8.25a4.12,4.12,0,0,1-.23,1.6,1.23,1.23,0,0,1-.78.67l-.36.11a.52.52,0,0,0-.41.5c0,.21.11.45.61.45a6.67,6.67,0,0,0,.7-.06c.14,0,.34,0,.58-.05l1.38-.08,1.22,0c.54,0,1,0,1.31.05.63.05,1,.08,1.25.08.48,0,.6-.22.61-.41s-.24-.51-.75-.58"/><path class="cls-1" d="M281.56,146.36l-.79-.11a1.58,1.58,0,0,1-1.51-1.37l-.05-.9v-5.1a9.22,9.22,0,0,0-1.22-5.26,5.71,5.71,0,0,0-4.88-2.52c-1.77,0-3.51,1-5.16,2.84v-1.87c0-.28,0-.52,0-.71a.76.76,0,0,0-.13-.55c-.15-.16-.43-.14-.77.05l-.74.36-1,.49a10,10,0,0,1-2.42.77c-.38.08-.57.24-.57.47a.37.37,0,0,0,.21.36.74.74,0,0,0,.36.09l.81,0a1.26,1.26,0,0,1,1.13.44,3.53,3.53,0,0,1,.31,1.77v8.54a2.85,2.85,0,0,1-.32,1.54,2.47,2.47,0,0,1-1.25.79c-.27.11-.41.26-.42.46a.35.35,0,0,0,.09.29.45.45,0,0,0,.35.13l.77-.07c.38-.06,1.59-.09,3.58-.09,1,0,1.54,0,1.77,0a6.84,6.84,0,0,0,1,.11c.46,0,.53-.29.53-.45s-.24-.46-.71-.51c-1.65-.1-2.48-.64-2.54-1.65l0-1.51V136a2.56,2.56,0,0,1,1.18-2,4.41,4.41,0,0,1,2.74-.91,4.22,4.22,0,0,1,3.38,1.39,6,6,0,0,1,1.19,4V145c0,.73-.22,1.15-.68,1.26l-.57.15a.46.46,0,0,0-.41.47.4.4,0,0,0,.18.38l.3.07.56,0h.72l1.87-.06a19,19,0,0,1,2.29.09c.36,0,.61.07.75.07a.8.8,0,0,0,.61-.19.4.4,0,0,0,.11-.33c0-.25-.22-.4-.62-.46"/><path class="cls-1" d="M257.84,140.38a7.36,7.36,0,0,1-1.33,4.62,4.37,4.37,0,0,1-3.62,1.68,5.33,5.33,0,0,1-4.41-2.39,9.79,9.79,0,0,1-1.79-6,6.89,6.89,0,0,1,1.43-4.53,4.61,4.61,0,0,1,3.73-1.72,5.12,5.12,0,0,1,4.3,2.31,10,10,0,0,1,1.69,6m-5.51-9.28a8.33,8.33,0,0,0-6,2.44,8.45,8.45,0,0,0-.15,11.83,8.25,8.25,0,0,0,6,2.31,8.47,8.47,0,0,0,6.15-2.38,8.07,8.07,0,0,0,2.43-6,7.84,7.84,0,0,0-2.47-5.77,8.18,8.18,0,0,0-5.92-2.42"/><path class="cls-1" d="M287.28,123.28c-.29,0-.66.26-1.15.81a1.53,1.53,0,0,0-.07,2.55c.44.53.8.79,1.09.79s.67-.26,1.14-.81a2.23,2.23,0,0,0,.67-1.28.9.9,0,0,0-.21-.53l-.45-.72c-.34-.55-.68-.81-1-.81"/><path class="cls-1" d="M201.36,134.93c0,.25-.29.37-.85.37H194.8l-.52,0c-.77,0-.77-.29-.77-.39a2,2,0,0,1,.23-.66l3.7-8.2c.13-.28.2-.3.2-.3s.23.09.41.56l3.12,7.89.1.34h0a1.75,1.75,0,0,1,.09.41m10.26,11.41a4.8,4.8,0,0,1-2.33-.85,9,9,0,0,1-1.45-2.82l-.42-1-8.14-20.86c-.16-.42-.36-.62-.61-.62s-.45.21-.64.63l-9.73,21.62-.55,1.25a8.24,8.24,0,0,1-1.05,1.66c-.51.64-.81.84-1,.88l-.7.21a.49.49,0,0,0-.39.51c0,.16.08.44.61.44l1.06-.1q.3,0,.84,0c.77,0,1.48,0,2.09,0l1.82.11.65,0a.73.73,0,0,0,.54-.16.33.33,0,0,0,.08-.26c0-.27-.24-.45-.66-.53a4.15,4.15,0,0,1-1.71-.66,1.59,1.59,0,0,1-.41-1.22,8,8,0,0,1,.83-2.8l1.25-2.79a3.68,3.68,0,0,1,.87-1.48,3.57,3.57,0,0,1,1.68-.21H201a2.77,2.77,0,0,1,1.23.14,3.15,3.15,0,0,1,.59,1.16l.95,2.51a14.65,14.65,0,0,1,1.15,4,1.05,1.05,0,0,1-.87,1.19l-.59.13c-.46.09-.55.31-.55.49s.08.48.59.48a3.42,3.42,0,0,0,.6-.07,25.73,25.73,0,0,1,3.28-.12c1.67,0,2.84,0,3.5.1l.73,0c.49,0,.61-.22.62-.41s-.2-.48-.65-.57"/><path class="cls-1" d="M306.64,140.38a7.36,7.36,0,0,1-1.33,4.62,4.37,4.37,0,0,1-3.62,1.68,5.33,5.33,0,0,1-4.41-2.39,9.79,9.79,0,0,1-1.79-6,6.89,6.89,0,0,1,1.43-4.53,4.61,4.61,0,0,1,3.73-1.72,5.11,5.11,0,0,1,4.3,2.31,10,10,0,0,1,1.69,6m-5.51-9.28a8.33,8.33,0,0,0-6,2.44,8.44,8.44,0,0,0-.14,11.83,8.21,8.21,0,0,0,6,2.31,8.47,8.47,0,0,0,6.15-2.38,8,8,0,0,0,2.43-6,7.84,7.84,0,0,0-2.47-5.77,8.18,8.18,0,0,0-5.92-2.42"/><path class="cls-1" d="M231.29,146.36l-.8-.11a1.59,1.59,0,0,1-1.51-1.37l0-.9,0-.57v-4.53a9.22,9.22,0,0,0-1.23-5.26,5.7,5.7,0,0,0-4.87-2.52c-1.78,0-3.52,1-5.17,2.84v-1.87c0-.28,0-.52,0-.71a.72.72,0,0,0-.12-.55c-.16-.17-.44-.14-.78.05l-.74.36-1,.49a9.89,9.89,0,0,1-2.42.77c-.38.08-.57.24-.57.47a.38.38,0,0,0,.22.36.68.68,0,0,0,.35.09l.81,0a1.26,1.26,0,0,1,1.13.44,3.42,3.42,0,0,1,.31,1.77v8.54a2.85,2.85,0,0,1-.32,1.54,2.38,2.38,0,0,1-1.25.79c-.26.11-.4.26-.42.46a.35.35,0,0,0,.09.29.47.47,0,0,0,.35.13c.12,0,.37,0,.77-.07s1.59-.09,3.59-.09c1,0,1.53,0,1.76,0a6.84,6.84,0,0,0,1,.11c.47,0,.53-.29.53-.45s-.24-.46-.71-.51c-1.65-.1-2.48-.64-2.54-1.65l0-1.51V136a2.55,2.55,0,0,1,1.19-2,4.37,4.37,0,0,1,2.74-.91,4.2,4.2,0,0,1,3.37,1.39,6,6,0,0,1,1.19,4V145c0,.73-.22,1.15-.68,1.26l-.57.15a.46.46,0,0,0-.41.47.41.41,0,0,0,.18.38l.31.07.55,0h.72l1.87-.06a19,19,0,0,1,2.29.09c.36,0,.61.07.75.07a.8.8,0,0,0,.61-.19.4.4,0,0,0,.11-.33c0-.25-.22-.4-.61-.46"/><path class="cls-1" d="M243.2,145.21l-.15,0-1,.48a4.12,4.12,0,0,1-1.91.4,2.84,2.84,0,0,1-2.14-.78,3.68,3.68,0,0,1-.5-2.34v-9.42h4.39a.9.9,0,0,0,.92-.62l.43-1.08a1.68,1.68,0,0,0,.18-.51.33.33,0,0,0-.07-.27.3.3,0,0,0-.23-.05,1.42,1.42,0,0,0-.45.24,2.27,2.27,0,0,1-1.24.29h-3.93l.07-3.18c0-.48-.19-.59-.36-.59s-.33.11-.8.88a16.74,16.74,0,0,1-3.37,3.74c-.36.3-.53.55-.53.76s.1.39.59.39h1.59V143c0,3.08,1.49,4.64,4.45,4.64a6.56,6.56,0,0,0,2.83-.74c1-.5,1.55-1,1.55-1.43,0-.19-.12-.3-.33-.3"/><path class="cls-1" d="M63,150.77h2.5V151H64.38v3.15h-.32V151H63Z"/><path class="cls-1" d="M65.91,154.19v-3.42h.5l1.12,3h0l1.1-3h.49v3.42h-.32v-3.05h0l-1.12,3.05h-.31l-1.13-3.05h0v3.05Z"/><path class="cls-7" d="M127.76,179.69c0-2.45-2.72-1.78-2.72-2.52,0-.3.07-.37.33-.37,1.25,0,2.45.14,3.7.14,1,0,2.08-.14,3.12-.14.54,0,.64.07.64.34,0,.8-2.42,0-2.42,2.55v18c0,2.29,3,1.51,3,2.52,0,.24-.1.34-.67.34-.78,0-2.22-.14-3.66-.14-2,0-2.76.14-3.23.14s-.7-.17-.7-.5c0-1,2.62.13,2.62-3.19Z"/><path class="cls-7" d="M139.77,197.85c0,2.31,3,1.34,3,2.25,0,.4-.24.47-.74.47s-1.24-.14-3.19-.14c-1.78,0-2.45.14-2.85.14s-.61-.07-.61-.41c0-.67,2,0,2-2.18v-8.32c0-2-2.48-1.14-2.48-1.85a.37.37,0,0,1,.3-.37c2.79-.6,3.46-1.68,4.23-1.68.2,0,.4.21.4.54v2.22c-.06.4,1.61-2.49,4.87-2.49,4.5,0,5.47,3.73,5.47,6.28v5.54c0,2.31,2.62,1.34,2.62,2.25,0,.4-.23.47-.57.47s-1.28-.14-2.92-.14c-1.28,0-2,.14-2.42.14s-.6-.07-.6-.41c0-.67,1.44,0,1.44-2.18v-6.27a4.09,4.09,0,0,0-3.93-4.2c-2.82,0-4,2.08-4,2.62Z"/><path class="cls-7" d="M153.94,190.06c0-2.68,2.08-4,4.53-4,.57,0,2.88.27,3.29.77a4.72,4.72,0,0,1,.17,1.65c0,.91.13,1.31-.38,1.31-.33,0-.63-2.92-3.69-2.92a2.13,2.13,0,0,0-2.35,2.15c0,1.11.88,1.81,4.4,3.22,1.91.81,2.79,1.84,2.79,4a4.59,4.59,0,0,1-4.54,4.59c-2.34,0-2.95-1-3.75-1s-.74,0-.74-2.69c0-.57-.1-1.64.4-1.64.74,0,.37,4.43,4,4.43a2.74,2.74,0,0,0,3-2.75c0-1.78-1.71-2.32-3.05-3C156.18,193.32,153.94,192.44,153.94,190.06Z"/><path class="cls-7" d="M166.22,187.85c-1.58,0-1.81,0-1.81-.24s.84-.84,2.55-2.72c.67-.81,1-1.54,1.27-1.54.47,0,.44.7.44,3.12h3.69a2.08,2.08,0,0,0,1.31-.57.26.26,0,0,1,.24.27,1.05,1.05,0,0,1-.21.47l-.67,1.21h-4.36v9.76a2.06,2.06,0,0,0,2.35,2c1.78,0,2.28-.77,2.85-.77.14,0,.27,0,.27.3,0,.5-1.81,1.64-4.16,1.64-1.55,0-3.76-.43-3.76-3.89Z"/><path class="cls-7" d="M177.63,189.66c0-2-1.85-1.14-1.85-1.85a.38.38,0,0,1,.31-.37c2.15-.6,2.82-1.68,3.59-1.68.2,0,.4.21.4.54v12c0,1.72,2.65,1,2.65,1.85,0,.27-.2.37-.63.37-.71,0-1.75-.14-3.13-.14-1.07,0-1.94.14-2.31.14s-.47,0-.51-.37c0-.84,1.48.43,1.48-2.62Zm2.62-8.76c0,.4-1,1.74-1.41,1.74s-1.41-1.37-1.41-1.74,1-1.78,1.41-1.78S180.25,180.49,180.25,180.9Z"/><path class="cls-7" d="M185.85,187.85c-1.57,0-1.81,0-1.81-.24s.84-.84,2.55-2.72c.67-.81,1-1.54,1.28-1.54.47,0,.43.7.43,3.12H192a2.12,2.12,0,0,0,1.31-.57c.16,0,.23.17.23.27a1.14,1.14,0,0,1-.2.47l-.67,1.21H188.3v9.76a2.06,2.06,0,0,0,2.35,2c1.78,0,2.29-.77,2.86-.77.13,0,.27,0,.27.3,0,.5-1.82,1.64-4.17,1.64-1.54,0-3.76-.43-3.76-3.89Z"/><path class="cls-7" d="M205.49,188.48c0-1.27-1.78-.47-1.78-1.27,0-.27.44-.3.6-.3a6.25,6.25,0,0,0,1.82-.21,5.93,5.93,0,0,1,1.21-.16.72.72,0,0,1,.6.8V199c0,.87,2.11.43,2.11,1.17,0,.27-.7.3-1.24.3a8.75,8.75,0,0,0-1.81.17,3.7,3.7,0,0,1-1.14.2c-.27,0-.3-.37-.3-.5v-1.85h-.07A5.2,5.2,0,0,1,201,200.8c-2.68,0-4.9-1.64-4.9-4.5v-7.82c0-1.27-1.78-.47-1.78-1.27,0-.27.44-.3.61-.3a6.22,6.22,0,0,0,1.81-.21,6,6,0,0,1,1.21-.16.72.72,0,0,1,.6.8v8.49c0,3.56,2.82,3.8,3.26,3.8,1.91,0,3.59-1.41,3.66-2.39Z"/><path class="cls-7" d="M212.94,187.85c-1.58,0-1.82,0-1.82-.24s.84-.84,2.56-2.72c.67-.81,1-1.54,1.27-1.54.47,0,.44.7.44,3.12h3.69a2.08,2.08,0,0,0,1.31-.57.25.25,0,0,1,.23.27,1.14,1.14,0,0,1-.2.47l-.67,1.21h-4.36v9.76a2.06,2.06,0,0,0,2.35,2c1.78,0,2.28-.77,2.85-.77.14,0,.27,0,.27.3,0,.5-1.81,1.64-4.16,1.64-1.55,0-3.76-.43-3.76-3.89Z"/><path class="cls-7" d="M224.35,191.94c0,5.54,3.36,7.19,5.4,7.19,2.89,0,4-1.75,4.74-1.75.13,0,.13.13.13.23,0,.78-2.92,3.19-5.94,3.19-5,0-6.78-4.66-6.78-6.88,0-4.3,2.38-7.89,6.58-7.89a6.18,6.18,0,0,1,5.94,5.34c0,.6-.37.57-1.14.57ZM231,191c.47,0,.67-.17.67-.68a3.85,3.85,0,0,0-3.72-3.56c-2.08,0-3.56,2.39-3.56,4.24Z"/><path class="cls-7" d="M245.93,186.47a13.29,13.29,0,0,1,2-7.08c.77-1.21,3.05-3.59,5.44-3.59.43,0,1.37.13,1.37.7s-.13,2.38-.5,2.38-.17-1.41-2.28-1.41c-1.78,0-3,1.92-3.29,3.46a30.13,30.13,0,0,0-.27,5.54H251a2.08,2.08,0,0,0,1.31-.57.26.26,0,0,1,.24.27,1.14,1.14,0,0,1-.2.47l-.67,1.21h-3.26v10.2c0,2.15,2.38,1.34,2.38,2.08,0,.4-.43.3-.7.3h-5.21c-.16,0-.53.07-.53-.2,0-.7,1.61-.3,1.61-1.91V187.85h-2.28l.2-1.38Z"/><path class="cls-7" d="M253.11,193.69A7.58,7.58,0,0,1,260.6,186c2.55,0,7.28,1.24,7.28,7.49a7.12,7.12,0,0,1-7.25,7.28C256.27,200.8,253.11,198.22,253.11,193.69Zm12.42.33c0-3.46-1.44-7.25-5.44-7.25-3.29,0-4.63,2.89-4.63,5.74,0,3.29,1.55,7.59,5.47,7.59C263.75,200.1,265.53,198.18,265.53,194Z"/><path class="cls-7" d="M273.89,197.61c0,3.13,3,1.52,3,2.59,0,.3-.16.37-.53.37s-1.28-.14-3.16-.14a26.77,26.77,0,0,0-3.09.14c-.26,0-.37-.1-.37-.3,0-.71,1.72-.58,1.72-2v-8.66c0-2-2.42-1.14-2.42-1.85,0-.2.27-.33.44-.37,2.58-.6,3.25-1.68,4-1.68.21,0,.41.21.41.54v2.52H274c.71-1,1.92-2.79,3.33-2.79.7,0,2.21.88,2.21,1.51s-.8,1.51-1.21,1.51c-.63,0-1-.77-2.21-.77a2.49,2.49,0,0,0-2.18,2Z"/><path class="cls-7" d="M291.27,179.69c0-2.45-2.72-1.78-2.72-2.52,0-.3.07-.37.34-.37,1.24,0,2.45.14,3.69.14,1,0,2.08-.14,3.12-.14.54,0,.64.07.64.34,0,.8-2.42,0-2.42,2.55v18c0,2.29,3,1.51,3,2.52,0,.24-.1.34-.67.34-.77,0-2.21-.14-3.66-.14-2.05,0-2.75.14-3.22.14s-.71-.17-.71-.5c0-1,2.62.13,2.62-3.19Z"/><path class="cls-7" d="M303.29,197.85c0,2.31,2.95,1.34,2.95,2.25,0,.4-.23.47-.74.47s-1.24-.14-3.19-.14c-1.77,0-2.45.14-2.85.14s-.6-.07-.6-.41c0-.67,2,0,2-2.18v-8.32c0-2-2.49-1.14-2.49-1.85a.38.38,0,0,1,.31-.37c2.78-.6,3.45-1.68,4.22-1.68.21,0,.41.21.41.54v2.22c-.07.4,1.61-2.49,4.86-2.49,4.5,0,5.48,3.73,5.48,6.28v5.54c0,2.31,2.61,1.34,2.61,2.25,0,.4-.23.47-.57.47s-1.27-.14-2.92-.14c-1.27,0-2,.14-2.41.14s-.61-.07-.61-.41c0-.67,1.45,0,1.45-2.18v-6.27a4.09,4.09,0,0,0-3.93-4.2c-2.82,0-4,2.08-4,2.62Z"/><path class="cls-7" d="M319,187.85c-1.57,0-1.81,0-1.81-.24s.84-.84,2.55-2.72c.67-.81,1-1.54,1.28-1.54.47,0,.43.7.43,3.12h3.7a2.08,2.08,0,0,0,1.31-.57c.16,0,.23.17.23.27a1.14,1.14,0,0,1-.2.47l-.67,1.21h-4.37v9.76a2.06,2.06,0,0,0,2.35,2c1.78,0,2.29-.77,2.86-.77.13,0,.27,0,.27.3,0,.5-1.82,1.64-4.17,1.64-1.54,0-3.76-.43-3.76-3.89Z"/><path class="cls-7" d="M330.4,191.94c0,5.54,3.36,7.19,5.41,7.19,2.89,0,4-1.75,4.73-1.75.14,0,.14.13.14.23,0,.78-2.92,3.19-5.95,3.19-5,0-6.78-4.66-6.78-6.88,0-4.3,2.39-7.89,6.58-7.89a6.19,6.19,0,0,1,6,5.34c0,.6-.37.57-1.15.57ZM337,191c.47,0,.67-.17.67-.68A3.85,3.85,0,0,0,334,186.8c-2.08,0-3.56,2.39-3.56,4.24Z"/><path class="cls-7" d="M353.09,187.38c1.62,0,1.78-2.15,2.25-2.15.3,0,.27.33.27.53,0,2.59-.5,2.72-1.74,3.49a8.2,8.2,0,0,1,.23,1.79c0,3.18-2.52,5.13-5.57,5.13a10.39,10.39,0,0,1-2.32-.27,2,2,0,0,0-1.61,1.85c0,.27-.27,1.61,4,1.61,2.82,0,6.61-.34,6.61,3,0,2.11-1.77,4.9-7.38,4.9-2.15,0-5.67-.81-5.67-3.56,0-1.38,1.27-2.38,2.45-2.82a2.65,2.65,0,0,1-1.28-2.65c0-1.34,1.71-2.72,1.75-2.72v-.07a4.82,4.82,0,0,1-2.15-4.13,5.25,5.25,0,0,1,5.4-5.27C351.08,186,352.16,187.38,353.09,187.38Zm-5.1,19.1c4.6,0,5.57-2.12,5.57-3.33,0-1.41-1.17-1.47-4.63-1.57a21.79,21.79,0,0,1-3.52-.34c-1,0-1.65,1.54-1.65,2.42C343.76,205.91,346.15,206.48,348,206.48Zm.51-19.71c-2.49,0-3.29,1.95-3.29,4.13s.94,4.53,3.42,4.53,3.29-1.84,3.29-4S351,186.77,348.5,186.77Z"/><path class="cls-7" d="M361.21,197.61c0,3.13,3,1.52,3,2.59,0,.3-.16.37-.54.37s-1.27-.14-3.15-.14a26.77,26.77,0,0,0-3.09.14c-.27,0-.37-.1-.37-.3,0-.71,1.71-.58,1.71-2v-8.66c0-2-2.41-1.14-2.41-1.85,0-.2.27-.33.43-.37,2.59-.6,3.26-1.68,4-1.68.2,0,.4.21.4.54v2.52h.07c.71-1,1.91-2.79,3.32-2.79.71,0,2.22.88,2.22,1.51s-.8,1.51-1.21,1.51c-.64,0-1-.77-2.21-.77a2.5,2.5,0,0,0-2.19,2Z"/><path class="cls-7" d="M376.32,189.83c0-1.75-1.38-2.92-3.46-2.92-1.61,0-2.92.16-2.92,2,0,.5.2,1,.2,1.38s-.1.63-.74.63-1.57-.5-1.57-1.1c0-1.55,1.91-3.9,5.64-3.8,2.08,0,5.3.61,5.3,3.46v6.95c0,1.14-.3,3.12,1.44,3.12.14,0,.44-.07.57-.07s.44,0,.44.24c0,.7-1.48.84-2,.84a2.6,2.6,0,0,1-2.62-1.71,8,8,0,0,1-5.13,1.94c-2.18,0-3.63-.8-3.63-3.19,0-1.78.57-3.89,8.43-5.2Zm0,3.39c-2.15.47-6.25,1-6.25,4,0,1.91,1,2.65,2.76,2.65,1.21,0,3.49-.94,3.49-2.72Z"/><path class="cls-7" d="M383.87,187.85c-1.58,0-1.81,0-1.81-.24s.83-.84,2.55-2.72c.67-.81,1-1.54,1.27-1.54.47,0,.44.7.44,3.12H390a2.08,2.08,0,0,0,1.31-.57.26.26,0,0,1,.24.27,1.18,1.18,0,0,1-.21.47l-.67,1.21h-4.36v9.76a2.06,2.06,0,0,0,2.35,2c1.78,0,2.28-.77,2.85-.77.14,0,.27,0,.27.3,0,.5-1.81,1.64-4.16,1.64-1.55,0-3.76-.43-3.76-3.89Z"/><path class="cls-7" d="M395.28,189.66c0-2-1.85-1.14-1.85-1.85a.38.38,0,0,1,.31-.37c2.14-.6,2.82-1.68,3.59-1.68.2,0,.4.21.4.54v12c0,1.72,2.65,1,2.65,1.85,0,.27-.2.37-.64.37-.7,0-1.74-.14-3.12-.14-1.07,0-1.94.14-2.31.14s-.47,0-.51-.37c0-.84,1.48.43,1.48-2.62Zm2.62-8.76c0,.4-1,1.74-1.41,1.74s-1.41-1.37-1.41-1.74,1-1.78,1.41-1.78S397.9,180.49,397.9,180.9Z"/><path class="cls-7" d="M401.62,193.69a7.58,7.58,0,0,1,7.49-7.66c2.55,0,7.28,1.24,7.28,7.49a7.12,7.12,0,0,1-7.25,7.28C404.78,200.8,401.62,198.22,401.62,193.69ZM414,194c0-3.46-1.44-7.25-5.44-7.25-3.29,0-4.63,2.89-4.63,5.74,0,3.29,1.55,7.59,5.47,7.59C412.26,200.1,414,198.18,414,194Z"/><path class="cls-7" d="M422.36,197.85c0,2.31,3,1.34,3,2.25,0,.4-.24.47-.74.47s-1.24-.14-3.19-.14c-1.78,0-2.45.14-2.85.14s-.61-.07-.61-.41c0-.67,2,0,2-2.18v-8.32c0-2-2.48-1.14-2.48-1.85a.37.37,0,0,1,.3-.37c2.79-.6,3.46-1.68,4.23-1.68.2,0,.4.21.4.54v2.22c-.06.4,1.61-2.49,4.87-2.49,4.5,0,5.47,3.73,5.47,6.28v5.54c0,2.31,2.62,1.34,2.62,2.25,0,.4-.23.47-.57.47s-1.28-.14-2.92-.14c-1.28,0-2,.14-2.42.14s-.6-.07-.6-.41c0-.67,1.44,0,1.44-2.18v-6.27a4.09,4.09,0,0,0-3.92-4.2c-2.82,0-4,2.08-4,2.62Z"/><path class="cls-7" d="M124.64,229.77a7.57,7.57,0,0,1,7.48-7.65c2.55,0,7.29,1.24,7.29,7.49a7.13,7.13,0,0,1-7.26,7.28C127.79,236.89,124.64,234.31,124.64,229.77Zm12.42.34c0-3.46-1.45-7.25-5.44-7.25-3.29,0-4.64,2.89-4.64,5.74,0,3.29,1.55,7.59,5.48,7.59C135.28,236.19,137.06,234.27,137.06,230.11Z"/><path class="cls-7" d="M142.69,222.56a13.33,13.33,0,0,1,2-7.09c.78-1.2,3.06-3.59,5.44-3.59.44,0,1.38.14,1.38.71S151.35,215,151,215s-.16-1.41-2.28-1.41c-1.78,0-3,1.91-3.29,3.46a31,31,0,0,0-.27,5.54h2.59A2.08,2.08,0,0,0,149,222c.16,0,.23.17.23.26a1.12,1.12,0,0,1-.2.48l-.67,1.2h-3.26v10.21c0,2.15,2.39,1.34,2.39,2.08,0,.4-.44.3-.71.3h-5.2c-.17,0-.54.07-.54-.2,0-.7,1.61-.3,1.61-1.91V223.93h-2.28l.2-1.37Z"/><path class="cls-7" d="M182.8,233.57c.17,2.82,2.66,1.57,2.66,2.75,0,.34-.44.34-.81.34-.64,0-1.81-.14-3.16-.14-1,0-2.11.14-3,.14-.3,0-.37-.17-.37-.31,0-1,2.12-.26,2.08-2.75l-.33-13c0-.84-.17-1.31-.37-1.31s-.54.3-.88,1l-6.94,14.16c-.17.3-.71,1.68-1,1.68s-.58-.74-.68-1l-7.15-15c-.1-.26-.26-.36-.4-.36s-.2.16-.23.5l-.41,11.78c-.16,4.47,3,3,3,4.2,0,.33-.38.37-.84.37s-1.95-.14-3-.14c-1.74,0-2.31.14-2.92.14-.23,0-.33-.17-.33-.41,0-1.14,2.14.24,2.38-3.25.4-5.47.81-9,.81-12.59,0-7.89-3.19-6-3.19-7.15,0-.3.26-.37.57-.37.6,0,1.2.13,1.84.13s1.21-.13,1.81-.13.54.57.71.94l8,17c.37.71.5,1,.74,1s.5-.7,1-1.81l8-16.05c.2-.37.47-1.17.87-1.14s1.41.13,1.58.13c.77,0,1.07-.13,1.61-.13a.37.37,0,0,1,.33.4c0,1.08-2.68-.37-2.55,3.63Z"/><path class="cls-7" d="M189.78,228c0,5.54,3.36,7.18,5.4,7.18,2.89,0,4-1.74,4.74-1.74.13,0,.13.13.13.23,0,.77-2.92,3.19-5.94,3.19-5,0-6.78-4.67-6.78-6.88,0-4.3,2.38-7.89,6.58-7.89a6.18,6.18,0,0,1,5.94,5.34c0,.6-.37.57-1.14.57Zm6.61-.91c.47,0,.67-.16.67-.67a3.85,3.85,0,0,0-3.72-3.56c-2.08,0-3.56,2.39-3.56,4.23Z"/><path class="cls-7" d="M212.44,215.41c0-2-2.66-1.14-2.66-1.85a.38.38,0,0,1,.31-.37c2.58-.6,3.62-1.68,4.39-1.68.21,0,.41.2.41.54v23c0,.4.67.67,1.78.84.23,0,.36,0,.36.3s-.87.47-2.11.47a20,20,0,0,0-2.11.27c-.27,0-.37-.27-.37-.5v-1.85h-.07a6.32,6.32,0,0,1-4.93,2.35c-3.7,0-5.95-3.39-5.95-6.85,0-4,2.79-7.92,7-7.92a7,7,0,0,1,3.93,1.18Zm0,11.38c0-2.49-2-3.9-4.44-3.9-3.15,0-4.56,3-4.56,5.74s2,6.82,5.2,6.82c2.79,0,3.8-1.71,3.8-2.92Z"/><path class="cls-7" d="M220.59,225.75c0-2-1.85-1.15-1.85-1.85a.37.37,0,0,1,.31-.37c2.15-.6,2.82-1.68,3.59-1.68.2,0,.4.2.4.54v12.05c0,1.71,2.65,1,2.65,1.85,0,.27-.2.37-.63.37-.71,0-1.75-.14-3.13-.14-1.07,0-1.94.14-2.31.14s-.47,0-.51-.37c0-.84,1.48.43,1.48-2.62Zm2.62-8.76c0,.4-1,1.74-1.41,1.74s-1.41-1.37-1.41-1.74,1-1.79,1.41-1.79S223.21,216.58,223.21,217Z"/><path class="cls-7" d="M226.9,229.77a7.58,7.58,0,0,1,7.55-7.65c1.68,0,4,.47,4.06,1.24s0,1.55,0,2-.1.71-.27.71c-.34,0-.7-.64-.81-.77a4.85,4.85,0,0,0-4.16-2.05c-2.85,0-4,3-4,5.37,0,3.62,2.15,6.61,5.94,6.61,2.62,0,4.1-2,4.6-2,.1,0,.27.11.27.21,0,.53-2,3.42-6.61,3.42A6.9,6.9,0,0,1,226.9,229.77Z"/><path class="cls-7" d="M244,225.75c0-2-1.85-1.15-1.85-1.85a.37.37,0,0,1,.31-.37c2.14-.6,2.82-1.68,3.59-1.68.2,0,.4.2.4.54v12.05c0,1.71,2.65,1,2.65,1.85,0,.27-.2.37-.64.37-.7,0-1.74-.14-3.12-.14-1.07,0-1.94.14-2.31.14s-.47,0-.51-.37c0-.84,1.48.43,1.48-2.62Zm2.62-8.76c0,.4-1,1.74-1.41,1.74s-1.41-1.37-1.41-1.74,1-1.79,1.41-1.79S246.57,216.58,246.57,217Z"/><path class="cls-7" d="M254.69,233.94c0,2.31,2.95,1.34,2.95,2.25,0,.4-.23.47-.73.47s-1.25-.14-3.19-.14c-1.78,0-2.45.14-2.86.14s-.6-.07-.6-.41c0-.67,2,0,2-2.18v-8.32c0-2-2.48-1.15-2.48-1.85a.36.36,0,0,1,.3-.37c2.78-.6,3.45-1.68,4.23-1.68.2,0,.4.2.4.54v2.21c-.07.41,1.61-2.48,4.87-2.48,4.5,0,5.47,3.73,5.47,6.28v5.54c0,2.31,2.62,1.34,2.62,2.25,0,.4-.24.47-.57.47s-1.28-.14-2.92-.14c-1.28,0-2,.14-2.42.14s-.6-.07-.6-.41c0-.67,1.44,0,1.44-2.18v-6.28a4.09,4.09,0,0,0-3.93-4.19c-2.82,0-4,2.08-4,2.62Z"/><path class="cls-7" d="M271.07,228c0,5.54,3.35,7.18,5.4,7.18,2.89,0,4-1.74,4.73-1.74.14,0,.14.13.14.23,0,.77-2.92,3.19-5.94,3.19-5,0-6.78-4.67-6.78-6.88,0-4.3,2.38-7.89,6.58-7.89a6.18,6.18,0,0,1,5.94,5.34c0,.6-.37.57-1.14.57Zm6.61-.91c.47,0,.67-.16.67-.67a3.85,3.85,0,0,0-3.72-3.56c-2.08,0-3.56,2.39-3.56,4.23Z"/><path class="cls-7" d="M305.27,217.62c0,.17-.2.27-.34.27-.3,0-.4-.4-.5-.6-.81-1.75-2.55-3.53-4.6-3.53a2.68,2.68,0,0,0-2.78,2.72c0,2.25,5,7.55,12.21,14.27a5,5,0,0,0,1-3.56c0-3.93-3.16-2.59-3.16-3.66,0-.37.51-.3.78-.3,1.24,0,2.41.13,2.92.13s1-.13,2.14-.13c.31,0,.47.07.47.4,0,.54-1.27.17-1.44,1.65a15.65,15.65,0,0,1-1.58,6.17c1.28,1,4.43,4.27,5.94,4.27a8.58,8.58,0,0,0,1.25-.17.25.25,0,0,1,.26.27c0,.57-1.67,1.07-2.78,1.07-2.52,0-4.37-1.91-6.21-3.39a11.47,11.47,0,0,1-8.26,3.39c-4.93,0-9.26-3.26-9.26-8.49,0-3.59,1.77-6.35,5.37-7.12a6.21,6.21,0,0,1-1.55-3.83c0-3,2.72-4.56,5.44-4.56a8,8,0,0,1,3.59.91c.17,0,.3-.31.61-.31.47,0,.4.64.4.95Zm2.45,15.14c-7.18-6.14-9.73-10.64-10.94-10.64-2.12,0-3.66,2.62-3.66,4.57,0,4.46,4.26,8.22,8.59,8.22A9.34,9.34,0,0,0,307.72,232.76Z"/><path class="cls-7" d="M326.58,230.71c-.14-.67,0-1,.37-1s.47.41.64,1.11a7.15,7.15,0,0,0,7.05,5c3.18,0,6.31-1.78,6.31-5.31,0-6.48-13.63-2.85-13.63-11.61,0-4.26,3.59-6.31,7.45-6.31a11.87,11.87,0,0,1,5.64,1.21c.3,0,.37-.37.7-.37s.37.1.41.47l.5,4.56c0,.27,0,.51-.37.51s-.6-.71-.7-1a6.42,6.42,0,0,0-6.42-4.37c-2.65,0-5.47,1.28-5.47,4.37,0,6.31,13.63,2.62,13.63,11.88,0,2.82-2,7-9.6,7-2.48,0-5.54-1.24-5.67-1.84Z"/><path class="cls-7" d="M344.6,229.77a7.59,7.59,0,0,1,7.56-7.65c1.67,0,4,.47,4.06,1.24s0,1.55,0,2-.1.71-.27.71c-.33,0-.7-.64-.8-.77a4.86,4.86,0,0,0-4.17-2.05c-2.85,0-4,3-4,5.37,0,3.62,2.15,6.61,5.94,6.61,2.62,0,4.1-2,4.6-2,.1,0,.27.11.27.21,0,.53-2,3.42-6.61,3.42A6.9,6.9,0,0,1,344.6,229.77Z"/><path class="cls-7" d="M361.65,225.75c0-2-1.84-1.15-1.84-1.85a.36.36,0,0,1,.3-.37c2.15-.6,2.82-1.68,3.59-1.68.2,0,.4.2.4.54v12.05c0,1.71,2.65,1,2.65,1.85,0,.27-.2.37-.63.37-.71,0-1.75-.14-3.13-.14-1.07,0-1.94.14-2.31.14s-.47,0-.5-.37c0-.84,1.47.43,1.47-2.62Zm2.62-8.76c0,.4-1,1.74-1.41,1.74s-1.41-1.37-1.41-1.74,1-1.79,1.41-1.79S364.27,216.58,364.27,217Z"/><path class="cls-7" d="M370.55,228c0,5.54,3.35,7.18,5.4,7.18,2.89,0,4-1.74,4.73-1.74.14,0,.14.13.14.23,0,.77-2.92,3.19-5.94,3.19-5,0-6.78-4.67-6.78-6.88,0-4.3,2.38-7.89,6.57-7.89a6.19,6.19,0,0,1,5.95,5.34c0,.6-.37.57-1.15.57Zm6.61-.91c.47,0,.67-.16.67-.67a3.85,3.85,0,0,0-3.73-3.56c-2.08,0-3.55,2.39-3.55,4.23Z"/><path class="cls-7" d="M386.86,233.94c0,2.31,2.95,1.34,2.95,2.25,0,.4-.23.47-.74.47s-1.24-.14-3.19-.14c-1.78,0-2.45.14-2.85.14s-.6-.07-.6-.41c0-.67,2,0,2-2.18v-8.32c0-2-2.49-1.15-2.49-1.85a.37.37,0,0,1,.3-.37c2.79-.6,3.46-1.68,4.23-1.68.21,0,.41.2.41.54v2.21c-.07.41,1.61-2.48,4.86-2.48,4.5,0,5.48,3.73,5.48,6.28v5.54c0,2.31,2.62,1.34,2.62,2.25,0,.4-.24.47-.58.47s-1.27-.14-2.92-.14c-1.27,0-2,.14-2.41.14s-.61-.07-.61-.41c0-.67,1.44,0,1.44-2.18v-6.28a4.08,4.08,0,0,0-3.92-4.19c-2.82,0-4,2.08-4,2.62Z"/><path class="cls-7" d="M400.65,229.77a7.58,7.58,0,0,1,7.55-7.65c1.68,0,4,.47,4.06,1.24s0,1.55,0,2-.1.71-.27.71c-.34,0-.71-.64-.81-.77a4.86,4.86,0,0,0-4.16-2.05c-2.85,0-4,3-4,5.37,0,3.62,2.15,6.61,5.94,6.61,2.62,0,4.1-2,4.6-2,.1,0,.27.11.27.21,0,.53-2,3.42-6.61,3.42A6.9,6.9,0,0,1,400.65,229.77Z"/><path class="cls-7" d="M417.7,228c0,5.54,3.36,7.18,5.4,7.18,2.89,0,4-1.74,4.74-1.74.13,0,.13.13.13.23,0,.77-2.92,3.19-5.94,3.19-5,0-6.78-4.67-6.78-6.88,0-4.3,2.38-7.89,6.58-7.89a6.18,6.18,0,0,1,5.94,5.34c0,.6-.37.57-1.14.57Zm6.61-.91c.47,0,.67-.16.67-.67a3.85,3.85,0,0,0-3.72-3.56c-2.08,0-3.56,2.39-3.56,4.23Z"/></svg>