<?xml version="1.0" encoding="utf-8"?>
<!-- Generator: Adobe Illustrator 25.2.3, SVG Export Plug-In . SVG Version: 6.00 Build 0)  -->
<svg version="1.1" id="Layer_1" xmlns="http://www.w3.org/2000/svg" xmlns:xlink="http://www.w3.org/1999/xlink" x="0px" y="0px"
	 viewBox="0 0 371 202" style="enable-background:new 0 0 371 202;" xml:space="preserve">
<style type="text/css">
	.st0{fill:#221F1F;}
	.st1{fill:none;stroke:#BC4B27;stroke-width:1.6688;}
	.st2{fill:#FFFFFF;}
	.st3{fill:#BC4B27;}
	.st4{fill:#D66027;}
	.st5{fill:#FDCEB0;}
	.st6{fill:#7B6669;stroke:#7B6669;stroke-width:0.1562;stroke-miterlimit:3.71;}
</style>
<g>
	<path class="st0" d="M139.2,79.7c2.3-3.1,3.5-7.7,3.5-13.5V50.4c-0.1-1.8,0.1-3.6,0.6-5.4c0.5-1,1.4-1.8,2.4-2.1
		c0.5-0.2,0.8-0.5,0.8-0.9c0-0.4-0.3-0.7-0.7-0.8c-0.1,0-0.1,0-0.2,0c-0.2,0-0.7,0-1.4,0.1c-0.6,0.1-2,0.1-4.4,0.1
		c-1,0-1.9-0.1-2.9-0.2c-0.7-0.1-1.4-0.2-2.1-0.3c-0.2,0-0.4,0-0.6,0.2c-0.2,0.2-0.2,0.4-0.2,0.7c0,0.4,0.2,0.8,1.1,0.9
		c1.5,0,2.9,0.8,3.7,2c0.7,1.2,1.1,3.1,1.1,5.7v16.5c0,5.5-1.2,9.7-3.7,12.4s-6.2,4.1-11.2,4.1c-5.6,0-9.6-1.6-11.9-4.9
		c-1.6-2.3-2.5-6.2-2.5-11.6v-16l-0.1-2.1c-0.1-1.4,0.1-2.9,0.6-4.2c0.5-0.8,1.4-1.4,2.3-1.5c0.8-0.1,1.2-0.5,1.2-1
		c0-0.3-0.1-0.7-0.9-0.7c-0.3,0-0.8,0-1.6,0.1c-0.9,0.1-1.5,0.1-1.8,0.1h-2.5h-2.5c-0.4,0-1.2,0-2.1-0.1c-1-0.1-1.6-0.1-2.2-0.1
		c-1.2,0-1.4,0.5-1.4,0.9s0.2,0.7,1,0.9c1.8,0.3,3.1,0.8,3.6,1.6c0.6,0.8,0.9,2.4,0.9,4.6l0.1,1.8v16.2c0,4.5,0.8,8.1,2.3,10.9
		c1.5,2.5,3.7,4.5,6.4,5.8c3.1,1.4,6.5,2.2,9.9,2.1c3,0,6-0.6,8.8-1.8C135.3,83.4,137.5,81.8,139.2,79.7"/>
	<path class="st0" d="M164.7,45.2c1,0,1.3,0.2,1.4,0.3c0.1,0.1,0.3,0.4,0.3,1.3v0.8v31.7c0,1.7-0.3,2.9-0.8,3.6
		c-0.6,0.6-1.6,1.1-3.2,1.3c-0.8,0.1-1.2,0.4-1.2,0.8c0,0.3,0.1,0.9,1.2,0.9c0.2,0,0.9-0.1,2.2-0.2c0.6-0.1,1.4-0.1,2.3-0.1h2.5h2.3
		c0.9,0,1.9,0,2.8,0.1c0.5,0.1,1.1,0.2,1.6,0.2c1,0,1.1-0.6,1.1-0.9c0-0.5-0.4-0.8-1.3-0.9c-2.6-0.5-3.9-1.8-4-4.2v-1.2V47.3
		c0-1.2,0.2-1.6,0.3-1.8c0.1-0.1,0.5-0.3,1.6-0.3h9c1.7,0,2.9,0.2,3.5,0.6l0,0c0.6,0.4,1,1.4,1.3,2.8c0.1,0.8,0.5,1.2,1,1.2
		c0.4,0,0.9-0.3,0.8-1.2c0-0.3-0.1-0.9-0.2-1.6c-0.1-0.9-0.2-1.8-0.2-2.7c0-1.8-0.2-2.2-0.4-2.4c-0.2-0.2-1-0.4-2.3-0.4h-34.4
		c-0.6-0.1-1.2,0.1-1.6,0.5c-0.3,0.6-0.4,1.3-0.4,2c0,1.3-0.2,2.5-0.5,3.7c-0.2,0.8-0.3,1.6-0.4,2.5c0,0.9,0.5,1.1,0.8,1.1
		c0.8,0,1-1,1.1-1.4c0.4-1.9,1-3.1,1.7-3.8c1-0.7,2.3-1.1,3.6-1L164.7,45.2z"/>
	<path class="st0" d="M238.2,85.7c0.6-0.1,1.1-0.1,1.5-0.1l2.4-0.1h2.4c1.1,0,2.1,0,3.2,0.1c1.4,0.2,2.2,0.3,2.6-0.1
		c0.2-0.2,0.2-0.4,0.2-0.7c0-0.4-0.4-0.7-1.2-0.8c-1.7-0.2-2.9-0.7-3.5-1.5c-0.6-0.8-0.9-2.4-0.9-4.6V47.1c0-0.9,0.2-1.9,0.6-2.7
		c0.3-0.6,0.8-1.1,1.5-1.3l1.3-0.3c0.8-0.2,0.9-0.6,0.9-0.8s-0.1-0.8-1-0.8c-0.4,0-0.8,0.1-1.2,0.1c-1.6,0.2-3.2,0.2-4.8,0.2
		c-1.5,0-3-0.1-4.4-0.2c-1-0.1-1.7-0.2-2.2-0.2c-0.8,0-1,0.5-1,0.7s0.1,0.8,1.1,1c1.2,0.2,2.3,0.8,3,1.8c0.5,0.9,0.8,2.4,0.8,4.6V60
		c0,0.5-0.1,0.8-0.3,1c-0.5,0.2-1.1,0.3-1.6,0.2h-18.8c-1.7,0-2.1-0.2-2.2-0.3l0,0c-0.1-0.1-0.3-0.5-0.3-2V47.4
		c-0.1-1.1,0.1-2.3,0.7-3.3c0.7-0.8,1.7-1.3,2.8-1.5c0.7-0.2,1-0.5,1-0.9s-0.1-0.8-1.1-0.8c-0.5,0-0.9,0.1-1.4,0.1
		c-1.4,0.2-2.8,0.3-4.2,0.3c-1.9,0-3.9-0.1-5.8-0.3c-0.9-0.1-1.5-0.2-1.9-0.2c-0.3,0-0.6,0-0.8,0.2c-0.2,0.2-0.2,0.4-0.2,0.6
		c0,0.3,0.2,0.8,1.1,0.9c1.8,0.3,3,0.8,3.6,1.6c0.7,0.8,1,2.1,1,3.9v27.4c0.1,2.1-0.1,4.2-0.5,6.2c-0.2,0.9-0.8,1.7-1.8,2l-1.6,0.4
		c-0.8,0.2-1,0.6-1,0.9s0.1,0.8,1,0.8c0.2,0,0.9,0,2-0.1c0.8-0.1,1.5-0.1,2-0.1l2.1-0.1h2.7c1.3,0,2.5,0,3.8,0.1
		c0.5,0.1,1.1,0.1,1.6,0.1c0.3,0,0.7-0.1,0.9-0.3c0.1-0.2,0.2-0.4,0.2-0.6c0-0.6-0.5-0.9-1.4-1c-1.8-0.2-3.1-0.7-3.8-1.6
		s-1-2.4-1-4.5V66.1c0-1.2,0.2-1.6,0.4-1.7s0.7-0.3,2.1-0.3h18.8c1.4,0,1.7,0.2,1.8,0.2c0.1,0,0.2,0.3,0.2,1.6v11.7v1.2
		c0,3.2-1,4.9-3.2,5.3c-0.8,0.1-1.2,0.4-1.3,0.9c0,0.2,0.1,0.4,0.2,0.6c0.2,0.2,0.4,0.2,0.7,0.2h0.1
		C236.1,85.9,236.8,85.8,238.2,85.7"/>
	<path class="st0" d="M332.3,82l-0.3,0.1l-1.6,0.8c-1,0.5-2.1,0.7-3.2,0.7c-1.3,0.1-2.6-0.4-3.6-1.3c-0.6-0.6-0.8-1.9-0.8-3.9V62.5
		h7.4c0.7,0,1.3-0.4,1.5-1.1l0.7-1.8c0.2-0.3,0.3-0.6,0.3-0.9c0-0.2,0-0.3-0.1-0.5c-0.1-0.1-0.3-0.1-0.4-0.1
		c-0.3,0.1-0.6,0.2-0.8,0.4c-0.6,0.4-1.3,0.5-2.1,0.5h-6.6l0.1-5.3c0-0.8-0.4-1-0.6-1c-0.3,0-0.6,0.2-1.4,1.5
		c-1.6,2.4-3.5,4.5-5.7,6.3c-0.6,0.5-0.9,0.9-0.9,1.3c0,0.4,0.2,0.7,1,0.7h2.6v15.9c0,5.2,2.5,7.9,7.5,7.9c1.7,0,3.3-0.5,4.8-1.2
		c1.8-0.8,2.6-1.6,2.6-2.5C332.9,82.3,332.7,82,332.3,82C332.4,82,332.3,82,332.3,82"/>
	<path class="st0" d="M261,60c1.7,0.1,3.4,0.8,4.5,2.1c1.3,1.1,2,2.8,2.1,4.5c0,0.7-1.3,0.8-2.3,0.8h-10.6c0.2-1.9,0.9-3.8,2.1-5.4
		l0,0C257.8,60.8,259.4,60,261,60 M272.8,79.4c-0.2,0-0.4,0.1-0.6,0.3c-2.7,2-5.2,3.1-7.5,3.1c-2.9,0-5.6-1.3-7.3-3.6
		c-2-2.6-3.1-5.8-3-9v-0.5h11.9l2.2,0.1h2.4c1.5,0,2.3-0.4,2.3-1.3c-0.1-0.9-0.4-1.8-0.8-2.7c-0.4-1-1-2-1.6-3
		c-1.9-2.9-5.2-4.6-8.7-4.5c-3.4,0-6.6,1.6-8.7,4.2c-2.4,2.7-3.7,6.2-3.7,9.9c-0.1,3.6,1.2,7.2,3.6,9.9c2.2,2.6,5.5,4.1,8.9,4
		c3.3-0.1,6.4-1.2,8.9-3.3c1.6-1.2,2.3-2.2,2.3-2.9c0-0.2-0.1-0.4-0.2-0.6C273.1,79.4,272.9,79.4,272.8,79.4"/>
	<path class="st0" d="M313.8,83.9c-2.1-0.4-3.4-1-3.8-2c-0.4-1.3-0.6-2.6-0.6-3.9V40.4v-1l0,0c0-0.8-0.1-1.3-0.3-1.5
		c-0.1-0.1-0.2-0.1-0.3-0.1c-0.3,0-0.6,0.1-0.8,0.3c-1,0.6-2,1.1-3.1,1.5l-1.9,0.8c-0.6,0.2-1.3,0.4-2,0.6c-0.6,0.2-1,0.5-1,0.9
		c0,0.3,0.2,0.6,0.5,0.7c0.2,0.1,0.4,0.1,0.6,0.1l0,0l1.6-0.1c1.2,0,1.8,0.9,1.8,2.7v35.4c0.1,0.7-0.1,1.5-0.5,2.1
		c-0.5,0.5-1.1,0.9-1.8,1c-0.7,0.2-1.1,0.5-1,1c0,0.3,0.2,0.8,1.1,0.8c0.1,0,0.3,0,1.2-0.2c0.5-0.1,1.7-0.1,3.7-0.1h4.4
		c0.5,0,0.9,0,1.4,0.1c0.3,0.1,0.6,0.1,0.9,0.1c0.2,0,0.5-0.1,0.7-0.2c0.2-0.2,0.2-0.4,0.2-0.7C314.8,84.3,314.4,84,313.8,83.9"/>
	<path class="st0" d="M283.5,74.9c1.7-1.2,4.2-1.9,7.3-2.2v6.1c0.1,1.2-0.3,2.4-1,3.4c-1.2,1.1-2.7,1.7-4.3,1.6
		c-2.3,0.2-4.4-1.5-4.6-3.9c0-0.2,0-0.5,0-0.7C280.9,77.4,281.9,75.7,283.5,74.9 M300.1,83.4c-0.3,0-0.6,0.1-0.8,0.1
		c-0.2,0-0.5,0.1-0.7,0c-0.9,0.1-1.8-0.4-2.2-1.2c-0.5-1.3-0.8-2.7-0.7-4.1V65.8c0.1-2.1-0.8-4.2-2.5-5.6c-1.6-1.3-3.9-2-6.9-2
		c-2.9-0.1-5.7,1-7.8,3.1c-1.4,1.6-2.2,3-2.2,4.4c0,0.6,0.4,1.1,1.3,1.6c0.9,0.5,1.8,0.7,2.8,0.7c0.2,0,0.5-0.1,0.7-0.2
		c0.1-0.2,0.2-0.4,0.2-0.6c0-0.4-0.1-0.7-0.2-1.1c-0.2-0.8-0.4-1.5-0.4-2.3c0-2.2,1.3-3.3,4-3.3c1.8-0.1,3.6,0.6,4.8,1.8
		c0.9,0.9,1.3,2.5,1.3,4.9v3.8c-5.2,0.8-9,1.9-11.2,3.3c-2.1,1.2-3.5,3.4-3.4,5.9c-0.1,1.7,0.6,3.3,1.8,4.5c1.4,1.1,3.1,1.7,4.9,1.6
		c2.6,0,5.5-1.2,8.5-3.4c1.4,2.1,3,3.2,4.8,3.2c1,0,2-0.2,3-0.6c1.1-0.4,1.6-0.8,1.6-1.3c0-0.2,0-0.4-0.2-0.5
		c-0.1-0.1-0.4-0.2-0.6-0.2"/>
	<path class="st0" d="M364.8,84.2c-1.6-0.3-2.8-0.7-3.3-1.2c-0.5-0.6-0.7-1.6-0.7-3.2V69.6c0.1-3-0.9-5.9-2.8-8.2
		c-1.9-2.1-4.6-3.2-7.4-3.2c-3.1,0-6.1,1.6-8.8,4.7V41.7c0-0.7,0-1.2,0-1.6c0-0.4,0.1-0.6,0.1-0.8c0-0.8-0.5-0.9-0.7-0.9
		c-0.3,0-0.5,0.1-0.8,0.2l-2.5,1.2c-1.4,0.7-2.9,1.3-4.5,1.6c-0.6,0.2-0.9,0.4-0.9,0.8c0,0.2,0.1,0.5,0.3,0.6
		c0.2,0.1,0.4,0.1,0.6,0.1l0,0l1.6-0.1c0.4,0,0.8,0.1,1.1,0.4c0.6,0.5,0.8,1.6,0.8,3.2v33.3c0,2.2-0.2,3.1-0.4,3.4
		c-0.6,0.6-1.3,1.1-2.2,1.2c-0.8,0.2-0.9,0.7-0.9,1c0,0.3,0.2,0.7,1,0.7c0.3,0,0.8,0,1.5-0.1c1.6-0.1,2.8-0.2,3.7-0.2
		c2.5,0,4.1,0,4.8,0.1c1,0.1,1.5,0.1,1.8,0.1c0.8,0,0.9-0.5,0.9-0.7c0-0.5-0.4-0.8-1.3-1c-1.8-0.2-3-0.7-3.4-1.3
		c-0.5-0.6-0.7-2-0.7-4.1V66.5c0.1-1.5,0.9-2.8,2.1-3.6c1.3-1.1,3-1.6,4.7-1.6c2-0.1,4,0.8,5.4,2.3c1.4,1.8,2.1,4,2,6.3v10.6v1
		c0.1,0.6,0,1.2-0.3,1.8c-0.5,0.5-1.2,0.9-1.9,1c-0.5,0.2-0.8,0.5-0.8,0.8c0.1,0.3,0.2,0.8,1.1,0.8c0.2,0,0.5,0,1-0.1
		c1.4-0.1,2.7-0.2,4.1-0.2c1.1,0,2.5,0,4,0.2c0.8,0.1,1.3,0.1,1.6,0.1c0.9,0,1.1-0.5,1.1-0.8S365.8,84.3,364.8,84.2"/>
	<path class="st0" d="M112.9,110.7c-2-0.6-3.2-1.1-3.7-1.3c-0.5-0.3-1-0.7-1.4-1.2c-0.5-0.6-0.7-1.4-0.7-2.2c0-0.9,0.4-1.8,1.1-2.4
		c0.8-0.7,1.7-1,2.7-1c1.3,0,2.7,0.4,3.8,1.1c1,0.6,1.8,1.6,2.2,2.7c0.2,0.6,0.4,0.8,0.6,0.8c0.2,0,0.4-0.1,0.4-0.6
		c0-0.1,0-0.3-0.1-0.6l-0.3-1.6c-0.1-0.8-0.2-1.4-0.2-1.6c0-0.3,0-0.5-0.2-0.7c-0.1-0.1-0.2-0.1-0.3-0.1c-0.1,0-0.2,0-0.2,0.1
		l-0.2,0.2c-0.2,0.1-0.4,0.2-0.6,0.1l-1.1-0.5c-0.9-0.3-1.9-0.5-2.9-0.5c-1.8-0.1-3.5,0.5-4.9,1.6c-1.2,1-1.9,2.6-1.9,4.2
		c-0.1,1.4,0.5,2.7,1.5,3.7c1.4,1.2,3.1,2.1,4.9,2.6c1.4,0.4,2.8,1,4,1.7c0.9,0.7,1.4,1.7,1.3,2.9c0,1.2-0.5,2.3-1.5,3
		c-1,0.8-2.3,1.3-3.6,1.2c-1.4,0-2.7-0.5-3.9-1.3c-1.1-0.8-1.9-1.9-2.3-3.2c-0.2-0.5-0.4-0.8-0.6-0.8c-0.1,0-0.2,0-0.3,0.1
		c-0.1,0.1-0.2,0.3-0.1,0.4c0.1,0.7,0.2,1.4,0.4,2c0.2,0.9,0.4,1.3,0.4,1.4c0.1,0.4,0.2,0.7,0.3,1.1c0.1,0.2,0.2,0.3,0.4,0.4
		c0.7,0.4,1.4,0.7,2.1,0.8c0.9,0.2,1.8,0.3,2.7,0.3c2,0.1,4-0.6,5.5-1.9c1.4-1.2,2.2-3,2.1-4.8C118.7,114.1,116.7,112,112.9,110.7"
		/>
	<path class="st0" d="M124.4,118.1c1.1-0.6,2.3-1,3.6-1.1v3c0,0.6-0.1,1.2-0.5,1.6c-0.6,0.5-1.3,0.8-2.1,0.8
		c-1.1,0.1-2.2-0.8-2.2-1.9c0-0.1,0-0.2,0-0.3C123.1,119.3,123.6,118.5,124.4,118.1 M132.5,122.2c-0.1,0-0.3,0-0.4,0.1
		c-0.1,0-0.2,0-0.4,0c-0.4,0-0.9-0.2-1.1-0.6c-0.3-0.6-0.4-1.3-0.3-2v-6.1c0.1-1-0.4-2.1-1.2-2.7c-1-0.7-2.1-1-3.3-1
		c-1.4-0.1-2.8,0.5-3.8,1.5c-0.6,0.6-1,1.3-1.1,2.1c0,0.3,0.2,0.5,0.6,0.8c0.4,0.2,0.9,0.3,1.4,0.3c0.1,0,0.2,0,0.3-0.1
		c0.1-0.1,0.1-0.2,0.1-0.3c0-0.2-0.1-0.3-0.1-0.5c-0.1-0.4-0.2-0.8-0.2-1.2c0-1.1,0.6-1.6,2-1.6c0.9,0,1.7,0.3,2.4,0.9
		c0.5,0.7,0.7,1.5,0.6,2.4v1.8c-1.9,0.2-3.8,0.7-5.5,1.6c-1,0.6-1.7,1.7-1.6,2.8c0,0.8,0.3,1.6,0.9,2.2c0.7,0.6,1.5,0.9,2.4,0.8
		c1.5-0.1,3-0.7,4.2-1.6c0.5,0.9,1.3,1.5,2.3,1.5c0.5,0,1-0.1,1.4-0.3c0.5-0.2,0.8-0.4,0.8-0.6c0-0.1,0-0.2-0.1-0.2
		C132.7,122.3,132.6,122.2,132.5,122.2"/>
	<path class="st0" d="M149.4,122.5l-0.6-0.1c-0.6,0-1.2-0.5-1.2-1.1l0-0.7v-0.5v-3.7c0.1-1.5-0.2-3-1-4.3c-0.9-1.3-2.4-2.1-4-2.1
		c-1.5,0-2.9,0.8-4.2,2.3v-1.5c0-0.2,0-0.4,0-0.6c0-0.2,0-0.3-0.1-0.5c-0.1-0.1-0.4-0.1-0.6,0l-0.6,0.3l-0.8,0.4
		c-0.6,0.3-1.3,0.5-2,0.6c-0.3,0.1-0.5,0.2-0.5,0.4c0,0.1,0.1,0.2,0.2,0.3c0.1,0,0.2,0.1,0.3,0.1h0.7c0.4,0,0.7,0.1,0.9,0.4
		c0.2,0.5,0.3,1,0.3,1.5v7c0,0.4-0.1,0.9-0.3,1.3c-0.3,0.3-0.6,0.5-1,0.6c-0.2,0.1-0.3,0.2-0.3,0.4c0,0.1,0,0.2,0.1,0.2
		c0.1,0.1,0.2,0.1,0.3,0.1l0.6-0.1c0.3,0,1.3-0.1,2.9-0.1c0.8,0,1.3,0,1.4,0c0.3,0,0.5,0.1,0.8,0.1c0.4,0,0.4-0.2,0.4-0.4
		s-0.2-0.4-0.6-0.4c-1.3-0.1-2-0.5-2.1-1.4v-1.2V114c0-0.7,0.4-1.3,1-1.6c0.6-0.5,1.4-0.8,2.3-0.7c1.1-0.1,2.1,0.4,2.8,1.1
		c0.7,0.9,1.1,2.1,1,3.3v5.4c0,0.6-0.2,0.9-0.6,1l-0.5,0.1c-0.2,0-0.3,0.2-0.3,0.4c0,0.1,0,0.2,0.2,0.3l0.2,0.1h0.5h0.6l1.5,0
		c0.6,0,1.3,0,1.9,0.1c0.3,0,0.5,0.1,0.6,0.1c0.2,0,0.4,0,0.5-0.2c0.1-0.1,0.1-0.2,0.1-0.3C149.9,122.8,149.8,122.7,149.4,122.5"/>
	<path class="st0" d="M242,122.6l-0.7-0.1c-0.4,0-0.7-0.2-1-0.5c-0.2-0.5-0.3-0.9-0.2-1.4v-10.5c0-0.4-0.1-0.5-0.3-0.5l0,0l-0.8,0.4
		c-0.7,0.4-1.4,0.7-2.2,1c-0.6,0.2-0.8,0.3-0.8,0.5c0,0.1,0,0.1,0.1,0.2c0.2,0.1,0.4,0.2,0.6,0.1c0.5,0,0.8,0.1,1,0.3
		c0.2,0.5,0.3,1.1,0.2,1.6v6.8c0,0.4,0,0.9-0.2,1.3c-0.1,0.3-0.4,0.5-0.6,0.6l-0.3,0.1c-0.2,0-0.3,0.2-0.3,0.4
		c0,0.2,0.1,0.4,0.5,0.4c0.2,0,0.4,0,0.6,0c0.1,0,0.3,0,0.5,0l1.1-0.1h1c0.4,0,0.8,0,1.1,0c0.5,0,0.8,0.1,1,0.1
		c0.4,0,0.5-0.2,0.5-0.3C242.7,122.9,242.5,122.6,242,122.6"/>
	<path class="st0" d="M234.4,122.5l-0.6-0.1c-0.6,0-1.2-0.5-1.2-1.1l0-0.7v-4.2c0.1-1.5-0.2-3-1-4.3c-0.9-1.3-2.4-2.1-4-2.1
		c-1.5,0-2.9,0.8-4.2,2.3v-1.5c0-0.2,0-0.4,0-0.6c0-0.2,0-0.3-0.1-0.5c-0.1-0.1-0.4-0.1-0.6,0l-0.6,0.3l-0.8,0.4
		c-0.6,0.3-1.3,0.5-2,0.6c-0.3,0.1-0.5,0.2-0.5,0.4c0,0.1,0.1,0.2,0.2,0.3c0.1,0,0.2,0.1,0.3,0.1h0.7c0.4,0,0.7,0.1,0.9,0.4
		c0.2,0.5,0.3,1,0.3,1.5v7c0,0.4-0.1,0.9-0.3,1.3c-0.3,0.3-0.6,0.5-1,0.6c-0.2,0.1-0.3,0.2-0.3,0.4c0,0.1,0,0.2,0.1,0.2
		c0.1,0.1,0.2,0.1,0.3,0.1l0.6-0.1c0.3,0,1.3-0.1,2.9-0.1c0.8,0,1.3,0,1.5,0c0.3,0.1,0.5,0.1,0.8,0.1c0.4,0,0.4-0.2,0.4-0.4
		s-0.2-0.4-0.6-0.4c-1.4-0.1-2-0.5-2.1-1.4v-1.2V114c0-0.7,0.4-1.3,1-1.6c0.6-0.5,1.4-0.8,2.3-0.7c1.1-0.1,2.1,0.4,2.8,1.1
		c0.7,0.9,1.1,2.1,1,3.3v5.4c0,0.6-0.2,0.9-0.6,1l-0.5,0.1c-0.2,0-0.3,0.2-0.3,0.4c0,0.1,0,0.2,0.1,0.3l0.2,0.1h0.5h0.6l1.5,0
		c0.6,0,1.3,0,1.9,0.1c0.3,0,0.5,0.1,0.6,0.1c0.2,0,0.4,0,0.5-0.2c0.1-0.1,0.1-0.2,0.1-0.3C234.9,122.8,234.7,122.7,234.4,122.5"/>
	<path class="st0" d="M214.9,117.6c0.1,1.4-0.3,2.7-1.1,3.8c-0.7,0.9-1.8,1.4-3,1.4c-1.5,0-2.8-0.7-3.6-2c-1-1.4-1.5-3.2-1.5-4.9
		c-0.1-1.3,0.4-2.7,1.2-3.7c0.7-0.9,1.9-1.4,3.1-1.4c1.4,0,2.8,0.7,3.5,1.9C214.4,114.1,214.9,115.8,214.9,117.6 M210.3,110
		c-1.8,0-3.6,0.7-4.9,2c-2.7,2.7-2.7,7-0.1,9.7c1.3,1.3,3.1,2,4.9,1.9c1.9,0.1,3.7-0.6,5.1-2c1.3-1.3,2-3.1,2-4.9
		c0-1.8-0.7-3.5-2-4.7C213.9,110.7,212.2,109.9,210.3,110"/>
	<path class="st0" d="M239.1,103.6c-0.2,0-0.5,0.2-0.9,0.7c-0.6,0.4-0.8,1.1-0.4,1.7c0.1,0.1,0.2,0.3,0.3,0.4
		c0.4,0.4,0.7,0.6,0.9,0.6c0.2,0,0.6-0.2,0.9-0.7c0.3-0.3,0.5-0.7,0.6-1.1c0-0.2-0.1-0.3-0.2-0.4l-0.4-0.6
		C239.6,103.8,239.3,103.6,239.1,103.6"/>
	<path class="st0" d="M168.4,113.1c0,0.2-0.2,0.3-0.7,0.3H163h-0.4c-0.6,0-0.6-0.2-0.6-0.3c0-0.2,0.1-0.4,0.2-0.5l3-6.7
		c0.1-0.2,0.2-0.2,0.2-0.2s0.2,0.1,0.3,0.5l2.6,6.5l0.1,0.3l0,0C168.4,112.9,168.4,113,168.4,113.1 M176.9,122.5
		c-0.7-0.1-1.3-0.3-1.9-0.7c-0.5-0.7-0.9-1.5-1.2-2.3l-0.3-0.8l-6.7-17.1c-0.1-0.3-0.3-0.5-0.5-0.5c-0.2,0-0.4,0.2-0.5,0.5l-8,17.8
		l-0.5,1c-0.2,0.5-0.5,0.9-0.9,1.4c-0.4,0.5-0.7,0.7-0.8,0.7l-0.6,0.2c-0.2,0-0.3,0.2-0.3,0.4c0,0.1,0.1,0.4,0.5,0.4l0.9-0.1
		c0.2,0,0.4,0,0.7,0c0.6,0,1.2,0,1.7,0l1.5,0.1h0.5c0.2,0,0.3,0,0.4-0.1c0.1-0.1,0.1-0.1,0.1-0.2c0-0.2-0.2-0.4-0.5-0.4
		c-0.5-0.1-1-0.3-1.4-0.5c-0.2-0.3-0.4-0.6-0.3-1c0.1-0.8,0.3-1.6,0.7-2.3l1-2.3c0.1-0.5,0.4-0.9,0.7-1.2c0.4-0.2,0.9-0.2,1.4-0.2
		h5.6c0.3,0,0.7,0,1,0.1c0.2,0.3,0.4,0.6,0.5,1l0.8,2.1c0.5,1,0.8,2.2,0.9,3.3c0.1,0.5-0.2,0.9-0.7,1l-0.5,0.1
		c-0.4,0.1-0.5,0.3-0.5,0.4c0,0.1,0.1,0.4,0.5,0.4c0.2,0,0.3,0,0.5-0.1c0.9-0.1,1.8-0.1,2.7-0.1c1.4,0,2.3,0,2.9,0.1h0.6
		c0.4,0,0.5-0.2,0.5-0.3C177.4,122.8,177.2,122.6,176.9,122.5"/>
	<path class="st0" d="M255,117.6c0.1,1.4-0.3,2.7-1.1,3.8c-0.7,0.9-1.8,1.4-3,1.4c-1.5,0-2.8-0.7-3.6-2c-1-1.4-1.5-3.2-1.5-4.9
		c-0.1-1.3,0.4-2.7,1.2-3.7c0.7-0.9,1.9-1.4,3.1-1.4c1.4,0,2.8,0.7,3.5,1.9C254.6,114.1,255,115.8,255,117.6 M250.4,110
		c-1.8,0-3.6,0.7-4.9,2c-2.7,2.7-2.7,7-0.1,9.7c1.3,1.3,3.1,2,4.9,1.9c1.9,0.1,3.7-0.6,5.1-2c1.3-1.3,2.1-3.1,2-4.9
		c0-1.8-0.7-3.5-2-4.7C254.1,110.7,252.3,109.9,250.4,110"/>
	<path class="st0" d="M193,122.5l-0.7-0.1c-0.6,0-1.2-0.5-1.2-1.1v-0.7v-0.5v-3.7c0.1-1.5-0.2-3-1-4.3c-0.9-1.3-2.4-2.1-4-2.1
		c-1.5,0-2.9,0.8-4.2,2.3v-1.5c0-0.2,0-0.4,0-0.6c0-0.2,0-0.3-0.1-0.5c-0.1-0.1-0.4-0.1-0.6,0l-0.6,0.3l-0.8,0.4
		c-0.6,0.3-1.3,0.5-2,0.6c-0.3,0.1-0.5,0.2-0.5,0.4c0,0.1,0.1,0.2,0.2,0.3c0.1,0.1,0.2,0.1,0.3,0.1h0.7c0.4,0,0.7,0.1,0.9,0.4
		c0.2,0.5,0.3,1,0.3,1.5v7c0,0.4-0.1,0.9-0.3,1.3c-0.3,0.3-0.6,0.5-1,0.6c-0.2,0.1-0.3,0.2-0.3,0.4c0,0.1,0,0.2,0.1,0.2
		c0.1,0.1,0.2,0.1,0.3,0.1c0.1,0,0.3,0,0.6-0.1c0.3-0.1,1.3-0.1,3-0.1c0.8,0,1.3,0,1.4,0c0.3,0.1,0.5,0.1,0.8,0.1
		c0.4,0,0.4-0.2,0.4-0.4s-0.2-0.4-0.6-0.4c-1.4-0.1-2-0.5-2.1-1.4v-1.2V114c0-0.7,0.4-1.3,1-1.6c0.6-0.5,1.4-0.8,2.3-0.7
		c1-0.1,2.1,0.4,2.8,1.1c0.7,0.9,1.1,2.1,1,3.3v5.4c0,0.6-0.2,0.9-0.6,1l-0.5,0.1c-0.2,0-0.3,0.2-0.3,0.4c0,0.1,0,0.2,0.1,0.3
		l0.3,0.1h0.5h0.6l1.5,0c0.6,0,1.3,0,1.9,0.1c0.3,0,0.5,0.1,0.6,0.1c0.2,0,0.4,0,0.5-0.2c0.1-0.1,0.1-0.2,0.1-0.3
		C193.6,122.8,193.4,122.7,193,122.5"/>
	<path class="st0" d="M202.8,121.6h-0.1l-0.8,0.4c-0.5,0.2-1,0.3-1.6,0.3c-0.7,0-1.3-0.2-1.8-0.6c-0.3-0.6-0.5-1.3-0.4-1.9V112h3.6
		c0.3,0,0.7-0.2,0.8-0.5l0.4-0.9c0.1-0.1,0.1-0.3,0.1-0.4c0-0.1,0-0.2-0.1-0.2c-0.1,0-0.1-0.1-0.2,0c-0.1,0-0.3,0.1-0.4,0.2
		c-0.3,0.2-0.7,0.3-1,0.2h-3.2l0.1-2.6c0-0.4-0.2-0.5-0.3-0.5c-0.1,0-0.3,0.1-0.7,0.7c-0.8,1.2-1.7,2.2-2.8,3.1
		c-0.3,0.2-0.4,0.5-0.4,0.6s0.1,0.3,0.5,0.3h1.3v7.8c0,2.5,1.2,3.8,3.7,3.8c0.8,0,1.6-0.2,2.3-0.6c0.8-0.4,1.3-0.8,1.3-1.2
		C203.1,121.6,203,121.6,202.8,121.6"/>
	<line class="st1" x1="105.4" y1="135.4" x2="360.7" y2="135.4"/>
	<path class="st2" d="M89.1,39.2V26.4H78.6v-4.1h-2.5c0,0-5.4,0.2-9.5-2.2s-4.8-4.7-4.8-4.7v-3.3h-5.4c-1.1-4.9-6-8-10.9-6.8
		c-3.4,0.8-6.1,3.4-6.8,6.8h-5.5v3.3c0,0-0.7,2.3-4.8,4.7s-9.5,2.2-9.5,2.2h-3.2v4.1H5.2v12.7"/>
	<path class="st2" d="M5.2,43.2L5.2,43.2c0,6.6-0.1,16.8,0,23.5c0.1,6.1,1,12.2,2.6,18.1c3,11.2,8.3,21,16.9,28.8
		c6.6,6.1,14.2,10.7,22,15.1c0.3,0.1,0.6,0.1,0.9,0c5.4-3,10.7-6.3,15.7-9.9c10.5-7.5,18.3-18.2,22.1-30.5C88,79.5,89,70.4,89,61.2
		c0-4.8,0-13.2,0-18l0,0"/>
	<path class="st3" d="M5.1,39.2h83.8V26.4H78.4v-4.1h-2.5c0,0-5.4,0.2-9.5-2.2s-4.8-4.7-4.8-4.7v-3.3h-5.4c-1.1-4.9-6-8-10.9-6.8
		c-3.4,0.8-6.1,3.4-6.8,6.8H33v3.3c0,0-0.8,2.3-4.8,4.7s-9.5,2.2-9.5,2.2h-3.2v4.1H5L5.1,39.2"/>
	<path class="st3" d="M5.1,66.7c0.1,6.1,1,12.2,2.6,18.1c2.9,11.2,8.3,21,16.8,28.8c6.6,6.1,14.2,10.7,22,15.1
		c0.3,0.1,0.6,0.1,0.9,0c5.4-3,10.7-6.3,15.7-9.9c10.5-7.5,18.3-18.2,22.1-30.5c2.8-8.8,3.7-17.9,3.8-27.1c0-4.8,0-13.2,0-18H5.1
		C5.1,49.8,5,60,5.1,66.7 M40.9,72.3L47,53.6L53,72.3h19.7L56.9,83.9l6.1,18.8L47,91.1l-16,11.6l6.1-18.8L21.2,72.3H40.9z"/>
	<path class="st4" d="M47.2,39.2L47.5,5c-4.2,0-7.9,2.9-8.9,7h-5.5v3.3c0,0-0.8,2.3-4.8,4.7s-9.5,2.2-9.5,2.2h-3.2v4.1H5.1v12.8
		H47.2z"/>
	<path class="st4" d="M47,91.1l-16,11.6L37.2,84L21.2,72.4H41L47,53.6L47,43.2H5.1c0,6.6-0.1,16.8,0,23.5c0.1,6.1,1,12.2,2.6,18.1
		c2.9,11.2,8.3,20.9,16.9,28.8c6.6,6.1,14.2,10.7,22,15.1c0.1,0.1,0.3,0.1,0.4,0L47,91.1z"/>
	<polygon class="st5" points="47,53.6 53.1,72.3 72.9,72.3 56.9,83.9 63,102.7 47,91.1 	"/>
	<path class="st0" d="M139.2,79.7c2.3-3.1,3.5-7.7,3.5-13.5V50.4c-0.1-1.8,0.1-3.6,0.6-5.4c0.5-1,1.4-1.8,2.4-2.1
		c0.5-0.2,0.8-0.5,0.8-0.9c0-0.4-0.3-0.7-0.7-0.8c-0.1,0-0.1,0-0.2,0c-0.2,0-0.7,0-1.4,0.1c-0.6,0.1-2,0.1-4.4,0.1
		c-1,0-1.9-0.1-2.9-0.2c-0.7-0.1-1.4-0.2-2.1-0.3c-0.2,0-0.4,0-0.6,0.2c-0.2,0.2-0.2,0.4-0.2,0.7c0,0.4,0.2,0.8,1.1,0.9
		c1.5,0,2.9,0.8,3.7,2c0.7,1.2,1.1,3.1,1.1,5.7v16.5c0,5.5-1.2,9.7-3.7,12.4s-6.2,4.1-11.2,4.1c-5.6,0-9.6-1.6-11.9-4.9
		c-1.6-2.3-2.5-6.2-2.5-11.6v-16l-0.1-2.1c-0.1-1.4,0.1-2.9,0.6-4.2c0.5-0.8,1.4-1.4,2.3-1.5c0.8-0.1,1.2-0.5,1.2-1
		c0-0.3-0.1-0.7-0.9-0.7c-0.3,0-0.8,0-1.6,0.1c-0.9,0.1-1.5,0.1-1.8,0.1h-2.5h-2.5c-0.4,0-1.2,0-2.1-0.1c-1-0.1-1.6-0.1-2.2-0.1
		c-1.2,0-1.4,0.5-1.4,0.9s0.2,0.7,1,0.9c1.8,0.3,3.1,0.8,3.6,1.6c0.6,0.8,0.9,2.4,0.9,4.6l0.1,1.8v16.2c0,4.5,0.8,8.1,2.3,10.9
		c1.5,2.5,3.7,4.5,6.4,5.8c3.1,1.4,6.5,2.2,9.9,2.1c3,0,6-0.6,8.8-1.8C135.3,83.4,137.5,81.8,139.2,79.7"/>
	<path class="st0" d="M164.7,45.2c1,0,1.3,0.2,1.4,0.3c0.1,0.1,0.3,0.4,0.3,1.3v0.8v31.7c0,1.7-0.3,2.9-0.8,3.6
		c-0.6,0.6-1.6,1.1-3.2,1.3c-0.8,0.1-1.2,0.4-1.2,0.8c0,0.3,0.1,0.9,1.2,0.9c0.2,0,0.9-0.1,2.2-0.2c0.6-0.1,1.4-0.1,2.3-0.1h2.5h2.3
		c0.9,0,1.9,0,2.8,0.1c0.5,0.1,1.1,0.2,1.6,0.2c1,0,1.1-0.6,1.1-0.9c0-0.5-0.4-0.8-1.3-0.9c-2.6-0.5-3.9-1.8-4-4.2v-1.2V47.3
		c0-1.2,0.2-1.6,0.3-1.8c0.1-0.1,0.5-0.3,1.6-0.3h9c1.7,0,2.9,0.2,3.5,0.6l0,0c0.6,0.4,1,1.4,1.3,2.8c0.1,0.8,0.5,1.2,1,1.2
		c0.4,0,0.9-0.3,0.8-1.2c0-0.3-0.1-0.9-0.2-1.6c-0.1-0.9-0.2-1.8-0.2-2.7c0-1.8-0.2-2.2-0.4-2.4c-0.2-0.2-1-0.4-2.3-0.4h-34.4
		c-0.6-0.1-1.2,0.1-1.6,0.5c-0.3,0.6-0.4,1.3-0.4,2c0,1.3-0.2,2.5-0.5,3.7c-0.2,0.8-0.3,1.6-0.4,2.5c0,0.9,0.5,1.1,0.8,1.1
		c0.8,0,1-1,1.1-1.4c0.4-1.9,1-3.1,1.7-3.8c1-0.7,2.3-1.1,3.6-1L164.7,45.2z"/>
	<path class="st0" d="M238.2,85.7c0.6-0.1,1.1-0.1,1.5-0.1l2.4-0.1h2.4c1.1,0,2.1,0,3.2,0.1c1.4,0.2,2.2,0.3,2.6-0.1
		c0.2-0.2,0.2-0.4,0.2-0.7c0-0.4-0.4-0.7-1.2-0.8c-1.7-0.2-2.9-0.7-3.5-1.5c-0.6-0.8-0.9-2.4-0.9-4.6V47.1c0-0.9,0.2-1.9,0.6-2.7
		c0.3-0.6,0.8-1.1,1.5-1.3l1.3-0.3c0.8-0.2,0.9-0.6,0.9-0.8s-0.1-0.8-1-0.8c-0.4,0-0.8,0.1-1.2,0.1c-1.6,0.2-3.2,0.2-4.8,0.2
		c-1.5,0-3-0.1-4.4-0.2c-1-0.1-1.7-0.2-2.2-0.2c-0.8,0-1,0.5-1,0.7s0.1,0.8,1.1,1c1.2,0.2,2.3,0.8,3,1.8c0.5,0.9,0.8,2.4,0.8,4.6V60
		c0,0.5-0.1,0.8-0.3,1c-0.5,0.2-1.1,0.3-1.6,0.2h-18.8c-1.7,0-2.1-0.2-2.2-0.3l0,0c-0.1-0.1-0.3-0.5-0.3-2V47.4
		c-0.1-1.1,0.1-2.3,0.7-3.3c0.7-0.8,1.7-1.3,2.8-1.5c0.7-0.2,1-0.5,1-0.9s-0.1-0.8-1.1-0.8c-0.5,0-0.9,0.1-1.4,0.1
		c-1.4,0.2-2.8,0.3-4.2,0.3c-1.9,0-3.9-0.1-5.8-0.3c-0.9-0.1-1.5-0.2-1.9-0.2c-0.3,0-0.6,0-0.8,0.2c-0.2,0.2-0.2,0.4-0.2,0.6
		c0,0.3,0.2,0.8,1.1,0.9c1.8,0.3,3,0.8,3.6,1.6c0.7,0.8,1,2.1,1,3.9v27.4c0.1,2.1-0.1,4.2-0.5,6.2c-0.2,0.9-0.8,1.7-1.8,2l-1.6,0.4
		c-0.8,0.2-1,0.6-1,0.9s0.1,0.8,1,0.8c0.2,0,0.9,0,2-0.1c0.8-0.1,1.5-0.1,2-0.1l2.1-0.1h2.7c1.3,0,2.5,0,3.8,0.1
		c0.5,0.1,1.1,0.1,1.6,0.1c0.3,0,0.7-0.1,0.9-0.3c0.1-0.2,0.2-0.4,0.2-0.6c0-0.6-0.5-0.9-1.4-1c-1.8-0.2-3.1-0.7-3.8-1.6
		s-1-2.4-1-4.5V66.1c0-1.2,0.2-1.6,0.4-1.7s0.7-0.3,2.1-0.3h18.8c1.4,0,1.7,0.2,1.8,0.2c0.1,0,0.2,0.3,0.2,1.6v11.7v1.2
		c0,3.2-1,4.9-3.2,5.3c-0.8,0.1-1.2,0.4-1.3,0.9c0,0.2,0.1,0.4,0.2,0.6c0.2,0.2,0.4,0.2,0.7,0.2h0.1
		C236.1,85.9,236.8,85.8,238.2,85.7"/>
	<path class="st0" d="M332.3,82l-0.3,0.1l-1.6,0.8c-1,0.5-2.1,0.7-3.2,0.7c-1.3,0.1-2.6-0.4-3.6-1.3c-0.6-0.6-0.8-1.9-0.8-3.9V62.5
		h7.4c0.7,0,1.3-0.4,1.5-1.1l0.7-1.8c0.2-0.3,0.3-0.6,0.3-0.9c0-0.2,0-0.3-0.1-0.5c-0.1-0.1-0.3-0.1-0.4-0.1
		c-0.3,0.1-0.6,0.2-0.8,0.4c-0.6,0.4-1.3,0.5-2.1,0.5h-6.6l0.1-5.3c0-0.8-0.4-1-0.6-1c-0.3,0-0.6,0.2-1.4,1.5
		c-1.6,2.4-3.5,4.5-5.7,6.3c-0.6,0.5-0.9,0.9-0.9,1.3c0,0.4,0.2,0.7,1,0.7h2.6v15.9c0,5.2,2.5,7.9,7.5,7.9c1.7,0,3.3-0.5,4.8-1.2
		c1.8-0.8,2.6-1.6,2.6-2.5C332.9,82.3,332.7,82,332.3,82C332.4,82,332.3,82,332.3,82"/>
	<path class="st0" d="M261,60c1.7,0.1,3.4,0.8,4.5,2.1c1.3,1.1,2,2.8,2.1,4.5c0,0.7-1.3,0.8-2.3,0.8h-10.6c0.2-1.9,0.9-3.8,2.1-5.4
		l0,0C257.8,60.8,259.4,60,261,60 M272.8,79.4c-0.2,0-0.4,0.1-0.6,0.3c-2.7,2-5.2,3.1-7.5,3.1c-2.9,0-5.6-1.3-7.3-3.6
		c-2-2.6-3.1-5.8-3-9v-0.5h11.9l2.2,0.1h2.4c1.5,0,2.3-0.4,2.3-1.3c-0.1-0.9-0.4-1.8-0.8-2.7c-0.4-1-1-2-1.6-3
		c-1.9-2.9-5.2-4.6-8.7-4.5c-3.4,0-6.6,1.6-8.7,4.2c-2.4,2.7-3.7,6.2-3.7,9.9c-0.1,3.6,1.2,7.2,3.6,9.9c2.2,2.6,5.5,4.1,8.9,4
		c3.3-0.1,6.4-1.2,8.9-3.3c1.6-1.2,2.3-2.2,2.3-2.9c0-0.2-0.1-0.4-0.2-0.6C273.1,79.4,272.9,79.4,272.8,79.4"/>
	<path class="st0" d="M313.8,83.9c-2.1-0.4-3.4-1-3.8-2c-0.4-1.3-0.6-2.6-0.6-3.9V40.4v-1l0,0c0-0.8-0.1-1.3-0.3-1.5
		c-0.1-0.1-0.2-0.1-0.3-0.1c-0.3,0-0.6,0.1-0.8,0.3c-1,0.6-2,1.1-3.1,1.5l-1.9,0.8c-0.6,0.2-1.3,0.4-2,0.6c-0.6,0.2-1,0.5-1,0.9
		c0,0.3,0.2,0.6,0.5,0.7c0.2,0.1,0.4,0.1,0.6,0.1l0,0l1.6-0.1c1.2,0,1.8,0.9,1.8,2.7v35.4c0.1,0.7-0.1,1.5-0.5,2.1
		c-0.5,0.5-1.1,0.9-1.8,1c-0.7,0.2-1.1,0.5-1,1c0,0.3,0.2,0.8,1.1,0.8c0.1,0,0.3,0,1.2-0.2c0.5-0.1,1.7-0.1,3.7-0.1h4.4
		c0.5,0,0.9,0,1.4,0.1c0.3,0.1,0.6,0.1,0.9,0.1c0.2,0,0.5-0.1,0.7-0.2c0.2-0.2,0.2-0.4,0.2-0.7C314.8,84.3,314.4,84,313.8,83.9"/>
	<path class="st0" d="M283.5,74.9c1.7-1.2,4.2-1.9,7.3-2.2v6.1c0.1,1.2-0.3,2.4-1,3.4c-1.2,1.1-2.7,1.7-4.3,1.6
		c-2.3,0.2-4.4-1.5-4.6-3.9c0-0.2,0-0.5,0-0.7C280.9,77.4,281.9,75.7,283.5,74.9 M300.1,83.4c-0.3,0-0.6,0.1-0.8,0.1
		c-0.2,0-0.5,0.1-0.7,0c-0.9,0.1-1.8-0.4-2.2-1.2c-0.5-1.3-0.8-2.7-0.7-4.1V65.8c0.1-2.1-0.8-4.2-2.5-5.6c-1.6-1.3-3.9-2-6.9-2
		c-2.9-0.1-5.7,1-7.8,3.1c-1.4,1.6-2.2,3-2.2,4.4c0,0.6,0.4,1.1,1.3,1.6c0.9,0.5,1.8,0.7,2.8,0.7c0.2,0,0.5-0.1,0.7-0.2
		c0.1-0.2,0.2-0.4,0.2-0.6c0-0.4-0.1-0.7-0.2-1.1c-0.2-0.8-0.4-1.5-0.4-2.3c0-2.2,1.3-3.3,4-3.3c1.8-0.1,3.6,0.6,4.8,1.8
		c0.9,0.9,1.3,2.5,1.3,4.9v3.8c-5.2,0.8-9,1.9-11.2,3.3c-2.1,1.2-3.5,3.4-3.4,5.9c-0.1,1.7,0.6,3.3,1.8,4.5c1.4,1.1,3.1,1.7,4.9,1.6
		c2.6,0,5.5-1.2,8.5-3.4c1.4,2.1,3,3.2,4.8,3.2c1,0,2-0.2,3-0.6c1.1-0.4,1.6-0.8,1.6-1.3c0-0.2,0-0.4-0.2-0.5
		c-0.1-0.1-0.4-0.2-0.6-0.2"/>
	<path class="st0" d="M364.8,84.2c-1.6-0.3-2.8-0.7-3.3-1.2c-0.5-0.6-0.7-1.6-0.7-3.2V69.6c0.1-3-0.9-5.9-2.8-8.2
		c-1.9-2.1-4.6-3.2-7.4-3.2c-3.1,0-6.1,1.6-8.8,4.7V41.7c0-0.7,0-1.2,0-1.6c0-0.4,0.1-0.6,0.1-0.8c0-0.8-0.5-0.9-0.7-0.9
		c-0.3,0-0.5,0.1-0.8,0.2l-2.5,1.2c-1.4,0.7-2.9,1.3-4.5,1.6c-0.6,0.2-0.9,0.4-0.9,0.8c0,0.2,0.1,0.5,0.3,0.6
		c0.2,0.1,0.4,0.1,0.6,0.1l0,0l1.6-0.1c0.4,0,0.8,0.1,1.1,0.4c0.6,0.5,0.8,1.6,0.8,3.2v33.3c0,2.2-0.2,3.1-0.4,3.4
		c-0.6,0.6-1.3,1.1-2.2,1.2c-0.8,0.2-0.9,0.7-0.9,1c0,0.3,0.2,0.7,1,0.7c0.3,0,0.8,0,1.5-0.1c1.6-0.1,2.8-0.2,3.7-0.2
		c2.5,0,4.1,0,4.8,0.1c1,0.1,1.5,0.1,1.8,0.1c0.8,0,0.9-0.5,0.9-0.7c0-0.5-0.4-0.8-1.3-1c-1.8-0.2-3-0.7-3.4-1.3
		c-0.5-0.6-0.7-2-0.7-4.1V66.5c0.1-1.5,0.9-2.8,2.1-3.6c1.3-1.1,3-1.6,4.7-1.6c2-0.1,4,0.8,5.4,2.3c1.4,1.8,2.1,4,2,6.3v10.6v1
		c0.1,0.6,0,1.2-0.3,1.8c-0.5,0.5-1.2,0.9-1.9,1c-0.5,0.2-0.8,0.5-0.8,0.8c0.1,0.3,0.2,0.8,1.1,0.8c0.2,0,0.5,0,1-0.1
		c1.4-0.1,2.7-0.2,4.1-0.2c1.1,0,2.5,0,4,0.2c0.8,0.1,1.3,0.1,1.6,0.1c0.9,0,1.1-0.5,1.1-0.8S365.8,84.3,364.8,84.2"/>
	<path class="st0" d="M112.9,110.7c-2-0.6-3.2-1.1-3.7-1.3c-0.5-0.3-1-0.7-1.4-1.2c-0.5-0.6-0.7-1.4-0.7-2.2c0-0.9,0.4-1.8,1.1-2.4
		c0.8-0.7,1.7-1,2.7-1c1.3,0,2.7,0.4,3.8,1.1c1,0.6,1.8,1.6,2.2,2.7c0.2,0.6,0.4,0.8,0.6,0.8c0.2,0,0.4-0.1,0.4-0.6
		c0-0.1,0-0.3-0.1-0.6l-0.3-1.6c-0.1-0.8-0.2-1.4-0.2-1.6c0-0.3,0-0.5-0.2-0.7c-0.1-0.1-0.2-0.1-0.3-0.1c-0.1,0-0.2,0-0.2,0.1
		l-0.2,0.2c-0.2,0.1-0.4,0.2-0.6,0.1l-1.1-0.5c-0.9-0.3-1.9-0.5-2.9-0.5c-1.8-0.1-3.5,0.5-4.9,1.6c-1.2,1-1.9,2.6-1.9,4.2
		c-0.1,1.4,0.5,2.7,1.5,3.7c1.4,1.2,3.1,2.1,4.9,2.6c1.4,0.4,2.8,1,4,1.7c0.9,0.7,1.4,1.7,1.3,2.9c0,1.2-0.5,2.3-1.5,3
		c-1,0.8-2.3,1.3-3.6,1.2c-1.4,0-2.7-0.5-3.9-1.3c-1.1-0.8-1.9-1.9-2.3-3.2c-0.2-0.5-0.4-0.8-0.6-0.8c-0.1,0-0.2,0-0.3,0.1
		c-0.1,0.1-0.2,0.3-0.1,0.4c0.1,0.7,0.2,1.4,0.4,2c0.2,0.9,0.4,1.3,0.4,1.4c0.1,0.4,0.2,0.7,0.3,1.1c0.1,0.2,0.2,0.3,0.4,0.4
		c0.7,0.4,1.4,0.7,2.1,0.8c0.9,0.2,1.8,0.3,2.7,0.3c2,0.1,4-0.6,5.5-1.9c1.4-1.2,2.2-3,2.1-4.8C118.7,114.1,116.7,112,112.9,110.7"
		/>
	<path class="st0" d="M124.4,118.1c1.1-0.6,2.3-1,3.6-1.1v3c0,0.6-0.1,1.2-0.5,1.6c-0.6,0.5-1.3,0.8-2.1,0.8
		c-1.1,0.1-2.2-0.8-2.2-1.9c0-0.1,0-0.2,0-0.3C123.1,119.3,123.6,118.5,124.4,118.1 M132.5,122.2c-0.1,0-0.3,0-0.4,0.1
		c-0.1,0-0.2,0-0.4,0c-0.4,0-0.9-0.2-1.1-0.6c-0.3-0.6-0.4-1.3-0.3-2v-6.1c0.1-1-0.4-2.1-1.2-2.7c-1-0.7-2.1-1-3.3-1
		c-1.4-0.1-2.8,0.5-3.8,1.5c-0.6,0.6-1,1.3-1.1,2.1c0,0.3,0.2,0.5,0.6,0.8c0.4,0.2,0.9,0.3,1.4,0.3c0.1,0,0.2,0,0.3-0.1
		c0.1-0.1,0.1-0.2,0.1-0.3c0-0.2-0.1-0.3-0.1-0.5c-0.1-0.4-0.2-0.8-0.2-1.2c0-1.1,0.6-1.6,2-1.6c0.9,0,1.7,0.3,2.4,0.9
		c0.5,0.7,0.7,1.5,0.6,2.4v1.8c-1.9,0.2-3.8,0.7-5.5,1.6c-1,0.6-1.7,1.7-1.6,2.8c0,0.8,0.3,1.6,0.9,2.2c0.7,0.6,1.5,0.9,2.4,0.8
		c1.5-0.1,3-0.7,4.2-1.6c0.5,0.9,1.3,1.5,2.3,1.5c0.5,0,1-0.1,1.4-0.3c0.5-0.2,0.8-0.4,0.8-0.6c0-0.1,0-0.2-0.1-0.2
		C132.7,122.3,132.6,122.2,132.5,122.2"/>
	<path class="st0" d="M149.4,122.5l-0.6-0.1c-0.6,0-1.2-0.5-1.2-1.1l0-0.7v-0.5v-3.7c0.1-1.5-0.2-3-1-4.3c-0.9-1.3-2.4-2.1-4-2.1
		c-1.5,0-2.9,0.8-4.2,2.3v-1.5c0-0.2,0-0.4,0-0.6c0-0.2,0-0.3-0.1-0.5c-0.1-0.1-0.4-0.1-0.6,0l-0.6,0.3l-0.8,0.4
		c-0.6,0.3-1.3,0.5-2,0.6c-0.3,0.1-0.5,0.2-0.5,0.4c0,0.1,0.1,0.2,0.2,0.3c0.1,0,0.2,0.1,0.3,0.1h0.7c0.4,0,0.7,0.1,0.9,0.4
		c0.2,0.5,0.3,1,0.3,1.5v7c0,0.4-0.1,0.9-0.3,1.3c-0.3,0.3-0.6,0.5-1,0.6c-0.2,0.1-0.3,0.2-0.3,0.4c0,0.1,0,0.2,0.1,0.2
		c0.1,0.1,0.2,0.1,0.3,0.1l0.6-0.1c0.3,0,1.3-0.1,2.9-0.1c0.8,0,1.3,0,1.4,0c0.3,0,0.5,0.1,0.8,0.1c0.4,0,0.4-0.2,0.4-0.4
		s-0.2-0.4-0.6-0.4c-1.3-0.1-2-0.5-2.1-1.4v-1.2V114c0-0.7,0.4-1.3,1-1.6c0.6-0.5,1.4-0.8,2.3-0.7c1.1-0.1,2.1,0.4,2.8,1.1
		c0.7,0.9,1.1,2.1,1,3.3v5.4c0,0.6-0.2,0.9-0.6,1l-0.5,0.1c-0.2,0-0.3,0.2-0.3,0.4c0,0.1,0,0.2,0.2,0.3l0.2,0.1h0.5h0.6l1.5,0
		c0.6,0,1.3,0,1.9,0.1c0.3,0,0.5,0.1,0.6,0.1c0.2,0,0.4,0,0.5-0.2c0.1-0.1,0.1-0.2,0.1-0.3C149.9,122.8,149.8,122.7,149.4,122.5"/>
	<path class="st0" d="M242,122.6l-0.7-0.1c-0.4,0-0.7-0.2-1-0.5c-0.2-0.5-0.3-0.9-0.2-1.4v-10.5c0-0.4-0.1-0.5-0.3-0.5l0,0l-0.8,0.4
		c-0.7,0.4-1.4,0.7-2.2,1c-0.6,0.2-0.8,0.3-0.8,0.5c0,0.1,0,0.1,0.1,0.2c0.2,0.1,0.4,0.2,0.6,0.1c0.5,0,0.8,0.1,1,0.3
		c0.2,0.5,0.3,1.1,0.2,1.6v6.8c0,0.4,0,0.9-0.2,1.3c-0.1,0.3-0.4,0.5-0.6,0.6l-0.3,0.1c-0.2,0-0.3,0.2-0.3,0.4
		c0,0.2,0.1,0.4,0.5,0.4c0.2,0,0.4,0,0.6,0c0.1,0,0.3,0,0.5,0l1.1-0.1h1c0.4,0,0.8,0,1.1,0c0.5,0,0.8,0.1,1,0.1
		c0.4,0,0.5-0.2,0.5-0.3C242.7,122.9,242.5,122.6,242,122.6"/>
	<path class="st0" d="M234.4,122.5l-0.6-0.1c-0.6,0-1.2-0.5-1.2-1.1l0-0.7v-4.2c0.1-1.5-0.2-3-1-4.3c-0.9-1.3-2.4-2.1-4-2.1
		c-1.5,0-2.9,0.8-4.2,2.3v-1.5c0-0.2,0-0.4,0-0.6c0-0.2,0-0.3-0.1-0.5c-0.1-0.1-0.4-0.1-0.6,0l-0.6,0.3l-0.8,0.4
		c-0.6,0.3-1.3,0.5-2,0.6c-0.3,0.1-0.5,0.2-0.5,0.4c0,0.1,0.1,0.2,0.2,0.3c0.1,0,0.2,0.1,0.3,0.1h0.7c0.4,0,0.7,0.1,0.9,0.4
		c0.2,0.5,0.3,1,0.3,1.5v7c0,0.4-0.1,0.9-0.3,1.3c-0.3,0.3-0.6,0.5-1,0.6c-0.2,0.1-0.3,0.2-0.3,0.4c0,0.1,0,0.2,0.1,0.2
		c0.1,0.1,0.2,0.1,0.3,0.1l0.6-0.1c0.3,0,1.3-0.1,2.9-0.1c0.8,0,1.3,0,1.5,0c0.3,0.1,0.5,0.1,0.8,0.1c0.4,0,0.4-0.2,0.4-0.4
		s-0.2-0.4-0.6-0.4c-1.4-0.1-2-0.5-2.1-1.4v-1.2V114c0-0.7,0.4-1.3,1-1.6c0.6-0.5,1.4-0.8,2.3-0.7c1.1-0.1,2.1,0.4,2.8,1.1
		c0.7,0.9,1.1,2.1,1,3.3v5.4c0,0.6-0.2,0.9-0.6,1l-0.5,0.1c-0.2,0-0.3,0.2-0.3,0.4c0,0.1,0,0.2,0.1,0.3l0.2,0.1h0.5h0.6l1.5,0
		c0.6,0,1.3,0,1.9,0.1c0.3,0,0.5,0.1,0.6,0.1c0.2,0,0.4,0,0.5-0.2c0.1-0.1,0.1-0.2,0.1-0.3C234.9,122.8,234.7,122.7,234.4,122.5"/>
	<path class="st0" d="M214.9,117.6c0.1,1.4-0.3,2.7-1.1,3.8c-0.7,0.9-1.8,1.4-3,1.4c-1.5,0-2.8-0.7-3.6-2c-1-1.4-1.5-3.2-1.5-4.9
		c-0.1-1.3,0.4-2.7,1.2-3.7c0.7-0.9,1.9-1.4,3.1-1.4c1.4,0,2.8,0.7,3.5,1.9C214.4,114.1,214.9,115.8,214.9,117.6 M210.3,110
		c-1.8,0-3.6,0.7-4.9,2c-2.7,2.7-2.7,7-0.1,9.7c1.3,1.3,3.1,2,4.9,1.9c1.9,0.1,3.7-0.6,5.1-2c1.3-1.3,2-3.1,2-4.9
		c0-1.8-0.7-3.5-2-4.7C213.9,110.7,212.2,109.9,210.3,110"/>
	<path class="st0" d="M239.1,103.6c-0.2,0-0.5,0.2-0.9,0.7c-0.6,0.4-0.8,1.1-0.4,1.7c0.1,0.1,0.2,0.3,0.3,0.4
		c0.4,0.4,0.7,0.6,0.9,0.6c0.2,0,0.6-0.2,0.9-0.7c0.3-0.3,0.5-0.7,0.6-1.1c0-0.2-0.1-0.3-0.2-0.4l-0.4-0.6
		C239.6,103.8,239.3,103.6,239.1,103.6"/>
	<path class="st0" d="M168.4,113.1c0,0.2-0.2,0.3-0.7,0.3H163h-0.4c-0.6,0-0.6-0.2-0.6-0.3c0-0.2,0.1-0.4,0.2-0.5l3-6.7
		c0.1-0.2,0.2-0.2,0.2-0.2s0.2,0.1,0.3,0.5l2.6,6.5l0.1,0.3l0,0C168.4,112.9,168.4,113,168.4,113.1 M176.9,122.5
		c-0.7-0.1-1.3-0.3-1.9-0.7c-0.5-0.7-0.9-1.5-1.2-2.3l-0.3-0.8l-6.7-17.1c-0.1-0.3-0.3-0.5-0.5-0.5c-0.2,0-0.4,0.2-0.5,0.5l-8,17.8
		l-0.5,1c-0.2,0.5-0.5,0.9-0.9,1.4c-0.4,0.5-0.7,0.7-0.8,0.7l-0.6,0.2c-0.2,0-0.3,0.2-0.3,0.4c0,0.1,0.1,0.4,0.5,0.4l0.9-0.1
		c0.2,0,0.4,0,0.7,0c0.6,0,1.2,0,1.7,0l1.5,0.1h0.5c0.2,0,0.3,0,0.4-0.1c0.1-0.1,0.1-0.1,0.1-0.2c0-0.2-0.2-0.4-0.5-0.4
		c-0.5-0.1-1-0.3-1.4-0.5c-0.2-0.3-0.4-0.6-0.3-1c0.1-0.8,0.3-1.6,0.7-2.3l1-2.3c0.1-0.5,0.4-0.9,0.7-1.2c0.4-0.2,0.9-0.2,1.4-0.2
		h5.6c0.3,0,0.7,0,1,0.1c0.2,0.3,0.4,0.6,0.5,1l0.8,2.1c0.5,1,0.8,2.2,0.9,3.3c0.1,0.5-0.2,0.9-0.7,1l-0.5,0.1
		c-0.4,0.1-0.5,0.3-0.5,0.4c0,0.1,0.1,0.4,0.5,0.4c0.2,0,0.3,0,0.5-0.1c0.9-0.1,1.8-0.1,2.7-0.1c1.4,0,2.3,0,2.9,0.1h0.6
		c0.4,0,0.5-0.2,0.5-0.3C177.4,122.8,177.2,122.6,176.9,122.5"/>
	<path class="st0" d="M255,117.6c0.1,1.4-0.3,2.7-1.1,3.8c-0.7,0.9-1.8,1.4-3,1.4c-1.5,0-2.8-0.7-3.6-2c-1-1.4-1.5-3.2-1.5-4.9
		c-0.1-1.3,0.4-2.7,1.2-3.7c0.7-0.9,1.9-1.4,3.1-1.4c1.4,0,2.8,0.7,3.5,1.9C254.6,114.1,255,115.8,255,117.6 M250.4,110
		c-1.8,0-3.6,0.7-4.9,2c-2.7,2.7-2.7,7-0.1,9.7c1.3,1.3,3.1,2,4.9,1.9c1.9,0.1,3.7-0.6,5.1-2c1.3-1.3,2.1-3.1,2-4.9
		c0-1.8-0.7-3.5-2-4.7C254.1,110.7,252.3,109.9,250.4,110"/>
	<path class="st0" d="M193,122.5l-0.7-0.1c-0.6,0-1.2-0.5-1.2-1.1v-0.7v-0.5v-3.7c0.1-1.5-0.2-3-1-4.3c-0.9-1.3-2.4-2.1-4-2.1
		c-1.5,0-2.9,0.8-4.2,2.3v-1.5c0-0.2,0-0.4,0-0.6c0-0.2,0-0.3-0.1-0.5c-0.1-0.1-0.4-0.1-0.6,0l-0.6,0.3l-0.8,0.4
		c-0.6,0.3-1.3,0.5-2,0.6c-0.3,0.1-0.5,0.2-0.5,0.4c0,0.1,0.1,0.2,0.2,0.3c0.1,0.1,0.2,0.1,0.3,0.1h0.7c0.4,0,0.7,0.1,0.9,0.4
		c0.2,0.5,0.3,1,0.3,1.5v7c0,0.4-0.1,0.9-0.3,1.3c-0.3,0.3-0.6,0.5-1,0.6c-0.2,0.1-0.3,0.2-0.3,0.4c0,0.1,0,0.2,0.1,0.2
		c0.1,0.1,0.2,0.1,0.3,0.1c0.1,0,0.3,0,0.6-0.1c0.3-0.1,1.3-0.1,3-0.1c0.8,0,1.3,0,1.4,0c0.3,0.1,0.5,0.1,0.8,0.1
		c0.4,0,0.4-0.2,0.4-0.4s-0.2-0.4-0.6-0.4c-1.4-0.1-2-0.5-2.1-1.4v-1.2V114c0-0.7,0.4-1.3,1-1.6c0.6-0.5,1.4-0.8,2.3-0.7
		c1-0.1,2.1,0.4,2.8,1.1c0.7,0.9,1.1,2.1,1,3.3v5.4c0,0.6-0.2,0.9-0.6,1l-0.5,0.1c-0.2,0-0.3,0.2-0.3,0.4c0,0.1,0,0.2,0.1,0.3
		l0.3,0.1h0.5h0.6l1.5,0c0.6,0,1.3,0,1.9,0.1c0.3,0,0.5,0.1,0.6,0.1c0.2,0,0.4,0,0.5-0.2c0.1-0.1,0.1-0.2,0.1-0.3
		C193.6,122.8,193.4,122.7,193,122.5"/>
	<path class="st0" d="M202.8,121.6h-0.1l-0.8,0.4c-0.5,0.2-1,0.3-1.6,0.3c-0.7,0-1.3-0.2-1.8-0.6c-0.3-0.6-0.5-1.3-0.4-1.9V112h3.6
		c0.3,0,0.7-0.2,0.8-0.5l0.4-0.9c0.1-0.1,0.1-0.3,0.1-0.4c0-0.1,0-0.2-0.1-0.2c-0.1,0-0.1-0.1-0.2,0c-0.1,0-0.3,0.1-0.4,0.2
		c-0.3,0.2-0.7,0.3-1,0.2h-3.2l0.1-2.6c0-0.4-0.2-0.5-0.3-0.5c-0.1,0-0.3,0.1-0.7,0.7c-0.8,1.2-1.7,2.2-2.8,3.1
		c-0.3,0.2-0.4,0.5-0.4,0.6s0.1,0.3,0.5,0.3h1.3v7.8c0,2.5,1.2,3.8,3.7,3.8c0.8,0,1.6-0.2,2.3-0.6c0.8-0.4,1.3-0.8,1.3-1.2
		C203.1,121.6,203,121.6,202.8,121.6"/>
	<path class="st0" d="M54.7,126.2h2.1v0.2h-0.9v2.6h-0.3v-2.6h-0.9V126.2z"/>
	<path class="st0" d="M57.1,129v-2.8h0.4l0.9,2.5l0,0l0.9-2.5h0.4v2.8h-0.3v-2.5l0,0l-0.9,2.5h-0.3l-0.9-2.5l0,0v2.5H57.1z"/>
	<path class="st6" d="M107.9,149.9c0-2-2.2-1.5-2.2-2.1c0-0.2,0.1-0.3,0.3-0.3c1,0,2,0.1,3,0.1c0.8,0,1.7-0.1,2.6-0.1
		c0.4,0,0.5,0.1,0.5,0.3c0,0.7-2,0-2,2.1v14.8c0,1.9,2.5,1.2,2.5,2.1c0,0.2-0.1,0.3-0.6,0.3c-0.6,0-1.8-0.1-3-0.1
		c-1.6,0-2.3,0.1-2.7,0.1c-0.4,0-0.6-0.1-0.6-0.4c0-0.8,2.2,0.1,2.2-2.6L107.9,149.9z"/>
	<path class="st6" d="M117.8,164.9c0,1.9,2.5,1.1,2.5,1.8c0,0.3-0.2,0.4-0.6,0.4s-1-0.1-2.6-0.1c-1.5,0-2,0.1-2.3,0.1
		s-0.5-0.1-0.5-0.3c0-0.6,1.6,0,1.6-1.8v-6.8c0-1.6-2-0.9-2-1.5c0-0.1,0.1-0.3,0.2-0.3c2.3-0.5,2.8-1.4,3.5-1.4
		c0.2,0,0.3,0.2,0.3,0.4v1.8c0,0.3,1.3-2,4-2c3.7,0,4.5,3.1,4.5,5.2v4.6c0,1.9,2.2,1.1,2.2,1.8c0,0.3-0.2,0.4-0.5,0.4
		c-0.3,0-1.1-0.1-2.4-0.1c-1.1,0-1.6,0.1-2,0.1c-0.3,0-0.5-0.1-0.5-0.3c0-0.6,1.2,0,1.2-1.8v-5.2c0.1-1.8-1.4-3.4-3.2-3.5
		c-2.3,0-3.3,1.7-3.3,2.2L117.8,164.9z"/>
	<path class="st6" d="M129.4,158.5c0-2.2,1.7-3.3,3.7-3.3c0.5,0,2.4,0.2,2.7,0.6c0.1,0.4,0.2,0.9,0.1,1.4c0,0.7,0.1,1.1-0.3,1.1
		c-0.3,0-0.5-2.4-3-2.4c-1-0.1-1.8,0.6-1.9,1.6c0,0.1,0,0.1,0,0.2c0,0.9,0.7,1.5,3.6,2.6c1.6,0.7,2.3,1.5,2.3,3.3
		c0,2.1-1.7,3.8-3.7,3.8c-1.9,0-2.4-0.8-3.1-0.8s-0.6,0-0.6-2.2c0-0.5-0.1-1.3,0.3-1.3c0.6,0,0.3,3.6,3.3,3.6c1.2,0.1,2.3-0.8,2.5-2
		c0-0.1,0-0.2,0-0.2c0-1.5-1.4-1.9-2.5-2.5C131.3,161.1,129.4,160.4,129.4,158.5z"/>
	<path class="st6" d="M139.5,156.6c-1.3,0-1.5,0-1.5-0.2s0.7-0.7,2.1-2.2c0.6-0.7,0.8-1.3,1-1.3c0.4,0,0.4,0.6,0.4,2.6h3
		c0.4,0,0.8-0.2,1.1-0.5c0.1,0,0.2,0.1,0.2,0.2c0,0.1-0.1,0.3-0.2,0.4l-0.6,1h-3.6v8c0,0.9,0.8,1.7,1.7,1.7c0.1,0,0.1,0,0.2,0
		c1.5,0,1.9-0.6,2.3-0.6c0.1,0,0.2,0,0.2,0.2c0,0.4-1.5,1.3-3.4,1.3c-1.3,0-3.1-0.4-3.1-3.2L139.5,156.6z"/>
	<path class="st6" d="M148.9,158.1c0-1.6-1.5-0.9-1.5-1.5c0-0.1,0.1-0.3,0.3-0.3c1.8-0.5,2.3-1.4,3-1.4c0.2,0,0.3,0.2,0.3,0.4v9.9
		c0,1.4,2.2,0.8,2.2,1.5c0,0.2-0.2,0.3-0.5,0.3c-0.6,0-1.4-0.1-2.6-0.1c-0.9,0-1.6,0.1-1.9,0.1s-0.4,0-0.4-0.3
		c0-0.7,1.2,0.4,1.2-2.2L148.9,158.1z M151.1,150.9c0,0.3-0.8,1.4-1.2,1.4c-0.3,0-1.2-1.1-1.2-1.4s0.8-1.5,1.2-1.5
		C150.3,149.5,151.1,150.6,151.1,150.9L151.1,150.9z"/>
	<path class="st6" d="M155.7,156.6c-1.3,0-1.5,0-1.5-0.2s0.7-0.7,2.1-2.2c0.6-0.7,0.8-1.3,1.1-1.3c0.4,0,0.4,0.6,0.4,2.6h3
		c0.4,0,0.8-0.2,1.1-0.5c0.1,0,0.2,0.1,0.2,0.2c0,0.1-0.1,0.3-0.2,0.4l-0.6,1h-3.6v8c0,0.9,0.8,1.7,1.7,1.7c0.1,0,0.1,0,0.2,0
		c1.5,0,1.9-0.6,2.4-0.6c0.1,0,0.2,0,0.2,0.2c0,0.4-1.5,1.3-3.4,1.3c-1.3,0-3.1-0.4-3.1-3.2L155.7,156.6z"/>
	<path class="st6" d="M171.8,157.2c0-1-1.5-0.4-1.5-1c0-0.2,0.4-0.2,0.5-0.2c0.5,0,1,0,1.5-0.2c0.3-0.1,0.7-0.1,1-0.1
		c0.3,0.1,0.5,0.3,0.5,0.7v9.6c0,0.7,1.7,0.4,1.7,1c0,0.2-0.6,0.2-1,0.2c-0.5,0-1,0-1.5,0.1c-0.3,0.1-0.6,0.2-0.9,0.2
		c-0.2,0-0.2-0.3-0.2-0.4v-1.5h-0.1c-0.8,1.2-2.2,1.9-3.7,1.9c-2.2,0-4-1.3-4-3.7v-6.4c0-1-1.5-0.4-1.5-1c0-0.2,0.4-0.2,0.5-0.2
		c0.5,0,1,0,1.5-0.2c0.3-0.1,0.7-0.1,1-0.1c0.3,0.1,0.5,0.3,0.5,0.7v7c0,2.9,2.3,3.1,2.7,3.1c1.6,0,3-1.2,3-2L171.8,157.2z"/>
	<path class="st6" d="M177.9,156.6c-1.3,0-1.5,0-1.5-0.2s0.7-0.7,2.1-2.2c0.6-0.7,0.8-1.3,1-1.3c0.4,0,0.4,0.6,0.4,2.6h3
		c0.4,0,0.8-0.2,1.1-0.5c0.1,0,0.2,0.1,0.2,0.2c0,0,0,0,0,0c0,0.1-0.1,0.3-0.2,0.4l-0.6,1H180v8c0,0.9,0.8,1.7,1.7,1.7
		c0.1,0,0.1,0,0.2,0c1.5,0,1.9-0.6,2.3-0.6c0.1,0,0.2,0,0.2,0.2c0,0.4-1.5,1.3-3.4,1.3c-1.3,0-3.1-0.4-3.1-3.2V156.6z"/>
	<path class="st6" d="M187.3,160c0,4.6,2.8,5.9,4.4,5.9c2.4,0,3.3-1.4,3.9-1.4c0.1,0,0.1,0.1,0.1,0.2c0,0.6-2.4,2.6-4.9,2.6
		c-4.1,0-5.6-3.8-5.6-5.7c0-3.5,2-6.5,5.4-6.5c2.5,0.1,4.5,1.9,4.9,4.4c0,0.5-0.3,0.5-0.9,0.5H187.3z M192.8,159.2
		c0.4,0,0.6-0.1,0.6-0.6c-0.1-1.6-1.4-2.9-3.1-2.9c-1.7,0-2.9,2-2.9,3.5L192.8,159.2z"/>
	<path class="st6" d="M205.1,155.5c0-2.1,0.6-4.1,1.6-5.8c0.6-1,2.5-3,4.5-3c0.4,0,1.1,0.1,1.1,0.6c0,0.5-0.1,2-0.4,2
		c-0.3,0-0.1-1.2-1.9-1.2c-1.5,0-2.5,1.6-2.7,2.8c-0.2,1.5-0.3,3-0.2,4.6h2.1c0.4,0,0.8-0.2,1.1-0.5c0.1,0,0.2,0.1,0.2,0.2
		c0,0.1-0.1,0.3-0.2,0.4l-0.6,1h-2.7v8.4c0,1.8,2,1.1,2,1.7c0,0.3-0.4,0.2-0.6,0.2h-4.3c-0.1,0-0.4,0.1-0.4-0.2
		c0-0.6,1.3-0.2,1.3-1.6v-8.6h-1.9l0.2-1.1H205.1z"/>
	<path class="st6" d="M211,161.4c-0.1-3.4,2.7-6.3,6.1-6.3c0,0,0,0,0,0c2.1,0,6,1,6,6.2c0.1,3.2-2.5,5.9-5.7,6c-0.1,0-0.2,0-0.2,0
		C213.6,167.3,211,165.2,211,161.4z M221.2,161.7c0-2.8-1.2-6-4.5-6c-2.7,0-3.8,2.4-3.8,4.7c0,2.7,1.3,6.2,4.5,6.2
		C219.7,166.7,221.2,165.1,221.2,161.7L221.2,161.7z"/>
	<path class="st6" d="M228.1,164.7c0,2.6,2.5,1.2,2.5,2.1c0,0.2-0.1,0.3-0.4,0.3s-1.1-0.1-2.6-0.1c-0.8,0-1.7,0-2.5,0.1
		c-0.2,0-0.3-0.1-0.3-0.2c0-0.6,1.4-0.5,1.4-1.6v-7.1c0-1.6-2-0.9-2-1.5c0-0.2,0.2-0.3,0.4-0.3c2.1-0.5,2.7-1.4,3.3-1.4
		c0.2,0,0.3,0.2,0.3,0.4v2.1h0.1c0.6-0.8,1.6-2.3,2.7-2.3c0.6,0,1.8,0.7,1.8,1.2s-0.7,1.2-1,1.2c-0.5,0-0.8-0.6-1.8-0.6
		c-0.9,0.1-1.6,0.8-1.8,1.6L228.1,164.7z"/>
	<path class="st6" d="M242.3,149.9c0-2-2.2-1.5-2.2-2.1c0-0.2,0.1-0.3,0.3-0.3c1,0,2,0.1,3,0.1c0.8,0,1.7-0.1,2.6-0.1
		c0.4,0,0.5,0.1,0.5,0.3c0,0.7-2,0-2,2.1v14.8c0,1.9,2.5,1.2,2.5,2.1c0,0.2-0.1,0.3-0.6,0.3c-0.6,0-1.8-0.1-3-0.1
		c-1.7,0-2.3,0.1-2.6,0.1c-0.4,0-0.6-0.1-0.6-0.4c0-0.8,2.2,0.1,2.2-2.6L242.3,149.9z"/>
	<path class="st6" d="M252.2,164.9c0,1.9,2.4,1.1,2.4,1.8c0,0.3-0.2,0.4-0.6,0.4c-0.4,0-1-0.1-2.6-0.1c-1.5,0-2,0.1-2.3,0.1
		s-0.5-0.1-0.5-0.3c0-0.6,1.6,0,1.6-1.8v-6.8c0-1.6-2-0.9-2-1.5c0-0.1,0.1-0.3,0.3-0.3c2.3-0.5,2.8-1.4,3.5-1.4
		c0.2,0,0.3,0.2,0.3,0.4v1.8c-0.1,0.3,1.3-2,4-2c3.7,0,4.5,3.1,4.5,5.2v4.6c0,1.9,2.1,1.1,2.1,1.8c0,0.3-0.2,0.4-0.5,0.4
		c-0.3,0-1-0.1-2.4-0.1c-1,0-1.6,0.1-2,0.1s-0.5-0.1-0.5-0.3c0-0.6,1.2,0,1.2-1.8v-5.2c0.1-1.8-1.4-3.4-3.2-3.5
		c-2.3,0-3.3,1.7-3.3,2.2L252.2,164.9z"/>
	<path class="st6" d="M265.1,156.6c-1.3,0-1.5,0-1.5-0.2s0.7-0.7,2.1-2.2c0.6-0.7,0.8-1.3,1.1-1.3c0.4,0,0.4,0.6,0.4,2.6h3
		c0.4,0,0.8-0.2,1.1-0.5c0.1,0,0.2,0.1,0.2,0.2c0,0.1-0.1,0.3-0.2,0.4l-0.6,1h-3.6v8c0,0.9,0.8,1.7,1.7,1.7c0.1,0,0.1,0,0.2,0
		c1.5,0,1.9-0.6,2.4-0.6c0.1,0,0.2,0,0.2,0.2c0,0.4-1.5,1.3-3.4,1.3c-1.3,0-3.1-0.4-3.1-3.2L265.1,156.6z"/>
	<path class="st6" d="M274.5,160c0,4.6,2.8,5.9,4.4,5.9c2.4,0,3.3-1.4,3.9-1.4c0.1,0,0.1,0.1,0.1,0.2c0,0.6-2.4,2.6-4.9,2.6
		c-4.1,0-5.6-3.8-5.6-5.7c0-3.5,2-6.5,5.4-6.5c2.5,0.1,4.6,1.9,4.9,4.4c0,0.5-0.3,0.5-0.9,0.5H274.5z M279.9,159.2
		c0.4,0,0.6-0.1,0.6-0.6c-0.1-1.6-1.4-2.8-3-2.9c-1.7,0-2.9,2-2.9,3.5L279.9,159.2z"/>
	<path class="st6" d="M293.2,156.3c1.3,0,1.5-1.8,1.8-1.8c0.2,0,0.2,0.3,0.2,0.4c0,2.1-0.4,2.2-1.4,2.9c0.1,0.5,0.2,1,0.2,1.5
		c0,2.6-2.1,4.2-4.6,4.2c-0.6,0-1.3-0.1-1.9-0.2c-0.7,0.1-1.3,0.8-1.3,1.5c0,0.2-0.2,1.3,3.3,1.3c2.3,0,5.4-0.3,5.4,2.5
		c0,1.7-1.5,4-6.1,4c-1.8,0-4.7-0.7-4.7-2.9c0-1.1,1-2,2-2.3c-0.8-0.4-1.2-1.3-1.1-2.2c0-1.1,1.4-2.2,1.4-2.2v-0.1
		c-1.1-0.8-1.8-2-1.8-3.4c0-2.4,1.9-4.3,4.3-4.3c0,0,0.1,0,0.1,0C291.5,155.1,292.4,156.3,293.2,156.3z M289,172
		c3.8,0,4.6-1.7,4.6-2.7c0-1.2-1-1.2-3.8-1.3c-1,0-1.9-0.1-2.9-0.3c-0.8,0-1.4,1.3-1.4,2C285.5,171.5,287.5,172,289,172L289,172z
		 M289.4,155.8c-2,0-2.7,1.6-2.7,3.4c0,1.8,0.8,3.7,2.8,3.7c2,0,2.7-1.5,2.7-3.3C292.2,157.8,291.4,155.8,289.4,155.8L289.4,155.8z"
		/>
	<path class="st6" d="M299.8,164.7c0,2.6,2.5,1.2,2.5,2.1c0,0.2-0.1,0.3-0.4,0.3s-1-0.1-2.6-0.1c-0.8,0-1.7,0-2.5,0.1
		c-0.2,0-0.3-0.1-0.3-0.2c0-0.6,1.4-0.5,1.4-1.6v-7.1c0-1.6-2-0.9-2-1.5c0-0.2,0.2-0.3,0.4-0.3c2.1-0.5,2.7-1.4,3.3-1.4
		c0.2,0,0.3,0.2,0.3,0.4v2.1h0.1c0.6-0.8,1.6-2.3,2.7-2.3c0.6,0,1.8,0.7,1.8,1.2s-0.7,1.2-1,1.2c-0.5,0-0.8-0.6-1.8-0.6
		c-0.9,0.1-1.6,0.8-1.8,1.6L299.8,164.7z"/>
	<path class="st6" d="M312.3,158.3c0-1.4-1.1-2.4-2.8-2.4c-1.3,0-2.4,0.1-2.4,1.6c0,0.4,0.2,0.8,0.2,1.1c0,0.3-0.1,0.5-0.6,0.5
		s-1.3-0.4-1.3-0.9c0-1.3,1.6-3.2,4.6-3.1c1.7,0,4.4,0.5,4.4,2.8v5.7c0,0.9-0.2,2.6,1.2,2.6c0.1,0,0.4-0.1,0.5-0.1
		c0.1,0,0.4,0,0.4,0.2c0,0.6-1.2,0.7-1.6,0.7c-1,0.1-1.8-0.5-2.2-1.4c-1.2,1-2.7,1.6-4.2,1.6c-1.8,0-3-0.7-3-2.6
		c0-1.5,0.5-3.2,6.9-4.3L312.3,158.3z M312.3,161.1c-1.8,0.4-5.1,0.8-5.1,3.3c0,1.6,0.8,2.2,2.3,2.2c1,0,2.9-0.8,2.9-2.2V161.1z"/>
	<path class="st6" d="M318.5,156.6c-1.3,0-1.5,0-1.5-0.2s0.7-0.7,2.1-2.2c0.6-0.7,0.8-1.3,1-1.3c0.4,0,0.4,0.6,0.4,2.6h3
		c0.4,0,0.8-0.2,1.1-0.5c0.1,0,0.2,0.1,0.2,0.2c0,0.1-0.1,0.3-0.2,0.4l-0.6,1h-3.6v8c0,0.9,0.8,1.7,1.7,1.7c0.1,0,0.1,0,0.2,0
		c1.5,0,1.9-0.6,2.3-0.6c0.1,0,0.2,0,0.2,0.2c0,0.4-1.5,1.3-3.4,1.3c-1.3,0-3.1-0.4-3.1-3.2L318.5,156.6z"/>
	<path class="st6" d="M327.8,158.1c0-1.6-1.5-0.9-1.5-1.5c0-0.1,0.1-0.3,0.3-0.3c1.8-0.5,2.3-1.4,3-1.4c0.2,0,0.3,0.2,0.3,0.4v9.9
		c0,1.4,2.2,0.8,2.2,1.5c0,0.2-0.2,0.3-0.5,0.3c-0.6,0-1.4-0.1-2.6-0.1c-0.9,0-1.6,0.1-1.9,0.1c-0.3,0-0.4,0-0.4-0.3
		c0-0.7,1.2,0.4,1.2-2.2L327.8,158.1z M330,150.9c0,0.3-0.8,1.4-1.2,1.4c-0.3,0-1.2-1.1-1.2-1.4s0.8-1.5,1.2-1.5
		C329.2,149.5,330,150.6,330,150.9L330,150.9z"/>
	<path class="st6" d="M333.1,161.4c0-3.4,2.7-6.3,6.2-6.3c2.1,0,6,1,6,6.2c0.1,3.2-2.5,5.9-5.7,6c-0.1,0-0.2,0-0.2,0
		C335.7,167.3,333.1,165.2,333.1,161.4z M343.2,161.7c0-2.8-1.2-6-4.5-6c-2.7,0-3.8,2.4-3.8,4.7c0,2.7,1.3,6.2,4.5,6.2
		C341.8,166.7,343.2,165.1,343.2,161.7z"/>
	<path class="st6" d="M350.1,164.9c0,1.9,2.5,1.1,2.5,1.8c0,0.3-0.2,0.4-0.6,0.4c-0.4,0-1-0.1-2.6-0.1c-1.5,0-2,0.1-2.3,0.1
		s-0.5-0.1-0.5-0.3c0-0.6,1.6,0,1.6-1.8v-6.8c0-1.6-2-0.9-2-1.5c0-0.1,0.1-0.3,0.2-0.3c2.3-0.5,2.8-1.4,3.5-1.4
		c0.2,0,0.3,0.2,0.3,0.4v1.8c0,0.3,1.3-2,4-2c3.7,0,4.5,3.1,4.5,5.2v4.6c0,1.9,2.2,1.1,2.2,1.8c0,0.3-0.2,0.4-0.5,0.4
		c-0.3,0-1.1-0.1-2.4-0.1c-1.1,0-1.6,0.1-2,0.1s-0.5-0.1-0.5-0.3c0-0.6,1.2,0,1.2-1.8v-5.2c0.1-1.8-1.4-3.4-3.2-3.5
		c-2.3,0-3.3,1.7-3.3,2.2L350.1,164.9z"/>
	<path class="st6" d="M105.4,191.1c0-3.4,2.7-6.2,6.1-6.3c2.1,0,6,1,6,6.2c0.1,3.2-2.5,5.9-5.7,6c-0.1,0-0.2,0-0.2,0
		C108,197,105.4,194.8,105.4,191.1z M115.6,191.4c0-2.8-1.2-6-4.5-6c-2.7,0-3.8,2.4-3.8,4.7c0,2.7,1.3,6.2,4.5,6.2
		C114.1,196.4,115.6,194.8,115.6,191.4z"/>
	<path class="st6" d="M120.2,185.2c0-2.1,0.6-4.1,1.6-5.8c0.6-1,2.5-3,4.5-3c0.4,0,1.1,0.1,1.1,0.6c0,0.5-0.1,2-0.4,2
		s-0.1-1.2-1.9-1.2c-1.5,0-2.5,1.6-2.7,2.8c-0.2,1.5-0.3,3-0.2,4.6h2.1c0.4,0,0.8-0.2,1-0.5c0.1,0,0.2,0.1,0.2,0.2
		c0,0.1-0.1,0.3-0.2,0.4l-0.6,1h-2.7v8.4c0,1.8,2,1.1,2,1.7c0,0.3-0.4,0.2-0.6,0.2h-4.3c-0.1,0-0.4,0.1-0.4-0.2
		c0-0.6,1.3-0.2,1.3-1.6v-8.6h-1.9l0.2-1.1H120.2z"/>
	<path class="st6" d="M153.2,194.2c0.1,2.3,2.2,1.3,2.2,2.3c0,0.3-0.4,0.3-0.7,0.3c-0.5,0-1.5-0.1-2.6-0.1c-0.8,0-1.7,0.1-2.5,0.1
		c-0.2,0-0.3-0.1-0.3-0.3c0-0.8,1.7-0.2,1.7-2.3l-0.3-10.7c0-0.7-0.1-1.1-0.3-1.1c-0.2,0-0.4,0.2-0.7,0.8l-5.7,11.6
		c-0.1,0.2-0.6,1.4-0.8,1.4s-0.5-0.6-0.6-0.8l-5.9-12.3c-0.1-0.2-0.2-0.3-0.3-0.3c-0.1,0-0.2,0.1-0.2,0.4l-0.3,9.7
		c-0.1,3.7,2.5,2.5,2.5,3.5c0,0.3-0.3,0.3-0.7,0.3c-0.4,0-1.6-0.1-2.5-0.1c-1.4,0-1.9,0.1-2.4,0.1c-0.2,0-0.3-0.1-0.3-0.3
		c0-0.9,1.8,0.2,2-2.7c0.3-4.5,0.7-7.4,0.7-10.3c0-6.5-2.6-4.9-2.6-5.9c0-0.2,0.2-0.3,0.5-0.3c0.5,0,1,0.1,1.5,0.1s1-0.1,1.5-0.1
		c0.5,0,0.4,0.5,0.6,0.8l6.6,14c0.3,0.6,0.4,0.8,0.6,0.8s0.4-0.6,0.8-1.5l6.6-13.2c0.2-0.3,0.4-1,0.7-0.9c0.3,0,1.2,0.1,1.3,0.1
		c0.6,0,0.9-0.1,1.3-0.1c0.2,0,0.3,0.2,0.3,0.3c0,0.9-2.2-0.3-2.1,3L153.2,194.2z"/>
	<path class="st6" d="M158.9,189.6c0,4.6,2.8,5.9,4.4,5.9c2.4,0,3.3-1.4,3.9-1.4c0.1,0,0.1,0.1,0.1,0.2c0,0.6-2.4,2.6-4.9,2.6
		c-4.1,0-5.6-3.8-5.6-5.7c0-3.5,2-6.5,5.4-6.5c2.5,0.1,4.5,1.9,4.9,4.4c0,0.5-0.3,0.5-0.9,0.5L158.9,189.6z M164.3,188.9
		c0.4,0,0.6-0.1,0.6-0.6c-0.1-1.6-1.4-2.9-3.1-2.9c-1.7,0-2.9,2-2.9,3.5H164.3z"/>
	<path class="st6" d="M177.5,179.3c0-1.6-2.2-0.9-2.2-1.5c0-0.1,0.1-0.3,0.3-0.3c2.1-0.5,3-1.4,3.6-1.4c0.2,0,0.3,0.2,0.3,0.4v18.9
		c0,0.3,0.6,0.6,1.5,0.7c0.2,0,0.3,0,0.3,0.2s-0.7,0.4-1.7,0.4c-0.6,0-1.2,0.1-1.7,0.2c-0.2,0-0.3-0.2-0.3-0.4v-1.5h-0.1
		c-1,1.2-2.5,1.9-4.1,1.9c-3,0-4.9-2.8-4.9-5.6c0-3.3,2.3-6.5,5.8-6.5c1.1,0,2.3,0.3,3.2,1L177.5,179.3z M177.5,188.7
		c0-2-1.6-3.2-3.6-3.2c-2.6,0-3.7,2.5-3.7,4.7c0,2.3,1.6,5.6,4.3,5.6c2.3,0,3.1-1.4,3.1-2.4V188.7z"/>
	<path class="st6" d="M184.2,187.8c0-1.6-1.5-0.9-1.5-1.5c0-0.2,0.1-0.3,0.3-0.3c1.8-0.5,2.3-1.4,3-1.4c0.2,0,0.3,0.2,0.3,0.4v9.9
		c0,1.4,2.2,0.8,2.2,1.5c0,0.2-0.2,0.3-0.5,0.3c-0.6,0-1.4-0.1-2.6-0.1c-0.9,0-1.6,0.1-1.9,0.1s-0.4,0-0.4-0.3
		c0-0.7,1.2,0.4,1.2-2.2L184.2,187.8z M186.4,180.6c0,0.3-0.8,1.4-1.2,1.4c-0.3,0-1.2-1.1-1.2-1.4s0.8-1.5,1.2-1.5
		C185.6,179.1,186.4,180.3,186.4,180.6L186.4,180.6z"/>
	<path class="st6" d="M189.4,191.1c0-3.4,2.7-6.3,6.2-6.3c0,0,0,0,0,0c1.4,0,3.3,0.4,3.3,1c0,0.6,0,1.3,0,1.6s-0.1,0.6-0.2,0.6
		c-0.3,0-0.6-0.5-0.7-0.6c-0.8-1.1-2.1-1.7-3.4-1.7c-2.3,0-3.3,2.5-3.3,4.4c0,3,1.8,5.4,4.9,5.4c2.2,0,3.4-1.6,3.8-1.6
		c0.1,0,0.2,0.1,0.2,0.2c0,0.4-1.6,2.8-5.4,2.8C191.7,196.8,189.3,194.2,189.4,191.1z"/>
	<path class="st6" d="M203.5,187.8c0-1.6-1.5-0.9-1.5-1.5c0-0.2,0.1-0.3,0.3-0.3c1.8-0.5,2.3-1.4,3-1.4c0.2,0,0.3,0.2,0.3,0.4v9.9
		c0,1.4,2.2,0.8,2.2,1.5c0,0.2-0.2,0.3-0.5,0.3c-0.6,0-1.4-0.1-2.6-0.1c-0.9,0-1.6,0.1-1.9,0.1s-0.4,0-0.4-0.3
		c0-0.7,1.2,0.4,1.2-2.2L203.5,187.8z M205.6,180.6c0,0.3-0.8,1.4-1.2,1.4c-0.3,0-1.2-1.1-1.2-1.4s0.8-1.5,1.2-1.5
		C204.8,179.1,205.6,180.3,205.6,180.6L205.6,180.6z"/>
	<path class="st6" d="M212.3,194.5c0,1.9,2.4,1.1,2.4,1.8c0,0.3-0.2,0.4-0.6,0.4s-1-0.1-2.6-0.1c-1.5,0-2,0.1-2.4,0.1
		c-0.3,0-0.5-0.1-0.5-0.3c0-0.6,1.6,0,1.6-1.8v-6.8c0-1.6-2-0.9-2-1.5c0-0.1,0.1-0.3,0.2-0.3c2.3-0.5,2.8-1.4,3.5-1.4
		c0.2,0,0.3,0.2,0.3,0.4v1.8c-0.1,0.3,1.3-2,4-2c3.7,0,4.5,3.1,4.5,5.2v4.6c0,1.9,2.2,1.1,2.2,1.8c0,0.3-0.2,0.4-0.5,0.4
		s-1.1-0.1-2.4-0.1c-1.1,0-1.6,0.1-2,0.1c-0.3,0-0.5-0.1-0.5-0.3c0-0.6,1.2,0,1.2-1.8v-5.2c0-1.8-1.4-3.4-3.2-3.4
		c-2.3,0-3.3,1.7-3.3,2.2L212.3,194.5z"/>
	<path class="st6" d="M225.7,189.6c0,4.6,2.8,5.9,4.4,5.9c2.4,0,3.3-1.4,3.9-1.4c0.1,0,0.1,0.1,0.1,0.2c0,0.6-2.4,2.6-4.9,2.6
		c-4.1,0-5.6-3.8-5.6-5.7c0-3.5,2-6.5,5.4-6.5c2.5,0.1,4.5,1.9,4.9,4.4c0,0.5-0.3,0.5-0.9,0.5L225.7,189.6z M231.2,188.9
		c0.4,0,0.6-0.1,0.6-0.6c-0.1-1.6-1.4-2.9-3.1-2.9c-1.7,0-2.9,2-2.9,3.5H231.2z"/>
	<path class="st6" d="M253.8,181.1c0,0.1-0.2,0.2-0.3,0.2c-0.2,0-0.3-0.3-0.4-0.5c-0.7-1.4-2.1-2.9-3.8-2.9c-1.2,0-2.2,0.9-2.3,2.1
		c0,0,0,0.1,0,0.1c0,1.8,4.1,6.2,10,11.7c0.6-0.8,0.9-1.9,0.8-2.9c0-3.2-2.6-2.1-2.6-3c0-0.3,0.4-0.2,0.6-0.2c1,0,2,0.1,2.4,0.1
		s0.8-0.1,1.8-0.1c0.3,0,0.4,0.1,0.4,0.3c0,0.4-1,0.1-1.2,1.4c-0.1,1.8-0.5,3.5-1.3,5.1c1.1,0.8,3.6,3.5,4.9,3.5
		c0.3,0,0.7-0.1,1-0.1c0.1,0,0.2,0.1,0.2,0.2c0,0,0,0,0,0c0,0.5-1.4,0.9-2.3,0.9c-2.1,0-3.6-1.6-5.1-2.8c-1.8,1.8-4.2,2.8-6.8,2.8
		c-4.1,0-7.6-2.7-7.6-7c0-3,1.5-5.2,4.4-5.9c-0.8-0.9-1.2-2-1.3-3.1c0-2.5,2.2-3.7,4.5-3.7c1,0,2,0.3,3,0.7c0.1,0,0.2-0.3,0.5-0.3
		c0.4,0,0.3,0.5,0.3,0.8L253.8,181.1z M255.9,193.6c-5.9-5-8-8.7-9-8.7c-1.7,0-3,2.2-3,3.8c0,3.7,3.5,6.8,7.1,6.8
		C252.7,195.3,254.5,194.7,255.9,193.6z"/>
	<path class="st6" d="M271.4,191.9c-0.1-0.6,0-0.8,0.3-0.8c0.3,0,0.4,0.3,0.5,0.9c0.8,2.5,3.2,4.2,5.8,4.1c2.6,0,5.2-1.5,5.2-4.4
		c0-5.3-11.2-2.3-11.2-9.5c0-3.5,3-5.2,6.1-5.2c1.6-0.1,3.2,0.3,4.6,1c0.2,0,0.3-0.3,0.6-0.3c0.3,0,0.3,0.1,0.3,0.4l0.4,3.7
		c0,0.2,0,0.4-0.3,0.4c-0.3,0-0.5-0.6-0.6-0.8c-0.8-2.2-2.9-3.7-5.3-3.6c-2.2,0-4.5,1.1-4.5,3.6c0,5.2,11.2,2.2,11.2,9.8
		c0,2.3-1.6,5.8-7.9,5.8c-2,0-4.6-1-4.7-1.5L271.4,191.9z"/>
	<path class="st6" d="M286.2,191.1c0-3.4,2.7-6.3,6.2-6.3c0,0,0,0,0,0c1.4,0,3.3,0.4,3.3,1s0,1.3,0,1.6s-0.1,0.6-0.2,0.6
		c-0.3,0-0.6-0.5-0.7-0.6c-0.8-1.1-2.1-1.7-3.4-1.7c-2.3,0-3.3,2.5-3.3,4.4c0,3,1.8,5.4,4.9,5.4c2.2,0,3.4-1.6,3.8-1.6
		c0.1,0,0.2,0.1,0.2,0.2c0,0.4-1.6,2.8-5.4,2.8C288.5,196.8,286.1,194.2,286.2,191.1z"/>
	<path class="st6" d="M300.2,187.8c0-1.6-1.5-0.9-1.5-1.5c0-0.1,0.1-0.3,0.2-0.3c1.8-0.5,2.3-1.4,3-1.4c0.2,0,0.3,0.2,0.3,0.4v9.9
		c0,1.4,2.2,0.8,2.2,1.5c0,0.2-0.2,0.3-0.5,0.3c-0.6,0-1.4-0.1-2.6-0.1c-0.9,0-1.6,0.1-1.9,0.1c-0.3,0-0.4,0-0.4-0.3
		c0-0.7,1.2,0.4,1.2-2.2L300.2,187.8z M302.3,180.6c0,0.3-0.8,1.4-1.2,1.4c-0.3,0-1.2-1.1-1.2-1.4s0.8-1.5,1.2-1.5
		C301.5,179.1,302.3,180.3,302.3,180.6L302.3,180.6z"/>
	<path class="st6" d="M307.5,189.6c0,4.6,2.8,5.9,4.4,5.9c2.4,0,3.3-1.4,3.9-1.4c0.1,0,0.1,0.1,0.1,0.2c0,0.6-2.4,2.6-4.9,2.6
		c-4.1,0-5.6-3.8-5.6-5.7c0-3.5,2-6.5,5.4-6.5c2.5,0.1,4.6,1.9,4.9,4.4c0,0.5-0.3,0.5-0.9,0.5L307.5,189.6z M312.9,188.9
		c0.4,0,0.6-0.1,0.6-0.6c-0.1-1.6-1.4-2.9-3.1-2.9c-1.7,0-2.9,2-2.9,3.5H312.9z"/>
	<path class="st6" d="M320.9,194.5c0,1.9,2.4,1.1,2.4,1.8c0,0.3-0.2,0.4-0.6,0.4c-0.4,0-1-0.1-2.6-0.1c-1.5,0-2,0.1-2.3,0.1
		c-0.3,0-0.5-0.1-0.5-0.3c0-0.6,1.6,0,1.6-1.8v-6.8c0-1.6-2-0.9-2-1.5c0-0.1,0.1-0.3,0.2-0.3c2.3-0.5,2.8-1.4,3.5-1.4
		c0.2,0,0.3,0.2,0.3,0.4v1.8c-0.1,0.3,1.3-2,4-2c3.7,0,4.5,3.1,4.5,5.2v4.6c0,1.9,2.2,1.1,2.2,1.8c0,0.3-0.2,0.4-0.5,0.4
		c-0.3,0-1-0.1-2.4-0.1c-1,0-1.6,0.1-2,0.1c-0.3,0-0.5-0.1-0.5-0.3c0-0.6,1.2,0,1.2-1.8v-5.2c0.1-1.8-1.4-3.4-3.2-3.4
		c-2.3,0-3.3,1.7-3.3,2.2L320.9,194.5z"/>
	<path class="st6" d="M332.3,191.1c0-3.4,2.7-6.3,6.2-6.3c0,0,0,0,0,0c1.4,0,3.3,0.4,3.3,1s0,1.3,0,1.6s-0.1,0.6-0.2,0.6
		c-0.3,0-0.6-0.5-0.7-0.6c-0.8-1.1-2.1-1.7-3.4-1.7c-2.3,0-3.3,2.5-3.3,4.4c0,3,1.8,5.4,4.9,5.4c2.2,0,3.4-1.6,3.8-1.6
		c0.1,0,0.2,0.1,0.2,0.2c0,0.4-1.6,2.8-5.4,2.8C334.6,196.8,332.2,194.2,332.3,191.1z"/>
	<path class="st6" d="M346.3,189.6c0,4.6,2.8,5.9,4.4,5.9c2.4,0,3.3-1.4,3.9-1.4c0.1,0,0.1,0.1,0.1,0.2c0,0.6-2.4,2.6-4.9,2.6
		c-4.1,0-5.6-3.8-5.6-5.7c0-3.5,2-6.5,5.4-6.5c2.5,0.1,4.5,1.9,4.9,4.4c0,0.5-0.3,0.5-0.9,0.5L346.3,189.6z M351.7,188.9
		c0.4,0,0.6-0.1,0.6-0.6c-0.1-1.6-1.4-2.9-3.1-2.9c-1.7,0-2.9,2-2.9,3.5H351.7z"/>
</g>
</svg>
