<?xml version="1.0" encoding="utf-8"?>
<!-- Generator: Adobe Illustrator 28.0.0, SVG Export Plug-In . SVG Version: 6.00 Build 0)  -->
<svg version="1.1" id="artwork" xmlns="http://www.w3.org/2000/svg" xmlns:xlink="http://www.w3.org/1999/xlink" x="0px" y="0px"
	 width="216.1px" height="126px" viewBox="0 0 216.1 126" style="enable-background:new 0 0 216.1 126;" xml:space="preserve">
<style type="text/css">
	.st0{fill:#BC4B27;}
	.st1{fill:#D66027;}
	.st2{fill:#FFFFFF;}
	.st3{fill:#FDCEB0;}
	.st4{fill:#6D5560;}
</style>
<g id="_x3C_CMYK_x3E_">
	<g id="_x3C_Shield_x3E__2_">
		<path class="st0" d="M2.3,23.2h49.3v-1.4v-4.3v-1.9h-6.2v-2.4h-1.5c0,0-3.2,0.1-5.6-1.3c-2.4-1.4-2.8-2.7-2.8-2.7v-2h-3.1
			C31.8,4.9,29.7,3,27.2,3S22.5,4.8,22,7.2h-3.2v2c0,0-0.5,1.4-2.8,2.7s-5.6,1.3-5.6,1.3H8.5v2.4H2.3v1.9v4.3V23.2"/>
		<path class="st0" d="M2.3,39.3C2.4,43,2.9,46.5,3.8,50c1.7,6.6,4.9,12.3,9.9,16.9c3.9,3.6,8.3,6.3,12.9,8.9c0.1,0.1,0.4,0,0.5,0
			c3.2-1.8,6.3-3.6,9.2-5.8c6.3-4.6,10.7-10.5,12.9-17.9c1.7-5.2,2.2-10.6,2.3-16c0-2.8,0-7.7,0-10.6H2.3
			C2.3,29.5,2.2,35.4,2.3,39.3 M23.4,42.7L27,31.6l3.6,11.1h11.6l-9.4,6.9l3.6,11.1L27,53.8l-9.4,6.9l3.5-11.1l-9.4-6.9H23.4z"/>
		<path class="st1" d="M27.1,23.2l0.1-20.1c-2.5,0-4.7,1.8-5.2,4.2h-3.2v2c0,0-0.5,1.4-2.8,2.7c-2.4,1.4-5.6,1.3-5.6,1.3H8.5v2.4
			H2.3v1.9v4.2v1.4H27.1z"/>
		<path class="st1" d="M27,53.8l-9.4,6.9l3.6-11.1l-9.4-6.9h11.6l3.6-11v-6.1H2.3c0,3.9-0.1,9.9,0,13.8c0.1,3.6,0.6,7.2,1.5,10.7
			c1.7,6.6,4.9,12.3,9.9,16.9c3.9,3.6,8.3,6.3,12.9,8.9c0.1,0.1,0.3,0,0.3,0L27,53.8z"/>
		<polygon class="st2" points="42.2,42.7 30.5,42.7 27,31.6 23.4,42.7 11.8,42.7 21.2,49.5 17.6,60.5 27,53.8 36.4,60.5 32.8,49.5 
					"/>
		<polygon class="st3" points="27,31.6 30.5,42.7 42.2,42.7 32.8,49.5 36.4,60.5 27,53.8 		"/>
	</g>
	<g>
		<path d="M33.2,73.3c0.2,0,0.4,0.1,0.6,0.2s0.4,0.3,0.5,0.5c0.1,0.2,0.2,0.4,0.2,0.6c0,0.2-0.1,0.4-0.2,0.6
			c-0.1,0.2-0.3,0.4-0.5,0.5c-0.2,0.1-0.4,0.2-0.6,0.2c-0.2,0-0.4-0.1-0.6-0.2c-0.2-0.1-0.4-0.3-0.5-0.5c-0.1-0.2-0.2-0.4-0.2-0.6
			c0-0.2,0.1-0.4,0.2-0.6c0.1-0.2,0.3-0.4,0.5-0.5S33,73.3,33.2,73.3z M33.2,73.5c-0.2,0-0.3,0-0.5,0.1c-0.2,0.1-0.3,0.2-0.4,0.4
			c-0.1,0.2-0.1,0.3-0.1,0.5c0,0.2,0,0.4,0.1,0.5c0.1,0.2,0.2,0.3,0.4,0.4s0.3,0.1,0.5,0.1s0.4,0,0.5-0.1c0.2-0.1,0.3-0.2,0.4-0.4
			c0.1-0.2,0.1-0.3,0.1-0.5c0-0.2,0-0.4-0.1-0.5c-0.1-0.2-0.2-0.3-0.4-0.4C33.5,73.6,33.3,73.5,33.2,73.5z M32.7,75.3v-1.4h0.5
			c0.2,0,0.3,0,0.3,0c0.1,0,0.1,0.1,0.2,0.1c0,0.1,0.1,0.1,0.1,0.2s0,0.2-0.1,0.3s-0.2,0.1-0.3,0.1c0,0,0.1,0,0.1,0.1
			c0.1,0.1,0.1,0.1,0.2,0.3l0.2,0.3h-0.3l-0.1-0.2c-0.1-0.2-0.2-0.3-0.2-0.3s-0.1,0-0.2,0h-0.2v0.6L32.7,75.3L32.7,75.3z M32.9,74.5
			h0.3c0.1,0,0.2,0,0.3-0.1c0,0,0.1-0.1,0.1-0.2v-0.1L33.4,74c0,0-0.1,0-0.2,0h-0.4V74.5z"/>
	</g>
	<g>
		<path d="M81,46.9C82.3,45,83,42.4,83,39v-9.3c0-1.6,0.1-2.5,0.3-3.1c0.2-0.5,0.7-1,1.4-1.3c0.3-0.1,0.5-0.3,0.5-0.6
			c0-0.3-0.2-0.5-0.5-0.5c-0.1,0-0.4,0-0.9,0.1c-0.3,0-1.2,0.1-2.5,0.1c-0.7,0-1.2,0-1.7-0.1s-1-0.1-1.2-0.2c-0.2,0-0.3,0-0.4,0.1
			c-0.1,0.1-0.1,0.2-0.1,0.4c0,0.2,0.1,0.5,0.7,0.5c1.1,0.1,1.8,0.5,2.2,1.2c0.4,0.7,0.7,1.8,0.7,3.3v9.7c0,3.2-0.7,5.7-2.2,7.3
			c-1.5,1.6-3.6,2.4-6.6,2.4c-3.2,0-5.6-1-7.1-2.8c-1-1.4-1.5-3.6-1.5-6.9v-9.4v-1.3c0-1.2,0.1-2.1,0.4-2.4c0.2-0.4,0.7-0.7,1.4-0.9
			c0.5-0.1,0.7-0.3,0.7-0.6c0-0.2-0.1-0.4-0.6-0.4c-0.2,0-0.5,0-1,0.1c-0.6,0.1-0.9,0.1-1.1,0.1h-1.5h-1.5c-0.3,0-0.7,0-1.3-0.1
			c-0.6,0-1,0-1.3,0c-0.7,0-0.8,0.3-0.8,0.6c0,0.2,0.1,0.4,0.6,0.5c1.1,0.2,1.8,0.5,2.2,1c0.4,0.5,0.5,1.4,0.5,2.7v1.1v9.5
			c0,2.6,0.5,4.8,1.4,6.4c0.8,1.5,2.1,2.5,3.8,3.4c1.7,0.8,3.6,1.3,5.8,1.3c1.9,0,3.5-0.4,5.2-1.1C78.8,49,80.1,48.1,81,46.9"/>
		<path d="M96,26.6c0.6,0,0.8,0.1,0.8,0.2c0.1,0.1,0.2,0.2,0.2,0.8v0.5v18.6c0,1-0.2,1.8-0.5,2.2s-1,0.6-1.9,0.8
			c-0.5,0.1-0.7,0.2-0.7,0.5c0,0.2,0.1,0.5,0.7,0.5c0.1,0,0.6,0,1.3-0.1c0.4,0,0.8-0.1,1.3-0.1h1.5h1.4c0.9,0,1.5,0,1.7,0.1
			c0.5,0.1,0.8,0.1,1,0.1c0.6,0,0.7-0.3,0.7-0.5c0-0.3-0.3-0.5-0.8-0.5c-1.6-0.3-2.3-1.1-2.4-2.4v-0.7V27.9c0-0.7,0.1-1,0.2-1
			c0.1-0.1,0.3-0.2,1-0.2h5.3c1,0,1.7,0.1,2.1,0.4l0,0c0.3,0.3,0.6,0.8,0.8,1.7c0.1,0.5,0.3,0.7,0.6,0.7c0.2,0,0.5-0.2,0.5-0.7
			c0-0.2-0.1-0.5-0.1-0.9c-0.1-0.3-0.1-0.9-0.1-1.6c0-1.1-0.1-1.3-0.3-1.4c-0.2-0.2-0.6-0.3-1.4-0.3H88.4c-0.5,0-0.8,0.1-0.9,0.3
			c-0.2,0.2-0.2,0.6-0.2,1.2c0,0.6-0.1,1.3-0.3,2.2c-0.2,0.6-0.3,1.1-0.3,1.4c0,0.5,0.3,0.6,0.5,0.6c0.5,0,0.6-0.6,0.6-0.8
			c0.2-1.1,0.6-1.9,1-2.3s1.2-0.6,2.2-0.6C91,26.6,96,26.6,96,26.6z"/>
		<path d="M139.1,50.4c0.4,0,0.7-0.1,0.9-0.1h1.4h1.4c1,0,1.6,0,1.9,0.1c0.8,0.1,1.3,0.2,1.6-0.1c0.1-0.1,0.1-0.2,0.1-0.4
			c0-0.3-0.3-0.4-0.7-0.5c-1-0.1-1.8-0.4-2.1-0.9c-0.4-0.5-0.6-1.4-0.6-2.7v-18c0-0.6,0.1-1.2,0.4-1.6c0.2-0.5,0.6-0.7,0.9-0.8
			l0.8-0.2c0.5-0.1,0.6-0.3,0.6-0.5s-0.1-0.5-0.6-0.5c-0.1,0-0.4,0-0.7,0.1c-0.5,0.1-1.5,0.1-2.7,0.1c-0.9,0-1.8,0-2.6-0.1
			c-0.6-0.1-1-0.1-1.3-0.1c-0.5,0-0.6,0.3-0.6,0.4c0,0.2,0.1,0.5,0.6,0.6c0.9,0.2,1.5,0.6,1.8,1.1c0.3,0.5,0.5,1.4,0.5,2.6v6.4
			c0,0.3-0.1,0.5-0.2,0.6c-0.1,0.1-0.3,0.1-1,0.1h-11.1c-1,0-1.3-0.1-1.3-0.2l0,0c-0.1-0.1-0.2-0.3-0.2-1.2V28c0-0.9,0.1-1.6,0.4-2
			c0.3-0.4,0.8-0.7,1.7-0.9c0.4-0.1,0.6-0.3,0.6-0.5s-0.1-0.5-0.7-0.5c-0.2,0-0.5,0-0.8,0.1c-0.8,0.1-1.6,0.2-2.4,0.2
			c-1.3,0-2.4-0.1-3.4-0.2c-0.5-0.1-0.9-0.1-1.2-0.1c-0.2,0-0.4,0-0.5,0.1c-0.1,0.1-0.1,0.2-0.1,0.4c0,0.2,0.1,0.5,0.7,0.5
			c1,0.2,1.8,0.5,2.2,1c0.4,0.5,0.6,1.3,0.6,2.3v16.1c0,1.8-0.1,2.9-0.3,3.6c-0.2,0.7-0.5,1.1-1.1,1.2l-1,0.2
			c-0.5,0.1-0.6,0.4-0.6,0.6c0,0.2,0.1,0.5,0.6,0.5c0.1,0,0.5,0,1.2-0.1c0.5,0,0.9-0.1,1.2-0.1h1.3h1.6c1.2,0,1.9,0,2.3,0.1
			c0.5,0.1,0.8,0.1,1,0.1c0.3,0,0.4-0.1,0.6-0.2c0.1-0.1,0.1-0.2,0.1-0.3c0-0.3-0.3-0.5-0.8-0.6c-1.1-0.1-1.9-0.4-2.3-0.9
			c-0.4-0.5-0.6-1.4-0.6-2.6v-6.9c0-0.7,0.1-0.9,0.2-1c0.1-0.1,0.4-0.2,1.3-0.2h11.1c0.9,0,1,0.1,1.1,0.1c0,0,0.1,0.2,0.1,1v6.9v0.7
			c0,1.9-0.6,2.8-1.9,3.1c-0.5,0.1-0.7,0.3-0.8,0.5c0,0.2,0,0.3,0.1,0.4c0.1,0.1,0.2,0.1,0.4,0.1l0,0
			C137.8,50.5,138.2,50.5,139.1,50.4"/>
		<path d="M194.3,48.3l-0.2,0.1l-1,0.5c-0.5,0.3-1.2,0.4-1.9,0.4c-0.9,0-1.7-0.3-2.1-0.8c-0.3-0.3-0.5-1.1-0.5-2.3v-9.3h4.3
			c0.5,0,0.8-0.2,1-0.6l0.4-1.1c0.2-0.4,0.2-0.5,0.2-0.5c0-0.1,0-0.2-0.1-0.3c-0.1-0.1-0.1-0.1-0.2-0.1c-0.1,0-0.3,0.1-0.5,0.2
			c-0.3,0.2-0.7,0.3-1.2,0.3h-4l0.1-3.1c0-0.5-0.2-0.6-0.4-0.6c-0.1,0-0.3,0.1-0.8,0.9c-0.8,1.2-1.9,2.4-3.3,3.7
			c-0.4,0.3-0.5,0.6-0.5,0.8s0.1,0.4,0.6,0.4h1.6v9.3c0,3,1.5,4.6,4.4,4.6c0.9,0,1.8-0.2,2.8-0.7c1.1-0.5,1.6-1,1.6-1.5
			C194.6,48.4,194.5,48.3,194.3,48.3"/>
		<path d="M152.5,35.3c1,0,1.9,0.4,2.6,1.2s1.3,1.7,1.3,2.6c0,0.4-0.8,0.5-1.4,0.5h-6.2c0.2-1.3,0.6-2.4,1.2-3.1l0,0
			C150.6,35.7,151.5,35.3,152.5,35.3 M159.3,46.7c-0.1,0-0.2,0.1-0.3,0.2c-1.6,1.2-3,1.8-4.4,1.8c-1.7,0-3.1-0.7-4.3-2.2
			c-1.2-1.5-1.8-3.2-1.8-5.3v-0.3h7h1.3h1.4c0.9,0,1.4-0.3,1.4-0.8c0-0.3-0.2-0.8-0.5-1.6c-0.3-0.7-0.6-1.3-0.9-1.8
			c-1.3-1.8-2.9-2.6-5.1-2.6c-2,0-3.6,0.9-5.1,2.4c-1.5,1.7-2.2,3.6-2.2,5.8c0,2.3,0.7,4.2,2.1,5.8c1.4,1.6,3.1,2.4,5.2,2.4
			c1.9,0,3.6-0.7,5.2-2c0.9-0.7,1.4-1.3,1.4-1.7c0-0.2,0-0.3-0.1-0.3C159.5,46.7,159.4,46.7,159.3,46.7"/>
		<path d="M183.4,49.3c-1.3-0.2-2-0.6-2.3-1.2c-0.2-0.5-0.4-1.3-0.4-2.4V23.9v-0.6l0,0c0-0.5-0.1-0.8-0.2-0.9s-0.1-0.1-0.2-0.1
			s-0.3,0.1-0.5,0.2c-0.3,0.2-1,0.6-1.8,0.9l-1.2,0.5c-0.3,0.1-0.7,0.3-1.2,0.4c-0.4,0.1-0.6,0.3-0.6,0.5c0,0.1,0.1,0.3,0.3,0.4
			c0.1,0,0.2,0,0.4,0l0,0h1c0.7,0,1.1,0.5,1.1,1.6v20.8c0,0.6-0.1,1-0.3,1.3c-0.2,0.3-0.5,0.5-1.1,0.6c-0.4,0.1-0.6,0.3-0.6,0.6
			c0,0.2,0.1,0.5,0.6,0.5c0.1,0,0.2,0,0.7-0.1c0.3,0,1-0.1,2.2-0.1h2.6c0.4,0,0.7,0,0.8,0.1c0.2,0.1,0.4,0.1,0.5,0.1
			c0.2,0,0.3,0,0.4-0.1c0.1-0.1,0.1-0.2,0.1-0.4C184,49.5,183.8,49.4,183.4,49.3"/>
		<path d="M165.6,44.1c1-0.7,2.4-1.1,4.3-1.3v3.6c0,0.9-0.2,1.6-0.6,2c-0.7,0.7-1.6,1-2.5,1c-0.8,0-1.5-0.2-2-0.7
			c-0.5-0.5-0.7-1.2-0.7-2C164.1,45.6,164.6,44.7,165.6,44.1 M175.4,49c-0.1,0-0.2,0-0.5,0.1c-0.1,0-0.3,0-0.4,0
			c-0.6,0-1.1-0.2-1.3-0.7c-0.3-0.5-0.4-1.3-0.4-2.4v-7.3c0-1.4-0.5-2.5-1.5-3.2c-1-0.8-2.4-1.2-4-1.2c-1.9,0-3.4,0.6-4.6,1.9
			c-0.9,0.9-1.3,1.8-1.3,2.5c0,0.4,0.3,0.7,0.8,0.9c0.5,0.3,1.1,0.4,1.7,0.4c0.2,0,0.3,0,0.4-0.1c0.1-0.1,0.1-0.2,0.1-0.3
			c0-0.2-0.1-0.4-0.1-0.6c-0.2-0.5-0.2-1-0.2-1.4c0-1.3,0.8-2,2.4-2c1.2,0,2.2,0.4,2.8,1.1c0.5,0.5,0.8,1.5,0.8,2.8v2.3
			c-3,0.5-5.3,1.1-6.6,1.9c-1.4,0.8-2.1,2-2.1,3.4c0,1.1,0.4,2,1.1,2.6c0.7,0.7,1.7,1,2.8,1c1.6,0,3.2-0.7,5-2
			c0.8,1.3,1.8,1.9,2.8,1.9c0.6,0,1.2-0.1,1.8-0.4c0.7-0.3,1-0.5,1-0.8c0-0.1,0-0.2-0.1-0.3C175.6,49,175.5,49,175.4,49"/>
		<path d="M213.3,49.5c-1-0.2-1.7-0.4-2-0.7c-0.3-0.3-0.4-1-0.4-1.9v-6c0-2-0.6-3.6-1.7-4.8c-1.1-1.3-2.5-1.9-4.3-1.9
			c-1.9,0-3.5,0.9-5.1,2.7V24.6c0-0.4,0-0.7,0-1c0-0.2,0-0.4,0-0.5c0-0.5-0.3-0.5-0.4-0.5c-0.1,0-0.3,0-0.5,0.1l-1.5,0.7
			c-1,0.5-1.9,0.8-2.6,1c-0.4,0.1-0.5,0.3-0.5,0.5s0.1,0.3,0.2,0.4c0.1,0,0.2,0.1,0.3,0.1l0,0l1-0.1c0.3,0,0.5,0.1,0.7,0.2
			c0.3,0.3,0.5,1,0.5,1.9v19.5c0,1.3-0.1,1.8-0.2,2c-0.2,0.3-0.6,0.5-1.3,0.7c-0.5,0.1-0.5,0.4-0.5,0.6c0,0.2,0.1,0.4,0.6,0.4
			c0.2,0,0.5,0,0.9-0.1c0.9-0.1,1.7-0.1,2.2-0.1c1.5,0,2.4,0,2.8,0.1c0.6,0.1,0.9,0.1,1.1,0.1c0.5,0,0.5-0.3,0.5-0.4
			c0-0.3-0.3-0.5-0.8-0.6c-1.1-0.1-1.8-0.4-2.1-0.8c-0.3-0.4-0.4-1.2-0.4-2.4V39c0-0.8,0.4-1.5,1.2-2.2c0.8-0.6,1.8-1,2.7-1
			c1.3,0,2.4,0.5,3.1,1.4c0.8,0.9,1.2,2.2,1.2,3.7v6.4v0.6c0,0.7-0.1,1-0.2,1.1c-0.1,0.1-0.4,0.3-1.2,0.6c-0.3,0.1-0.5,0.3-0.5,0.5
			s0.1,0.5,0.7,0.5c0.1,0,0.3,0,0.6-0.1c0.5-0.1,1.4-0.1,2.4-0.1c0.7,0,1.5,0,2.4,0.1c0.5,0,0.8,0.1,0.9,0.1c0.6,0,0.6-0.3,0.6-0.5
			C213.9,49.8,213.8,49.6,213.3,49.5"/>
		<path d="M65.5,65c-1.2-0.4-1.9-0.7-2.2-0.8c-0.3-0.1-0.6-0.4-0.8-0.7c-0.3-0.4-0.4-0.8-0.4-1.3c0-0.6,0.2-1.1,0.7-1.4
			c0.4-0.4,1-0.6,1.6-0.6c0.8,0,1.6,0.2,2.3,0.6c0.7,0.4,1.1,1,1.3,1.6c0.1,0.3,0.2,0.5,0.4,0.5c0.1,0,0.2-0.1,0.2-0.3
			c0-0.1,0-0.2,0-0.4l-0.1-1c-0.1-0.5-0.1-0.8-0.1-0.9c0-0.2,0-0.4-0.1-0.4c0,0-0.1-0.1-0.2-0.1c-0.1,0-0.1,0-0.1,0L67.8,60
			c-0.1,0.1-0.2,0.1-0.3,0L67,59.7c-0.5-0.2-1-0.3-1.7-0.3c-1.2,0-2.2,0.3-2.8,1c-0.8,0.6-1.1,1.5-1.1,2.4c0,0.9,0.3,1.7,0.9,2.2
			c0.6,0.6,1.6,1.1,2.8,1.6c1.3,0.4,2.1,0.8,2.4,1c0.5,0.5,0.8,1,0.8,1.7c0,0.7-0.3,1.3-0.9,1.8c-0.6,0.5-1.3,0.7-2.1,0.7
			c-0.8,0-1.6-0.3-2.3-0.8c-0.7-0.5-1.2-1.2-1.4-1.9c-0.1-0.3-0.2-0.5-0.3-0.5c-0.1,0-0.1,0-0.2,0.1c-0.1,0.1-0.1,0.1-0.1,0.3
			c0,0.2,0.1,0.6,0.2,1.2c0.1,0.5,0.2,0.8,0.2,0.8c0.1,0.3,0.1,0.6,0.2,0.7c0,0.1,0.1,0.2,0.2,0.3c0.3,0.2,0.7,0.3,1.3,0.5
			c0.6,0.1,1.1,0.2,1.6,0.2c1.3,0,2.4-0.4,3.2-1.1c0.9-0.7,1.3-1.7,1.3-2.8C68.9,67.1,67.7,65.8,65.5,65"/>
		<path d="M72.2,69.4c0.5-0.3,1.2-0.6,2.2-0.6v1.8c0,0.5-0.1,0.8-0.3,1c-0.3,0.3-0.8,0.5-1.3,0.5c-0.4,0-0.7-0.1-1-0.4
			c-0.2-0.2-0.4-0.6-0.4-1C71.5,70.1,71.8,69.7,72.2,69.4 M77,71.9c0,0-0.1,0-0.2,0s-0.1,0-0.2,0c-0.3,0-0.5-0.1-0.7-0.3
			c-0.1-0.2-0.2-0.6-0.2-1.2v-3.5c0-0.7-0.2-1.2-0.7-1.6s-1.1-0.6-2-0.6s-1.7,0.3-2.3,0.9c-0.4,0.5-0.6,0.9-0.6,1.3
			c0,0.2,0.1,0.3,0.4,0.5c0.2,0.1,0.5,0.2,0.8,0.2c0.1,0,0.1,0,0.2-0.1c0,0,0.1-0.1,0-0.2c0-0.1,0-0.2-0.1-0.3
			c-0.1-0.3-0.1-0.5-0.1-0.7c0-0.7,0.4-1,1.2-1c0.6,0,1.1,0.2,1.4,0.5c0.3,0.3,0.4,0.7,0.4,1.4v1.1c-1.5,0.2-2.5,0.6-3.2,0.9
			c-0.7,0.4-1,1-1,1.7c0,0.5,0.2,1,0.5,1.3c0.4,0.3,0.8,0.5,1.4,0.5c0.8,0,1.6-0.3,2.4-1c0.4,0.6,0.9,0.9,1.4,0.9
			c0.3,0,0.6-0.1,0.9-0.2s0.5-0.2,0.5-0.4c0-0.1,0-0.1,0-0.1C77.1,71.9,77,71.9,77,71.9"/>
		<path d="M86.9,72.1L86.5,72c-0.4-0.1-0.7-0.3-0.7-0.7v-0.4v-0.3v-2.2c0-1.1-0.2-2-0.6-2.5c-0.6-0.8-1.4-1.2-2.4-1.2
			c-0.9,0-1.7,0.5-2.4,1.4v-0.9c0-0.1,0-0.3,0-0.4s0-0.2-0.1-0.3c-0.1-0.1-0.2-0.1-0.4,0c-0.1,0-0.2,0.1-0.4,0.2l-0.5,0.2
			c-0.4,0.2-0.8,0.3-1.2,0.4c-0.2,0-0.3,0.1-0.3,0.2c0,0.1,0,0.1,0.1,0.2c0.1,0,0.1,0,0.2,0h0.4c0.3,0,0.5,0.1,0.6,0.2
			c0.1,0.1,0.2,0.4,0.2,0.9v4.1c0,0.3-0.1,0.6-0.2,0.8s-0.3,0.3-0.6,0.4c-0.1,0.1-0.2,0.1-0.2,0.2s0,0.1,0,0.1s0.1,0.1,0.2,0.1
			c0.1,0,0.2,0,0.4,0s0.8,0,1.8,0c0.5,0,0.8,0,0.9,0c0.2,0,0.4,0.1,0.5,0.1c0.2,0,0.3-0.1,0.3-0.2c0-0.1-0.1-0.2-0.4-0.2
			c-0.8,0-1.2-0.3-1.2-0.8v-0.7v-3.5c0-0.4,0.2-0.7,0.6-1c0.4-0.3,0.8-0.4,1.3-0.4c0.7,0,1.3,0.2,1.7,0.7c0.4,0.5,0.6,1.1,0.6,2v3.1
			c0,0.4-0.1,0.6-0.3,0.6l-0.3,0.1c-0.2,0-0.2,0.1-0.2,0.2c0,0.1,0,0.2,0.1,0.2h0.2h0.3h0.4h0.9c0.5,0,0.9,0,1.1,0
			c0.2,0,0.3,0,0.4,0c0.1,0,0.2,0,0.3-0.1c0,0,0.1-0.1,0.1-0.2C87.2,72.2,87.1,72.1,86.9,72.1"/>
		<path d="M141.3,72.1h-0.4c-0.3,0-0.5-0.1-0.6-0.3c-0.1-0.1-0.1-0.4-0.1-0.9v-6.2c0-0.2-0.1-0.3-0.2-0.3l0,0l-0.5,0.2
			c-0.5,0.3-1,0.5-1.3,0.6s-0.5,0.2-0.5,0.3v0.1c0.1,0.1,0.2,0.1,0.4,0.1c0.3,0,0.5,0.1,0.6,0.2c0.1,0.1,0.1,0.5,0.1,1v4
			c0,0.4,0,0.6-0.1,0.8c-0.1,0.2-0.2,0.3-0.4,0.3l-0.2,0.1c-0.2,0.1-0.2,0.2-0.2,0.2c0,0.1,0.1,0.2,0.3,0.2c0.1,0,0.2,0,0.3,0
			c0.1,0,0.2,0,0.3,0h0.7h0.6c0.3,0,0.5,0,0.6,0c0.3,0,0.5,0,0.6,0c0.2,0,0.3-0.1,0.3-0.2C141.6,72.2,141.5,72.1,141.3,72.1"/>
		<path d="M136.8,72.1l-0.4-0.1c-0.4-0.1-0.7-0.3-0.7-0.7v-0.4v-0.3v-2.2c0-1.1-0.2-2-0.6-2.5c-0.6-0.8-1.4-1.2-2.4-1.2
			c-0.9,0-1.7,0.5-2.4,1.4v-0.9c0-0.1,0-0.3,0-0.4s0-0.2-0.1-0.3c-0.1-0.1-0.2-0.1-0.4,0c-0.1,0-0.2,0.1-0.4,0.2l-0.5,0.2
			c-0.4,0.2-0.8,0.3-1.2,0.4c-0.2,0-0.3,0.1-0.3,0.2c0,0.1,0,0.1,0.1,0.2c0.1,0,0.1,0,0.2,0h0.4c0.3,0,0.5,0.1,0.6,0.2
			c0.1,0.1,0.2,0.4,0.2,0.9v4.1c0,0.3-0.1,0.6-0.2,0.8c-0.1,0.2-0.3,0.3-0.6,0.4c-0.1,0.1-0.2,0.1-0.2,0.2s0,0.1,0,0.1
			s0.1,0.1,0.2,0.1c0.1,0,0.2,0,0.4,0s0.8,0,1.8,0c0.5,0,0.8,0,0.9,0c0.2,0,0.4,0.1,0.5,0.1c0.2,0,0.3-0.1,0.3-0.2
			c0-0.1-0.1-0.2-0.4-0.2c-0.8,0-1.2-0.3-1.3-0.8v-0.7v-3.5c0-0.4,0.2-0.7,0.6-1c0.4-0.3,0.8-0.4,1.3-0.4c0.7,0,1.3,0.2,1.7,0.7
			c0.4,0.5,0.6,1.1,0.6,2v3.1c0,0.4-0.1,0.6-0.3,0.6l-0.3,0.1c-0.2,0-0.2,0.1-0.2,0.2c0,0.1,0,0.2,0.1,0.2h0.2h0.3h0.4h0.9
			c0.5,0,0.9,0,1.1,0c0.2,0,0.3,0,0.4,0s0.2,0,0.3-0.1c0,0,0.1-0.1,0.1-0.2C137.1,72.2,137,72.1,136.8,72.1"/>
		<path d="M125.3,69.1c0,1-0.2,1.7-0.7,2.3c-0.4,0.6-1,0.8-1.8,0.8c-0.9,0-1.6-0.4-2.2-1.2c-0.6-0.8-0.9-1.8-0.9-2.8
			c0-0.9,0.2-1.7,0.7-2.2c0.5-0.6,1.1-0.8,1.8-0.8c0.9,0,1.6,0.4,2.1,1.1C125.1,67,125.3,68,125.3,69.1 M122.7,64.6
			c-1.2,0-2.2,0.4-2.9,1.2c-0.8,0.8-1.2,1.8-1.2,2.8c0,1.2,0.4,2.2,1.2,2.8c0.8,0.8,1.8,1.1,2.8,1.1c1.2,0,2.2-0.4,2.9-1.2
			c0.8-0.8,1.2-1.8,1.2-2.9c0-1.1-0.4-2.1-1.2-2.7S123.8,64.6,122.7,64.6"/>
		<path d="M139.6,60.9c-0.1,0-0.3,0.1-0.6,0.4c-0.2,0.3-0.4,0.5-0.4,0.6c0,0.2,0.1,0.4,0.3,0.6c0.2,0.3,0.4,0.4,0.5,0.4
			s0.3-0.1,0.6-0.4c0.2-0.3,0.3-0.5,0.3-0.6c0-0.1,0-0.2-0.1-0.3l-0.2-0.4C139.8,61,139.8,60.9,139.6,60.9"/>
		<path d="M98.1,66.5c0,0.1-0.1,0.2-0.4,0.2H95h-0.3c-0.4,0-0.4-0.1-0.4-0.2c0,0,0-0.1,0.1-0.3l1.8-3.9c0.1-0.1,0.1-0.1,0.1-0.1
			s0.1,0,0.2,0.3l1.5,3.8v0.2l0,0C98.1,66.4,98.1,66.5,98.1,66.5 M103.1,72c-0.6-0.1-1-0.2-1.1-0.4c-0.2-0.2-0.4-0.6-0.7-1.4
			l-0.2-0.5l-3.9-10.1c-0.1-0.2-0.2-0.3-0.3-0.3c-0.1,0-0.2,0.1-0.3,0.3L91.9,70l-0.3,0.6c-0.1,0.3-0.3,0.6-0.5,0.8
			c-0.3,0.3-0.4,0.4-0.5,0.4l-0.3,0.1c-0.1,0-0.2,0.1-0.2,0.2c0,0.1,0,0.2,0.3,0.2c0,0,0,0,0.5-0.1c0.1,0,0.2,0,0.4,0
			c0.4,0,0.7,0,1,0l0.9,0.1c0.1,0,0.2,0,0.3,0s0.2,0,0.3-0.1v-0.1c0-0.1-0.1-0.2-0.3-0.3c-0.4-0.1-0.7-0.2-0.8-0.3
			c-0.1-0.1-0.2-0.3-0.2-0.6c0-0.3,0.1-0.8,0.4-1.4l0.6-1.4c0.2-0.5,0.4-0.7,0.4-0.7c0.1,0,0.3-0.1,0.8-0.1H98c0.4,0,0.6,0,0.6,0.1
			c0,0,0.1,0.2,0.3,0.6l0.5,1.2c0.4,1,0.6,1.6,0.6,2c0,0.3-0.1,0.5-0.4,0.6l-0.3,0.1c-0.2,0-0.3,0.2-0.3,0.2c0,0.1,0,0.2,0.3,0.2
			c0.1,0,0.2,0,0.3,0c0.2,0,0.8-0.1,1.6-0.1c0.8,0,1.4,0,1.7,0c0.2,0,0.3,0,0.4,0c0.2,0,0.3-0.1,0.3-0.2
			C103.4,72.2,103.3,72.1,103.1,72"/>
		<path d="M148.9,69.1c0,1-0.2,1.7-0.7,2.3c-0.4,0.6-1,0.8-1.8,0.8c-0.9,0-1.6-0.4-2.2-1.2c-0.6-0.8-0.9-1.8-0.9-2.8
			c0-0.9,0.2-1.7,0.7-2.2c0.5-0.6,1.1-0.8,1.8-0.8c0.9,0,1.6,0.4,2.1,1.1C148.7,67,148.9,68,148.9,69.1 M146.2,64.6
			c-1.2,0-2.2,0.4-2.9,1.2s-1.2,1.8-1.2,2.8c0,1.2,0.4,2.2,1.2,2.8c0.8,0.8,1.8,1.1,2.8,1.1c1.2,0,2.2-0.4,2.9-1.2
			c0.8-0.8,1.2-1.8,1.2-2.9c0-1.1-0.4-2.1-1.2-2.7C148.3,65,147.3,64.6,146.2,64.6"/>
		<path d="M112.5,72.1l-0.4-0.1c-0.4-0.1-0.7-0.3-0.7-0.7v-0.4v-0.3v-2.2c0-1.1-0.2-2-0.6-2.5c-0.6-0.8-1.4-1.2-2.4-1.2
			c-0.9,0-1.7,0.5-2.4,1.4v-0.9c0-0.1,0-0.3,0-0.4s0-0.2-0.1-0.3s-0.2-0.1-0.4,0c0,0-0.2,0.1-0.4,0.2l-0.5,0.2
			c-0.4,0.2-0.8,0.3-1.2,0.4c-0.2,0-0.3,0.1-0.3,0.2c0,0.1,0,0.1,0.1,0.2c0.1,0,0.1,0,0.2,0h0.4c0.3,0,0.5,0.1,0.6,0.2
			c0.1,0.1,0.2,0.4,0.2,0.9v4.1c0,0.3-0.1,0.6-0.2,0.8c-0.1,0.2-0.3,0.3-0.6,0.4c-0.1,0.1-0.2,0.1-0.2,0.2s0,0.1,0,0.1
			s0.1,0.1,0.2,0.1s0.2,0,0.4,0s0.8,0,1.8,0c0.5,0,0.8,0,0.9,0c0.2,0,0.4,0.1,0.5,0.1c0.2,0,0.3-0.1,0.3-0.2c0-0.1-0.1-0.2-0.4-0.2
			c-0.8,0-1.2-0.3-1.3-0.8v-0.7v-3.5c0-0.4,0.2-0.7,0.6-1c0.4-0.3,0.8-0.4,1.3-0.4c0.7,0,1.3,0.2,1.7,0.7c0.4,0.5,0.6,1.1,0.6,2v3.1
			c0,0.4-0.1,0.6-0.3,0.6l-0.3,0.1c-0.2,0-0.2,0.1-0.2,0.2c0,0.1,0,0.2,0.1,0.2h0.2h0.3h0.4h0.9c0.5,0,0.9,0,1.1,0
			c0.2,0,0.3,0,0.4,0c0.1,0,0.2,0,0.3-0.1c0,0,0.1-0.1,0.1-0.2C112.8,72.2,112.7,72.1,112.5,72.1"/>
		<path d="M118.3,71.5L118.3,71.5l-0.6,0.3c-0.3,0.1-0.6,0.2-0.9,0.2c-0.5,0-0.8-0.1-1.1-0.4c-0.2-0.2-0.2-0.6-0.2-1.2v-4.5h2.2
			c0.2,0,0.4-0.1,0.5-0.3l0.2-0.5c0.1-0.2,0.1-0.2,0.1-0.3c0-0.1,0-0.1,0-0.1h-0.1c-0.1,0-0.1,0-0.2,0.1c-0.1,0.1-0.3,0.1-0.6,0.1
			h-1.9v-1.6c0-0.2-0.1-0.3-0.2-0.3c-0.1,0-0.2,0.1-0.4,0.4c-0.4,0.6-0.9,1.2-1.7,1.8c-0.2,0.1-0.3,0.3-0.3,0.4s0.1,0.2,0.3,0.2h0.8
			v4.6c0,1.5,0.7,2.3,2.2,2.3c0.4,0,0.9-0.1,1.4-0.4c0.5-0.2,0.8-0.5,0.8-0.7C118.5,71.5,118.4,71.5,118.3,71.5"/>
	</g>
	<g>
		<rect x="61.1" y="79.1" class="st0" width="149.8" height="1"/>
	</g>
	<g id="_x3C_ESS_x3E__00000139269732791096573910000000048910269009624765_">
		<g>
			<g>
				<path class="st4" d="M63.7,92.1c0,0.6,0,0.6,0.7,0.6h1.9c1.9,0,1.4-1.4,1.8-1.4c0.1,0,0.2,0.2,0.2,0.3c0,0.6,0,1.2,0,1.8
					c0,0.5,0,0.9,0,1.4c0,0.2-0.1,0.2-0.2,0.2c-0.6,0,0.1-1.6-1.5-1.6h-2.6c-0.4,0-0.3,0.3-0.3,0.6v3.3c0,1.1-0.1,1.5,1.4,1.5
					c4.1,0,4.7-1.9,4.9-1.9c0.1,0,0.1,0.2,0.1,0.2c0,0.6-0.5,1.3-0.9,1.7c-0.6,0.6-1,0.6-1.8,0.6c-1.4,0-2.6-0.1-4-0.1
					c-0.7,0-1.5,0.1-2.2,0.1c-0.2,0-0.3,0-0.3-0.2c0-0.2,0.2-0.2,0.8-0.5c0.5-0.2,0.5-0.7,0.5-1.6v-8c0-0.8,0-1.7-1-1.8
					c-0.1,0-0.5-0.1-0.5-0.3c0-0.1,0.1-0.2,0.6-0.2c3.3,0,4.2,0.1,5,0.1c0.4,0,2-0.1,2.5-0.1c0.1,0,0.2,0.2,0.2,0.4
					c0,2-0.3,2.1-0.4,2.1c-0.4,0-0.1-0.9-0.4-1.3c-0.5-0.6-2.3-0.5-3-0.5c-1.7,0-1.7-0.1-1.7,1.1v3.5H63.7z"/>
				<path class="st4" d="M67.7,99.5L67.7,99.5h-0.2c-0.6,0-1.2,0-1.8,0c-0.8,0-1.6-0.1-2.3,0c-0.3,0-0.6,0-0.9,0c-0.4,0-0.9,0-1.3,0
					c-0.1,0-0.3,0-0.3-0.2s0.1-0.2,0.4-0.3c0.1,0,0.3-0.1,0.5-0.2c0.4-0.2,0.5-0.6,0.5-1.5v-8c0-0.8,0-1.6-0.9-1.8h-0.1
					c-0.2,0-0.5-0.1-0.5-0.3c0-0.2,0.2-0.3,0.7-0.3c2.3,0,3.4,0,4.1,0.1c0.4,0,0.6,0,0.9,0c0.2,0,0.6,0,1,0c0.6,0,1.2,0,1.5,0
					c0.2,0,0.2,0.3,0.2,0.4c0,2.2-0.3,2.2-0.4,2.2c-0.3,0-0.3-0.3-0.3-0.6c0-0.2,0-0.5-0.1-0.7c-0.4-0.5-1.9-0.5-2.6-0.5
					c-0.1,0-0.2,0-0.3,0h-0.3c-0.7,0-1.1,0-1.2,0.1C64,88,64,88.3,64,88.8v3.4c0,0.2,0,0.4,0.1,0.4c0.1,0.1,0.2,0.1,0.6,0.1h1.9
					c1.2,0,1.4-0.6,1.5-1c0.1-0.2,0.1-0.4,0.3-0.4c0.2,0,0.2,0.2,0.2,0.4c0,0.3,0,0.6,0,1c0,0.3,0,0.6,0,0.9c0,0.2,0,0.5,0,0.7
					c0,0.2,0,0.5,0,0.7c0,0.2-0.2,0.3-0.2,0.3c-0.3,0-0.3-0.3-0.4-0.5c-0.1-0.5-0.2-1-1.1-1h-2.6c-0.1,0-0.2,0-0.2,0.1
					c-0.1,0.1-0.1,0.2-0.1,0.4v0.1v2.8c0,0.1,0,0.2,0,0.3c0,0.5,0,0.8,0.2,0.9c0.2,0.2,0.5,0.2,1.1,0.2c3.2,0,4.3-1.2,4.7-1.7
					c0.1-0.1,0.2-0.2,0.2-0.2c0.1,0,0.2,0.2,0.2,0.3c0,0.5-0.3,1.1-0.9,1.8C68.7,99.5,68.4,99.5,67.7,99.5z M64.1,99.3
					c0.6,0,1.2,0,1.8,0c0.6,0,1.2,0,1.8,0h0.1h0.1c0.6,0,1,0,1.5-0.6c0.6-0.6,0.9-1.2,0.9-1.7c0,0,0-0.2-0.1-0.2
					c0,0-0.1,0.1-0.2,0.2c-0.4,0.5-1.5,1.7-4.7,1.7c-0.7,0-1-0.1-1.2-0.3c-0.2-0.2-0.2-0.5-0.2-1c0-0.1,0-0.2,0-0.3v-3.2v-0.1
					c0-0.2,0-0.3,0.1-0.4c0.1-0.1,0.2-0.1,0.3-0.1h2.6c1,0,1.1,0.6,1.2,1.1c0.1,0.3,0.1,0.5,0.3,0.5c0.1,0,0.1,0,0.1-0.2
					c0-0.2,0-0.5,0-0.7c0-0.2,0-0.5,0-0.7c0-0.3,0-0.6,0-0.9c0-0.3,0-0.6,0-0.9c0-0.1,0-0.3-0.1-0.3c-0.1,0-0.1,0.1-0.2,0.3
					c-0.1,0.4-0.3,1.1-1.6,1.1h-1.9c-0.4,0-0.6,0-0.7-0.1c-0.1-0.1-0.1-0.2-0.1-0.5v-3.4c0-0.5,0-0.8,0.2-0.9
					c0.2-0.2,0.5-0.2,1.3-0.2h0.3c0.1,0,0.2,0,0.3,0c0.9,0,2.4,0,2.7,0.5c0.1,0.2,0.2,0.5,0.2,0.7c0,0.3,0,0.5,0.2,0.5
					c0.1,0,0.3-0.2,0.3-2.1c0-0.3-0.1-0.3-0.1-0.3c-0.3,0-1,0-1.5,0s-0.9,0-1,0c-0.2,0-0.5,0-0.9,0c-0.8,0-1.9-0.1-4.1-0.1
					c-0.5,0-0.6,0.1-0.6,0.2s0.3,0.2,0.4,0.2h0.1c1,0.1,1,1.1,1,1.9v8.2c0,0.9,0,1.4-0.5,1.6c-0.2,0.1-0.4,0.2-0.5,0.2
					c-0.2,0.1-0.3,0.1-0.3,0.2c0,0.1,0,0.1,0.2,0.1c0.4,0,0.9,0,1.3,0c0.3,0,0.6,0,0.9,0C63.7,99.3,63.9,99.3,64.1,99.3z"/>
			</g>
			<g>
				<path class="st4" d="M76.4,88.2c0-1.1-1.4-0.6-1.4-1c0-0.1,0.1-0.2,0.2-0.2c1.4-0.3,1.9-0.9,2.4-0.9c0.1,0,0.2,0.1,0.2,0.3v12.1
					c0,0.2,0.4,0.4,1,0.5c0.1,0,0.2,0,0.2,0.2c0,0.1-0.5,0.3-1.1,0.3c-0.5,0-1,0.1-1.1,0.1s-0.2-0.1-0.2-0.3v-1l0,0
					C76,99.1,75,99.6,74,99.6c-2,0-3.1-1.8-3.1-3.6c0-2.1,1.5-4.1,3.7-4.1c0.8,0,1.5,0.2,2.1,0.6v-4.2H76.4z M76.4,94.2
					c0-1.3-1.1-2.1-2.4-2.1c-1.7,0-2.4,1.6-2.4,3s1.1,3.6,2.7,3.6c1.5,0,2-0.9,2-1.6V94.2z"/>
				<path class="st4" d="M76.6,99.6c-0.2,0-0.2-0.2-0.2-0.3v-0.9c-0.6,0.8-1.6,1.2-2.5,1.2c-0.9,0-1.8-0.4-2.4-1.2
					c-0.5-0.7-0.9-1.6-0.9-2.5c0-2.1,1.5-4.2,3.7-4.2c0.7,0,1.5,0.2,2.1,0.6v-4c0-0.6-0.5-0.7-0.9-0.7c-0.3,0-0.5-0.1-0.5-0.2
					s0.1-0.2,0.2-0.2c0.8-0.2,1.3-0.5,1.7-0.6c0.3-0.1,0.5-0.3,0.7-0.3c0.1,0,0.3,0.1,0.3,0.3v12.1c0,0.1,0.2,0.3,0.9,0.4l0,0
					c0.1,0,0.2,0,0.2,0.2c0,0.2-0.6,0.3-1.2,0.3c-0.3,0-0.6,0.1-0.8,0.1C76.8,99.6,76.7,99.6,76.6,99.6z M76.4,98.2L76.4,98.2l0.1,1
					c0,0,0,0.2,0.1,0.2c0.1,0,0.2,0,0.3,0c0.2,0,0.5-0.1,0.8-0.1c0.8,0,1.1-0.2,1.1-0.2c0-0.1,0-0.1-0.1-0.1l0,0
					c-0.7-0.1-1-0.3-1-0.5V86.5c0-0.1-0.1-0.2-0.2-0.2c-0.2,0-0.4,0.1-0.6,0.2c-0.4,0.2-0.9,0.5-1.7,0.7c-0.1,0-0.1,0.1-0.1,0.1
					c0,0.1,0.2,0.1,0.4,0.1c0.4,0,1,0.1,1,0.8v4.2l-0.1-0.1c-0.6-0.4-1.3-0.6-2.1-0.6c-1.8,0-3.6,1.6-3.6,4.1c0,2.3,1.6,3.5,3,3.5
					C74.7,99.5,75.7,99,76.4,98.2L76.4,98.2z M74.4,98.8c-1.7,0-2.7-2.2-2.7-3.6s0.8-3,2.4-3c1.4,0,2.4,0.9,2.4,2.1v3
					C76.5,97.8,76,98.8,74.4,98.8z M74,92.3c-1.6,0-2.4,1.6-2.4,2.9c0,1.5,1.1,3.5,2.6,3.5s2-1,2-1.5v-3C76.4,93,75.4,92.3,74,92.3z
					"/>
			</g>
			<g>
				<path class="st4" d="M84.7,93c0-0.7-1-0.3-1-0.7c0-0.1,0.2-0.2,0.3-0.2c0.5,0,0.8-0.1,1-0.1c0.2,0,0.4-0.1,0.6-0.1
					c0.1,0,0.3,0.1,0.3,0.4v6.1c0,0.5,1.1,0.2,1.1,0.6c0,0.1-0.4,0.2-0.7,0.2c-0.5,0-0.8,0.1-1,0.1c-0.2,0.1-0.3,0.1-0.6,0.1
					c-0.1,0-0.2-0.2-0.2-0.3v-1l0,0c-0.6,0.8-1.4,1.3-2.4,1.3c-1.4,0-2.5-0.9-2.5-2.4v-4.1c0-0.7-1-0.3-1-0.7c0-0.1,0.2-0.2,0.3-0.2
					c0.5,0,0.8-0.1,1-0.1c0.2,0,0.4-0.1,0.6-0.1c0.1,0,0.3,0.1,0.3,0.4v4.5c0,1.9,1.5,2,1.7,2c1,0,1.9-0.8,2-1.3V93H84.7z"/>
				<path class="st4" d="M84.9,99.6c-0.2,0-0.2-0.2-0.2-0.3v-0.9c-0.5,0.8-1.4,1.2-2.4,1.2c-1.6,0-2.6-1-2.6-2.4V93
					c0-0.3-0.2-0.4-0.5-0.4c-0.2,0-0.4-0.1-0.4-0.3c0-0.1,0.1-0.2,0.4-0.2c0.5,0,0.8-0.1,1-0.1c0.1,0,0.1,0,0.1,0
					c0.1,0,0.3-0.1,0.5-0.1c0.1,0,0.4,0.1,0.4,0.5V97c0,0.6,0.2,1.1,0.5,1.5c0.5,0.5,1.2,0.5,1.2,0.5c1,0,1.9-0.7,1.9-1.2v-4.6
					c0-0.3-0.2-0.4-0.5-0.4c-0.2,0-0.4-0.1-0.4-0.3c0-0.1,0.1-0.2,0.4-0.2c0.5,0,0.8-0.1,1-0.1c0.1,0,0.1,0,0.1,0
					c0.1,0,0.3-0.1,0.5-0.1c0.1,0,0.4,0.1,0.4,0.5v6.1c0,0.2,0.2,0.2,0.6,0.3c0.3,0,0.6,0.1,0.6,0.3s-0.3,0.2-0.7,0.2
					c-0.4,0-0.7,0-0.9,0.1h-0.1h-0.1C85.2,99.6,85.1,99.6,84.9,99.6z M84.6,98.2h0.2v1c0,0,0,0.2,0.1,0.2c0.2,0,0.4,0,0.5-0.1h0.1
					h0.1c0.2,0,0.5-0.1,0.9-0.1c0.6,0,0.6-0.1,0.6-0.1c0-0.1-0.2-0.2-0.5-0.2c-0.3-0.1-0.6-0.1-0.6-0.4v-6.1c0-0.3-0.2-0.4-0.3-0.4
					c-0.2,0-0.4,0-0.5,0.1h-0.1c-0.2,0.1-0.4,0.1-1,0.1c-0.1,0-0.3,0-0.3,0.1s0.1,0.2,0.4,0.2s0.6,0.1,0.6,0.5v4.6
					c0,0.6-1,1.3-2,1.3c-0.1,0-0.8,0-1.3-0.5c-0.4-0.4-0.5-0.9-0.5-1.6v-4.5c0-0.3-0.2-0.4-0.3-0.4c-0.2,0-0.4,0-0.5,0.1h-0.1
					c-0.2,0.1-0.4,0.1-1,0.1c-0.1,0-0.3,0-0.3,0.1s0.1,0.2,0.4,0.2s0.6,0.1,0.6,0.5v4.1c0,1.4,1.1,2.4,2.5,2.4
					C83.3,99.5,84.1,99.1,84.6,98.2L84.6,98.2z"/>
			</g>
			<g>
				<path class="st4" d="M87.3,95.8c0-2.3,1.8-4,4-4c0.9,0,2.1,0.3,2.2,0.7c0,0.4,0,0.8,0,1.1c0,0.3-0.1,0.4-0.1,0.4
					c-0.2,0-0.4-0.3-0.4-0.4c-0.8-0.9-1.5-1.2-2.4-1.2c-1.5,0-2.1,1.6-2.1,2.8c0,1.9,1.2,3.4,3.1,3.4c1.4,0,2.2-1,2.4-1
					c0.1,0,0.1,0.1,0.1,0.1c0,0.3-1.1,1.8-3.4,1.8C88.8,99.6,87.3,97.7,87.3,95.8z"/>
				<path class="st4" d="M90.9,99.6c-2,0-3.5-1.7-3.5-3.8c0-2.3,1.8-4.1,4-4.1c0.9,0,2.2,0.2,2.2,0.7c0,0.3,0,0.6,0,0.9
					c0,0.1,0,0.1,0,0.2c0,0.4-0.1,0.4-0.2,0.4c-0.2,0-0.3-0.3-0.4-0.4l0,0c-0.5-0.7-1.3-1.1-2.2-1.1c-1.4,0-2.1,1.5-2.1,2.7
					c0,1.7,1,3.4,3,3.4c1,0,1.6-0.5,2-0.8c0.2-0.1,0.3-0.2,0.4-0.2s0.2,0.1,0.2,0.2C94.4,98,93.3,99.6,90.9,99.6z M91.3,91.9
					c-2.2,0-3.9,1.8-3.9,4c0,2.1,1.6,3.7,3.4,3.7c2.4,0,3.4-1.5,3.4-1.8l-0.1-0.1c-0.1,0-0.2,0.1-0.4,0.2c-0.4,0.3-1.1,0.8-2.1,0.8
					c-1.9,0-3.1-1.4-3.1-3.5c0-1.4,0.7-2.8,2.2-2.8c1,0,1.7,0.4,2.3,1.1c0,0,0,0,0,0.1c0.1,0.1,0.2,0.3,0.4,0.3c0,0,0.1-0.1,0.1-0.3
					c0-0.1,0-0.1,0-0.2c0-0.2,0-0.6,0-0.9C93.3,92.2,92.2,91.9,91.3,91.9z"/>
			</g>
			<g>
				<path class="st4" d="M99.5,93.8c0-0.9-0.7-1.6-1.9-1.6c-0.9,0-1.6,0.1-1.6,1.1c0,0.3,0.1,0.5,0.1,0.7c0,0.2-0.1,0.3-0.4,0.3
					S95,94,95,93.7c0-0.8,1-2.1,2.9-2c1.1,0,2.7,0.3,2.7,1.9v3.6c0,0.6-0.2,1.7,0.8,1.7c0.1,0,0.2,0,0.3,0s0.2,0,0.2,0.1
					c0,0.4-0.8,0.5-1,0.5c-0.7,0-1.2-0.3-1.4-0.9c-0.8,0.6-1.7,1-2.7,1c-1.2,0-1.9-0.4-1.9-1.7c0-1,0.3-2.1,4.4-2.7L99.5,93.8
					L99.5,93.8z M99.5,95.6c-1.2,0.3-3.2,0.5-3.2,2.1c0,1,0.5,1.4,1.5,1.4c0.6,0,1.9-0.5,1.9-1.5L99.5,95.6L99.5,95.6z"/>
				<path class="st4" d="M97,99.6c-1.3,0-2-0.6-2-1.8c0-1,0.4-2.1,4.4-2.7v-1.3c0-0.9-0.7-1.5-1.8-1.5c-0.8,0-1.5,0.1-1.5,1
					c0,0.1,0,0.3,0.1,0.4c0,0.1,0,0.2,0,0.3c0,0.2-0.1,0.4-0.4,0.4c-0.3,0-0.9-0.3-0.9-0.6c0-0.4,0.2-0.9,0.6-1.3
					c0.6-0.5,1.4-0.8,2.3-0.8H98c0.7,0,2.8,0.1,2.8,1.9v3.6c0,0.1,0,0.2,0,0.2c0,0.4,0,0.9,0.2,1.2c0.1,0.1,0.3,0.2,0.5,0.2h0.1
					c0.1,0,0.1,0,0.2,0s0.3,0,0.3,0.2c0,0.5-1.1,0.5-1.1,0.5c-0.7,0-1.2-0.3-1.4-0.9C98.9,99.2,97.9,99.6,97,99.6z M97.7,92.3
					c1.1,0,1.9,0.6,1.9,1.6v1.4l0,0c-4,0.7-4.4,1.8-4.4,2.6c0,1.1,0.6,1.7,1.9,1.7c1,0,2-0.4,2.6-1h0.1v0.1c0.2,0.6,0.7,0.9,1.4,0.9
					c0.3,0,1-0.1,1-0.4c0-0.1,0-0.1-0.2-0.1h-0.1c-0.1,0-0.1,0-0.2,0c-0.2,0-0.4-0.1-0.6-0.2c-0.3-0.3-0.3-0.8-0.3-1.3
					c0-0.1,0-0.2,0-0.2v-3.6c0-1.7-2.1-1.8-2.7-1.8h-0.1c-0.9,0-1.7,0.3-2.2,0.8c-0.4,0.4-0.6,0.8-0.6,1.2c0,0.3,0.5,0.5,0.8,0.5
					c0.3,0,0.3-0.1,0.3-0.3c0-0.1,0-0.2,0-0.3c0-0.1-0.1-0.3-0.1-0.4C96.2,92.3,96.8,92.3,97.7,92.3z M97.7,99.1
					c-1,0-1.5-0.5-1.5-1.5c0-1.5,1.8-1.9,2.9-2.1c0.1,0,0.2,0,0.3-0.1h0.1v2.2C99.6,98.6,98.3,99.1,97.7,99.1z M99.5,95.7
					c-0.1,0-0.2,0-0.3,0.1c-1.2,0.2-2.9,0.6-2.9,2c0,0.9,0.4,1.4,1.4,1.4c0.6,0,1.8-0.5,1.8-1.4L99.5,95.7L99.5,95.7z"/>
			</g>
			<g>
				<path class="st4" d="M103.1,92.7c-0.8,0-1,0-1-0.1s0.5-0.5,1.4-1.5c0.4-0.4,0.5-0.8,0.7-0.8c0.3,0,0.2,0.4,0.2,1.7h2
					c0.5,0,0.6-0.3,0.7-0.3c0.1,0,0.1,0.1,0.1,0.1c0,0.1-0.1,0.2-0.1,0.3l-0.4,0.6h-2.3v5.1c0,0.7,0.5,1.1,1.3,1.1
					c1,0,1.2-0.4,1.5-0.4c0.1,0,0.1,0,0.1,0.2c0,0.3-1,0.9-2.2,0.9c-0.8,0-2-0.2-2-2.1C103.1,97.5,103.1,92.7,103.1,92.7z"/>
				<path class="st4" d="M105.1,99.6c-1.4,0-2.1-0.7-2.1-2.1v-4.7c-0.9,0-1,0-1-0.2c0-0.1,0.1-0.2,0.4-0.5c0.2-0.2,0.6-0.5,1-1
					c0.1-0.2,0.3-0.3,0.3-0.5c0.2-0.2,0.3-0.4,0.4-0.4c0.2,0,0.2,0.2,0.3,0.3c0,0.2,0,0.6,0,1.1v0.2h1.9c0.3,0,0.5-0.2,0.6-0.2
					l0.1-0.1c0.1,0,0.2,0.1,0.2,0.2c0,0.1-0.1,0.2-0.1,0.3l-0.4,0.7h-2.3v5.1c0,0.7,0.5,1,1.2,1c0.6,0,0.9-0.2,1.2-0.3
					c0.1-0.1,0.3-0.1,0.4-0.1s0.2,0.1,0.2,0.2C107.3,99,106.3,99.6,105.1,99.6z M104.1,90.4c-0.1,0-0.2,0.2-0.3,0.3
					c-0.1,0.1-0.2,0.3-0.4,0.5c-0.4,0.5-0.8,0.8-1,1c-0.2,0.2-0.4,0.3-0.4,0.4c0,0.1,0.2,0.1,0.9,0.1h0.1v4.8c0,1.4,0.6,2,2,2
					c1.3,0,2.2-0.6,2.2-0.8c0-0.1,0-0.1-0.1-0.1c-0.1,0-0.2,0.1-0.3,0.1c-0.2,0.1-0.6,0.3-1.2,0.3c-0.8,0-1.3-0.4-1.3-1.1v-5.2h2.4
					l0.3-0.6c0.1-0.1,0.1-0.2,0.1-0.2s0-0.1-0.1-0.1l0,0c-0.1,0.1-0.3,0.3-0.7,0.3h-2v-0.3c0-0.5,0-0.9,0-1.1
					C104.3,90.5,104.2,90.4,104.1,90.4z"/>
			</g>
			<g>
				<path class="st4" d="M108.9,93.7c0-1.1-1-0.6-1-1c0-0.1,0.1-0.2,0.2-0.2c1.2-0.3,1.5-0.9,1.9-0.9c0.1,0,0.2,0.1,0.2,0.3v6.3
					c0,0.9,1.4,0.5,1.4,1c0,0.1-0.1,0.2-0.3,0.2c-0.4,0-0.9-0.1-1.7-0.1c-0.6,0-1,0.1-1.2,0.1c-0.1,0-0.3,0-0.3-0.2
					c0-0.5,0.8,0.2,0.8-1.4V93.7z M110.3,89.1c0,0.2-0.5,0.9-0.8,0.9c-0.2,0-0.8-0.7-0.8-0.9s0.5-1,0.8-1
					C109.8,88.1,110.3,88.9,110.3,89.1z"/>
				<path class="st4" d="M111.2,99.5c-0.2,0-0.3,0-0.6,0c-0.3,0-0.7,0-1.1,0s-0.7,0-0.9,0c-0.1,0-0.3,0-0.3,0c-0.1,0-0.3,0-0.3-0.2
					s0.1-0.2,0.3-0.3c0.2,0,0.5-0.1,0.5-1.2v-4.1c0-0.6-0.4-0.7-0.6-0.7c-0.2,0-0.4-0.1-0.4-0.2s0.1-0.2,0.2-0.2
					c0.6-0.2,1-0.4,1.3-0.6c0.2-0.2,0.4-0.3,0.6-0.3c0.1,0,0.3,0.1,0.3,0.3v6.2c0,0.5,0.4,0.6,0.8,0.6c0.3,0.1,0.6,0.1,0.6,0.3
					C111.6,99.5,111.4,99.5,111.2,99.5z M109.6,99.3c0.4,0,0.8,0,1.1,0c0.2,0,0.4,0,0.6,0c0.3,0,0.3-0.1,0.3-0.1
					c0-0.1-0.2-0.2-0.5-0.2c-0.4-0.1-0.9-0.2-0.9-0.7V92c0-0.1-0.1-0.2-0.2-0.2c-0.2,0-0.3,0.1-0.6,0.3c-0.3,0.2-0.7,0.5-1.3,0.6
					c-0.1,0-0.1,0.1-0.1,0.1c0,0.1,0.1,0.1,0.3,0.1c0.3,0,0.7,0.1,0.7,0.8v4.1c0,1.1-0.4,1.2-0.6,1.3c-0.1,0-0.2,0-0.2,0.2
					c0,0.1,0.1,0.1,0.2,0.1s0.2,0,0.3,0C108.9,99.3,109.2,99.3,109.6,99.3z M109.5,90.1c-0.3,0-0.8-0.8-0.8-1c0-0.2,0.6-1,0.8-1
					c0.3,0,0.8,0.8,0.8,1S109.8,90.1,109.5,90.1z M109.5,88.2c-0.2,0-0.7,0.7-0.7,0.9c0,0.2,0.5,0.9,0.7,0.9c0.2,0,0.7-0.7,0.7-0.9
					C110.2,88.9,109.7,88.2,109.5,88.2z"/>
			</g>
			<g>
				<path class="st4" d="M111.7,95.8c0-2.2,1.7-4,3.9-4c1.4,0,3.8,0.7,3.8,3.9c0,2.2-1.7,3.8-3.8,3.8
					C113.4,99.6,111.7,98.2,111.7,95.8z M118.3,96c0-1.9-0.8-3.8-2.8-3.8c-1.8,0-2.4,1.5-2.4,3c0,1.8,0.8,4,2.8,4
					C117.3,99.2,118.3,98.2,118.3,96z"/>
				<path class="st4" d="M115.7,99.6c-2.4,0-4-1.5-4-3.8c0-2.3,1.8-4.1,4-4.1c0.7,0,3.9,0.2,3.9,4C119.6,97.9,117.9,99.6,115.7,99.6
					z M115.6,91.9c-2.2,0-3.9,1.8-3.9,4c0,2.3,1.6,3.7,3.9,3.7c2.2,0,3.7-1.7,3.7-3.8C119.5,92.1,116.3,91.9,115.6,91.9z
					 M115.8,99.2c-2.1,0-2.9-2.1-2.9-4c0-1.4,0.7-3,2.4-3c1,0,1.8,0.4,2.3,1.3c0.4,0.7,0.7,1.6,0.7,2.6
					C118.3,98.1,117.4,99.2,115.8,99.2z M115.5,92.3c-1.8,0-2.4,1.6-2.4,2.9c0,1,0.2,1.9,0.7,2.6c0.4,0.6,1,1.3,2.2,1.3
					c1.6,0,2.4-1.1,2.4-3.1C118.2,93.2,116.8,92.3,115.5,92.3z"/>
			</g>
			<g>
				<path class="st4" d="M122.4,98c0,1.2,1.6,0.7,1.6,1.2c0,0.2-0.1,0.3-0.4,0.3s-0.7-0.1-1.7-0.1c-1,0-1.3,0.1-1.5,0.1
					c-0.2,0-0.3,0-0.3-0.2c0-0.4,1.1,0,1.1-1.2v-4.4c0-1.1-1.3-0.6-1.3-1c0-0.1,0.1-0.2,0.2-0.2c1.5-0.3,1.9-0.9,2.3-0.9
					c0.1,0,0.2,0.1,0.2,0.3v1.2c0,0.2,0.9-1.3,2.5-1.3c2.4,0,2.8,2,2.8,3.3v2.9c0,1.2,1.4,0.7,1.4,1.2c0,0.2-0.1,0.3-0.3,0.3
					s-0.7-0.1-1.6-0.1c-0.7,0-1.1,0.1-1.3,0.1c-0.2,0-0.3,0-0.3-0.2c0-0.4,0.8,0,0.8-1.2v-3.3c0-0.9-0.6-2.2-2.1-2.2
					c-1.5,0-2.1,1.1-2.1,1.4V98H122.4z"/>
				<path class="st4" d="M128.9,99.5c-0.1,0-0.2,0-0.3,0c-0.3,0-0.7-0.1-1.2-0.1c-0.4,0-0.7,0-1,0c-0.1,0-0.2,0-0.3,0
					c-0.2,0-0.4,0-0.4-0.3c0-0.2,0.1-0.2,0.3-0.3c0.2-0.1,0.5-0.2,0.5-0.9v-3.3c0-0.9-0.7-2.2-2.1-2.2c-0.9,0-1.5,0.4-1.7,0.7
					c-0.3,0.3-0.4,0.6-0.4,0.7v4c0,0.7,0.6,0.8,1,0.9c0.3,0,0.6,0.1,0.6,0.3c0,0.3-0.2,0.3-0.4,0.3c-0.1,0-0.2,0-0.4,0
					c-0.3,0-0.7-0.1-1.3-0.1c-0.6,0-1,0-1.3,0.1c-0.1,0-0.2,0-0.3,0c-0.2,0-0.4,0-0.4-0.3c0-0.2,0.2-0.2,0.3-0.3
					c0.3-0.1,0.7-0.2,0.7-0.9v-4.4c0-0.6-0.5-0.7-0.9-0.7c-0.2,0-0.5-0.1-0.5-0.2c0-0.1,0.1-0.2,0.2-0.2c0.9-0.2,1.4-0.5,1.7-0.7
					c0.2-0.1,0.4-0.2,0.6-0.2c0.1,0,0.3,0.1,0.3,0.3v1.1l0,0c0.3-0.3,1.2-1.3,2.4-1.3c1.1,0,1.9,0.4,2.4,1.2
					c0.5,0.8,0.6,1.7,0.6,2.2v2.9c0,0.7,0.5,0.8,0.9,0.9c0.3,0,0.5,0.1,0.5,0.3C129.3,99.4,129.1,99.5,128.9,99.5z M127.4,99.3
					c0.6,0,1,0,1.2,0.1c0.1,0,0.2,0,0.3,0c0.2,0,0.3,0,0.3-0.2c0-0.1-0.2-0.2-0.4-0.2c-0.4-0.1-1-0.2-1-1v-2.9c0-1-0.3-3.2-2.8-3.2
					c-1.3,0-2.1,0.9-2.4,1.2c-0.1,0.1-0.1,0.2-0.2,0.1c0,0,0,0,0-0.1v-1.2c0-0.1-0.1-0.2-0.2-0.2c-0.2,0-0.3,0.1-0.5,0.2
					c-0.3,0.2-0.8,0.5-1.7,0.7c-0.1,0-0.1,0.1-0.1,0.1c0,0.1,0.1,0.1,0.4,0.1c0.4,0,1,0.1,1,0.8v4.4c0,0.8-0.5,0.9-0.8,1
					c-0.2,0-0.3,0.1-0.3,0.2c0,0.1,0,0.2,0.3,0.2c0.1,0,0.2,0,0.3,0c0.2,0,0.6-0.1,1.3-0.1c0.7,0,1.1,0,1.3,0.1c0.1,0,0.3,0,0.4,0
					c0.3,0,0.3,0,0.3-0.2c0-0.1-0.2-0.2-0.5-0.2c-0.5-0.1-1.1-0.2-1.1-1v-4c0-0.1,0.1-0.4,0.4-0.7c0.3-0.3,0.8-0.7,1.8-0.7
					c1.5,0,2.2,1.4,2.2,2.3v3.3c0,0.8-0.4,0.9-0.6,1c-0.1,0-0.2,0.1-0.2,0.2s0,0.2,0.3,0.2c0.1,0,0.2,0,0.3,0
					C126.6,99.3,126.9,99.3,127.4,99.3z"/>
			</g>
			<g>
				<path class="st4" d="M134.3,93.8c0-0.9-0.7-1.6-1.9-1.6c-0.9,0-1.6,0.1-1.6,1.1c0,0.3,0.1,0.5,0.1,0.7c0,0.2-0.1,0.3-0.4,0.3
					c-0.3,0-0.8-0.3-0.8-0.6c0-0.8,1-2.1,2.9-2c1.1,0,2.7,0.3,2.7,1.9v3.6c0,0.6-0.2,1.7,0.8,1.7c0.1,0,0.2,0,0.3,0
					c0.1,0,0.2,0,0.2,0.1c0,0.4-0.8,0.5-1,0.5c-0.7,0-1.2-0.3-1.4-0.9c-0.8,0.6-1.7,1-2.7,1c-1.2,0-1.9-0.4-1.9-1.7
					c0-1,0.3-2.1,4.4-2.7L134.3,93.8L134.3,93.8z M134.3,95.6c-1.2,0.3-3.2,0.5-3.2,2.1c0,1,0.5,1.4,1.5,1.4c0.6,0,1.9-0.5,1.9-1.5
					L134.3,95.6L134.3,95.6z"/>
				<path class="st4" d="M131.7,99.6c-1.3,0-2-0.6-2-1.8c0-1,0.4-2.1,4.4-2.7v-1.3c0-0.9-0.7-1.5-1.8-1.5c-0.8,0-1.5,0.1-1.5,1
					c0,0.1,0,0.3,0.1,0.4c0,0.1,0,0.2,0,0.3c0,0.2-0.1,0.4-0.4,0.4c-0.3,0-0.9-0.3-0.9-0.6c0-0.4,0.2-0.9,0.6-1.3
					c0.6-0.6,1.5-0.9,2.4-0.8c0.7,0,2.8,0.1,2.8,1.9v3.6c0,0.1,0,0.2,0,0.2c0,0.4,0,0.9,0.2,1.2c0.1,0.1,0.3,0.2,0.5,0.2h0.1
					c0.1,0,0.1,0,0.2,0s0.3,0,0.3,0.2c0,0.5-1.1,0.5-1.1,0.5c-0.7,0-1.2-0.3-1.4-0.9C133.7,99.2,132.7,99.6,131.7,99.6z M132.4,92.3
					c1.1,0,1.9,0.6,1.9,1.6v1.4l0,0c-4,0.7-4.4,1.8-4.4,2.6c0,1.1,0.6,1.7,1.9,1.7c1,0,2-0.4,2.6-1h0.1v0.1c0.2,0.6,0.7,0.9,1.4,0.9
					c0.3,0,1-0.1,1-0.4c0-0.1,0-0.1-0.2-0.1h-0.1c-0.1,0-0.1,0-0.2,0c-0.2,0-0.4-0.1-0.6-0.2c-0.3-0.3-0.3-0.8-0.3-1.3
					c0-0.1,0-0.2,0-0.2v-3.6c0-1.7-2.1-1.8-2.7-1.8c-1,0-1.8,0.3-2.4,0.8c-0.4,0.4-0.6,0.8-0.6,1.2c0,0.3,0.5,0.5,0.8,0.5
					s0.3-0.1,0.3-0.3c0-0.1,0-0.2,0-0.3c0-0.1-0.1-0.3-0.1-0.4C130.8,92.3,131.6,92.3,132.4,92.3z M132.4,99.1c-1,0-1.5-0.5-1.5-1.5
					c0-1.5,1.8-1.9,2.9-2.1c0.1,0,0.2,0,0.3-0.1h0.1v2.2C134.3,98.6,133.1,99.1,132.4,99.1z M134.2,95.7c-0.1,0-0.2,0-0.3,0.1
					c-1.2,0.2-2.9,0.6-2.9,2c0,0.9,0.4,1.4,1.4,1.4c0.6,0,1.8-0.5,1.8-1.4L134.2,95.7L134.2,95.7z"/>
			</g>
			<g>
				<path class="st4" d="M139.8,98c0,1.2,1.5,0.7,1.5,1.2c0,0.2-0.1,0.3-0.4,0.3c-0.3,0-0.8-0.1-1.7-0.1c-0.9,0-1.2,0.1-1.4,0.1
					c-0.1,0-0.2-0.1-0.2-0.2c0-0.3,0.9-0.2,0.9-1V88.2c0-1.1-1.2-0.6-1.2-1c0-0.1,0.1-0.2,0.2-0.2c1.4-0.3,1.7-0.9,2.2-0.9
					c0.1,0,0.2,0.1,0.2,0.3L139.8,98L139.8,98z"/>
				<path class="st4" d="M140.8,99.5c-0.1,0-0.2,0-0.4,0c-0.3,0-0.7-0.1-1.3-0.1s-1,0-1.2,0.1c-0.1,0-0.2,0-0.2,0
					c-0.1,0-0.3,0-0.3-0.3c0-0.1,0.1-0.2,0.3-0.3c0.3-0.1,0.6-0.3,0.6-0.7v-10c0-0.6-0.4-0.7-0.8-0.7c-0.2,0-0.4-0.1-0.4-0.2
					s0.1-0.2,0.2-0.2c0.8-0.2,1.3-0.5,1.6-0.7c0.2-0.1,0.4-0.2,0.6-0.2c0.1,0,0.3,0.1,0.3,0.3V98c0,0.7,0.5,0.8,1,0.9
					c0.3,0,0.5,0.1,0.5,0.3C141.3,99.5,141,99.5,140.8,99.5z M139.2,99.3c0.5,0,1,0,1.3,0.1c0.2,0,0.3,0,0.4,0c0.3,0,0.4,0,0.4-0.2
					c0-0.1-0.2-0.2-0.5-0.2c-0.4-0.1-1-0.2-1-1V86.5c0-0.1-0.1-0.2-0.2-0.2c-0.2,0-0.3,0.1-0.5,0.2c-0.3,0.2-0.8,0.5-1.6,0.7
					c-0.1,0-0.1,0.1-0.1,0.1c0,0.1,0.1,0.1,0.3,0.1c0.4,0,0.9,0.1,0.9,0.8v10.1c0,0.5-0.4,0.7-0.6,0.8c-0.1,0.1-0.2,0.1-0.2,0.2
					c0,0.2,0.1,0.2,0.2,0.2s0.1,0,0.2,0C138.3,99.3,138.6,99.3,139.2,99.3z"/>
			</g>
			<g>
				<path class="st4" d="M146.1,96.3c-0.1-0.4,0-0.6,0.2-0.6c0.3,0,0.3,0.2,0.3,0.6c0.2,0.8,1.3,2.6,3.7,2.6c1.7,0,3.3-1,3.3-2.7
					c0-3.4-7.2-1.5-7.2-6.1c0-2.3,1.9-3.3,3.9-3.3c2.2,0,2.7,0.6,2.9,0.6c0.2,0,0.2-0.2,0.4-0.2c0.1,0,0.2,0.1,0.2,0.3l0.3,2.4
					c0,0.1,0,0.3-0.2,0.3s-0.3-0.4-0.4-0.5c-0.5-1.5-1.9-2.3-3.3-2.3c-1.4,0-2.8,0.7-2.8,2.3c0,3.3,7.2,1.4,7.2,6.3
					c0,1.5-1.1,3.7-5,3.7c-1.3,0-2.9-0.7-2.9-1L146.1,96.3z"/>
				<path class="st4" d="M149.5,99.6c-1.3,0-2.9-0.7-3-1l-0.5-2.3c0-0.2,0-0.4,0.1-0.5c0-0.1,0.1-0.1,0.2-0.1c0.3,0,0.3,0.2,0.4,0.5
					c0,0.1,0,0.1,0,0.2c0.2,0.7,1.2,2.6,3.6,2.6c1.6,0,3.2-0.9,3.2-2.7c0-1.6-1.6-2-3.1-2.4c-1.9-0.6-4-1.2-4-3.6
					c0-2.4,2-3.3,3.9-3.3c1.6,0,2.4,0.4,2.7,0.5c0.1,0.1,0.2,0.1,0.3,0.1c0.1,0,0.1,0,0.1-0.1c0.1-0.1,0.1-0.1,0.2-0.1
					c0.2,0,0.2,0.1,0.3,0.3l0.3,2.4c0,0.1,0,0.2-0.1,0.3c0,0-0.1,0.1-0.2,0.1c-0.2,0-0.4-0.4-0.4-0.6c-0.5-1.5-1.7-2.3-3.3-2.3
					c-1.4,0-2.8,0.7-2.8,2.3c0,1.5,1.4,1.9,3,2.4c2,0.6,4.1,1.2,4.1,3.9C154.6,97.5,153.3,99.6,149.5,99.6z M146.3,95.8
					C146.3,95.8,146.2,95.8,146.3,95.8c-0.2,0.2-0.2,0.3-0.1,0.5l0.5,2.3c0.1,0.3,1.7,0.9,2.9,0.9c1.8,0,3.1-0.4,4-1.3
					c0.7-0.6,1-1.5,1-2.4c0-2.6-2.2-3.2-4-3.8c-1.6-0.5-3.1-0.9-3.1-2.4c0-1.7,1.5-2.4,2.9-2.4c1.7,0,2.9,0.9,3.4,2.4
					c0,0.1,0.2,0.5,0.3,0.5c0.1,0,0.1,0,0.1,0s0-0.1,0-0.2l-0.3-2.4c0-0.2-0.1-0.2-0.2-0.2c-0.1,0-0.1,0-0.2,0.1
					c-0.1,0.1-0.1,0.1-0.2,0.1s-0.2,0-0.3-0.1c-0.4-0.2-1.1-0.5-2.6-0.5c-2.6,0-3.8,1.7-3.8,3.2c0,2.4,2,3,3.9,3.5
					c1.7,0.5,3.2,0.9,3.2,2.5c0,0.9-0.4,1.6-1.1,2.2c-0.6,0.5-1.5,0.7-2.4,0.7c-1.1,0-2-0.4-2.7-1.1c-0.6-0.6-0.9-1.2-1.1-1.7
					c0-0.1,0-0.1,0-0.2C146.5,95.9,146.5,95.8,146.3,95.8z"/>
			</g>
			<g>
				<path class="st4" d="M161,93c0-0.7-1-0.3-1-0.7c0-0.1,0.2-0.2,0.3-0.2c0.5,0,0.8-0.1,1-0.1s0.4-0.1,0.6-0.1
					c0.1,0,0.3,0.1,0.3,0.4v6.1c0,0.5,1.1,0.2,1.1,0.6c0,0.1-0.4,0.2-0.7,0.2c-0.5,0-0.8,0.1-1,0.1c-0.2,0.1-0.3,0.1-0.6,0.1
					c-0.1,0-0.2-0.2-0.2-0.3v-1l0,0c-0.6,0.8-1.4,1.3-2.4,1.3c-1.4,0-2.5-0.9-2.5-2.4v-4.1c0-0.7-1-0.3-1-0.7c0-0.1,0.2-0.2,0.3-0.2
					c0.5,0,0.8-0.1,1-0.1c0.2,0,0.4-0.1,0.6-0.1c0.1,0,0.3,0.1,0.3,0.4v4.5c0,1.9,1.5,2,1.7,2c1,0,1.9-0.8,2-1.3V93H161z"/>
				<path class="st4" d="M161.2,99.6c-0.2,0-0.2-0.2-0.2-0.3v-0.9c-0.5,0.8-1.4,1.2-2.4,1.2c-1.6,0-2.6-1-2.6-2.4V93
					c0-0.3-0.2-0.4-0.5-0.4c-0.2,0-0.4-0.1-0.4-0.3c0-0.1,0.1-0.2,0.4-0.2c0.5,0,0.8-0.1,1-0.1c0.1,0,0.1,0,0.1,0
					c0.1,0,0.3-0.1,0.5-0.1c0.1,0,0.4,0.1,0.4,0.5V97c0,0.6,0.2,1.1,0.5,1.5c0.5,0.5,1.2,0.5,1.2,0.5c1,0,1.9-0.7,1.9-1.2v-4.6
					c0-0.3-0.2-0.4-0.5-0.4c-0.2,0-0.4-0.1-0.4-0.3c0-0.1,0.1-0.2,0.4-0.2c0.5,0,0.8-0.1,1-0.1c0.1,0,0.1,0,0.1,0
					c0.1,0,0.3-0.1,0.5-0.1c0.1,0,0.4,0.1,0.4,0.5v6.1c0,0.2,0.2,0.2,0.6,0.3c0.3,0,0.6,0.1,0.6,0.3s-0.3,0.2-0.7,0.2
					c-0.4,0-0.7,0-0.9,0.1H162h-0.1C161.5,99.6,161.4,99.6,161.2,99.6z M160.9,98.2L160.9,98.2l0.1,1c0,0,0,0.2,0.1,0.2
					c0.2,0,0.4,0,0.5-0.1h0.1h0.1c0.2,0,0.5-0.1,0.9-0.1c0.6,0,0.6-0.1,0.6-0.1c0-0.1-0.2-0.2-0.5-0.2c-0.3-0.1-0.6-0.1-0.6-0.4
					v-6.1c0-0.3-0.2-0.4-0.3-0.4c-0.2,0-0.4,0-0.5,0.1h-0.1c-0.2,0.1-0.4,0.1-1,0.1c-0.1,0-0.3,0-0.3,0.1s0.1,0.2,0.4,0.2
					c0.3,0,0.6,0.1,0.6,0.5v4.6c0,0.6-1,1.3-2,1.3c-0.1,0-0.8,0-1.3-0.5c-0.4-0.4-0.5-0.9-0.5-1.6v-4.5c0-0.3-0.2-0.4-0.3-0.4
					c-0.2,0-0.4,0-0.5,0.1h-0.1c-0.2,0.1-0.4,0.1-1,0.1c-0.1,0-0.3,0-0.3,0.1s0.1,0.2,0.4,0.2c0.3,0,0.6,0.1,0.6,0.5v4.1
					c0,1.4,1.1,2.4,2.5,2.4C159.6,99.5,160.4,99.1,160.9,98.2L160.9,98.2z"/>
			</g>
			<g>
				<path class="st4" d="M165.8,101.7c0,1.2,1.7,0.7,1.7,1.2c0,0.2-0.1,0.2-0.3,0.2s-0.7-0.1-1.9-0.1c-0.7,0-1.2,0.1-1.4,0.1
					c-0.2,0-0.3,0-0.3-0.2c0-0.5,0.9-0.2,0.9-1.3v-7.8c0-1.1-1.2-0.6-1.2-1c0-0.1,0.1-0.2,0.2-0.2c1.4-0.3,1.7-0.9,2.2-0.9
					c0.1,0,0.2,0.1,0.2,0.3v1c1.1-1,2-1.2,2.4-1.2c2.1,0,3.1,1.7,3.1,3.6c0,1.7-1,4.2-3.7,4.2c-0.6,0-1.3-0.2-1.9-0.5L165.8,101.7
					L165.8,101.7z M165.8,97.5c0,1,1.1,1.6,2.3,1.6c1.7,0,2.4-1.6,2.4-2.9c0-1.6-0.8-3.5-2.6-3.5c-1.8,0-2,1.4-2,1.4V97.5z"/>
				<path class="st4" d="M167.1,103c-0.1,0-0.2,0-0.3,0c-0.3,0-0.7-0.1-1.6-0.1c-0.5,0-0.8,0-1.1,0.1c-0.1,0-0.3,0-0.3,0
					c-0.1,0-0.3,0-0.3-0.2c0-0.2,0.2-0.3,0.4-0.4c0.3-0.1,0.6-0.3,0.6-0.9v-7.8c0-0.6-0.4-0.7-0.8-0.7c-0.2,0-0.4-0.1-0.4-0.2
					s0.1-0.2,0.2-0.2c0.8-0.2,1.3-0.5,1.6-0.7c0.2-0.1,0.4-0.2,0.6-0.2c0.1,0,0.3,0.1,0.3,0.3v0.9c1-0.9,1.9-1.1,2.4-1.1
					c1,0,1.9,0.4,2.4,1.1c0.5,0.7,0.8,1.6,0.8,2.5c0,1.7-1.1,4.2-3.8,4.2c-0.6,0-1.2-0.2-1.8-0.5v2.4c0,0.7,0.6,0.8,1.1,0.9
					c0.3,0,0.6,0.1,0.6,0.3C167.5,103,167.2,103,167.1,103z M165.2,102.9c0.8,0,1.3,0,1.6,0.1c0.1,0,0.2,0,0.3,0
					c0.2,0,0.3,0,0.3-0.2c0-0.1-0.2-0.2-0.5-0.2c-0.5-0.1-1.2-0.2-1.2-1V99h0.1c0.6,0.3,1.3,0.5,1.8,0.5c2.7,0,3.7-2.5,3.7-4.1
					c0-2.4-1.6-3.5-3.1-3.5c-0.5,0-1.4,0.2-2.4,1.2l-0.1,0.1V92c0-0.1-0.1-0.2-0.2-0.2c-0.2,0-0.3,0.1-0.5,0.2
					c-0.3,0.2-0.8,0.5-1.6,0.7c-0.1,0-0.1,0.1-0.1,0.1c0,0.1,0.1,0.1,0.3,0.1c0.4,0,0.9,0.1,0.9,0.8v7.8c0,0.7-0.4,0.9-0.6,1
					c-0.2,0.1-0.3,0.1-0.3,0.3c0,0.1,0,0.1,0.2,0.1c0.1,0,0.2,0,0.3,0C164.3,102.9,164.7,102.9,165.2,102.9z M168.1,99.2
					c-1.3,0-2.4-0.7-2.4-1.7V94c0-0.1,0-0.4,0.2-0.6c0.2-0.4,0.7-0.8,1.8-0.8c1.8,0,2.7,1.9,2.7,3.6
					C170.4,97.6,169.7,99.2,168.1,99.2z M165.8,94L165.8,94v3.5c0,0.8,0.9,1.6,2.3,1.6c1.1,0,2.3-0.9,2.3-2.9c0-1.4-0.7-3.5-2.6-3.5
					c-0.7,0-1.2,0.2-1.5,0.6C165.9,93.5,165.8,93.9,165.8,94z"/>
			</g>
			<g>
				<path class="st4" d="M174.1,101.7c0,1.2,1.7,0.7,1.7,1.2c0,0.2-0.1,0.2-0.3,0.2c-0.2,0-0.7-0.1-1.9-0.1c-0.7,0-1.2,0.1-1.4,0.1
					s-0.3,0-0.3-0.2c0-0.5,0.9-0.2,0.9-1.3v-7.8c0-1.1-1.2-0.6-1.2-1c0-0.1,0.1-0.2,0.2-0.2c1.4-0.3,1.7-0.9,2.2-0.9
					c0.1,0,0.2,0.1,0.2,0.3v1c1.1-1,2-1.2,2.4-1.2c2.1,0,3.1,1.7,3.1,3.6c0,1.7-1,4.2-3.7,4.2c-0.6,0-1.3-0.2-1.9-0.5L174.1,101.7
					L174.1,101.7z M174.1,97.5c0,1,1.1,1.6,2.3,1.6c1.7,0,2.4-1.6,2.4-2.9c0-1.6-0.8-3.5-2.6-3.5c-1.8,0-2,1.4-2,1.4V97.5z"/>
				<path class="st4" d="M175.4,103c-0.1,0-0.2,0-0.3,0c-0.3,0-0.7-0.1-1.6-0.1c-0.5,0-0.8,0-1.1,0.1c-0.1,0-0.3,0-0.3,0
					c-0.1,0-0.3,0-0.3-0.2c0-0.2,0.2-0.3,0.4-0.4c0.3-0.1,0.6-0.3,0.6-0.9v-7.8c0-0.6-0.4-0.7-0.8-0.7c-0.2,0-0.4-0.1-0.4-0.2
					s0.1-0.2,0.2-0.2c0.8-0.2,1.3-0.5,1.6-0.7c0.2-0.1,0.4-0.2,0.6-0.2c0.1,0,0.3,0.1,0.3,0.3v0.9c1-0.9,1.9-1.1,2.4-1.1
					c1,0,1.9,0.4,2.4,1.1c0.5,0.7,0.8,1.6,0.8,2.5c0,1.7-1.1,4.2-3.8,4.2c-0.6,0-1.2-0.2-1.8-0.5v2.4c0,0.7,0.6,0.8,1.1,0.9
					c0.3,0,0.6,0.1,0.6,0.3C175.8,103,175.6,103,175.4,103z M173.6,102.9c0.8,0,1.3,0,1.6,0.1c0.1,0,0.2,0,0.3,0
					c0.2,0,0.3,0,0.3-0.2c0-0.1-0.2-0.2-0.5-0.2c-0.5-0.1-1.2-0.2-1.2-1V99h0.1c0.6,0.3,1.3,0.5,1.8,0.5c2.7,0,3.7-2.5,3.7-4.1
					c0-2.4-1.6-3.5-3.1-3.5c-0.5,0-1.4,0.2-2.4,1.2l-0.1,0.1V92c0-0.1-0.1-0.2-0.2-0.2c-0.2,0-0.3,0.1-0.5,0.2
					c-0.3,0.2-0.8,0.5-1.6,0.7c-0.1,0-0.1,0.1-0.1,0.1c0,0.1,0.1,0.1,0.3,0.1c0.4,0,0.9,0.1,0.9,0.8v7.8c0,0.7-0.4,0.9-0.6,1
					c-0.2,0.1-0.3,0.1-0.3,0.3c0,0.1,0,0.1,0.2,0.1c0.1,0,0.2,0,0.3,0C172.8,102.9,173.2,102.9,173.6,102.9z M176.5,99.2
					c-1.3,0-2.4-0.7-2.4-1.7V94c0-0.1,0-0.4,0.2-0.6c0.2-0.4,0.7-0.8,1.8-0.8c1.8,0,2.7,1.9,2.7,3.6
					C178.8,97.6,178.1,99.2,176.5,99.2z M174.2,94L174.2,94v3.5c0,0.8,0.9,1.6,2.3,1.6c1.1,0,2.3-0.9,2.3-2.9c0-1.4-0.7-3.5-2.6-3.5
					c-0.7,0-1.2,0.2-1.5,0.6C174.2,93.5,174.2,93.9,174.2,94z"/>
			</g>
			<g>
				<path class="st4" d="M180.6,95.8c0-2.2,1.7-4,3.9-4c1.4,0,3.8,0.7,3.8,3.9c0,2.2-1.7,3.8-3.8,3.8
					C182.3,99.6,180.6,98.2,180.6,95.8z M187.1,96c0-1.9-0.8-3.8-2.8-3.8c-1.8,0-2.4,1.5-2.4,3c0,1.8,0.8,4,2.8,4
					C186.2,99.2,187.1,98.2,187.1,96z"/>
				<path class="st4" d="M184.5,99.6c-2.4,0-4-1.5-4-3.8c0-2.3,1.8-4.1,4-4.1c0.7,0,3.9,0.2,3.9,4C188.3,97.9,186.7,99.6,184.5,99.6
					z M184.5,91.9c-2.2,0-3.9,1.8-3.9,4c0,2.3,1.6,3.7,3.9,3.7c2.2,0,3.7-1.7,3.7-3.8C188.2,92.1,185.1,91.9,184.5,91.9z
					 M184.7,99.2c-2.1,0-2.9-2.1-2.9-4c0-1.4,0.7-3,2.4-3c1,0,1.8,0.4,2.3,1.3c0.4,0.7,0.7,1.6,0.7,2.6
					C187.2,98.1,186.3,99.2,184.7,99.2z M184.2,92.3c-1.8,0-2.4,1.6-2.4,2.9c0,1,0.2,1.9,0.7,2.6c0.4,0.6,1,1.3,2.2,1.3
					c1.6,0,2.4-1.1,2.4-3.1C187.1,93.2,185.6,92.3,184.2,92.3z"/>
			</g>
			<g>
				<path class="st4" d="M191.2,97.8c0,1.7,1.6,0.8,1.6,1.4c0,0.2-0.1,0.2-0.3,0.2c-0.3,0-0.7-0.1-1.7-0.1c-1.2,0-1.5,0.1-1.7,0.1
					c-0.1,0-0.2-0.1-0.2-0.2c0-0.4,0.9-0.3,0.9-1v-4.5c0-1.1-1.3-0.6-1.3-1c0-0.1,0.1-0.2,0.2-0.2c1.4-0.3,1.7-0.9,2.2-0.9
					c0.1,0,0.2,0.1,0.2,0.3v1.4l0,0c0.4-0.5,1-1.5,1.8-1.5c0.4,0,1.2,0.5,1.2,0.8c0,0.3-0.4,0.8-0.6,0.8c-0.3,0-0.5-0.4-1.2-0.4
					c-0.7,0-1.2,0.8-1.2,1.1L191.2,97.8L191.2,97.8z"/>
				<path class="st4" d="M192.5,99.5c-0.1,0-0.2,0-0.3,0c-0.3,0-0.7-0.1-1.4-0.1c-0.9,0-1.3,0-1.5,0.1c-0.1,0-0.1,0-0.1,0
					c-0.2,0-0.2-0.1-0.2-0.2c0-0.2,0.2-0.3,0.4-0.4c0.3-0.1,0.5-0.3,0.5-0.7v-4.5c0-0.6-0.5-0.7-0.8-0.7c-0.2,0-0.4-0.1-0.4-0.2
					s0.2-0.2,0.3-0.2c0.8-0.2,1.3-0.5,1.6-0.7c0.2-0.1,0.4-0.2,0.6-0.2c0.1,0,0.3,0.1,0.3,0.3v1.2l0,0c0.4-0.6,1-1.4,1.8-1.4
					c0.4,0,1.2,0.5,1.2,0.9c0,0.3-0.5,0.9-0.7,0.9s-0.3-0.1-0.4-0.2c-0.2-0.1-0.4-0.2-0.8-0.2c-0.7,0-1.1,0.8-1.1,1V98
					c0,1,0.6,1.1,1.1,1.1c0.3,0,0.5,0,0.5,0.3C192.9,99.5,192.7,99.5,192.5,99.5z M190.8,99.3c0.7,0,1.1,0,1.4,0.1
					c0.5,0,0.6,0,0.6-0.1c0-0.2-0.2-0.2-0.4-0.2c-0.5,0-1.2-0.1-1.2-1.2v-3.8c0-0.2,0.4-1.1,1.2-1.1c0.4,0,0.6,0.1,0.8,0.3
					c0.1,0.1,0.2,0.2,0.4,0.2c0.2,0,0.6-0.5,0.6-0.8S193.3,92,193,92c-0.7,0-1.3,0.9-1.7,1.4l-0.1,0.1h-0.1v-1.4
					c0-0.1-0.1-0.2-0.2-0.2c-0.2,0-0.3,0.1-0.5,0.2c-0.3,0.2-0.8,0.5-1.6,0.7c-0.1,0-0.2,0.1-0.2,0.1c0,0.1,0.1,0.1,0.4,0.1
					c0.4,0,0.9,0.1,0.9,0.8v4.5c0,0.5-0.3,0.6-0.6,0.8c-0.2,0.1-0.3,0.2-0.3,0.3c0,0.1,0,0.1,0.1,0.1h0.1
					C189.5,99.4,189.9,99.3,190.8,99.3z"/>
			</g>
			<g>
				<path class="st4" d="M195.7,92.7c-0.8,0-1,0-1-0.1s0.5-0.5,1.4-1.5c0.4-0.4,0.5-0.8,0.7-0.8c0.3,0,0.2,0.4,0.2,1.7h2
					c0.5,0,0.6-0.3,0.7-0.3c0.1,0,0.1,0.1,0.1,0.1c0,0.1-0.1,0.2-0.1,0.3l-0.4,0.6H197v5.1c0,0.7,0.5,1.1,1.3,1.1
					c1,0,1.2-0.4,1.5-0.4c0.1,0,0.1,0,0.1,0.2c0,0.3-1,0.9-2.2,0.9c-0.8,0-2-0.2-2-2.1V92.7z"/>
				<path class="st4" d="M197.7,99.6c-1.4,0-2.1-0.7-2.1-2.1v-4.7c-0.9,0-1,0-1-0.2c0-0.1,0.1-0.2,0.4-0.5c0.2-0.2,0.6-0.5,1-1
					c0.1-0.2,0.3-0.3,0.3-0.5c0.2-0.2,0.3-0.4,0.4-0.4c0.2,0,0.2,0.2,0.3,0.3c0,0.2,0,0.6,0,1.1v0.2h1.9c0.3,0,0.5-0.2,0.6-0.2
					l0.1-0.1c0.1,0,0.2,0.1,0.2,0.2c0,0.1-0.1,0.2-0.1,0.3l-0.4,0.7H197v5.1c0,0.7,0.5,1,1.2,1c0.6,0,0.9-0.2,1.2-0.3
					c0.1-0.1,0.3-0.1,0.4-0.1s0.2,0.1,0.2,0.2C199.9,99,198.9,99.6,197.7,99.6z M196.8,90.4c-0.1,0-0.2,0.2-0.3,0.3
					c-0.1,0.1-0.2,0.3-0.4,0.5c-0.4,0.5-0.8,0.8-1,1c-0.2,0.2-0.4,0.3-0.4,0.4c0,0.1,0.2,0.1,0.9,0.1h0.1v4.8c0,1.4,0.6,2,2,2
					c1.3,0,2.2-0.6,2.2-0.8c0-0.1,0-0.1-0.1-0.1c-0.1,0-0.2,0.1-0.3,0.1c-0.2,0.1-0.6,0.3-1.2,0.3c-0.8,0-1.3-0.4-1.3-1.1v-5.2h2.4
					l0.3-0.6c0.1-0.1,0.1-0.2,0.1-0.2s0-0.1-0.1-0.1l0,0c-0.1,0.1-0.3,0.3-0.7,0.3h-2v-0.3c0-0.5,0-0.9,0-1.1
					C196.9,90.5,196.8,90.4,196.8,90.4z"/>
			</g>
			<g>
				<path class="st4" d="M61.2,115.9c-0.1-0.4,0-0.6,0.2-0.6c0.3,0,0.3,0.2,0.3,0.6c0.2,0.8,1.3,2.6,3.7,2.6c1.7,0,3.3-1,3.3-2.7
					c0-3.4-7.2-1.5-7.2-6.1c0-2.3,1.9-3.3,3.9-3.3c2.2,0,2.7,0.6,2.9,0.6c0.2,0,0.2-0.2,0.4-0.2c0.1,0,0.2,0.1,0.2,0.3l0.3,2.4
					c0,0.1,0,0.3-0.2,0.3c-0.2,0-0.3-0.4-0.4-0.5c-0.5-1.5-1.9-2.3-3.3-2.3c-1.4,0-2.8,0.7-2.8,2.3c0,3.3,7.2,1.4,7.2,6.3
					c0,1.5-1.1,3.7-5,3.7c-1.3,0-2.9-0.7-2.9-1L61.2,115.9z"/>
				<path class="st4" d="M64.6,119.2c-1.3,0-2.9-0.7-3-1l-0.5-2.3c0-0.2,0-0.4,0.1-0.5c0-0.1,0.1-0.1,0.2-0.1c0.3,0,0.3,0.2,0.4,0.5
					c0,0.1,0,0.1,0,0.2c0.2,0.7,1.2,2.6,3.6,2.6c1.6,0,3.2-0.9,3.2-2.7c0-1.6-1.6-2-3.1-2.4c-1.9-0.6-4-1.2-4-3.6
					c0-2.4,2-3.3,3.9-3.3c1.6,0,2.4,0.4,2.7,0.5c0.1,0.1,0.2,0.1,0.3,0.1s0.1,0,0.1-0.1c0.1-0.1,0.1-0.1,0.2-0.1
					c0.2,0,0.2,0.1,0.3,0.3l0.3,2.4c0,0.1,0,0.2-0.1,0.3c0,0-0.1,0.1-0.2,0.1c-0.2,0-0.4-0.4-0.4-0.6c-0.5-1.5-1.7-2.3-3.3-2.3
					c-1.4,0-2.8,0.7-2.8,2.3c0,1.5,1.4,1.9,3,2.4c2,0.6,4.1,1.2,4.1,3.9C69.7,117.1,68.3,119.2,64.6,119.2z M61.4,115.4
					C61.4,115.4,61.3,115.4,61.4,115.4c-0.2,0.2-0.2,0.3-0.1,0.5l0.4,2.3c0.1,0.3,1.7,0.9,2.9,0.9c1.8,0,3.1-0.4,4-1.3
					c0.7-0.6,1-1.5,1-2.4c0-2.6-2.2-3.2-4-3.8c-1.6-0.5-3.1-0.9-3.1-2.4c0-1.7,1.5-2.4,2.9-2.4c1.7,0,2.9,0.9,3.4,2.4
					c0,0.1,0.2,0.5,0.3,0.5c0.1,0,0.1,0,0.1,0s0-0.1,0-0.2l-0.3-2.4c0-0.2-0.1-0.2-0.2-0.2c-0.1,0-0.1,0-0.2,0.1
					c-0.1,0.1-0.1,0.1-0.2,0.1c-0.1,0-0.2,0-0.3-0.1c-0.4-0.2-1.1-0.5-2.6-0.5c-2.6,0-3.8,1.7-3.8,3.2c0,2.4,2,3,3.9,3.5
					c1.7,0.5,3.2,0.9,3.2,2.5c0,0.9-0.4,1.6-1.1,2.2c-0.6,0.5-1.5,0.7-2.4,0.7c-1.1,0-2-0.4-2.7-1.1c-0.6-0.6-0.9-1.2-1.1-1.7
					c0-0.1,0-0.1,0-0.2C61.5,115.5,61.5,115.4,61.4,115.4z"/>
			</g>
			<g>
				<path class="st4" d="M71.9,114.5c0,2.9,1.8,3.8,2.8,3.8c1.5,0,2.1-0.9,2.4-0.9c0.1,0,0.1,0.1,0.1,0.1c0,0.4-1.6,1.7-3.1,1.7
					c-2.6,0-3.5-2.4-3.5-3.6c0-2.3,1.3-4.1,3.4-4.1s3.1,2.1,3.1,2.8c0,0.3-0.2,0.3-0.6,0.3L71.9,114.5L71.9,114.5z M75.4,114
					c0.3,0,0.4-0.1,0.4-0.4c0-1-1-1.9-2-1.9c-1.1,0-1.9,1.3-1.9,2.3H75.4z"/>
				<path class="st4" d="M74.1,119.2c-2.7,0-3.6-2.5-3.6-3.6c0-2.4,1.5-4.2,3.5-4.2c2.3,0,3.1,2.2,3.1,2.8c0,0.1,0,0.2-0.1,0.3
					c-0.1,0.1-0.3,0.1-0.5,0.1h-4.7c0,1.3,0.6,3.7,2.7,3.7c1,0,1.6-0.4,2-0.7c0.2-0.1,0.4-0.3,0.5-0.3c0.1,0,0.1,0.1,0.1,0.2
					C77.3,117.9,75.8,119.2,74.1,119.2z M74,111.5c-2,0-3.4,1.7-3.4,4.1c0,1.1,0.9,3.5,3.5,3.5c1.6,0,3-1.3,3-1.7c0-0.1,0-0.1,0-0.1
					c-0.1,0-0.3,0.1-0.5,0.2c-0.4,0.3-1,0.7-2.1,0.7c-0.7,0-1.4-0.3-1.9-0.8c-0.7-0.7-1.1-1.8-1.1-3v-0.1h4.8c0.2,0,0.4,0,0.4-0.1
					c0,0,0.1-0.1,0.1-0.2C77.1,113.5,76.2,111.5,74,111.5z M75.4,114.1h-3.5V114c0-1.1,0.9-2.3,2-2.3c1.1,0,2,1,2,2
					C75.8,113.9,75.7,114.1,75.4,114.1z M72,114h3.4c0.2,0,0.3-0.1,0.3-0.3c0-1-0.9-1.9-1.9-1.9C72.7,111.9,72,113,72,114z"/>
			</g>
			<g>
				<path class="st4" d="M80.2,117.4c0,1.7,1.6,0.8,1.6,1.4c0,0.2-0.1,0.2-0.3,0.2c-0.3,0-0.7-0.1-1.7-0.1c-1.2,0-1.5,0.1-1.7,0.1
					c-0.1,0-0.2-0.1-0.2-0.2c0-0.4,0.9-0.3,0.9-1v-4.5c0-1.1-1.3-0.6-1.3-1c0-0.1,0.1-0.2,0.2-0.2c1.4-0.3,1.7-0.9,2.2-0.9
					c0.1,0,0.2,0.1,0.2,0.3v1.4l0,0c0.4-0.5,1-1.5,1.8-1.5c0.4,0,1.2,0.5,1.2,0.8c0,0.3-0.4,0.8-0.6,0.8c-0.3,0-0.5-0.4-1.2-0.4
					s-1.2,0.8-1.2,1.1L80.2,117.4L80.2,117.4z"/>
				<path class="st4" d="M81.5,119.1c-0.1,0-0.2,0-0.3,0c-0.3,0-0.7-0.1-1.4-0.1c-0.9,0-1.3,0-1.5,0.1c-0.1,0-0.1,0-0.1,0
					c-0.2,0-0.2-0.1-0.2-0.2c0-0.2,0.2-0.3,0.4-0.4c0.3-0.1,0.5-0.3,0.5-0.7v-4.5c0-0.6-0.5-0.7-0.8-0.7c-0.2,0-0.4-0.1-0.4-0.2
					s0.2-0.2,0.3-0.2c0.8-0.2,1.3-0.5,1.6-0.7c0.2-0.1,0.4-0.2,0.6-0.2c0.1,0,0.3,0.1,0.3,0.3v1.2l0,0c0.4-0.6,1-1.4,1.8-1.4
					c0.4,0,1.2,0.5,1.2,0.9c0,0.3-0.5,0.9-0.7,0.9c-0.2,0-0.3-0.1-0.4-0.2c-0.2-0.1-0.4-0.2-0.8-0.2c-0.7,0-1.1,0.8-1.1,1v3.8
					c0,1,0.6,1.1,1.1,1.1c0.3,0,0.5,0,0.5,0.3C81.7,119.1,81.6,119.1,81.5,119.1z M79.8,118.9c0.7,0,1.1,0,1.4,0.1
					c0.5,0,0.6,0,0.6-0.1c0-0.2-0.2-0.2-0.4-0.2c-0.5,0-1.2-0.1-1.2-1.2v-3.8c0-0.2,0.4-1.1,1.2-1.1c0.4,0,0.6,0.1,0.8,0.3
					c0.1,0.1,0.2,0.2,0.4,0.2s0.6-0.5,0.6-0.8c0-0.3-0.8-0.8-1.1-0.8c-0.7,0-1.3,0.9-1.7,1.4l-0.1,0.1h-0.1v-1.4
					c0-0.1-0.1-0.2-0.2-0.2c-0.2,0-0.3,0.1-0.5,0.2c-0.3,0.2-0.8,0.5-1.6,0.7c-0.1,0-0.2,0.1-0.2,0.1c0,0.1,0.1,0.1,0.4,0.1
					c0.4,0,0.9,0.1,0.9,0.8v4.5c0,0.5-0.3,0.6-0.6,0.8c-0.2,0.1-0.3,0.2-0.3,0.3s0,0.1,0.1,0.1h0.1C78.5,119,78.9,118.9,79.8,118.9z
					"/>
			</g>
			<g>
				<path class="st4" d="M87.9,117.5l1.2-2.5c0.3-0.7,0.8-1.5,0.8-2.3c0-1-1.1-0.5-1.1-1c0-0.2,0.2-0.2,0.4-0.2
					c0.4,0,0.7,0.1,1.1,0.1c0.3,0,0.6-0.1,0.9-0.1c0.2,0,0.5,0,0.5,0.3c0,0.2-0.6,0.1-0.9,0.7l-2.7,5.7c-0.3,0.7-0.3,1-0.6,1
					c-0.2,0-0.3-0.3-0.4-0.4l-2.6-6.1c-0.3-0.8-1-0.5-1-0.9c0-0.1,0-0.2,0.4-0.2c0.3,0,0.3,0.1,1.5,0.1c0.7,0,0.9-0.1,1.1-0.1
					c0.3,0,0.4,0,0.4,0.2c0,0.4-1,0.1-1,0.7c0,0.1,0.1,0.3,0.3,0.9L87.9,117.5z"/>
				<path class="st4" d="M87.5,119.2c-0.2,0-0.3-0.2-0.4-0.4c0,0,0,0,0-0.1l-2.6-6.1c-0.2-0.5-0.5-0.6-0.7-0.6
					c-0.1,0-0.3-0.1-0.3-0.3s0.1-0.3,0.4-0.3c0.1,0,0.2,0,0.3,0c0.2,0,0.5,0.1,1.2,0.1c0.4,0,0.7,0,0.8-0.1c0.1,0,0.2,0,0.3,0
					c0.2,0,0.5,0,0.5,0.2s-0.2,0.3-0.5,0.3c-0.3,0.1-0.5,0.1-0.5,0.4c0,0,0.1,0.2,0.3,0.9l1.7,4.1l1.2-2.4c0.1-0.1,0.1-0.2,0.2-0.3
					c0.3-0.6,0.6-1.2,0.6-1.9c0-0.6-0.4-0.6-0.7-0.7c-0.2,0-0.4-0.1-0.4-0.3c0-0.3,0.3-0.3,0.5-0.3c0.2,0,0.4,0,0.6,0
					c0.2,0,0.4,0,0.6,0c0.2,0,0.3,0,0.5,0c0.2,0,0.3,0,0.5,0c0.1,0,0.5,0,0.5,0.3c0,0.1-0.1,0.2-0.3,0.2c-0.2,0.1-0.5,0.2-0.6,0.5
					l-2.7,5.7c-0.1,0.2-0.1,0.3-0.2,0.5C87.8,119.1,87.7,119.2,87.5,119.2z M83.9,111.7c-0.3,0-0.3,0.1-0.3,0.2
					c0,0.1,0.1,0.1,0.2,0.2c0.2,0.1,0.6,0.2,0.8,0.7l2.6,6.1c0,0,0,0,0,0.1c0.1,0.2,0.1,0.3,0.3,0.3c0.2,0,0.2-0.1,0.4-0.5
					c0.1-0.1,0.1-0.3,0.2-0.5l2.7-5.7c0.2-0.3,0.5-0.4,0.7-0.5c0.1,0,0.2-0.1,0.2-0.1c0-0.1-0.1-0.2-0.4-0.2c-0.2,0-0.3,0-0.5,0
					c-0.2,0-0.3,0-0.5,0s-0.4,0-0.6,0c-0.2,0-0.4,0-0.5,0c-0.3,0-0.4,0-0.4,0.2c0,0.1,0.1,0.2,0.4,0.2c0.3,0,0.8,0.1,0.8,0.8
					c0,0.7-0.3,1.3-0.6,2c-0.1,0.1-0.1,0.2-0.2,0.3l-1.3,2.6l-1.8-4.3c-0.2-0.5-0.3-0.8-0.3-0.9c0-0.3,0.4-0.4,0.6-0.5
					c0.2,0,0.4-0.1,0.4-0.2c0-0.1-0.1-0.1-0.4-0.1c-0.1,0-0.2,0-0.3,0c-0.2,0-0.4,0.1-0.9,0.1c-0.8,0-1,0-1.2-0.1
					C84.1,111.7,84,111.7,83.9,111.7z"/>
			</g>
			<g>
				<path class="st4" d="M93.5,113.3c0-1.1-1-0.6-1-1c0-0.1,0.1-0.2,0.2-0.2c1.2-0.3,1.5-0.9,1.9-0.9c0.1,0,0.2,0.1,0.2,0.3v6.4
					c0,0.9,1.4,0.5,1.4,1c0,0.1-0.1,0.2-0.3,0.2c-0.4,0-0.9-0.1-1.7-0.1c-0.6,0-1,0.1-1.2,0.1c-0.1,0-0.3,0-0.3-0.2
					c0-0.5,0.8,0.2,0.8-1.4V113.3z M94.9,108.7c0,0.2-0.5,0.9-0.8,0.9c-0.2,0-0.8-0.7-0.8-0.9c0-0.2,0.5-1,0.8-1
					S94.9,108.5,94.9,108.7z"/>
				<path class="st4" d="M95.9,119.1c-0.2,0-0.3,0-0.6,0c-0.3,0-0.7,0-1.1,0s-0.7,0-0.9,0c-0.1,0-0.3,0-0.3,0c-0.1,0-0.3,0-0.3-0.2
					c0-0.2,0.1-0.2,0.3-0.3c0.2,0,0.5-0.1,0.5-1.2v-4.1c0-0.6-0.4-0.7-0.6-0.7c-0.2,0-0.4-0.1-0.4-0.2s0.1-0.2,0.2-0.2
					c0.6-0.2,1-0.4,1.3-0.6c0.2-0.2,0.4-0.3,0.6-0.3c0.1,0,0.3,0.1,0.3,0.3v6.4c0,0.5,0.4,0.6,0.8,0.6c0.3,0.1,0.6,0.1,0.6,0.3
					C96.2,119.1,96.1,119.1,95.9,119.1z M94.2,118.9c0.4,0,0.8,0,1.1,0c0.2,0,0.4,0,0.6,0c0.3,0,0.3-0.1,0.3-0.1
					c0-0.1-0.2-0.2-0.5-0.2c-0.4-0.1-0.9-0.2-0.9-0.7v-6.4c0-0.1-0.1-0.2-0.2-0.2c-0.2,0-0.3,0.1-0.6,0.3c-0.3,0.2-0.7,0.5-1.3,0.6
					c-0.1,0-0.1,0.1-0.1,0.1c0,0.1,0.1,0.1,0.3,0.1c0.3,0,0.7,0.1,0.7,0.8v4.1c0,1.1-0.4,1.2-0.6,1.3c-0.1,0-0.2,0-0.2,0.2
					c0,0.1,0.1,0.1,0.2,0.1c0.1,0,0.2,0,0.3,0C93.5,118.9,93.9,118.9,94.2,118.9z M94.2,109.7c-0.3,0-0.8-0.8-0.8-1
					c0-0.2,0.6-1,0.8-1c0.3,0,0.8,0.8,0.8,1C95,108.9,94.4,109.7,94.2,109.7z M94.2,107.8c-0.2,0-0.7,0.7-0.7,0.9s0.5,0.9,0.7,0.9
					c0.2,0,0.7-0.7,0.7-0.9C94.9,108.5,94.4,107.8,94.2,107.8z"/>
			</g>
			<g>
				<path class="st4" d="M96.4,115.4c0-2.3,1.8-4,4-4c0.9,0,2.1,0.3,2.2,0.7c0,0.4,0,0.8,0,1.1c0,0.3-0.1,0.4-0.1,0.4
					c-0.2,0-0.4-0.3-0.4-0.4c-0.6-0.8-1.4-1.1-2.2-1.1c-1.5,0-2.1,1.6-2.1,2.8c0,1.9,1.2,3.4,3.1,3.4c1.4,0,2.2-1,2.4-1
					c0.1,0,0.1,0.1,0.1,0.1c0,0.3-1.1,1.8-3.4,1.8C97.8,119.2,96.4,117.3,96.4,115.4z"/>
				<path class="st4" d="M99.9,119.2c-2,0-3.5-1.7-3.5-3.8c0-2.3,1.8-4.1,4-4.1c0.9,0,2.2,0.2,2.2,0.7c0,0.3,0,0.6,0,0.9
					c0,0.1,0,0.1,0,0.2c0,0.4-0.1,0.4-0.2,0.4c-0.2,0-0.3-0.3-0.4-0.4l0,0c-0.5-0.7-1.3-1.1-2.2-1.1c-1.4,0-2.1,1.5-2.1,2.7
					c0,1.7,1,3.4,3,3.4c1,0,1.6-0.5,2-0.8c0.2-0.1,0.3-0.2,0.4-0.2s0.2,0.1,0.2,0.2C103.4,117.6,102.4,119.2,99.9,119.2z
					 M100.4,111.5c-2.2,0-3.9,1.8-3.9,4c0,2.1,1.6,3.7,3.4,3.7c2.4,0,3.4-1.5,3.4-1.8l-0.1-0.1c-0.1,0-0.2,0.1-0.4,0.2
					c-0.4,0.3-1.1,0.8-2.1,0.8c-1.9,0-3.1-1.4-3.1-3.5c0-1.4,0.7-2.8,2.2-2.8c1,0,1.7,0.4,2.3,1.1c0,0,0,0,0,0.1
					c0.1,0.1,0.2,0.3,0.4,0.3c0,0,0.1-0.1,0.1-0.3c0-0.1,0-0.1,0-0.2c0-0.2,0-0.6,0-0.9C102.4,111.8,101.3,111.5,100.4,111.5z"/>
			</g>
			<g>
				<path class="st4" d="M105.2,114.5c0,2.9,1.8,3.8,2.8,3.8c1.5,0,2.1-0.9,2.4-0.9c0.1,0,0.1,0.1,0.1,0.1c0,0.4-1.6,1.7-3.1,1.7
					c-2.6,0-3.5-2.4-3.5-3.6c0-2.3,1.3-4.1,3.4-4.1c2.2,0,3.1,2.1,3.1,2.8c0,0.3-0.2,0.3-0.6,0.3L105.2,114.5L105.2,114.5z
					 M108.7,114c0.3,0,0.4-0.1,0.4-0.4c0-1-1-1.9-2-1.9c-1.1,0-1.9,1.3-1.9,2.3H108.7z"/>
				<path class="st4" d="M107.5,119.2c-2.7,0-3.6-2.5-3.6-3.6c0-2.4,1.5-4.2,3.5-4.2c2.3,0,3.1,2.2,3.1,2.8c0,0.1,0,0.2-0.1,0.3
					c-0.1,0.1-0.3,0.1-0.5,0.1h-4.7c0,1.3,0.6,3.7,2.7,3.7c1,0,1.6-0.4,2-0.7c0.2-0.1,0.4-0.3,0.5-0.3s0.1,0.1,0.1,0.2
					C110.7,117.9,109.1,119.2,107.5,119.2z M107.4,111.5c-2,0-3.4,1.7-3.4,4.1c0,1.1,0.9,3.5,3.5,3.5c1.6,0,3-1.3,3-1.7
					c0-0.1,0-0.1,0-0.1c-0.1,0-0.3,0.1-0.5,0.2c-0.4,0.3-1,0.7-2.1,0.7c-0.7,0-1.4-0.3-1.9-0.8c-0.7-0.7-1.1-1.8-1.1-3v-0.1h4.8
					c0.2,0,0.4,0,0.4-0.1c0,0,0.1-0.1,0.1-0.2C110.5,113.5,109.6,111.5,107.4,111.5z M108.7,114.1h-3.5V114c0-1.1,0.9-2.3,2-2.3
					c1.1,0,2,1,2,2C109.1,113.9,109,114.1,108.7,114.1z M105.3,114h3.4c0.2,0,0.3-0.1,0.3-0.3c0-1-0.9-1.9-1.9-1.9
					C106,111.9,105.3,113,105.3,114z"/>
			</g>
			<g>
				<path class="st4" d="M111.5,113.5c0-1.4,1.1-2.2,2.4-2.2c0.3,0,1.5,0.1,1.8,0.4c0.1,0.1,0.1,0.8,0.1,0.9c0,0.5,0.1,0.7-0.2,0.7
					c-0.2,0-0.3-1.6-2-1.6c-0.7,0-1.3,0.4-1.3,1.2c0,0.6,0.5,1,2.4,1.7c1,0.4,1.5,1,1.5,2.1c0,1.4-1.1,2.4-2.4,2.4s-1.6-0.5-2-0.5
					s-0.4,0-0.4-1.4c0-0.3-0.1-0.9,0.2-0.9c0.4,0,0.2,2.4,2.1,2.4c0.9,0,1.6-0.5,1.6-1.5c0-1-0.9-1.2-1.6-1.6
					C112.7,115.2,111.5,114.8,111.5,113.5z"/>
				<path class="st4" d="M113.8,119.2c-0.8,0-1.2-0.2-1.6-0.4c-0.2-0.1-0.3-0.2-0.5-0.2c-0.4,0-0.4-0.1-0.4-1.5V117
					c0-0.3,0-0.6,0.1-0.7l0.1-0.1c0.2,0,0.2,0.2,0.3,0.6c0.2,0.7,0.5,1.8,1.8,1.8c1.1,0,1.6-0.7,1.6-1.4c0-0.8-0.7-1.1-1.3-1.4
					c-0.1,0-0.2-0.1-0.3-0.1c-0.1,0-0.2-0.1-0.3-0.1c-0.9-0.4-1.9-1-1.9-2.2c0-1.3,1-2.2,2.4-2.2c0.3,0,1.6,0.1,1.8,0.4
					c0.1,0.1,0.1,0.5,0.1,0.9l0,0c0,0.1,0,0.2,0,0.3c0,0.2,0,0.4-0.1,0.4c0,0-0.1,0.1-0.2,0.1s-0.1-0.1-0.2-0.3
					c-0.2-0.5-0.6-1.3-1.8-1.3c-0.7,0-1.2,0.4-1.2,1.1c0,0.6,0.5,1,2.3,1.7c1.1,0.5,1.5,1.1,1.5,2.2
					C116.2,118.1,115.2,119.2,113.8,119.2z M111.6,116.5L111.6,116.5c-0.2,0.1-0.2,0.5-0.2,0.7v0.1c0,1.4,0,1.4,0.3,1.4
					c0.2,0,0.3,0.1,0.5,0.2c0.3,0.2,0.7,0.4,1.5,0.4c1.3,0,2.4-1.1,2.4-2.4c0-1.1-0.4-1.6-1.5-2.1c-1.9-0.8-2.4-1.1-2.4-1.8
					s0.5-1.2,1.3-1.2c1.3,0,1.7,0.9,1.9,1.4c0,0.1,0.1,0.2,0.1,0.2c0.1,0,0.1,0,0.1,0s0-0.2,0-0.4c0-0.1,0-0.2,0-0.3v-0.1
					c0-0.5,0-0.7-0.1-0.8c-0.2-0.2-1.4-0.4-1.7-0.4c-1.1,0-2.4,0.6-2.4,2.1c0,1.1,1,1.6,1.9,2.1c0.1,0,0.2,0.1,0.3,0.1
					s0.2,0.1,0.3,0.1c0.7,0.3,1.4,0.6,1.4,1.5c0,0.9-0.7,1.5-1.7,1.5c-1.4,0-1.7-1.2-1.9-1.9C111.8,116.7,111.7,116.5,111.6,116.5z"
					/>
			</g>
		</g>
	</g>
</g>
</svg>
