<svg id="Layer_1" data-name="Layer 1" xmlns="http://www.w3.org/2000/svg" viewBox="0 0 444.15 213.64"><defs><style>.cls-1{fill:#bc4b27;}.cls-2{fill:#d66027;}.cls-3{fill:#fff;}.cls-4{fill:#fdceb0;}.cls-5{fill:#231f20;}.cls-6{fill:none;stroke:#bc4b27;stroke-width:2.03px;}.cls-7{fill:#6d5560;}</style></defs><g id="_CMYK_" data-name="&lt;CMYK&gt;"><g id="_Shield_" data-name="&lt;Shield&gt;"><path class="cls-1" d="M2.91,45H105V29.4H92.23v-5h-3s-6.62.25-11.59-2.69S71.8,16,71.79,16V12H65.24a11.09,11.09,0,0,0-21.63,0H37v4s-.94,2.79-5.84,5.69-11.6,2.69-11.6,2.69H15.6v5H2.81V44.91"/><path class="cls-1" d="M2.89,78.52A94.57,94.57,0,0,0,6,100.64c3.54,13.63,10.09,25.53,20.53,35.14,8,7.42,17.32,13.06,26.81,18.37a1.35,1.35,0,0,0,1.11-.06,184.92,184.92,0,0,0,19.12-12,71.27,71.27,0,0,0,26.89-37.15C103.84,94.13,105,83.06,105,71.85c0-5.86,0-16.08,0-21.95H2.85c0,8.09-.11,20.53,0,28.62m43.63,6.9L54,62.56l7.43,22.86h24L66,99.55l7.43,22.86L54,108.28,34.5,122.41l7.43-22.86L22.48,85.42Z"/><path class="cls-2" d="M54.24,45l.29-41.59A11.08,11.08,0,0,0,43.72,12H37.05v4.05s-.94,2.79-5.84,5.69-11.6,2.68-11.6,2.68H15.7v5H2.91V45Z"/><path class="cls-2" d="M54,108.32,34.57,122.45,42,99.59,22.55,85.46h24L54,62.6l-.09-12.66h-51c0,8.09-.11,20.53,0,28.61a95.19,95.19,0,0,0,3.12,22.13c3.54,13.63,10.09,25.53,20.52,35.14,8.05,7.42,17.32,13.06,26.82,18.37a.65.65,0,0,0,.52.05Z"/><polygon class="cls-3" points="85.48 85.42 61.44 85.42 54.02 62.56 46.59 85.42 22.55 85.42 41.99 99.55 34.57 122.41 54.02 108.28 73.47 122.41 66.04 99.55 85.48 85.42"/><polygon class="cls-4" points="54.02 62.56 61.44 85.42 85.48 85.42 66.04 99.55 73.47 122.41 54.02 108.28 54.02 62.56"/></g><path class="cls-5" d="M66.89,149a2.64,2.64,0,0,1,1.26.33,2.37,2.37,0,0,1,1,.95,2.69,2.69,0,0,1,.34,1.28,2.66,2.66,0,0,1-.34,1.27,2.39,2.39,0,0,1-.94.95,2.63,2.63,0,0,1-2.55,0,2.39,2.39,0,0,1-.94-.95,2.55,2.55,0,0,1-.34-1.27,2.58,2.58,0,0,1,.34-1.28,2.37,2.37,0,0,1,1-.95A2.63,2.63,0,0,1,66.89,149Zm0,.43a2.21,2.21,0,0,0-1,.27,2,2,0,0,0-.8.79,2.18,2.18,0,0,0-.29,1.07,2.24,2.24,0,0,0,.28,1.06,2,2,0,0,0,.8.79,2.13,2.13,0,0,0,2.11,0,1.94,1.94,0,0,0,.79-.79,2.13,2.13,0,0,0,.28-1.06,2.17,2.17,0,0,0-.28-1.07,2,2,0,0,0-.8-.79A2.22,2.22,0,0,0,66.89,149.38Zm-1.12,3.54v-2.75h1a2.34,2.34,0,0,1,.7.08.65.65,0,0,1,.34.27.66.66,0,0,1,.13.4.73.73,0,0,1-.21.52.84.84,0,0,1-.57.25.76.76,0,0,1,.23.15,3.34,3.34,0,0,1,.41.54l.33.54h-.54l-.24-.43a2.06,2.06,0,0,0-.47-.64.58.58,0,0,0-.35-.1h-.26v1.17Zm.45-1.55h.54a.83.83,0,0,0,.52-.11.36.36,0,0,0,.14-.3.32.32,0,0,0-.07-.22.34.34,0,0,0-.18-.15,1.53,1.53,0,0,0-.45,0h-.5Z"/><path class="cls-5" d="M165.89,94.09c2.83-3.83,4.27-9.36,4.27-16.43V58.46a20.47,20.47,0,0,1,.68-6.5,5,5,0,0,1,2.93-2.58c.64-.27,1-.65,1-1.14a.87.87,0,0,0-1-.93c-.24,0-.82,0-1.73.12-.67.08-2.45.12-5.31.12a23,23,0,0,1-3.48-.23,22.68,22.68,0,0,0-2.51-.32,1,1,0,0,0-.74.24,1.07,1.07,0,0,0-.29.81c0,.43.24,1,1.35,1.07a5.7,5.7,0,0,1,4.55,2.39c.9,1.42,1.35,3.74,1.35,6.9V78.49c0,6.69-1.51,11.77-4.51,15.08s-7.58,5-13.64,5c-6.77,0-11.65-2-14.52-5.94-2-2.78-3.05-7.53-3.05-14.11V59l-.08-2.55a12.19,12.19,0,0,1,.73-5.1,3.92,3.92,0,0,1,2.83-1.83c1-.17,1.44-.57,1.44-1.19,0-.32-.15-.85-1.14-.85-.37,0-1,0-2,.12-1.14.1-1.85.15-2.15.15h-3l-3,0c-.54,0-1.41,0-2.59-.12s-2-.07-2.68-.07c-1.43,0-1.73.63-1.73,1.15s.22.89,1.26,1c2.22.33,3.72,1,4.43,2s1.1,2.88,1.1,5.58l.08,2.21v19.7c0,5.42.93,9.88,2.78,13.26a17.26,17.26,0,0,0,7.83,7,28.41,28.41,0,0,0,22.72.41,18.61,18.61,0,0,0,7.76-5.84"/><path class="cls-5" d="M196.91,52.19c1.19,0,1.58.2,1.71.32s.33.48.33,1.62l0,1V93.62c0,2.11-.34,3.58-1,4.37s-2,1.32-3.87,1.56c-1,.12-1.5.46-1.5,1,0,.4.18,1.08,1.41,1.08.27,0,1.13-.08,2.63-.24.74-.07,1.66-.11,2.74-.11l3,0,2.84,0a32.4,32.4,0,0,1,3.46.11,15.09,15.09,0,0,0,1.94.24c1.17,0,1.34-.68,1.34-1.08,0-.57-.53-1-1.56-1.12-3.16-.55-4.76-2.24-4.88-5.16l0-1.51V54.7c0-1.5.24-2,.38-2.12s.58-.39,2-.39h10.9c2.11,0,3.53.26,4.23.79h0c.69.51,1.21,1.66,1.53,3.43.18,1,.55,1.43,1.2,1.4.49,0,1.07-.34,1-1.5,0-.4-.1-1-.23-1.92a19.51,19.51,0,0,1-.19-3.27c0-2.14-.3-2.69-.52-2.92s-1.23-.54-2.76-.54H181.32a2.28,2.28,0,0,0-1.93.66,4.69,4.69,0,0,0-.45,2.49,23.64,23.64,0,0,1-.58,4.55,16.75,16.75,0,0,0-.47,3c0,1.08.58,1.28.93,1.29.93,0,1.21-1.24,1.3-1.66.51-2.27,1.22-3.82,2.12-4.62a6.53,6.53,0,0,1,4.39-1.2Z"/><path class="cls-5" d="M286.13,101.44c.77-.07,1.38-.11,1.85-.11l2.9-.08,2.87,0a30.29,30.29,0,0,1,3.84.15c1.67.26,2.69.33,3.15-.17a1.06,1.06,0,0,0,.24-.8q-.06-.81-1.47-1c-2.11-.23-3.55-.85-4.28-1.84s-1.12-2.9-1.12-5.6V54.54a6.83,6.83,0,0,1,.79-3.31,2.82,2.82,0,0,1,1.85-1.61l1.59-.34c.93-.2,1.12-.68,1.12-1s-.15-1-1.17-1a12.6,12.6,0,0,0-1.47.15,47.35,47.35,0,0,1-5.79.23,51.07,51.07,0,0,1-5.4-.27c-1.22-.12-2.11-.19-2.66-.19-1,0-1.2.55-1.22.87s.19.95,1.32,1.17a5.4,5.4,0,0,1,3.62,2.18c.66,1.07,1,2.94,1,5.55V70.2c0,.63-.12,1-.35,1.2a4.39,4.39,0,0,1-2,.27H262.41c-2.08,0-2.56-.25-2.68-.36h0c-.13-.13-.37-.63-.37-2.47V55a7,7,0,0,1,.85-4,5.8,5.8,0,0,1,3.35-1.79c.82-.21,1.23-.58,1.23-1.12,0-.38-.18-1-1.37-1a11.52,11.52,0,0,0-1.66.16,41,41,0,0,1-5.12.31,63,63,0,0,1-7.07-.35c-1.06-.13-1.85-.21-2.35-.23a1.31,1.31,0,0,0-1,.28,1,1,0,0,0-.27.72c0,.41.23.93,1.33,1.08,2.13.32,3.62,1,4.43,1.93s1.22,2.56,1.22,4.74V89a32,32,0,0,1-.61,7.55,3,3,0,0,1-2.15,2.4l-1.94.46c-1,.23-1.2.75-1.2,1.15s.16,1,1.22,1c.29,0,1.09-.06,2.46-.17,1-.09,1.79-.13,2.43-.13l2.55-.09,3.26,0a36.25,36.25,0,0,1,4.62.17,18.8,18.8,0,0,0,1.93.18,1.51,1.51,0,0,0,1.14-.36.92.92,0,0,0,.24-.7c0-.69-.61-1.1-1.7-1.22-2.24-.25-3.79-.89-4.6-1.92s-1.23-2.89-1.23-5.51V77.62c0-1.41.25-1.91.46-2.08s.84-.39,2.59-.39h22.84c1.75,0,2.1.19,2.17.25s.26.36.26,1.95V91.6l0,1.52c0,3.86-1.27,5.95-3.87,6.4-1,.14-1.49.51-1.53,1.1a.92.92,0,0,0,.25.73,1.12,1.12,0,0,0,.84.29h.09c.19,0,1-.06,2.7-.2"/><path class="cls-5" d="M400.57,97l-.34.11-2,1a8.28,8.28,0,0,1-3.88.83,5.77,5.77,0,0,1-4.36-1.6c-.67-.7-1-2.29-1-4.75V73.25h8.94A1.9,1.9,0,0,0,399.83,72l.88-2.22a2.85,2.85,0,0,0,.37-1.06.69.69,0,0,0-.17-.58.54.54,0,0,0-.49-.11,2.36,2.36,0,0,0-1,.5,4.47,4.47,0,0,1-2.5.58h-8l.15-6.46c0-1-.43-1.26-.79-1.26s-.7.22-1.68,1.83a33.76,33.76,0,0,1-6.89,7.65c-.74.62-1.1,1.14-1.1,1.58s.22.84,1.26.84h3.2V92.56c0,6.33,3.09,9.54,9.17,9.54a13.51,13.51,0,0,0,5.81-1.5c2.15-1,3.2-2,3.2-3a.64.64,0,0,0-.71-.67"/><path class="cls-5" d="M313.92,70.22a7.74,7.74,0,0,1,5.51,2.53A7.62,7.62,0,0,1,322,78.2c0,.82-1.53,1-2.81,1H306.29a12.51,12.51,0,0,1,2.53-6.52h0a6.41,6.41,0,0,1,5.1-2.45m14.27,23.56a1.43,1.43,0,0,0-.69.32c-3.26,2.49-6.3,3.75-9.06,3.75a11,11,0,0,1-8.84-4.43,16.91,16.91,0,0,1-3.61-11l0-.62h14.45l2.64.08,2.88,0c1.84,0,2.77-.52,2.77-1.53a9.72,9.72,0,0,0-1-3.24,19.83,19.83,0,0,0-1.93-3.61,12.41,12.41,0,0,0-10.55-5.5,13.68,13.68,0,0,0-10.54,5.14,18.56,18.56,0,0,0-.14,24,14,14,0,0,0,10.8,4.88,17.36,17.36,0,0,0,10.81-4c1.89-1.47,2.81-2.61,2.81-3.47a.9.9,0,0,0-.24-.69.74.74,0,0,0-.59-.17"/><path class="cls-5" d="M378.07,99.17c-2.53-.43-4.09-1.25-4.62-2.46a12.48,12.48,0,0,1-.72-4.79V46.41l0-1.21h0c0-1-.13-1.54-.4-1.8a.63.63,0,0,0-.39-.16,1.8,1.8,0,0,0-1,.36,18.2,18.2,0,0,1-3.73,1.83l-2.37,1a17.68,17.68,0,0,1-2.38.73c-.8.22-1.2.58-1.2,1.07a.9.9,0,0,0,.64.87,2.28,2.28,0,0,0,.74.1h0l1.93-.08c1.51,0,2.24,1.08,2.24,3.32v43a4.48,4.48,0,0,1-.56,2.55,4,4,0,0,1-2.21,1.24c-.87.24-1.3.64-1.27,1.2,0,.37.22,1,1.3,1a13.85,13.85,0,0,0,1.51-.19c.56-.08,2.08-.12,4.52-.12l5.4,0a9.92,9.92,0,0,1,1.69.1,5.15,5.15,0,0,0,1.07.17,1.1,1.1,0,0,0,.81-.29,1.13,1.13,0,0,0,.25-.85c0-.53-.48-.87-1.33-1"/><path class="cls-5" d="M341.22,88.26a19.79,19.79,0,0,1,8.91-2.66V93a5.65,5.65,0,0,1-1.27,4.1,7.33,7.33,0,0,1-5.27,2.06,5.14,5.14,0,0,1-5.53-5.54,6.27,6.27,0,0,1,3.16-5.37m20.17,10.36a5.76,5.76,0,0,0-1,.17,4.87,4.87,0,0,1-.88.07,2.83,2.83,0,0,1-2.71-1.41,10.82,10.82,0,0,1-.84-5V77.26a8.27,8.27,0,0,0-3-6.8c-2-1.59-4.78-2.4-8.34-2.4a12.34,12.34,0,0,0-9.45,3.83c-1.77,1.89-2.67,3.69-2.67,5.34,0,.72.55,1.36,1.62,1.92a7.18,7.18,0,0,0,3.41.81,1.06,1.06,0,0,0,.8-.28.85.85,0,0,0,.21-.68,4.79,4.79,0,0,0-.28-1.28,10,10,0,0,1-.49-2.85c0-2.74,1.59-4.06,4.87-4.06A7.85,7.85,0,0,1,348.53,73c1.06,1.08,1.6,3.09,1.6,6v4.57c-6.34,1-10.92,2.31-13.62,3.94a8,8,0,0,0-4.18,7.13,7,7,0,0,0,2.23,5.44,8.54,8.54,0,0,0,5.95,2c3.18,0,6.66-1.4,10.35-4.16,1.72,2.56,3.68,3.85,5.82,3.85a9.75,9.75,0,0,0,3.59-.73c1.32-.53,2-1,2-1.63a.73.73,0,0,0-.19-.6.81.81,0,0,0-.68-.21"/><path class="cls-5" d="M440.09,99.59c-2-.32-3.36-.83-4-1.51s-.9-2-.9-3.86V81.92a14.45,14.45,0,0,0-3.46-10,11.62,11.62,0,0,0-9-3.85c-3.81,0-7.38,1.93-10.63,5.73V47.87c0-.86,0-1.52,0-1.95s.08-.78.08-1c0-1-.57-1.1-.91-1.1a2.12,2.12,0,0,0-.92.26l-3,1.43a26.79,26.79,0,0,1-5.41,2c-.71.2-1.08.54-1.08,1a.81.81,0,0,0,.41.74,1.41,1.41,0,0,0,.67.14h0l2-.11a1.68,1.68,0,0,1,1.33.44c.67.63,1,2,1,3.92V94.1c0,2.7-.27,3.72-.49,4.1a4.76,4.76,0,0,1-2.67,1.48c-.93.26-1.09.8-1.07,1.2s.2.83,1.22.83c.34,0,.93,0,1.8-.1,1.92-.14,3.42-.21,4.46-.21,3,0,5,0,5.88.14,1.18.12,1.87.17,2.16.17,1,0,1.11-.55,1.11-.89,0-.64-.52-1-1.54-1.19-2.22-.3-3.63-.81-4.18-1.53s-.84-2.41-.84-5v-15a5.53,5.53,0,0,1,2.54-4.36,9.15,9.15,0,0,1,5.73-2,8.28,8.28,0,0,1,6.54,2.79,11.22,11.22,0,0,1,2.46,7.62V95l0,1.21a3.69,3.69,0,0,1-.41,2.18,5.72,5.72,0,0,1-2.34,1.26c-.65.25-1,.6-.93,1s.21,1,1.33,1c.19,0,.59,0,1.23-.11a45.8,45.8,0,0,1,5-.2c1.37,0,3,.06,4.91.19.95.08,1.6.12,1.92.12,1.12,0,1.29-.6,1.29-1s-.22-.94-1.25-1.1"/><path class="cls-5" d="M133.87,131.76c-2.37-.79-3.88-1.34-4.49-1.64a5,5,0,0,1-1.65-1.41,4.29,4.29,0,0,1-.87-2.69,3.78,3.78,0,0,1,1.33-2.93,4.92,4.92,0,0,1,3.34-1.18,8.45,8.45,0,0,1,4.6,1.32,6.35,6.35,0,0,1,2.72,3.32c.23.67.45,1,.71,1s.5-.12.5-.68c0-.11,0-.36-.09-.79l-.31-2c-.16-1-.24-1.69-.24-1.9a1.24,1.24,0,0,0-.24-.9.45.45,0,0,0-.31-.12.3.3,0,0,0-.29.1l-.27.22a.6.6,0,0,1-.69.1l-1.31-.55a9.06,9.06,0,0,0-3.46-.59,8.89,8.89,0,0,0-5.94,2,6.36,6.36,0,0,0-2.31,5.06,6.15,6.15,0,0,0,1.77,4.54,16.21,16.21,0,0,0,6,3.16,19,19,0,0,1,4.87,2.08,4.44,4.44,0,0,1,1.63,3.47,4.63,4.63,0,0,1-1.76,3.65,6.47,6.47,0,0,1-4.35,1.51,7.85,7.85,0,0,1-4.69-1.57,7.23,7.23,0,0,1-2.83-3.9c-.2-.65-.43-1-.71-1a.43.43,0,0,0-.32.11.74.74,0,0,0-.17.54,10.34,10.34,0,0,0,.5,2.45c.29,1,.44,1.62.47,1.72a9.48,9.48,0,0,0,.34,1.33,1.33,1.33,0,0,0,.49.52,8.37,8.37,0,0,0,2.6,1,14,14,0,0,0,3.23.42,9.81,9.81,0,0,0,6.67-2.27,7.46,7.46,0,0,0,2.6-5.86c0-3.51-2.37-6.07-7.06-7.6"/><path class="cls-5" d="M147.81,140.74a9.67,9.67,0,0,1,4.38-1.3v3.64a2.78,2.78,0,0,1-.63,2,3.61,3.61,0,0,1-2.58,1,2.52,2.52,0,0,1-2.72-2.72,3.1,3.1,0,0,1,1.55-2.64m9.85,5.1a2.1,2.1,0,0,0-.47.08,2.51,2.51,0,0,1-.44,0,1.41,1.41,0,0,1-1.34-.7,5.34,5.34,0,0,1-.41-2.45v-7.41a4,4,0,0,0-1.46-3.29,6.28,6.28,0,0,0-4-1.17,6,6,0,0,0-4.59,1.86,4,4,0,0,0-1.3,2.59c0,.34.26.65.78.92a3.49,3.49,0,0,0,1.65.39.49.49,0,0,0,.38-.13.4.4,0,0,0,.09-.31,2.36,2.36,0,0,0-.13-.63,4.83,4.83,0,0,1-.24-1.39c0-1.35.78-2,2.39-2a3.86,3.86,0,0,1,2.89,1.1,4.2,4.2,0,0,1,.78,2.92v2.25a19.63,19.63,0,0,0-6.65,1.92,3.86,3.86,0,0,0-2,3.46,3.39,3.39,0,0,0,1.08,2.64,4.13,4.13,0,0,0,2.89,1,8.61,8.61,0,0,0,5.05-2,3.51,3.51,0,0,0,2.84,1.89,4.63,4.63,0,0,0,1.74-.36c.63-.25.94-.5.95-.77a.36.36,0,0,0-.08-.28.4.4,0,0,0-.32-.09"/><path class="cls-5" d="M178.29,146.18l-.8-.11a1.59,1.59,0,0,1-1.5-1.37l-.06-.9,0-.57V138.7a9.12,9.12,0,0,0-1.23-5.25,5.68,5.68,0,0,0-4.86-2.52c-1.78,0-3.52,1-5.17,2.84V131.9c0-.28,0-.52,0-.71a.72.72,0,0,0-.12-.55c-.16-.16-.44-.14-.78.05-.1.06-.34.17-.73.36l-1,.49a9.89,9.89,0,0,1-2.42.77c-.38.08-.57.23-.57.47a.38.38,0,0,0,.22.36.68.68,0,0,0,.35.09l.81,0a1.26,1.26,0,0,1,1.13.44,3.51,3.51,0,0,1,.31,1.76V144a2.81,2.81,0,0,1-.32,1.53,2.48,2.48,0,0,1-1.25.8q-.39.16-.42.45a.36.36,0,0,0,.09.3.45.45,0,0,0,.35.12l.77-.06c.38-.06,1.59-.09,3.58-.09.95,0,1.53,0,1.76,0a6.84,6.84,0,0,0,1,.11c.47,0,.54-.28.54-.45s-.24-.46-.72-.5c-1.65-.1-2.48-.64-2.54-1.65l0-1.51v-7.23a2.58,2.58,0,0,1,1.19-2,4.42,4.42,0,0,1,2.74-.9,4.2,4.2,0,0,1,3.37,1.39,6,6,0,0,1,1.19,4v6.52c0,.73-.22,1.14-.68,1.26l-.57.15a.46.46,0,0,0-.41.47.38.38,0,0,0,.18.37l.3.08.56,0h.72l1.86-.06a19,19,0,0,1,2.29.09c.37,0,.61.06.75.06a.84.84,0,0,0,.61-.18.43.43,0,0,0,.11-.33c0-.25-.22-.41-.61-.46"/><path class="cls-5" d="M290.81,146.22l-.86-.1a1.57,1.57,0,0,1-1.17-.54,3.58,3.58,0,0,1-.28-1.75V131.09c0-.44-.18-.55-.34-.56h0l-1,.49a19.43,19.43,0,0,1-2.68,1.2c-.7.22-1,.42-1,.64a.3.3,0,0,0,.07.23,1,1,0,0,0,.72.18c.63,0,1,.14,1.22.42a4.24,4.24,0,0,1,.29,2v8.23a4,4,0,0,1-.23,1.61,1.21,1.21,0,0,1-.78.66l-.36.12a.51.51,0,0,0-.41.5c0,.2.11.44.61.44a6.24,6.24,0,0,0,.71-.05,3.42,3.42,0,0,1,.57-.06l1.38-.07,1.21,0c.55,0,1,0,1.32,0,.62.06,1,.09,1.24.09.49,0,.6-.22.62-.41s-.24-.51-.76-.58"/><path class="cls-5" d="M281.51,146.18l-.79-.11a1.6,1.6,0,0,1-1.51-1.37l-.06-.9,0-.57V138.7a9.21,9.21,0,0,0-1.22-5.25,5.7,5.7,0,0,0-4.87-2.52c-1.78,0-3.51,1-5.16,2.84V131.9c0-.28,0-.52,0-.71a.76.76,0,0,0-.13-.55c-.16-.16-.44-.14-.77.05l-.74.36-1,.49a9.89,9.89,0,0,1-2.42.77c-.38.08-.57.23-.57.47a.38.38,0,0,0,.22.36.68.68,0,0,0,.35.09l.81,0a1.26,1.26,0,0,1,1.13.44,3.4,3.4,0,0,1,.31,1.76V144a2.81,2.81,0,0,1-.32,1.53,2.43,2.43,0,0,1-1.25.8q-.39.16-.42.45a.36.36,0,0,0,.09.3.46.46,0,0,0,.35.12l.77-.06c.39-.06,1.59-.09,3.58-.09,1,0,1.53,0,1.76,0a6.84,6.84,0,0,0,1,.11c.47,0,.54-.28.54-.45s-.24-.46-.72-.5c-1.65-.1-2.48-.64-2.54-1.65l0-1.51v-7.23a2.59,2.59,0,0,1,1.18-2,4.44,4.44,0,0,1,2.74-.9,4.2,4.2,0,0,1,3.37,1.39,6,6,0,0,1,1.19,4v6.52c0,.73-.22,1.14-.68,1.26l-.56.15a.46.46,0,0,0-.42.47.4.4,0,0,0,.18.37l.3.08.56,0h.72l1.86-.06a19.08,19.08,0,0,1,2.3.09c.36,0,.6.06.74.06A.84.84,0,0,0,282,147a.43.43,0,0,0,.11-.33c0-.25-.22-.41-.61-.46"/><path class="cls-5" d="M257.81,140.2a7.36,7.36,0,0,1-1.33,4.62,4.4,4.4,0,0,1-3.62,1.68,5.34,5.34,0,0,1-4.4-2.39,9.79,9.79,0,0,1-1.79-6,6.91,6.91,0,0,1,1.42-4.52,4.63,4.63,0,0,1,3.73-1.72,5.11,5.11,0,0,1,4.3,2.31,10,10,0,0,1,1.69,6m-5.5-9.27a8.33,8.33,0,0,0-6,2.44,8.44,8.44,0,0,0-.15,11.82,8.22,8.22,0,0,0,6,2.3,8.5,8.5,0,0,0,6.14-2.37,8.06,8.06,0,0,0,2.43-6,7.81,7.81,0,0,0-2.47-5.77,8.17,8.17,0,0,0-5.91-2.42"/><path class="cls-5" d="M287.22,123.12c-.29,0-.66.26-1.15.81a2.27,2.27,0,0,0-.72,1.28,2.24,2.24,0,0,0,.65,1.26c.44.54.8.8,1.09.8s.67-.27,1.14-.82a2.18,2.18,0,0,0,.67-1.28.9.9,0,0,0-.21-.52l-.45-.73c-.34-.54-.68-.8-1-.8"/><path class="cls-5" d="M201.38,134.76c0,.24-.28.37-.85.37h-5.7l-.52,0c-.77,0-.77-.29-.77-.39a1.94,1.94,0,0,1,.24-.66l3.69-8.19c.12-.29.19-.31.2-.31s.23.09.41.57L201.2,134l.09.34h0a1.32,1.32,0,0,1,.09.41m10.26,11.4a4.84,4.84,0,0,1-2.34-.86,9.27,9.27,0,0,1-1.45-2.81l-.41-1-8.14-20.84c-.15-.41-.35-.62-.6-.62s-.46.21-.64.63l-9.72,21.6-.55,1.25a7.91,7.91,0,0,1-1,1.65c-.51.65-.81.84-1,.89l-.7.21a.49.49,0,0,0-.39.5c0,.17.07.45.61.45l1.06-.11.84,0c.77,0,1.47,0,2.09,0l1.81.11.65,0a.76.76,0,0,0,.54-.16.34.34,0,0,0,.08-.26q0-.41-.66-.54a3.84,3.84,0,0,1-1.7-.66,1.53,1.53,0,0,1-.42-1.21,7.89,7.89,0,0,1,.84-2.8l1.24-2.79a4.07,4.07,0,0,1,.87-1.48,3.73,3.73,0,0,1,1.68-.21h6.85c.89,0,1.16.09,1.23.15a3,3,0,0,1,.59,1.15l1,2.51a14.61,14.61,0,0,1,1.15,4,1,1,0,0,1-.87,1.19l-.59.14c-.45.09-.55.31-.55.48s.08.49.59.49a3.67,3.67,0,0,0,.6-.08,28.87,28.87,0,0,1,3.28-.11c1.66,0,2.84,0,3.49.09l.73,0c.5,0,.62-.22.63-.41s-.21-.48-.65-.56"/><path class="cls-5" d="M306.56,140.2a7.36,7.36,0,0,1-1.33,4.62,4.38,4.38,0,0,1-3.62,1.68,5.35,5.35,0,0,1-4.4-2.39,9.85,9.85,0,0,1-1.79-6,6.86,6.86,0,0,1,1.43-4.52,4.61,4.61,0,0,1,3.73-1.72,5.13,5.13,0,0,1,4.3,2.31,10.08,10.08,0,0,1,1.68,6m-5.5-9.27a8.33,8.33,0,0,0-6,2.44,8.43,8.43,0,0,0-.14,11.82,8.2,8.2,0,0,0,6,2.3,8.48,8.48,0,0,0,6.14-2.37,8.06,8.06,0,0,0,2.43-6,7.81,7.81,0,0,0-2.47-5.77,8.17,8.17,0,0,0-5.91-2.42"/><path class="cls-5" d="M231.28,146.18l-.79-.11A1.6,1.6,0,0,1,229,144.7l-.06-.9,0-.57V138.7a9.21,9.21,0,0,0-1.22-5.25,5.7,5.7,0,0,0-4.87-2.52c-1.78,0-3.51,1-5.16,2.84V131.9c0-.28,0-.52,0-.71a.76.76,0,0,0-.13-.55c-.15-.16-.44-.14-.77.05-.1.06-.35.18-.74.36l-1,.49a9.75,9.75,0,0,1-2.42.77c-.38.08-.57.23-.57.47a.38.38,0,0,0,.22.36.68.68,0,0,0,.35.09l.81,0a1.26,1.26,0,0,1,1.13.44,3.38,3.38,0,0,1,.31,1.76V144a2.81,2.81,0,0,1-.32,1.53,2.39,2.39,0,0,1-1.25.8q-.39.16-.42.45a.36.36,0,0,0,.09.3.46.46,0,0,0,.35.12l.77-.06c.39-.06,1.59-.09,3.58-.09,1,0,1.53,0,1.76,0a6.84,6.84,0,0,0,1,.11c.47,0,.54-.28.54-.45s-.24-.46-.72-.5c-1.65-.1-2.48-.64-2.53-1.65l0-1.51v-7.23a2.59,2.59,0,0,1,1.18-2,4.44,4.44,0,0,1,2.74-.9,4.2,4.2,0,0,1,3.37,1.39,6,6,0,0,1,1.19,4v6.52c0,.73-.22,1.14-.68,1.26l-.57.15a.46.46,0,0,0-.41.47.4.4,0,0,0,.18.37l.31.08.55,0h.72l1.86-.06a19.08,19.08,0,0,1,2.3.09c.36,0,.6.06.74.06a.81.81,0,0,0,.61-.18.43.43,0,0,0,.11-.33c0-.25-.22-.41-.61-.46"/><path class="cls-5" d="M243.19,145l-.16,0-1,.48a4.17,4.17,0,0,1-1.9.4,2.81,2.81,0,0,1-2.14-.78,3.6,3.6,0,0,1-.51-2.34v-9.41h4.39a.9.9,0,0,0,.92-.62l.44-1.08a1.59,1.59,0,0,0,.18-.51.33.33,0,0,0-.08-.27.28.28,0,0,0-.22-.05,1.24,1.24,0,0,0-.46.25,2.24,2.24,0,0,1-1.23.28H237.5l.07-3.17c0-.49-.2-.59-.36-.59s-.33.1-.81.88a16.41,16.41,0,0,1-3.36,3.73c-.36.3-.53.55-.53.76s.1.39.59.39h1.59v9.44c0,3.07,1.49,4.63,4.45,4.63a6.53,6.53,0,0,0,2.82-.73c1-.5,1.55-1,1.55-1.43a.29.29,0,0,0-.32-.31"/><line class="cls-6" x1="124.75" y1="161.84" x2="435.09" y2="161.84"/><g id="_SOD_" data-name="&lt;SOD&gt;"><path class="cls-7" d="M124.29,196.48c-.15-.73,0-1.13.4-1.13.51,0,.51.44.69,1.2a7.82,7.82,0,0,0,7.68,5.48c3.47,0,6.87-1.93,6.87-5.77,0-7-14.84-3.1-14.84-12.64,0-4.64,3.91-6.87,8.11-6.87,4.42,0,5.63,1.31,6.14,1.31.33,0,.4-.4.77-.4.22,0,.4.11.44.51l.55,5c0,.29,0,.55-.41.55s-.65-.77-.76-1.1a7,7,0,0,0-7-4.75c-2.89,0-6,1.39-6,4.75,0,6.87,14.84,2.85,14.84,12.94,0,3.07-2.16,7.67-10.45,7.67-2.71,0-6-1.35-6.18-2Z"/><path class="cls-7" d="M131.38,203.3c-2.74,0-6.12-1.36-6.28-2.08l-.91-4.72a1.35,1.35,0,0,1,.11-1.08.51.51,0,0,1,.39-.17c.51,0,.59.37.72.95,0,.1,0,.21.07.33a7.75,7.75,0,0,0,7.58,5.4c3.26,0,6.77-1.77,6.77-5.67,0-3.18-3.17-4.09-6.51-5-3.91-1.12-8.33-2.39-8.33-7.59,0-4.82,4.13-7,8.21-7a11.65,11.65,0,0,1,5.62,1.11,1.6,1.6,0,0,0,.52.2.39.39,0,0,0,.29-.16.66.66,0,0,1,.48-.24q.48,0,.54.6l.55,5a.65.65,0,0,1-.11.51.51.51,0,0,1-.4.15c-.47,0-.73-.78-.86-1.16A6.85,6.85,0,0,0,133,178c-2.92,0-5.86,1.43-5.86,4.64,0,3,2.92,3.88,6.29,4.86,4,1.16,8.55,2.48,8.55,8.08C141.93,199.12,139.16,203.3,131.38,203.3Zm-6.69-7.85a.28.28,0,0,0-.23.1,1.16,1.16,0,0,0-.07.91h0l.91,4.71c.13.58,3.38,1.93,6.08,1.93,3.67,0,6.45-.89,8.26-2.66a6.87,6.87,0,0,0,2.09-4.91c0-5.45-4.47-6.75-8.41-7.89-3.31-1-6.43-1.86-6.43-5,0-3.35,3-4.85,6.06-4.85a7,7,0,0,1,7.07,4.82c.1.28.35,1,.67,1a.34.34,0,0,0,.25-.08.47.47,0,0,0,.05-.35l-.54-5c0-.37-.19-.42-.34-.42s-.23.09-.34.18a.58.58,0,0,1-.43.23,1.62,1.62,0,0,1-.61-.23,11.32,11.32,0,0,0-5.53-1.09c-5.53,0-8,3.4-8,6.77,0,5,4.16,6.24,8.18,7.4,3.43,1,6.66,1.9,6.66,5.24a5.3,5.3,0,0,1-2.18,4.41,8.56,8.56,0,0,1-10.43-.67,7.73,7.73,0,0,1-2.13-3.42c0-.12-.06-.24-.08-.34C125.08,195.65,125,195.45,124.69,195.45Z"/><path class="cls-7" d="M143.9,195.46a8.26,8.26,0,0,1,8.22-8.34c1.83,0,4.31.52,4.42,1.36a20.61,20.61,0,0,1,0,2.15c0,.51-.11.77-.29.77-.37,0-.77-.69-.88-.84a5.3,5.3,0,0,0-4.53-2.23c-3.11,0-4.31,3.22-4.31,5.85,0,3.94,2.34,7.2,6.46,7.2,2.85,0,4.46-2.12,5-2.12.11,0,.29.11.29.22,0,.58-2.19,3.72-7.2,3.72C146.93,203.2,143.9,199.51,143.9,195.46Z"/><path class="cls-7" d="M151.13,203.3a7.61,7.61,0,0,1-7.33-7.84,8.39,8.39,0,0,1,8.32-8.44c1.82,0,4.4.5,4.52,1.45a16.07,16.07,0,0,1,0,1.8v.36c0,.72-.21.87-.39.87-.37,0-.71-.51-.9-.79,0,0,0-.07-.06-.09a5.2,5.2,0,0,0-4.45-2.19c-2.89,0-4.21,3-4.21,5.75,0,3.53,2,7.09,6.36,7.09a6.82,6.82,0,0,0,4.15-1.62c.4-.3.66-.49.86-.49s.39.14.39.32C158.43,200,156.33,203.3,151.13,203.3Zm1-16.07a8.18,8.18,0,0,0-8.12,8.23,7.41,7.41,0,0,0,7.13,7.64c5,0,7.1-3.13,7.1-3.62,0,0-.12-.12-.19-.12a2.23,2.23,0,0,0-.74.45,7,7,0,0,1-4.27,1.67c-3.92,0-6.56-2.94-6.56-7.3,0-2.87,1.38-6,4.41-6a5.37,5.37,0,0,1,4.61,2.27l.07.1c.14.21.47.7.73.7.08,0,.19-.18.19-.67v-.37a15.59,15.59,0,0,0,0-1.77C156.35,187.78,154,187.23,152.12,187.23Z"/><path class="cls-7" d="M163.76,189.72c1.39-1.31,3.18-2.6,5.26-2.6,4.68,0,6.1,4.06,6.1,7.2v6.11c0,1.9,2.92,1.13,2.92,2,0,.4-.32.48-.73.48-.66,0-1.68-.15-3.07-.15s-2.59.15-3,.15-.59-.11-.59-.4c0-.55,1.79-.55,1.79-1.87V194c0-4.54-3.14-5.38-4.42-5.38-1.64,0-4.27,1.43-4.27,3.29v7.71c0,3.15,3.21,2.12,3.21,2.82,0,.43-.18.51-.62.51-.77,0-2.59-.15-3.73-.15s-2.74.15-3.32.15a.35.35,0,0,1-.37-.37c0-.73,2.16-.33,2.16-2.12V179.82c0-2.19-2.81-1.24-2.81-2a.36.36,0,0,1,.29-.4c2.67-.51,3.91-1.83,4.75-1.83.22,0,.44.22.44.58Z"/><path class="cls-7" d="M177.31,203.05c-.27,0-.6,0-1-.06-.56,0-1.26-.09-2.08-.09s-1.76.07-2.31.11l-.68,0c-.57,0-.69-.28-.69-.5s.31-.43.67-.6,1.12-.53,1.12-1.27V194c0-5.22-4.14-5.28-4.32-5.28-1.65,0-4.17,1.43-4.17,3.19v7.71c0,2,1.41,2.25,2.35,2.38.48.07.86.12.86.44,0,.51-.25.61-.72.61s-.92,0-1.53-.06-1.58-.09-2.2-.09-1.49,0-2.15.09c-.5,0-.92.06-1.17.06a.45.45,0,0,1-.47-.47c0-.36.37-.48.8-.63.64-.22,1.36-.47,1.36-1.49V179.82c0-1.29-1-1.42-1.85-1.52-.52-.06-1-.12-1-.49a.47.47,0,0,1,.38-.5A11.34,11.34,0,0,0,162,176a3.25,3.25,0,0,1,1.36-.53.61.61,0,0,1,.54.68v13.33c1.8-1.66,3.49-2.47,5.16-2.47a5.52,5.52,0,0,1,4.89,2.47,9,9,0,0,1,1.31,4.83v6.11c0,1,.94,1.21,1.77,1.37.6.11,1.16.21,1.16.67S177.56,203.05,177.31,203.05Zm-3.07-.35c.83,0,1.53.05,2.09.09.39,0,.72.06,1,.06.46,0,.63-.11.63-.38s-.37-.36-1-.47c-.82-.16-1.94-.37-1.94-1.57v-6.11c0-5.23-3.1-7.09-6-7.09-1.67,0-3.37.84-5.19,2.56l-.17.17v-13.8c0-.3-.18-.48-.34-.48a3.38,3.38,0,0,0-1.27.51,11.46,11.46,0,0,1-3.46,1.32.26.26,0,0,0-.21.3c0,.18.3.23.79.29.8.1,2,.25,2,1.72v20.64c0,1.17-.86,1.46-1.5,1.68-.4.14-.65.24-.65.44a.24.24,0,0,0,.26.27c.24,0,.66,0,1.15-.06.68,0,1.51-.09,2.17-.09s1.47,0,2.21.08,1.18.07,1.52.07.52-.07.52-.41c0-.14-.32-.18-.69-.24-.94-.13-2.52-.35-2.52-2.58v-7.71c0-1.93,2.65-3.39,4.37-3.39.19,0,4.52.06,4.52,5.48v6.68c0,.86-.71,1.2-1.23,1.45-.3.14-.56.26-.56.42s.06.3.49.3l.66,0C172.47,202.76,173.31,202.7,174.24,202.7Z"/><path class="cls-7" d="M178.3,195.46a8.25,8.25,0,0,1,8.15-8.34c2.78,0,7.93,1.36,7.93,8.15a7.75,7.75,0,0,1-7.89,7.93C181.74,203.2,178.3,200.39,178.3,195.46Zm13.52.36c0-3.76-1.57-7.89-5.92-7.89-3.58,0-5,3.14-5,6.25,0,3.58,1.68,8.26,6,8.26C189.89,202.44,191.82,200.35,191.82,195.82Z"/><path class="cls-7" d="M186.49,203.3c-5,0-8.29-3.08-8.29-7.84a8.36,8.36,0,0,1,8.25-8.44c1.34,0,8,.4,8,8.25A7.83,7.83,0,0,1,186.49,203.3Zm0-16.07a8.15,8.15,0,0,0-8,8.23c0,4.64,3.17,7.64,8.08,7.64a7.64,7.64,0,0,0,7.79-7.83C194.28,187.61,187.76,187.23,186.45,187.23Zm.37,15.31c-4.16,0-6.06-4.34-6.06-8.36,0-2.93,1.35-6.35,5.14-6.35a5.26,5.26,0,0,1,4.68,2.58,10.35,10.35,0,0,1,1.35,5.41C191.93,200.15,190.11,202.54,186.82,202.54ZM185.9,188c-3.64,0-4.94,3.31-4.94,6.15a11,11,0,0,0,1.36,5.42,5.12,5.12,0,0,0,4.5,2.73c3.21,0,4.9-2.25,4.9-6.51C191.72,190.08,188.72,188,185.9,188Z"/><path class="cls-7" d="M196.14,195.46a8.24,8.24,0,0,1,8.15-8.34c2.77,0,7.92,1.36,7.92,8.15a7.75,7.75,0,0,1-7.89,7.93C199.57,203.2,196.14,200.39,196.14,195.46Zm13.52.36c0-3.76-1.57-7.89-5.92-7.89-3.58,0-5,3.14-5,6.25,0,3.58,1.68,8.26,6,8.26C207.72,202.44,209.66,200.35,209.66,195.82Z"/><path class="cls-7" d="M204.32,203.3c-5,0-8.28-3.08-8.28-7.84a8.36,8.36,0,0,1,8.25-8.44c1.34,0,8,.4,8,8.25A7.84,7.84,0,0,1,204.32,203.3Zm0-16.07a8.15,8.15,0,0,0-8,8.23c0,4.64,3.17,7.64,8.08,7.64a7.64,7.64,0,0,0,7.79-7.83C212.11,187.61,205.59,187.23,204.29,187.23Zm.36,15.31c-4.16,0-6.06-4.34-6.06-8.36,0-2.93,1.35-6.35,5.15-6.35a5.26,5.26,0,0,1,4.67,2.58,10.35,10.35,0,0,1,1.35,5.41C209.76,200.15,207.94,202.54,204.65,202.54ZM203.74,188c-3.65,0-4.94,3.31-4.94,6.15a10.92,10.92,0,0,0,1.36,5.42,5.09,5.09,0,0,0,4.49,2.73c3.21,0,4.91-2.25,4.91-6.51C209.56,190.08,206.55,188,203.74,188Z"/><path class="cls-7" d="M218.46,200c0,2.52,3,1.46,3,2.45,0,.43-.3.51-.85.51s-1.64-.15-3.36-.15-2.48.15-2.85.15-.44-.15-.44-.48c0-.55,1.79-.44,1.79-2V179.82c0-2.19-2.48-1.24-2.48-2a.39.39,0,0,1,.33-.4c2.81-.66,3.54-1.83,4.38-1.83.22,0,.44.22.44.58Z"/><path class="cls-7" d="M220.65,203.05l-.78,0c-.62,0-1.47-.11-2.58-.11a23.07,23.07,0,0,0-2.38.11c-.2,0-.35,0-.47,0s-.54-.1-.54-.58c0-.27.29-.4.62-.55.52-.24,1.17-.54,1.17-1.46V179.82c0-1.29-.9-1.42-1.62-1.52-.44-.06-.86-.12-.86-.49a.49.49,0,0,1,.41-.5,10.3,10.3,0,0,0,3.22-1.34,2.38,2.38,0,0,1,1.18-.49.61.61,0,0,1,.54.68V200c0,1.46,1.08,1.65,1.95,1.79.58.11,1.09.19,1.09.66S221.15,203.05,220.65,203.05Zm-3.36-.35c1.12,0,2,.06,2.6.1.33,0,.59,0,.76,0,.58,0,.74-.09.74-.41s-.34-.36-.91-.45c-.9-.16-2.12-.37-2.12-2V176.16c0-.3-.17-.48-.34-.48a2.36,2.36,0,0,0-1.08.46,10.46,10.46,0,0,1-3.28,1.37.29.29,0,0,0-.25.3c0,.19.25.23.69.29.71.1,1.8.25,1.8,1.72v20.64a1.76,1.76,0,0,1-1.3,1.65c-.26.12-.49.22-.49.36s.09.38.33.38l.45,0A23.58,23.58,0,0,1,217.29,202.7Z"/><path class="cls-7" d="M231.65,195.46a8.24,8.24,0,0,1,8.15-8.34c2.77,0,7.92,1.36,7.92,8.15a7.75,7.75,0,0,1-7.89,7.93C235.08,203.2,231.65,200.39,231.65,195.46Zm13.52.36c0-3.76-1.57-7.89-5.92-7.89-3.58,0-5.05,3.14-5.05,6.25,0,3.58,1.69,8.26,6,8.26C243.23,202.44,245.17,200.35,245.17,195.82Z"/><path class="cls-7" d="M239.83,203.3c-5,0-8.28-3.08-8.28-7.84A8.36,8.36,0,0,1,239.8,187c1.34,0,8,.4,8,8.25A7.84,7.84,0,0,1,239.83,203.3Zm0-16.07a8.15,8.15,0,0,0-8.05,8.23c0,4.64,3.17,7.64,8.08,7.64a7.64,7.64,0,0,0,7.79-7.83C247.62,187.61,241.1,187.23,239.8,187.23Zm.36,15.31c-4.16,0-6.06-4.34-6.06-8.36,0-2.93,1.35-6.35,5.15-6.35a5.26,5.26,0,0,1,4.67,2.58,10.35,10.35,0,0,1,1.35,5.41C245.27,200.15,243.45,202.54,240.16,202.54ZM239.25,188c-3.65,0-4.94,3.31-4.94,6.15a10.92,10.92,0,0,0,1.36,5.42,5.09,5.09,0,0,0,4.49,2.73c3.21,0,4.91-2.25,4.91-6.51C245.07,190.08,242.06,188,239.25,188Z"/><path class="cls-7" d="M251,187.6a14.49,14.49,0,0,1,2.15-7.71c.84-1.31,3.33-3.91,5.92-3.91.48,0,1.5.15,1.5.77s-.15,2.59-.55,2.59-.18-1.53-2.48-1.53c-1.94,0-3.25,2.08-3.58,3.76a32.82,32.82,0,0,0-.3,6h2.82a2.26,2.26,0,0,0,1.42-.62.27.27,0,0,1,.26.29,1.16,1.16,0,0,1-.22.51l-.73,1.32h-3.55v11.11c0,2.34,2.6,1.46,2.6,2.26,0,.44-.48.33-.77.33h-5.66c-.19,0-.59.07-.59-.22,0-.77,1.76-.33,1.76-2.08V189.1h-2.49l.22-1.5Z"/><path class="cls-7" d="M255.82,202.91H249.6a.56.56,0,0,1-.37-.1.32.32,0,0,1-.09-.23c0-.37.33-.51.68-.65a1.38,1.38,0,0,0,1.08-1.43V189.2h-2.51l.25-1.7h2.26a14.44,14.44,0,0,1,2.17-7.66c.65-1,3.16-4,6-4,.6,0,1.6.18,1.6.87,0,0,0,2.69-.65,2.69-.23,0-.32-.19-.44-.42-.21-.44-.54-1.11-2-1.11-1.8,0-3.13,1.9-3.48,3.68a26.76,26.76,0,0,0-.3,5.16c0,.25,0,.5,0,.75h2.71a1.71,1.71,0,0,0,1.21-.5c.09-.08.15-.12.21-.12a.37.37,0,0,1,.36.39,1.3,1.3,0,0,1-.23.57l-.76,1.36h-3.5v11c0,1.39.94,1.57,1.71,1.71.47.09.88.17.88.55a.41.41,0,0,1-.12.32A.6.6,0,0,1,255.82,202.91Zm-6-.21h5.82a.64.64,0,0,0,.45-.06.21.21,0,0,0,.06-.17c0-.2-.26-.26-.72-.35-.75-.14-1.88-.36-1.88-1.91V189h3.59l.7-1.27a1.15,1.15,0,0,0,.21-.46s0-.19-.16-.19,0,0-.08.08a2,2,0,0,1-1.34.54h-2.92v-.95a27.23,27.23,0,0,1,.3-5.2c.36-1.86,1.78-3.84,3.68-3.84,1.63,0,2,.76,2.23,1.22.1.2.16.31.25.31s.45-1.43.45-2.49c0-.55-1-.67-1.4-.67-2.54,0-5,2.61-5.83,3.87a14.38,14.38,0,0,0-2.14,7.65v.1h-2.28l-.19,1.3h2.47v11.5a1.58,1.58,0,0,1-1.21,1.62c-.35.14-.55.23-.55.46a.1.1,0,0,0,0,.08c.06.06.24.05.36,0Z"/><path class="cls-7" d="M270.79,181c0-3.73-3-2.56-3-3.55,0-.25.29-.36.51-.36,1.13,0,2.19.14,3.29.14,2.41,0,4.78-.14,7.93-.14,6.47,0,12.82,4.89,12.82,11.65,0,8.41-4,14.22-14.1,14.22-1.87,0-3.73-.15-5.59-.15-.33,0-3.84.15-4.09.15s-.37-.15-.37-.37c0-.84,2.59.07,2.59-3.4Zm2.89,16.66c0,.58-.11,2.34.22,2.67,1.21,1.2,4,1.64,5.63,1.64,5.19,0,10.12-2.78,10.12-11.22,0-8.11-5.41-12.71-12.35-12.75-3.47,0-3.62.59-3.62,2.3Z"/><path class="cls-7" d="M278.25,203.05c-.94,0-1.88,0-2.8-.07s-1.86-.08-2.79-.08l-2.25.08-1.84.07a.41.41,0,0,1-.47-.47c0-.35.34-.46.73-.58.74-.22,1.86-.57,1.86-2.82V181c0-2.38-1.22-2.69-2.11-2.91-.48-.12-.88-.22-.88-.64s.31-.46.61-.46c.57,0,1.14,0,1.68.07s1.07.07,1.61.07c1.12,0,2.24,0,3.43-.06,1.39,0,2.82-.08,4.5-.08,6.24,0,12.92,4.72,12.92,11.75C292.45,198.1,287.54,203.05,278.25,203.05Zm-5.59-.35c.93,0,1.88,0,2.8.07s1.86.08,2.79.08c9.16,0,14-4.88,14-14.12,0-6.91-6.58-11.55-12.72-11.55-1.68,0-3.11,0-4.49.08-1.19,0-2.31.07-3.44.07-.55,0-1.1,0-1.63-.08s-1.09-.07-1.66-.07c-.16,0-.41.07-.41.26s.25.32.73.44c.9.22,2.27.57,2.27,3.11v18.19c0,2.4-1.21,2.77-2,3-.39.12-.59.19-.59.38s0,.27.27.27l1.83-.07Zm6.87-.64c-1.39,0-4.38-.35-5.7-1.67a4.75,4.75,0,0,1-.26-2.36c0-.15,0-.28,0-.38V180.29c0-1.78.18-2.4,3.72-2.4,7.45,0,12.45,5.2,12.45,12.85,0,3.93-1.06,6.91-3.15,8.85A10.13,10.13,0,0,1,279.53,202.06Zm-2.23-24c-3.52,0-3.52.6-3.52,2.2V198a5.56,5.56,0,0,0,.19,2.21c1.19,1.19,4,1.62,5.56,1.62a9.94,9.94,0,0,0,6.93-2.42c2.05-1.9,3.09-4.83,3.09-8.7a12.7,12.7,0,0,0-3.54-9.33A12.45,12.45,0,0,0,277.3,178.09Z"/><path class="cls-7" d="M296.47,193.56c0,6,3.66,7.82,5.89,7.82,3.14,0,4.34-1.9,5.15-1.9.14,0,.14.14.14.25,0,.84-3.18,3.47-6.46,3.47-5.48,0-7.38-5.08-7.38-7.49,0-4.67,2.59-8.59,7.16-8.59s6.46,4.35,6.46,5.82c0,.65-.4.62-1.24.62Zm7.2-1c.51,0,.73-.18.73-.73a4.18,4.18,0,0,0-4-3.87c-2.27,0-3.88,2.59-3.88,4.6Z"/><path class="cls-7" d="M301.19,203.3c-5.6,0-7.48-5.21-7.48-7.59,0-5.11,3-8.69,7.26-8.69,4.59,0,6.57,4.49,6.57,5.92a.71.71,0,0,1-.17.52c-.18.18-.49.2-.93.2h-9.86c0,2.69,1.26,7.61,5.78,7.61a6.75,6.75,0,0,0,4.09-1.38,2.22,2.22,0,0,1,1.06-.52c.25,0,.25.26.25.36C307.76,200.68,304.49,203.3,301.19,203.3ZM301,187.23c-4.16,0-7.06,3.49-7.06,8.48,0,2.32,1.83,7.39,7.28,7.39,3.28,0,6.36-2.61,6.36-3.37,0-.15,0-.15,0-.15a2.19,2.19,0,0,0-.95.48,6.94,6.94,0,0,1-4.2,1.42,5.58,5.58,0,0,1-3.85-1.68,8.64,8.64,0,0,1-2.14-6.24v-.11h9.95c.48,0,.77,0,.91-.13a.54.54,0,0,0,.1-.38C307.33,191.56,305.42,187.23,301,187.23Zm2.7,5.44h-7.3v-.1c0-2.18,1.74-4.71,4-4.71a4.29,4.29,0,0,1,4.15,4C304.5,192.42,304.26,192.67,303.67,192.67Zm-7.09-.2h7.09c.48,0,.63-.15.63-.63a4.07,4.07,0,0,0-3.95-3.77C298.26,188.07,296.63,190.41,296.58,192.47Z"/><path class="cls-7" d="M313.72,200c0,2.52,3.21,1.46,3.21,2.45,0,.43-.25.51-.8.51s-1.35-.15-3.47-.15c-1.94,0-2.67.15-3.11.15s-.66-.08-.66-.44c0-.73,2.16,0,2.16-2.38v-9.06c0-2.19-2.7-1.24-2.7-2a.39.39,0,0,1,.33-.4c3-.66,3.76-1.83,4.6-1.83.22,0,.44.22.44.59v2.41c-.08.44,1.75-2.71,5.3-2.71,4.89,0,6,4.06,6,6.84v6c0,2.52,2.85,1.46,2.85,2.45,0,.43-.25.51-.62.51s-1.39-.15-3.18-.15c-1.39,0-2.15.15-2.63.15s-.66-.08-.66-.44c0-.73,1.57,0,1.57-2.38V193.3c0-1.83-1.31-4.57-4.27-4.57s-4.35,2.27-4.31,2.85Z"/><path class="cls-7" d="M327.2,203.05l-.66,0c-.54,0-1.34-.11-2.52-.11-.87,0-1.5.06-2,.1a6.42,6.42,0,0,1-.67.05c-.41,0-.76,0-.76-.54,0-.33.27-.43.53-.53.44-.16,1-.39,1-1.85V193.3c0-1.8-1.32-4.46-4.17-4.46a4.64,4.64,0,0,0-3.47,1.39,2.46,2.46,0,0,0-.74,1.35V200c0,1.46,1.15,1.65,2.07,1.79.61.1,1.14.19,1.14.66s-.4.61-.9.61c-.22,0-.46,0-.76,0-.57,0-1.34-.11-2.71-.11s-2.06.07-2.55.11c-.24,0-.41,0-.56,0-.41,0-.76,0-.76-.54,0-.34.34-.43.71-.53a1.63,1.63,0,0,0,1.45-1.85v-9.06c0-1.29-1-1.41-1.77-1.51-.5-.07-.93-.12-.93-.5a.5.5,0,0,1,.41-.5,10.86,10.86,0,0,0,3.46-1.36,2.46,2.46,0,0,1,1.16-.47c.26,0,.54.24.54.69v2.23a.6.6,0,0,0,.08-.08A7,7,0,0,1,319,187a5.44,5.44,0,0,1,4.9,2.43,8.67,8.67,0,0,1,1.15,4.51v6c0,1.46,1,1.65,1.83,1.79.53.1,1,.19,1,.66S327.56,203.05,327.2,203.05ZM324,202.7c1.19,0,2,.06,2.53.11l.65,0c.4,0,.52-.1.52-.41s-.31-.36-.86-.45c-.84-.16-2-.37-2-2v-6c0-2-.57-6.73-5.85-6.73a6.83,6.83,0,0,0-5,2.47c-.23.25-.28.3-.37.26s-.08-.05-.06-.15v-2.39c0-.3-.18-.49-.34-.49a2.34,2.34,0,0,0-1.06.44,10.68,10.68,0,0,1-3.52,1.39.29.29,0,0,0-.25.3c0,.19.28.24.75.29.78.1,1.95.26,1.95,1.72v9.06a1.84,1.84,0,0,1-1.6,2.05c-.36.09-.55.15-.55.33s.07.34.55.34c.14,0,.31,0,.54,0,.5,0,1.25-.11,2.57-.11s2.16.06,2.73.1c.29,0,.53,0,.74,0,.56,0,.7-.08.7-.41s-.37-.36-1-.45c-.95-.16-2.24-.36-2.24-2v-8.41a2.52,2.52,0,0,1,.79-1.49,4.85,4.85,0,0,1,3.62-1.46c3,0,4.38,2.79,4.38,4.67v6.83c0,1.6-.71,1.87-1.18,2-.28.1-.4.16-.4.34s.08.34.56.34a6.29,6.29,0,0,0,.65,0C322.51,202.76,323.14,202.7,324,202.7Z"/><path class="cls-7" d="M329.86,189.1c-1.71,0-2,0-2-.26s.91-.91,2.78-3c.73-.87,1.09-1.68,1.39-1.68.51,0,.47.77.47,3.4h4A2.26,2.26,0,0,0,338,187a.27.27,0,0,1,.26.29,1.16,1.16,0,0,1-.22.51l-.73,1.32h-4.75v10.63c.07,1.5,1.1,2.19,2.56,2.19,1.93,0,2.48-.84,3.1-.84.15,0,.3,0,.3.33,0,.55-2,1.79-4.54,1.79-1.68,0-4.09-.47-4.09-4.24Z"/><path class="cls-7" d="M334,203.3c-2.78,0-4.19-1.46-4.19-4.34V189.2c-1.74,0-2,0-2-.36,0-.19.23-.42.79-1s1.13-1.1,2-2.07c.28-.33.52-.67.71-.94.33-.48.53-.77.76-.77s.47.36.51.7a22,22,0,0,1,.06,2.31v.39h3.92a1.71,1.71,0,0,0,1.21-.5c.1-.08.15-.12.21-.12a.37.37,0,0,1,.36.39,1.34,1.34,0,0,1-.23.57l-.76,1.36h-4.71v10.53c.07,1.35.94,2.09,2.46,2.09a4.5,4.5,0,0,0,2.34-.58,1.86,1.86,0,0,1,.76-.26c.27,0,.4.15.4.43C338.59,202,336.58,203.3,334,203.3Zm-1.89-19c-.13,0-.36.33-.6.68s-.42.62-.71,1c-.9,1-1.58,1.64-2,2.07s-.73.71-.73.82.33.16,1.87.16h.1v10c0,2.79,1.31,4.14,4,4.14s4.44-1.27,4.44-1.69c0-.21-.08-.23-.2-.23a1.62,1.62,0,0,0-.66.24,4.74,4.74,0,0,1-2.44.6c-1.62,0-2.59-.83-2.66-2.28V189h4.79l.7-1.27a1.21,1.21,0,0,0,.21-.46s0-.19-.16-.19,0,0-.08.08a2,2,0,0,1-1.34.54h-4.12v-.59a21.28,21.28,0,0,0-.06-2.28C332.31,184.34,332.18,184.3,332.06,184.3Z"/><path class="cls-7" d="M342,191.07c0-2.19-2-1.24-2-2a.39.39,0,0,1,.33-.4c2.33-.66,3.07-1.83,3.91-1.83.22,0,.44.22.44.59v13.12c0,1.86,2.88,1.06,2.88,2,0,.29-.22.4-.69.4-.77,0-1.9-.15-3.4-.15-1.17,0-2.12.15-2.52.15s-.51,0-.55-.4c0-.92,1.61.47,1.61-2.85Zm2.85-9.54c0,.44-1.06,1.9-1.54,1.9s-1.53-1.49-1.53-1.9,1.09-1.93,1.53-1.93S344.85,181.1,344.85,181.53Z"/><path class="cls-7" d="M346.86,203.05c-.33,0-.71,0-1.16-.06-.61,0-1.37-.09-2.24-.09s-1.38.06-1.86.1c-.28,0-.51.05-.66.05s-.61,0-.65-.5.26-.46.52-.52c.46-.1,1.09-.23,1.09-2.33v-8.63c0-1.29-.72-1.41-1.3-1.51-.35-.06-.71-.13-.71-.5a.5.5,0,0,1,.41-.5,9.1,9.1,0,0,0,2.67-1.27,2.49,2.49,0,0,1,1.26-.56.62.62,0,0,1,.54.69v13.12c0,1,.91,1.16,1.71,1.31.61.11,1.17.22,1.17.7S347.23,203.05,346.86,203.05Zm-3.4-.35c.88,0,1.64.05,2.25.09.45,0,.83.06,1.15.06.54,0,.59-.16.59-.3,0-.3-.38-.38-1-.5-.84-.15-1.89-.34-1.89-1.51V187.42c0-.3-.17-.49-.33-.49a2.4,2.4,0,0,0-1.15.53,9.21,9.21,0,0,1-2.74,1.3.3.3,0,0,0-.25.3c0,.18.16.23.54.3a1.48,1.48,0,0,1,1.47,1.71v8.63c0,2.26-.75,2.42-1.25,2.53-.27.06-.36.09-.36.32s.14.3.45.3c.14,0,.36,0,.64,0C342.06,202.76,342.72,202.7,343.46,202.7Zm-.15-19.16c-.52,0-1.63-1.57-1.63-2s1.13-2,1.63-2,1.64,1.55,1.64,2S343.87,183.54,343.31,183.54Zm0-3.84c-.36,0-1.43,1.47-1.43,1.83s1.06,1.8,1.43,1.8,1.44-1.39,1.44-1.8S343.71,179.7,343.31,179.7Z"/><path class="cls-7" d="M349.39,191.51c0-2.92,2.26-4.39,4.93-4.39.62,0,3.14.3,3.58.85a5,5,0,0,1,.18,1.79c0,1,.15,1.42-.4,1.42-.37,0-.69-3.18-4-3.18a2.33,2.33,0,0,0-2.56,2.34c0,1.21.95,2,4.79,3.51,2.08.87,3,2,3,4.35a5,5,0,0,1-4.93,5c-2.56,0-3.22-1.06-4.09-1.06s-.81,0-.81-2.92c0-.62-.11-1.79.44-1.79.81,0,.4,4.82,4.35,4.82a3,3,0,0,0,3.25-3c0-1.94-1.86-2.53-3.32-3.22C351.83,195.05,349.39,194.1,349.39,191.51Z"/><path class="cls-7" d="M354,203.3a6.29,6.29,0,0,1-3.15-.74,2.19,2.19,0,0,0-.94-.32c-.91,0-.91-.11-.91-3V199c0-.55,0-1.22.24-1.5a.41.41,0,0,1,.3-.12c.33,0,.46.47.67,1.18.41,1.45,1,3.64,3.68,3.64a2.86,2.86,0,0,0,3.15-2.89c0-1.65-1.39-2.28-2.74-2.89l-.53-.24-.52-.26c-1.85-.9-4-1.93-4-4.36,0-2.73,2-4.49,5-4.49.58,0,3.18.29,3.66.88a4.18,4.18,0,0,1,.2,1.76v.1c0,.19,0,.36,0,.51,0,.45,0,.72-.13.88a.47.47,0,0,1-.38.13c-.16,0-.24-.19-.4-.55a3.73,3.73,0,0,0-3.62-2.63,2.23,2.23,0,0,0-2.46,2.24c0,1.18,1.06,1.95,4.73,3.41,2.23.94,3.09,2.19,3.09,4.45A5.07,5.07,0,0,1,354,203.3Zm-4.46-5.77a.18.18,0,0,0-.15.07c-.21.21-.2.86-.19,1.34v.28c0,2.82,0,2.82.71,2.82a2.36,2.36,0,0,1,1,.34,6.23,6.23,0,0,0,3.06.72,4.87,4.87,0,0,0,4.83-4.9c0-2.19-.8-3.35-3-4.26-3.81-1.52-4.85-2.3-4.85-3.6a2.42,2.42,0,0,1,2.66-2.44,4,4,0,0,1,3.8,2.75,1.66,1.66,0,0,0,.23.43.3.3,0,0,0,.23-.07c.09-.1.08-.36.07-.73,0-.16,0-.33,0-.52v-.11a3.84,3.84,0,0,0-.16-1.62c-.39-.49-2.77-.8-3.5-.8-2.23,0-4.83,1.12-4.83,4.28,0,2.31,1.95,3.26,3.84,4.18l.52.26.52.24c1.34.6,2.86,1.29,2.86,3.07a3.09,3.09,0,0,1-3.35,3.09c-2.79,0-3.47-2.37-3.88-3.78C349.85,198,349.7,197.53,349.53,197.53Z"/><path class="cls-7" d="M362.29,189.1c-1.72,0-2,0-2-.26s.91-.91,2.77-3c.73-.87,1.1-1.68,1.39-1.68.51,0,.48.77.48,3.4h4a2.27,2.27,0,0,0,1.43-.62.28.28,0,0,1,.26.29,1.16,1.16,0,0,1-.22.51l-.73,1.32H365v10.63c.07,1.5,1.09,2.19,2.55,2.19,1.94,0,2.49-.84,3.11-.84.15,0,.29,0,.29.33,0,.55-2,1.79-4.53,1.79-1.68,0-4.09-.47-4.09-4.24Z"/><path class="cls-7" d="M366.38,203.3c-2.78,0-4.19-1.46-4.19-4.34V189.2c-1.75,0-2,0-2-.36,0-.19.24-.42.8-1s1.12-1.1,2-2.07c.28-.33.51-.67.7-.94.33-.48.53-.77.76-.77s.47.36.52.7a22,22,0,0,1,.06,2.31v.39H369a1.72,1.72,0,0,0,1.22-.5c.09-.08.14-.12.21-.12a.37.37,0,0,1,.36.39,1.25,1.25,0,0,1-.24.57l-.75,1.36h-4.71v10.53c.06,1.35.93,2.09,2.45,2.09a4.54,4.54,0,0,0,2.35-.58,1.77,1.77,0,0,1,.76-.26c.26,0,.39.15.39.43C371,202,369,203.3,366.38,203.3Zm-1.9-19c-.12,0-.35.33-.59.68s-.43.62-.72,1c-.89,1-1.57,1.64-2,2.07s-.73.71-.73.82.32.16,1.87.16h.1v10c0,2.79,1.31,4.14,4,4.14s4.43-1.27,4.43-1.69c0-.21-.08-.23-.19-.23a1.65,1.65,0,0,0-.67.24,4.74,4.74,0,0,1-2.44.6,2.34,2.34,0,0,1-2.66-2.28V189h4.8l.7-1.27a1.21,1.21,0,0,0,.21-.46s0-.19-.16-.19,0,0-.08.08a2,2,0,0,1-1.35.54h-4.12v-.59a19.5,19.5,0,0,0-.05-2.28C364.73,184.34,364.61,184.3,364.48,184.3Z"/><path class="cls-7" d="M377,199.73c0,3.4,3.26,1.65,3.26,2.82,0,.32-.19.4-.59.4s-1.39-.15-3.43-.15a29.76,29.76,0,0,0-3.37.15c-.29,0-.4-.11-.4-.33,0-.77,1.87-.62,1.87-2.12v-9.43c0-2.19-2.63-1.24-2.63-2,0-.22.29-.36.47-.4,2.81-.66,3.54-1.83,4.39-1.83.22,0,.43.22.43.59v2.74h.08c.76-1.06,2.08-3,3.61-3,.77,0,2.42,1,2.42,1.65s-.88,1.64-1.32,1.64c-.69,0-1.1-.84-2.41-.84a2.71,2.71,0,0,0-2.38,2.16Z"/><path class="cls-7" d="M379.65,203.05c-.17,0-.38,0-.67,0-.56,0-1.4-.11-2.76-.11a27.47,27.47,0,0,0-3.08.13l-.29,0c-.33,0-.5-.15-.5-.43s.37-.57.76-.76,1.11-.55,1.11-1.36v-9.43c0-1.29-1-1.41-1.73-1.51-.48-.07-.91-.12-.91-.5s.35-.46.56-.5a9.84,9.84,0,0,0,3.22-1.34,2.47,2.47,0,0,1,1.19-.49c.26,0,.54.24.54.69V190l0-.06c.82-1.14,2.06-2.87,3.55-2.87.81,0,2.52,1,2.52,1.75,0,.6-.93,1.75-1.42,1.75a1.63,1.63,0,0,1-.86-.34,2.69,2.69,0,0,0-1.55-.5,2.62,2.62,0,0,0-2.27,2v8c0,2.05,1.19,2.14,2.15,2.21.56,0,1.1.08,1.1.61S380,203.05,379.65,203.05Zm-3.43-.35c1.36,0,2.21.07,2.78.11,1,.07,1.14.05,1.13-.26s-.31-.37-.91-.41c-.93-.07-2.34-.17-2.34-2.41v-8A2.57,2.57,0,0,1,381,190a1.5,1.5,0,0,0,.76.3c.35,0,1.21-1,1.21-1.54s-1.55-1.54-2.31-1.54c-1.38,0-2.63,1.74-3.38,2.78l-.18.25h-.23v-2.84c0-.3-.17-.49-.33-.49a2.38,2.38,0,0,0-1.09.47,10.05,10.05,0,0,1-3.28,1.36c-.16,0-.39.16-.39.3s.28.24.73.29c.76.1,1.9.26,1.9,1.72v9.43c0,.93-.68,1.27-1.22,1.54s-.65.33-.65.58,0,.23.3.23l.27,0A29.33,29.33,0,0,1,376.22,202.7Z"/><path class="cls-7" d="M390.46,210.11c0,.11-.69.11-1.2.11s-1.36,0-1.36-.26c0-.8,3.33-3.54,3.33-6.39a6.33,6.33,0,0,0-.73-2.45l-4.79-11.8c-.33-.81-1.71-.84-1.71-1.35s.21-.44.73-.44c.76,0,1.57.14,2.55.14,1.28,0,2.12-.14,2.71-.14s.76.07.76.47c0,.77-2.08,0-2.08,1.5a2.51,2.51,0,0,0,.18.88l3.91,9.94,2.82-8.26a5.52,5.52,0,0,0,.44-1.9c0-2-2.34-1.43-2.34-2.23,0-.37.44-.4,1.09-.4.44,0,1,.14,2.05.14.84,0,1.5-.14,1.86-.14s.7.14.7.44c0,.84-1.24-.08-2,2.12Z"/><path class="cls-7" d="M389,210.32c-.52,0-.92,0-1.08-.18a.25.25,0,0,1-.08-.18c0-.31.4-.82.95-1.52.95-1.21,2.38-3.05,2.38-4.87a5.38,5.38,0,0,0-.61-2.14l-.11-.27-4.79-11.8c-.16-.39-.61-.59-1-.77s-.73-.32-.73-.62c0-.5.4-.54.84-.54s.73,0,1.12.06.91.08,1.43.08c.76,0,1.37,0,1.85-.09.33,0,.62,0,.86,0,.49,0,.87,0,.87.57s-.45.48-.88.55c-.59.09-1.21.19-1.21.95a2.36,2.36,0,0,0,.18.84l3.81,9.68,2.72-8a5.38,5.38,0,0,0,.43-1.86c0-1.13-.78-1.37-1.47-1.58-.45-.13-.86-.26-.86-.65s.63-.5,1.19-.5a5,5,0,0,1,.62,0,12.26,12.26,0,0,0,1.43.09,10.65,10.65,0,0,0,1.28-.09,4.86,4.86,0,0,1,.58,0c.72,0,.8.37.8.54,0,.4-.27.48-.55.57s-1,.3-1.43,1.58l-6.94,20c-.05.15-.36.18-1.3.18H389Zm-4.23-22.69c-.54,0-.63.08-.63.34s.28.29.6.44a1.93,1.93,0,0,1,1.11.87l4.9,12.07a5.67,5.67,0,0,1,.62,2.22c0,1.89-1.46,3.76-2.42,5a4.2,4.2,0,0,0-.9,1.4,0,0,0,0,0,0,0,2.52,2.52,0,0,0,1.08.13h.16a4.79,4.79,0,0,0,1.11-.07l6.94-20c.46-1.37,1.12-1.57,1.57-1.71.29-.09.4-.13.4-.37s-.33-.34-.6-.34a4.44,4.44,0,0,0-.55.05,11.38,11.38,0,0,1-1.31.09,12.5,12.5,0,0,1-1.45-.09,5,5,0,0,0-.6-.05c-.66,0-1,0-1,.3s.27.32.72.46c.68.2,1.62.49,1.62,1.77a5.46,5.46,0,0,1-.45,1.93l-2.9,8.52-4-10.2a2.47,2.47,0,0,1-.19-.91c0-.93.8-1.06,1.38-1.15s.7-.12.7-.35-.09-.37-.66-.37c-.23,0-.51,0-.84.05-.49,0-1.1.09-1.87.09-.52,0-1,0-1.45-.08S385.08,187.63,384.73,187.63Z"/></g></g></svg>