<?xml version="1.0" encoding="utf-8"?>
<!-- Generator: Adobe Illustrator 27.9.0, SVG Export Plug-In . SVG Version: 6.00 Build 0)  -->
<svg version="1.1" id="artwork" xmlns="http://www.w3.org/2000/svg" xmlns:xlink="http://www.w3.org/1999/xlink" x="0px" y="0px"
	 width="219.6px" height="126px" viewBox="0 0 219.6 126" style="enable-background:new 0 0 219.6 126;" xml:space="preserve">
<style type="text/css">
	.st0{fill:#FFFFFF;}
</style>
<metadata><?xpacket begin="﻿" id="W5M0MpCehiHzreSzNTczkc9d"?>
<x:xmpmeta xmlns:x="adobe:ns:meta/" x:xmptk="Adobe XMP Core 9.1-c001 79.675d0f7, 2023/06/11-19:21:16        ">
   <rdf:RDF xmlns:rdf="http://www.w3.org/1999/02/22-rdf-syntax-ns#">
      <rdf:Description rdf:about=""
            xmlns:dc="http://purl.org/dc/elements/1.1/"
            xmlns:xmp="http://ns.adobe.com/xap/1.0/"
            xmlns:xmpGImg="http://ns.adobe.com/xap/1.0/g/img/"
            xmlns:xmpMM="http://ns.adobe.com/xap/1.0/mm/"
            xmlns:stRef="http://ns.adobe.com/xap/1.0/sType/ResourceRef#"
            xmlns:stEvt="http://ns.adobe.com/xap/1.0/sType/ResourceEvent#"
            xmlns:illustrator="http://ns.adobe.com/illustrator/1.0/"
            xmlns:xmpTPg="http://ns.adobe.com/xap/1.0/t/pg/"
            xmlns:stDim="http://ns.adobe.com/xap/1.0/sType/Dimensions#"
            xmlns:xmpG="http://ns.adobe.com/xap/1.0/g/"
            xmlns:pdf="http://ns.adobe.com/pdf/1.3/"
            xmlns:ExtensisFontSense="http://www.extensis.com/meta/FontSense/">
         <dc:format>image/svg+xml</dc:format>
         <dc:title>
            <rdf:Alt>
               <rdf:li xml:lang="x-default">UTHSA-ESS_H</rdf:li>
            </rdf:Alt>
         </dc:title>
         <dc:creator>
            <rdf:Seq>
               <rdf:li>Maeghan Cox</rdf:li>
            </rdf:Seq>
         </dc:creator>
         <xmp:MetadataDate>2023-10-31T15:01:25-05:00</xmp:MetadataDate>
         <xmp:ModifyDate>2023-10-31T15:01:25-05:00</xmp:ModifyDate>
         <xmp:CreateDate>2023-10-31T15:01:25-05:00</xmp:CreateDate>
         <xmp:CreatorTool>Adobe Illustrator 27.9 (Macintosh)</xmp:CreatorTool>
         <xmp:Thumbnails>
            <rdf:Alt>
               <rdf:li rdf:parseType="Resource">
                  <xmpGImg:width>256</xmpGImg:width>
                  <xmpGImg:height>140</xmpGImg:height>
                  <xmpGImg:format>JPEG</xmpGImg:format>
                  <xmpGImg:image>/9j/4AAQSkZJRgABAgEASABIAAD/7QAsUGhvdG9zaG9wIDMuMAA4QklNA+0AAAAAABAASAAAAAEA&#xA;AQBIAAAAAQAB/+4ADkFkb2JlAGTAAAAAAf/bAIQABgQEBAUEBgUFBgkGBQYJCwgGBggLDAoKCwoK&#xA;DBAMDAwMDAwQDA4PEA8ODBMTFBQTExwbGxscHx8fHx8fHx8fHwEHBwcNDA0YEBAYGhURFRofHx8f&#xA;Hx8fHx8fHx8fHx8fHx8fHx8fHx8fHx8fHx8fHx8fHx8fHx8fHx8fHx8fHx8f/8AAEQgAjAEAAwER&#xA;AAIRAQMRAf/EAaIAAAAHAQEBAQEAAAAAAAAAAAQFAwIGAQAHCAkKCwEAAgIDAQEBAQEAAAAAAAAA&#xA;AQACAwQFBgcICQoLEAACAQMDAgQCBgcDBAIGAnMBAgMRBAAFIRIxQVEGE2EicYEUMpGhBxWxQiPB&#xA;UtHhMxZi8CRygvElQzRTkqKyY3PCNUQnk6OzNhdUZHTD0uIIJoMJChgZhJRFRqS0VtNVKBry4/PE&#xA;1OT0ZXWFlaW1xdXl9WZ2hpamtsbW5vY3R1dnd4eXp7fH1+f3OEhYaHiImKi4yNjo+Ck5SVlpeYmZ&#xA;qbnJ2en5KjpKWmp6ipqqusra6voRAAICAQIDBQUEBQYECAMDbQEAAhEDBCESMUEFURNhIgZxgZEy&#xA;obHwFMHR4SNCFVJicvEzJDRDghaSUyWiY7LCB3PSNeJEgxdUkwgJChgZJjZFGidkdFU38qOzwygp&#xA;0+PzhJSktMTU5PRldYWVpbXF1eX1RlZmdoaWprbG1ub2R1dnd4eXp7fH1+f3OEhYaHiImKi4yNjo&#xA;+DlJWWl5iZmpucnZ6fkqOkpaanqKmqq6ytrq+v/aAAwDAQACEQMRAD8A9U4q7FXYq7FXYq7FXYq7&#xA;FXYq7FXYq7FXYq7FXYq7FXYq7FXYq7FXYq7FXYq7FXYq7FXYq7FXYq7FXYq7FXYq7FXYq7FXYq7F&#xA;XYq7FXYq7FXYq7FXYq7FXYq7FXYq7FXYq7FXYq7FXYq7FXYq7FXYq7FXYq7FXYq7FXYq7FXYq7FX&#xA;Yq7FXYq7FXYq7FXYq7FXYq7FXYq7FXYq7FXYq7FXYq7FXYq7FXYq7FXYq7FXYq7FXYq7FXYq7FXY&#xA;q7FXYq7FXYq7FXYq7FXYq7FXYq7FXYq7FXYq7FXYq7FXYq7FXYq7FXYq7FXYq7FXYq7FXYq7FXYq&#xA;7FXYq7FXYq7FXYq7FXYq7FXYq7FXYq7FXYq7FXYq7FXYq7FXYq7FXYq7FXYq7FXYq7FXYq7FXYq7&#xA;FXYq7FXYq7FXYq7FXYq7FXYq7FXYq7FXYq7FXYq7FXYq7FXYq7FXYq7FXYq7FXYq7FXYq7FXYq7F&#xA;XYq7FXYq7FXYq7FXYq7FXYq7FXYq7FXYq7FXYq7FXYq7FXYq7FXYq7FXYq7FXYq7FXYq7FXYq7FX&#xA;Yq7FXYq7FXYq7FXYq7FXYq7FXYq7FXYq7FXYq7FXYq7FXYq7FXYq7FXYq7FXYq7FXYq7FXYq7FXY&#xA;q7FXYq7FXYq7FXYq7FXYq7FXYq7FXYq7FXYq7FXYq7FXYq7FXYq7FXYq7FXYq7FXYq7FXYq7FXYq&#xA;7FXYq7FXYq7FXYq7FXYq7FXYq7FXYq7FXYq7FXYq7FXYq7FXYq7FXYq7FXYq7FXYq7FXYq7FXYq7&#xA;FXYq7FXYq7FXYq7FXYq7FXYq7FXYq7FXYq7FXYq7FXYq7FXYq7FXYq7FXYq7FXYq7FXYq7FXYq7F&#xA;XYq7FXYq7FXYq7FXYq7FXYq7FXYq7FXYq7FXYq7FXYq7FXYq7FXYq7FXYq7FXYq7FXYq7FXYq7FX&#xA;Yq7FXYq7FXYq7FXYq7FXYq7FXYq7FXYq7FXYq7FXYq7FXYq7FXYq7FXYq7FXYq7FXYq7FXYq7FXY&#xA;q7FXYq7FXYq7FXYq7FXYq7FXYq7FXYq7FXYq7FXYq7FXYq7FXYq7FXYq7FXYq7FXYq7FXYq7FXYq&#xA;7FXYq7FXYq7FXYq7FXYq7FXYq7FXYq7FXYq7FXYq7FXYq7FXYq7FXYq7FXYq7FXYq7FXYq7FXYq7&#xA;FXYq7FXYq7FXYq7FXYq7FXYq7FXYq7FXYq7FXYq7FXYq7FXYq7FXYq7FXYq7FXYq7FXYq7FXYq7F&#xA;XYq7FXYq7FXYq7FXYq7FXYq7FXYq7FXYq7FXYq7FXYq7FXYq7FXYq7FXYq7FXYq7FXYq7FXYq7FX&#xA;Yq7FXYq7FXYq7FXYq7FXYq7FXYq7FXYq7FXYq7FXYq7FXYq7FXYq7FXYq7FXYq7FXYq7FXYq7FXY&#xA;q7FXYq7FXYq7FXYq7FXYq7FXYq7FXYq7FXYq7FXYq7FXYq7FXYq7FX//2Q==</xmpGImg:image>
               </rdf:li>
            </rdf:Alt>
         </xmp:Thumbnails>
         <xmpMM:InstanceID>xmp.iid:9432f0c6-10a1-4379-b417-97e990e0bf68</xmpMM:InstanceID>
         <xmpMM:DocumentID>xmp.did:9432f0c6-10a1-4379-b417-97e990e0bf68</xmpMM:DocumentID>
         <xmpMM:OriginalDocumentID>uuid:5D20892493BFDB11914A8590D31508C8</xmpMM:OriginalDocumentID>
         <xmpMM:RenditionClass>default</xmpMM:RenditionClass>
         <xmpMM:DerivedFrom rdf:parseType="Resource">
            <stRef:instanceID>xmp.iid:c2b27702-3b01-4d06-816d-f627fb01d23f</stRef:instanceID>
            <stRef:documentID>xmp.did:c2b27702-3b01-4d06-816d-f627fb01d23f</stRef:documentID>
            <stRef:originalDocumentID>uuid:5D20892493BFDB11914A8590D31508C8</stRef:originalDocumentID>
            <stRef:renditionClass>default</stRef:renditionClass>
         </xmpMM:DerivedFrom>
         <xmpMM:History>
            <rdf:Seq>
               <rdf:li rdf:parseType="Resource">
                  <stEvt:action>saved</stEvt:action>
                  <stEvt:instanceID>xmp.iid:93839c6e-7f4c-4068-b584-197717781471</stEvt:instanceID>
                  <stEvt:when>2016-08-08T11:52-05:00</stEvt:when>
                  <stEvt:softwareAgent>Adobe Illustrator CC 2015 (Macintosh)</stEvt:softwareAgent>
                  <stEvt:changed>/</stEvt:changed>
               </rdf:li>
               <rdf:li rdf:parseType="Resource">
                  <stEvt:action>converted</stEvt:action>
                  <stEvt:parameters>from application/postscript to application/vnd.adobe.illustrator</stEvt:parameters>
               </rdf:li>
               <rdf:li rdf:parseType="Resource">
                  <stEvt:action>converted</stEvt:action>
                  <stEvt:parameters>from application/postscript to application/vnd.adobe.illustrator</stEvt:parameters>
               </rdf:li>
               <rdf:li rdf:parseType="Resource">
                  <stEvt:action>converted</stEvt:action>
                  <stEvt:parameters>from application/postscript to application/vnd.adobe.illustrator</stEvt:parameters>
               </rdf:li>
               <rdf:li rdf:parseType="Resource">
                  <stEvt:action>converted</stEvt:action>
                  <stEvt:parameters>from application/postscript to application/vnd.adobe.illustrator</stEvt:parameters>
               </rdf:li>
               <rdf:li rdf:parseType="Resource">
                  <stEvt:action>saved</stEvt:action>
                  <stEvt:instanceID>xmp.iid:75178563-7fb9-4fbe-8bc2-8692c7211573</stEvt:instanceID>
                  <stEvt:when>2016-10-24T14:06:20-05:00</stEvt:when>
                  <stEvt:softwareAgent>Adobe Illustrator CC 2015 (Macintosh)</stEvt:softwareAgent>
                  <stEvt:changed>/</stEvt:changed>
               </rdf:li>
               <rdf:li rdf:parseType="Resource">
                  <stEvt:action>converted</stEvt:action>
                  <stEvt:parameters>from application/postscript to application/vnd.adobe.illustrator</stEvt:parameters>
               </rdf:li>
               <rdf:li rdf:parseType="Resource">
                  <stEvt:action>converted</stEvt:action>
                  <stEvt:parameters>from application/postscript to application/vnd.adobe.illustrator</stEvt:parameters>
               </rdf:li>
               <rdf:li rdf:parseType="Resource">
                  <stEvt:action>saved</stEvt:action>
                  <stEvt:instanceID>xmp.iid:1529466d-b827-46e5-b6c4-ed4c32bf412c</stEvt:instanceID>
                  <stEvt:when>2016-10-25T13:51:19-05:00</stEvt:when>
                  <stEvt:softwareAgent>Adobe Illustrator CC 2015 (Macintosh)</stEvt:softwareAgent>
                  <stEvt:changed>/</stEvt:changed>
               </rdf:li>
               <rdf:li rdf:parseType="Resource">
                  <stEvt:action>converted</stEvt:action>
                  <stEvt:parameters>from application/postscript to application/vnd.adobe.illustrator</stEvt:parameters>
               </rdf:li>
               <rdf:li rdf:parseType="Resource">
                  <stEvt:action>converted</stEvt:action>
                  <stEvt:parameters>from application/postscript to application/vnd.adobe.illustrator</stEvt:parameters>
               </rdf:li>
               <rdf:li rdf:parseType="Resource">
                  <stEvt:action>saved</stEvt:action>
                  <stEvt:instanceID>xmp.iid:cbfb0f55-5565-4075-aeb7-085cde8afca0</stEvt:instanceID>
                  <stEvt:when>2016-11-02T13:02:48-05:00</stEvt:when>
                  <stEvt:softwareAgent>Adobe Illustrator CC 2015 (Macintosh)</stEvt:softwareAgent>
                  <stEvt:changed>/</stEvt:changed>
               </rdf:li>
               <rdf:li rdf:parseType="Resource">
                  <stEvt:action>saved</stEvt:action>
                  <stEvt:instanceID>xmp.iid:d730f70b-c062-4540-aa1b-2d27d301c0dd</stEvt:instanceID>
                  <stEvt:when>2016-11-02T14:18:10-05:00</stEvt:when>
                  <stEvt:softwareAgent>Adobe Illustrator CC 2015 (Macintosh)</stEvt:softwareAgent>
                  <stEvt:changed>/</stEvt:changed>
               </rdf:li>
               <rdf:li rdf:parseType="Resource">
                  <stEvt:action>converted</stEvt:action>
                  <stEvt:parameters>from application/postscript to application/vnd.adobe.illustrator</stEvt:parameters>
               </rdf:li>
               <rdf:li rdf:parseType="Resource">
                  <stEvt:action>converted</stEvt:action>
                  <stEvt:parameters>from application/postscript to application/vnd.adobe.illustrator</stEvt:parameters>
               </rdf:li>
               <rdf:li rdf:parseType="Resource">
                  <stEvt:action>converted</stEvt:action>
                  <stEvt:parameters>from application/postscript to application/vnd.adobe.illustrator</stEvt:parameters>
               </rdf:li>
               <rdf:li rdf:parseType="Resource">
                  <stEvt:action>saved</stEvt:action>
                  <stEvt:instanceID>xmp.iid:c5998bc2-4810-4392-9506-904e3c85d91e</stEvt:instanceID>
                  <stEvt:when>2016-11-14T12:36:55-06:00</stEvt:when>
                  <stEvt:softwareAgent>Adobe Illustrator CC 2015 (Macintosh)</stEvt:softwareAgent>
                  <stEvt:changed>/</stEvt:changed>
               </rdf:li>
               <rdf:li rdf:parseType="Resource">
                  <stEvt:action>saved</stEvt:action>
                  <stEvt:instanceID>xmp.iid:8955e304-1051-4e36-8038-d9e3eee8bb4b</stEvt:instanceID>
                  <stEvt:when>2016-11-14T13:51:21-06:00</stEvt:when>
                  <stEvt:softwareAgent>Adobe Illustrator CC 2015 (Macintosh)</stEvt:softwareAgent>
                  <stEvt:changed>/</stEvt:changed>
               </rdf:li>
               <rdf:li rdf:parseType="Resource">
                  <stEvt:action>converted</stEvt:action>
                  <stEvt:parameters>from application/postscript to application/vnd.adobe.illustrator</stEvt:parameters>
               </rdf:li>
               <rdf:li rdf:parseType="Resource">
                  <stEvt:action>saved</stEvt:action>
                  <stEvt:instanceID>xmp.iid:43f088b8-ec62-4cb0-a612-f5a00862c824</stEvt:instanceID>
                  <stEvt:when>2016-11-14T14:27-06:00</stEvt:when>
                  <stEvt:softwareAgent>Adobe Illustrator CC 2015 (Macintosh)</stEvt:softwareAgent>
                  <stEvt:changed>/</stEvt:changed>
               </rdf:li>
               <rdf:li rdf:parseType="Resource">
                  <stEvt:action>saved</stEvt:action>
                  <stEvt:instanceID>xmp.iid:34737baf-7449-48c7-af5a-42d99833a0b6</stEvt:instanceID>
                  <stEvt:when>2016-11-14T14:31:09-06:00</stEvt:when>
                  <stEvt:softwareAgent>Adobe Illustrator CC 2015 (Macintosh)</stEvt:softwareAgent>
                  <stEvt:changed>/</stEvt:changed>
               </rdf:li>
               <rdf:li rdf:parseType="Resource">
                  <stEvt:action>converted</stEvt:action>
                  <stEvt:parameters>from application/postscript to application/vnd.adobe.illustrator</stEvt:parameters>
               </rdf:li>
               <rdf:li rdf:parseType="Resource">
                  <stEvt:action>converted</stEvt:action>
                  <stEvt:parameters>from application/postscript to application/vnd.adobe.illustrator</stEvt:parameters>
               </rdf:li>
               <rdf:li rdf:parseType="Resource">
                  <stEvt:action>converted</stEvt:action>
                  <stEvt:parameters>from application/postscript to application/vnd.adobe.illustrator</stEvt:parameters>
               </rdf:li>
               <rdf:li rdf:parseType="Resource">
                  <stEvt:action>converted</stEvt:action>
                  <stEvt:parameters>from application/postscript to application/vnd.adobe.illustrator</stEvt:parameters>
               </rdf:li>
               <rdf:li rdf:parseType="Resource">
                  <stEvt:action>saved</stEvt:action>
                  <stEvt:instanceID>xmp.iid:fd01e506-ab38-4e9c-93a0-25b85a5b92a9</stEvt:instanceID>
                  <stEvt:when>2016-11-18T11:35:35-06:00</stEvt:when>
                  <stEvt:softwareAgent>Adobe Illustrator CC 2015 (Macintosh)</stEvt:softwareAgent>
                  <stEvt:changed>/</stEvt:changed>
               </rdf:li>
               <rdf:li rdf:parseType="Resource">
                  <stEvt:action>converted</stEvt:action>
                  <stEvt:parameters>from application/postscript to application/vnd.adobe.illustrator</stEvt:parameters>
               </rdf:li>
               <rdf:li rdf:parseType="Resource">
                  <stEvt:action>converted</stEvt:action>
                  <stEvt:parameters>from application/postscript to application/vnd.adobe.illustrator</stEvt:parameters>
               </rdf:li>
               <rdf:li rdf:parseType="Resource">
                  <stEvt:action>converted</stEvt:action>
                  <stEvt:parameters>from application/postscript to application/vnd.adobe.illustrator</stEvt:parameters>
               </rdf:li>
               <rdf:li rdf:parseType="Resource">
                  <stEvt:action>converted</stEvt:action>
                  <stEvt:parameters>from application/postscript to application/vnd.adobe.illustrator</stEvt:parameters>
               </rdf:li>
               <rdf:li rdf:parseType="Resource">
                  <stEvt:action>converted</stEvt:action>
                  <stEvt:parameters>from application/postscript to application/vnd.adobe.illustrator</stEvt:parameters>
               </rdf:li>
               <rdf:li rdf:parseType="Resource">
                  <stEvt:action>saved</stEvt:action>
                  <stEvt:instanceID>xmp.iid:76184648-f34c-4af9-9307-73f228ad931c</stEvt:instanceID>
                  <stEvt:when>2016-12-16T17:05:58-06:00</stEvt:when>
                  <stEvt:softwareAgent>Adobe Illustrator CC 2015 (Macintosh)</stEvt:softwareAgent>
                  <stEvt:changed>/</stEvt:changed>
               </rdf:li>
               <rdf:li rdf:parseType="Resource">
                  <stEvt:action>converted</stEvt:action>
                  <stEvt:parameters>from application/postscript to application/vnd.adobe.illustrator</stEvt:parameters>
               </rdf:li>
               <rdf:li rdf:parseType="Resource">
                  <stEvt:action>converted</stEvt:action>
                  <stEvt:parameters>from application/postscript to application/vnd.adobe.illustrator</stEvt:parameters>
               </rdf:li>
               <rdf:li rdf:parseType="Resource">
                  <stEvt:action>converted</stEvt:action>
                  <stEvt:parameters>from application/postscript to application/vnd.adobe.illustrator</stEvt:parameters>
               </rdf:li>
               <rdf:li rdf:parseType="Resource">
                  <stEvt:action>saved</stEvt:action>
                  <stEvt:instanceID>xmp.iid:9da77868-b23a-49f7-ba18-aae71d1a8540</stEvt:instanceID>
                  <stEvt:when>2016-12-22T16:23:53-06:00</stEvt:when>
                  <stEvt:softwareAgent>Adobe Illustrator CC 2015 (Macintosh)</stEvt:softwareAgent>
                  <stEvt:changed>/</stEvt:changed>
               </rdf:li>
               <rdf:li rdf:parseType="Resource">
                  <stEvt:action>converted</stEvt:action>
                  <stEvt:parameters>from application/postscript to application/vnd.adobe.illustrator</stEvt:parameters>
               </rdf:li>
               <rdf:li rdf:parseType="Resource">
                  <stEvt:action>converted</stEvt:action>
                  <stEvt:parameters>from application/postscript to application/vnd.adobe.illustrator</stEvt:parameters>
               </rdf:li>
               <rdf:li rdf:parseType="Resource">
                  <stEvt:action>converted</stEvt:action>
                  <stEvt:parameters>from application/postscript to application/vnd.adobe.illustrator</stEvt:parameters>
               </rdf:li>
               <rdf:li rdf:parseType="Resource">
                  <stEvt:action>converted</stEvt:action>
                  <stEvt:parameters>from application/postscript to application/vnd.adobe.illustrator</stEvt:parameters>
               </rdf:li>
               <rdf:li rdf:parseType="Resource">
                  <stEvt:action>converted</stEvt:action>
                  <stEvt:parameters>from application/postscript to application/vnd.adobe.illustrator</stEvt:parameters>
               </rdf:li>
               <rdf:li rdf:parseType="Resource">
                  <stEvt:action>saved</stEvt:action>
                  <stEvt:instanceID>xmp.iid:bbf4f5f1-dd86-447d-8c7d-293180ab2d58</stEvt:instanceID>
                  <stEvt:when>2017-01-11T16:39:56-06:00</stEvt:when>
                  <stEvt:softwareAgent>Adobe Illustrator CC 2015 (Macintosh)</stEvt:softwareAgent>
                  <stEvt:changed>/</stEvt:changed>
               </rdf:li>
               <rdf:li rdf:parseType="Resource">
                  <stEvt:action>converted</stEvt:action>
                  <stEvt:parameters>from application/postscript to application/vnd.adobe.illustrator</stEvt:parameters>
               </rdf:li>
               <rdf:li rdf:parseType="Resource">
                  <stEvt:action>converted</stEvt:action>
                  <stEvt:parameters>from application/postscript to application/vnd.adobe.illustrator</stEvt:parameters>
               </rdf:li>
               <rdf:li rdf:parseType="Resource">
                  <stEvt:action>converted</stEvt:action>
                  <stEvt:parameters>from application/postscript to application/vnd.adobe.illustrator</stEvt:parameters>
               </rdf:li>
               <rdf:li rdf:parseType="Resource">
                  <stEvt:action>converted</stEvt:action>
                  <stEvt:parameters>from application/postscript to application/vnd.adobe.illustrator</stEvt:parameters>
               </rdf:li>
               <rdf:li rdf:parseType="Resource">
                  <stEvt:action>converted</stEvt:action>
                  <stEvt:parameters>from application/postscript to application/vnd.adobe.illustrator</stEvt:parameters>
               </rdf:li>
               <rdf:li rdf:parseType="Resource">
                  <stEvt:action>converted</stEvt:action>
                  <stEvt:parameters>from application/postscript to application/vnd.adobe.illustrator</stEvt:parameters>
               </rdf:li>
               <rdf:li rdf:parseType="Resource">
                  <stEvt:action>saved</stEvt:action>
                  <stEvt:instanceID>xmp.iid:273d26ae-93f6-476f-8117-eaeea2df9307</stEvt:instanceID>
                  <stEvt:when>2017-03-28T10:45:38-05:00</stEvt:when>
                  <stEvt:softwareAgent>Adobe Illustrator CC 2017 (Macintosh)</stEvt:softwareAgent>
                  <stEvt:changed>/</stEvt:changed>
               </rdf:li>
               <rdf:li rdf:parseType="Resource">
                  <stEvt:action>converted</stEvt:action>
                  <stEvt:parameters>from application/postscript to application/vnd.adobe.illustrator</stEvt:parameters>
               </rdf:li>
               <rdf:li rdf:parseType="Resource">
                  <stEvt:action>saved</stEvt:action>
                  <stEvt:instanceID>xmp.iid:90066a23-6607-472c-96bd-7fed0770f8e8</stEvt:instanceID>
                  <stEvt:when>2017-03-28T10:47:55-05:00</stEvt:when>
                  <stEvt:softwareAgent>Adobe Illustrator CC 2017 (Macintosh)</stEvt:softwareAgent>
                  <stEvt:changed>/</stEvt:changed>
               </rdf:li>
               <rdf:li rdf:parseType="Resource">
                  <stEvt:action>converted</stEvt:action>
                  <stEvt:parameters>from application/postscript to application/vnd.adobe.illustrator</stEvt:parameters>
               </rdf:li>
               <rdf:li rdf:parseType="Resource">
                  <stEvt:action>saved</stEvt:action>
                  <stEvt:instanceID>xmp.iid:9655d0a7-dcf6-43a9-b4cc-e325e399af9a</stEvt:instanceID>
                  <stEvt:when>2017-08-11T13:01:48-05:00</stEvt:when>
                  <stEvt:softwareAgent>Adobe Illustrator CC 2017 (Macintosh)</stEvt:softwareAgent>
                  <stEvt:changed>/</stEvt:changed>
               </rdf:li>
               <rdf:li rdf:parseType="Resource">
                  <stEvt:action>converted</stEvt:action>
                  <stEvt:parameters>from application/postscript to application/vnd.adobe.illustrator</stEvt:parameters>
               </rdf:li>
               <rdf:li rdf:parseType="Resource">
                  <stEvt:action>converted</stEvt:action>
                  <stEvt:parameters>from application/postscript to application/vnd.adobe.illustrator</stEvt:parameters>
               </rdf:li>
               <rdf:li rdf:parseType="Resource">
                  <stEvt:action>converted</stEvt:action>
                  <stEvt:parameters>from application/postscript to application/vnd.adobe.illustrator</stEvt:parameters>
               </rdf:li>
               <rdf:li rdf:parseType="Resource">
                  <stEvt:action>saved</stEvt:action>
                  <stEvt:instanceID>xmp.iid:209e6335-6116-4778-bccc-6017040fd84a</stEvt:instanceID>
                  <stEvt:when>2017-10-27T10:03:32-05:00</stEvt:when>
                  <stEvt:softwareAgent>Adobe Illustrator CC 2017 (Macintosh)</stEvt:softwareAgent>
                  <stEvt:changed>/</stEvt:changed>
               </rdf:li>
               <rdf:li rdf:parseType="Resource">
                  <stEvt:action>saved</stEvt:action>
                  <stEvt:instanceID>xmp.iid:8cb397bb-a655-4206-a26c-de8a24eefe5c</stEvt:instanceID>
                  <stEvt:when>2017-11-27T12:09:35-06:00</stEvt:when>
                  <stEvt:softwareAgent>Adobe Illustrator CC 2017 (Macintosh)</stEvt:softwareAgent>
                  <stEvt:changed>/</stEvt:changed>
               </rdf:li>
               <rdf:li rdf:parseType="Resource">
                  <stEvt:action>converted</stEvt:action>
                  <stEvt:parameters>from application/postscript to application/vnd.adobe.illustrator</stEvt:parameters>
               </rdf:li>
               <rdf:li rdf:parseType="Resource">
                  <stEvt:action>saved</stEvt:action>
                  <stEvt:instanceID>xmp.iid:333d0a25-ae3f-4e15-a082-ca9d879d72d5</stEvt:instanceID>
                  <stEvt:when>2018-02-16T14:52:09-06:00</stEvt:when>
                  <stEvt:softwareAgent>Adobe Illustrator CC 2017 (Macintosh)</stEvt:softwareAgent>
                  <stEvt:changed>/</stEvt:changed>
               </rdf:li>
               <rdf:li rdf:parseType="Resource">
                  <stEvt:action>saved</stEvt:action>
                  <stEvt:instanceID>xmp.iid:cfeb9ab2-d121-45f1-a658-fa2413cf491c</stEvt:instanceID>
                  <stEvt:when>2018-02-16T15:06:54-06:00</stEvt:when>
                  <stEvt:softwareAgent>Adobe Illustrator CC 2017 (Macintosh)</stEvt:softwareAgent>
                  <stEvt:changed>/</stEvt:changed>
               </rdf:li>
               <rdf:li rdf:parseType="Resource">
                  <stEvt:action>converted</stEvt:action>
                  <stEvt:parameters>from application/postscript to application/vnd.adobe.illustrator</stEvt:parameters>
               </rdf:li>
               <rdf:li rdf:parseType="Resource">
                  <stEvt:action>saved</stEvt:action>
                  <stEvt:instanceID>xmp.iid:a0b8d165-0c19-4f1c-9724-71ac2f4dabf5</stEvt:instanceID>
                  <stEvt:when>2018-02-22T11:48:21-06:00</stEvt:when>
                  <stEvt:softwareAgent>Adobe Illustrator CC 2017 (Macintosh)</stEvt:softwareAgent>
                  <stEvt:changed>/</stEvt:changed>
               </rdf:li>
               <rdf:li rdf:parseType="Resource">
                  <stEvt:action>saved</stEvt:action>
                  <stEvt:instanceID>xmp.iid:c2b27702-3b01-4d06-816d-f627fb01d23f</stEvt:instanceID>
                  <stEvt:when>2023-09-29T19:24:17-05:00</stEvt:when>
                  <stEvt:softwareAgent>Adobe Illustrator 27.7 (Macintosh)</stEvt:softwareAgent>
                  <stEvt:changed>/</stEvt:changed>
               </rdf:li>
               <rdf:li rdf:parseType="Resource">
                  <stEvt:action>converted</stEvt:action>
                  <stEvt:parameters>from application/postscript to application/vnd.adobe.illustrator</stEvt:parameters>
               </rdf:li>
               <rdf:li rdf:parseType="Resource">
                  <stEvt:action>saved</stEvt:action>
                  <stEvt:instanceID>xmp.iid:9432f0c6-10a1-4379-b417-97e990e0bf68</stEvt:instanceID>
                  <stEvt:when>2023-10-31T15:01:25-05:00</stEvt:when>
                  <stEvt:softwareAgent>Adobe Illustrator 27.9 (Macintosh)</stEvt:softwareAgent>
                  <stEvt:changed>/</stEvt:changed>
               </rdf:li>
            </rdf:Seq>
         </xmpMM:History>
         <illustrator:StartupProfile>Print</illustrator:StartupProfile>
         <illustrator:CreatorSubTool>Adobe Illustrator</illustrator:CreatorSubTool>
         <xmpTPg:HasVisibleOverprint>False</xmpTPg:HasVisibleOverprint>
         <xmpTPg:HasVisibleTransparency>False</xmpTPg:HasVisibleTransparency>
         <xmpTPg:NPages>1</xmpTPg:NPages>
         <xmpTPg:MaxPageSize rdf:parseType="Resource">
            <stDim:w>3.050000</stDim:w>
            <stDim:h>1.750000</stDim:h>
            <stDim:unit>Inches</stDim:unit>
         </xmpTPg:MaxPageSize>
         <xmpTPg:SwatchGroups>
            <rdf:Seq>
               <rdf:li rdf:parseType="Resource">
                  <xmpG:groupName>Default Swatch Group</xmpG:groupName>
                  <xmpG:groupType>0</xmpG:groupType>
                  <xmpG:Colorants>
                     <rdf:Seq>
                        <rdf:li rdf:parseType="Resource">
                           <xmpG:swatchName>White</xmpG:swatchName>
                           <xmpG:mode>CMYK</xmpG:mode>
                           <xmpG:type>PROCESS</xmpG:type>
                           <xmpG:cyan>0.000000</xmpG:cyan>
                           <xmpG:magenta>0.000000</xmpG:magenta>
                           <xmpG:yellow>0.000000</xmpG:yellow>
                           <xmpG:black>0.000000</xmpG:black>
                        </rdf:li>
                        <rdf:li rdf:parseType="Resource">
                           <xmpG:swatchName>Black</xmpG:swatchName>
                           <xmpG:mode>CMYK</xmpG:mode>
                           <xmpG:type>PROCESS</xmpG:type>
                           <xmpG:cyan>0.000000</xmpG:cyan>
                           <xmpG:magenta>0.000000</xmpG:magenta>
                           <xmpG:yellow>0.000000</xmpG:yellow>
                           <xmpG:black>100.000000</xmpG:black>
                        </rdf:li>
                        <rdf:li rdf:parseType="Resource">
                           <xmpG:swatchName>PANTONE 717 C</xmpG:swatchName>
                           <xmpG:type>SPOT</xmpG:type>
                           <xmpG:tint>30.000000</xmpG:tint>
                           <xmpG:mode>LAB</xmpG:mode>
                           <xmpG:L>55.294102</xmpG:L>
                           <xmpG:A>45</xmpG:A>
                           <xmpG:B>70</xmpG:B>
                        </rdf:li>
                        <rdf:li rdf:parseType="Resource">
                           <xmpG:swatchName>PANTONE 717 C</xmpG:swatchName>
                           <xmpG:type>SPOT</xmpG:type>
                           <xmpG:tint>100.000000</xmpG:tint>
                           <xmpG:mode>LAB</xmpG:mode>
                           <xmpG:L>55.294102</xmpG:L>
                           <xmpG:A>45</xmpG:A>
                           <xmpG:B>70</xmpG:B>
                        </rdf:li>
                        <rdf:li rdf:parseType="Resource">
                           <xmpG:swatchName>PANTONE 1525 C</xmpG:swatchName>
                           <xmpG:type>SPOT</xmpG:type>
                           <xmpG:tint>100.000000</xmpG:tint>
                           <xmpG:mode>LAB</xmpG:mode>
                           <xmpG:L>46.666698</xmpG:L>
                           <xmpG:A>46</xmpG:A>
                           <xmpG:B>62</xmpG:B>
                        </rdf:li>
                        <rdf:li rdf:parseType="Resource">
                           <xmpG:swatchName>PANTONE 437 C</xmpG:swatchName>
                           <xmpG:type>SPOT</xmpG:type>
                           <xmpG:tint>100.000000</xmpG:tint>
                           <xmpG:mode>LAB</xmpG:mode>
                           <xmpG:L>45.098000</xmpG:L>
                           <xmpG:A>9</xmpG:A>
                           <xmpG:B>1</xmpG:B>
                        </rdf:li>
                        <rdf:li rdf:parseType="Resource">
                           <xmpG:swatchName>PANTONE 717 C_30% </xmpG:swatchName>
                           <xmpG:type>PROCESS</xmpG:type>
                           <xmpG:tint>100.000000</xmpG:tint>
                           <xmpG:mode>CMYK</xmpG:mode>
                           <xmpG:cyan>0.000000</xmpG:cyan>
                           <xmpG:magenta>22.000000</xmpG:magenta>
                           <xmpG:yellow>28.999999</xmpG:yellow>
                           <xmpG:black>0.000000</xmpG:black>
                        </rdf:li>
                        <rdf:li rdf:parseType="Resource">
                           <xmpG:swatchName>PANTONE 717 C 2</xmpG:swatchName>
                           <xmpG:type>PROCESS</xmpG:type>
                           <xmpG:tint>100.000000</xmpG:tint>
                           <xmpG:mode>CMYK</xmpG:mode>
                           <xmpG:cyan>11.000000</xmpG:cyan>
                           <xmpG:magenta>75.000000</xmpG:magenta>
                           <xmpG:yellow>100.000000</xmpG:yellow>
                           <xmpG:black>2.000000</xmpG:black>
                        </rdf:li>
                        <rdf:li rdf:parseType="Resource">
                           <xmpG:swatchName>PANTONE 1525 C 2</xmpG:swatchName>
                           <xmpG:type>PROCESS</xmpG:type>
                           <xmpG:tint>100.000000</xmpG:tint>
                           <xmpG:mode>CMYK</xmpG:mode>
                           <xmpG:cyan>19.000000</xmpG:cyan>
                           <xmpG:magenta>82.999998</xmpG:magenta>
                           <xmpG:yellow>100.000000</xmpG:yellow>
                           <xmpG:black>9.000000</xmpG:black>
                        </rdf:li>
                        <rdf:li rdf:parseType="Resource">
                           <xmpG:swatchName>PANTONE 437 C/21/40/18/56</xmpG:swatchName>
                           <xmpG:type>PROCESS</xmpG:type>
                           <xmpG:tint>100.000000</xmpG:tint>
                           <xmpG:mode>CMYK</xmpG:mode>
                           <xmpG:cyan>20.999999</xmpG:cyan>
                           <xmpG:magenta>40.000001</xmpG:magenta>
                           <xmpG:yellow>18.000001</xmpG:yellow>
                           <xmpG:black>56.000000</xmpG:black>
                        </rdf:li>
                     </rdf:Seq>
                  </xmpG:Colorants>
               </rdf:li>
               <rdf:li rdf:parseType="Resource">
                  <xmpG:groupName>Grays</xmpG:groupName>
                  <xmpG:groupType>0</xmpG:groupType>
                  <xmpG:Colorants>
                     <rdf:Seq>
                        <rdf:li rdf:parseType="Resource">
                           <xmpG:swatchName>C=0 M=0 Y=0 K=60 1</xmpG:swatchName>
                           <xmpG:mode>CMYK</xmpG:mode>
                           <xmpG:type>PROCESS</xmpG:type>
                           <xmpG:cyan>0.000000</xmpG:cyan>
                           <xmpG:magenta>0.000000</xmpG:magenta>
                           <xmpG:yellow>0.000000</xmpG:yellow>
                           <xmpG:black>60.000000</xmpG:black>
                        </rdf:li>
                        <rdf:li rdf:parseType="Resource">
                           <xmpG:swatchName>C=0 M=0 Y=0 K=20 1</xmpG:swatchName>
                           <xmpG:mode>CMYK</xmpG:mode>
                           <xmpG:type>PROCESS</xmpG:type>
                           <xmpG:cyan>0.000000</xmpG:cyan>
                           <xmpG:magenta>0.000000</xmpG:magenta>
                           <xmpG:yellow>0.000000</xmpG:yellow>
                           <xmpG:black>20.000000</xmpG:black>
                        </rdf:li>
                     </rdf:Seq>
                  </xmpG:Colorants>
               </rdf:li>
            </rdf:Seq>
         </xmpTPg:SwatchGroups>
         <pdf:Producer>Adobe PDF library 17.00</pdf:Producer>
         <ExtensisFontSense:slug>
            <rdf:Bag>
               <rdf:li rdf:parseType="Resource">
                  <ExtensisFontSense:Family>Goudy Oldstyle Std</ExtensisFontSense:Family>
                  <ExtensisFontSense:Version>1.040</ExtensisFontSense:Version>
                  <ExtensisFontSense:OutlineFileSize>0</ExtensisFontSense:OutlineFileSize>
                  <ExtensisFontSense:KerningChecksum>0</ExtensisFontSense:KerningChecksum>
                  <ExtensisFontSense:Foundry>Adobe Systems</ExtensisFontSense:Foundry>
                  <ExtensisFontSense:FontKind>OpenType - PS</ExtensisFontSense:FontKind>
                  <ExtensisFontSense:Checksum>1036715617</ExtensisFontSense:Checksum>
                  <ExtensisFontSense:PostScriptName>GoudyStd</ExtensisFontSense:PostScriptName>
                  <ExtensisFontSense:FontSense_1.2_Checksum>1036715617</ExtensisFontSense:FontSense_1.2_Checksum>
               </rdf:li>
            </rdf:Bag>
         </ExtensisFontSense:slug>
      </rdf:Description>
   </rdf:RDF>
</x:xmpmeta>
                                                                                                    
                                                                                                    
                                                                                                    
                                                                                                    
                                                                                                    
                                                                                                    
                                                                                                    
                                                                                                    
                                                                                                    
                                                                                                    
                                                                                                    
                                                                                                    
                                                                                                    
                                                                                                    
                                                                                                    
                                                                                                    
                                                                                                    
                                                                                                    
                                                                                                    
                                                                                                    
                           
<?xpacket end="w"?>
	</metadata>
<g id="_x3C_White_x3E_">
	<g id="_x3C_Shield_x3E__4_">
		<path class="st0" d="M1.8,22.4l50.3,0v-1.4v-4.4v-1.9h-6.3v-2.5h-1.5c0,0-3.3,0.1-5.7-1.3c-2.4-1.4-2.9-2.8-2.9-2.8v-2h-3.2
			c-0.6-2.4-2.7-4.3-5.3-4.3c-2.6,0-4.8,1.8-5.3,4.3h-3.3v2c0,0-0.5,1.4-2.9,2.8c-2.4,1.4-5.7,1.3-5.7,1.3H8.1v2.5H1.8v1.9v4.4
			L1.8,22.4"/>
		<path class="st0" d="M1.8,38.9c0.1,3.7,0.6,7.3,1.5,10.9c1.7,6.7,5,12.6,10.1,17.3c4,3.7,8.5,6.4,13.2,9.1c0.1,0.1,0.4,0,0.5,0
			c3.3-1.8,6.4-3.7,9.4-5.9c6.4-4.7,10.9-10.7,13.2-18.3c1.7-5.3,2.2-10.8,2.3-16.3c0-2.9,0-7.9,0-10.8H1.8
			C1.8,28.8,1.7,34.9,1.8,38.9 M23.3,42.3L27,31l3.7,11.3h11.8l-9.6,7l3.7,11.3l-9.6-7l-9.6,7L21,49.3l-9.6-7H23.3z"/>
	</g>
	<g>
		<path class="st0" d="M33.3,73.6c0.2,0,0.4,0.1,0.6,0.2c0.2,0.1,0.4,0.3,0.5,0.5c0.1,0.2,0.2,0.4,0.2,0.6c0,0.2-0.1,0.4-0.2,0.6
			c-0.1,0.2-0.3,0.4-0.5,0.5c-0.2,0.1-0.4,0.2-0.6,0.2c-0.2,0-0.4-0.1-0.6-0.2c-0.2-0.1-0.4-0.3-0.5-0.5c-0.1-0.2-0.2-0.4-0.2-0.6
			c0-0.2,0.1-0.4,0.2-0.6c0.1-0.2,0.3-0.4,0.5-0.5C32.9,73.7,33.1,73.6,33.3,73.6z M33.3,73.8c-0.2,0-0.3,0-0.5,0.1
			c-0.2,0.1-0.3,0.2-0.4,0.4c-0.1,0.2-0.1,0.3-0.1,0.5c0,0.2,0,0.4,0.1,0.5c0.1,0.2,0.2,0.3,0.4,0.4c0.2,0.1,0.3,0.1,0.5,0.1
			c0.2,0,0.4,0,0.5-0.1c0.2-0.1,0.3-0.2,0.4-0.4c0.1-0.2,0.1-0.3,0.1-0.5c0-0.2,0-0.4-0.1-0.5c-0.1-0.2-0.2-0.3-0.4-0.4
			C33.7,73.9,33.5,73.8,33.3,73.8z M32.8,75.6v-1.4h0.5c0.2,0,0.3,0,0.3,0c0.1,0,0.1,0.1,0.2,0.1c0,0.1,0.1,0.1,0.1,0.2
			c0,0.1,0,0.2-0.1,0.3c-0.1,0.1-0.2,0.1-0.3,0.1c0,0,0.1,0,0.1,0.1c0.1,0.1,0.1,0.1,0.2,0.3l0.2,0.3h-0.3l-0.1-0.2
			c-0.1-0.2-0.2-0.3-0.2-0.3c0,0-0.1,0-0.2,0H33v0.6H32.8z M33,74.8h0.3c0.1,0,0.2,0,0.3-0.1c0,0,0.1-0.1,0.1-0.2c0,0,0-0.1,0-0.1
			c0,0-0.1-0.1-0.1-0.1c0,0-0.1,0-0.2,0H33V74.8z"/>
	</g>
	<g>
		<path class="st0" d="M82.1,46.6c1.4-1.9,2.1-4.6,2.1-8.1V29c0-1.6,0.1-2.6,0.3-3.2c0.2-0.5,0.7-1,1.4-1.3c0.3-0.1,0.5-0.3,0.5-0.6
			c0-0.3-0.2-0.5-0.5-0.5c-0.1,0-0.4,0-0.9,0.1c-0.3,0-1.2,0.1-2.6,0.1c-0.7,0-1.2,0-1.7-0.1c-0.5-0.1-1-0.1-1.2-0.2
			c-0.2,0-0.3,0-0.4,0.1c-0.1,0.1-0.1,0.2-0.1,0.4c0,0.2,0.1,0.5,0.7,0.5c1.1,0.1,1.8,0.5,2.2,1.2c0.4,0.7,0.7,1.8,0.7,3.4v9.9
			c0,3.3-0.7,5.8-2.2,7.4c-1.5,1.6-3.7,2.5-6.7,2.5c-3.3,0-5.7-1-7.2-2.9c-1-1.4-1.5-3.7-1.5-7v-9.6l0-1.3c0-1.2,0.1-2.1,0.4-2.5
			c0.2-0.4,0.7-0.7,1.4-0.9c0.5-0.1,0.7-0.3,0.7-0.6c0-0.2-0.1-0.4-0.6-0.4c-0.2,0-0.5,0-1,0.1c-0.6,0.1-0.9,0.1-1.1,0.1h-1.5
			l-1.5,0c-0.3,0-0.7,0-1.3-0.1c-0.6,0-1,0-1.3,0c-0.7,0-0.8,0.3-0.8,0.6c0,0.2,0.1,0.4,0.6,0.5c1.1,0.2,1.8,0.5,2.2,1
			c0.4,0.5,0.5,1.4,0.5,2.8l0,1.1v9.7c0,2.7,0.5,4.9,1.4,6.5c0.8,1.5,2.1,2.6,3.9,3.5c1.7,0.8,3.7,1.3,5.9,1.3
			c1.9,0,3.6-0.4,5.3-1.1C79.9,48.7,81.2,47.8,82.1,46.6"/>
		<path class="st0" d="M97.4,25.9c0.6,0,0.8,0.1,0.8,0.2c0.1,0.1,0.2,0.2,0.2,0.8l0,0.5v19c0,1-0.2,1.8-0.5,2.2
			c-0.3,0.4-1,0.6-1.9,0.8c-0.5,0.1-0.7,0.2-0.7,0.5c0,0.2,0.1,0.5,0.7,0.5c0.1,0,0.6,0,1.3-0.1c0.4,0,0.8-0.1,1.3-0.1l1.5,0l1.4,0
			c0.9,0,1.5,0,1.7,0.1c0.5,0.1,0.8,0.1,1,0.1c0.6,0,0.7-0.3,0.7-0.5c0-0.3-0.3-0.5-0.8-0.5c-1.6-0.3-2.3-1.1-2.4-2.5l0-0.7V27.2
			c0-0.7,0.1-1,0.2-1c0.1-0.1,0.3-0.2,1-0.2h5.4c1,0,1.7,0.1,2.1,0.4h0c0.3,0.3,0.6,0.8,0.8,1.7c0.1,0.5,0.3,0.7,0.6,0.7
			c0.2,0,0.5-0.2,0.5-0.7c0-0.2-0.1-0.5-0.1-0.9c-0.1-0.3-0.1-0.9-0.1-1.6c0-1.1-0.1-1.3-0.3-1.4c-0.2-0.2-0.6-0.3-1.4-0.3H89.7
			c-0.5,0-0.8,0.1-0.9,0.3c-0.2,0.2-0.2,0.6-0.2,1.2c0,0.6-0.1,1.3-0.3,2.2C88.1,28.2,88,28.7,88,29c0,0.5,0.3,0.6,0.5,0.6
			c0.5,0,0.6-0.6,0.6-0.8c0.2-1.1,0.6-1.9,1-2.3c0.4-0.4,1.2-0.6,2.2-0.6H97.4z"/>
		<path class="st0" d="M141.4,50.2c0.4,0,0.7-0.1,0.9-0.1l1.4,0l1.4,0c1,0,1.6,0,1.9,0.1c0.8,0.1,1.3,0.2,1.6-0.1
			c0.1-0.1,0.1-0.2,0.1-0.4c0-0.3-0.3-0.4-0.7-0.5c-1-0.1-1.8-0.4-2.1-0.9c-0.4-0.5-0.6-1.4-0.6-2.8V27.1c0-0.6,0.1-1.2,0.4-1.6
			c0.2-0.5,0.6-0.7,0.9-0.8l0.8-0.2c0.5-0.1,0.6-0.3,0.6-0.5c0-0.2-0.1-0.5-0.6-0.5c-0.1,0-0.4,0-0.7,0.1c-0.5,0.1-1.5,0.1-2.8,0.1
			c-0.9,0-1.8,0-2.7-0.1c-0.6-0.1-1-0.1-1.3-0.1c-0.5,0-0.6,0.3-0.6,0.4c0,0.2,0.1,0.5,0.6,0.6c0.9,0.2,1.5,0.6,1.8,1.1
			c0.3,0.5,0.5,1.4,0.5,2.7v6.5c0,0.3-0.1,0.5-0.2,0.6c-0.1,0.1-0.3,0.1-1,0.1h-11.3c-1,0-1.3-0.1-1.3-0.2v0
			c-0.1-0.1-0.2-0.3-0.2-1.2v-6.8c0-0.9,0.1-1.6,0.4-2c0.3-0.4,0.8-0.7,1.7-0.9c0.4-0.1,0.6-0.3,0.6-0.5c0-0.2-0.1-0.5-0.7-0.5
			c-0.2,0-0.5,0-0.8,0.1c-0.8,0.1-1.6,0.2-2.5,0.2c-1.3,0-2.5-0.1-3.5-0.2c-0.5-0.1-0.9-0.1-1.2-0.1c-0.2,0-0.4,0-0.5,0.1
			c-0.1,0.1-0.1,0.2-0.1,0.4c0,0.2,0.1,0.5,0.7,0.5c1,0.2,1.8,0.5,2.2,1c0.4,0.5,0.6,1.3,0.6,2.3v16.4c0,1.8-0.1,3-0.3,3.7
			c-0.2,0.7-0.5,1.1-1.1,1.2l-1,0.2c-0.5,0.1-0.6,0.4-0.6,0.6c0,0.2,0.1,0.5,0.6,0.5c0.1,0,0.5,0,1.2-0.1c0.5,0,0.9-0.1,1.2-0.1
			l1.3,0l1.6,0c1.2,0,1.9,0,2.3,0.1c0.5,0.1,0.8,0.1,1,0.1c0.3,0,0.4-0.1,0.6-0.2c0.1-0.1,0.1-0.2,0.1-0.3c0-0.3-0.3-0.5-0.8-0.6
			c-1.1-0.1-1.9-0.4-2.3-0.9c-0.4-0.5-0.6-1.4-0.6-2.7v-7c0-0.7,0.1-0.9,0.2-1c0.1-0.1,0.4-0.2,1.3-0.2h11.3c0.9,0,1,0.1,1.1,0.1
			c0,0,0.1,0.2,0.1,1v7l0,0.7c0,1.9-0.6,2.9-1.9,3.2c-0.5,0.1-0.7,0.3-0.8,0.5c0,0.2,0,0.3,0.1,0.4c0.1,0.1,0.2,0.1,0.4,0.1
			c0,0,0,0,0,0C140.1,50.3,140.5,50.3,141.4,50.2"/>
		<path class="st0" d="M197.8,48l-0.2,0.1l-1,0.5c-0.5,0.3-1.2,0.4-1.9,0.4c-0.9,0-1.7-0.3-2.1-0.8c-0.3-0.3-0.5-1.1-0.5-2.3v-9.5
			h4.4c0.5,0,0.8-0.2,1-0.6l0.4-1.1c0.2-0.4,0.2-0.5,0.2-0.5c0-0.1,0-0.2-0.1-0.3c-0.1-0.1-0.1-0.1-0.2-0.1c-0.1,0-0.3,0.1-0.5,0.2
			c-0.3,0.2-0.7,0.3-1.2,0.3H192l0.1-3.2c0-0.5-0.2-0.6-0.4-0.6c-0.1,0-0.3,0.1-0.8,0.9c-0.8,1.2-1.9,2.5-3.4,3.8
			c-0.4,0.3-0.5,0.6-0.5,0.8c0,0.2,0.1,0.4,0.6,0.4h1.6v9.5c0,3.1,1.5,4.7,4.5,4.7c0.9,0,1.8-0.2,2.9-0.7c1.1-0.5,1.6-1,1.6-1.5
			C198.1,48.1,198,48,197.8,48"/>
		<path class="st0" d="M155.1,34.8c1,0,1.9,0.4,2.7,1.2c0.8,0.8,1.3,1.7,1.3,2.7c0,0.4-0.8,0.5-1.4,0.5h-6.3
			c0.2-1.3,0.6-2.4,1.2-3.2v0C153.2,35.2,154.1,34.8,155.1,34.8 M162.1,46.4c-0.1,0-0.2,0.1-0.3,0.2c-1.6,1.2-3.1,1.8-4.5,1.8
			c-1.7,0-3.2-0.7-4.4-2.2c-1.2-1.5-1.8-3.3-1.8-5.4l0-0.3h7.1l1.3,0l1.4,0c0.9,0,1.4-0.3,1.4-0.8c0-0.3-0.2-0.8-0.5-1.6
			c-0.3-0.7-0.6-1.3-0.9-1.8c-1.3-1.8-3-2.7-5.2-2.7c-2,0-3.7,0.9-5.2,2.5c-1.5,1.7-2.2,3.7-2.2,5.9c0,2.3,0.7,4.3,2.1,5.9
			c1.4,1.6,3.2,2.4,5.3,2.4c1.9,0,3.7-0.7,5.3-2c0.9-0.7,1.4-1.3,1.4-1.7c0-0.2,0-0.3-0.1-0.3C162.3,46.4,162.2,46.4,162.1,46.4"/>
		<path class="st0" d="M186.7,49.1c-1.3-0.2-2-0.6-2.3-1.2c-0.2-0.5-0.4-1.3-0.4-2.4V23.1l0-0.6v0c0-0.5-0.1-0.8-0.2-0.9
			c-0.1-0.1-0.1-0.1-0.2-0.1c-0.1,0-0.3,0.1-0.5,0.2c-0.3,0.2-1,0.6-1.8,0.9l-1.2,0.5c-0.3,0.1-0.7,0.3-1.2,0.4
			c-0.4,0.1-0.6,0.3-0.6,0.5c0,0.1,0.1,0.3,0.3,0.4c0.1,0,0.2,0,0.4,0h0l1,0c0.7,0,1.1,0.5,1.1,1.6v21.2c0,0.6-0.1,1-0.3,1.3
			c-0.2,0.3-0.5,0.5-1.1,0.6c-0.4,0.1-0.6,0.3-0.6,0.6c0,0.2,0.1,0.5,0.6,0.5c0.1,0,0.2,0,0.7-0.1c0.3,0,1-0.1,2.2-0.1l2.7,0
			c0.4,0,0.7,0,0.8,0.1c0.2,0.1,0.4,0.1,0.5,0.1c0.2,0,0.3,0,0.4-0.1c0.1-0.1,0.1-0.2,0.1-0.4C187.3,49.3,187.1,49.2,186.7,49.1"/>
		<path class="st0" d="M168.5,43.7c1-0.7,2.5-1.1,4.4-1.3v3.7c0,0.9-0.2,1.6-0.6,2c-0.7,0.7-1.6,1-2.6,1c-0.8,0-1.5-0.2-2-0.7
			c-0.5-0.5-0.7-1.2-0.7-2C167,45.3,167.5,44.4,168.5,43.7 M178.5,48.8c-0.1,0-0.2,0-0.5,0.1c-0.1,0-0.3,0-0.4,0
			c-0.6,0-1.1-0.2-1.3-0.7c-0.3-0.5-0.4-1.3-0.4-2.5v-7.5c0-1.4-0.5-2.6-1.5-3.3c-1-0.8-2.4-1.2-4.1-1.2c-1.9,0-3.5,0.6-4.7,1.9
			c-0.9,0.9-1.3,1.8-1.3,2.6c0,0.4,0.3,0.7,0.8,0.9c0.5,0.3,1.1,0.4,1.7,0.4c0.2,0,0.3,0,0.4-0.1c0.1-0.1,0.1-0.2,0.1-0.3
			c0-0.2-0.1-0.4-0.1-0.6c-0.2-0.5-0.2-1-0.2-1.4c0-1.3,0.8-2,2.4-2c1.2,0,2.2,0.4,2.9,1.1c0.5,0.5,0.8,1.5,0.8,2.9v2.3
			c-3.1,0.5-5.4,1.1-6.7,1.9c-1.4,0.8-2.1,2-2.1,3.5c0,1.1,0.4,2,1.1,2.7c0.7,0.7,1.7,1,2.9,1c1.6,0,3.3-0.7,5.1-2
			c0.8,1.3,1.8,1.9,2.9,1.9c0.6,0,1.2-0.1,1.8-0.4c0.7-0.3,1-0.5,1-0.8c0-0.1,0-0.2-0.1-0.3C178.7,48.8,178.6,48.8,178.5,48.8"/>
		<path class="st0" d="M217.2,49.3c-1-0.2-1.7-0.4-2-0.7c-0.3-0.3-0.4-1-0.4-1.9v-6.1c0-2-0.6-3.7-1.7-4.9c-1.1-1.3-2.6-1.9-4.4-1.9
			c-1.9,0-3.6,0.9-5.2,2.8V23.8c0-0.4,0-0.7,0-1c0-0.2,0-0.4,0-0.5c0-0.5-0.3-0.5-0.4-0.5c-0.1,0-0.3,0-0.5,0.1l-1.5,0.7
			c-1,0.5-1.9,0.8-2.7,1c-0.4,0.1-0.5,0.3-0.5,0.5c0,0.2,0.1,0.3,0.2,0.4c0.1,0,0.2,0.1,0.3,0.1h0l1-0.1c0.3,0,0.5,0.1,0.7,0.2
			c0.3,0.3,0.5,1,0.5,1.9v19.9c0,1.3-0.1,1.8-0.2,2c-0.2,0.3-0.6,0.5-1.3,0.7c-0.5,0.1-0.5,0.4-0.5,0.6c0,0.2,0.1,0.4,0.6,0.4
			c0.2,0,0.5,0,0.9-0.1c0.9-0.1,1.7-0.1,2.2-0.1c1.5,0,2.4,0,2.9,0.1c0.6,0.1,0.9,0.1,1.1,0.1c0.5,0,0.5-0.3,0.5-0.4
			c0-0.3-0.3-0.5-0.8-0.6c-1.1-0.1-1.8-0.4-2.1-0.8c-0.3-0.4-0.4-1.2-0.4-2.5v-7.4c0-0.8,0.4-1.5,1.2-2.2c0.8-0.6,1.8-1,2.8-1
			c1.3,0,2.4,0.5,3.2,1.4c0.8,0.9,1.2,2.2,1.2,3.8V47l0,0.6c0,0.7-0.1,1-0.2,1.1c-0.1,0.1-0.4,0.3-1.2,0.6c-0.3,0.1-0.5,0.3-0.5,0.5
			c0,0.2,0.1,0.5,0.7,0.5c0.1,0,0.3,0,0.6-0.1c0.5-0.1,1.4-0.1,2.5-0.1c0.7,0,1.5,0,2.4,0.1c0.5,0,0.8,0.1,0.9,0.1
			c0.6,0,0.6-0.3,0.6-0.5C217.8,49.6,217.7,49.4,217.2,49.3"/>
		<path class="st0" d="M66.3,65.1c-1.2-0.4-1.9-0.7-2.2-0.8c-0.3-0.1-0.6-0.4-0.8-0.7c-0.3-0.4-0.4-0.8-0.4-1.3
			c0-0.6,0.2-1.1,0.7-1.4c0.4-0.4,1-0.6,1.6-0.6c0.8,0,1.6,0.2,2.3,0.6c0.7,0.4,1.1,1,1.3,1.6c0.1,0.3,0.2,0.5,0.4,0.5
			c0.1,0,0.2-0.1,0.2-0.3c0-0.1,0-0.2,0-0.4l-0.1-1c-0.1-0.5-0.1-0.8-0.1-0.9c0-0.2,0-0.4-0.1-0.4c0,0-0.1-0.1-0.2-0.1
			c-0.1,0-0.1,0-0.1,0l-0.1,0.1c-0.1,0.1-0.2,0.1-0.3,0l-0.6-0.3c-0.5-0.2-1-0.3-1.7-0.3c-1.2,0-2.2,0.3-2.9,1
			c-0.8,0.6-1.1,1.5-1.1,2.5c0,0.9,0.3,1.7,0.9,2.2c0.6,0.6,1.6,1.1,2.9,1.6c1.3,0.4,2.1,0.8,2.4,1c0.5,0.5,0.8,1,0.8,1.7
			c0,0.7-0.3,1.3-0.9,1.8c-0.6,0.5-1.3,0.7-2.1,0.7c-0.8,0-1.6-0.3-2.3-0.8c-0.7-0.5-1.2-1.2-1.4-1.9c-0.1-0.3-0.2-0.5-0.3-0.5
			c-0.1,0-0.1,0-0.2,0.1c-0.1,0.1-0.1,0.1-0.1,0.3c0,0.2,0.1,0.6,0.2,1.2c0.1,0.5,0.2,0.8,0.2,0.8c0.1,0.3,0.1,0.6,0.2,0.7
			c0,0.1,0.1,0.2,0.2,0.3c0.3,0.2,0.7,0.3,1.3,0.5c0.6,0.1,1.1,0.2,1.6,0.2c1.3,0,2.4-0.4,3.3-1.1c0.9-0.7,1.3-1.7,1.3-2.9
			C69.8,67.2,68.6,65.9,66.3,65.1"/>
		<path class="st0" d="M73.2,69.6c0.5-0.3,1.2-0.6,2.2-0.6v1.8c0,0.5-0.1,0.8-0.3,1c-0.3,0.3-0.8,0.5-1.3,0.5c-0.4,0-0.7-0.1-1-0.4
			c-0.2-0.2-0.4-0.6-0.4-1C72.4,70.3,72.7,69.9,73.2,69.6 M78.1,72.1c0,0-0.1,0-0.2,0c-0.1,0-0.1,0-0.2,0c-0.3,0-0.5-0.1-0.7-0.3
			c-0.1-0.2-0.2-0.6-0.2-1.2v-3.6c0-0.7-0.2-1.2-0.7-1.6c-0.5-0.4-1.1-0.6-2-0.6c-0.9,0-1.7,0.3-2.3,0.9c-0.4,0.5-0.6,0.9-0.6,1.3
			c0,0.2,0.1,0.3,0.4,0.5c0.2,0.1,0.5,0.2,0.8,0.2c0.1,0,0.1,0,0.2-0.1c0,0,0.1-0.1,0-0.2c0-0.1,0-0.2-0.1-0.3
			c-0.1-0.3-0.1-0.5-0.1-0.7c0-0.7,0.4-1,1.2-1c0.6,0,1.1,0.2,1.4,0.5c0.3,0.3,0.4,0.7,0.4,1.4v1.1c-1.5,0.2-2.6,0.6-3.3,0.9
			c-0.7,0.4-1,1-1,1.7c0,0.5,0.2,1,0.5,1.3c0.4,0.3,0.8,0.5,1.4,0.5c0.8,0,1.6-0.3,2.5-1c0.4,0.6,0.9,0.9,1.4,0.9
			c0.3,0,0.6-0.1,0.9-0.2c0.3-0.1,0.5-0.2,0.5-0.4c0-0.1,0-0.1,0-0.1C78.2,72.1,78.1,72.1,78.1,72.1"/>
		<path class="st0" d="M88.2,72.3l-0.4-0.1c-0.4-0.1-0.7-0.3-0.7-0.7l0-0.4l0-0.3v-2.2c0-1.1-0.2-2-0.6-2.6
			c-0.6-0.8-1.4-1.2-2.4-1.2c-0.9,0-1.7,0.5-2.5,1.4v-0.9c0-0.1,0-0.3,0-0.4c0-0.1,0-0.2-0.1-0.3c-0.1-0.1-0.2-0.1-0.4,0
			c-0.1,0-0.2,0.1-0.4,0.2L80.2,65c-0.4,0.2-0.8,0.3-1.2,0.4c-0.2,0-0.3,0.1-0.3,0.2c0,0.1,0,0.1,0.1,0.2c0.1,0,0.1,0,0.2,0l0.4,0
			c0.3,0,0.5,0.1,0.6,0.2c0.1,0.1,0.2,0.4,0.2,0.9v4.2c0,0.3-0.1,0.6-0.2,0.8c-0.1,0.2-0.3,0.3-0.6,0.4c-0.1,0.1-0.2,0.1-0.2,0.2
			c0,0.1,0,0.1,0,0.1c0,0,0.1,0.1,0.2,0.1c0.1,0,0.2,0,0.4,0c0.2,0,0.8,0,1.8,0c0.5,0,0.8,0,0.9,0c0.2,0,0.4,0.1,0.5,0.1
			c0.2,0,0.3-0.1,0.3-0.2c0-0.1-0.1-0.2-0.4-0.2c-0.8,0-1.2-0.3-1.2-0.8l0-0.7v-3.6c0-0.4,0.2-0.7,0.6-1c0.4-0.3,0.8-0.4,1.3-0.4
			c0.7,0,1.3,0.2,1.7,0.7c0.4,0.5,0.6,1.1,0.6,2v3.2c0,0.4-0.1,0.6-0.3,0.6l-0.3,0.1c-0.2,0-0.2,0.1-0.2,0.2c0,0.1,0,0.2,0.1,0.2
			l0.2,0l0.3,0h0.4l0.9,0c0.5,0,0.9,0,1.1,0c0.2,0,0.3,0,0.4,0c0.1,0,0.2,0,0.3-0.1c0,0,0.1-0.1,0.1-0.2
			C88.5,72.4,88.4,72.3,88.2,72.3"/>
		<path class="st0" d="M143.7,72.3l-0.4,0c-0.3,0-0.5-0.1-0.6-0.3c-0.1-0.1-0.1-0.4-0.1-0.9v-6.3c0-0.2-0.1-0.3-0.2-0.3l0,0
			l-0.5,0.2c-0.5,0.3-1,0.5-1.3,0.6c-0.3,0.1-0.5,0.2-0.5,0.3c0,0,0,0.1,0,0.1c0.1,0.1,0.2,0.1,0.4,0.1c0.3,0,0.5,0.1,0.6,0.2
			c0.1,0.1,0.1,0.5,0.1,1v4.1c0,0.4,0,0.6-0.1,0.8c-0.1,0.2-0.2,0.3-0.4,0.3l-0.2,0.1c-0.2,0.1-0.2,0.2-0.2,0.2
			c0,0.1,0.1,0.2,0.3,0.2c0.1,0,0.2,0,0.3,0c0.1,0,0.2,0,0.3,0l0.7,0l0.6,0c0.3,0,0.5,0,0.6,0c0.3,0,0.5,0,0.6,0
			c0.2,0,0.3-0.1,0.3-0.2C144,72.4,143.9,72.3,143.7,72.3"/>
		<path class="st0" d="M139.1,72.3l-0.4-0.1c-0.4-0.1-0.7-0.3-0.7-0.7l0-0.4l0-0.3v-2.2c0-1.1-0.2-2-0.6-2.6
			c-0.6-0.8-1.4-1.2-2.4-1.2c-0.9,0-1.7,0.5-2.5,1.4v-0.9c0-0.1,0-0.3,0-0.4c0-0.1,0-0.2-0.1-0.3c-0.1-0.1-0.2-0.1-0.4,0
			c-0.1,0-0.2,0.1-0.4,0.2l-0.5,0.2c-0.4,0.2-0.8,0.3-1.2,0.4c-0.2,0-0.3,0.1-0.3,0.2c0,0.1,0,0.1,0.1,0.2c0.1,0,0.1,0,0.2,0l0.4,0
			c0.3,0,0.5,0.1,0.6,0.2c0.1,0.1,0.2,0.4,0.2,0.9v4.2c0,0.3-0.1,0.6-0.2,0.8c-0.1,0.2-0.3,0.3-0.6,0.4c-0.1,0.1-0.2,0.1-0.2,0.2
			c0,0.1,0,0.1,0,0.1c0,0,0.1,0.1,0.2,0.1c0.1,0,0.2,0,0.4,0c0.2,0,0.8,0,1.8,0c0.5,0,0.8,0,0.9,0c0.2,0,0.4,0.1,0.5,0.1
			c0.2,0,0.3-0.1,0.3-0.2c0-0.1-0.1-0.2-0.4-0.2c-0.8,0-1.2-0.3-1.3-0.8l0-0.7v-3.6c0-0.4,0.2-0.7,0.6-1c0.4-0.3,0.8-0.4,1.3-0.4
			c0.7,0,1.3,0.2,1.7,0.7c0.4,0.5,0.6,1.1,0.6,2v3.2c0,0.4-0.1,0.6-0.3,0.6l-0.3,0.1c-0.2,0-0.2,0.1-0.2,0.2c0,0.1,0,0.2,0.1,0.2
			l0.2,0l0.3,0h0.4l0.9,0c0.5,0,0.9,0,1.1,0c0.2,0,0.3,0,0.4,0c0.1,0,0.2,0,0.3-0.1c0,0,0.1-0.1,0.1-0.2
			C139.4,72.4,139.3,72.3,139.1,72.3"/>
		<path class="st0" d="M127.4,69.3c0,1-0.2,1.7-0.7,2.3c-0.4,0.6-1,0.8-1.8,0.8c-0.9,0-1.6-0.4-2.2-1.2c-0.6-0.8-0.9-1.8-0.9-2.9
			c0-0.9,0.2-1.7,0.7-2.2c0.5-0.6,1.1-0.8,1.8-0.8c0.9,0,1.6,0.4,2.1,1.1C127.1,67.1,127.4,68.1,127.4,69.3 M124.7,64.7
			c-1.2,0-2.2,0.4-3,1.2c-0.8,0.8-1.2,1.8-1.2,2.9c0,1.2,0.4,2.2,1.2,2.9c0.8,0.8,1.8,1.1,2.9,1.1c1.2,0,2.2-0.4,3-1.2
			c0.8-0.8,1.2-1.8,1.2-3c0-1.1-0.4-2.1-1.2-2.8C126.8,65.1,125.8,64.7,124.7,64.7"/>
		<path class="st0" d="M141.9,60.9c-0.1,0-0.3,0.1-0.6,0.4c-0.2,0.3-0.4,0.5-0.4,0.6c0,0.2,0.1,0.4,0.3,0.6c0.2,0.3,0.4,0.4,0.5,0.4
			c0.1,0,0.3-0.1,0.6-0.4c0.2-0.3,0.3-0.5,0.3-0.6c0-0.1,0-0.2-0.1-0.3l-0.2-0.4C142.2,61,142.1,60.9,141.9,60.9"/>
		<path class="st0" d="M99.6,66.6c0,0.1-0.1,0.2-0.4,0.2h-2.8l-0.3,0c-0.4,0-0.4-0.1-0.4-0.2c0,0,0-0.1,0.1-0.3l1.8-4
			c0.1-0.1,0.1-0.1,0.1-0.1c0,0,0.1,0,0.2,0.3l1.5,3.9l0,0.2l0,0C99.6,66.5,99.6,66.6,99.6,66.6 M104.7,72.2c-0.6-0.1-1-0.2-1.1-0.4
			c-0.2-0.2-0.4-0.6-0.7-1.4l-0.2-0.5l-4-10.3c-0.1-0.2-0.2-0.3-0.3-0.3c-0.1,0-0.2,0.1-0.3,0.3l-4.8,10.6l-0.3,0.6
			c-0.1,0.3-0.3,0.6-0.5,0.8c-0.3,0.3-0.4,0.4-0.5,0.4l-0.3,0.1c-0.1,0-0.2,0.1-0.2,0.2c0,0.1,0,0.2,0.3,0.2c0,0,0,0,0.5-0.1
			c0.1,0,0.2,0,0.4,0c0.4,0,0.7,0,1,0l0.9,0.1c0.1,0,0.2,0,0.3,0c0.1,0,0.2,0,0.3-0.1c0,0,0-0.1,0-0.1c0-0.1-0.1-0.2-0.3-0.3
			c-0.4-0.1-0.7-0.2-0.8-0.3c-0.1-0.1-0.2-0.3-0.2-0.6c0-0.3,0.1-0.8,0.4-1.4l0.6-1.4c0.2-0.5,0.4-0.7,0.4-0.7
			c0.1,0,0.3-0.1,0.8-0.1h3.4c0.4,0,0.6,0,0.6,0.1c0,0,0.1,0.2,0.3,0.6l0.5,1.2c0.4,1,0.6,1.6,0.6,2c0,0.3-0.1,0.5-0.4,0.6l-0.3,0.1
			c-0.2,0-0.3,0.2-0.3,0.2c0,0.1,0,0.2,0.3,0.2c0.1,0,0.2,0,0.3,0c0.2,0,0.8-0.1,1.6-0.1c0.8,0,1.4,0,1.7,0c0.2,0,0.3,0,0.4,0
			c0.2,0,0.3-0.1,0.3-0.2C105,72.4,104.9,72.3,104.7,72.2"/>
		<path class="st0" d="M151.4,69.3c0,1-0.2,1.7-0.7,2.3c-0.4,0.6-1,0.8-1.8,0.8c-0.9,0-1.6-0.4-2.2-1.2c-0.6-0.8-0.9-1.8-0.9-2.9
			c0-0.9,0.2-1.7,0.7-2.2c0.5-0.6,1.1-0.8,1.8-0.8c0.9,0,1.6,0.4,2.1,1.1C151.2,67.1,151.4,68.1,151.4,69.3 M148.7,64.7
			c-1.2,0-2.2,0.4-3,1.2c-0.8,0.8-1.2,1.8-1.2,2.9c0,1.2,0.4,2.2,1.2,2.9c0.8,0.8,1.8,1.1,2.9,1.1c1.2,0,2.2-0.4,3-1.2
			c0.8-0.8,1.2-1.8,1.2-3c0-1.1-0.4-2.1-1.2-2.8C150.8,65.1,149.8,64.7,148.7,64.7"/>
		<path class="st0" d="M114.3,72.3l-0.4-0.1c-0.4-0.1-0.7-0.3-0.7-0.7l0-0.4l0-0.3v-2.2c0-1.1-0.2-2-0.6-2.6
			c-0.6-0.8-1.4-1.2-2.4-1.2c-0.9,0-1.7,0.5-2.5,1.4v-0.9c0-0.1,0-0.3,0-0.4c0-0.1,0-0.2-0.1-0.3c-0.1-0.1-0.2-0.1-0.4,0
			c0,0-0.2,0.1-0.4,0.2l-0.5,0.2c-0.4,0.2-0.8,0.3-1.2,0.4c-0.2,0-0.3,0.1-0.3,0.2c0,0.1,0,0.1,0.1,0.2c0.1,0,0.1,0,0.2,0l0.4,0
			c0.3,0,0.5,0.1,0.6,0.2c0.1,0.1,0.2,0.4,0.2,0.9v4.2c0,0.3-0.1,0.6-0.2,0.8c-0.1,0.2-0.3,0.3-0.6,0.4c-0.1,0.1-0.2,0.1-0.2,0.2
			c0,0.1,0,0.1,0,0.1c0,0,0.1,0.1,0.2,0.1c0.1,0,0.2,0,0.4,0c0.2,0,0.8,0,1.8,0c0.5,0,0.8,0,0.9,0c0.2,0,0.4,0.1,0.5,0.1
			c0.2,0,0.3-0.1,0.3-0.2c0-0.1-0.1-0.2-0.4-0.2c-0.8,0-1.2-0.3-1.3-0.8l0-0.7v-3.6c0-0.4,0.2-0.7,0.6-1c0.4-0.3,0.8-0.4,1.3-0.4
			c0.7,0,1.3,0.2,1.7,0.7c0.4,0.5,0.6,1.1,0.6,2v3.2c0,0.4-0.1,0.6-0.3,0.6l-0.3,0.1c-0.2,0-0.2,0.1-0.2,0.2c0,0.1,0,0.2,0.1,0.2
			l0.2,0l0.3,0h0.4l0.9,0c0.5,0,0.9,0,1.1,0c0.2,0,0.3,0,0.4,0c0.1,0,0.2,0,0.3-0.1c0,0,0.1-0.1,0.1-0.2
			C114.6,72.4,114.5,72.3,114.3,72.3"/>
		<path class="st0" d="M120.2,71.7L120.2,71.7l-0.6,0.3c-0.3,0.1-0.6,0.2-0.9,0.2c-0.5,0-0.8-0.1-1.1-0.4c-0.2-0.2-0.2-0.6-0.2-1.2
			V66h2.2c0.2,0,0.4-0.1,0.5-0.3l0.2-0.5c0.1-0.2,0.1-0.2,0.1-0.3c0-0.1,0-0.1,0-0.1c0,0-0.1,0-0.1,0c-0.1,0-0.1,0-0.2,0.1
			c-0.1,0.1-0.3,0.1-0.6,0.1h-1.9l0-1.6c0-0.2-0.1-0.3-0.2-0.3c-0.1,0-0.2,0.1-0.4,0.4c-0.4,0.6-0.9,1.2-1.7,1.8
			c-0.2,0.1-0.3,0.3-0.3,0.4c0,0.1,0.1,0.2,0.3,0.2h0.8v4.7c0,1.5,0.7,2.3,2.2,2.3c0.4,0,0.9-0.1,1.4-0.4c0.5-0.2,0.8-0.5,0.8-0.7
			C120.4,71.7,120.3,71.7,120.2,71.7"/>
	</g>
	<g>
		<rect x="61.8" y="79.5" class="st0" width="152.9" height="1"/>
	</g>
	<g id="_x3C_ESS_x3E__00000033369475576196849780000001963858218408011914_">
		<g>
			<g>
				<path class="st0" d="M64.5,92.7c0,0.6,0,0.6,0.7,0.6h1.9c1.9,0,1.4-1.4,1.8-1.4c0.1,0,0.2,0.2,0.2,0.3c0,0.6,0,1.2,0,1.8
					c0,0.5,0,0.9,0,1.4c0,0.2-0.1,0.2-0.2,0.2c-0.6,0,0.1-1.6-1.5-1.6h-2.7c-0.4,0-0.3,0.3-0.3,0.6V98c0,1.1-0.1,1.5,1.4,1.5
					c4.2,0,4.8-1.9,5-1.9c0.1,0,0.1,0.2,0.1,0.2c0,0.6-0.5,1.3-0.9,1.7c-0.6,0.6-1,0.6-1.8,0.6c-1.4,0-2.7-0.1-4.1-0.1
					c-0.7,0-1.5,0.1-2.2,0.1c-0.2,0-0.3,0-0.3-0.2c0-0.2,0.2-0.2,0.8-0.5c0.5-0.2,0.5-0.7,0.5-1.6v-8.2c0-0.8,0-1.7-1-1.8
					c-0.1,0-0.5-0.1-0.5-0.3c0-0.1,0.1-0.2,0.6-0.2c3.4,0,4.3,0.1,5.1,0.1c0.4,0,2-0.1,2.6-0.1c0.1,0,0.2,0.2,0.2,0.4
					c0,2-0.3,2.1-0.4,2.1c-0.4,0-0.1-0.9-0.4-1.3c-0.5-0.6-2.3-0.5-3.1-0.5c-1.7,0-1.7-0.1-1.7,1.1V92.7z"/>
				<path class="st0" d="M68.6,100.3c0,0-0.1,0-0.1,0h-0.1c-0.6,0-1.2,0-1.8,0c-0.8,0-1.6-0.1-2.3,0c-0.3,0-0.6,0-0.9,0
					c-0.4,0-0.9,0-1.3,0c-0.1,0-0.3,0-0.3-0.2c0-0.2,0.1-0.2,0.4-0.3c0.1,0,0.3-0.1,0.5-0.2c0.4-0.2,0.5-0.6,0.5-1.5v-8.2
					c0-0.8,0-1.6-0.9-1.8c0,0-0.1,0-0.1,0c-0.2,0-0.5-0.1-0.5-0.3c0-0.2,0.2-0.3,0.7-0.3c2.3,0,3.5,0,4.2,0.1c0.4,0,0.6,0,0.9,0
					c0.2,0,0.6,0,1,0c0.6,0,1.2,0,1.5,0c0.2,0,0.2,0.3,0.2,0.4c0,2.2-0.3,2.2-0.4,2.2c-0.3,0-0.3-0.3-0.3-0.6c0-0.2,0-0.5-0.1-0.7
					c-0.4-0.5-1.9-0.5-2.7-0.5c-0.1,0-0.2,0-0.3,0l-0.3,0c-0.7,0-1.1,0-1.2,0.1c-0.1,0.1-0.1,0.4-0.1,0.9v3.5c0,0.2,0,0.4,0.1,0.4
					c0.1,0.1,0.2,0.1,0.6,0.1h1.9c1.2,0,1.4-0.6,1.5-1c0.1-0.2,0.1-0.4,0.3-0.4c0.2,0,0.2,0.2,0.2,0.4c0,0.3,0,0.6,0,1
					c0,0.3,0,0.6,0,0.9c0,0.2,0,0.5,0,0.7c0,0.2,0,0.5,0,0.7c0,0.2-0.2,0.3-0.2,0.3c-0.3,0-0.3-0.3-0.4-0.5c-0.1-0.5-0.2-1-1.1-1
					h-2.7c-0.1,0-0.2,0-0.2,0.1c-0.1,0.1-0.1,0.2-0.1,0.4c0,0,0,0.1,0,0.1V98c0,0.1,0,0.2,0,0.3c0,0.5,0,0.8,0.2,0.9
					c0.2,0.2,0.5,0.2,1.1,0.2c3.3,0,4.4-1.2,4.8-1.7c0.1-0.1,0.2-0.2,0.2-0.2c0.1,0,0.2,0.2,0.2,0.3c0,0.5-0.3,1.1-0.9,1.8
					C69.6,100.3,69.3,100.3,68.6,100.3z M64.9,100.1c0.6,0,1.2,0,1.8,0c0.6,0,1.2,0,1.8,0h0.1c0,0,0.1,0,0.1,0c0.6,0,1,0,1.5-0.6
					c0.6-0.6,0.9-1.2,0.9-1.7c0,0,0-0.2-0.1-0.2c0,0-0.1,0.1-0.2,0.2c-0.4,0.5-1.5,1.7-4.8,1.7c-0.7,0-1-0.1-1.2-0.3
					c-0.2-0.2-0.2-0.5-0.2-1c0-0.1,0-0.2,0-0.3v-3.3c0,0,0-0.1,0-0.1c0-0.2,0-0.3,0.1-0.4c0.1-0.1,0.2-0.1,0.3-0.1h2.7
					c1,0,1.1,0.6,1.2,1.1c0.1,0.3,0.1,0.5,0.3,0.5c0.1,0,0.1,0,0.1-0.2c0-0.2,0-0.5,0-0.7c0-0.2,0-0.5,0-0.7c0-0.3,0-0.6,0-0.9
					c0-0.3,0-0.6,0-0.9c0-0.1,0-0.3-0.1-0.3c-0.1,0-0.1,0.1-0.2,0.3c-0.1,0.4-0.3,1.1-1.6,1.1h-1.9c-0.4,0-0.6,0-0.7-0.1
					c-0.1-0.1-0.1-0.2-0.1-0.5v-3.5c0-0.5,0-0.8,0.2-0.9c0.2-0.2,0.5-0.2,1.3-0.2l0.3,0c0.1,0,0.2,0,0.3,0c0.9,0,2.4,0,2.8,0.5
					c0.1,0.2,0.2,0.5,0.2,0.7c0,0.3,0,0.5,0.2,0.5c0.1,0,0.3-0.2,0.3-2.1c0-0.3-0.1-0.3-0.1-0.3c-0.3,0-1,0-1.5,0c-0.5,0-0.9,0-1,0
					c-0.2,0-0.5,0-0.9,0c-0.8,0-1.9-0.1-4.2-0.1c-0.5,0-0.6,0.1-0.6,0.2c0,0.1,0.3,0.2,0.4,0.2c0,0,0.1,0,0.1,0c1,0.1,1,1.1,1,1.9
					V98c0,0.9,0,1.4-0.5,1.6c-0.2,0.1-0.4,0.2-0.5,0.2c-0.2,0.1-0.3,0.1-0.3,0.2c0,0.1,0,0.1,0.2,0.1c0.4,0,0.9,0,1.3,0
					c0.3,0,0.6,0,0.9,0C64.5,100.1,64.7,100.1,64.9,100.1z"/>
			</g>
			<g>
				<path class="st0" d="M77.4,88.8c0-1.1-1.4-0.6-1.4-1c0-0.1,0.1-0.2,0.2-0.2c1.4-0.3,1.9-0.9,2.4-0.9c0.1,0,0.2,0.1,0.2,0.3v12.3
					c0,0.2,0.4,0.4,1,0.5c0.1,0,0.2,0,0.2,0.2c0,0.1-0.5,0.3-1.1,0.3c-0.5,0-1,0.1-1.1,0.1c-0.1,0-0.2-0.1-0.2-0.3v-1h0
					c-0.6,0.8-1.6,1.3-2.6,1.3c-2,0-3.2-1.8-3.2-3.7c0-2.1,1.5-4.2,3.8-4.2c0.8,0,1.5,0.2,2.1,0.6V88.8z M77.4,94.9
					c0-1.3-1.1-2.1-2.4-2.1c-1.7,0-2.4,1.6-2.4,3.1s1.1,3.7,2.8,3.7c1.5,0,2-0.9,2-1.6V94.9z"/>
				<path class="st0" d="M77.6,100.4c-0.2,0-0.2-0.2-0.2-0.3v-0.9c-0.6,0.8-1.6,1.2-2.6,1.2c-0.9,0-1.8-0.4-2.4-1.2
					c-0.5-0.7-0.9-1.6-0.9-2.6c0-2.1,1.5-4.3,3.8-4.3c0.7,0,1.5,0.2,2.1,0.6v-4.1c0-0.6-0.5-0.7-0.9-0.7c-0.3,0-0.5-0.1-0.5-0.2
					c0-0.1,0.1-0.2,0.2-0.2c0.8-0.2,1.3-0.5,1.7-0.6c0.3-0.1,0.5-0.3,0.7-0.3c0.1,0,0.3,0.1,0.3,0.3v12.3c0,0.1,0.2,0.3,0.9,0.4l0,0
					c0.1,0,0.2,0,0.2,0.2c0,0.2-0.6,0.3-1.2,0.3c-0.3,0-0.6,0.1-0.8,0.1C77.8,100.4,77.7,100.4,77.6,100.4z M77.4,99h0.1v1
					c0,0,0,0.2,0.1,0.2c0.1,0,0.2,0,0.3,0c0.2,0,0.5-0.1,0.8-0.1c0.8,0,1.1-0.2,1.1-0.2c0-0.1,0-0.1-0.1-0.1l0,0
					c-0.7-0.1-1-0.3-1-0.5V87c0-0.1-0.1-0.2-0.2-0.2c-0.2,0-0.4,0.1-0.6,0.2c-0.4,0.2-0.9,0.5-1.7,0.7c-0.1,0-0.1,0.1-0.1,0.1
					c0,0.1,0.2,0.1,0.4,0.1c0.4,0,1,0.1,1,0.8v4.3l-0.1-0.1c-0.6-0.4-1.3-0.6-2.1-0.6c-1.8,0-3.7,1.6-3.7,4.2c0,2.3,1.6,3.6,3.1,3.6
					C75.7,100.3,76.7,99.8,77.4,99L77.4,99z M75.4,99.6c-1.7,0-2.8-2.2-2.8-3.7c0-1.5,0.8-3.1,2.5-3.1c1.4,0,2.4,0.9,2.4,2.1V98
					C77.5,98.6,77,99.6,75.4,99.6z M75,92.9c-1.6,0-2.4,1.6-2.4,3c0,1.5,1.1,3.6,2.7,3.6c1.6,0,2-1,2-1.5v-3.1
					C77.4,93.7,76.4,92.9,75,92.9z"/>
			</g>
			<g>
				<path class="st0" d="M85.9,93.7c0-0.7-1-0.3-1-0.7c0-0.1,0.2-0.2,0.3-0.2c0.5,0,0.8-0.1,1-0.1c0.2,0,0.4-0.1,0.6-0.1
					c0.1,0,0.3,0.1,0.3,0.4v6.2c0,0.5,1.1,0.2,1.1,0.6c0,0.1-0.4,0.2-0.7,0.2c-0.5,0-0.8,0.1-1,0.1c-0.2,0.1-0.3,0.1-0.6,0.1
					c-0.1,0-0.2-0.2-0.2-0.3v-1h0c-0.6,0.8-1.4,1.3-2.4,1.3c-1.4,0-2.6-0.9-2.6-2.4v-4.2c0-0.7-1-0.3-1-0.7c0-0.1,0.2-0.2,0.3-0.2
					c0.5,0,0.8-0.1,1-0.1c0.2,0,0.4-0.1,0.6-0.1c0.1,0,0.3,0.1,0.3,0.4v4.6c0,1.9,1.5,2,1.7,2c1,0,1.9-0.8,2-1.3V93.7z"/>
				<path class="st0" d="M86.1,100.4c-0.2,0-0.2-0.2-0.2-0.3v-0.9c-0.5,0.8-1.4,1.2-2.4,1.2c-1.6,0-2.7-1-2.7-2.5v-4.2
					c0-0.3-0.2-0.4-0.5-0.4c-0.2,0-0.4-0.1-0.4-0.3c0-0.1,0.1-0.2,0.4-0.2c0.5,0,0.8-0.1,1-0.1c0.1,0,0.1,0,0.1,0
					c0.1,0,0.3-0.1,0.5-0.1c0.1,0,0.4,0.1,0.4,0.5v4.6c0,0.6,0.2,1.1,0.5,1.5c0.5,0.5,1.2,0.5,1.2,0.5c1,0,1.9-0.7,1.9-1.2v-4.7
					c0-0.3-0.2-0.4-0.5-0.4c-0.2,0-0.4-0.1-0.4-0.3c0-0.1,0.1-0.2,0.4-0.2c0.5,0,0.8-0.1,1-0.1c0.1,0,0.1,0,0.1,0
					c0.1,0,0.3-0.1,0.5-0.1c0.1,0,0.4,0.1,0.4,0.5v6.2c0,0.2,0.2,0.2,0.6,0.3c0.3,0,0.6,0.1,0.6,0.3c0,0.2-0.3,0.2-0.7,0.2
					c-0.4,0-0.7,0-0.9,0.1l-0.1,0l-0.1,0C86.4,100.4,86.3,100.4,86.1,100.4z M85.8,99H86v1c0,0,0,0.2,0.1,0.2c0.2,0,0.4,0,0.5-0.1
					l0.1,0l0.1,0c0.2,0,0.5-0.1,0.9-0.1c0.6,0,0.6-0.1,0.6-0.1c0-0.1-0.2-0.2-0.5-0.2c-0.3-0.1-0.6-0.1-0.6-0.4v-6.2
					c0-0.3-0.2-0.4-0.3-0.4c-0.2,0-0.4,0-0.5,0.1c0,0-0.1,0-0.1,0c-0.2,0.1-0.4,0.1-1,0.1c-0.1,0-0.3,0-0.3,0.1
					c0,0.1,0.1,0.2,0.4,0.2c0.3,0,0.6,0.1,0.6,0.5v4.7c0,0.6-1,1.3-2,1.3c-0.1,0-0.8,0-1.3-0.5c-0.4-0.4-0.5-0.9-0.5-1.6v-4.6
					c0-0.3-0.2-0.4-0.3-0.4c-0.2,0-0.4,0-0.5,0.1c0,0-0.1,0-0.1,0c-0.2,0.1-0.4,0.1-1,0.1c-0.1,0-0.3,0-0.3,0.1
					c0,0.1,0.1,0.2,0.4,0.2c0.3,0,0.6,0.1,0.6,0.5v4.2c0,1.4,1.1,2.4,2.6,2.4C84.5,100.3,85.3,99.9,85.8,99L85.8,99z"/>
			</g>
			<g>
				<path class="st0" d="M88.6,96.5c0-2.3,1.8-4.1,4.1-4.1c0.9,0,2.1,0.3,2.2,0.7c0,0.4,0,0.8,0,1.1c0,0.3-0.1,0.4-0.1,0.4
					c-0.2,0-0.4-0.3-0.4-0.4C93.6,93.3,92.9,93,92,93c-1.5,0-2.1,1.6-2.1,2.9c0,1.9,1.2,3.5,3.2,3.5c1.4,0,2.2-1,2.5-1
					c0.1,0,0.1,0.1,0.1,0.1c0,0.3-1.1,1.8-3.5,1.8C90.1,100.4,88.6,98.5,88.6,96.5z"/>
				<path class="st0" d="M92.2,100.4c-2,0-3.6-1.7-3.6-3.9c0-2.3,1.8-4.2,4.1-4.2c0.9,0,2.2,0.2,2.2,0.7c0,0.3,0,0.6,0,0.9
					c0,0.1,0,0.1,0,0.2c0,0.4-0.1,0.4-0.2,0.4c-0.2,0-0.3-0.3-0.4-0.4c0,0,0,0,0,0c-0.5-0.7-1.3-1.1-2.2-1.1c-1.4,0-2.1,1.5-2.1,2.8
					c0,1.7,1,3.5,3.1,3.5c1,0,1.6-0.5,2-0.8c0.2-0.1,0.3-0.2,0.4-0.2c0.1,0,0.2,0.1,0.2,0.2C95.8,98.8,94.7,100.4,92.2,100.4z
					 M92.6,92.5c-2.2,0-4,1.8-4,4.1c0,2.1,1.6,3.8,3.5,3.8c2.4,0,3.5-1.5,3.5-1.8c0,0-0.1-0.1-0.1-0.1c-0.1,0-0.2,0.1-0.4,0.2
					c-0.4,0.3-1.1,0.8-2.1,0.8c-1.9,0-3.2-1.4-3.2-3.6c0-1.4,0.7-2.9,2.2-2.9c1,0,1.7,0.4,2.3,1.1c0,0,0,0,0,0.1
					c0.1,0.1,0.2,0.3,0.4,0.3c0,0,0.1-0.1,0.1-0.3c0-0.1,0-0.1,0-0.2c0-0.2,0-0.6,0-0.9C94.7,92.8,93.6,92.5,92.6,92.5z"/>
			</g>
			<g>
				<path class="st0" d="M101,94.5c0-0.9-0.7-1.6-1.9-1.6c-0.9,0-1.6,0.1-1.6,1.1c0,0.3,0.1,0.5,0.1,0.7s-0.1,0.3-0.4,0.3
					c-0.3,0-0.8-0.3-0.8-0.6c0-0.8,1-2.1,3-2c1.1,0,2.8,0.3,2.8,1.9V98c0,0.6-0.2,1.7,0.8,1.7c0.1,0,0.2,0,0.3,0
					c0.1,0,0.2,0,0.2,0.1c0,0.4-0.8,0.5-1,0.5c-0.7,0-1.2-0.3-1.4-0.9c-0.8,0.6-1.7,1-2.8,1c-1.2,0-1.9-0.4-1.9-1.7
					c0-1,0.3-2.1,4.5-2.8V94.5z M101,96.3c-1.2,0.3-3.3,0.5-3.3,2.1c0,1,0.5,1.4,1.5,1.4c0.6,0,1.9-0.5,1.9-1.5V96.3z"/>
				<path class="st0" d="M98.5,100.4c-1.3,0-2-0.6-2-1.8c0-1,0.4-2.1,4.5-2.8v-1.3c0-0.9-0.7-1.5-1.8-1.5c-0.8,0-1.5,0.1-1.5,1
					c0,0.1,0,0.3,0.1,0.4c0,0.1,0,0.2,0,0.3c0,0.2-0.1,0.4-0.4,0.4c-0.3,0-0.9-0.3-0.9-0.6c0-0.4,0.2-0.9,0.6-1.3
					c0.6-0.5,1.4-0.8,2.3-0.8c0,0,0.1,0,0.1,0c0.7,0,2.9,0.1,2.9,1.9V98c0,0.1,0,0.2,0,0.2c0,0.4,0,0.9,0.2,1.2
					c0.1,0.1,0.3,0.2,0.5,0.2c0,0,0.1,0,0.1,0c0.1,0,0.1,0,0.2,0c0.1,0,0.3,0,0.3,0.2c0,0.5-1.1,0.5-1.1,0.5c-0.7,0-1.2-0.3-1.4-0.9
					C100.4,100,99.4,100.4,98.5,100.4z M99.2,92.9c1.1,0,1.9,0.6,1.9,1.6v1.4l0,0c-4.1,0.7-4.5,1.8-4.5,2.7c0,1.1,0.6,1.7,1.9,1.7
					c1,0,2-0.4,2.7-1l0.1,0l0,0.1c0.2,0.6,0.7,0.9,1.4,0.9c0.3,0,1-0.1,1-0.4c0-0.1,0-0.1-0.2-0.1c0,0-0.1,0-0.1,0
					c-0.1,0-0.1,0-0.2,0c-0.2,0-0.4-0.1-0.6-0.2c-0.3-0.3-0.3-0.8-0.3-1.3c0-0.1,0-0.2,0-0.2v-3.7c0-1.7-2.1-1.8-2.8-1.8
					c0,0-0.1,0-0.1,0c-0.9,0-1.7,0.3-2.2,0.8c-0.4,0.4-0.6,0.8-0.6,1.2c0,0.3,0.5,0.5,0.8,0.5c0.3,0,0.3-0.1,0.3-0.3
					c0-0.1,0-0.2,0-0.3c0-0.1-0.1-0.3-0.1-0.4C97.6,92.9,98.3,92.9,99.2,92.9z M99.2,99.9c-1,0-1.5-0.5-1.5-1.5c0-1.5,1.8-1.9,3-2.1
					c0.1,0,0.2,0,0.3-0.1l0.1,0v2.2C101.1,99.4,99.8,99.9,99.2,99.9z M101,96.4c-0.1,0-0.2,0-0.3,0.1c-1.2,0.2-3,0.6-3,2
					c0,0.9,0.4,1.4,1.4,1.4c0.6,0,1.8-0.5,1.8-1.4V96.4z"/>
			</g>
			<g>
				<path class="st0" d="M104.7,93.4c-0.8,0-1,0-1-0.1c0-0.1,0.5-0.5,1.4-1.5c0.4-0.4,0.5-0.8,0.7-0.8c0.3,0,0.2,0.4,0.2,1.7h2
					c0.5,0,0.6-0.3,0.7-0.3c0.1,0,0.1,0.1,0.1,0.1c0,0.1-0.1,0.2-0.1,0.3l-0.4,0.6H106v5.2c0,0.7,0.5,1.1,1.3,1.1
					c1,0,1.2-0.4,1.5-0.4c0.1,0,0.1,0,0.1,0.2c0,0.3-1,0.9-2.2,0.9c-0.8,0-2-0.2-2-2.1V93.4z"/>
				<path class="st0" d="M106.7,100.4c-1.4,0-2.1-0.7-2.1-2.1v-4.8c-0.9,0-1,0-1-0.2c0-0.1,0.1-0.2,0.4-0.5c0.2-0.2,0.6-0.5,1-1
					c0.1-0.2,0.3-0.3,0.3-0.5c0.2-0.2,0.3-0.4,0.4-0.4c0.2,0,0.2,0.2,0.3,0.3c0,0.2,0,0.6,0,1.1v0.2h1.9c0.3,0,0.5-0.2,0.6-0.2
					c0,0,0.1-0.1,0.1-0.1c0.1,0,0.2,0.1,0.2,0.2c0,0.1-0.1,0.2-0.1,0.3l-0.4,0.7H106v5.2c0,0.7,0.5,1,1.2,1c0.6,0,0.9-0.2,1.2-0.3
					c0.1-0.1,0.3-0.1,0.4-0.1c0.1,0,0.2,0.1,0.2,0.2C109,99.8,108,100.4,106.7,100.4z M105.7,91c-0.1,0-0.2,0.2-0.3,0.3
					c-0.1,0.1-0.2,0.3-0.4,0.5c-0.4,0.5-0.8,0.8-1,1c-0.2,0.2-0.4,0.3-0.4,0.4c0,0.1,0.2,0.1,0.9,0.1h0.1v4.9c0,1.4,0.6,2,2,2
					c1.3,0,2.2-0.6,2.2-0.8c0-0.1,0-0.1-0.1-0.1c-0.1,0-0.2,0.1-0.3,0.1c-0.2,0.1-0.6,0.3-1.2,0.3c-0.8,0-1.3-0.4-1.3-1.1v-5.3h2.4
					l0.3-0.6c0.1-0.1,0.1-0.2,0.1-0.2c0,0,0-0.1-0.1-0.1c0,0,0,0,0,0c-0.1,0.1-0.3,0.3-0.7,0.3h-2v-0.3c0-0.5,0-0.9,0-1.1
					C105.9,91.1,105.8,91,105.7,91z"/>
			</g>
			<g>
				<path class="st0" d="M110.6,94.4c0-1.1-1-0.6-1-1c0-0.1,0.1-0.2,0.2-0.2c1.2-0.3,1.5-0.9,1.9-0.9c0.1,0,0.2,0.1,0.2,0.3V99
					c0,0.9,1.4,0.5,1.4,1c0,0.1-0.1,0.2-0.3,0.2c-0.4,0-0.9-0.1-1.7-0.1c-0.6,0-1,0.1-1.2,0.1c-0.1,0-0.3,0-0.3-0.2
					c0-0.5,0.8,0.2,0.8-1.4V94.4z M112,89.7c0,0.2-0.5,0.9-0.8,0.9c-0.2,0-0.8-0.7-0.8-0.9c0-0.2,0.5-1,0.8-1
					C111.5,88.7,112,89.5,112,89.7z"/>
				<path class="st0" d="M113,100.3c-0.2,0-0.3,0-0.6,0c-0.3,0-0.7,0-1.1,0c-0.4,0-0.7,0-0.9,0c-0.1,0-0.3,0-0.3,0
					c-0.1,0-0.3,0-0.3-0.2c0-0.2,0.1-0.2,0.3-0.3c0.2,0,0.5-0.1,0.5-1.2v-4.2c0-0.6-0.4-0.7-0.6-0.7c-0.2,0-0.4-0.1-0.4-0.2
					c0-0.1,0.1-0.2,0.2-0.2c0.6-0.2,1-0.4,1.3-0.6c0.2-0.2,0.4-0.3,0.6-0.3c0.1,0,0.3,0.1,0.3,0.3V99c0,0.5,0.4,0.6,0.8,0.6
					c0.3,0.1,0.6,0.1,0.6,0.3C113.4,100.3,113.2,100.3,113,100.3z M111.3,100.1c0.4,0,0.8,0,1.1,0c0.2,0,0.4,0,0.6,0
					c0.3,0,0.3-0.1,0.3-0.1c0-0.1-0.2-0.2-0.5-0.2c-0.4-0.1-0.9-0.2-0.9-0.7v-6.5c0-0.1-0.1-0.2-0.2-0.2c-0.2,0-0.3,0.1-0.6,0.3
					c-0.3,0.2-0.7,0.5-1.3,0.6c-0.1,0-0.1,0.1-0.1,0.1c0,0.1,0.1,0.1,0.3,0.1c0.3,0,0.7,0.1,0.7,0.8v4.2c0,1.1-0.4,1.2-0.6,1.3
					c-0.1,0-0.2,0-0.2,0.2c0,0.1,0.1,0.1,0.2,0.1c0.1,0,0.2,0,0.3,0C110.6,100.1,110.9,100.1,111.3,100.1z M111.2,90.7
					c-0.3,0-0.8-0.8-0.8-1c0-0.2,0.6-1,0.8-1c0.3,0,0.8,0.8,0.8,1C112,89.9,111.5,90.7,111.2,90.7z M111.2,88.8
					c-0.2,0-0.7,0.7-0.7,0.9c0,0.2,0.5,0.9,0.7,0.9c0.2,0,0.7-0.7,0.7-0.9C111.9,89.5,111.4,88.8,111.2,88.8z"/>
			</g>
			<g>
				<path class="st0" d="M113.5,96.5c0-2.2,1.7-4.1,4-4.1c1.4,0,3.9,0.7,3.9,4c0,2.2-1.7,3.9-3.9,3.9
					C115.2,100.4,113.5,99,113.5,96.5z M120.2,96.7c0-1.9-0.8-3.9-2.9-3.9c-1.8,0-2.5,1.5-2.5,3.1c0,1.8,0.8,4.1,2.9,4.1
					C119.2,100,120.2,99,120.2,96.7z"/>
				<path class="st0" d="M117.6,100.4c-2.5,0-4.1-1.5-4.1-3.9c0-2.3,1.8-4.2,4.1-4.2c0.7,0,4,0.2,4,4.1
					C121.5,98.7,119.8,100.4,117.6,100.4z M117.5,92.5c-2.2,0-4,1.8-4,4.1c0,2.3,1.6,3.8,4,3.8c2.2,0,3.8-1.7,3.8-3.9
					C121.4,92.7,118.2,92.5,117.5,92.5z M117.7,100c-2.1,0-3-2.1-3-4.1c0-1.4,0.7-3.1,2.5-3.1c1,0,1.8,0.4,2.3,1.3
					c0.4,0.7,0.7,1.6,0.7,2.7C120.2,98.9,119.3,100,117.7,100z M117.3,92.9c-1.8,0-2.4,1.6-2.4,3c0,1,0.2,1.9,0.7,2.7
					c0.4,0.6,1,1.3,2.2,1.3c1.6,0,2.4-1.1,2.4-3.2C120.1,93.9,118.7,92.9,117.3,92.9z"/>
			</g>
			<g>
				<path class="st0" d="M124.4,98.8c0,1.2,1.6,0.7,1.6,1.2c0,0.2-0.1,0.3-0.4,0.3c-0.3,0-0.7-0.1-1.7-0.1c-1,0-1.3,0.1-1.5,0.1
					c-0.2,0-0.3,0-0.3-0.2c0-0.4,1.1,0,1.1-1.2v-4.5c0-1.1-1.3-0.6-1.3-1c0-0.1,0.1-0.2,0.2-0.2c1.5-0.3,1.9-0.9,2.3-0.9
					c0.1,0,0.2,0.1,0.2,0.3v1.2c0,0.2,0.9-1.3,2.6-1.3c2.4,0,2.9,2,2.9,3.4v3c0,1.2,1.4,0.7,1.4,1.2c0,0.2-0.1,0.3-0.3,0.3
					c-0.2,0-0.7-0.1-1.6-0.1c-0.7,0-1.1,0.1-1.3,0.1c-0.2,0-0.3,0-0.3-0.2c0-0.4,0.8,0,0.8-1.2v-3.4c0-0.9-0.6-2.2-2.1-2.2
					c-1.5,0-2.1,1.1-2.1,1.4V98.8z"/>
				<path class="st0" d="M131,100.3c-0.1,0-0.2,0-0.3,0c-0.3,0-0.7-0.1-1.2-0.1c-0.4,0-0.7,0-1,0c-0.1,0-0.2,0-0.3,0
					c-0.2,0-0.4,0-0.4-0.3c0-0.2,0.1-0.2,0.3-0.3c0.2-0.1,0.5-0.2,0.5-0.9v-3.4c0-0.9-0.7-2.2-2.1-2.2c-0.9,0-1.5,0.4-1.7,0.7
					c-0.3,0.3-0.4,0.6-0.4,0.7v4.1c0,0.7,0.6,0.8,1,0.9c0.3,0,0.6,0.1,0.6,0.3c0,0.3-0.2,0.3-0.4,0.3c-0.1,0-0.2,0-0.4,0
					c-0.3,0-0.7-0.1-1.3-0.1c-0.6,0-1,0-1.3,0.1c-0.1,0-0.2,0-0.3,0c-0.2,0-0.4,0-0.4-0.3c0-0.2,0.2-0.2,0.3-0.3
					c0.3-0.1,0.7-0.2,0.7-0.9v-4.5c0-0.6-0.5-0.7-0.9-0.7c-0.2,0-0.5-0.1-0.5-0.2c0-0.1,0.1-0.2,0.2-0.2c0.9-0.2,1.4-0.5,1.7-0.7
					c0.2-0.1,0.4-0.2,0.6-0.2c0.1,0,0.3,0.1,0.3,0.3v1.1c0,0,0,0,0,0c0.3-0.3,1.2-1.3,2.5-1.3c1.1,0,1.9,0.4,2.4,1.2
					c0.5,0.8,0.6,1.7,0.6,2.2v3c0,0.7,0.5,0.8,0.9,0.9c0.3,0,0.5,0.1,0.5,0.3C131.4,100.2,131.2,100.3,131,100.3z M129.5,100.1
					c0.6,0,1,0,1.2,0.1c0.1,0,0.2,0,0.3,0c0.2,0,0.3,0,0.3-0.2c0-0.1-0.2-0.2-0.4-0.2c-0.4-0.1-1-0.2-1-1v-3c0-1-0.3-3.3-2.9-3.3
					c-1.3,0-2.1,0.9-2.4,1.2c-0.1,0.1-0.1,0.2-0.2,0.1c0,0,0,0,0-0.1l0-1.2c0-0.1-0.1-0.2-0.2-0.2c-0.2,0-0.3,0.1-0.5,0.2
					c-0.3,0.2-0.8,0.5-1.7,0.7c-0.1,0-0.1,0.1-0.1,0.1c0,0.1,0.1,0.1,0.4,0.1c0.4,0,1,0.1,1,0.8v4.5c0,0.8-0.5,0.9-0.8,1
					c-0.2,0-0.3,0.1-0.3,0.2c0,0.1,0,0.2,0.3,0.2c0.1,0,0.2,0,0.3,0c0.2,0,0.6-0.1,1.3-0.1c0.7,0,1.1,0,1.3,0.1c0.1,0,0.3,0,0.4,0
					c0.3,0,0.3,0,0.3-0.2c0-0.1-0.2-0.2-0.5-0.2c-0.5-0.1-1.1-0.2-1.1-1v-4.1c0-0.1,0.1-0.4,0.4-0.7c0.3-0.3,0.8-0.7,1.8-0.7
					c1.5,0,2.2,1.4,2.2,2.3v3.4c0,0.8-0.4,0.9-0.6,1c-0.1,0-0.2,0.1-0.2,0.2c0,0.1,0,0.2,0.3,0.2c0.1,0,0.2,0,0.3,0
					C128.7,100.1,129,100.1,129.5,100.1z"/>
			</g>
			<g>
				<path class="st0" d="M136.5,94.5c0-0.9-0.7-1.6-1.9-1.6c-0.9,0-1.6,0.1-1.6,1.1c0,0.3,0.1,0.5,0.1,0.7s-0.1,0.3-0.4,0.3
					c-0.3,0-0.8-0.3-0.8-0.6c0-0.8,1-2.1,3-2c1.1,0,2.8,0.3,2.8,1.9V98c0,0.6-0.2,1.7,0.8,1.7c0.1,0,0.2,0,0.3,0
					c0.1,0,0.2,0,0.2,0.1c0,0.4-0.8,0.5-1,0.5c-0.7,0-1.2-0.3-1.4-0.9c-0.8,0.6-1.7,1-2.8,1c-1.2,0-1.9-0.4-1.9-1.7
					c0-1,0.3-2.1,4.5-2.8V94.5z M136.5,96.3c-1.2,0.3-3.3,0.5-3.3,2.1c0,1,0.5,1.4,1.5,1.4c0.6,0,1.9-0.5,1.9-1.5V96.3z"/>
				<path class="st0" d="M133.9,100.4c-1.3,0-2-0.6-2-1.8c0-1,0.4-2.1,4.5-2.8v-1.3c0-0.9-0.7-1.5-1.8-1.5c-0.8,0-1.5,0.1-1.5,1
					c0,0.1,0,0.3,0.1,0.4c0,0.1,0,0.2,0,0.3c0,0.2-0.1,0.4-0.4,0.4c-0.3,0-0.9-0.3-0.9-0.6c0-0.4,0.2-0.9,0.6-1.3
					c0.6-0.6,1.5-0.9,2.4-0.8c0.7,0,2.9,0.1,2.9,1.9V98c0,0.1,0,0.2,0,0.2c0,0.4,0,0.9,0.2,1.2c0.1,0.1,0.3,0.2,0.5,0.2
					c0,0,0.1,0,0.1,0c0.1,0,0.1,0,0.2,0c0.1,0,0.3,0,0.3,0.2c0,0.5-1.1,0.5-1.1,0.5c-0.7,0-1.2-0.3-1.4-0.9
					C135.9,100,134.9,100.4,133.9,100.4z M134.6,92.9c1.1,0,1.9,0.6,1.9,1.6v1.4l0,0c-4.1,0.7-4.5,1.8-4.5,2.7
					c0,1.1,0.6,1.7,1.9,1.7c1,0,2-0.4,2.7-1l0.1,0l0,0.1c0.2,0.6,0.7,0.9,1.4,0.9c0.3,0,1-0.1,1-0.4c0-0.1,0-0.1-0.2-0.1
					c0,0-0.1,0-0.1,0c-0.1,0-0.1,0-0.2,0c-0.2,0-0.4-0.1-0.6-0.2c-0.3-0.3-0.3-0.8-0.3-1.3c0-0.1,0-0.2,0-0.2v-3.7
					c0-1.7-2.1-1.8-2.8-1.8c-1,0-1.8,0.3-2.4,0.8c-0.4,0.4-0.6,0.8-0.6,1.2c0,0.3,0.5,0.5,0.8,0.5c0.3,0,0.3-0.1,0.3-0.3
					c0-0.1,0-0.2,0-0.3c0-0.1-0.1-0.3-0.1-0.4C133,92.9,133.8,92.9,134.6,92.9z M134.6,99.9c-1,0-1.5-0.5-1.5-1.5
					c0-1.5,1.8-1.9,3-2.1c0.1,0,0.2,0,0.3-0.1l0.1,0v2.2C136.5,99.4,135.3,99.9,134.6,99.9z M136.4,96.4c-0.1,0-0.2,0-0.3,0.1
					c-1.2,0.2-3,0.6-3,2c0,0.9,0.4,1.4,1.4,1.4c0.6,0,1.8-0.5,1.8-1.4V96.4z"/>
			</g>
			<g>
				<path class="st0" d="M142.1,98.8c0,1.2,1.5,0.7,1.5,1.2c0,0.2-0.1,0.3-0.4,0.3c-0.3,0-0.8-0.1-1.7-0.1c-0.9,0-1.2,0.1-1.4,0.1
					c-0.1,0-0.2-0.1-0.2-0.2c0-0.3,0.9-0.2,0.9-1V88.8c0-1.1-1.2-0.6-1.2-1c0-0.1,0.1-0.2,0.2-0.2c1.4-0.3,1.7-0.9,2.2-0.9
					c0.1,0,0.2,0.1,0.2,0.3V98.8z"/>
				<path class="st0" d="M143.2,100.3c-0.1,0-0.2,0-0.4,0c-0.3,0-0.7-0.1-1.3-0.1c-0.6,0-1,0-1.2,0.1c-0.1,0-0.2,0-0.2,0
					c-0.1,0-0.3,0-0.3-0.3c0-0.1,0.1-0.2,0.3-0.3c0.3-0.1,0.6-0.3,0.6-0.7V88.8c0-0.6-0.4-0.7-0.8-0.7c-0.2,0-0.4-0.1-0.4-0.2
					c0-0.1,0.1-0.2,0.2-0.2c0.8-0.2,1.3-0.5,1.6-0.7c0.2-0.1,0.4-0.2,0.6-0.2c0.1,0,0.3,0.1,0.3,0.3v11.7c0,0.7,0.5,0.8,1,0.9
					c0.3,0,0.5,0.1,0.5,0.3C143.7,100.3,143.4,100.3,143.2,100.3z M141.5,100.1c0.5,0,1,0,1.3,0.1c0.2,0,0.3,0,0.4,0
					c0.3,0,0.4,0,0.4-0.2c0-0.1-0.2-0.2-0.5-0.2c-0.4-0.1-1-0.2-1-1V87c0-0.1-0.1-0.2-0.2-0.2c-0.2,0-0.3,0.1-0.5,0.2
					c-0.3,0.2-0.8,0.5-1.6,0.7c-0.1,0-0.1,0.1-0.1,0.1c0,0.1,0.1,0.1,0.3,0.1c0.4,0,0.9,0.1,0.9,0.8V99c0,0.5-0.4,0.7-0.6,0.8
					c-0.1,0.1-0.2,0.1-0.2,0.2c0,0.2,0.1,0.2,0.2,0.2c0.1,0,0.1,0,0.2,0C140.6,100.1,140.9,100.1,141.5,100.1z"/>
			</g>
			<g>
				<path class="st0" d="M148.6,97c-0.1-0.4,0-0.6,0.2-0.6c0.3,0,0.3,0.2,0.3,0.6c0.2,0.8,1.3,2.7,3.8,2.7c1.7,0,3.4-1,3.4-2.8
					c0-3.5-7.3-1.5-7.3-6.2c0-2.3,1.9-3.4,4-3.4c2.2,0,2.8,0.6,3,0.6c0.2,0,0.2-0.2,0.4-0.2c0.1,0,0.2,0.1,0.2,0.3l0.3,2.4
					c0,0.1,0,0.3-0.2,0.3c-0.2,0-0.3-0.4-0.4-0.5c-0.5-1.5-1.9-2.3-3.4-2.3c-1.4,0-2.9,0.7-2.9,2.3c0,3.4,7.3,1.4,7.3,6.4
					c0,1.5-1.1,3.8-5.1,3.8c-1.3,0-3-0.7-3-1L148.6,97z"/>
				<path class="st0" d="M152.1,100.4c-1.3,0-3-0.7-3.1-1l-0.5-2.3c0-0.2,0-0.4,0.1-0.5c0-0.1,0.1-0.1,0.2-0.1
					c0.3,0,0.3,0.2,0.4,0.5c0,0.1,0,0.1,0,0.2c0.2,0.7,1.2,2.7,3.7,2.7c1.6,0,3.3-0.9,3.3-2.8c0-1.6-1.6-2-3.2-2.5
					c-1.9-0.6-4.1-1.2-4.1-3.7c0-2.4,2-3.4,4-3.4c1.6,0,2.4,0.4,2.8,0.5c0.1,0.1,0.2,0.1,0.3,0.1c0.1,0,0.1,0,0.1-0.1
					c0.1-0.1,0.1-0.1,0.2-0.1c0.2,0,0.2,0.1,0.3,0.3l0.3,2.4c0,0.1,0,0.2-0.1,0.3c0,0-0.1,0.1-0.2,0.1c-0.2,0-0.4-0.4-0.4-0.6
					c-0.5-1.5-1.7-2.3-3.4-2.3c-1.4,0-2.9,0.7-2.9,2.3c0,1.5,1.4,1.9,3.1,2.4c2,0.6,4.2,1.2,4.2,4
					C157.3,98.3,155.9,100.4,152.1,100.4z M148.8,96.5c0,0-0.1,0-0.1,0.1c-0.1,0.1-0.1,0.2,0,0.4l0.5,2.3c0.1,0.3,1.7,0.9,3,0.9
					c1.8,0,3.2-0.4,4.1-1.3c0.7-0.6,1-1.5,1-2.4c0-2.7-2.2-3.3-4.1-3.9c-1.6-0.5-3.2-0.9-3.2-2.5c0-1.7,1.5-2.4,3-2.4
					c1.7,0,3,0.9,3.5,2.4c0,0.1,0.2,0.5,0.3,0.5c0.1,0,0.1,0,0.1,0c0,0,0-0.1,0-0.2l-0.3-2.5c0-0.2-0.1-0.2-0.2-0.2
					c-0.1,0-0.1,0-0.2,0.1c-0.1,0.1-0.1,0.1-0.2,0.1c-0.1,0-0.2,0-0.3-0.1c-0.4-0.2-1.1-0.5-2.7-0.5c-2.7,0-3.9,1.7-3.9,3.3
					c0,2.5,2,3.1,4,3.6c1.7,0.5,3.3,0.9,3.3,2.6c0,0.9-0.4,1.6-1.1,2.2c-0.6,0.5-1.5,0.7-2.4,0.7c-1.1,0-2-0.4-2.8-1.1
					c-0.6-0.6-0.9-1.2-1.1-1.7c0-0.1,0-0.1,0-0.2C149,96.6,149,96.5,148.8,96.5z"/>
			</g>
			<g>
				<path class="st0" d="M163.8,93.7c0-0.7-1-0.3-1-0.7c0-0.1,0.2-0.2,0.3-0.2c0.5,0,0.8-0.1,1-0.1c0.2,0,0.4-0.1,0.6-0.1
					c0.1,0,0.3,0.1,0.3,0.4v6.2c0,0.5,1.1,0.2,1.1,0.6c0,0.1-0.4,0.2-0.7,0.2c-0.5,0-0.8,0.1-1,0.1c-0.2,0.1-0.3,0.1-0.6,0.1
					c-0.1,0-0.2-0.2-0.2-0.3v-1h0c-0.6,0.8-1.4,1.3-2.4,1.3c-1.4,0-2.6-0.9-2.6-2.4v-4.2c0-0.7-1-0.3-1-0.7c0-0.1,0.2-0.2,0.3-0.2
					c0.5,0,0.8-0.1,1-0.1c0.2,0,0.4-0.1,0.6-0.1c0.1,0,0.3,0.1,0.3,0.4v4.6c0,1.9,1.5,2,1.7,2c1,0,1.9-0.8,2-1.3V93.7z"/>
				<path class="st0" d="M164,100.4c-0.2,0-0.2-0.2-0.2-0.3v-0.9c-0.5,0.8-1.4,1.2-2.4,1.2c-1.6,0-2.7-1-2.7-2.5v-4.2
					c0-0.3-0.2-0.4-0.5-0.4c-0.2,0-0.4-0.1-0.4-0.3c0-0.1,0.1-0.2,0.4-0.2c0.5,0,0.8-0.1,1-0.1c0.1,0,0.1,0,0.1,0
					c0.1,0,0.3-0.1,0.5-0.1c0.1,0,0.4,0.1,0.4,0.5v4.6c0,0.6,0.2,1.1,0.5,1.5c0.5,0.5,1.2,0.5,1.2,0.5c1,0,1.9-0.7,1.9-1.2v-4.7
					c0-0.3-0.2-0.4-0.5-0.4c-0.2,0-0.4-0.1-0.4-0.3c0-0.1,0.1-0.2,0.4-0.2c0.5,0,0.8-0.1,1-0.1c0.1,0,0.1,0,0.1,0
					c0.1,0,0.3-0.1,0.5-0.1c0.1,0,0.4,0.1,0.4,0.5v6.2c0,0.2,0.2,0.2,0.6,0.3c0.3,0,0.6,0.1,0.6,0.3c0,0.2-0.3,0.2-0.7,0.2
					c-0.4,0-0.7,0-0.9,0.1l-0.1,0l-0.1,0C164.3,100.4,164.2,100.4,164,100.4z M163.7,99h0.1v1c0,0,0,0.2,0.1,0.2
					c0.2,0,0.4,0,0.5-0.1l0.1,0l0.1,0c0.2,0,0.5-0.1,0.9-0.1c0.6,0,0.6-0.1,0.6-0.1c0-0.1-0.2-0.2-0.5-0.2c-0.3-0.1-0.6-0.1-0.6-0.4
					v-6.2c0-0.3-0.2-0.4-0.3-0.4c-0.2,0-0.4,0-0.5,0.1c0,0-0.1,0-0.1,0c-0.2,0.1-0.4,0.1-1,0.1c-0.1,0-0.3,0-0.3,0.1
					c0,0.1,0.1,0.2,0.4,0.2c0.3,0,0.6,0.1,0.6,0.5v4.7c0,0.6-1,1.3-2,1.3c-0.1,0-0.8,0-1.3-0.5c-0.4-0.4-0.5-0.9-0.5-1.6v-4.6
					c0-0.3-0.2-0.4-0.3-0.4c-0.2,0-0.4,0-0.5,0.1c0,0-0.1,0-0.1,0c-0.2,0.1-0.4,0.1-1,0.1c-0.1,0-0.3,0-0.3,0.1
					c0,0.1,0.1,0.2,0.4,0.2c0.3,0,0.6,0.1,0.6,0.5v4.2c0,1.4,1.1,2.4,2.6,2.4C162.4,100.3,163.2,99.9,163.7,99L163.7,99z"/>
			</g>
			<g>
				<path class="st0" d="M168.7,102.5c0,1.2,1.7,0.7,1.7,1.2c0,0.2-0.1,0.2-0.3,0.2c-0.2,0-0.7-0.1-1.9-0.1c-0.7,0-1.2,0.1-1.4,0.1
					c-0.2,0-0.3,0-0.3-0.2c0-0.5,0.9-0.2,0.9-1.3v-8c0-1.1-1.2-0.6-1.2-1c0-0.1,0.1-0.2,0.2-0.2c1.4-0.3,1.7-0.9,2.2-0.9
					c0.1,0,0.2,0.1,0.2,0.3v1c1.1-1,2-1.2,2.5-1.2c2.1,0,3.2,1.7,3.2,3.7c0,1.7-1,4.3-3.8,4.3c-0.6,0-1.3-0.2-1.9-0.5V102.5z
					 M168.7,98.3c0,1,1.1,1.6,2.3,1.6c1.7,0,2.4-1.6,2.4-3c0-1.6-0.8-3.6-2.7-3.6c-1.8,0-2,1.4-2,1.4V98.3z"/>
				<path class="st0" d="M170,103.9c-0.1,0-0.2,0-0.3,0c-0.3,0-0.7-0.1-1.6-0.1c-0.5,0-0.8,0-1.1,0.1c-0.1,0-0.3,0-0.3,0
					c-0.1,0-0.3,0-0.3-0.2c0-0.2,0.2-0.3,0.4-0.4c0.3-0.1,0.6-0.3,0.6-0.9v-8c0-0.6-0.4-0.7-0.8-0.7c-0.2,0-0.4-0.1-0.4-0.2
					c0-0.1,0.1-0.2,0.2-0.2c0.8-0.2,1.3-0.5,1.6-0.7c0.2-0.1,0.4-0.2,0.6-0.2c0.1,0,0.3,0.1,0.3,0.3v0.9c1-0.9,1.9-1.1,2.4-1.1
					c1,0,1.9,0.4,2.4,1.1c0.5,0.7,0.8,1.6,0.8,2.6c0,1.7-1.1,4.3-3.9,4.3c-0.6,0-1.2-0.2-1.8-0.5v2.5c0,0.7,0.6,0.8,1.1,0.9
					c0.3,0,0.6,0.1,0.6,0.3C170.4,103.9,170.1,103.9,170,103.9z M168.1,103.8c0.8,0,1.3,0,1.6,0.1c0.1,0,0.2,0,0.3,0
					c0.2,0,0.3,0,0.3-0.2c0-0.1-0.2-0.2-0.5-0.2c-0.5-0.1-1.2-0.2-1.2-1v-2.7l0.1,0c0.6,0.3,1.3,0.5,1.8,0.5c2.8,0,3.8-2.6,3.8-4.2
					c0-2.5-1.6-3.6-3.2-3.6c-0.5,0-1.4,0.2-2.4,1.2l-0.1,0.1v-1.2c0-0.1-0.1-0.2-0.2-0.2c-0.2,0-0.3,0.1-0.5,0.2
					c-0.3,0.2-0.8,0.5-1.6,0.7c-0.1,0-0.1,0.1-0.1,0.1c0,0.1,0.1,0.1,0.3,0.1c0.4,0,0.9,0.1,0.9,0.8v8c0,0.7-0.4,0.9-0.6,1
					c-0.2,0.1-0.3,0.1-0.3,0.3c0,0.1,0,0.1,0.2,0.1c0.1,0,0.2,0,0.3,0C167.2,103.8,167.6,103.8,168.1,103.8z M171,100
					c-1.3,0-2.4-0.7-2.4-1.7l0-3.6c0-0.1,0-0.4,0.2-0.6c0.2-0.4,0.7-0.8,1.8-0.8c1.8,0,2.8,1.9,2.8,3.7
					C173.4,98.4,172.7,100,171,100z M168.7,94.7L168.7,94.7l0,3.6c0,0.8,0.9,1.6,2.3,1.6c1.1,0,2.3-0.9,2.3-3c0-1.4-0.7-3.6-2.7-3.6
					c-0.7,0-1.2,0.2-1.5,0.6C168.8,94.2,168.7,94.6,168.7,94.7z"/>
			</g>
			<g>
				<path class="st0" d="M177.2,102.5c0,1.2,1.7,0.7,1.7,1.2c0,0.2-0.1,0.2-0.3,0.2c-0.2,0-0.7-0.1-1.9-0.1c-0.7,0-1.2,0.1-1.4,0.1
					c-0.2,0-0.3,0-0.3-0.2c0-0.5,0.9-0.2,0.9-1.3v-8c0-1.1-1.2-0.6-1.2-1c0-0.1,0.1-0.2,0.2-0.2c1.4-0.3,1.7-0.9,2.2-0.9
					c0.1,0,0.2,0.1,0.2,0.3v1c1.1-1,2-1.2,2.5-1.2c2.1,0,3.2,1.7,3.2,3.7c0,1.7-1,4.3-3.8,4.3c-0.6,0-1.3-0.2-1.9-0.5V102.5z
					 M177.2,98.3c0,1,1.1,1.6,2.3,1.6c1.7,0,2.4-1.6,2.4-3c0-1.6-0.8-3.6-2.7-3.6c-1.8,0-2,1.4-2,1.4V98.3z"/>
				<path class="st0" d="M178.5,103.9c-0.1,0-0.2,0-0.3,0c-0.3,0-0.7-0.1-1.6-0.1c-0.5,0-0.8,0-1.1,0.1c-0.1,0-0.3,0-0.3,0
					c-0.1,0-0.3,0-0.3-0.2c0-0.2,0.2-0.3,0.4-0.4c0.3-0.1,0.6-0.3,0.6-0.9v-8c0-0.6-0.4-0.7-0.8-0.7c-0.2,0-0.4-0.1-0.4-0.2
					c0-0.1,0.1-0.2,0.2-0.2c0.8-0.2,1.3-0.5,1.6-0.7c0.2-0.1,0.4-0.2,0.6-0.2c0.1,0,0.3,0.1,0.3,0.3v0.9c1-0.9,1.9-1.1,2.4-1.1
					c1,0,1.9,0.4,2.4,1.1c0.5,0.7,0.8,1.6,0.8,2.6c0,1.7-1.1,4.3-3.9,4.3c-0.6,0-1.2-0.2-1.8-0.5v2.5c0,0.7,0.6,0.8,1.1,0.9
					c0.3,0,0.6,0.1,0.6,0.3C178.9,103.9,178.7,103.9,178.5,103.9z M176.7,103.8c0.8,0,1.3,0,1.6,0.1c0.1,0,0.2,0,0.3,0
					c0.2,0,0.3,0,0.3-0.2c0-0.1-0.2-0.2-0.5-0.2c-0.5-0.1-1.2-0.2-1.2-1v-2.7l0.1,0c0.6,0.3,1.3,0.5,1.8,0.5c2.8,0,3.8-2.6,3.8-4.2
					c0-2.5-1.6-3.6-3.2-3.6c-0.5,0-1.4,0.2-2.4,1.2l-0.1,0.1v-1.2c0-0.1-0.1-0.2-0.2-0.2c-0.2,0-0.3,0.1-0.5,0.2
					c-0.3,0.2-0.8,0.5-1.6,0.7c-0.1,0-0.1,0.1-0.1,0.1c0,0.1,0.1,0.1,0.3,0.1c0.4,0,0.9,0.1,0.9,0.8v8c0,0.7-0.4,0.9-0.6,1
					c-0.2,0.1-0.3,0.1-0.3,0.3c0,0.1,0,0.1,0.2,0.1c0.1,0,0.2,0,0.3,0C175.8,103.8,176.2,103.8,176.7,103.8z M179.6,100
					c-1.3,0-2.4-0.7-2.4-1.7l0-3.6c0-0.1,0-0.4,0.2-0.6c0.2-0.4,0.7-0.8,1.8-0.8c1.8,0,2.8,1.9,2.8,3.7
					C182,98.4,181.2,100,179.6,100z M177.3,94.7L177.3,94.7l0,3.6c0,0.8,0.9,1.6,2.3,1.6c1.1,0,2.3-0.9,2.3-3c0-1.4-0.7-3.6-2.7-3.6
					c-0.7,0-1.2,0.2-1.5,0.6C177.3,94.2,177.3,94.6,177.3,94.7z"/>
			</g>
			<g>
				<path class="st0" d="M183.8,96.5c0-2.2,1.7-4.1,4-4.1c1.4,0,3.9,0.7,3.9,4c0,2.2-1.7,3.9-3.9,3.9
					C185.5,100.4,183.8,99,183.8,96.5z M190.4,96.7c0-1.9-0.8-3.9-2.9-3.9c-1.8,0-2.5,1.5-2.5,3.1c0,1.8,0.8,4.1,2.9,4.1
					C189.5,100,190.4,99,190.4,96.7z"/>
				<path class="st0" d="M187.8,100.4c-2.5,0-4.1-1.5-4.1-3.9c0-2.3,1.8-4.2,4.1-4.2c0.7,0,4,0.2,4,4.1
					C191.7,98.7,190,100.4,187.8,100.4z M187.8,92.5c-2.2,0-4,1.8-4,4.1c0,2.3,1.6,3.8,4,3.8c2.2,0,3.8-1.7,3.8-3.9
					C191.6,92.7,188.4,92.5,187.8,92.5z M188,100c-2.1,0-3-2.1-3-4.1c0-1.4,0.7-3.1,2.5-3.1c1,0,1.8,0.4,2.3,1.3
					c0.4,0.7,0.7,1.6,0.7,2.7C190.5,98.9,189.6,100,188,100z M187.5,92.9c-1.8,0-2.4,1.6-2.4,3c0,1,0.2,1.9,0.7,2.7
					c0.4,0.6,1,1.3,2.2,1.3c1.6,0,2.4-1.1,2.4-3.2C190.4,93.9,188.9,92.9,187.5,92.9z"/>
			</g>
			<g>
				<path class="st0" d="M194.6,98.6c0,1.7,1.6,0.8,1.6,1.4c0,0.2-0.1,0.2-0.3,0.2c-0.3,0-0.7-0.1-1.7-0.1c-1.2,0-1.5,0.1-1.7,0.1
					c-0.1,0-0.2-0.1-0.2-0.2c0-0.4,0.9-0.3,0.9-1v-4.6c0-1.1-1.3-0.6-1.3-1c0-0.1,0.1-0.2,0.2-0.2c1.4-0.3,1.7-0.9,2.2-0.9
					c0.1,0,0.2,0.1,0.2,0.3v1.4h0c0.4-0.5,1-1.5,1.8-1.5c0.4,0,1.2,0.5,1.2,0.8c0,0.3-0.4,0.8-0.6,0.8c-0.3,0-0.5-0.4-1.2-0.4
					c-0.7,0-1.2,0.8-1.2,1.1V98.6z"/>
				<path class="st0" d="M195.9,100.3c-0.1,0-0.2,0-0.3,0c-0.3,0-0.7-0.1-1.4-0.1c-0.9,0-1.3,0-1.5,0.1c-0.1,0-0.1,0-0.1,0
					c-0.2,0-0.2-0.1-0.2-0.2c0-0.2,0.2-0.3,0.4-0.4c0.3-0.1,0.5-0.3,0.5-0.7v-4.6c0-0.6-0.5-0.7-0.8-0.7c-0.2,0-0.4-0.1-0.4-0.2
					c0-0.1,0.2-0.2,0.3-0.2c0.8-0.2,1.3-0.5,1.6-0.7c0.2-0.1,0.4-0.2,0.6-0.2c0.1,0,0.3,0.1,0.3,0.3v1.2l0,0c0.4-0.6,1-1.4,1.8-1.4
					c0.4,0,1.2,0.5,1.2,0.9c0,0.3-0.5,0.9-0.7,0.9c-0.2,0-0.3-0.1-0.4-0.2c-0.2-0.1-0.4-0.2-0.8-0.2c-0.7,0-1.1,0.8-1.1,1v3.9
					c0,1,0.6,1.1,1.1,1.1c0.3,0,0.5,0,0.5,0.3C196.3,100.3,196.1,100.3,195.9,100.3z M194.2,100.1c0.7,0,1.1,0,1.4,0.1
					c0.5,0,0.6,0,0.6-0.1c0-0.2-0.2-0.2-0.4-0.2c-0.5,0-1.2-0.1-1.2-1.2v-3.9c0-0.2,0.4-1.1,1.2-1.1c0.4,0,0.6,0.1,0.8,0.3
					c0.1,0.1,0.2,0.2,0.4,0.2c0.2,0,0.6-0.5,0.6-0.8c0-0.3-0.8-0.8-1.1-0.8c-0.7,0-1.3,0.9-1.7,1.4l-0.1,0.1h-0.1v-1.4
					c0-0.1-0.1-0.2-0.2-0.2c-0.2,0-0.3,0.1-0.5,0.2c-0.3,0.2-0.8,0.5-1.6,0.7c-0.1,0-0.2,0.1-0.2,0.1c0,0.1,0.1,0.1,0.4,0.1
					c0.4,0,0.9,0.1,0.9,0.8V99c0,0.5-0.3,0.6-0.6,0.8c-0.2,0.1-0.3,0.2-0.3,0.3c0,0.1,0,0.1,0.1,0.1c0,0,0.1,0,0.1,0
					C192.9,100.2,193.3,100.1,194.2,100.1z"/>
			</g>
			<g>
				<path class="st0" d="M199.2,93.4c-0.8,0-1,0-1-0.1c0-0.1,0.5-0.5,1.4-1.5c0.4-0.4,0.5-0.8,0.7-0.8c0.3,0,0.2,0.4,0.2,1.7h2
					c0.5,0,0.6-0.3,0.7-0.3c0.1,0,0.1,0.1,0.1,0.1c0,0.1-0.1,0.2-0.1,0.3l-0.4,0.6h-2.3v5.2c0,0.7,0.5,1.1,1.3,1.1
					c1,0,1.2-0.4,1.5-0.4c0.1,0,0.1,0,0.1,0.2c0,0.3-1,0.9-2.2,0.9c-0.8,0-2-0.2-2-2.1V93.4z"/>
				<path class="st0" d="M201.2,100.4c-1.4,0-2.1-0.7-2.1-2.1v-4.8c-0.9,0-1,0-1-0.2c0-0.1,0.1-0.2,0.4-0.5c0.2-0.2,0.6-0.5,1-1
					c0.1-0.2,0.3-0.3,0.3-0.5c0.2-0.2,0.3-0.4,0.4-0.4c0.2,0,0.2,0.2,0.3,0.3c0,0.2,0,0.6,0,1.1v0.2h1.9c0.3,0,0.5-0.2,0.6-0.2
					c0,0,0.1-0.1,0.1-0.1c0.1,0,0.2,0.1,0.2,0.2c0,0.1-0.1,0.2-0.1,0.3l-0.4,0.7h-2.3v5.2c0,0.7,0.5,1,1.2,1c0.6,0,0.9-0.2,1.2-0.3
					c0.1-0.1,0.3-0.1,0.4-0.1c0.1,0,0.2,0.1,0.2,0.2C203.5,99.8,202.5,100.4,201.2,100.4z M200.3,91c-0.1,0-0.2,0.2-0.3,0.3
					c-0.1,0.1-0.2,0.3-0.4,0.5c-0.4,0.5-0.8,0.8-1,1c-0.2,0.2-0.4,0.3-0.4,0.4c0,0.1,0.2,0.1,0.9,0.1h0.1v4.9c0,1.4,0.6,2,2,2
					c1.3,0,2.2-0.6,2.2-0.8c0-0.1,0-0.1-0.1-0.1c-0.1,0-0.2,0.1-0.3,0.1c-0.2,0.1-0.6,0.3-1.2,0.3c-0.8,0-1.3-0.4-1.3-1.1v-5.3h2.4
					l0.3-0.6c0.1-0.1,0.1-0.2,0.1-0.2c0,0,0-0.1-0.1-0.1c0,0,0,0,0,0c-0.1,0.1-0.3,0.3-0.7,0.3h-2v-0.3c0-0.5,0-0.9,0-1.1
					C200.4,91.1,200.3,91,200.3,91z"/>
			</g>
			<g>
				<path class="st0" d="M61.9,117c-0.1-0.4,0-0.6,0.2-0.6c0.3,0,0.3,0.2,0.3,0.6c0.2,0.8,1.3,2.7,3.8,2.7c1.7,0,3.4-1,3.4-2.8
					c0-3.5-7.3-1.5-7.3-6.2c0-2.3,1.9-3.4,4-3.4c2.2,0,2.8,0.6,3,0.6c0.2,0,0.2-0.2,0.4-0.2c0.1,0,0.2,0.1,0.2,0.3l0.3,2.4
					c0,0.1,0,0.3-0.2,0.3c-0.2,0-0.3-0.4-0.4-0.5c-0.5-1.5-1.9-2.3-3.4-2.3c-1.4,0-2.9,0.7-2.9,2.3c0,3.4,7.3,1.4,7.3,6.4
					c0,1.5-1.1,3.8-5.1,3.8c-1.3,0-3-0.7-3-1L61.9,117z"/>
				<path class="st0" d="M65.4,120.4c-1.3,0-3-0.7-3.1-1l-0.5-2.3c0-0.2,0-0.4,0.1-0.5c0-0.1,0.1-0.1,0.2-0.1c0.3,0,0.3,0.2,0.4,0.5
					c0,0.1,0,0.1,0,0.2c0.2,0.7,1.2,2.7,3.7,2.7c1.6,0,3.3-0.9,3.3-2.8c0-1.6-1.6-2-3.2-2.5c-1.9-0.6-4.1-1.2-4.1-3.7
					c0-2.4,2-3.4,4-3.4c1.6,0,2.4,0.4,2.8,0.5c0.1,0.1,0.2,0.1,0.3,0.1c0.1,0,0.1,0,0.1-0.1c0.1-0.1,0.1-0.1,0.2-0.1
					c0.2,0,0.2,0.1,0.3,0.3l0.3,2.4c0,0.1,0,0.2-0.1,0.3c0,0-0.1,0.1-0.2,0.1c-0.2,0-0.4-0.4-0.4-0.6c-0.5-1.5-1.7-2.3-3.4-2.3
					c-1.4,0-2.9,0.7-2.9,2.3c0,1.5,1.4,1.9,3.1,2.4c2,0.6,4.2,1.2,4.2,4C70.6,118.3,69.2,120.4,65.4,120.4z M62.1,116.5
					c0,0-0.1,0-0.1,0.1c-0.1,0.1-0.1,0.2,0,0.4l0.4,2.3c0.1,0.3,1.7,0.9,3,0.9c1.8,0,3.2-0.4,4.1-1.3c0.7-0.6,1-1.5,1-2.4
					c0-2.7-2.2-3.3-4.1-3.9c-1.6-0.5-3.2-0.9-3.2-2.5c0-1.7,1.5-2.4,3-2.4c1.7,0,3,0.9,3.5,2.4c0,0.1,0.2,0.5,0.3,0.5
					c0.1,0,0.1,0,0.1,0c0,0,0-0.1,0-0.2l-0.3-2.5c0-0.2-0.1-0.2-0.2-0.2s-0.1,0-0.2,0.1c-0.1,0.1-0.1,0.1-0.2,0.1
					c-0.1,0-0.2,0-0.3-0.1c-0.4-0.2-1.1-0.5-2.7-0.5c-2.7,0-3.9,1.7-3.9,3.3c0,2.5,2,3.1,4,3.6c1.7,0.5,3.3,0.9,3.3,2.6
					c0,0.9-0.4,1.6-1.1,2.2c-0.6,0.5-1.5,0.7-2.4,0.7c-1.1,0-2-0.4-2.8-1.1c-0.6-0.6-0.9-1.2-1.1-1.7c0-0.1,0-0.1,0-0.2
					C62.2,116.6,62.2,116.5,62.1,116.5z"/>
			</g>
			<g>
				<path class="st0" d="M72.8,115.6c0,3,1.8,3.9,2.9,3.9c1.5,0,2.1-0.9,2.5-0.9c0.1,0,0.1,0.1,0.1,0.1c0,0.4-1.6,1.7-3.2,1.7
					c-2.7,0-3.6-2.5-3.6-3.7c0-2.3,1.3-4.2,3.5-4.2c2.2,0,3.2,2.1,3.2,2.9c0,0.3-0.2,0.3-0.6,0.3H72.8z M76.4,115.1
					c0.3,0,0.4-0.1,0.4-0.4c0-1-1-1.9-2-1.9c-1.1,0-1.9,1.3-1.9,2.3H76.4z"/>
				<path class="st0" d="M75.1,120.4c-2.8,0-3.7-2.6-3.7-3.7c0-2.5,1.5-4.3,3.6-4.3c2.3,0,3.2,2.2,3.2,2.9c0,0.1,0,0.2-0.1,0.3
					c-0.1,0.1-0.3,0.1-0.5,0.1h-4.8c0,1.3,0.6,3.8,2.8,3.8c1,0,1.6-0.4,2-0.7c0.2-0.1,0.4-0.3,0.5-0.3c0.1,0,0.1,0.1,0.1,0.2
					C78.4,119.1,76.8,120.4,75.1,120.4z M75,112.5c-2,0-3.5,1.7-3.5,4.2c0,1.1,0.9,3.6,3.6,3.6c1.6,0,3.1-1.3,3.1-1.7
					c0-0.1,0-0.1,0-0.1c-0.1,0-0.3,0.1-0.5,0.2c-0.4,0.3-1,0.7-2.1,0.7c-0.7,0-1.4-0.3-1.9-0.8c-0.7-0.7-1.1-1.8-1.1-3.1v-0.1h4.9
					c0.2,0,0.4,0,0.4-0.1c0,0,0.1-0.1,0.1-0.2C78.2,114.6,77.2,112.5,75,112.5z M76.4,115.2h-3.6v-0.1c0-1.1,0.9-2.3,2-2.3
					c1.1,0,2,1,2,2C76.8,115,76.7,115.2,76.4,115.2z M72.9,115.1h3.5c0.2,0,0.3-0.1,0.3-0.3c0-1-0.9-1.9-1.9-1.9
					C73.7,112.9,72.9,114.1,72.9,115.1z"/>
			</g>
			<g>
				<path class="st0" d="M81.3,118.6c0,1.7,1.6,0.8,1.6,1.4c0,0.2-0.1,0.2-0.3,0.2c-0.3,0-0.7-0.1-1.7-0.1c-1.2,0-1.5,0.1-1.7,0.1
					c-0.1,0-0.2-0.1-0.2-0.2c0-0.4,0.9-0.3,0.9-1v-4.6c0-1.1-1.3-0.6-1.3-1c0-0.1,0.1-0.2,0.2-0.2c1.4-0.3,1.7-0.9,2.2-0.9
					c0.1,0,0.2,0.1,0.2,0.3v1.4h0c0.4-0.5,1-1.5,1.8-1.5c0.4,0,1.2,0.5,1.2,0.8c0,0.3-0.4,0.8-0.6,0.8c-0.3,0-0.5-0.4-1.2-0.4
					c-0.7,0-1.2,0.8-1.2,1.1V118.6z"/>
				<path class="st0" d="M82.6,120.3c-0.1,0-0.2,0-0.3,0c-0.3,0-0.7-0.1-1.4-0.1c-0.9,0-1.3,0-1.5,0.1c-0.1,0-0.1,0-0.1,0
					c-0.2,0-0.2-0.1-0.2-0.2c0-0.2,0.2-0.3,0.4-0.4c0.3-0.1,0.5-0.3,0.5-0.7v-4.6c0-0.6-0.5-0.7-0.8-0.7c-0.2,0-0.4-0.1-0.4-0.2
					c0-0.1,0.2-0.2,0.3-0.2c0.8-0.2,1.3-0.5,1.6-0.7c0.2-0.1,0.4-0.2,0.6-0.2c0.1,0,0.3,0.1,0.3,0.3v1.2l0,0c0.4-0.6,1-1.4,1.8-1.4
					c0.4,0,1.2,0.5,1.2,0.9c0,0.3-0.5,0.9-0.7,0.9c-0.2,0-0.3-0.1-0.4-0.2c-0.2-0.1-0.4-0.2-0.8-0.2c-0.7,0-1.1,0.8-1.1,1v3.9
					c0,1,0.6,1.1,1.1,1.1c0.3,0,0.5,0,0.5,0.3C82.9,120.3,82.7,120.3,82.6,120.3z M80.9,120.1c0.7,0,1.1,0,1.4,0.1
					c0.5,0,0.6,0,0.6-0.1c0-0.2-0.2-0.2-0.4-0.2c-0.5,0-1.2-0.1-1.2-1.2v-3.9c0-0.2,0.4-1.1,1.2-1.1c0.4,0,0.6,0.1,0.8,0.3
					c0.1,0.1,0.2,0.2,0.4,0.2c0.2,0,0.6-0.5,0.6-0.8c0-0.3-0.8-0.8-1.1-0.8c-0.7,0-1.3,0.9-1.7,1.4l-0.1,0.1h-0.1v-1.4
					c0-0.1-0.1-0.2-0.2-0.2c-0.2,0-0.3,0.1-0.5,0.2c-0.3,0.2-0.8,0.5-1.6,0.7c-0.1,0-0.2,0.1-0.2,0.1c0,0.1,0.1,0.1,0.4,0.1
					c0.4,0,0.9,0.1,0.9,0.8v4.6c0,0.5-0.3,0.6-0.6,0.8c-0.2,0.1-0.3,0.2-0.3,0.3c0,0.1,0,0.1,0.1,0.1c0,0,0.1,0,0.1,0
					C79.6,120.2,80,120.1,80.9,120.1z"/>
			</g>
			<g>
				<path class="st0" d="M89.2,118.7l1.2-2.6c0.3-0.7,0.8-1.5,0.8-2.3c0-1-1.1-0.5-1.1-1c0-0.2,0.2-0.2,0.4-0.2
					c0.4,0,0.7,0.1,1.1,0.1c0.3,0,0.6-0.1,0.9-0.1c0.2,0,0.5,0,0.5,0.3c0,0.2-0.6,0.1-0.9,0.7l-2.8,5.8c-0.3,0.7-0.3,1-0.6,1
					c-0.2,0-0.3-0.3-0.4-0.4l-2.7-6.2c-0.3-0.8-1-0.5-1-0.9c0-0.1,0-0.2,0.4-0.2c0.3,0,0.3,0.1,1.5,0.1c0.7,0,0.9-0.1,1.1-0.1
					c0.3,0,0.4,0,0.4,0.2c0,0.4-1,0.1-1,0.7c0,0.1,0.1,0.3,0.3,0.9L89.2,118.7z"/>
				<path class="st0" d="M88.8,120.4c-0.2,0-0.3-0.2-0.4-0.4c0,0,0,0,0-0.1l-2.7-6.2c-0.2-0.5-0.5-0.6-0.7-0.6
					c-0.1,0-0.3-0.1-0.3-0.3c0-0.2,0.1-0.3,0.4-0.3c0.1,0,0.2,0,0.3,0c0.2,0,0.5,0.1,1.2,0.1c0.4,0,0.7,0,0.8-0.1c0.1,0,0.2,0,0.3,0
					c0.2,0,0.5,0,0.5,0.2c0,0.2-0.2,0.3-0.5,0.3c-0.3,0.1-0.5,0.1-0.5,0.4c0,0,0.1,0.2,0.3,0.9l1.7,4.2l1.2-2.5
					c0.1-0.1,0.1-0.2,0.2-0.3c0.3-0.6,0.6-1.2,0.6-1.9c0-0.6-0.4-0.6-0.7-0.7c-0.2,0-0.4-0.1-0.4-0.3c0-0.3,0.3-0.3,0.5-0.3
					c0.2,0,0.4,0,0.6,0c0.2,0,0.4,0,0.6,0c0.2,0,0.3,0,0.5,0c0.2,0,0.3,0,0.5,0c0.1,0,0.5,0,0.5,0.3c0,0.1-0.1,0.2-0.3,0.2
					c-0.2,0.1-0.5,0.2-0.6,0.5l-2.8,5.8c-0.1,0.2-0.1,0.3-0.2,0.5C89.1,120.3,89,120.4,88.8,120.4z M85.1,112.7
					c-0.3,0-0.3,0.1-0.3,0.2c0,0.1,0.1,0.1,0.2,0.2c0.2,0.1,0.6,0.2,0.8,0.7l2.7,6.2c0,0,0,0,0,0.1c0.1,0.2,0.1,0.3,0.3,0.3
					c0.2,0,0.2-0.1,0.4-0.5c0.1-0.1,0.1-0.3,0.2-0.5l2.8-5.8c0.2-0.3,0.5-0.4,0.7-0.5c0.1,0,0.2-0.1,0.2-0.1c0-0.1-0.1-0.2-0.4-0.2
					c-0.2,0-0.3,0-0.5,0c-0.2,0-0.3,0-0.5,0c-0.2,0-0.4,0-0.6,0c-0.2,0-0.4,0-0.5,0c-0.3,0-0.4,0-0.4,0.2c0,0.1,0.1,0.2,0.4,0.2
					c0.3,0,0.8,0.1,0.8,0.8c0,0.7-0.3,1.3-0.6,2c-0.1,0.1-0.1,0.2-0.2,0.3l-1.3,2.7l-1.8-4.4c-0.2-0.5-0.3-0.8-0.3-0.9
					c0-0.3,0.4-0.4,0.6-0.5c0.2,0,0.4-0.1,0.4-0.2c0-0.1-0.1-0.1-0.4-0.1c-0.1,0-0.2,0-0.3,0c-0.2,0-0.4,0.1-0.9,0.1
					c-0.8,0-1,0-1.2-0.1C85.3,112.7,85.2,112.7,85.1,112.7z"/>
			</g>
			<g>
				<path class="st0" d="M94.9,114.4c0-1.1-1-0.6-1-1c0-0.1,0.1-0.2,0.2-0.2c1.2-0.3,1.5-0.9,1.9-0.9c0.1,0,0.2,0.1,0.2,0.3v6.5
					c0,0.9,1.4,0.5,1.4,1c0,0.1-0.1,0.2-0.3,0.2c-0.4,0-0.9-0.1-1.7-0.1c-0.6,0-1,0.1-1.2,0.1c-0.1,0-0.3,0-0.3-0.2
					c0-0.5,0.8,0.2,0.8-1.4V114.4z M96.3,109.7c0,0.2-0.5,0.9-0.8,0.9c-0.2,0-0.8-0.7-0.8-0.9c0-0.2,0.5-1,0.8-1
					C95.8,108.7,96.3,109.5,96.3,109.7z"/>
				<path class="st0" d="M97.3,120.3c-0.2,0-0.3,0-0.6,0c-0.3,0-0.7,0-1.1,0c-0.4,0-0.7,0-0.9,0c-0.1,0-0.3,0-0.3,0
					c-0.1,0-0.3,0-0.3-0.2c0-0.2,0.1-0.2,0.3-0.3c0.2,0,0.5-0.1,0.5-1.2v-4.2c0-0.6-0.4-0.7-0.6-0.7c-0.2,0-0.4-0.1-0.4-0.2
					c0-0.1,0.1-0.2,0.2-0.2c0.6-0.2,1-0.4,1.3-0.6c0.2-0.2,0.4-0.3,0.6-0.3c0.1,0,0.3,0.1,0.3,0.3v6.5c0,0.5,0.4,0.6,0.8,0.6
					c0.3,0.1,0.6,0.1,0.6,0.3C97.7,120.3,97.5,120.3,97.3,120.3z M95.6,120.1c0.4,0,0.8,0,1.1,0c0.2,0,0.4,0,0.6,0
					c0.3,0,0.3-0.1,0.3-0.1c0-0.1-0.2-0.2-0.5-0.2c-0.4-0.1-0.9-0.2-0.9-0.7v-6.5c0-0.1-0.1-0.2-0.2-0.2c-0.2,0-0.3,0.1-0.6,0.3
					c-0.3,0.2-0.7,0.5-1.3,0.6c-0.1,0-0.1,0.1-0.1,0.1c0,0.1,0.1,0.1,0.3,0.1c0.3,0,0.7,0.1,0.7,0.8v4.2c0,1.1-0.4,1.2-0.6,1.3
					c-0.1,0-0.2,0-0.2,0.2c0,0.1,0.1,0.1,0.2,0.1c0.1,0,0.2,0,0.3,0C94.9,120.1,95.3,120.1,95.6,120.1z M95.6,110.7
					c-0.3,0-0.8-0.8-0.8-1c0-0.2,0.6-1,0.8-1c0.3,0,0.8,0.8,0.8,1C96.4,109.9,95.8,110.7,95.6,110.7z M95.6,108.8
					c-0.2,0-0.7,0.7-0.7,0.9c0,0.2,0.5,0.9,0.7,0.9c0.2,0,0.7-0.7,0.7-0.9C96.3,109.5,95.8,108.8,95.6,108.8z"/>
			</g>
			<g>
				<path class="st0" d="M97.9,116.5c0-2.3,1.8-4.1,4.1-4.1c0.9,0,2.1,0.3,2.2,0.7c0,0.4,0,0.8,0,1.1c0,0.3-0.1,0.4-0.1,0.4
					c-0.2,0-0.4-0.3-0.4-0.4c-0.6-0.8-1.4-1.1-2.2-1.1c-1.5,0-2.1,1.6-2.1,2.9c0,1.9,1.2,3.5,3.2,3.5c1.4,0,2.2-1,2.5-1
					c0.1,0,0.1,0.1,0.1,0.1c0,0.3-1.1,1.8-3.5,1.8C99.3,120.4,97.9,118.5,97.9,116.5z"/>
				<path class="st0" d="M101.4,120.4c-2,0-3.6-1.7-3.6-3.9c0-2.3,1.8-4.2,4.1-4.2c0.9,0,2.2,0.2,2.2,0.7c0,0.3,0,0.6,0,0.9
					c0,0.1,0,0.1,0,0.2c0,0.4-0.1,0.4-0.2,0.4c-0.2,0-0.3-0.3-0.4-0.4c0,0,0,0,0,0c-0.5-0.7-1.3-1.1-2.2-1.1c-1.4,0-2.1,1.5-2.1,2.8
					c0,1.7,1,3.5,3.1,3.5c1,0,1.6-0.5,2-0.8c0.2-0.1,0.3-0.2,0.4-0.2c0.1,0,0.2,0.1,0.2,0.2C105,118.8,104,120.4,101.4,120.4z
					 M101.9,112.5c-2.2,0-4,1.8-4,4.1c0,2.1,1.6,3.8,3.5,3.8c2.4,0,3.5-1.5,3.5-1.8c0,0-0.1-0.1-0.1-0.1c-0.1,0-0.2,0.1-0.4,0.2
					c-0.4,0.3-1.1,0.8-2.1,0.8c-1.9,0-3.2-1.4-3.2-3.6c0-1.4,0.7-2.9,2.2-2.9c1,0,1.7,0.4,2.3,1.1c0,0,0,0,0,0.1
					c0.1,0.1,0.2,0.3,0.4,0.3c0,0,0.1-0.1,0.1-0.3c0-0.1,0-0.1,0-0.2c0-0.2,0-0.6,0-0.9C104,112.8,102.9,112.5,101.9,112.5z"/>
			</g>
			<g>
				<path class="st0" d="M106.8,115.6c0,3,1.8,3.9,2.9,3.9c1.5,0,2.1-0.9,2.5-0.9c0.1,0,0.1,0.1,0.1,0.1c0,0.4-1.6,1.7-3.2,1.7
					c-2.7,0-3.6-2.5-3.6-3.7c0-2.3,1.3-4.2,3.5-4.2c2.2,0,3.2,2.1,3.2,2.9c0,0.3-0.2,0.3-0.6,0.3H106.8z M110.4,115.1
					c0.3,0,0.4-0.1,0.4-0.4c0-1-1-1.9-2-1.9c-1.1,0-1.9,1.3-1.9,2.3H110.4z"/>
				<path class="st0" d="M109.2,120.4c-2.8,0-3.7-2.6-3.7-3.7c0-2.5,1.5-4.3,3.6-4.3c2.3,0,3.2,2.2,3.2,2.9c0,0.1,0,0.2-0.1,0.3
					c-0.1,0.1-0.3,0.1-0.5,0.1h-4.8c0,1.3,0.6,3.8,2.8,3.8c1,0,1.6-0.4,2-0.7c0.2-0.1,0.4-0.3,0.5-0.3c0.1,0,0.1,0.1,0.1,0.2
					C112.4,119.1,110.8,120.4,109.2,120.4z M109.1,112.5c-2,0-3.5,1.7-3.5,4.2c0,1.1,0.9,3.6,3.6,3.6c1.6,0,3.1-1.3,3.1-1.7
					c0-0.1,0-0.1,0-0.1c-0.1,0-0.3,0.1-0.5,0.2c-0.4,0.3-1,0.7-2.1,0.7c-0.7,0-1.4-0.3-1.9-0.8c-0.7-0.7-1.1-1.8-1.1-3.1v-0.1h4.9
					c0.2,0,0.4,0,0.4-0.1c0,0,0.1-0.1,0.1-0.2C112.2,114.6,111.3,112.5,109.1,112.5z M110.4,115.2h-3.6v-0.1c0-1.1,0.9-2.3,2-2.3
					c1.1,0,2,1,2,2C110.8,115,110.7,115.2,110.4,115.2z M106.9,115.1h3.5c0.2,0,0.3-0.1,0.3-0.3c0-1-0.9-1.9-1.9-1.9
					C107.7,112.9,106.9,114.1,106.9,115.1z"/>
			</g>
			<g>
				<path class="st0" d="M113.3,114.6c0-1.4,1.1-2.2,2.4-2.2c0.3,0,1.5,0.1,1.8,0.4c0.1,0.1,0.1,0.8,0.1,0.9c0,0.5,0.1,0.7-0.2,0.7
					c-0.2,0-0.3-1.6-2-1.6c-0.7,0-1.3,0.4-1.3,1.2c0,0.6,0.5,1,2.4,1.7c1,0.4,1.5,1,1.5,2.1c0,1.4-1.1,2.5-2.4,2.5
					c-1.3,0-1.6-0.5-2-0.5c-0.4,0-0.4,0-0.4-1.4c0-0.3-0.1-0.9,0.2-0.9c0.4,0,0.2,2.4,2.1,2.4c0.9,0,1.6-0.5,1.6-1.5
					c0-1-0.9-1.2-1.6-1.6C114.5,116.3,113.3,115.9,113.3,114.6z"/>
				<path class="st0" d="M115.6,120.4c-0.8,0-1.2-0.2-1.6-0.4c-0.2-0.1-0.3-0.2-0.5-0.2c-0.4,0-0.4-0.1-0.4-1.5c0,0,0-0.1,0-0.1
					c0-0.3,0-0.6,0.1-0.7c0,0,0.1-0.1,0.1-0.1c0.2,0,0.2,0.2,0.3,0.6c0.2,0.7,0.5,1.8,1.8,1.8c1.1,0,1.6-0.7,1.6-1.4
					c0-0.8-0.7-1.1-1.3-1.4c-0.1,0-0.2-0.1-0.3-0.1c-0.1,0-0.2-0.1-0.3-0.1c-0.9-0.4-1.9-1-1.9-2.2c0-1.3,1-2.2,2.5-2.2
					c0.3,0,1.6,0.1,1.8,0.4c0.1,0.1,0.1,0.5,0.1,0.9l0,0c0,0.1,0,0.2,0,0.3c0,0.2,0,0.4-0.1,0.4c0,0-0.1,0.1-0.2,0.1
					c-0.1,0-0.1-0.1-0.2-0.3c-0.2-0.5-0.6-1.3-1.8-1.3c-0.7,0-1.2,0.4-1.2,1.1c0,0.6,0.5,1,2.3,1.7c1.1,0.5,1.5,1.1,1.5,2.2
					C118.1,119.3,117,120.4,115.6,120.4z M113.4,117.6C113.4,117.6,113.4,117.6,113.4,117.6c-0.2,0.1-0.2,0.5-0.2,0.7
					c0,0,0,0.1,0,0.1c0,1.4,0,1.4,0.3,1.4c0.2,0,0.3,0.1,0.5,0.2c0.3,0.2,0.7,0.4,1.5,0.4c1.3,0,2.4-1.1,2.4-2.4
					c0-1.1-0.4-1.6-1.5-2.1c-1.9-0.8-2.4-1.1-2.4-1.8c0-0.7,0.5-1.2,1.3-1.2c1.3,0,1.7,0.9,1.9,1.4c0,0.1,0.1,0.2,0.1,0.2
					c0.1,0,0.1,0,0.1,0c0,0,0-0.2,0-0.4c0-0.1,0-0.2,0-0.3l0-0.1c0-0.5,0-0.7-0.1-0.8c-0.2-0.2-1.4-0.4-1.7-0.4
					c-1.1,0-2.4,0.6-2.4,2.1c0,1.1,1,1.6,1.9,2.1c0.1,0,0.2,0.1,0.3,0.1c0.1,0,0.2,0.1,0.3,0.1c0.7,0.3,1.4,0.6,1.4,1.5
					c0,0.9-0.7,1.5-1.7,1.5c-1.4,0-1.7-1.2-1.9-1.9C113.6,117.8,113.5,117.6,113.4,117.6z"/>
			</g>
		</g>
	</g>
</g>
</svg>
