<?xml version="1.0" encoding="UTF-8"?>
<svg id="Layer_1" xmlns="http://www.w3.org/2000/svg" width="6.169in" height="2.124in" version="1.1" viewBox="0 0 444.146 152.927">
  <!-- Generator: Adobe Illustrator 29.5.1, SVG Export Plug-In . SVG Version: 2.1.0 Build 141)  -->
  <g id="_x3C_Full-White_x3E_">
    <g id="_x3C_Shield_x3E_">
      <path d="M.103,42.056l103.104-.002v-15.718h-12.914v-5.085h-3.037s-6.689.258-11.706-2.711c-4.962-2.937-5.885-5.729-5.899-5.742v-4.087h-6.614c-1.129-4.986-5.586-8.711-10.917-8.711s-9.789,3.725-10.917,8.711h-6.732v4.087c-.026.027-.949,2.811-5.898,5.742-5.018,2.969-11.707,2.711-11.707,2.711h-3.952v5.085H0v15.661" fill="#fff"/>
      <path d="M.078,75.926c.138,7.556,1.245,15.014,3.147,22.338,3.576,13.768,10.19,25.776,20.723,35.483,8.126,7.489,17.488,13.185,27.073,18.549.28.157.819.101,1.121-.066,6.664-3.688,13.141-7.672,19.311-12.156,13.142-9.552,22.27-21.981,27.148-37.51,3.413-10.867,4.553-22.05,4.625-33.366.038-5.921.043-16.242.045-22.164H.043c-.004,8.164-.115,20.73.035,28.892M44.134,82.903l7.501-23.085,7.501,23.085h24.274l-19.638,14.264,7.501,23.083-19.638-14.269-19.638,14.267,7.501-23.081-19.637-14.264h24.273Z" fill="#fff"/>
    </g>
    <g>
      <path d="M165.163,91.931c2.873-3.877,4.33-9.478,4.33-16.646v-19.443c0-3.227.232-5.442.69-6.584.442-1.107,1.44-1.986,2.965-2.612.651-.271.98-.658.98-1.151,0-.597-.362-.94-.994-.94-.245,0-.832.04-1.752.12-.673.077-2.483.116-5.378.116-1.363,0-2.55-.078-3.525-.233-1.124-.187-1.953-.291-2.535-.316-.336-.02-.577.063-.758.235-.191.183-.288.458-.288.819,0,.437.237.981,1.367,1.093,2.16.201,3.709,1.015,4.604,2.417.912,1.433,1.375,3.784,1.375,6.989v20.331c0,6.785-1.539,11.925-4.576,15.276-3.028,3.344-7.676,5.04-13.813,5.04-6.855,0-11.801-2.025-14.7-6.02-2.055-2.82-3.097-7.63-3.097-14.296v-19.789l-.08-2.582c0-2.485.249-4.222.739-5.163.472-.909,1.44-1.533,2.867-1.852.97-.178,1.462-.583,1.462-1.204,0-.322-.15-.863-1.154-.863-.376,0-1.057.04-2.025.119-1.162.105-1.874.156-2.178.156h-2.987l-3.022.039c-.547,0-1.427-.039-2.62-.118-1.152-.051-2.067-.078-2.721-.078-1.441,0-1.743.637-1.743,1.171,0,.397.22.903,1.274,1.055,2.25.328,3.76,1.001,4.488,2,.738,1.013,1.112,2.913,1.112,5.656l.078,2.23v19.953c0,5.492.948,10.013,2.82,13.437,1.667,2.991,4.333,5.39,7.925,7.134,3.581,1.737,7.662,2.618,12.13,2.618,3.838,0,7.499-.74,10.881-2.2,3.39-1.466,6.035-3.456,7.859-5.914" fill="#fff"/>
      <path d="M196.581,49.493c1.21,0,1.604.204,1.731.325.125.119.335.489.335,1.639l.04,1.013v38.987c0,2.134-.338,3.623-1.002,4.425-.663.798-1.983,1.331-3.922,1.583-1.007.119-1.517.461-1.517,1.015,0,.408.185,1.093,1.431,1.093.274,0,1.145-.077,2.662-.236.747-.078,1.678-.117,2.771-.117l3.064-.04,2.878.04c1.842,0,3.021.039,3.502.115.992.16,1.635.238,1.967.238,1.178,0,1.354-.686,1.354-1.095,0-.573-.533-.954-1.582-1.129-3.197-.559-4.814-2.271-4.94-5.228l-.039-1.529v-38.556c0-1.522.241-1.999.383-2.148.141-.147.588-.395,2-.395h11.036c2.135,0,3.578.268,4.289.796h.001c.702.52,1.225,1.69,1.553,3.478.183.976.562,1.45,1.211,1.421.501-.045,1.091-.344,1.052-1.518-.029-.405-.109-1.056-.24-1.946-.127-.685-.192-1.802-.192-3.318,0-2.16-.298-2.719-.522-2.951-.36-.373-1.247-.547-2.794-.547h-42.298c-.987,0-1.625.22-1.952.671-.31.426-.46,1.249-.46,2.515,0,1.2-.196,2.75-.583,4.607-.323,1.49-.479,2.493-.479,3.066,0,1.092.591,1.288.944,1.307.941.04,1.219-1.257,1.319-1.688.508-2.293,1.228-3.867,2.141-4.679.905-.805,2.402-1.214,4.449-1.214h10.409Z" fill="#fff"/>
      <path d="M286.949,99.376c.771-.077,1.396-.117,1.867-.117l2.935-.079,2.911.04c1.968,0,3.275.052,3.89.154,1.694.262,2.724.335,3.19-.171.187-.205.268-.481.239-.816-.034-.544-.53-.881-1.48-1.001-2.141-.226-3.602-.853-4.341-1.863-.751-1.025-1.131-2.932-1.131-5.666v-37.982c0-1.26.268-2.389.795-3.356.51-.935,1.139-1.481,1.876-1.624l1.609-.353c.943-.199,1.141-.681,1.141-1.05,0-.379-.155-1.015-1.192-1.015-.274,0-.762.052-1.49.159-1.101.154-3.072.233-5.855.233-1.928,0-3.77-.092-5.473-.273-1.232-.131-2.139-.198-2.697-.198-1.026,0-1.213.556-1.233.887-.024.413.189.954,1.335,1.178,1.782.403,3.016,1.147,3.67,2.212.666,1.084,1.004,2.976,1.004,5.623v13.439c0,.636-.124,1.055-.359,1.212-.187.125-.695.273-2.062.273h-23.173c-2.107,0-2.6-.255-2.714-.364h0c-.14-.134-.375-.637-.375-2.5v-14.07c0-1.882.288-3.23.856-4.01.564-.775,1.705-1.386,3.394-1.817.829-.209,1.249-.588,1.249-1.125,0-.394-.181-1.056-1.39-1.056-.402,0-.953.052-1.681.159-1.6.207-3.347.312-5.191.312-2.724,0-5.133-.118-7.158-.351-1.072-.131-1.871-.211-2.378-.238-.459-.012-.788.081-1.005.291-.183.175-.275.42-.275.726,0,.416.235.942,1.35,1.09,2.155.332,3.663.992,4.483,1.962.821.974,1.237,2.589,1.237,4.799v33.778c0,3.633-.208,6.207-.619,7.648-.397,1.388-1.108,2.181-2.175,2.423l-1.96.473c-1.006.226-1.217.758-1.217,1.164,0,.366.16.979,1.233.979.294,0,1.109-.058,2.495-.176.987-.086,1.812-.13,2.463-.13l2.58-.086,3.301.034c2.409,0,3.981.059,4.683.177.962.122,1.602.181,1.955.181.542,0,.918-.118,1.151-.361.172-.181.253-.419.239-.707-.033-.703-.611-1.119-1.715-1.237-2.275-.253-3.845-.909-4.662-1.949-.825-1.049-1.243-2.927-1.243-5.58v-14.415c0-1.429.249-1.933.458-2.104.22-.181.855-.396,2.631-.396h23.134c1.77,0,2.125.193,2.191.252.063.056.269.366.269,1.976v14.432l-.039,1.54c0,3.909-1.281,6.029-3.911,6.48-.993.148-1.515.524-1.549,1.118-.014.315.069.565.245.744.19.19.48.287.856.287.03,0,.061,0,.093-.002.187,0,1.03-.06,2.735-.197" fill="#fff"/>
      <path d="M402.848,94.831l-.344.103-2.052.986c-1.057.555-2.378.836-3.928.836-1.909,0-3.395-.542-4.416-1.613-.683-.707-1.03-2.327-1.03-4.815v-19.507h9.059c.975,0,1.636-.441,1.962-1.305l.898-2.248c.331-.74.376-.967.375-1.074.02-.266-.041-.464-.178-.587-.125-.113-.296-.151-.5-.115-.231.034-.541.199-.966.512-.584.389-1.436.586-2.533.586h-8.111l.152-6.545c0-1.05-.435-1.271-.8-1.271-.297,0-.71.224-1.705,1.85-1.604,2.568-3.952,5.173-6.981,7.743-.746.633-1.109,1.16-1.109,1.609,0,.385.221.845,1.271.845h3.247v19.56c0,6.412,3.123,9.664,9.283,9.664,1.807,0,3.787-.513,5.883-1.525,2.183-1.055,3.244-2.04,3.244-3.011,0-.425-.27-.678-.721-.678" fill="#fff"/>
      <path d="M315.092,67.758c1.991,0,3.868.86,5.578,2.558,1.711,1.698,2.578,3.555,2.578,5.519,0,.832-1.552,1.006-2.853,1.006h-13.034c.356-2.765,1.217-4.985,2.562-6.602h0c1.37-1.647,3.109-2.481,5.169-2.481M329.549,91.612c-.227.033-.456.139-.704.324-3.299,2.521-6.385,3.799-9.174,3.799-3.524,0-6.537-1.509-8.954-4.484-2.43-2.991-3.662-6.738-3.662-11.124l.028-.625h14.631l2.676.078,2.914.039c1.863,0,2.807-.52,2.807-1.546,0-.642-.328-1.715-1.001-3.281-.662-1.531-1.318-2.762-1.952-3.66-2.657-3.692-6.254-5.563-10.69-5.563-4.063,0-7.654,1.751-10.677,5.205-3.011,3.445-4.538,7.52-4.538,12.11,0,4.829,1.482,8.937,4.403,12.212,2.929,3.284,6.607,4.949,10.93,4.949,3.836,0,7.522-1.36,10.955-4.041,1.915-1.496,2.846-2.647,2.846-3.518,0-.312-.082-.547-.243-.698-.144-.134-.337-.194-.595-.176" fill="#fff"/>
      <path d="M380.065,97.073c-2.57-.429-4.147-1.266-4.683-2.486-.48-1.117-.724-2.75-.724-4.853v-46.099l.039-1.218v-.008c0-.977-.131-1.554-.411-1.816-.115-.108-.255-.164-.395-.164-.271-.005-.585.107-.973.364-.688.509-1.955,1.132-3.769,1.855l-2.401.981c-.718.282-1.529.529-2.419.737-.802.221-1.208.587-1.208,1.087,0,.279.108.657.649.885.204.061.451.092.746.092h.003l1.954-.079c1.524,0,2.265,1.1,2.265,3.364v43.559c0,1.196-.19,2.065-.563,2.583-.371.515-1.126.94-2.239,1.26-.886.24-1.318.649-1.284,1.214.018.376.214,1.007,1.313,1.007.11,0,.387-.021,1.53-.2.569-.076,2.107-.115,4.572-.115l5.475-.039c.768,0,1.347.038,1.713.111.472.11.826.164,1.081.164.356,0,.63-.099.816-.293.189-.198.277-.484.261-.857-.036-.537-.489-.886-1.348-1.036" fill="#fff"/>
      <path d="M342.746,86.024c2.118-1.409,5.152-2.313,9.02-2.688v7.503c0,1.9-.435,3.299-1.29,4.154-1.428,1.378-3.222,2.077-5.33,2.077-1.719,0-3.098-.508-4.098-1.509-1.001-1.001-1.508-2.38-1.508-4.1,0-2.193,1.078-4.023,3.206-5.437M363.171,96.52c-.178,0-.495.056-.99.172-.215.042-.517.064-.895.064-1.303,0-2.202-.466-2.75-1.424-.563-.989-.849-2.697-.849-5.074v-15.378c0-2.943-1.023-5.258-3.039-6.883-2.001-1.611-4.842-2.428-8.445-2.428-3.955,0-7.175,1.303-9.571,3.872-1.79,1.917-2.698,3.738-2.698,5.412,0,.727.55,1.382,1.635,1.95,1.033.54,2.194.814,3.452.814.363,0,.637-.095.814-.282.158-.167.232-.397.215-.688-.028-.386-.126-.826-.285-1.301-.332-1.086-.5-2.057-.5-2.887,0-2.767,1.614-4.112,4.935-4.112,2.483,0,4.485.762,5.948,2.268,1.074,1.091,1.618,3.121,1.618,6.034v4.627c-6.424.993-11.064,2.334-13.794,3.988-2.811,1.704-4.236,4.134-4.236,7.225,0,2.288.76,4.141,2.259,5.507,1.492,1.359,3.521,2.049,6.028,2.049,3.221,0,6.748-1.417,10.485-4.212,1.739,2.586,3.722,3.897,5.894,3.897,1.181,0,2.406-.251,3.638-.744,1.337-.536,1.975-1.061,2.009-1.65.018-.258-.047-.462-.191-.607-.156-.156-.382-.227-.687-.209" fill="#fff"/>
      <path d="M442.876,97.505c-2.054-.329-3.405-.844-4.018-1.53-.609-.682-.918-2-.918-3.918v-12.452c0-4.155-1.176-7.568-3.496-10.143-2.326-2.583-5.403-3.893-9.145-3.893-3.86,0-7.481,1.952-10.77,5.803v-26.253c0-.87.013-1.539.037-1.975.054-.469.082-.796.082-.971,0-.969-.577-1.114-.92-1.114-.275,0-.59.089-.934.26l-3.076,1.454c-1.999.957-3.839,1.638-5.476,2.026-.725.194-1.093.547-1.093,1.049,0,.418.217.634.412.748.191.098.413.147.675.147h.003l2.003-.117c.54-.035.992.111,1.345.444.679.639,1.022,1.977,1.022,3.976v40.897c0,2.734-.269,3.767-.496,4.151-.319.544-1.229,1.048-2.7,1.497-.938.267-1.107.807-1.085,1.214.021.316.207.847,1.235.847.348,0,.947-.035,1.829-.105,1.942-.139,3.46-.209,4.509-.209,3.027,0,5.033.046,5.96.138,1.199.12,1.895.176,2.191.176.971,0,1.116-.565,1.116-.902,0-.653-.521-1.058-1.552-1.206-2.251-.304-3.676-.828-4.234-1.557-.566-.739-.853-2.435-.853-5.042v-15.228c0-1.618.865-3.106,2.568-4.422,1.725-1.33,3.677-2.005,5.804-2.005,2.76,0,4.992.952,6.632,2.828,1.65,1.888,2.487,4.485,2.487,7.718v13.018l-.04,1.221c0,1.385-.228,1.969-.418,2.213-.196.252-.765.676-2.369,1.27-.662.259-.979.616-.944,1.053.02.359.22.962,1.35.962.192,0,.599-.035,1.248-.107,1.079-.137,2.787-.207,5.076-.207,1.382,0,3.055.066,4.968.195.967.079,1.623.119,1.945.119,1.14,0,1.31-.6,1.31-.957,0-.421-.221-.955-1.27-1.111" fill="#fff"/>
      <path d="M132.74,130.081c-2.405-.799-3.935-1.358-4.55-1.663-.603-.299-1.168-.781-1.677-1.429-.583-.758-.879-1.673-.879-2.721,0-1.179.454-2.176,1.35-2.964.902-.793,2.04-1.194,3.382-1.194,1.703,0,3.27.447,4.655,1.33,1.379.879,2.307,2.013,2.757,3.37.229.676.457.991.72.991.232,0,.509-.121.509-.695,0-.105-.031-.358-.096-.801l-.308-1.973c-.164-1.063-.248-1.709-.248-1.92,0-.458-.079-.758-.243-.915-.086-.083-.191-.124-.312-.124-.144-.002-.252.036-.298.102l-.269.228c-.236.199-.468.205-.701.099l-1.322-.554c-.953-.4-2.133-.603-3.507-.603-2.44,0-4.464.665-6.014,1.978-1.555,1.315-2.343,3.041-2.343,5.129,0,1.871.605,3.416,1.798,4.591,1.186,1.167,3.224,2.244,6.057,3.201,2.72.913,4.382,1.623,4.941,2.11,1.095.948,1.651,2.129,1.651,3.51,0,1.446-.603,2.692-1.79,3.704-1.194,1.014-2.673,1.528-4.398,1.528-1.702,0-3.301-.536-4.757-1.594-1.45-1.057-2.415-2.384-2.866-3.945-.197-.666-.431-.998-.716-1.013-.128-.007-.244.03-.327.11-.114.109-.169.287-.169.545,0,.495.169,1.329.502,2.479.293,1.061.453,1.641.479,1.739.151.714.269,1.168.35,1.352.085.19.252.369.496.53.556.376,1.441.71,2.627.991,1.188.282,2.288.425,3.272.425,2.733,0,5.006-.775,6.753-2.303,1.752-1.532,2.64-3.529,2.64-5.934,0-3.555-2.406-6.145-7.149-7.697" fill="#fff"/>
      <path d="M146.857,139.179c1.037-.691,2.53-1.133,4.435-1.316v3.683c0,.933-.215,1.621-.637,2.043-.701.676-1.582,1.019-2.616,1.019-.844,0-1.521-.25-2.015-.743-.491-.491-.741-1.17-.741-2.015,0-1.077.53-1.976,1.574-2.671M156.832,144.34c-.085,0-.243.028-.479.084-.109.021-.257.031-.441.031-.644,0-1.089-.23-1.359-.705-.278-.487-.418-1.324-.418-2.487v-7.501c0-1.428-.495-2.553-1.474-3.34-.972-.784-2.352-1.181-4.105-1.181-1.925,0-3.49.634-4.653,1.883-.87.93-1.31,1.813-1.31,2.624,0,.346.264.659.786.932.5.262,1.062.395,1.673.395.171,0,.299-.044.381-.13.073-.077.106-.183.099-.319-.014-.187-.059-.394-.138-.63-.163-.533-.246-1.009-.246-1.415,0-1.365.795-2.028,2.43-2.028,1.218,0,2.199.375,2.918,1.114.528.536.796,1.531.796,2.957v2.277c-3.142.484-5.409,1.138-6.74,1.945-1.364.827-2.055,2.006-2.055,3.505,0,1.111.367,2.01,1.093,2.67.723.66,1.709.994,2.927.994,1.573,0,3.294-.694,5.12-2.064.845,1.269,1.81,1.911,2.869,1.911.572,0,1.167-.122,1.766-.362.644-.258.951-.507.967-.786.008-.119-.022-.213-.088-.279-.071-.071-.179-.104-.319-.095" fill="#fff"/>
      <path d="M177.722,144.686l-.805-.115c-.891-.135-1.391-.591-1.525-1.385l-.057-.911.019-.579v-4.585c0-2.363-.418-4.151-1.243-5.315-1.204-1.695-2.863-2.555-4.93-2.555-1.799,0-3.556.968-5.227,2.877v-1.895c0-.287.007-.523.019-.721.017-.26-.024-.441-.126-.55-.156-.169-.442-.146-.785.051-.103.052-.351.172-.746.363l-1.013.498c-.781.365-1.604.627-2.45.778-.384.076-.578.235-.578.472,0,.171.079.297.221.361.106.062.226.093.36.093l.822-.019c.561,0,.946.149,1.143.444.205.307.309.91.309,1.79v8.648c0,.716-.107,1.238-.319,1.551-.211.313-.636.583-1.267.806-.266.107-.41.262-.426.461-.008.125.023.226.091.299.076.081.195.122.354.122.118,0,.365-.021.78-.066.389-.058,1.609-.087,3.627-.087.966,0,1.552.014,1.784.043.436.073.77.11.993.11.471,0,.541-.284.541-.454,0-.295-.243-.467-.726-.511-1.668-.101-2.509-.648-2.569-1.669l-.039-1.534v-7.313c0-.768.404-1.463,1.2-2.066.803-.61,1.736-.919,2.772-.919,1.473,0,2.622.474,3.417,1.41.8.94,1.206,2.299,1.206,4.039v6.601c0,.745-.227,1.164-.691,1.282l-.572.151c-.35.079-.423.3-.423.471,0,.226.099.332.183.382l.31.074.562-.04h.73l1.888-.057c1.125,0,1.906.029,2.32.087.367.045.615.066.758.066.295,0,.497-.06.616-.185.082-.085.12-.196.113-.332-.016-.254-.225-.411-.621-.467" fill="#fff"/>
      <path d="M291.69,144.724l-.879-.096c-.604-.084-1.003-.269-1.184-.55-.187-.288-.282-.883-.282-1.768v-12.91c0-.441-.185-.548-.341-.56l-.026-.003-1.047.492c-1.096.572-2.011.982-2.717,1.22-.709.222-1.033.423-1.049.652-.006.085.021.163.078.225.116.124.348.182.73.182.637,0,1.053.145,1.237.431.194.303.293.98.293,2.013v8.341c0,.748-.079,1.293-.232,1.623-.149.322-.409.543-.792.674l-.366.115c-.341.117-.412.34-.412.507,0,.207.106.454.618.454.135,0,.371-.02.71-.059.14-.025.342-.045.583-.056l1.393-.076,1.233.022c.552,0,1.001.014,1.334.043.63.06,1.041.088,1.259.088.49,0,.607-.224.619-.414.014-.321-.24-.52-.76-.59" fill="#fff"/>
      <path d="M282.265,144.686l-.804-.115c-.891-.135-1.391-.591-1.525-1.385l-.057-.911.019-.579v-4.585c0-2.363-.418-4.151-1.243-5.315-1.202-1.695-2.862-2.555-4.93-2.555-1.799,0-3.556.968-5.227,2.877v-1.895c0-.287.007-.523.019-.721.018-.261-.024-.441-.125-.55-.159-.169-.443-.146-.786.051-.103.052-.35.172-.746.363l-1.013.498c-.782.365-1.605.627-2.45.778-.384.076-.578.235-.578.472,0,.171.08.298.221.361.104.062.225.093.36.093l.822-.019c.562,0,.946.149,1.143.444.205.307.309.91.309,1.79v8.648c0,.716-.107,1.238-.319,1.551-.211.313-.636.583-1.267.806-.268.108-.411.263-.426.461-.008.125.023.226.091.299.076.081.195.122.354.122.118,0,.365-.021.78-.066.389-.058,1.61-.087,3.627-.087.966,0,1.552.014,1.784.043.436.073.77.11.993.11.471,0,.541-.284.541-.454,0-.295-.243-.467-.726-.511-1.668-.101-2.509-.648-2.57-1.669l-.038-1.534v-7.313c0-.769.404-1.464,1.2-2.066.803-.61,1.736-.919,2.772-.919,1.473,0,2.622.474,3.417,1.41.8.94,1.206,2.299,1.206,4.039v6.601c0,.745-.226,1.164-.691,1.282l-.572.151c-.35.079-.423.3-.423.471,0,.226.099.332.183.382l.31.074.562-.04h.73l1.888-.057c1.125,0,1.906.029,2.32.087.367.045.615.066.757.066.295,0,.498-.06.617-.185.082-.085.12-.196.113-.332-.015-.254-.226-.411-.622-.467" fill="#fff"/>
      <path d="M258.258,138.634c0,1.96-.453,3.532-1.347,4.671-.888,1.131-2.12,1.705-3.661,1.705-1.768,0-3.269-.815-4.462-2.422-1.2-1.616-1.808-3.655-1.808-6.062,0-1.882.485-3.424,1.441-4.582.951-1.152,2.223-1.736,3.778-1.736,1.767,0,3.233.785,4.356,2.335,1.13,1.559,1.703,3.609,1.703,6.091M252.687,129.241c-2.38,0-4.434.831-6.106,2.47-1.673,1.637-2.521,3.654-2.521,5.994,0,2.414.799,4.425,2.376,5.975,1.578,1.549,3.616,2.335,6.059,2.335,2.493,0,4.586-.808,6.219-2.401,1.636-1.595,2.464-3.641,2.464-6.082,0-2.25-.842-4.215-2.501-5.841-1.661-1.626-3.677-2.45-5.99-2.45" fill="#fff"/>
      <path d="M288.049,121.328c-.289,0-.67.27-1.163.824-.49.55-.729.974-.729,1.298,0,.321.216.738.66,1.276.447.543.806.807,1.097.807.303,0,.681-.269,1.155-.824.471-.552.694-.978.679-1.298,0-.164-.069-.34-.208-.534l-.462-.732c-.344-.55-.68-.817-1.029-.817" fill="#fff"/>
      <path d="M201.111,133.116c0,.251-.289.379-.858.379h-5.781l-.523-.019c-.781,0-.781-.3-.781-.398,0-.057.031-.219.24-.668l3.737-8.297c.129-.289.201-.306.207-.306.078.006.232.088.413.569l3.158,7.98.096.346v.003c.076.239.092.356.092.411M211.499,144.666c-1.189-.212-1.983-.503-2.363-.866-.384-.364-.878-1.323-1.471-2.853l-.421-1.034-8.238-21.106c-.159-.418-.359-.621-.611-.621-.25,0-.462.208-.647.634l-9.85,21.879-.552,1.261c-.277.578-.633,1.142-1.062,1.678-.522.653-.824.848-.985.897l-.71.211c-.26.079-.397.255-.397.509,0,.169.08.453.618.453.024,0,.1,0,1.078-.108.197-.017.484-.026.851-.026.779,0,1.492.014,2.115.042l1.836.109c.284.014.504.022.656.022.265,0,.443-.053.545-.16.065-.07.095-.159.088-.264-.015-.275-.242-.457-.671-.541-.862-.188-1.442-.412-1.727-.668-.277-.246-.418-.66-.418-1.231,0-.61.284-1.565.843-2.839l1.257-2.822c.465-1.057.737-1.396.883-1.494.147-.097.562-.213,1.707-.213h6.936c.903,0,1.169.09,1.246.144.092.066.271.323.597,1.173l.958,2.536c.771,2.001,1.162,3.352,1.162,4.015,0,.694-.287,1.089-.881,1.207l-.592.135c-.462.089-.558.316-.558.491,0,.183.077.492.597.492.136,0,.342-.027.611-.078.438-.075,1.553-.113,3.317-.113,1.687,0,2.876.032,3.538.095.389.027.622.039.736.039.504,0,.625-.224.636-.414.015-.293-.206-.485-.657-.571" fill="#fff"/>
      <path d="M307.636,138.634c0,1.96-.453,3.532-1.347,4.671-.888,1.131-2.12,1.705-3.661,1.705-1.768,0-3.269-.815-4.462-2.422-1.199-1.615-1.807-3.654-1.807-6.062,0-1.883.485-3.425,1.44-4.582.952-1.152,2.223-1.736,3.778-1.736,1.767,0,3.233.785,4.356,2.335,1.13,1.559,1.703,3.609,1.703,6.091M302.065,129.241c-2.38,0-4.434.831-6.106,2.47-1.673,1.637-2.521,3.654-2.521,5.994,0,2.415.8,4.426,2.377,5.975,1.577,1.549,3.615,2.335,6.058,2.335,2.493,0,4.586-.808,6.219-2.401,1.636-1.595,2.464-3.641,2.464-6.082,0-2.25-.841-4.215-2.501-5.841-1.661-1.626-3.677-2.45-5.99-2.45" fill="#fff"/>
      <path d="M231.393,144.686l-.805-.115c-.892-.135-1.391-.591-1.524-1.385l-.058-.911.02-.579v-4.585c0-2.362-.419-4.15-1.244-5.315-1.203-1.695-2.861-2.555-4.929-2.555-1.799,0-3.556.968-5.228,2.877v-1.895c0-.287.007-.523.019-.721.018-.26-.022-.441-.124-.55-.159-.17-.444-.146-.786.051-.102.052-.352.173-.746.363l-1.014.498c-.781.365-1.604.627-2.45.778-.384.076-.578.235-.578.472,0,.171.08.297.222.361.104.062.224.093.359.093l.822-.019c.562,0,.946.149,1.143.444.205.306.309.908.309,1.79v8.648c0,.716-.107,1.237-.318,1.551-.211.313-.636.584-1.269.806-.265.108-.409.263-.425.461-.008.125.023.226.091.299.076.081.195.122.354.122.117,0,.371-.021.781-.066.388-.058,1.607-.087,3.626-.087.966,0,1.552.014,1.784.043.436.073.77.11.993.11.471,0,.541-.284.541-.454,0-.295-.243-.467-.725-.511-1.669-.101-2.51-.648-2.57-1.669l-.039-1.534v-7.313c0-.768.405-1.464,1.201-2.066.802-.61,1.735-.919,2.771-.919,1.472,0,2.622.474,3.419,1.41.8.941,1.205,2.3,1.205,4.039v6.601c0,.745-.226,1.164-.692,1.282l-.573.151c-.347.079-.42.3-.42.471,0,.182.06.311.181.382l.311.074.561-.04h.73l1.888-.057c1.125,0,1.906.029,2.32.087.367.045.615.066.758.066.296,0,.499-.06.617-.185.081-.086.119-.197.112-.332-.015-.254-.224-.411-.621-.467" fill="#fff"/>
      <path d="M243.451,143.516l-.158.048-1.001.481c-.519.272-1.167.41-1.926.41-.938,0-1.667-.267-2.17-.793-.338-.35-.509-1.146-.509-2.365v-9.537h4.442c.464,0,.78-.21.936-.623l.438-1.097c.161-.36.181-.469.181-.516.01-.123-.017-.213-.079-.269-.055-.05-.138-.067-.225-.051-.108.016-.26.097-.463.246-.29.192-.71.29-1.248.29h-3.979l.074-3.215c0-.494-.2-.598-.368-.598-.132,0-.331.106-.813.892-.782,1.254-1.93,2.527-3.409,3.783-.36.304-.534.555-.534.767,0,.178.104.391.598.391h1.605v9.563c0,3.113,1.516,4.692,4.507,4.692.879,0,1.841-.249,2.861-.741,1.056-.511,1.57-.985,1.57-1.449,0-.196-.12-.309-.33-.309" fill="#fff"/>
    </g>
    <path d="M64.709,147.049c.434,0,.856.111,1.269.334.412.222.733.54.964.953.229.414.345.845.345,1.294,0,.444-.113.872-.34,1.282-.227.41-.545.728-.954.956-.408.227-.836.34-1.283.34s-.874-.113-1.283-.34c-.409-.227-.728-.545-.955-.956-.229-.41-.342-.837-.342-1.282,0-.449.115-.88.347-1.294.231-.413.553-.731.966-.953.412-.223.835-.334,1.268-.334ZM64.709,147.477c-.362,0-.715.093-1.058.278-.343.186-.611.451-.805.797-.194.345-.291.705-.291,1.078,0,.372.096.727.285,1.068.19.34.457.606.799.796.342.19.698.286,1.069.286s.729-.095,1.07-.286c.342-.19.607-.456.796-.796.19-.341.284-.697.284-1.068,0-.374-.097-.733-.289-1.078-.192-.346-.461-.611-.805-.797-.345-.186-.696-.278-1.057-.278ZM63.578,151.055v-2.775h.953c.326,0,.561.026.708.077.146.052.262.141.349.269.086.127.13.263.13.407,0,.203-.072.379-.218.53-.145.15-.336.235-.575.253.098.041.177.09.235.147.112.109.249.293.41.55l.339.543h-.547l-.246-.438c-.194-.344-.35-.56-.469-.646-.082-.064-.201-.096-.358-.096h-.264v1.179h-.447ZM64.025,149.493h.544c.26,0,.437-.039.531-.116.095-.078.142-.18.142-.308,0-.082-.022-.155-.068-.221-.045-.064-.108-.113-.189-.145-.081-.032-.23-.048-.449-.048h-.51v.837Z" fill="#fff"/>
  </g>
</svg>